0
SECTION
2
HEADER
9
$INSUNITS
70
4
9
$ACADVER
1
AC1014
9
$HANDSEED
5
FFFF
0
ENDSEC
0
SECTION
2
TABLES
0
TABLE
2
VPORT
5
8
100
AcDbSymbolTable
0
ENDTAB
0
TABLE
2
LTYPE
5
5
100
AcDbSymbolTable
0
LTYPE
5
14
100
AcDbSymbolTableRecord
100
AcDbLinetypeTableRecord
2
BYBLOCK
70
0
0
LTYPE
5
15
100
AcDbSymbolTableRecord
100
AcDbLinetypeTableRecord
2
BYLAYER
70
0
0
ENDTAB
0
TABLE
2
LAYER
5
2
100
AcDbSymbolTable
70
2
0
LAYER
5
50
100
AcDbSymbolTableRecord
100
AcDbLayerTableRecord
2
0
70
0
6
CONTINUOUS
0
ENDTAB
0
TABLE
2
STYLE
5
3
100
AcDbSymbolTable
70
1
0
STYLE
5
11
100
AcDbSymbolTableRecord
100
AcDbTextStyleTableRecord
2
STANDARD
70
0
0
ENDTAB
0
TABLE
2
VIEW
5
6
100
AcDbSymbolTable
70
0
0
ENDTAB
0
TABLE
2
UCS
5
7
100
AcDbSymbolTable
70
0
0
ENDTAB
0
TABLE
2
APPID
5
9
100
AcDbSymbolTable
70
2
0
APPID
5
12
100
AcDbSymbolTableRecord
100
AcDbRegAppTableRecord
2
ACAD
70
0
0
ENDTAB
0
TABLE
2
DIMSTYLE
5
A
100
AcDbSymbolTable
70
1
0
ENDTAB
0
TABLE
2
BLOCK_RECORD
5
1
100
AcDbSymbolTable
70
1
0
BLOCK_RECORD
5
1F
100
AcDbSymbolTableRecord
100
AcDbBlockTableRecord
2
*MODEL_SPACE
0
BLOCK_RECORD
5
1B
100
AcDbSymbolTableRecord
100
AcDbBlockTableRecord
2
*PAPER_SPACE
0
ENDTAB
0
ENDSEC
0
SECTION
2
BLOCKS
0
BLOCK
5
20
100
AcDbEntity
100
AcDbBlockBegin
2
*MODEL_SPACE
0
ENDBLK
5
21
100
AcDbEntity
100
AcDbBlockEnd
0
BLOCK
5
1C
100
AcDbEntity
100
AcDbBlockBegin
2
*PAPER_SPACE
0
ENDBLK
5
1D
100
AcDbEntity
100
AcDbBlockEnd
0
ENDSEC
0
SECTION
2
ENTITIES
0
LWPOLYLINE
5
100
100
AcDbEntity
8
0
100
AcDbPolyline
90
16
70
1
43
0.0
10
9.4497332994665157
20
-11.558420116840241
10
9.4497332994665157
20
-83.699669799339645
42
0.41421356237309664
10
11.449733299466516
20
-85.699669799339645
10
223.70020320040626
20
-85.699669799339631
42
-0.99999999999999989
10
224.70020320040629
20
-85.699669799339631
10
236.70020320040629
20
-85.699669799339631
42
-0.99999999999999989
10
237.70020320040629
20
-85.699669799339631
10
258.20020320040629
20
-85.699669799339631
42
0.41421356237308721
10
260.20020320040629
20
-83.699669799339617
10
260.20020320040635
20
-11.558420116840241
42
0.41421356237309925
10
258.20020320040635
20
-9.5584201168402405
10
237.70020320040632
20
-9.5584201168402405
42
-0.99999999999999989
10
236.70020320040632
20
-9.5584201168402405
10
224.70020320040632
20
-9.5584201168402405
42
-0.99999999999999989
10
223.70020320040629
20
-9.5584201168402405
10
11.449733299466516
20
-9.5584201168402387
42
0.4142135623730947
0
CIRCLE
5
101
100
AcDbEntity
8
0
100
AcDbCircle
10
28.613055626111198
20
-28.574980949961862
30
0
40
2
210
0
220
0
230
1
0
CIRCLE
5
102
100
AcDbEntity
8
0
100
AcDbCircle
10
28.57505715011439
20
-66.675057150114299
30
0
40
2
210
0
220
0
230
1
0
CIRCLE
5
103
100
AcDbEntity
8
0
100
AcDbCircle
10
104.77520955041902
20
-47.625019050038084
30
0
40
2
210
0
220
0
230
1
0
CIRCLE
5
104
100
AcDbEntity
8
0
100
AcDbCircle
10
180.97536195072391
20
-28.574980949961862
30
0
40
2
210
0
220
0
230
1
0
CIRCLE
5
105
100
AcDbEntity
8
0
100
AcDbCircle
10
180.97536195072391
20
-66.675057150114299
30
0
40
2
210
0
220
0
230
1
0
LWPOLYLINE
5
106
100
AcDbEntity
8
0
100
AcDbPolyline
90
8
70
1
43
0.0
10
218.16504953009922
20
-49.705470090207449
10
207.16504953009922
20
-49.705470090207449
42
-0.4142135623730846
10
206.16504953009922
20
-48.705470090207399
10
206.16504953009922
20
-15.705470090207436
42
-0.41421356237306511
10
207.16504953009922
20
-14.70547009020745
10
218.16504953009922
20
-14.70547009020745
42
-0.41421356237309115
10
219.16504953009922
20
-15.705470090207454
10
219.16504953009922
20
-48.705470090207463
42
-0.4142135623730846
0
CIRCLE
5
107
100
AcDbEntity
8
0
100
AcDbCircle
10
221.33253650930652
20
-66.417460373410279
30
0
40
2
210
0
220
0
230
1
0
ENDSEC
0
SECTION
2
OBJECTS
0
DICTIONARY
5
C
100
AcDbDictionary
3
ACAD_GROUP
350
D
3
ACAD_MLINESTYLE
350
17
0
DICTIONARY
5
D
100
AcDbDictionary
0
DICTIONARY
5
1A
330
C
100
AcDbDictionary
0
DICTIONARY
5
17
100
AcDbDictionary
0
ENDSEC
0
EOF
