999
dxfrw 0.6.3
  0
SECTION
  2
HEADER
  9
$ACADVER
  1
AC1021
  9
$DWGCODEPAGE
  3
ANSI_932
  9
$INSBASE
 10
0
 20
0
 30
0
  9
$EXTMIN
 10
211.297352
 20
248.486469
 30
0
  9
$EXTMAX
 10
426.047724
 20
324.627558
 30
0
  9
$LIMMIN
 10
211.163683
 20
248.354178
  9
$LIMMAX
 10
426.180016
 20
324.75985
  9
$ORTHOMODE
 70
    0
  9
$REGENMODE
 70
    1
  9
$FILLMODE
 70
    1
  9
$QTEXTMODE
 70
    0
  9
$MIRRTEXT
 70
    1
  9
$LTSCALE
 40
1
  9
$ATTMODE
 70
    1
  9
$TEXTSIZE
 40
0.2
  9
$TRACEWID
 40
0.05
  9
$TEXTSTYLE
  7
Standard
  9
$CLAYER
  8
0
  9
$CELTYPE
  6
Continuous
  9
$CECOLOR
 62
  256
  9
$CELTSCALE
 40
1
  9
$DISPSILH
 70
    0
  9
$DIMSCALE
 40
1
  9
$DIMASZ
 40
0.18
  9
$DIMEXO
 40
0.0625
  9
$DIMDLI
 40
0.38
  9
$DIMRND
 40
0
  9
$DIMDLE
 40
0
  9
$DIMEXE
 40
0.18
  9
$DIMTP
 40
0
  9
$DIMTM
 40
0
  9
$DIMTXT
 40
0.18
  9
$DIMCEN
 40
0.09
  9
$DIMTSZ
 40
0
  9
$DIMTOL
 70
    0
  9
$DIMLIM
 70
    0
  9
$DIMTIH
 70
    1
  9
$DIMTOH
 70
    1
  9
$DIMSE1
 70
    0
  9
$DIMSE2
 70
    0
  9
$DIMTAD
 70
    0
  9
$DIMZIN
 70
    0
  9
$DIMBLK
  1

  9
$DIMASO
 70
    1
  9
$DIMSHO
 70
    1
  9
$DIMPOST
  1

  9
$DIMAPOST
  1

  9
$DIMALT
 70
    0
  9
$DIMALTD
 70
    2
  9
$DIMALTF
 40
25.4
  9
$DIMLFAC
 40
1
  9
$DIMTOFL
 70
    0
  9
$DIMTVP
 40
0
  9
$DIMTIX
 70
    0
  9
$DIMSOXD
 70
    0
  9
$DIMSAH
 70
    0
  9
$DIMBLK1
  1

  9
$DIMBLK2
  1

  9
$DIMSTYLE
  2
Standard
  9
$DIMCLRD
 70
    0
  9
$DIMCLRE
 70
    0
  9
$DIMCLRT
 70
    0
  9
$DIMTFAC
 40
1
  9
$DIMGAP
 40
0.09
  9
$DIMJUST
 70
    0
  9
$DIMSD1
 70
    0
  9
$DIMSD2
 70
    0
  9
$DIMTOLJ
 70
    1
  9
$DIMTZIN
 70
    0
  9
$DIMALTZ
 70
    0
  9
$DIMALTTZ
 70
    0
  9
$DIMUPT
 70
    0
  9
$DIMDEC
 70
    4
  9
$DIMTDEC
 70
    4
  9
$DIMALTU
 70
    2
  9
$DIMALTTD
 70
    2
  9
$DIMTXSTY
  7
Standard
  9
$DIMAUNIT
 70
    0
  9
$DIMADEC
 70
    0
  9
$DIMALTRND
 40
0
  9
$DIMAZIN
 70
    0
  9
$DIMDSEP
 70
    0
  9
$DIMATFIT
 70
    3
  9
$DIMFRAC
 70
    0
  9
$DIMLDRBLK
  1

  9
$DIMLUNIT
 70
    2
  9
$DIMLWD
 70
    0
  9
$DIMLWE
 70
    0
  9
$DIMTMOVE
 70
    0
  9
$DIMFXL
 40
1
  9
$DIMFXLON
 70
    0
  9
$DIMJOGANG
 40
0.7854
  9
$DIMTFILL
 70
    0
  9
$DIMTFILLCLR
 70
    0
  9
$DIMARCSYM
 70
    0
  9
$DIMLTYPE
  6

  9
$DIMLTEX1
  6

  9
$DIMLTEX2
  6

  9
$LUNITS
 70
    2
  9
$LUPREC
 70
    4
  9
$SKETCHINC
 40
0.1
  9
$FILLETRAD
 40
0
  9
$AUNITS
 70
    0
  9
$AUPREC
 70
    0
  9
$MENU
  1
acad
  9
$ELEVATION
 40
0
  9
$PELEVATION
 40
0
  9
$THICKNESS
 40
0
  9
$LIMCHECK
 70
    0
  9
$CHAMFERA
 40
0
  9
$CHAMFERB
 40
0
  9
$CHAMFERC
 40
0
  9
$CHAMFERD
 40
0
  9
$SKPOLY
 70
    0
  9
$USRTIMER
 70
    1
  9
$ANGBASE
 50
0
  9
$ANGDIR
 70
    0
  9
$PDMODE
 70
    0
  9
$PDSIZE
 40
0
  9
$PLINEWID
 40
0
  9
$SPLFRAME
 70
    0
  9
$SPLINETYPE
 70
    6
  9
$SPLINESEGS
 70
    8
  9
$HANDSEED
  5
20000
  9
$SURFTAB1
 70
    6
  9
$SURFTAB2
 70
    6
  9
$SURFTYPE
 70
    6
  9
$SURFU
 70
    6
  9
$SURFV
 70
    6
  9
$UCSBASE
  2

  9
$UCSNAME
  2

  9
$UCSORG
 10
0
 20
0
 30
0
  9
$UCSXDIR
 10
1
 20
0
 30
0
  9
$UCSYDIR
 10
0
 20
1
 30
0
  9
$UCSORTHOREF
  2

  9
$UCSORTHOVIEW
 70
    0
  9
$UCSORGTOP
 10
0
 20
0
 30
0
  9
$UCSORGBOTTOM
 10
0
 20
0
 30
0
  9
$UCSORGLEFT
 10
0
 20
0
 30
0
  9
$UCSORGRIGHT
 10
0
 20
0
 30
0
  9
$UCSORGFRONT
 10
0
 20
0
 30
0
  9
$UCSORGBACK
 10
0
 20
0
 30
0
  9
$PUCSBASE
  2

  9
$PUCSNAME
  2

  9
$PUCSORG
 10
0
 20
0
 30
0
  9
$PUCSXDIR
 10
1
 20
0
 30
0
  9
$PUCSYDIR
 10
0
 20
1
 30
0
  9
$PUCSORTHOREF
  2

  9
$PUCSORTHOVIEW
 70
    0
  9
$PUCSORGTOP
 10
0
 20
0
 30
0
  9
$PUCSORGBOTTOM
 10
0
 20
0
 30
0
  9
$PUCSORGLEFT
 10
0
 20
0
 30
0
  9
$PUCSORGRIGHT
 10
0
 20
0
 30
0
  9
$PUCSORGFRONT
 10
0
 20
0
 30
0
  9
$PUCSORGBACK
 10
0
 20
0
 30
0
  9
$USERI1
 70
    0
  9
$USERI2
 70
    0
  9
$USERI3
 70
    0
  9
$USERI4
 70
    0
  9
$USERI5
 70
    0
  9
$USERR1
 40
0
  9
$USERR2
 40
0
  9
$USERR3
 40
0
  9
$USERR4
 40
0
  9
$USERR5
 40
0
  9
$WORLDVIEW
 70
    1
  9
$SHADEDGE
 70
    3
  9
$SHADEDIF
 70
   70
  9
$TILEMODE
 70
    1
  9
$MAXACTVP
 70
   16
  9
$PINSBASE
 10
0
 20
0
 30
0
  9
$PLIMCHECK
 70
    0
  9
$PEXTMIN
 10
1e+020
 20
1e+020
 30
1e+020
  9
$PEXTMAX
 10
-1e+020
 20
-1e+020
 30
-1e+020
  9
$GRIDMODE
 70
    0
  9
$SNAPSTYLE
 70
    0
  9
$PLIMMIN
 10
0
 20
0
  9
$PLIMMAX
 10
12
 20
9
  9
$UNITMODE
 70
    0
  9
$VISRETAIN
 70
    0
  9
$PLINEGEN
 70
    1
  9
$PSLTSCALE
 70
    0
  9
$TREEDEPTH
 70
 3020
  9
$CMLSTYLE
  2
Standard
  9
$CMLJUST
 70
    0
  9
$CMLSCALE
 40
1
  9
$PROXYGRAPHICS
 70
    0
  9
$MEASUREMENT
 70
    1
  9
$CELWEIGHT
370
    0
  9
$ENDCAPS
280
    0
  9
$JOINSTYLE
280
    0
  9
$LWDISPLAY
290
    0
  9
$INSUNITS
 70
    0
  9
$HYPERLINKBASE
  1

  9
$STYLESHEET
  1

  9
$XEDIT
290
    1
  9
$CEPSNTYPE
380
    0
  9
$PSTYLEMODE
290
    1
  9
$EXTNAMES
290
    1
  9
$PSVPSCALE
 40
0
  9
$OLESTARTUP
290
    0
  9
$SORTENTS
280
  127
  9
$INDEXCTL
280
    0
  9
$HIDETEXT
280
    1
  9
$XCLIPFRAME
290
    0
  9
$HALOGAP
280
    0
  9
$OBSCOLOR
 70
  257
  9
$OBSLTYPE
280
    0
  9
$INTERSECTIONDISPLAY
280
    0
  9
$INTERSECTIONCOLOR
 70
  257
  9
$DIMASSOC
280
    1
  9
$PROJECTNAME
  1

  9
$CAMERADISPLAY
290
    0
  9
$LENSLENGTH
 40
50
  9
$CAMERAHEIGHT
 40
0
  9
$STEPSPERSEC
 40
2
  9
$STEPSIZE
 40
50
  9
$3DDWFPREC
 40
2
  9
$PSOLWIDTH
 40
5
  9
$PSOLHEIGHT
 40
80
  9
$LOFTANG1
 40
1.570796326794897
  9
$LOFTANG2
 40
1.570796326794897
  9
$LOFTMAG1
 40
0
  9
$LOFTMAG2
 40
0
  9
$LOFTPARAM
 70
    7
  9
$LOFTNORMALS
280
    1
  9
$LATITUDE
 40
1
  9
$LONGITUDE
 40
1
  9
$NORTHDIRECTION
 40
0
  9
$TIMEZONE
 70
-8000
  9
$LIGHTGLYPHDISPLAY
280
    1
  9
$TILEMODELIGHTSYNCH
280
    1
  9
$SOLIDHIST
280
    1
  9
$SHOWHIST
280
    1
  9
$DWFFRAME
280
    2
  9
$DGNFRAME
280
    0
  9
$REALWORLDSCALE
290
    1
  9
$INTERFERECOLOR
 62
    1
  9
$CSHADOW
280
    0
  9
$SHADOWPLANELOCATION
 40
0
  0
ENDSEC
  0
SECTION
  2
CLASSES
  0
ENDSEC
  0
SECTION
  2
TABLES
  0
TABLE
  2
VPORT
  5
8
330
0
100
AcDbSymbolTable
 70
    1
  0
VPORT
  5
31
330
2
100
AcDbSymbolTableRecord
100
AcDbViewportTableRecord
  2
*ACTIVE
 70
    0
 10
0
 20
0
 11
1
 21
1
 12
262.203848547286
 22
193.9337973620322
 13
0
 23
0
 14
10
 24
10
 15
10
 25
10
 16
0
 26
0
 36
1
 17
0
 27
0
 37
0
 40
226.8975230568729
 41
1.709439528023599
 42
50
 43
0
 44
0
 50
0
 51
0
 71
    0
 72
  100
 73
    1
 74
    3
 75
    0
 76
    0
 77
    0
 78
    0
281
    0
 65
    1
110
0
120
0
130
0
111
1
121
0
131
0
112
0
122
1
132
0
 79
    0
146
0
348
10020
 60
    7
 61
    5
292
1
282
    1
141
0
142
0
 63
  250
421
3358443
  0
ENDTAB
  0
TABLE
  2
LTYPE
  5
5
330
0
100
AcDbSymbolTable
 70
    4
  0
LTYPE
  5
14
330
5
100
AcDbSymbolTableRecord
100
AcDbLinetypeTableRecord
  2
ByBlock
 70
    0
  3

 72
   65
 73
    0
 40
0
  0
LTYPE
  5
15
330
5
100
AcDbSymbolTableRecord
100
AcDbLinetypeTableRecord
  2
ByLayer
 70
    0
  3

 72
   65
 73
    0
 40
0
  0
LTYPE
  5
16
330
5
100
AcDbSymbolTableRecord
100
AcDbLinetypeTableRecord
  2
Continuous
 70
    0
  3
Solid line
 72
   65
 73
    0
 40
0
  0
LTYPE
  5
32
330
5
100
AcDbSymbolTableRecord
100
AcDbLinetypeTableRecord
  2
DOT
 70
    0
  3
Dot . . . . . . . . . . . . . . . . . . . . . .
 72
   65
 73
    2
 40
6.35
 49
0
 74
    0
 49
-6.35
 74
    0
  0
LTYPE
  5
33
330
5
100
AcDbSymbolTableRecord
100
AcDbLinetypeTableRecord
  2
DOTTINY
 70
    0
  3
Dot (.15x) .....................................
 72
   65
 73
    2
 40
0.9525
 49
0
 74
    0
 49
-0.9525
 74
    0
  0
LTYPE
  5
34
330
5
100
AcDbSymbolTableRecord
100
AcDbLinetypeTableRecord
  2
DOT2
 70
    0
  3
Dot (.5x) .....................................
 72
   65
 73
    2
 40
3.175
 49
0
 74
    0
 49
-3.175
 74
    0
  0
LTYPE
  5
35
330
5
100
AcDbSymbolTableRecord
100
AcDbLinetypeTableRecord
  2
DOTX2
 70
    0
  3
Dot (2x) .  .  .  .  .  .  .  .  .  .  .  .  .
 72
   65
 73
    2
 40
12.7
 49
0
 74
    0
 49
-12.7
 74
    0
  0
LTYPE
  5
36
330
5
100
AcDbSymbolTableRecord
100
AcDbLinetypeTableRecord
  2
DASHED
 70
    0
  3
Dashed _ _ _ _ _ _ _ _ _ _ _ _ _ _ _ _ _
 72
   65
 73
    2
 40
19.05
 49
12.7
 74
    0
 49
-6.35
 74
    0
  0
LTYPE
  5
37
330
5
100
AcDbSymbolTableRecord
100
AcDbLinetypeTableRecord
  2
DASHEDTINY
 70
    0
  3
Dashed (.15x) _ _ _ _ _ _ _ _ _ _ _ _ _ _ _ _ _
 72
   65
 73
    2
 40
2.8575
 49
1.905
 74
    0
 49
-0.9525
 74
    0
  0
LTYPE
  5
38
330
5
100
AcDbSymbolTableRecord
100
AcDbLinetypeTableRecord
  2
DASHED2
 70
    0
  3
Dashed (.5x) _ _ _ _ _ _ _ _ _ _ _ _ _ _ _ _ _
 72
   65
 73
    2
 40
9.524999999999999
 49
6.35
 74
    0
 49
-3.175
 74
    0
  0
LTYPE
  5
39
330
5
100
AcDbSymbolTableRecord
100
AcDbLinetypeTableRecord
  2
DASHEDX2
 70
    0
  3
Dashed (2x) ____  ____  ____  ____  ____  ___
 72
   65
 73
    2
 40
38.09999999999999
 49
25.4
 74
    0
 49
-12.7
 74
    0
  0
LTYPE
  5
3A
330
5
100
AcDbSymbolTableRecord
100
AcDbLinetypeTableRecord
  2
DASHDOT
 70
    0
  3
Dash dot __ . __ . __ . __ . __ . __ . __ . __
 72
   65
 73
    4
 40
25.4
 49
12.7
 74
    0
 49
-6.35
 74
    0
 49
0
 74
    0
 49
-6.35
 74
    0
  0
LTYPE
  5
3B
330
5
100
AcDbSymbolTableRecord
100
AcDbLinetypeTableRecord
  2
DASHDOTTINY
 70
    0
  3
Dash dot (.15x) _._._._._._._._._._._._._._._.
 72
   65
 73
    4
 40
3.81
 49
1.905
 74
    0
 49
-0.9525
 74
    0
 49
0
 74
    0
 49
-0.9525
 74
    0
  0
LTYPE
  5
3C
330
5
100
AcDbSymbolTableRecord
100
AcDbLinetypeTableRecord
  2
DASHDOT2
 70
    0
  3
Dash dot (.5x) _._._._._._._._._._._._._._._.
 72
   65
 73
    4
 40
12.7
 49
6.35
 74
    0
 49
-3.175
 74
    0
 49
0
 74
    0
 49
-3.175
 74
    0
  0
LTYPE
  5
3D
330
5
100
AcDbSymbolTableRecord
100
AcDbLinetypeTableRecord
  2
DASHDOTX2
 70
    0
  3
Dash dot (2x) ____  .  ____  .  ____  .  ___
 72
   65
 73
    4
 40
50.8
 49
25.4
 74
    0
 49
-12.7
 74
    0
 49
0
 74
    0
 49
-12.7
 74
    0
  0
LTYPE
  5
3E
330
5
100
AcDbSymbolTableRecord
100
AcDbLinetypeTableRecord
  2
DIVIDE
 70
    0
  3
Divide ____ . . ____ . . ____ . . ____ . . ____
 72
   65
 73
    6
 40
31.75
 49
12.7
 74
    0
 49
-6.35
 74
    0
 49
0
 74
    0
 49
-6.35
 74
    0
 49
0
 74
    0
 49
-6.35
 74
    0
  0
LTYPE
  5
3F
330
5
100
AcDbSymbolTableRecord
100
AcDbLinetypeTableRecord
  2
DIVIDETINY
 70
    0
  3
Divide (.15x) __..__..__..__..__..__..__..__.._
 72
   65
 73
    6
 40
4.7625
 49
1.905
 74
    0
 49
-0.9525
 74
    0
 49
0
 74
    0
 49
-0.9525
 74
    0
 49
0
 74
    0
 49
-0.9525
 74
    0
  0
LTYPE
  5
40
330
5
100
AcDbSymbolTableRecord
100
AcDbLinetypeTableRecord
  2
DIVIDE2
 70
    0
  3
Divide (.5x) __..__..__..__..__..__..__..__.._
 72
   65
 73
    6
 40
15.875
 49
6.35
 74
    0
 49
-3.175
 74
    0
 49
0
 74
    0
 49
-3.175
 74
    0
 49
0
 74
    0
 49
-3.175
 74
    0
  0
LTYPE
  5
41
330
5
100
AcDbSymbolTableRecord
100
AcDbLinetypeTableRecord
  2
DIVIDEX2
 70
    0
  3
Divide (2x) ________  .  .  ________  .  .  _
 72
   65
 73
    6
 40
63.5
 49
25.4
 74
    0
 49
-12.7
 74
    0
 49
0
 74
    0
 49
-12.7
 74
    0
 49
0
 74
    0
 49
-12.7
 74
    0
  0
LTYPE
  5
42
330
5
100
AcDbSymbolTableRecord
100
AcDbLinetypeTableRecord
  2
BORDER
 70
    0
  3
Border __ __ . __ __ . __ __ . __ __ . __ __ .
 72
   65
 73
    6
 40
44.45
 49
12.7
 74
    0
 49
-6.35
 74
    0
 49
12.7
 74
    0
 49
-6.35
 74
    0
 49
0
 74
    0
 49
-6.35
 74
    0
  0
LTYPE
  5
43
330
5
100
AcDbSymbolTableRecord
100
AcDbLinetypeTableRecord
  2
BORDERTINY
 70
    0
  3
Border (.15x) __.__.__.__.__.__.__.__.__.__.__.
 72
   65
 73
    6
 40
6.6675
 49
1.905
 74
    0
 49
-0.9525
 74
    0
 49
1.905
 74
    0
 49
-0.9525
 74
    0
 49
0
 74
    0
 49
-0.9525
 74
    0
  0
LTYPE
  5
44
330
5
100
AcDbSymbolTableRecord
100
AcDbLinetypeTableRecord
  2
BORDER2
 70
    0
  3
Border (.5x) __.__.__.__.__.__.__.__.__.__.__.
 72
   65
 73
    6
 40
22.225
 49
6.35
 74
    0
 49
-3.175
 74
    0
 49
6.35
 74
    0
 49
-3.175
 74
    0
 49
0
 74
    0
 49
-3.175
 74
    0
  0
LTYPE
  5
45
330
5
100
AcDbSymbolTableRecord
100
AcDbLinetypeTableRecord
  2
BORDERX2
 70
    0
  3
Border (2x) ____  ____  .  ____  ____  .  ___
 72
   65
 73
    6
 40
88.89999999999999
 49
25.4
 74
    0
 49
-12.7
 74
    0
 49
25.4
 74
    0
 49
-12.7
 74
    0
 49
0
 74
    0
 49
-12.7
 74
    0
  0
LTYPE
  5
46
330
5
100
AcDbSymbolTableRecord
100
AcDbLinetypeTableRecord
  2
CENTER
 70
    0
  3
Center ____ _ ____ _ ____ _ ____ _ ____ _ ____
 72
   65
 73
    4
 40
50.8
 49
31.75
 74
    0
 49
-6.35
 74
    0
 49
6.35
 74
    0
 49
-6.35
 74
    0
  0
LTYPE
  5
47
330
5
100
AcDbSymbolTableRecord
100
AcDbLinetypeTableRecord
  2
CENTERTINY
 70
    0
  3
Center (.15x) ___ _ ___ _ ___ _ ___ _ ___ _ ___
 72
   65
 73
    4
 40
7.62
 49
4.7625
 74
    0
 49
-0.9525
 74
    0
 49
0.9525
 74
    0
 49
-0.9525
 74
    0
  0
LTYPE
  5
48
330
5
100
AcDbSymbolTableRecord
100
AcDbLinetypeTableRecord
  2
CENTER2
 70
    0
  3
Center (.5x) ___ _ ___ _ ___ _ ___ _ ___ _ ___
 72
   65
 73
    4
 40
28.575
 49
19.05
 74
    0
 49
-3.175
 74
    0
 49
3.175
 74
    0
 49
-3.175
 74
    0
  0
LTYPE
  5
49
330
5
100
AcDbSymbolTableRecord
100
AcDbLinetypeTableRecord
  2
CENTERX2
 70
    0
  3
Center (2x) ________  __  ________  __  _____
 72
   65
 73
    4
 40
101.6
 49
63.5
 74
    0
 49
-12.7
 74
    0
 49
12.7
 74
    0
 49
-12.7
 74
    0
  0
ENDTAB
  0
TABLE
  2
LAYER
  5
2
330
0
100
AcDbSymbolTable
 70
    1
  0
LAYER
  5
10
330
2
100
AcDbSymbolTableRecord
100
AcDbLayerTableRecord
  2
0
 70
    0
 62
    7
  6
CONTINUOUS
370
   -3
390
F
  0
LAYER
  5
4A
330
2
100
AcDbSymbolTableRecord
100
AcDbLayerTableRecord
  2
LAYER_1
 70
    0
 62
    5
  6
CONTINUOUS
370
   -3
390
F
  0
ENDTAB
  0
TABLE
  2
STYLE
  5
3
330
0
100
AcDbSymbolTable
 70
    3
  0
STYLE
  5
4B
330
2
100
AcDbSymbolTableRecord
100
AcDbTextStyleTableRecord
  2
Standard
 70
    0
 40
0
 41
1
 50
0
 71
    0
 42
1
  3
txt
  4

  0
ENDTAB
  0
TABLE
  2
VIEW
  5
6
330
0
100
AcDbSymbolTable
 70
    0
  0
ENDTAB
  0
TABLE
  2
UCS
  5
7
330
0
100
AcDbSymbolTable
 70
    0
  0
ENDTAB
  0
TABLE
  2
APPID
  5
9
330
0
100
AcDbSymbolTable
 70
    1
  0
APPID
  5
12
330
9
100
AcDbSymbolTableRecord
100
AcDbRegAppTableRecord
  2
ACAD
 70
    0
  0
APPID
  5
4C
330
9
100
AcDbSymbolTableRecord
100
AcDbRegAppTableRecord
  2
LibreCad
 70
    0
  0
ENDTAB
  0
TABLE
  2
DIMSTYLE
  5
A
330
0
100
AcDbSymbolTable
 70
    1
100
AcDbDimStyleTable
 71
    1
  0
DIMSTYLE
105
4D
330
A
100
AcDbSymbolTableRecord
100
AcDbDimStyleTableRecord
  2
Standard
 70
    0
 40
1
 41
0.18
 42
0.0625
 43
0.38
 44
0.18
 45
0
 46
0
 47
0
 48
0
 49
1
140
0.18
141
0.09
142
0
143
25.4
144
1
145
0
146
1
147
0.09
148
0
 71
    0
 72
    0
 73
    1
 74
    1
 75
    0
 76
    0
 77
    0
 78
    0
 79
    0
170
    0
171
    2
172
    0
173
    0
174
    0
175
    0
176
    0
177
    0
178
    0
179
    0
271
    4
272
    4
273
    2
274
    2
275
    0
276
    0
277
    2
278
    0
279
    0
280
    0
281
    0
282
    0
283
    1
284
    0
285
    0
286
    0
288
    0
289
    3
340
Standard
341

371
    0
372
    0
  0
ENDTAB
  0
TABLE
  2
BLOCK_RECORD
  5
1
330
0
100
AcDbSymbolTable
 70
    2
  0
BLOCK_RECORD
  5
1F
330
1
100
AcDbSymbolTableRecord
100
AcDbBlockTableRecord
  2
*Model_Space
 70
    0
280
    1
281
    0
  0
BLOCK_RECORD
  5
1E
330
1
100
AcDbSymbolTableRecord
100
AcDbBlockTableRecord
  2
*Paper_Space
 70
    0
280
    1
281
    0
  0
BLOCK_RECORD
  5
4E
330
1
100
AcDbSymbolTableRecord
100
AcDbBlockTableRecord
  2
AI9-BLK1
 70
    0
280
    1
281
    0
  0
BLOCK_RECORD
  5
51
330
1
100
AcDbSymbolTableRecord
100
AcDbBlockTableRecord
  2
AI9-BLK2
 70
    0
280
    1
281
    0
  0
BLOCK_RECORD
  5
54
330
1
100
AcDbSymbolTableRecord
100
AcDbBlockTableRecord
  2
AI9-BLK3
 70
    0
280
    1
281
    0
  0
BLOCK_RECORD
  5
57
330
1
100
AcDbSymbolTableRecord
100
AcDbBlockTableRecord
  2
AI9-BLK4
 70
    0
280
    1
281
    0
  0
BLOCK_RECORD
  5
5A
330
1
100
AcDbSymbolTableRecord
100
AcDbBlockTableRecord
  2
AI9-BLK5
 70
    0
280
    1
281
    0
  0
BLOCK_RECORD
  5
5D
330
1
100
AcDbSymbolTableRecord
100
AcDbBlockTableRecord
  2
AI9-BLK6
 70
    0
280
    1
281
    0
  0
BLOCK_RECORD
  5
60
330
1
100
AcDbSymbolTableRecord
100
AcDbBlockTableRecord
  2
AI9-BLK7
 70
    0
280
    1
281
    0
  0
BLOCK_RECORD
  5
63
330
1
100
AcDbSymbolTableRecord
100
AcDbBlockTableRecord
  2
AI9-BLK8
 70
    0
280
    1
281
    0
  0
BLOCK_RECORD
  5
66
330
1
100
AcDbSymbolTableRecord
100
AcDbBlockTableRecord
  2
AI9-BLK9
 70
    0
280
    1
281
    0
  0
BLOCK_RECORD
  5
69
330
1
100
AcDbSymbolTableRecord
100
AcDbBlockTableRecord
  2
AI9-BLK10
 70
    0
280
    1
281
    0
  0
BLOCK_RECORD
  5
6C
330
1
100
AcDbSymbolTableRecord
100
AcDbBlockTableRecord
  2
AI9-BLK11
 70
    0
280
    1
281
    0
  0
BLOCK_RECORD
  5
6F
330
1
100
AcDbSymbolTableRecord
100
AcDbBlockTableRecord
  2
AI9-BLK12
 70
    0
280
    1
281
    0
  0
BLOCK_RECORD
  5
72
330
1
100
AcDbSymbolTableRecord
100
AcDbBlockTableRecord
  2
AI9-BLK13
 70
    0
280
    1
281
    0
  0
BLOCK_RECORD
  5
75
330
1
100
AcDbSymbolTableRecord
100
AcDbBlockTableRecord
  2
AI9-BLK14
 70
    0
280
    1
281
    0
  0
BLOCK_RECORD
  5
78
330
1
100
AcDbSymbolTableRecord
100
AcDbBlockTableRecord
  2
AI9-BLK15
 70
    0
280
    1
281
    0
  0
BLOCK_RECORD
  5
7B
330
1
100
AcDbSymbolTableRecord
100
AcDbBlockTableRecord
  2
AI9-BLK16
 70
    0
280
    1
281
    0
  0
BLOCK_RECORD
  5
7E
330
1
100
AcDbSymbolTableRecord
100
AcDbBlockTableRecord
  2
AI9-BLK17
 70
    0
280
    1
281
    0
  0
BLOCK_RECORD
  5
81
330
1
100
AcDbSymbolTableRecord
100
AcDbBlockTableRecord
  2
AI9-BLK18
 70
    0
280
    1
281
    0
  0
BLOCK_RECORD
  5
84
330
1
100
AcDbSymbolTableRecord
100
AcDbBlockTableRecord
  2
AI9-BLK19
 70
    0
280
    1
281
    0
  0
BLOCK_RECORD
  5
87
330
1
100
AcDbSymbolTableRecord
100
AcDbBlockTableRecord
  2
AI9-BLK20
 70
    0
280
    1
281
    0
  0
BLOCK_RECORD
  5
8A
330
1
100
AcDbSymbolTableRecord
100
AcDbBlockTableRecord
  2
AI9-BLK21
 70
    0
280
    1
281
    0
  0
BLOCK_RECORD
  5
8D
330
1
100
AcDbSymbolTableRecord
100
AcDbBlockTableRecord
  2
AI9-BLK22
 70
    0
280
    1
281
    0
  0
BLOCK_RECORD
  5
90
330
1
100
AcDbSymbolTableRecord
100
AcDbBlockTableRecord
  2
AI9-BLK23
 70
    0
280
    1
281
    0
  0
BLOCK_RECORD
  5
93
330
1
100
AcDbSymbolTableRecord
100
AcDbBlockTableRecord
  2
AI9-BLK24
 70
    0
280
    1
281
    0
  0
BLOCK_RECORD
  5
96
330
1
100
AcDbSymbolTableRecord
100
AcDbBlockTableRecord
  2
AI9-BLK25
 70
    0
280
    1
281
    0
  0
BLOCK_RECORD
  5
99
330
1
100
AcDbSymbolTableRecord
100
AcDbBlockTableRecord
  2
AI9-BLK26
 70
    0
280
    1
281
    0
  0
BLOCK_RECORD
  5
9C
330
1
100
AcDbSymbolTableRecord
100
AcDbBlockTableRecord
  2
AI9-BLK27
 70
    0
280
    1
281
    0
  0
BLOCK_RECORD
  5
9F
330
1
100
AcDbSymbolTableRecord
100
AcDbBlockTableRecord
  2
AI9-BLK28
 70
    0
280
    1
281
    0
  0
BLOCK_RECORD
  5
A2
330
1
100
AcDbSymbolTableRecord
100
AcDbBlockTableRecord
  2
AI9-BLK29
 70
    0
280
    1
281
    0
  0
BLOCK_RECORD
  5
A5
330
1
100
AcDbSymbolTableRecord
100
AcDbBlockTableRecord
  2
AI9-BLK30
 70
    0
280
    1
281
    0
  0
BLOCK_RECORD
  5
A8
330
1
100
AcDbSymbolTableRecord
100
AcDbBlockTableRecord
  2
AI9-BLK31
 70
    0
280
    1
281
    0
  0
BLOCK_RECORD
  5
AB
330
1
100
AcDbSymbolTableRecord
100
AcDbBlockTableRecord
  2
AI9-BLK32
 70
    0
280
    1
281
    0
  0
BLOCK_RECORD
  5
AE
330
1
100
AcDbSymbolTableRecord
100
AcDbBlockTableRecord
  2
AI9-BLK33
 70
    0
280
    1
281
    0
  0
BLOCK_RECORD
  5
B1
330
1
100
AcDbSymbolTableRecord
100
AcDbBlockTableRecord
  2
AI9-BLK34
 70
    0
280
    1
281
    0
  0
BLOCK_RECORD
  5
B4
330
1
100
AcDbSymbolTableRecord
100
AcDbBlockTableRecord
  2
AI9-BLK35
 70
    0
280
    1
281
    0
  0
BLOCK_RECORD
  5
B7
330
1
100
AcDbSymbolTableRecord
100
AcDbBlockTableRecord
  2
AI9-BLK36
 70
    0
280
    1
281
    0
  0
BLOCK_RECORD
  5
BA
330
1
100
AcDbSymbolTableRecord
100
AcDbBlockTableRecord
  2
AI9-BLK37
 70
    0
280
    1
281
    0
  0
BLOCK_RECORD
  5
BD
330
1
100
AcDbSymbolTableRecord
100
AcDbBlockTableRecord
  2
AI9-BLK38
 70
    0
280
    1
281
    0
  0
BLOCK_RECORD
  5
C0
330
1
100
AcDbSymbolTableRecord
100
AcDbBlockTableRecord
  2
AI9-BLK39
 70
    0
280
    1
281
    0
  0
BLOCK_RECORD
  5
C3
330
1
100
AcDbSymbolTableRecord
100
AcDbBlockTableRecord
  2
AI9-BLK40
 70
    0
280
    1
281
    0
  0
BLOCK_RECORD
  5
C6
330
1
100
AcDbSymbolTableRecord
100
AcDbBlockTableRecord
  2
AI9-BLK41
 70
    0
280
    1
281
    0
  0
BLOCK_RECORD
  5
C9
330
1
100
AcDbSymbolTableRecord
100
AcDbBlockTableRecord
  2
AI9-BLK42
 70
    0
280
    1
281
    0
  0
BLOCK_RECORD
  5
CC
330
1
100
AcDbSymbolTableRecord
100
AcDbBlockTableRecord
  2
AI9-BLK43
 70
    0
280
    1
281
    0
  0
BLOCK_RECORD
  5
CF
330
1
100
AcDbSymbolTableRecord
100
AcDbBlockTableRecord
  2
AI9-BLK44
 70
    0
280
    1
281
    0
  0
BLOCK_RECORD
  5
D2
330
1
100
AcDbSymbolTableRecord
100
AcDbBlockTableRecord
  2
AI9-BLK45
 70
    0
280
    1
281
    0
  0
BLOCK_RECORD
  5
D5
330
1
100
AcDbSymbolTableRecord
100
AcDbBlockTableRecord
  2
AI9-BLK46
 70
    0
280
    1
281
    0
  0
BLOCK_RECORD
  5
D8
330
1
100
AcDbSymbolTableRecord
100
AcDbBlockTableRecord
  2
AI9-BLK47
 70
    0
280
    1
281
    0
  0
BLOCK_RECORD
  5
DB
330
1
100
AcDbSymbolTableRecord
100
AcDbBlockTableRecord
  2
AI9-BLK48
 70
    0
280
    1
281
    0
  0
BLOCK_RECORD
  5
DE
330
1
100
AcDbSymbolTableRecord
100
AcDbBlockTableRecord
  2
AI9-BLK49
 70
    0
280
    1
281
    0
  0
BLOCK_RECORD
  5
E1
330
1
100
AcDbSymbolTableRecord
100
AcDbBlockTableRecord
  2
AI9-BLK50
 70
    0
280
    1
281
    0
  0
BLOCK_RECORD
  5
E4
330
1
100
AcDbSymbolTableRecord
100
AcDbBlockTableRecord
  2
AI9-BLK51
 70
    0
280
    1
281
    0
  0
BLOCK_RECORD
  5
E7
330
1
100
AcDbSymbolTableRecord
100
AcDbBlockTableRecord
  2
AI9-BLK52
 70
    0
280
    1
281
    0
  0
BLOCK_RECORD
  5
EA
330
1
100
AcDbSymbolTableRecord
100
AcDbBlockTableRecord
  2
AI9-BLK53
 70
    0
280
    1
281
    0
  0
BLOCK_RECORD
  5
ED
330
1
100
AcDbSymbolTableRecord
100
AcDbBlockTableRecord
  2
AI9-BLK54
 70
    0
280
    1
281
    0
  0
BLOCK_RECORD
  5
F0
330
1
100
AcDbSymbolTableRecord
100
AcDbBlockTableRecord
  2
AI9-BLK55
 70
    0
280
    1
281
    0
  0
BLOCK_RECORD
  5
F3
330
1
100
AcDbSymbolTableRecord
100
AcDbBlockTableRecord
  2
AI9-BLK56
 70
    0
280
    1
281
    0
  0
BLOCK_RECORD
  5
F6
330
1
100
AcDbSymbolTableRecord
100
AcDbBlockTableRecord
  2
AI9-BLK57
 70
    0
280
    1
281
    0
  0
BLOCK_RECORD
  5
F9
330
1
100
AcDbSymbolTableRecord
100
AcDbBlockTableRecord
  2
AI9-BLK58
 70
    0
280
    1
281
    0
  0
BLOCK_RECORD
  5
FC
330
1
100
AcDbSymbolTableRecord
100
AcDbBlockTableRecord
  2
AI9-BLK59
 70
    0
280
    1
281
    0
  0
BLOCK_RECORD
  5
FF
330
1
100
AcDbSymbolTableRecord
100
AcDbBlockTableRecord
  2
AI9-BLK60
 70
    0
280
    1
281
    0
  0
BLOCK_RECORD
  5
102
330
1
100
AcDbSymbolTableRecord
100
AcDbBlockTableRecord
  2
AI9-BLK61
 70
    0
280
    1
281
    0
  0
BLOCK_RECORD
  5
105
330
1
100
AcDbSymbolTableRecord
100
AcDbBlockTableRecord
  2
AI9-BLK62
 70
    0
280
    1
281
    0
  0
BLOCK_RECORD
  5
108
330
1
100
AcDbSymbolTableRecord
100
AcDbBlockTableRecord
  2
AI9-BLK63
 70
    0
280
    1
281
    0
  0
BLOCK_RECORD
  5
10B
330
1
100
AcDbSymbolTableRecord
100
AcDbBlockTableRecord
  2
AI9-BLK64
 70
    0
280
    1
281
    0
  0
BLOCK_RECORD
  5
10E
330
1
100
AcDbSymbolTableRecord
100
AcDbBlockTableRecord
  2
AI9-BLK65
 70
    0
280
    1
281
    0
  0
BLOCK_RECORD
  5
111
330
1
100
AcDbSymbolTableRecord
100
AcDbBlockTableRecord
  2
AI9-BLK66
 70
    0
280
    1
281
    0
  0
BLOCK_RECORD
  5
114
330
1
100
AcDbSymbolTableRecord
100
AcDbBlockTableRecord
  2
AI9-BLK67
 70
    0
280
    1
281
    0
  0
BLOCK_RECORD
  5
117
330
1
100
AcDbSymbolTableRecord
100
AcDbBlockTableRecord
  2
AI9-BLK68
 70
    0
280
    1
281
    0
  0
BLOCK_RECORD
  5
11A
330
1
100
AcDbSymbolTableRecord
100
AcDbBlockTableRecord
  2
AI9-BLK69
 70
    0
280
    1
281
    0
  0
BLOCK_RECORD
  5
11D
330
1
100
AcDbSymbolTableRecord
100
AcDbBlockTableRecord
  2
AI9-BLK70
 70
    0
280
    1
281
    0
  0
BLOCK_RECORD
  5
120
330
1
100
AcDbSymbolTableRecord
100
AcDbBlockTableRecord
  2
AI9-BLK71
 70
    0
280
    1
281
    0
  0
BLOCK_RECORD
  5
123
330
1
100
AcDbSymbolTableRecord
100
AcDbBlockTableRecord
  2
AI9-BLK72
 70
    0
280
    1
281
    0
  0
BLOCK_RECORD
  5
126
330
1
100
AcDbSymbolTableRecord
100
AcDbBlockTableRecord
  2
AI9-BLK73
 70
    0
280
    1
281
    0
  0
BLOCK_RECORD
  5
129
330
1
100
AcDbSymbolTableRecord
100
AcDbBlockTableRecord
  2
AI9-BLK74
 70
    0
280
    1
281
    0
  0
BLOCK_RECORD
  5
12C
330
1
100
AcDbSymbolTableRecord
100
AcDbBlockTableRecord
  2
AI9-BLK75
 70
    0
280
    1
281
    0
  0
BLOCK_RECORD
  5
12F
330
1
100
AcDbSymbolTableRecord
100
AcDbBlockTableRecord
  2
AI9-BLK76
 70
    0
280
    1
281
    0
  0
BLOCK_RECORD
  5
132
330
1
100
AcDbSymbolTableRecord
100
AcDbBlockTableRecord
  2
AI9-BLK77
 70
    0
280
    1
281
    0
  0
BLOCK_RECORD
  5
135
330
1
100
AcDbSymbolTableRecord
100
AcDbBlockTableRecord
  2
AI9-BLK78
 70
    0
280
    1
281
    0
  0
BLOCK_RECORD
  5
138
330
1
100
AcDbSymbolTableRecord
100
AcDbBlockTableRecord
  2
AI9-BLK79
 70
    0
280
    1
281
    0
  0
BLOCK_RECORD
  5
13B
330
1
100
AcDbSymbolTableRecord
100
AcDbBlockTableRecord
  2
AI9-BLK80
 70
    0
280
    1
281
    0
  0
BLOCK_RECORD
  5
13E
330
1
100
AcDbSymbolTableRecord
100
AcDbBlockTableRecord
  2
AI9-BLK81
 70
    0
280
    1
281
    0
  0
BLOCK_RECORD
  5
141
330
1
100
AcDbSymbolTableRecord
100
AcDbBlockTableRecord
  2
AI9-BLK82
 70
    0
280
    1
281
    0
  0
BLOCK_RECORD
  5
144
330
1
100
AcDbSymbolTableRecord
100
AcDbBlockTableRecord
  2
AI9-BLK83
 70
    0
280
    1
281
    0
  0
BLOCK_RECORD
  5
147
330
1
100
AcDbSymbolTableRecord
100
AcDbBlockTableRecord
  2
AI9-BLK84
 70
    0
280
    1
281
    0
  0
BLOCK_RECORD
  5
14A
330
1
100
AcDbSymbolTableRecord
100
AcDbBlockTableRecord
  2
AI9-BLK85
 70
    0
280
    1
281
    0
  0
BLOCK_RECORD
  5
14D
330
1
100
AcDbSymbolTableRecord
100
AcDbBlockTableRecord
  2
AI9-BLK86
 70
    0
280
    1
281
    0
  0
BLOCK_RECORD
  5
150
330
1
100
AcDbSymbolTableRecord
100
AcDbBlockTableRecord
  2
AI9-BLK87
 70
    0
280
    1
281
    0
  0
BLOCK_RECORD
  5
153
330
1
100
AcDbSymbolTableRecord
100
AcDbBlockTableRecord
  2
AI9-BLK88
 70
    0
280
    1
281
    0
  0
BLOCK_RECORD
  5
156
330
1
100
AcDbSymbolTableRecord
100
AcDbBlockTableRecord
  2
AI9-BLK89
 70
    0
280
    1
281
    0
  0
BLOCK_RECORD
  5
159
330
1
100
AcDbSymbolTableRecord
100
AcDbBlockTableRecord
  2
AI9-BLK90
 70
    0
280
    1
281
    0
  0
BLOCK_RECORD
  5
15C
330
1
100
AcDbSymbolTableRecord
100
AcDbBlockTableRecord
  2
AI9-BLK91
 70
    0
280
    1
281
    0
  0
BLOCK_RECORD
  5
15F
330
1
100
AcDbSymbolTableRecord
100
AcDbBlockTableRecord
  2
AI9-BLK92
 70
    0
280
    1
281
    0
  0
BLOCK_RECORD
  5
162
330
1
100
AcDbSymbolTableRecord
100
AcDbBlockTableRecord
  2
AI9-BLK93
 70
    0
280
    1
281
    0
  0
BLOCK_RECORD
  5
165
330
1
100
AcDbSymbolTableRecord
100
AcDbBlockTableRecord
  2
AI9-BLK94
 70
    0
280
    1
281
    0
  0
BLOCK_RECORD
  5
168
330
1
100
AcDbSymbolTableRecord
100
AcDbBlockTableRecord
  2
AI9-BLK95
 70
    0
280
    1
281
    0
  0
BLOCK_RECORD
  5
16B
330
1
100
AcDbSymbolTableRecord
100
AcDbBlockTableRecord
  2
AI9-BLK96
 70
    0
280
    1
281
    0
  0
BLOCK_RECORD
  5
16E
330
1
100
AcDbSymbolTableRecord
100
AcDbBlockTableRecord
  2
AI9-BLK97
 70
    0
280
    1
281
    0
  0
BLOCK_RECORD
  5
171
330
1
100
AcDbSymbolTableRecord
100
AcDbBlockTableRecord
  2
AI9-BLK98
 70
    0
280
    1
281
    0
  0
BLOCK_RECORD
  5
174
330
1
100
AcDbSymbolTableRecord
100
AcDbBlockTableRecord
  2
AI9-BLK99
 70
    0
280
    1
281
    0
  0
BLOCK_RECORD
  5
177
330
1
100
AcDbSymbolTableRecord
100
AcDbBlockTableRecord
  2
AI9-BLK100
 70
    0
280
    1
281
    0
  0
BLOCK_RECORD
  5
17A
330
1
100
AcDbSymbolTableRecord
100
AcDbBlockTableRecord
  2
AI9-BLK101
 70
    0
280
    1
281
    0
  0
BLOCK_RECORD
  5
17D
330
1
100
AcDbSymbolTableRecord
100
AcDbBlockTableRecord
  2
AI9-BLK102
 70
    0
280
    1
281
    0
  0
BLOCK_RECORD
  5
180
330
1
100
AcDbSymbolTableRecord
100
AcDbBlockTableRecord
  2
AI9-BLK103
 70
    0
280
    1
281
    0
  0
BLOCK_RECORD
  5
183
330
1
100
AcDbSymbolTableRecord
100
AcDbBlockTableRecord
  2
AI9-BLK104
 70
    0
280
    1
281
    0
  0
BLOCK_RECORD
  5
186
330
1
100
AcDbSymbolTableRecord
100
AcDbBlockTableRecord
  2
AI9-BLK105
 70
    0
280
    1
281
    0
  0
BLOCK_RECORD
  5
189
330
1
100
AcDbSymbolTableRecord
100
AcDbBlockTableRecord
  2
AI9-BLK106
 70
    0
280
    1
281
    0
  0
BLOCK_RECORD
  5
18C
330
1
100
AcDbSymbolTableRecord
100
AcDbBlockTableRecord
  2
AI9-BLK107
 70
    0
280
    1
281
    0
  0
BLOCK_RECORD
  5
18F
330
1
100
AcDbSymbolTableRecord
100
AcDbBlockTableRecord
  2
AI9-BLK108
 70
    0
280
    1
281
    0
  0
BLOCK_RECORD
  5
192
330
1
100
AcDbSymbolTableRecord
100
AcDbBlockTableRecord
  2
AI9-BLK109
 70
    0
280
    1
281
    0
  0
BLOCK_RECORD
  5
195
330
1
100
AcDbSymbolTableRecord
100
AcDbBlockTableRecord
  2
AI9-BLK110
 70
    0
280
    1
281
    0
  0
BLOCK_RECORD
  5
198
330
1
100
AcDbSymbolTableRecord
100
AcDbBlockTableRecord
  2
AI9-BLK111
 70
    0
280
    1
281
    0
  0
BLOCK_RECORD
  5
19B
330
1
100
AcDbSymbolTableRecord
100
AcDbBlockTableRecord
  2
AI9-BLK112
 70
    0
280
    1
281
    0
  0
BLOCK_RECORD
  5
19E
330
1
100
AcDbSymbolTableRecord
100
AcDbBlockTableRecord
  2
AI9-BLK113
 70
    0
280
    1
281
    0
  0
BLOCK_RECORD
  5
1A1
330
1
100
AcDbSymbolTableRecord
100
AcDbBlockTableRecord
  2
AI9-BLK114
 70
    0
280
    1
281
    0
  0
BLOCK_RECORD
  5
1A4
330
1
100
AcDbSymbolTableRecord
100
AcDbBlockTableRecord
  2
AI9-BLK115
 70
    0
280
    1
281
    0
  0
BLOCK_RECORD
  5
1A7
330
1
100
AcDbSymbolTableRecord
100
AcDbBlockTableRecord
  2
AI9-BLK116
 70
    0
280
    1
281
    0
  0
BLOCK_RECORD
  5
1AA
330
1
100
AcDbSymbolTableRecord
100
AcDbBlockTableRecord
  2
AI9-BLK117
 70
    0
280
    1
281
    0
  0
BLOCK_RECORD
  5
1AD
330
1
100
AcDbSymbolTableRecord
100
AcDbBlockTableRecord
  2
AI9-BLK118
 70
    0
280
    1
281
    0
  0
BLOCK_RECORD
  5
1B0
330
1
100
AcDbSymbolTableRecord
100
AcDbBlockTableRecord
  2
AI9-BLK119
 70
    0
280
    1
281
    0
  0
BLOCK_RECORD
  5
1B3
330
1
100
AcDbSymbolTableRecord
100
AcDbBlockTableRecord
  2
AI9-BLK120
 70
    0
280
    1
281
    0
  0
BLOCK_RECORD
  5
1B6
330
1
100
AcDbSymbolTableRecord
100
AcDbBlockTableRecord
  2
AI9-BLK121
 70
    0
280
    1
281
    0
  0
BLOCK_RECORD
  5
1B9
330
1
100
AcDbSymbolTableRecord
100
AcDbBlockTableRecord
  2
AI9-BLK122
 70
    0
280
    1
281
    0
  0
BLOCK_RECORD
  5
1BC
330
1
100
AcDbSymbolTableRecord
100
AcDbBlockTableRecord
  2
AI9-BLK123
 70
    0
280
    1
281
    0
  0
BLOCK_RECORD
  5
1BF
330
1
100
AcDbSymbolTableRecord
100
AcDbBlockTableRecord
  2
AI9-BLK124
 70
    0
280
    1
281
    0
  0
BLOCK_RECORD
  5
1C2
330
1
100
AcDbSymbolTableRecord
100
AcDbBlockTableRecord
  2
AI9-BLK125
 70
    0
280
    1
281
    0
  0
BLOCK_RECORD
  5
1C5
330
1
100
AcDbSymbolTableRecord
100
AcDbBlockTableRecord
  2
AI9-BLK126
 70
    0
280
    1
281
    0
  0
BLOCK_RECORD
  5
1C8
330
1
100
AcDbSymbolTableRecord
100
AcDbBlockTableRecord
  2
AI9-BLK127
 70
    0
280
    1
281
    0
  0
BLOCK_RECORD
  5
1CB
330
1
100
AcDbSymbolTableRecord
100
AcDbBlockTableRecord
  2
AI9-BLK128
 70
    0
280
    1
281
    0
  0
BLOCK_RECORD
  5
1CE
330
1
100
AcDbSymbolTableRecord
100
AcDbBlockTableRecord
  2
AI9-BLK129
 70
    0
280
    1
281
    0
  0
BLOCK_RECORD
  5
1D1
330
1
100
AcDbSymbolTableRecord
100
AcDbBlockTableRecord
  2
AI9-BLK130
 70
    0
280
    1
281
    0
  0
BLOCK_RECORD
  5
1D4
330
1
100
AcDbSymbolTableRecord
100
AcDbBlockTableRecord
  2
AI9-BLK131
 70
    0
280
    1
281
    0
  0
BLOCK_RECORD
  5
1D7
330
1
100
AcDbSymbolTableRecord
100
AcDbBlockTableRecord
  2
AI9-BLK132
 70
    0
280
    1
281
    0
  0
BLOCK_RECORD
  5
1DA
330
1
100
AcDbSymbolTableRecord
100
AcDbBlockTableRecord
  2
AI9-BLK133
 70
    0
280
    1
281
    0
  0
BLOCK_RECORD
  5
1DD
330
1
100
AcDbSymbolTableRecord
100
AcDbBlockTableRecord
  2
AI9-BLK134
 70
    0
280
    1
281
    0
  0
BLOCK_RECORD
  5
1E0
330
1
100
AcDbSymbolTableRecord
100
AcDbBlockTableRecord
  2
AI9-BLK135
 70
    0
280
    1
281
    0
  0
BLOCK_RECORD
  5
1E3
330
1
100
AcDbSymbolTableRecord
100
AcDbBlockTableRecord
  2
AI9-BLK136
 70
    0
280
    1
281
    0
  0
BLOCK_RECORD
  5
1E6
330
1
100
AcDbSymbolTableRecord
100
AcDbBlockTableRecord
  2
AI9-BLK137
 70
    0
280
    1
281
    0
  0
BLOCK_RECORD
  5
1E9
330
1
100
AcDbSymbolTableRecord
100
AcDbBlockTableRecord
  2
AI9-BLK138
 70
    0
280
    1
281
    0
  0
BLOCK_RECORD
  5
1EC
330
1
100
AcDbSymbolTableRecord
100
AcDbBlockTableRecord
  2
AI9-BLK139
 70
    0
280
    1
281
    0
  0
BLOCK_RECORD
  5
1EF
330
1
100
AcDbSymbolTableRecord
100
AcDbBlockTableRecord
  2
AI9-BLK140
 70
    0
280
    1
281
    0
  0
BLOCK_RECORD
  5
1F2
330
1
100
AcDbSymbolTableRecord
100
AcDbBlockTableRecord
  2
AI9-BLK141
 70
    0
280
    1
281
    0
  0
BLOCK_RECORD
  5
1F5
330
1
100
AcDbSymbolTableRecord
100
AcDbBlockTableRecord
  2
AI9-BLK142
 70
    0
280
    1
281
    0
  0
BLOCK_RECORD
  5
1F8
330
1
100
AcDbSymbolTableRecord
100
AcDbBlockTableRecord
  2
AI9-BLK143
 70
    0
280
    1
281
    0
  0
BLOCK_RECORD
  5
1FB
330
1
100
AcDbSymbolTableRecord
100
AcDbBlockTableRecord
  2
AI9-BLK144
 70
    0
280
    1
281
    0
  0
BLOCK_RECORD
  5
1FE
330
1
100
AcDbSymbolTableRecord
100
AcDbBlockTableRecord
  2
AI9-BLK145
 70
    0
280
    1
281
    0
  0
BLOCK_RECORD
  5
201
330
1
100
AcDbSymbolTableRecord
100
AcDbBlockTableRecord
  2
AI9-BLK146
 70
    0
280
    1
281
    0
  0
BLOCK_RECORD
  5
204
330
1
100
AcDbSymbolTableRecord
100
AcDbBlockTableRecord
  2
AI9-BLK147
 70
    0
280
    1
281
    0
  0
BLOCK_RECORD
  5
207
330
1
100
AcDbSymbolTableRecord
100
AcDbBlockTableRecord
  2
AI9-BLK148
 70
    0
280
    1
281
    0
  0
BLOCK_RECORD
  5
20A
330
1
100
AcDbSymbolTableRecord
100
AcDbBlockTableRecord
  2
AI9-BLK149
 70
    0
280
    1
281
    0
  0
BLOCK_RECORD
  5
20D
330
1
100
AcDbSymbolTableRecord
100
AcDbBlockTableRecord
  2
AI9-BLK150
 70
    0
280
    1
281
    0
  0
BLOCK_RECORD
  5
210
330
1
100
AcDbSymbolTableRecord
100
AcDbBlockTableRecord
  2
AI9-BLK151
 70
    0
280
    1
281
    0
  0
BLOCK_RECORD
  5
213
330
1
100
AcDbSymbolTableRecord
100
AcDbBlockTableRecord
  2
AI9-BLK152
 70
    0
280
    1
281
    0
  0
BLOCK_RECORD
  5
216
330
1
100
AcDbSymbolTableRecord
100
AcDbBlockTableRecord
  2
AI9-BLK153
 70
    0
280
    1
281
    0
  0
BLOCK_RECORD
  5
219
330
1
100
AcDbSymbolTableRecord
100
AcDbBlockTableRecord
  2
AI9-BLK154
 70
    0
280
    1
281
    0
  0
BLOCK_RECORD
  5
21C
330
1
100
AcDbSymbolTableRecord
100
AcDbBlockTableRecord
  2
AI9-BLK155
 70
    0
280
    1
281
    0
  0
BLOCK_RECORD
  5
21F
330
1
100
AcDbSymbolTableRecord
100
AcDbBlockTableRecord
  2
AI9-BLK156
 70
    0
280
    1
281
    0
  0
BLOCK_RECORD
  5
222
330
1
100
AcDbSymbolTableRecord
100
AcDbBlockTableRecord
  2
AI9-BLK157
 70
    0
280
    1
281
    0
  0
BLOCK_RECORD
  5
225
330
1
100
AcDbSymbolTableRecord
100
AcDbBlockTableRecord
  2
AI9-BLK158
 70
    0
280
    1
281
    0
  0
BLOCK_RECORD
  5
228
330
1
100
AcDbSymbolTableRecord
100
AcDbBlockTableRecord
  2
AI9-BLK159
 70
    0
280
    1
281
    0
  0
BLOCK_RECORD
  5
22B
330
1
100
AcDbSymbolTableRecord
100
AcDbBlockTableRecord
  2
AI9-BLK160
 70
    0
280
    1
281
    0
  0
BLOCK_RECORD
  5
22E
330
1
100
AcDbSymbolTableRecord
100
AcDbBlockTableRecord
  2
AI9-BLK161
 70
    0
280
    1
281
    0
  0
BLOCK_RECORD
  5
231
330
1
100
AcDbSymbolTableRecord
100
AcDbBlockTableRecord
  2
AI9-BLK162
 70
    0
280
    1
281
    0
  0
BLOCK_RECORD
  5
234
330
1
100
AcDbSymbolTableRecord
100
AcDbBlockTableRecord
  2
AI9-BLK163
 70
    0
280
    1
281
    0
  0
BLOCK_RECORD
  5
237
330
1
100
AcDbSymbolTableRecord
100
AcDbBlockTableRecord
  2
AI9-BLK164
 70
    0
280
    1
281
    0
  0
BLOCK_RECORD
  5
23A
330
1
100
AcDbSymbolTableRecord
100
AcDbBlockTableRecord
  2
AI9-BLK165
 70
    0
280
    1
281
    0
  0
BLOCK_RECORD
  5
23D
330
1
100
AcDbSymbolTableRecord
100
AcDbBlockTableRecord
  2
AI9-BLK166
 70
    0
280
    1
281
    0
  0
BLOCK_RECORD
  5
240
330
1
100
AcDbSymbolTableRecord
100
AcDbBlockTableRecord
  2
AI9-BLK167
 70
    0
280
    1
281
    0
  0
BLOCK_RECORD
  5
243
330
1
100
AcDbSymbolTableRecord
100
AcDbBlockTableRecord
  2
AI9-BLK168
 70
    0
280
    1
281
    0
  0
BLOCK_RECORD
  5
246
330
1
100
AcDbSymbolTableRecord
100
AcDbBlockTableRecord
  2
AI9-BLK169
 70
    0
280
    1
281
    0
  0
BLOCK_RECORD
  5
249
330
1
100
AcDbSymbolTableRecord
100
AcDbBlockTableRecord
  2
AI9-BLK170
 70
    0
280
    1
281
    0
  0
BLOCK_RECORD
  5
24C
330
1
100
AcDbSymbolTableRecord
100
AcDbBlockTableRecord
  2
AI9-BLK171
 70
    0
280
    1
281
    0
  0
BLOCK_RECORD
  5
24F
330
1
100
AcDbSymbolTableRecord
100
AcDbBlockTableRecord
  2
AI9-BLK172
 70
    0
280
    1
281
    0
  0
BLOCK_RECORD
  5
252
330
1
100
AcDbSymbolTableRecord
100
AcDbBlockTableRecord
  2
AI9-BLK173
 70
    0
280
    1
281
    0
  0
BLOCK_RECORD
  5
255
330
1
100
AcDbSymbolTableRecord
100
AcDbBlockTableRecord
  2
AI9-BLK174
 70
    0
280
    1
281
    0
  0
BLOCK_RECORD
  5
258
330
1
100
AcDbSymbolTableRecord
100
AcDbBlockTableRecord
  2
AI9-BLK175
 70
    0
280
    1
281
    0
  0
BLOCK_RECORD
  5
25B
330
1
100
AcDbSymbolTableRecord
100
AcDbBlockTableRecord
  2
AI9-BLK176
 70
    0
280
    1
281
    0
  0
BLOCK_RECORD
  5
25E
330
1
100
AcDbSymbolTableRecord
100
AcDbBlockTableRecord
  2
AI9-BLK177
 70
    0
280
    1
281
    0
  0
BLOCK_RECORD
  5
261
330
1
100
AcDbSymbolTableRecord
100
AcDbBlockTableRecord
  2
AI9-BLK178
 70
    0
280
    1
281
    0
  0
BLOCK_RECORD
  5
264
330
1
100
AcDbSymbolTableRecord
100
AcDbBlockTableRecord
  2
AI9-BLK179
 70
    0
280
    1
281
    0
  0
BLOCK_RECORD
  5
267
330
1
100
AcDbSymbolTableRecord
100
AcDbBlockTableRecord
  2
AI9-BLK180
 70
    0
280
    1
281
    0
  0
BLOCK_RECORD
  5
26A
330
1
100
AcDbSymbolTableRecord
100
AcDbBlockTableRecord
  2
AI9-BLK181
 70
    0
280
    1
281
    0
  0
BLOCK_RECORD
  5
26D
330
1
100
AcDbSymbolTableRecord
100
AcDbBlockTableRecord
  2
AI9-BLK182
 70
    0
280
    1
281
    0
  0
BLOCK_RECORD
  5
270
330
1
100
AcDbSymbolTableRecord
100
AcDbBlockTableRecord
  2
AI9-BLK183
 70
    0
280
    1
281
    0
  0
BLOCK_RECORD
  5
273
330
1
100
AcDbSymbolTableRecord
100
AcDbBlockTableRecord
  2
AI9-BLK184
 70
    0
280
    1
281
    0
  0
BLOCK_RECORD
  5
276
330
1
100
AcDbSymbolTableRecord
100
AcDbBlockTableRecord
  2
AI9-BLK185
 70
    0
280
    1
281
    0
  0
BLOCK_RECORD
  5
279
330
1
100
AcDbSymbolTableRecord
100
AcDbBlockTableRecord
  2
AI9-BLK186
 70
    0
280
    1
281
    0
  0
BLOCK_RECORD
  5
27C
330
1
100
AcDbSymbolTableRecord
100
AcDbBlockTableRecord
  2
AI9-BLK187
 70
    0
280
    1
281
    0
  0
BLOCK_RECORD
  5
27F
330
1
100
AcDbSymbolTableRecord
100
AcDbBlockTableRecord
  2
AI9-BLK188
 70
    0
280
    1
281
    0
  0
BLOCK_RECORD
  5
282
330
1
100
AcDbSymbolTableRecord
100
AcDbBlockTableRecord
  2
AI9-BLK189
 70
    0
280
    1
281
    0
  0
BLOCK_RECORD
  5
285
330
1
100
AcDbSymbolTableRecord
100
AcDbBlockTableRecord
  2
AI9-BLK190
 70
    0
280
    1
281
    0
  0
BLOCK_RECORD
  5
288
330
1
100
AcDbSymbolTableRecord
100
AcDbBlockTableRecord
  2
AI9-BLK191
 70
    0
280
    1
281
    0
  0
BLOCK_RECORD
  5
28B
330
1
100
AcDbSymbolTableRecord
100
AcDbBlockTableRecord
  2
AI9-BLK192
 70
    0
280
    1
281
    0
  0
BLOCK_RECORD
  5
28E
330
1
100
AcDbSymbolTableRecord
100
AcDbBlockTableRecord
  2
AI9-BLK193
 70
    0
280
    1
281
    0
  0
BLOCK_RECORD
  5
291
330
1
100
AcDbSymbolTableRecord
100
AcDbBlockTableRecord
  2
AI9-BLK194
 70
    0
280
    1
281
    0
  0
BLOCK_RECORD
  5
294
330
1
100
AcDbSymbolTableRecord
100
AcDbBlockTableRecord
  2
AI9-BLK195
 70
    0
280
    1
281
    0
  0
BLOCK_RECORD
  5
297
330
1
100
AcDbSymbolTableRecord
100
AcDbBlockTableRecord
  2
AI9-BLK196
 70
    0
280
    1
281
    0
  0
BLOCK_RECORD
  5
29A
330
1
100
AcDbSymbolTableRecord
100
AcDbBlockTableRecord
  2
AI9-BLK197
 70
    0
280
    1
281
    0
  0
BLOCK_RECORD
  5
29D
330
1
100
AcDbSymbolTableRecord
100
AcDbBlockTableRecord
  2
AI9-BLK198
 70
    0
280
    1
281
    0
  0
BLOCK_RECORD
  5
2A0
330
1
100
AcDbSymbolTableRecord
100
AcDbBlockTableRecord
  2
AI9-BLK199
 70
    0
280
    1
281
    0
  0
BLOCK_RECORD
  5
2A3
330
1
100
AcDbSymbolTableRecord
100
AcDbBlockTableRecord
  2
AI9-BLK200
 70
    0
280
    1
281
    0
  0
BLOCK_RECORD
  5
2A6
330
1
100
AcDbSymbolTableRecord
100
AcDbBlockTableRecord
  2
AI9-BLK201
 70
    0
280
    1
281
    0
  0
BLOCK_RECORD
  5
2A9
330
1
100
AcDbSymbolTableRecord
100
AcDbBlockTableRecord
  2
AI9-BLK202
 70
    0
280
    1
281
    0
  0
BLOCK_RECORD
  5
2AC
330
1
100
AcDbSymbolTableRecord
100
AcDbBlockTableRecord
  2
AI9-BLK203
 70
    0
280
    1
281
    0
  0
BLOCK_RECORD
  5
2AF
330
1
100
AcDbSymbolTableRecord
100
AcDbBlockTableRecord
  2
AI9-BLK204
 70
    0
280
    1
281
    0
  0
BLOCK_RECORD
  5
2B2
330
1
100
AcDbSymbolTableRecord
100
AcDbBlockTableRecord
  2
AI9-BLK205
 70
    0
280
    1
281
    0
  0
BLOCK_RECORD
  5
2B5
330
1
100
AcDbSymbolTableRecord
100
AcDbBlockTableRecord
  2
AI9-BLK206
 70
    0
280
    1
281
    0
  0
BLOCK_RECORD
  5
2B8
330
1
100
AcDbSymbolTableRecord
100
AcDbBlockTableRecord
  2
AI9-BLK207
 70
    0
280
    1
281
    0
  0
BLOCK_RECORD
  5
2BB
330
1
100
AcDbSymbolTableRecord
100
AcDbBlockTableRecord
  2
AI9-BLK208
 70
    0
280
    1
281
    0
  0
BLOCK_RECORD
  5
2BE
330
1
100
AcDbSymbolTableRecord
100
AcDbBlockTableRecord
  2
AI9-BLK209
 70
    0
280
    1
281
    0
  0
BLOCK_RECORD
  5
2C1
330
1
100
AcDbSymbolTableRecord
100
AcDbBlockTableRecord
  2
AI9-BLK210
 70
    0
280
    1
281
    0
  0
ENDTAB
  0
ENDSEC
  0
SECTION
  2
BLOCKS
  0
BLOCK
  5
20
330
1F
100
AcDbEntity
  8
0
100
AcDbBlockBegin
  2
*Model_Space
 70
    0
 10
0
 20
0
 30
0
  3
*Model_Space
  1

  0
ENDBLK
  5
21
330
1F
100
AcDbEntity
  8
0
100
AcDbBlockEnd
  0
BLOCK
  5
1C
330
1B
100
AcDbEntity
  8
0
100
AcDbBlockBegin
  2
*Paper_Space
 70
    0
 10
0
 20
0
 30
0
  3
*Paper_Space
  1

  0
ENDBLK
  5
1D
330
1F
100
AcDbEntity
  8
0
100
AcDbBlockEnd
  0
BLOCK
  5
4F
330
4E
100
AcDbEntity
  8
0
100
AcDbBlockBegin
  2
AI9-BLK1
 70
    0
 10
0
 20
0
  3
AI9-BLK1
  1

  0
CIRCLE
  5
2C4
100
AcDbEntity
  8
LAYER_1
  6
ByLayer
 62
    7
370
   -1
100
AcDbCircle
 10
0
 20
0
 40
0.850939
  0
ENDBLK
  5
50
330
4E
100
AcDbEntity
  8
0
100
AcDbBlockEnd
  0
BLOCK
  5
52
330
51
100
AcDbEntity
  8
0
100
AcDbBlockBegin
  2
AI9-BLK2
 70
    0
 10
0
 20
0
  3
AI9-BLK2
  1

  0
CIRCLE
  5
2C5
100
AcDbEntity
  8
LAYER_1
  6
ByLayer
 62
    7
370
   -1
100
AcDbCircle
 10
0
 20
0
 40
0.850939
  0
ENDBLK
  5
53
330
51
100
AcDbEntity
  8
0
100
AcDbBlockEnd
  0
BLOCK
  5
55
330
54
100
AcDbEntity
  8
0
100
AcDbBlockBegin
  2
AI9-BLK3
 70
    0
 10
0
 20
0
  3
AI9-BLK3
  1

  0
CIRCLE
  5
2C6
100
AcDbEntity
  8
LAYER_1
  6
ByLayer
 62
    7
370
   -1
100
AcDbCircle
 10
0.000172
 20
0
 40
1.474845
  0
ENDBLK
  5
56
330
54
100
AcDbEntity
  8
0
100
AcDbBlockEnd
  0
BLOCK
  5
58
330
57
100
AcDbEntity
  8
0
100
AcDbBlockBegin
  2
AI9-BLK4
 70
    0
 10
0
 20
0
  3
AI9-BLK4
  1

  0
CIRCLE
  5
2C7
100
AcDbEntity
  8
LAYER_1
  6
ByLayer
 62
    7
370
   -1
100
AcDbCircle
 10
0.000172
 20
0
 40
1.474845
  0
ENDBLK
  5
59
330
57
100
AcDbEntity
  8
0
100
AcDbBlockEnd
  0
BLOCK
  5
5B
330
5A
100
AcDbEntity
  8
0
100
AcDbBlockBegin
  2
AI9-BLK5
 70
    0
 10
0
 20
0
  3
AI9-BLK5
  1

  0
CIRCLE
  5
2C8
100
AcDbEntity
  8
LAYER_1
  6
ByLayer
 62
    7
370
   -1
100
AcDbCircle
 10
0
 20
0
 40
1.999878
  0
ENDBLK
  5
5C
330
5A
100
AcDbEntity
  8
0
100
AcDbBlockEnd
  0
BLOCK
  5
5E
330
5D
100
AcDbEntity
  8
0
100
AcDbBlockBegin
  2
AI9-BLK6
 70
    0
 10
0
 20
0
  3
AI9-BLK6
  1

  0
CIRCLE
  5
2C9
100
AcDbEntity
  8
LAYER_1
  6
ByLayer
 62
    7
370
   -1
100
AcDbCircle
 10
0
 20
0
 40
0.850939
  0
ENDBLK
  5
5F
330
5D
100
AcDbEntity
  8
0
100
AcDbBlockEnd
  0
BLOCK
  5
61
330
60
100
AcDbEntity
  8
0
100
AcDbBlockBegin
  2
AI9-BLK7
 70
    0
 10
0
 20
0
  3
AI9-BLK7
  1

  0
CIRCLE
  5
2CA
100
AcDbEntity
  8
LAYER_1
  6
ByLayer
 62
    7
370
   -1
100
AcDbCircle
 10
0
 20
0
 40
0.850939
  0
ENDBLK
  5
62
330
60
100
AcDbEntity
  8
0
100
AcDbBlockEnd
  0
BLOCK
  5
64
330
63
100
AcDbEntity
  8
0
100
AcDbBlockBegin
  2
AI9-BLK8
 70
    0
 10
0
 20
0
  3
AI9-BLK8
  1

  0
CIRCLE
  5
2CB
100
AcDbEntity
  8
LAYER_1
  6
ByLayer
 62
    7
370
   -1
100
AcDbCircle
 10
0.000172
 20
0
 40
1.474845
  0
ENDBLK
  5
65
330
63
100
AcDbEntity
  8
0
100
AcDbBlockEnd
  0
BLOCK
  5
67
330
66
100
AcDbEntity
  8
0
100
AcDbBlockBegin
  2
AI9-BLK9
 70
    0
 10
0
 20
0
  3
AI9-BLK9
  1

  0
CIRCLE
  5
2CC
100
AcDbEntity
  8
LAYER_1
  6
ByLayer
 62
    7
370
   -1
100
AcDbCircle
 10
0.000172
 20
0
 40
1.474845
  0
ENDBLK
  5
68
330
66
100
AcDbEntity
  8
0
100
AcDbBlockEnd
  0
BLOCK
  5
6A
330
69
100
AcDbEntity
  8
0
100
AcDbBlockBegin
  2
AI9-BLK10
 70
    0
 10
0
 20
0
  3
AI9-BLK10
  1

  0
CIRCLE
  5
2CD
100
AcDbEntity
  8
LAYER_1
  6
ByLayer
 62
    7
370
   -1
100
AcDbCircle
 10
0
 20
0
 40
1.999878
  0
ENDBLK
  5
6B
330
69
100
AcDbEntity
  8
0
100
AcDbBlockEnd
  0
BLOCK
  5
6D
330
6C
100
AcDbEntity
  8
0
100
AcDbBlockBegin
  2
AI9-BLK11
 70
    0
 10
0
 20
0
  3
AI9-BLK11
  1

  0
CIRCLE
  5
2CE
100
AcDbEntity
  8
LAYER_1
  6
ByLayer
 62
    7
370
   -1
100
AcDbCircle
 10
0
 20
0
 40
0.850939
  0
ENDBLK
  5
6E
330
6C
100
AcDbEntity
  8
0
100
AcDbBlockEnd
  0
BLOCK
  5
70
330
6F
100
AcDbEntity
  8
0
100
AcDbBlockBegin
  2
AI9-BLK12
 70
    0
 10
0
 20
0
  3
AI9-BLK12
  1

  0
CIRCLE
  5
2CF
100
AcDbEntity
  8
LAYER_1
  6
ByLayer
 62
    7
370
   -1
100
AcDbCircle
 10
0
 20
0
 40
0.850939
  0
ENDBLK
  5
71
330
6F
100
AcDbEntity
  8
0
100
AcDbBlockEnd
  0
BLOCK
  5
73
330
72
100
AcDbEntity
  8
0
100
AcDbBlockBegin
  2
AI9-BLK13
 70
    0
 10
0
 20
0
  3
AI9-BLK13
  1

  0
CIRCLE
  5
2D0
100
AcDbEntity
  8
LAYER_1
  6
ByLayer
 62
    7
370
   -1
100
AcDbCircle
 10
0.000172
 20
0
 40
1.474845
  0
ENDBLK
  5
74
330
72
100
AcDbEntity
  8
0
100
AcDbBlockEnd
  0
BLOCK
  5
76
330
75
100
AcDbEntity
  8
0
100
AcDbBlockBegin
  2
AI9-BLK14
 70
    0
 10
0
 20
0
  3
AI9-BLK14
  1

  0
CIRCLE
  5
2D1
100
AcDbEntity
  8
LAYER_1
  6
ByLayer
 62
    7
370
   -1
100
AcDbCircle
 10
0.000172
 20
0
 40
1.474845
  0
ENDBLK
  5
77
330
75
100
AcDbEntity
  8
0
100
AcDbBlockEnd
  0
BLOCK
  5
79
330
78
100
AcDbEntity
  8
0
100
AcDbBlockBegin
  2
AI9-BLK15
 70
    0
 10
0
 20
0
  3
AI9-BLK15
  1

  0
CIRCLE
  5
2D2
100
AcDbEntity
  8
LAYER_1
  6
ByLayer
 62
    7
370
   -1
100
AcDbCircle
 10
0
 20
0
 40
1.999878
  0
ENDBLK
  5
7A
330
78
100
AcDbEntity
  8
0
100
AcDbBlockEnd
  0
BLOCK
  5
7C
330
7B
100
AcDbEntity
  8
0
100
AcDbBlockBegin
  2
AI9-BLK16
 70
    0
 10
0
 20
0
  3
AI9-BLK16
  1

  0
CIRCLE
  5
2D3
100
AcDbEntity
  8
LAYER_1
  6
ByLayer
 62
    7
370
   -1
100
AcDbCircle
 10
0
 20
0
 40
0.850939
  0
ENDBLK
  5
7D
330
7B
100
AcDbEntity
  8
0
100
AcDbBlockEnd
  0
BLOCK
  5
7F
330
7E
100
AcDbEntity
  8
0
100
AcDbBlockBegin
  2
AI9-BLK17
 70
    0
 10
0
 20
0
  3
AI9-BLK17
  1

  0
CIRCLE
  5
2D4
100
AcDbEntity
  8
LAYER_1
  6
ByLayer
 62
    7
370
   -1
100
AcDbCircle
 10
0
 20
0
 40
0.850939
  0
ENDBLK
  5
80
330
7E
100
AcDbEntity
  8
0
100
AcDbBlockEnd
  0
BLOCK
  5
82
330
81
100
AcDbEntity
  8
0
100
AcDbBlockBegin
  2
AI9-BLK18
 70
    0
 10
0
 20
0
  3
AI9-BLK18
  1

  0
CIRCLE
  5
2D5
100
AcDbEntity
  8
LAYER_1
  6
ByLayer
 62
    7
370
   -1
100
AcDbCircle
 10
0.000172
 20
0
 40
1.474845
  0
ENDBLK
  5
83
330
81
100
AcDbEntity
  8
0
100
AcDbBlockEnd
  0
BLOCK
  5
85
330
84
100
AcDbEntity
  8
0
100
AcDbBlockBegin
  2
AI9-BLK19
 70
    0
 10
0
 20
0
  3
AI9-BLK19
  1

  0
CIRCLE
  5
2D6
100
AcDbEntity
  8
LAYER_1
  6
ByLayer
 62
    7
370
   -1
100
AcDbCircle
 10
0.000172
 20
0
 40
1.474845
  0
ENDBLK
  5
86
330
84
100
AcDbEntity
  8
0
100
AcDbBlockEnd
  0
BLOCK
  5
88
330
87
100
AcDbEntity
  8
0
100
AcDbBlockBegin
  2
AI9-BLK20
 70
    0
 10
0
 20
0
  3
AI9-BLK20
  1

  0
CIRCLE
  5
2D7
100
AcDbEntity
  8
LAYER_1
  6
ByLayer
 62
    7
370
   -1
100
AcDbCircle
 10
0
 20
0
 40
1.999878
  0
ENDBLK
  5
89
330
87
100
AcDbEntity
  8
0
100
AcDbBlockEnd
  0
BLOCK
  5
8B
330
8A
100
AcDbEntity
  8
0
100
AcDbBlockBegin
  2
AI9-BLK21
 70
    0
 10
0
 20
0
  3
AI9-BLK21
  1

  0
CIRCLE
  5
2D8
100
AcDbEntity
  8
LAYER_1
  6
ByLayer
 62
    7
370
   -1
100
AcDbCircle
 10
0
 20
0
 40
0.850939
  0
ENDBLK
  5
8C
330
8A
100
AcDbEntity
  8
0
100
AcDbBlockEnd
  0
BLOCK
  5
8E
330
8D
100
AcDbEntity
  8
0
100
AcDbBlockBegin
  2
AI9-BLK22
 70
    0
 10
0
 20
0
  3
AI9-BLK22
  1

  0
CIRCLE
  5
2D9
100
AcDbEntity
  8
LAYER_1
  6
ByLayer
 62
    7
370
   -1
100
AcDbCircle
 10
0
 20
0
 40
0.850939
  0
ENDBLK
  5
8F
330
8D
100
AcDbEntity
  8
0
100
AcDbBlockEnd
  0
BLOCK
  5
91
330
90
100
AcDbEntity
  8
0
100
AcDbBlockBegin
  2
AI9-BLK23
 70
    0
 10
0
 20
0
  3
AI9-BLK23
  1

  0
CIRCLE
  5
2DA
100
AcDbEntity
  8
LAYER_1
  6
ByLayer
 62
    7
370
   -1
100
AcDbCircle
 10
0.000172
 20
0
 40
1.474845
  0
ENDBLK
  5
92
330
90
100
AcDbEntity
  8
0
100
AcDbBlockEnd
  0
BLOCK
  5
94
330
93
100
AcDbEntity
  8
0
100
AcDbBlockBegin
  2
AI9-BLK24
 70
    0
 10
0
 20
0
  3
AI9-BLK24
  1

  0
CIRCLE
  5
2DB
100
AcDbEntity
  8
LAYER_1
  6
ByLayer
 62
    7
370
   -1
100
AcDbCircle
 10
0.000172
 20
0
 40
1.474845
  0
ENDBLK
  5
95
330
93
100
AcDbEntity
  8
0
100
AcDbBlockEnd
  0
BLOCK
  5
97
330
96
100
AcDbEntity
  8
0
100
AcDbBlockBegin
  2
AI9-BLK25
 70
    0
 10
0
 20
0
  3
AI9-BLK25
  1

  0
CIRCLE
  5
2DC
100
AcDbEntity
  8
LAYER_1
  6
ByLayer
 62
    7
370
   -1
100
AcDbCircle
 10
0
 20
0
 40
1.999878
  0
ENDBLK
  5
98
330
96
100
AcDbEntity
  8
0
100
AcDbBlockEnd
  0
BLOCK
  5
9A
330
99
100
AcDbEntity
  8
0
100
AcDbBlockBegin
  2
AI9-BLK26
 70
    0
 10
0
 20
0
  3
AI9-BLK26
  1

  0
CIRCLE
  5
2DD
100
AcDbEntity
  8
LAYER_1
  6
ByLayer
 62
    7
370
   -1
100
AcDbCircle
 10
0
 20
0
 40
0.850939
  0
ENDBLK
  5
9B
330
99
100
AcDbEntity
  8
0
100
AcDbBlockEnd
  0
BLOCK
  5
9D
330
9C
100
AcDbEntity
  8
0
100
AcDbBlockBegin
  2
AI9-BLK27
 70
    0
 10
0
 20
0
  3
AI9-BLK27
  1

  0
CIRCLE
  5
2DE
100
AcDbEntity
  8
LAYER_1
  6
ByLayer
 62
    7
370
   -1
100
AcDbCircle
 10
0
 20
0
 40
0.850939
  0
ENDBLK
  5
9E
330
9C
100
AcDbEntity
  8
0
100
AcDbBlockEnd
  0
BLOCK
  5
A0
330
9F
100
AcDbEntity
  8
0
100
AcDbBlockBegin
  2
AI9-BLK28
 70
    0
 10
0
 20
0
  3
AI9-BLK28
  1

  0
CIRCLE
  5
2DF
100
AcDbEntity
  8
LAYER_1
  6
ByLayer
 62
    7
370
   -1
100
AcDbCircle
 10
0.000172
 20
0
 40
1.474845
  0
ENDBLK
  5
A1
330
9F
100
AcDbEntity
  8
0
100
AcDbBlockEnd
  0
BLOCK
  5
A3
330
A2
100
AcDbEntity
  8
0
100
AcDbBlockBegin
  2
AI9-BLK29
 70
    0
 10
0
 20
0
  3
AI9-BLK29
  1

  0
CIRCLE
  5
2E0
100
AcDbEntity
  8
LAYER_1
  6
ByLayer
 62
    7
370
   -1
100
AcDbCircle
 10
0.000172
 20
0
 40
1.474845
  0
ENDBLK
  5
A4
330
A2
100
AcDbEntity
  8
0
100
AcDbBlockEnd
  0
BLOCK
  5
A6
330
A5
100
AcDbEntity
  8
0
100
AcDbBlockBegin
  2
AI9-BLK30
 70
    0
 10
0
 20
0
  3
AI9-BLK30
  1

  0
CIRCLE
  5
2E1
100
AcDbEntity
  8
LAYER_1
  6
ByLayer
 62
    7
370
   -1
100
AcDbCircle
 10
0
 20
0
 40
1.999878
  0
ENDBLK
  5
A7
330
A5
100
AcDbEntity
  8
0
100
AcDbBlockEnd
  0
BLOCK
  5
A9
330
A8
100
AcDbEntity
  8
0
100
AcDbBlockBegin
  2
AI9-BLK31
 70
    0
 10
0
 20
0
  3
AI9-BLK31
  1

  0
CIRCLE
  5
2E2
100
AcDbEntity
  8
LAYER_1
  6
ByLayer
 62
    7
370
   -1
100
AcDbCircle
 10
0
 20
0
 40
0.850939
  0
ENDBLK
  5
AA
330
A8
100
AcDbEntity
  8
0
100
AcDbBlockEnd
  0
BLOCK
  5
AC
330
AB
100
AcDbEntity
  8
0
100
AcDbBlockBegin
  2
AI9-BLK32
 70
    0
 10
0
 20
0
  3
AI9-BLK32
  1

  0
CIRCLE
  5
2E3
100
AcDbEntity
  8
LAYER_1
  6
ByLayer
 62
    7
370
   -1
100
AcDbCircle
 10
0
 20
0
 40
0.850939
  0
ENDBLK
  5
AD
330
AB
100
AcDbEntity
  8
0
100
AcDbBlockEnd
  0
BLOCK
  5
AF
330
AE
100
AcDbEntity
  8
0
100
AcDbBlockBegin
  2
AI9-BLK33
 70
    0
 10
0
 20
0
  3
AI9-BLK33
  1

  0
CIRCLE
  5
2E4
100
AcDbEntity
  8
LAYER_1
  6
ByLayer
 62
    7
370
   -1
100
AcDbCircle
 10
0.000172
 20
0
 40
1.474845
  0
ENDBLK
  5
B0
330
AE
100
AcDbEntity
  8
0
100
AcDbBlockEnd
  0
BLOCK
  5
B2
330
B1
100
AcDbEntity
  8
0
100
AcDbBlockBegin
  2
AI9-BLK34
 70
    0
 10
0
 20
0
  3
AI9-BLK34
  1

  0
CIRCLE
  5
2E5
100
AcDbEntity
  8
LAYER_1
  6
ByLayer
 62
    7
370
   -1
100
AcDbCircle
 10
0.000172
 20
0
 40
1.474845
  0
ENDBLK
  5
B3
330
B1
100
AcDbEntity
  8
0
100
AcDbBlockEnd
  0
BLOCK
  5
B5
330
B4
100
AcDbEntity
  8
0
100
AcDbBlockBegin
  2
AI9-BLK35
 70
    0
 10
0
 20
0
  3
AI9-BLK35
  1

  0
CIRCLE
  5
2E6
100
AcDbEntity
  8
LAYER_1
  6
ByLayer
 62
    7
370
   -1
100
AcDbCircle
 10
0
 20
0
 40
1.999878
  0
ENDBLK
  5
B6
330
B4
100
AcDbEntity
  8
0
100
AcDbBlockEnd
  0
BLOCK
  5
B8
330
B7
100
AcDbEntity
  8
0
100
AcDbBlockBegin
  2
AI9-BLK36
 70
    0
 10
0
 20
0
  3
AI9-BLK36
  1

  0
CIRCLE
  5
2E7
100
AcDbEntity
  8
LAYER_1
  6
ByLayer
 62
    7
370
   -1
100
AcDbCircle
 10
0
 20
0
 40
0.850939
  0
ENDBLK
  5
B9
330
B7
100
AcDbEntity
  8
0
100
AcDbBlockEnd
  0
BLOCK
  5
BB
330
BA
100
AcDbEntity
  8
0
100
AcDbBlockBegin
  2
AI9-BLK37
 70
    0
 10
0
 20
0
  3
AI9-BLK37
  1

  0
CIRCLE
  5
2E8
100
AcDbEntity
  8
LAYER_1
  6
ByLayer
 62
    7
370
   -1
100
AcDbCircle
 10
0
 20
0
 40
0.850939
  0
ENDBLK
  5
BC
330
BA
100
AcDbEntity
  8
0
100
AcDbBlockEnd
  0
BLOCK
  5
BE
330
BD
100
AcDbEntity
  8
0
100
AcDbBlockBegin
  2
AI9-BLK38
 70
    0
 10
0
 20
0
  3
AI9-BLK38
  1

  0
CIRCLE
  5
2E9
100
AcDbEntity
  8
LAYER_1
  6
ByLayer
 62
    7
370
   -1
100
AcDbCircle
 10
0.000172
 20
0
 40
1.474845
  0
ENDBLK
  5
BF
330
BD
100
AcDbEntity
  8
0
100
AcDbBlockEnd
  0
BLOCK
  5
C1
330
C0
100
AcDbEntity
  8
0
100
AcDbBlockBegin
  2
AI9-BLK39
 70
    0
 10
0
 20
0
  3
AI9-BLK39
  1

  0
CIRCLE
  5
2EA
100
AcDbEntity
  8
LAYER_1
  6
ByLayer
 62
    7
370
   -1
100
AcDbCircle
 10
0.000172
 20
0
 40
1.474845
  0
ENDBLK
  5
C2
330
C0
100
AcDbEntity
  8
0
100
AcDbBlockEnd
  0
BLOCK
  5
C4
330
C3
100
AcDbEntity
  8
0
100
AcDbBlockBegin
  2
AI9-BLK40
 70
    0
 10
0
 20
0
  3
AI9-BLK40
  1

  0
CIRCLE
  5
2EB
100
AcDbEntity
  8
LAYER_1
  6
ByLayer
 62
    7
370
   -1
100
AcDbCircle
 10
0
 20
0
 40
1.999878
  0
ENDBLK
  5
C5
330
C3
100
AcDbEntity
  8
0
100
AcDbBlockEnd
  0
BLOCK
  5
C7
330
C6
100
AcDbEntity
  8
0
100
AcDbBlockBegin
  2
AI9-BLK41
 70
    0
 10
0
 20
0
  3
AI9-BLK41
  1

  0
CIRCLE
  5
2EC
100
AcDbEntity
  8
LAYER_1
  6
ByLayer
 62
    7
370
   -1
100
AcDbCircle
 10
0
 20
0
 40
0.850939
  0
ENDBLK
  5
C8
330
C6
100
AcDbEntity
  8
0
100
AcDbBlockEnd
  0
BLOCK
  5
CA
330
C9
100
AcDbEntity
  8
0
100
AcDbBlockBegin
  2
AI9-BLK42
 70
    0
 10
0
 20
0
  3
AI9-BLK42
  1

  0
CIRCLE
  5
2ED
100
AcDbEntity
  8
LAYER_1
  6
ByLayer
 62
    7
370
   -1
100
AcDbCircle
 10
0
 20
0
 40
0.850939
  0
ENDBLK
  5
CB
330
C9
100
AcDbEntity
  8
0
100
AcDbBlockEnd
  0
BLOCK
  5
CD
330
CC
100
AcDbEntity
  8
0
100
AcDbBlockBegin
  2
AI9-BLK43
 70
    0
 10
0
 20
0
  3
AI9-BLK43
  1

  0
CIRCLE
  5
2EE
100
AcDbEntity
  8
LAYER_1
  6
ByLayer
 62
    7
370
   -1
100
AcDbCircle
 10
0.000172
 20
0
 40
1.474845
  0
ENDBLK
  5
CE
330
CC
100
AcDbEntity
  8
0
100
AcDbBlockEnd
  0
BLOCK
  5
D0
330
CF
100
AcDbEntity
  8
0
100
AcDbBlockBegin
  2
AI9-BLK44
 70
    0
 10
0
 20
0
  3
AI9-BLK44
  1

  0
CIRCLE
  5
2EF
100
AcDbEntity
  8
LAYER_1
  6
ByLayer
 62
    7
370
   -1
100
AcDbCircle
 10
0.000172
 20
0
 40
1.474845
  0
ENDBLK
  5
D1
330
CF
100
AcDbEntity
  8
0
100
AcDbBlockEnd
  0
BLOCK
  5
D3
330
D2
100
AcDbEntity
  8
0
100
AcDbBlockBegin
  2
AI9-BLK45
 70
    0
 10
0
 20
0
  3
AI9-BLK45
  1

  0
CIRCLE
  5
2F0
100
AcDbEntity
  8
LAYER_1
  6
ByLayer
 62
    7
370
   -1
100
AcDbCircle
 10
0
 20
0
 40
1.999878
  0
ENDBLK
  5
D4
330
D2
100
AcDbEntity
  8
0
100
AcDbBlockEnd
  0
BLOCK
  5
D6
330
D5
100
AcDbEntity
  8
0
100
AcDbBlockBegin
  2
AI9-BLK46
 70
    0
 10
0
 20
0
  3
AI9-BLK46
  1

  0
CIRCLE
  5
2F1
100
AcDbEntity
  8
LAYER_1
  6
ByLayer
 62
    7
370
   -1
100
AcDbCircle
 10
0
 20
0
 40
0.850939
  0
ENDBLK
  5
D7
330
D5
100
AcDbEntity
  8
0
100
AcDbBlockEnd
  0
BLOCK
  5
D9
330
D8
100
AcDbEntity
  8
0
100
AcDbBlockBegin
  2
AI9-BLK47
 70
    0
 10
0
 20
0
  3
AI9-BLK47
  1

  0
CIRCLE
  5
2F2
100
AcDbEntity
  8
LAYER_1
  6
ByLayer
 62
    7
370
   -1
100
AcDbCircle
 10
0
 20
0
 40
0.850939
  0
ENDBLK
  5
DA
330
D8
100
AcDbEntity
  8
0
100
AcDbBlockEnd
  0
BLOCK
  5
DC
330
DB
100
AcDbEntity
  8
0
100
AcDbBlockBegin
  2
AI9-BLK48
 70
    0
 10
0
 20
0
  3
AI9-BLK48
  1

  0
CIRCLE
  5
2F3
100
AcDbEntity
  8
LAYER_1
  6
ByLayer
 62
    7
370
   -1
100
AcDbCircle
 10
-0.000172
 20
0
 40
1.474845
  0
ENDBLK
  5
DD
330
DB
100
AcDbEntity
  8
0
100
AcDbBlockEnd
  0
BLOCK
  5
DF
330
DE
100
AcDbEntity
  8
0
100
AcDbBlockBegin
  2
AI9-BLK49
 70
    0
 10
0
 20
0
  3
AI9-BLK49
  1

  0
CIRCLE
  5
2F4
100
AcDbEntity
  8
LAYER_1
  6
ByLayer
 62
    7
370
   -1
100
AcDbCircle
 10
0.000172
 20
0
 40
1.474845
  0
ENDBLK
  5
E0
330
DE
100
AcDbEntity
  8
0
100
AcDbBlockEnd
  0
BLOCK
  5
E2
330
E1
100
AcDbEntity
  8
0
100
AcDbBlockBegin
  2
AI9-BLK50
 70
    0
 10
0
 20
0
  3
AI9-BLK50
  1

  0
CIRCLE
  5
2F5
100
AcDbEntity
  8
LAYER_1
  6
ByLayer
 62
    7
370
   -1
100
AcDbCircle
 10
0
 20
0
 40
1.999878
  0
ENDBLK
  5
E3
330
E1
100
AcDbEntity
  8
0
100
AcDbBlockEnd
  0
BLOCK
  5
E5
330
E4
100
AcDbEntity
  8
0
100
AcDbBlockBegin
  2
AI9-BLK51
 70
    0
 10
0
 20
0
  3
AI9-BLK51
  1

  0
CIRCLE
  5
2F6
100
AcDbEntity
  8
LAYER_1
  6
ByLayer
 62
    7
370
   -1
100
AcDbCircle
 10
0
 20
0
 40
0.850939
  0
ENDBLK
  5
E6
330
E4
100
AcDbEntity
  8
0
100
AcDbBlockEnd
  0
BLOCK
  5
E8
330
E7
100
AcDbEntity
  8
0
100
AcDbBlockBegin
  2
AI9-BLK52
 70
    0
 10
0
 20
0
  3
AI9-BLK52
  1

  0
CIRCLE
  5
2F7
100
AcDbEntity
  8
LAYER_1
  6
ByLayer
 62
    7
370
   -1
100
AcDbCircle
 10
0
 20
0
 40
0.850939
  0
ENDBLK
  5
E9
330
E7
100
AcDbEntity
  8
0
100
AcDbBlockEnd
  0
BLOCK
  5
EB
330
EA
100
AcDbEntity
  8
0
100
AcDbBlockBegin
  2
AI9-BLK53
 70
    0
 10
0
 20
0
  3
AI9-BLK53
  1

  0
CIRCLE
  5
2F8
100
AcDbEntity
  8
LAYER_1
  6
ByLayer
 62
    7
370
   -1
100
AcDbCircle
 10
0.000172
 20
0
 40
1.474845
  0
ENDBLK
  5
EC
330
EA
100
AcDbEntity
  8
0
100
AcDbBlockEnd
  0
BLOCK
  5
EE
330
ED
100
AcDbEntity
  8
0
100
AcDbBlockBegin
  2
AI9-BLK54
 70
    0
 10
0
 20
0
  3
AI9-BLK54
  1

  0
CIRCLE
  5
2F9
100
AcDbEntity
  8
LAYER_1
  6
ByLayer
 62
    7
370
   -1
100
AcDbCircle
 10
0.000172
 20
0
 40
1.474845
  0
ENDBLK
  5
EF
330
ED
100
AcDbEntity
  8
0
100
AcDbBlockEnd
  0
BLOCK
  5
F1
330
F0
100
AcDbEntity
  8
0
100
AcDbBlockBegin
  2
AI9-BLK55
 70
    0
 10
0
 20
0
  3
AI9-BLK55
  1

  0
CIRCLE
  5
2FA
100
AcDbEntity
  8
LAYER_1
  6
ByLayer
 62
    7
370
   -1
100
AcDbCircle
 10
0
 20
0
 40
1.999878
  0
ENDBLK
  5
F2
330
F0
100
AcDbEntity
  8
0
100
AcDbBlockEnd
  0
BLOCK
  5
F4
330
F3
100
AcDbEntity
  8
0
100
AcDbBlockBegin
  2
AI9-BLK56
 70
    0
 10
0
 20
0
  3
AI9-BLK56
  1

  0
CIRCLE
  5
2FB
100
AcDbEntity
  8
LAYER_1
  6
ByLayer
 62
    7
370
   -1
100
AcDbCircle
 10
0
 20
0
 40
0.850939
  0
ENDBLK
  5
F5
330
F3
100
AcDbEntity
  8
0
100
AcDbBlockEnd
  0
BLOCK
  5
F7
330
F6
100
AcDbEntity
  8
0
100
AcDbBlockBegin
  2
AI9-BLK57
 70
    0
 10
0
 20
0
  3
AI9-BLK57
  1

  0
CIRCLE
  5
2FC
100
AcDbEntity
  8
LAYER_1
  6
ByLayer
 62
    7
370
   -1
100
AcDbCircle
 10
0
 20
0
 40
0.850939
  0
ENDBLK
  5
F8
330
F6
100
AcDbEntity
  8
0
100
AcDbBlockEnd
  0
BLOCK
  5
FA
330
F9
100
AcDbEntity
  8
0
100
AcDbBlockBegin
  2
AI9-BLK58
 70
    0
 10
0
 20
0
  3
AI9-BLK58
  1

  0
CIRCLE
  5
2FD
100
AcDbEntity
  8
LAYER_1
  6
ByLayer
 62
    7
370
   -1
100
AcDbCircle
 10
0.000172
 20
0
 40
1.474845
  0
ENDBLK
  5
FB
330
F9
100
AcDbEntity
  8
0
100
AcDbBlockEnd
  0
BLOCK
  5
FD
330
FC
100
AcDbEntity
  8
0
100
AcDbBlockBegin
  2
AI9-BLK59
 70
    0
 10
0
 20
0
  3
AI9-BLK59
  1

  0
CIRCLE
  5
2FE
100
AcDbEntity
  8
LAYER_1
  6
ByLayer
 62
    7
370
   -1
100
AcDbCircle
 10
0.000172
 20
0
 40
1.474845
  0
ENDBLK
  5
FE
330
FC
100
AcDbEntity
  8
0
100
AcDbBlockEnd
  0
BLOCK
  5
100
330
FF
100
AcDbEntity
  8
0
100
AcDbBlockBegin
  2
AI9-BLK60
 70
    0
 10
0
 20
0
  3
AI9-BLK60
  1

  0
CIRCLE
  5
2FF
100
AcDbEntity
  8
LAYER_1
  6
ByLayer
 62
    7
370
   -1
100
AcDbCircle
 10
0
 20
0
 40
1.999878
  0
ENDBLK
  5
101
330
FF
100
AcDbEntity
  8
0
100
AcDbBlockEnd
  0
BLOCK
  5
103
330
102
100
AcDbEntity
  8
0
100
AcDbBlockBegin
  2
AI9-BLK61
 70
    0
 10
0
 20
0
  3
AI9-BLK61
  1

  0
CIRCLE
  5
300
100
AcDbEntity
  8
LAYER_1
  6
ByLayer
 62
    7
370
   -1
100
AcDbCircle
 10
0
 20
0
 40
0.850939
  0
ENDBLK
  5
104
330
102
100
AcDbEntity
  8
0
100
AcDbBlockEnd
  0
BLOCK
  5
106
330
105
100
AcDbEntity
  8
0
100
AcDbBlockBegin
  2
AI9-BLK62
 70
    0
 10
0
 20
0
  3
AI9-BLK62
  1

  0
CIRCLE
  5
301
100
AcDbEntity
  8
LAYER_1
  6
ByLayer
 62
    7
370
   -1
100
AcDbCircle
 10
0
 20
0
 40
0.850939
  0
ENDBLK
  5
107
330
105
100
AcDbEntity
  8
0
100
AcDbBlockEnd
  0
BLOCK
  5
109
330
108
100
AcDbEntity
  8
0
100
AcDbBlockBegin
  2
AI9-BLK63
 70
    0
 10
0
 20
0
  3
AI9-BLK63
  1

  0
CIRCLE
  5
302
100
AcDbEntity
  8
LAYER_1
  6
ByLayer
 62
    7
370
   -1
100
AcDbCircle
 10
0.000172
 20
0
 40
1.474845
  0
ENDBLK
  5
10A
330
108
100
AcDbEntity
  8
0
100
AcDbBlockEnd
  0
BLOCK
  5
10C
330
10B
100
AcDbEntity
  8
0
100
AcDbBlockBegin
  2
AI9-BLK64
 70
    0
 10
0
 20
0
  3
AI9-BLK64
  1

  0
CIRCLE
  5
303
100
AcDbEntity
  8
LAYER_1
  6
ByLayer
 62
    7
370
   -1
100
AcDbCircle
 10
0.000172
 20
0
 40
1.474845
  0
ENDBLK
  5
10D
330
10B
100
AcDbEntity
  8
0
100
AcDbBlockEnd
  0
BLOCK
  5
10F
330
10E
100
AcDbEntity
  8
0
100
AcDbBlockBegin
  2
AI9-BLK65
 70
    0
 10
0
 20
0
  3
AI9-BLK65
  1

  0
CIRCLE
  5
304
100
AcDbEntity
  8
LAYER_1
  6
ByLayer
 62
    7
370
   -1
100
AcDbCircle
 10
0
 20
0
 40
1.999878
  0
ENDBLK
  5
110
330
10E
100
AcDbEntity
  8
0
100
AcDbBlockEnd
  0
BLOCK
  5
112
330
111
100
AcDbEntity
  8
0
100
AcDbBlockBegin
  2
AI9-BLK66
 70
    0
 10
0
 20
0
  3
AI9-BLK66
  1

  0
CIRCLE
  5
305
100
AcDbEntity
  8
LAYER_1
  6
ByLayer
 62
    7
370
   -1
100
AcDbCircle
 10
0
 20
0
 40
0.850939
  0
ENDBLK
  5
113
330
111
100
AcDbEntity
  8
0
100
AcDbBlockEnd
  0
BLOCK
  5
115
330
114
100
AcDbEntity
  8
0
100
AcDbBlockBegin
  2
AI9-BLK67
 70
    0
 10
0
 20
0
  3
AI9-BLK67
  1

  0
CIRCLE
  5
306
100
AcDbEntity
  8
LAYER_1
  6
ByLayer
 62
    7
370
   -1
100
AcDbCircle
 10
0
 20
0
 40
0.850939
  0
ENDBLK
  5
116
330
114
100
AcDbEntity
  8
0
100
AcDbBlockEnd
  0
BLOCK
  5
118
330
117
100
AcDbEntity
  8
0
100
AcDbBlockBegin
  2
AI9-BLK68
 70
    0
 10
0
 20
0
  3
AI9-BLK68
  1

  0
CIRCLE
  5
307
100
AcDbEntity
  8
LAYER_1
  6
ByLayer
 62
    7
370
   -1
100
AcDbCircle
 10
0.000172
 20
0
 40
1.474845
  0
ENDBLK
  5
119
330
117
100
AcDbEntity
  8
0
100
AcDbBlockEnd
  0
BLOCK
  5
11B
330
11A
100
AcDbEntity
  8
0
100
AcDbBlockBegin
  2
AI9-BLK69
 70
    0
 10
0
 20
0
  3
AI9-BLK69
  1

  0
CIRCLE
  5
308
100
AcDbEntity
  8
LAYER_1
  6
ByLayer
 62
    7
370
   -1
100
AcDbCircle
 10
0.000172
 20
0
 40
1.474845
  0
ENDBLK
  5
11C
330
11A
100
AcDbEntity
  8
0
100
AcDbBlockEnd
  0
BLOCK
  5
11E
330
11D
100
AcDbEntity
  8
0
100
AcDbBlockBegin
  2
AI9-BLK70
 70
    0
 10
0
 20
0
  3
AI9-BLK70
  1

  0
CIRCLE
  5
309
100
AcDbEntity
  8
LAYER_1
  6
ByLayer
 62
    7
370
   -1
100
AcDbCircle
 10
0
 20
0
 40
1.999878
  0
ENDBLK
  5
11F
330
11D
100
AcDbEntity
  8
0
100
AcDbBlockEnd
  0
BLOCK
  5
121
330
120
100
AcDbEntity
  8
0
100
AcDbBlockBegin
  2
AI9-BLK71
 70
    0
 10
0
 20
0
  3
AI9-BLK71
  1

  0
CIRCLE
  5
30A
100
AcDbEntity
  8
LAYER_1
  6
ByLayer
 62
    7
370
   -1
100
AcDbCircle
 10
0
 20
0
 40
0.850939
  0
ENDBLK
  5
122
330
120
100
AcDbEntity
  8
0
100
AcDbBlockEnd
  0
BLOCK
  5
124
330
123
100
AcDbEntity
  8
0
100
AcDbBlockBegin
  2
AI9-BLK72
 70
    0
 10
0
 20
0
  3
AI9-BLK72
  1

  0
CIRCLE
  5
30B
100
AcDbEntity
  8
LAYER_1
  6
ByLayer
 62
    7
370
   -1
100
AcDbCircle
 10
0
 20
0
 40
0.850939
  0
ENDBLK
  5
125
330
123
100
AcDbEntity
  8
0
100
AcDbBlockEnd
  0
BLOCK
  5
127
330
126
100
AcDbEntity
  8
0
100
AcDbBlockBegin
  2
AI9-BLK73
 70
    0
 10
0
 20
0
  3
AI9-BLK73
  1

  0
CIRCLE
  5
30C
100
AcDbEntity
  8
LAYER_1
  6
ByLayer
 62
    7
370
   -1
100
AcDbCircle
 10
0.000172
 20
0
 40
1.474845
  0
ENDBLK
  5
128
330
126
100
AcDbEntity
  8
0
100
AcDbBlockEnd
  0
BLOCK
  5
12A
330
129
100
AcDbEntity
  8
0
100
AcDbBlockBegin
  2
AI9-BLK74
 70
    0
 10
0
 20
0
  3
AI9-BLK74
  1

  0
CIRCLE
  5
30D
100
AcDbEntity
  8
LAYER_1
  6
ByLayer
 62
    7
370
   -1
100
AcDbCircle
 10
0.000172
 20
0
 40
1.474845
  0
ENDBLK
  5
12B
330
129
100
AcDbEntity
  8
0
100
AcDbBlockEnd
  0
BLOCK
  5
12D
330
12C
100
AcDbEntity
  8
0
100
AcDbBlockBegin
  2
AI9-BLK75
 70
    0
 10
0
 20
0
  3
AI9-BLK75
  1

  0
CIRCLE
  5
30E
100
AcDbEntity
  8
LAYER_1
  6
ByLayer
 62
    7
370
   -1
100
AcDbCircle
 10
0
 20
0
 40
1.999878
  0
ENDBLK
  5
12E
330
12C
100
AcDbEntity
  8
0
100
AcDbBlockEnd
  0
BLOCK
  5
130
330
12F
100
AcDbEntity
  8
0
100
AcDbBlockBegin
  2
AI9-BLK76
 70
    0
 10
0
 20
0
  3
AI9-BLK76
  1

  0
CIRCLE
  5
30F
100
AcDbEntity
  8
LAYER_1
  6
ByLayer
 62
    7
370
   -1
100
AcDbCircle
 10
0
 20
0
 40
0.850939
  0
ENDBLK
  5
131
330
12F
100
AcDbEntity
  8
0
100
AcDbBlockEnd
  0
BLOCK
  5
133
330
132
100
AcDbEntity
  8
0
100
AcDbBlockBegin
  2
AI9-BLK77
 70
    0
 10
0
 20
0
  3
AI9-BLK77
  1

  0
CIRCLE
  5
310
100
AcDbEntity
  8
LAYER_1
  6
ByLayer
 62
    7
370
   -1
100
AcDbCircle
 10
0
 20
0
 40
0.850939
  0
ENDBLK
  5
134
330
132
100
AcDbEntity
  8
0
100
AcDbBlockEnd
  0
BLOCK
  5
136
330
135
100
AcDbEntity
  8
0
100
AcDbBlockBegin
  2
AI9-BLK78
 70
    0
 10
0
 20
0
  3
AI9-BLK78
  1

  0
CIRCLE
  5
311
100
AcDbEntity
  8
LAYER_1
  6
ByLayer
 62
    7
370
   -1
100
AcDbCircle
 10
0.000172
 20
0
 40
1.474845
  0
ENDBLK
  5
137
330
135
100
AcDbEntity
  8
0
100
AcDbBlockEnd
  0
BLOCK
  5
139
330
138
100
AcDbEntity
  8
0
100
AcDbBlockBegin
  2
AI9-BLK79
 70
    0
 10
0
 20
0
  3
AI9-BLK79
  1

  0
CIRCLE
  5
312
100
AcDbEntity
  8
LAYER_1
  6
ByLayer
 62
    7
370
   -1
100
AcDbCircle
 10
0.000172
 20
0
 40
1.474845
  0
ENDBLK
  5
13A
330
138
100
AcDbEntity
  8
0
100
AcDbBlockEnd
  0
BLOCK
  5
13C
330
13B
100
AcDbEntity
  8
0
100
AcDbBlockBegin
  2
AI9-BLK80
 70
    0
 10
0
 20
0
  3
AI9-BLK80
  1

  0
CIRCLE
  5
313
100
AcDbEntity
  8
LAYER_1
  6
ByLayer
 62
    7
370
   -1
100
AcDbCircle
 10
0
 20
0
 40
1.999878
  0
ENDBLK
  5
13D
330
13B
100
AcDbEntity
  8
0
100
AcDbBlockEnd
  0
BLOCK
  5
13F
330
13E
100
AcDbEntity
  8
0
100
AcDbBlockBegin
  2
AI9-BLK81
 70
    0
 10
0
 20
0
  3
AI9-BLK81
  1

  0
CIRCLE
  5
314
100
AcDbEntity
  8
LAYER_1
  6
ByLayer
 62
    7
370
   -1
100
AcDbCircle
 10
0
 20
0
 40
0.850939
  0
ENDBLK
  5
140
330
13E
100
AcDbEntity
  8
0
100
AcDbBlockEnd
  0
BLOCK
  5
142
330
141
100
AcDbEntity
  8
0
100
AcDbBlockBegin
  2
AI9-BLK82
 70
    0
 10
0
 20
0
  3
AI9-BLK82
  1

  0
CIRCLE
  5
315
100
AcDbEntity
  8
LAYER_1
  6
ByLayer
 62
    7
370
   -1
100
AcDbCircle
 10
0
 20
0
 40
0.850939
  0
ENDBLK
  5
143
330
141
100
AcDbEntity
  8
0
100
AcDbBlockEnd
  0
BLOCK
  5
145
330
144
100
AcDbEntity
  8
0
100
AcDbBlockBegin
  2
AI9-BLK83
 70
    0
 10
0
 20
0
  3
AI9-BLK83
  1

  0
CIRCLE
  5
316
100
AcDbEntity
  8
LAYER_1
  6
ByLayer
 62
    7
370
   -1
100
AcDbCircle
 10
0.000172
 20
0
 40
1.474845
  0
ENDBLK
  5
146
330
144
100
AcDbEntity
  8
0
100
AcDbBlockEnd
  0
BLOCK
  5
148
330
147
100
AcDbEntity
  8
0
100
AcDbBlockBegin
  2
AI9-BLK84
 70
    0
 10
0
 20
0
  3
AI9-BLK84
  1

  0
CIRCLE
  5
317
100
AcDbEntity
  8
LAYER_1
  6
ByLayer
 62
    7
370
   -1
100
AcDbCircle
 10
0.000172
 20
0
 40
1.474845
  0
ENDBLK
  5
149
330
147
100
AcDbEntity
  8
0
100
AcDbBlockEnd
  0
BLOCK
  5
14B
330
14A
100
AcDbEntity
  8
0
100
AcDbBlockBegin
  2
AI9-BLK85
 70
    0
 10
0
 20
0
  3
AI9-BLK85
  1

  0
CIRCLE
  5
318
100
AcDbEntity
  8
LAYER_1
  6
ByLayer
 62
    7
370
   -1
100
AcDbCircle
 10
0
 20
0
 40
1.999878
  0
ENDBLK
  5
14C
330
14A
100
AcDbEntity
  8
0
100
AcDbBlockEnd
  0
BLOCK
  5
14E
330
14D
100
AcDbEntity
  8
0
100
AcDbBlockBegin
  2
AI9-BLK86
 70
    0
 10
0
 20
0
  3
AI9-BLK86
  1

  0
CIRCLE
  5
319
100
AcDbEntity
  8
LAYER_1
  6
ByLayer
 62
    7
370
   -1
100
AcDbCircle
 10
0
 20
0
 40
0.850939
  0
ENDBLK
  5
14F
330
14D
100
AcDbEntity
  8
0
100
AcDbBlockEnd
  0
BLOCK
  5
151
330
150
100
AcDbEntity
  8
0
100
AcDbBlockBegin
  2
AI9-BLK87
 70
    0
 10
0
 20
0
  3
AI9-BLK87
  1

  0
CIRCLE
  5
31A
100
AcDbEntity
  8
LAYER_1
  6
ByLayer
 62
    7
370
   -1
100
AcDbCircle
 10
0
 20
0
 40
0.850939
  0
ENDBLK
  5
152
330
150
100
AcDbEntity
  8
0
100
AcDbBlockEnd
  0
BLOCK
  5
154
330
153
100
AcDbEntity
  8
0
100
AcDbBlockBegin
  2
AI9-BLK88
 70
    0
 10
0
 20
0
  3
AI9-BLK88
  1

  0
CIRCLE
  5
31B
100
AcDbEntity
  8
LAYER_1
  6
ByLayer
 62
    7
370
   -1
100
AcDbCircle
 10
0.000172
 20
0
 40
1.474845
  0
ENDBLK
  5
155
330
153
100
AcDbEntity
  8
0
100
AcDbBlockEnd
  0
BLOCK
  5
157
330
156
100
AcDbEntity
  8
0
100
AcDbBlockBegin
  2
AI9-BLK89
 70
    0
 10
0
 20
0
  3
AI9-BLK89
  1

  0
CIRCLE
  5
31C
100
AcDbEntity
  8
LAYER_1
  6
ByLayer
 62
    7
370
   -1
100
AcDbCircle
 10
0.000172
 20
0
 40
1.474845
  0
ENDBLK
  5
158
330
156
100
AcDbEntity
  8
0
100
AcDbBlockEnd
  0
BLOCK
  5
15A
330
159
100
AcDbEntity
  8
0
100
AcDbBlockBegin
  2
AI9-BLK90
 70
    0
 10
0
 20
0
  3
AI9-BLK90
  1

  0
CIRCLE
  5
31D
100
AcDbEntity
  8
LAYER_1
  6
ByLayer
 62
    7
370
   -1
100
AcDbCircle
 10
0
 20
0
 40
1.999878
  0
ENDBLK
  5
15B
330
159
100
AcDbEntity
  8
0
100
AcDbBlockEnd
  0
BLOCK
  5
15D
330
15C
100
AcDbEntity
  8
0
100
AcDbBlockBegin
  2
AI9-BLK91
 70
    0
 10
0
 20
0
  3
AI9-BLK91
  1

  0
CIRCLE
  5
31E
100
AcDbEntity
  8
LAYER_1
  6
ByLayer
 62
    7
370
   -1
100
AcDbCircle
 10
0
 20
0
 40
0.850939
  0
ENDBLK
  5
15E
330
15C
100
AcDbEntity
  8
0
100
AcDbBlockEnd
  0
BLOCK
  5
160
330
15F
100
AcDbEntity
  8
0
100
AcDbBlockBegin
  2
AI9-BLK92
 70
    0
 10
0
 20
0
  3
AI9-BLK92
  1

  0
CIRCLE
  5
31F
100
AcDbEntity
  8
LAYER_1
  6
ByLayer
 62
    7
370
   -1
100
AcDbCircle
 10
0
 20
0
 40
0.850939
  0
ENDBLK
  5
161
330
15F
100
AcDbEntity
  8
0
100
AcDbBlockEnd
  0
BLOCK
  5
163
330
162
100
AcDbEntity
  8
0
100
AcDbBlockBegin
  2
AI9-BLK93
 70
    0
 10
0
 20
0
  3
AI9-BLK93
  1

  0
CIRCLE
  5
320
100
AcDbEntity
  8
LAYER_1
  6
ByLayer
 62
    7
370
   -1
100
AcDbCircle
 10
0.000172
 20
0
 40
1.474845
  0
ENDBLK
  5
164
330
162
100
AcDbEntity
  8
0
100
AcDbBlockEnd
  0
BLOCK
  5
166
330
165
100
AcDbEntity
  8
0
100
AcDbBlockBegin
  2
AI9-BLK94
 70
    0
 10
0
 20
0
  3
AI9-BLK94
  1

  0
CIRCLE
  5
321
100
AcDbEntity
  8
LAYER_1
  6
ByLayer
 62
    7
370
   -1
100
AcDbCircle
 10
0.000172
 20
0
 40
1.474845
  0
ENDBLK
  5
167
330
165
100
AcDbEntity
  8
0
100
AcDbBlockEnd
  0
BLOCK
  5
169
330
168
100
AcDbEntity
  8
0
100
AcDbBlockBegin
  2
AI9-BLK95
 70
    0
 10
0
 20
0
  3
AI9-BLK95
  1

  0
CIRCLE
  5
322
100
AcDbEntity
  8
LAYER_1
  6
ByLayer
 62
    7
370
   -1
100
AcDbCircle
 10
0
 20
0
 40
1.999878
  0
ENDBLK
  5
16A
330
168
100
AcDbEntity
  8
0
100
AcDbBlockEnd
  0
BLOCK
  5
16C
330
16B
100
AcDbEntity
  8
0
100
AcDbBlockBegin
  2
AI9-BLK96
 70
    0
 10
0
 20
0
  3
AI9-BLK96
  1

  0
CIRCLE
  5
323
100
AcDbEntity
  8
LAYER_1
  6
ByLayer
 62
    7
370
   -1
100
AcDbCircle
 10
0
 20
0
 40
0.850939
  0
ENDBLK
  5
16D
330
16B
100
AcDbEntity
  8
0
100
AcDbBlockEnd
  0
BLOCK
  5
16F
330
16E
100
AcDbEntity
  8
0
100
AcDbBlockBegin
  2
AI9-BLK97
 70
    0
 10
0
 20
0
  3
AI9-BLK97
  1

  0
CIRCLE
  5
324
100
AcDbEntity
  8
LAYER_1
  6
ByLayer
 62
    7
370
   -1
100
AcDbCircle
 10
0
 20
0
 40
0.850939
  0
ENDBLK
  5
170
330
16E
100
AcDbEntity
  8
0
100
AcDbBlockEnd
  0
BLOCK
  5
172
330
171
100
AcDbEntity
  8
0
100
AcDbBlockBegin
  2
AI9-BLK98
 70
    0
 10
0
 20
0
  3
AI9-BLK98
  1

  0
CIRCLE
  5
325
100
AcDbEntity
  8
LAYER_1
  6
ByLayer
 62
    7
370
   -1
100
AcDbCircle
 10
-0.000172
 20
0
 40
1.474845
  0
ENDBLK
  5
173
330
171
100
AcDbEntity
  8
0
100
AcDbBlockEnd
  0
BLOCK
  5
175
330
174
100
AcDbEntity
  8
0
100
AcDbBlockBegin
  2
AI9-BLK99
 70
    0
 10
0
 20
0
  3
AI9-BLK99
  1

  0
CIRCLE
  5
326
100
AcDbEntity
  8
LAYER_1
  6
ByLayer
 62
    7
370
   -1
100
AcDbCircle
 10
0.000172
 20
0
 40
1.474845
  0
ENDBLK
  5
176
330
174
100
AcDbEntity
  8
0
100
AcDbBlockEnd
  0
BLOCK
  5
178
330
177
100
AcDbEntity
  8
0
100
AcDbBlockBegin
  2
AI9-BLK100
 70
    0
 10
0
 20
0
  3
AI9-BLK100
  1

  0
CIRCLE
  5
327
100
AcDbEntity
  8
LAYER_1
  6
ByLayer
 62
    7
370
   -1
100
AcDbCircle
 10
0
 20
0
 40
1.999878
  0
ENDBLK
  5
179
330
177
100
AcDbEntity
  8
0
100
AcDbBlockEnd
  0
BLOCK
  5
17B
330
17A
100
AcDbEntity
  8
0
100
AcDbBlockBegin
  2
AI9-BLK101
 70
    0
 10
0
 20
0
  3
AI9-BLK101
  1

  0
CIRCLE
  5
328
100
AcDbEntity
  8
LAYER_1
  6
ByLayer
 62
    7
370
   -1
100
AcDbCircle
 10
0
 20
0
 40
0.850939
  0
ENDBLK
  5
17C
330
17A
100
AcDbEntity
  8
0
100
AcDbBlockEnd
  0
BLOCK
  5
17E
330
17D
100
AcDbEntity
  8
0
100
AcDbBlockBegin
  2
AI9-BLK102
 70
    0
 10
0
 20
0
  3
AI9-BLK102
  1

  0
CIRCLE
  5
329
100
AcDbEntity
  8
LAYER_1
  6
ByLayer
 62
    7
370
   -1
100
AcDbCircle
 10
0
 20
0
 40
0.850939
  0
ENDBLK
  5
17F
330
17D
100
AcDbEntity
  8
0
100
AcDbBlockEnd
  0
BLOCK
  5
181
330
180
100
AcDbEntity
  8
0
100
AcDbBlockBegin
  2
AI9-BLK103
 70
    0
 10
0
 20
0
  3
AI9-BLK103
  1

  0
CIRCLE
  5
32A
100
AcDbEntity
  8
LAYER_1
  6
ByLayer
 62
    7
370
   -1
100
AcDbCircle
 10
0.000172
 20
0
 40
1.474845
  0
ENDBLK
  5
182
330
180
100
AcDbEntity
  8
0
100
AcDbBlockEnd
  0
BLOCK
  5
184
330
183
100
AcDbEntity
  8
0
100
AcDbBlockBegin
  2
AI9-BLK104
 70
    0
 10
0
 20
0
  3
AI9-BLK104
  1

  0
CIRCLE
  5
32B
100
AcDbEntity
  8
LAYER_1
  6
ByLayer
 62
    7
370
   -1
100
AcDbCircle
 10
0.000172
 20
0
 40
1.474845
  0
ENDBLK
  5
185
330
183
100
AcDbEntity
  8
0
100
AcDbBlockEnd
  0
BLOCK
  5
187
330
186
100
AcDbEntity
  8
0
100
AcDbBlockBegin
  2
AI9-BLK105
 70
    0
 10
0
 20
0
  3
AI9-BLK105
  1

  0
CIRCLE
  5
32C
100
AcDbEntity
  8
LAYER_1
  6
ByLayer
 62
    7
370
   -1
100
AcDbCircle
 10
0
 20
0
 40
1.999878
  0
ENDBLK
  5
188
330
186
100
AcDbEntity
  8
0
100
AcDbBlockEnd
  0
BLOCK
  5
18A
330
189
100
AcDbEntity
  8
0
100
AcDbBlockBegin
  2
AI9-BLK106
 70
    0
 10
0
 20
0
  3
AI9-BLK106
  1

  0
CIRCLE
  5
32D
100
AcDbEntity
  8
LAYER_1
  6
ByLayer
 62
    7
370
   -1
100
AcDbCircle
 10
0
 20
0
 40
0.850939
  0
ENDBLK
  5
18B
330
189
100
AcDbEntity
  8
0
100
AcDbBlockEnd
  0
BLOCK
  5
18D
330
18C
100
AcDbEntity
  8
0
100
AcDbBlockBegin
  2
AI9-BLK107
 70
    0
 10
0
 20
0
  3
AI9-BLK107
  1

  0
CIRCLE
  5
32E
100
AcDbEntity
  8
LAYER_1
  6
ByLayer
 62
    7
370
   -1
100
AcDbCircle
 10
0
 20
0
 40
0.850939
  0
ENDBLK
  5
18E
330
18C
100
AcDbEntity
  8
0
100
AcDbBlockEnd
  0
BLOCK
  5
190
330
18F
100
AcDbEntity
  8
0
100
AcDbBlockBegin
  2
AI9-BLK108
 70
    0
 10
0
 20
0
  3
AI9-BLK108
  1

  0
CIRCLE
  5
32F
100
AcDbEntity
  8
LAYER_1
  6
ByLayer
 62
    7
370
   -1
100
AcDbCircle
 10
0.000172
 20
0
 40
1.474845
  0
ENDBLK
  5
191
330
18F
100
AcDbEntity
  8
0
100
AcDbBlockEnd
  0
BLOCK
  5
193
330
192
100
AcDbEntity
  8
0
100
AcDbBlockBegin
  2
AI9-BLK109
 70
    0
 10
0
 20
0
  3
AI9-BLK109
  1

  0
CIRCLE
  5
330
100
AcDbEntity
  8
LAYER_1
  6
ByLayer
 62
    7
370
   -1
100
AcDbCircle
 10
0.000172
 20
0
 40
1.474845
  0
ENDBLK
  5
194
330
192
100
AcDbEntity
  8
0
100
AcDbBlockEnd
  0
BLOCK
  5
196
330
195
100
AcDbEntity
  8
0
100
AcDbBlockBegin
  2
AI9-BLK110
 70
    0
 10
0
 20
0
  3
AI9-BLK110
  1

  0
CIRCLE
  5
331
100
AcDbEntity
  8
LAYER_1
  6
ByLayer
 62
    7
370
   -1
100
AcDbCircle
 10
0
 20
0
 40
1.999878
  0
ENDBLK
  5
197
330
195
100
AcDbEntity
  8
0
100
AcDbBlockEnd
  0
BLOCK
  5
199
330
198
100
AcDbEntity
  8
0
100
AcDbBlockBegin
  2
AI9-BLK111
 70
    0
 10
0
 20
0
  3
AI9-BLK111
  1

  0
CIRCLE
  5
332
100
AcDbEntity
  8
LAYER_1
  6
ByLayer
 62
    7
370
   -1
100
AcDbCircle
 10
0
 20
0
 40
0.850939
  0
ENDBLK
  5
19A
330
198
100
AcDbEntity
  8
0
100
AcDbBlockEnd
  0
BLOCK
  5
19C
330
19B
100
AcDbEntity
  8
0
100
AcDbBlockBegin
  2
AI9-BLK112
 70
    0
 10
0
 20
0
  3
AI9-BLK112
  1

  0
CIRCLE
  5
333
100
AcDbEntity
  8
LAYER_1
  6
ByLayer
 62
    7
370
   -1
100
AcDbCircle
 10
0
 20
0
 40
0.850939
  0
ENDBLK
  5
19D
330
19B
100
AcDbEntity
  8
0
100
AcDbBlockEnd
  0
BLOCK
  5
19F
330
19E
100
AcDbEntity
  8
0
100
AcDbBlockBegin
  2
AI9-BLK113
 70
    0
 10
0
 20
0
  3
AI9-BLK113
  1

  0
CIRCLE
  5
334
100
AcDbEntity
  8
LAYER_1
  6
ByLayer
 62
    7
370
   -1
100
AcDbCircle
 10
0.000172
 20
0
 40
1.474845
  0
ENDBLK
  5
1A0
330
19E
100
AcDbEntity
  8
0
100
AcDbBlockEnd
  0
BLOCK
  5
1A2
330
1A1
100
AcDbEntity
  8
0
100
AcDbBlockBegin
  2
AI9-BLK114
 70
    0
 10
0
 20
0
  3
AI9-BLK114
  1

  0
CIRCLE
  5
335
100
AcDbEntity
  8
LAYER_1
  6
ByLayer
 62
    7
370
   -1
100
AcDbCircle
 10
0.000172
 20
0
 40
1.474845
  0
ENDBLK
  5
1A3
330
1A1
100
AcDbEntity
  8
0
100
AcDbBlockEnd
  0
BLOCK
  5
1A5
330
1A4
100
AcDbEntity
  8
0
100
AcDbBlockBegin
  2
AI9-BLK115
 70
    0
 10
0
 20
0
  3
AI9-BLK115
  1

  0
CIRCLE
  5
336
100
AcDbEntity
  8
LAYER_1
  6
ByLayer
 62
    7
370
   -1
100
AcDbCircle
 10
0
 20
0
 40
1.999878
  0
ENDBLK
  5
1A6
330
1A4
100
AcDbEntity
  8
0
100
AcDbBlockEnd
  0
BLOCK
  5
1A8
330
1A7
100
AcDbEntity
  8
0
100
AcDbBlockBegin
  2
AI9-BLK116
 70
    0
 10
0
 20
0
  3
AI9-BLK116
  1

  0
CIRCLE
  5
337
100
AcDbEntity
  8
LAYER_1
  6
ByLayer
 62
    7
370
   -1
100
AcDbCircle
 10
0
 20
0
 40
0.850939
  0
ENDBLK
  5
1A9
330
1A7
100
AcDbEntity
  8
0
100
AcDbBlockEnd
  0
BLOCK
  5
1AB
330
1AA
100
AcDbEntity
  8
0
100
AcDbBlockBegin
  2
AI9-BLK117
 70
    0
 10
0
 20
0
  3
AI9-BLK117
  1

  0
CIRCLE
  5
338
100
AcDbEntity
  8
LAYER_1
  6
ByLayer
 62
    7
370
   -1
100
AcDbCircle
 10
0
 20
0
 40
0.850939
  0
ENDBLK
  5
1AC
330
1AA
100
AcDbEntity
  8
0
100
AcDbBlockEnd
  0
BLOCK
  5
1AE
330
1AD
100
AcDbEntity
  8
0
100
AcDbBlockBegin
  2
AI9-BLK118
 70
    0
 10
0
 20
0
  3
AI9-BLK118
  1

  0
CIRCLE
  5
339
100
AcDbEntity
  8
LAYER_1
  6
ByLayer
 62
    7
370
   -1
100
AcDbCircle
 10
0.000172
 20
0
 40
1.474845
  0
ENDBLK
  5
1AF
330
1AD
100
AcDbEntity
  8
0
100
AcDbBlockEnd
  0
BLOCK
  5
1B1
330
1B0
100
AcDbEntity
  8
0
100
AcDbBlockBegin
  2
AI9-BLK119
 70
    0
 10
0
 20
0
  3
AI9-BLK119
  1

  0
CIRCLE
  5
33A
100
AcDbEntity
  8
LAYER_1
  6
ByLayer
 62
    7
370
   -1
100
AcDbCircle
 10
0.000172
 20
0
 40
1.474845
  0
ENDBLK
  5
1B2
330
1B0
100
AcDbEntity
  8
0
100
AcDbBlockEnd
  0
BLOCK
  5
1B4
330
1B3
100
AcDbEntity
  8
0
100
AcDbBlockBegin
  2
AI9-BLK120
 70
    0
 10
0
 20
0
  3
AI9-BLK120
  1

  0
CIRCLE
  5
33B
100
AcDbEntity
  8
LAYER_1
  6
ByLayer
 62
    7
370
   -1
100
AcDbCircle
 10
0
 20
0
 40
1.999878
  0
ENDBLK
  5
1B5
330
1B3
100
AcDbEntity
  8
0
100
AcDbBlockEnd
  0
BLOCK
  5
1B7
330
1B6
100
AcDbEntity
  8
0
100
AcDbBlockBegin
  2
AI9-BLK121
 70
    0
 10
0
 20
0
  3
AI9-BLK121
  1

  0
CIRCLE
  5
33C
100
AcDbEntity
  8
LAYER_1
  6
ByLayer
 62
    7
370
   -1
100
AcDbCircle
 10
0
 20
0
 40
0.850939
  0
ENDBLK
  5
1B8
330
1B6
100
AcDbEntity
  8
0
100
AcDbBlockEnd
  0
BLOCK
  5
1BA
330
1B9
100
AcDbEntity
  8
0
100
AcDbBlockBegin
  2
AI9-BLK122
 70
    0
 10
0
 20
0
  3
AI9-BLK122
  1

  0
CIRCLE
  5
33D
100
AcDbEntity
  8
LAYER_1
  6
ByLayer
 62
    7
370
   -1
100
AcDbCircle
 10
0
 20
0
 40
0.850939
  0
ENDBLK
  5
1BB
330
1B9
100
AcDbEntity
  8
0
100
AcDbBlockEnd
  0
BLOCK
  5
1BD
330
1BC
100
AcDbEntity
  8
0
100
AcDbBlockBegin
  2
AI9-BLK123
 70
    0
 10
0
 20
0
  3
AI9-BLK123
  1

  0
CIRCLE
  5
33E
100
AcDbEntity
  8
LAYER_1
  6
ByLayer
 62
    7
370
   -1
100
AcDbCircle
 10
0.000172
 20
0
 40
1.474845
  0
ENDBLK
  5
1BE
330
1BC
100
AcDbEntity
  8
0
100
AcDbBlockEnd
  0
BLOCK
  5
1C0
330
1BF
100
AcDbEntity
  8
0
100
AcDbBlockBegin
  2
AI9-BLK124
 70
    0
 10
0
 20
0
  3
AI9-BLK124
  1

  0
CIRCLE
  5
33F
100
AcDbEntity
  8
LAYER_1
  6
ByLayer
 62
    7
370
   -1
100
AcDbCircle
 10
0.000172
 20
0
 40
1.474845
  0
ENDBLK
  5
1C1
330
1BF
100
AcDbEntity
  8
0
100
AcDbBlockEnd
  0
BLOCK
  5
1C3
330
1C2
100
AcDbEntity
  8
0
100
AcDbBlockBegin
  2
AI9-BLK125
 70
    0
 10
0
 20
0
  3
AI9-BLK125
  1

  0
CIRCLE
  5
340
100
AcDbEntity
  8
LAYER_1
  6
ByLayer
 62
    7
370
   -1
100
AcDbCircle
 10
0
 20
0
 40
1.999878
  0
ENDBLK
  5
1C4
330
1C2
100
AcDbEntity
  8
0
100
AcDbBlockEnd
  0
BLOCK
  5
1C6
330
1C5
100
AcDbEntity
  8
0
100
AcDbBlockBegin
  2
AI9-BLK126
 70
    0
 10
0
 20
0
  3
AI9-BLK126
  1

  0
CIRCLE
  5
341
100
AcDbEntity
  8
LAYER_1
  6
ByLayer
 62
    7
370
   -1
100
AcDbCircle
 10
0
 20
0
 40
0.850939
  0
ENDBLK
  5
1C7
330
1C5
100
AcDbEntity
  8
0
100
AcDbBlockEnd
  0
BLOCK
  5
1C9
330
1C8
100
AcDbEntity
  8
0
100
AcDbBlockBegin
  2
AI9-BLK127
 70
    0
 10
0
 20
0
  3
AI9-BLK127
  1

  0
CIRCLE
  5
342
100
AcDbEntity
  8
LAYER_1
  6
ByLayer
 62
    7
370
   -1
100
AcDbCircle
 10
0
 20
0
 40
0.850939
  0
ENDBLK
  5
1CA
330
1C8
100
AcDbEntity
  8
0
100
AcDbBlockEnd
  0
BLOCK
  5
1CC
330
1CB
100
AcDbEntity
  8
0
100
AcDbBlockBegin
  2
AI9-BLK128
 70
    0
 10
0
 20
0
  3
AI9-BLK128
  1

  0
CIRCLE
  5
343
100
AcDbEntity
  8
LAYER_1
  6
ByLayer
 62
    7
370
   -1
100
AcDbCircle
 10
0.000172
 20
0
 40
1.474845
  0
ENDBLK
  5
1CD
330
1CB
100
AcDbEntity
  8
0
100
AcDbBlockEnd
  0
BLOCK
  5
1CF
330
1CE
100
AcDbEntity
  8
0
100
AcDbBlockBegin
  2
AI9-BLK129
 70
    0
 10
0
 20
0
  3
AI9-BLK129
  1

  0
CIRCLE
  5
344
100
AcDbEntity
  8
LAYER_1
  6
ByLayer
 62
    7
370
   -1
100
AcDbCircle
 10
0.000172
 20
0
 40
1.474845
  0
ENDBLK
  5
1D0
330
1CE
100
AcDbEntity
  8
0
100
AcDbBlockEnd
  0
BLOCK
  5
1D2
330
1D1
100
AcDbEntity
  8
0
100
AcDbBlockBegin
  2
AI9-BLK130
 70
    0
 10
0
 20
0
  3
AI9-BLK130
  1

  0
CIRCLE
  5
345
100
AcDbEntity
  8
LAYER_1
  6
ByLayer
 62
    7
370
   -1
100
AcDbCircle
 10
0
 20
0
 40
1.999878
  0
ENDBLK
  5
1D3
330
1D1
100
AcDbEntity
  8
0
100
AcDbBlockEnd
  0
BLOCK
  5
1D5
330
1D4
100
AcDbEntity
  8
0
100
AcDbBlockBegin
  2
AI9-BLK131
 70
    0
 10
0
 20
0
  3
AI9-BLK131
  1

  0
CIRCLE
  5
346
100
AcDbEntity
  8
LAYER_1
  6
ByLayer
 62
    7
370
   -1
100
AcDbCircle
 10
0
 20
0
 40
0.850939
  0
ENDBLK
  5
1D6
330
1D4
100
AcDbEntity
  8
0
100
AcDbBlockEnd
  0
BLOCK
  5
1D8
330
1D7
100
AcDbEntity
  8
0
100
AcDbBlockBegin
  2
AI9-BLK132
 70
    0
 10
0
 20
0
  3
AI9-BLK132
  1

  0
CIRCLE
  5
347
100
AcDbEntity
  8
LAYER_1
  6
ByLayer
 62
    7
370
   -1
100
AcDbCircle
 10
0
 20
0
 40
0.850939
  0
ENDBLK
  5
1D9
330
1D7
100
AcDbEntity
  8
0
100
AcDbBlockEnd
  0
BLOCK
  5
1DB
330
1DA
100
AcDbEntity
  8
0
100
AcDbBlockBegin
  2
AI9-BLK133
 70
    0
 10
0
 20
0
  3
AI9-BLK133
  1

  0
CIRCLE
  5
348
100
AcDbEntity
  8
LAYER_1
  6
ByLayer
 62
    7
370
   -1
100
AcDbCircle
 10
0.000172
 20
0
 40
1.474845
  0
ENDBLK
  5
1DC
330
1DA
100
AcDbEntity
  8
0
100
AcDbBlockEnd
  0
BLOCK
  5
1DE
330
1DD
100
AcDbEntity
  8
0
100
AcDbBlockBegin
  2
AI9-BLK134
 70
    0
 10
0
 20
0
  3
AI9-BLK134
  1

  0
CIRCLE
  5
349
100
AcDbEntity
  8
LAYER_1
  6
ByLayer
 62
    7
370
   -1
100
AcDbCircle
 10
0.000172
 20
0
 40
1.474845
  0
ENDBLK
  5
1DF
330
1DD
100
AcDbEntity
  8
0
100
AcDbBlockEnd
  0
BLOCK
  5
1E1
330
1E0
100
AcDbEntity
  8
0
100
AcDbBlockBegin
  2
AI9-BLK135
 70
    0
 10
0
 20
0
  3
AI9-BLK135
  1

  0
CIRCLE
  5
34A
100
AcDbEntity
  8
LAYER_1
  6
ByLayer
 62
    7
370
   -1
100
AcDbCircle
 10
0
 20
0
 40
1.999878
  0
ENDBLK
  5
1E2
330
1E0
100
AcDbEntity
  8
0
100
AcDbBlockEnd
  0
BLOCK
  5
1E4
330
1E3
100
AcDbEntity
  8
0
100
AcDbBlockBegin
  2
AI9-BLK136
 70
    0
 10
0
 20
0
  3
AI9-BLK136
  1

  0
CIRCLE
  5
34B
100
AcDbEntity
  8
LAYER_1
  6
ByLayer
 62
    7
370
   -1
100
AcDbCircle
 10
0
 20
0
 40
0.850939
  0
ENDBLK
  5
1E5
330
1E3
100
AcDbEntity
  8
0
100
AcDbBlockEnd
  0
BLOCK
  5
1E7
330
1E6
100
AcDbEntity
  8
0
100
AcDbBlockBegin
  2
AI9-BLK137
 70
    0
 10
0
 20
0
  3
AI9-BLK137
  1

  0
CIRCLE
  5
34C
100
AcDbEntity
  8
LAYER_1
  6
ByLayer
 62
    7
370
   -1
100
AcDbCircle
 10
0
 20
0
 40
0.850939
  0
ENDBLK
  5
1E8
330
1E6
100
AcDbEntity
  8
0
100
AcDbBlockEnd
  0
BLOCK
  5
1EA
330
1E9
100
AcDbEntity
  8
0
100
AcDbBlockBegin
  2
AI9-BLK138
 70
    0
 10
0
 20
0
  3
AI9-BLK138
  1

  0
CIRCLE
  5
34D
100
AcDbEntity
  8
LAYER_1
  6
ByLayer
 62
    7
370
   -1
100
AcDbCircle
 10
0.000172
 20
0
 40
1.474845
  0
ENDBLK
  5
1EB
330
1E9
100
AcDbEntity
  8
0
100
AcDbBlockEnd
  0
BLOCK
  5
1ED
330
1EC
100
AcDbEntity
  8
0
100
AcDbBlockBegin
  2
AI9-BLK139
 70
    0
 10
0
 20
0
  3
AI9-BLK139
  1

  0
CIRCLE
  5
34E
100
AcDbEntity
  8
LAYER_1
  6
ByLayer
 62
    7
370
   -1
100
AcDbCircle
 10
0.000172
 20
0
 40
1.474845
  0
ENDBLK
  5
1EE
330
1EC
100
AcDbEntity
  8
0
100
AcDbBlockEnd
  0
BLOCK
  5
1F0
330
1EF
100
AcDbEntity
  8
0
100
AcDbBlockBegin
  2
AI9-BLK140
 70
    0
 10
0
 20
0
  3
AI9-BLK140
  1

  0
CIRCLE
  5
34F
100
AcDbEntity
  8
LAYER_1
  6
ByLayer
 62
    7
370
   -1
100
AcDbCircle
 10
0
 20
0
 40
1.999878
  0
ENDBLK
  5
1F1
330
1EF
100
AcDbEntity
  8
0
100
AcDbBlockEnd
  0
BLOCK
  5
1F3
330
1F2
100
AcDbEntity
  8
0
100
AcDbBlockBegin
  2
AI9-BLK141
 70
    0
 10
0
 20
0
  3
AI9-BLK141
  1

  0
CIRCLE
  5
350
100
AcDbEntity
  8
LAYER_1
  6
ByLayer
 62
    7
370
   -1
100
AcDbCircle
 10
0
 20
0
 40
0.850939
  0
ENDBLK
  5
1F4
330
1F2
100
AcDbEntity
  8
0
100
AcDbBlockEnd
  0
BLOCK
  5
1F6
330
1F5
100
AcDbEntity
  8
0
100
AcDbBlockBegin
  2
AI9-BLK142
 70
    0
 10
0
 20
0
  3
AI9-BLK142
  1

  0
CIRCLE
  5
351
100
AcDbEntity
  8
LAYER_1
  6
ByLayer
 62
    7
370
   -1
100
AcDbCircle
 10
0
 20
0
 40
0.850939
  0
ENDBLK
  5
1F7
330
1F5
100
AcDbEntity
  8
0
100
AcDbBlockEnd
  0
BLOCK
  5
1F9
330
1F8
100
AcDbEntity
  8
0
100
AcDbBlockBegin
  2
AI9-BLK143
 70
    0
 10
0
 20
0
  3
AI9-BLK143
  1

  0
CIRCLE
  5
352
100
AcDbEntity
  8
LAYER_1
  6
ByLayer
 62
    7
370
   -1
100
AcDbCircle
 10
0.000172
 20
0
 40
1.474845
  0
ENDBLK
  5
1FA
330
1F8
100
AcDbEntity
  8
0
100
AcDbBlockEnd
  0
BLOCK
  5
1FC
330
1FB
100
AcDbEntity
  8
0
100
AcDbBlockBegin
  2
AI9-BLK144
 70
    0
 10
0
 20
0
  3
AI9-BLK144
  1

  0
CIRCLE
  5
353
100
AcDbEntity
  8
LAYER_1
  6
ByLayer
 62
    7
370
   -1
100
AcDbCircle
 10
0.000172
 20
0
 40
1.474845
  0
ENDBLK
  5
1FD
330
1FB
100
AcDbEntity
  8
0
100
AcDbBlockEnd
  0
BLOCK
  5
1FF
330
1FE
100
AcDbEntity
  8
0
100
AcDbBlockBegin
  2
AI9-BLK145
 70
    0
 10
0
 20
0
  3
AI9-BLK145
  1

  0
CIRCLE
  5
354
100
AcDbEntity
  8
LAYER_1
  6
ByLayer
 62
    7
370
   -1
100
AcDbCircle
 10
0
 20
0
 40
1.999878
  0
ENDBLK
  5
200
330
1FE
100
AcDbEntity
  8
0
100
AcDbBlockEnd
  0
BLOCK
  5
202
330
201
100
AcDbEntity
  8
0
100
AcDbBlockBegin
  2
AI9-BLK146
 70
    0
 10
0
 20
0
  3
AI9-BLK146
  1

  0
CIRCLE
  5
355
100
AcDbEntity
  8
LAYER_1
  6
ByLayer
 62
    7
370
   -1
100
AcDbCircle
 10
0
 20
0
 40
0.850939
  0
ENDBLK
  5
203
330
201
100
AcDbEntity
  8
0
100
AcDbBlockEnd
  0
BLOCK
  5
205
330
204
100
AcDbEntity
  8
0
100
AcDbBlockBegin
  2
AI9-BLK147
 70
    0
 10
0
 20
0
  3
AI9-BLK147
  1

  0
CIRCLE
  5
356
100
AcDbEntity
  8
LAYER_1
  6
ByLayer
 62
    7
370
   -1
100
AcDbCircle
 10
0
 20
0
 40
0.850939
  0
ENDBLK
  5
206
330
204
100
AcDbEntity
  8
0
100
AcDbBlockEnd
  0
BLOCK
  5
208
330
207
100
AcDbEntity
  8
0
100
AcDbBlockBegin
  2
AI9-BLK148
 70
    0
 10
0
 20
0
  3
AI9-BLK148
  1

  0
CIRCLE
  5
357
100
AcDbEntity
  8
LAYER_1
  6
ByLayer
 62
    7
370
   -1
100
AcDbCircle
 10
-0.000172
 20
0
 40
1.474845
  0
ENDBLK
  5
209
330
207
100
AcDbEntity
  8
0
100
AcDbBlockEnd
  0
BLOCK
  5
20B
330
20A
100
AcDbEntity
  8
0
100
AcDbBlockBegin
  2
AI9-BLK149
 70
    0
 10
0
 20
0
  3
AI9-BLK149
  1

  0
CIRCLE
  5
358
100
AcDbEntity
  8
LAYER_1
  6
ByLayer
 62
    7
370
   -1
100
AcDbCircle
 10
0.000172
 20
0
 40
1.474845
  0
ENDBLK
  5
20C
330
20A
100
AcDbEntity
  8
0
100
AcDbBlockEnd
  0
BLOCK
  5
20E
330
20D
100
AcDbEntity
  8
0
100
AcDbBlockBegin
  2
AI9-BLK150
 70
    0
 10
0
 20
0
  3
AI9-BLK150
  1

  0
CIRCLE
  5
359
100
AcDbEntity
  8
LAYER_1
  6
ByLayer
 62
    7
370
   -1
100
AcDbCircle
 10
0
 20
0
 40
1.999878
  0
ENDBLK
  5
20F
330
20D
100
AcDbEntity
  8
0
100
AcDbBlockEnd
  0
BLOCK
  5
211
330
210
100
AcDbEntity
  8
0
100
AcDbBlockBegin
  2
AI9-BLK151
 70
    0
 10
0
 20
0
  3
AI9-BLK151
  1

  0
CIRCLE
  5
35A
100
AcDbEntity
  8
LAYER_1
  6
ByLayer
 62
    7
370
   -1
100
AcDbCircle
 10
0
 20
0
 40
0.850939
  0
ENDBLK
  5
212
330
210
100
AcDbEntity
  8
0
100
AcDbBlockEnd
  0
BLOCK
  5
214
330
213
100
AcDbEntity
  8
0
100
AcDbBlockBegin
  2
AI9-BLK152
 70
    0
 10
0
 20
0
  3
AI9-BLK152
  1

  0
CIRCLE
  5
35B
100
AcDbEntity
  8
LAYER_1
  6
ByLayer
 62
    7
370
   -1
100
AcDbCircle
 10
0
 20
0
 40
0.850939
  0
ENDBLK
  5
215
330
213
100
AcDbEntity
  8
0
100
AcDbBlockEnd
  0
BLOCK
  5
217
330
216
100
AcDbEntity
  8
0
100
AcDbBlockBegin
  2
AI9-BLK153
 70
    0
 10
0
 20
0
  3
AI9-BLK153
  1

  0
CIRCLE
  5
35C
100
AcDbEntity
  8
LAYER_1
  6
ByLayer
 62
    7
370
   -1
100
AcDbCircle
 10
0.000172
 20
0
 40
1.474845
  0
ENDBLK
  5
218
330
216
100
AcDbEntity
  8
0
100
AcDbBlockEnd
  0
BLOCK
  5
21A
330
219
100
AcDbEntity
  8
0
100
AcDbBlockBegin
  2
AI9-BLK154
 70
    0
 10
0
 20
0
  3
AI9-BLK154
  1

  0
CIRCLE
  5
35D
100
AcDbEntity
  8
LAYER_1
  6
ByLayer
 62
    7
370
   -1
100
AcDbCircle
 10
0.000172
 20
0
 40
1.474845
  0
ENDBLK
  5
21B
330
219
100
AcDbEntity
  8
0
100
AcDbBlockEnd
  0
BLOCK
  5
21D
330
21C
100
AcDbEntity
  8
0
100
AcDbBlockBegin
  2
AI9-BLK155
 70
    0
 10
0
 20
0
  3
AI9-BLK155
  1

  0
CIRCLE
  5
35E
100
AcDbEntity
  8
LAYER_1
  6
ByLayer
 62
    7
370
   -1
100
AcDbCircle
 10
0
 20
0
 40
1.999878
  0
ENDBLK
  5
21E
330
21C
100
AcDbEntity
  8
0
100
AcDbBlockEnd
  0
BLOCK
  5
220
330
21F
100
AcDbEntity
  8
0
100
AcDbBlockBegin
  2
AI9-BLK156
 70
    0
 10
0
 20
0
  3
AI9-BLK156
  1

  0
CIRCLE
  5
35F
100
AcDbEntity
  8
LAYER_1
  6
ByLayer
 62
    7
370
   -1
100
AcDbCircle
 10
0
 20
0
 40
0.850939
  0
ENDBLK
  5
221
330
21F
100
AcDbEntity
  8
0
100
AcDbBlockEnd
  0
BLOCK
  5
223
330
222
100
AcDbEntity
  8
0
100
AcDbBlockBegin
  2
AI9-BLK157
 70
    0
 10
0
 20
0
  3
AI9-BLK157
  1

  0
CIRCLE
  5
360
100
AcDbEntity
  8
LAYER_1
  6
ByLayer
 62
    7
370
   -1
100
AcDbCircle
 10
0
 20
0
 40
0.850939
  0
ENDBLK
  5
224
330
222
100
AcDbEntity
  8
0
100
AcDbBlockEnd
  0
BLOCK
  5
226
330
225
100
AcDbEntity
  8
0
100
AcDbBlockBegin
  2
AI9-BLK158
 70
    0
 10
0
 20
0
  3
AI9-BLK158
  1

  0
CIRCLE
  5
361
100
AcDbEntity
  8
LAYER_1
  6
ByLayer
 62
    7
370
   -1
100
AcDbCircle
 10
0.000172
 20
0
 40
1.474845
  0
ENDBLK
  5
227
330
225
100
AcDbEntity
  8
0
100
AcDbBlockEnd
  0
BLOCK
  5
229
330
228
100
AcDbEntity
  8
0
100
AcDbBlockBegin
  2
AI9-BLK159
 70
    0
 10
0
 20
0
  3
AI9-BLK159
  1

  0
CIRCLE
  5
362
100
AcDbEntity
  8
LAYER_1
  6
ByLayer
 62
    7
370
   -1
100
AcDbCircle
 10
0.000172
 20
0
 40
1.474845
  0
ENDBLK
  5
22A
330
228
100
AcDbEntity
  8
0
100
AcDbBlockEnd
  0
BLOCK
  5
22C
330
22B
100
AcDbEntity
  8
0
100
AcDbBlockBegin
  2
AI9-BLK160
 70
    0
 10
0
 20
0
  3
AI9-BLK160
  1

  0
CIRCLE
  5
363
100
AcDbEntity
  8
LAYER_1
  6
ByLayer
 62
    7
370
   -1
100
AcDbCircle
 10
0
 20
0
 40
1.999878
  0
ENDBLK
  5
22D
330
22B
100
AcDbEntity
  8
0
100
AcDbBlockEnd
  0
BLOCK
  5
22F
330
22E
100
AcDbEntity
  8
0
100
AcDbBlockBegin
  2
AI9-BLK161
 70
    0
 10
0
 20
0
  3
AI9-BLK161
  1

  0
CIRCLE
  5
364
100
AcDbEntity
  8
LAYER_1
  6
ByLayer
 62
    7
370
   -1
100
AcDbCircle
 10
0
 20
0
 40
0.850939
  0
ENDBLK
  5
230
330
22E
100
AcDbEntity
  8
0
100
AcDbBlockEnd
  0
BLOCK
  5
232
330
231
100
AcDbEntity
  8
0
100
AcDbBlockBegin
  2
AI9-BLK162
 70
    0
 10
0
 20
0
  3
AI9-BLK162
  1

  0
CIRCLE
  5
365
100
AcDbEntity
  8
LAYER_1
  6
ByLayer
 62
    7
370
   -1
100
AcDbCircle
 10
0
 20
0
 40
0.850939
  0
ENDBLK
  5
233
330
231
100
AcDbEntity
  8
0
100
AcDbBlockEnd
  0
BLOCK
  5
235
330
234
100
AcDbEntity
  8
0
100
AcDbBlockBegin
  2
AI9-BLK163
 70
    0
 10
0
 20
0
  3
AI9-BLK163
  1

  0
CIRCLE
  5
366
100
AcDbEntity
  8
LAYER_1
  6
ByLayer
 62
    7
370
   -1
100
AcDbCircle
 10
0.000172
 20
0
 40
1.474845
  0
ENDBLK
  5
236
330
234
100
AcDbEntity
  8
0
100
AcDbBlockEnd
  0
BLOCK
  5
238
330
237
100
AcDbEntity
  8
0
100
AcDbBlockBegin
  2
AI9-BLK164
 70
    0
 10
0
 20
0
  3
AI9-BLK164
  1

  0
CIRCLE
  5
367
100
AcDbEntity
  8
LAYER_1
  6
ByLayer
 62
    7
370
   -1
100
AcDbCircle
 10
0.000172
 20
0
 40
1.474845
  0
ENDBLK
  5
239
330
237
100
AcDbEntity
  8
0
100
AcDbBlockEnd
  0
BLOCK
  5
23B
330
23A
100
AcDbEntity
  8
0
100
AcDbBlockBegin
  2
AI9-BLK165
 70
    0
 10
0
 20
0
  3
AI9-BLK165
  1

  0
CIRCLE
  5
368
100
AcDbEntity
  8
LAYER_1
  6
ByLayer
 62
    7
370
   -1
100
AcDbCircle
 10
0
 20
0
 40
1.999878
  0
ENDBLK
  5
23C
330
23A
100
AcDbEntity
  8
0
100
AcDbBlockEnd
  0
BLOCK
  5
23E
330
23D
100
AcDbEntity
  8
0
100
AcDbBlockBegin
  2
AI9-BLK166
 70
    0
 10
0
 20
0
  3
AI9-BLK166
  1

  0
CIRCLE
  5
369
100
AcDbEntity
  8
LAYER_1
  6
ByLayer
 62
    7
370
   -1
100
AcDbCircle
 10
0
 20
0
 40
0.850939
  0
ENDBLK
  5
23F
330
23D
100
AcDbEntity
  8
0
100
AcDbBlockEnd
  0
BLOCK
  5
241
330
240
100
AcDbEntity
  8
0
100
AcDbBlockBegin
  2
AI9-BLK167
 70
    0
 10
0
 20
0
  3
AI9-BLK167
  1

  0
CIRCLE
  5
36A
100
AcDbEntity
  8
LAYER_1
  6
ByLayer
 62
    7
370
   -1
100
AcDbCircle
 10
0
 20
0
 40
0.850939
  0
ENDBLK
  5
242
330
240
100
AcDbEntity
  8
0
100
AcDbBlockEnd
  0
BLOCK
  5
244
330
243
100
AcDbEntity
  8
0
100
AcDbBlockBegin
  2
AI9-BLK168
 70
    0
 10
0
 20
0
  3
AI9-BLK168
  1

  0
CIRCLE
  5
36B
100
AcDbEntity
  8
LAYER_1
  6
ByLayer
 62
    7
370
   -1
100
AcDbCircle
 10
0.000172
 20
0
 40
1.474845
  0
ENDBLK
  5
245
330
243
100
AcDbEntity
  8
0
100
AcDbBlockEnd
  0
BLOCK
  5
247
330
246
100
AcDbEntity
  8
0
100
AcDbBlockBegin
  2
AI9-BLK169
 70
    0
 10
0
 20
0
  3
AI9-BLK169
  1

  0
CIRCLE
  5
36C
100
AcDbEntity
  8
LAYER_1
  6
ByLayer
 62
    7
370
   -1
100
AcDbCircle
 10
0.000172
 20
0
 40
1.474845
  0
ENDBLK
  5
248
330
246
100
AcDbEntity
  8
0
100
AcDbBlockEnd
  0
BLOCK
  5
24A
330
249
100
AcDbEntity
  8
0
100
AcDbBlockBegin
  2
AI9-BLK170
 70
    0
 10
0
 20
0
  3
AI9-BLK170
  1

  0
CIRCLE
  5
36D
100
AcDbEntity
  8
LAYER_1
  6
ByLayer
 62
    7
370
   -1
100
AcDbCircle
 10
0
 20
0
 40
1.999878
  0
ENDBLK
  5
24B
330
249
100
AcDbEntity
  8
0
100
AcDbBlockEnd
  0
BLOCK
  5
24D
330
24C
100
AcDbEntity
  8
0
100
AcDbBlockBegin
  2
AI9-BLK171
 70
    0
 10
0
 20
0
  3
AI9-BLK171
  1

  0
CIRCLE
  5
36E
100
AcDbEntity
  8
LAYER_1
  6
ByLayer
 62
    7
370
   -1
100
AcDbCircle
 10
0
 20
0
 40
0.850939
  0
ENDBLK
  5
24E
330
24C
100
AcDbEntity
  8
0
100
AcDbBlockEnd
  0
BLOCK
  5
250
330
24F
100
AcDbEntity
  8
0
100
AcDbBlockBegin
  2
AI9-BLK172
 70
    0
 10
0
 20
0
  3
AI9-BLK172
  1

  0
CIRCLE
  5
36F
100
AcDbEntity
  8
LAYER_1
  6
ByLayer
 62
    7
370
   -1
100
AcDbCircle
 10
0
 20
0
 40
0.850939
  0
ENDBLK
  5
251
330
24F
100
AcDbEntity
  8
0
100
AcDbBlockEnd
  0
BLOCK
  5
253
330
252
100
AcDbEntity
  8
0
100
AcDbBlockBegin
  2
AI9-BLK173
 70
    0
 10
0
 20
0
  3
AI9-BLK173
  1

  0
CIRCLE
  5
370
100
AcDbEntity
  8
LAYER_1
  6
ByLayer
 62
    7
370
   -1
100
AcDbCircle
 10
0.000172
 20
0
 40
1.474845
  0
ENDBLK
  5
254
330
252
100
AcDbEntity
  8
0
100
AcDbBlockEnd
  0
BLOCK
  5
256
330
255
100
AcDbEntity
  8
0
100
AcDbBlockBegin
  2
AI9-BLK174
 70
    0
 10
0
 20
0
  3
AI9-BLK174
  1

  0
CIRCLE
  5
371
100
AcDbEntity
  8
LAYER_1
  6
ByLayer
 62
    7
370
   -1
100
AcDbCircle
 10
0.000172
 20
0
 40
1.474845
  0
ENDBLK
  5
257
330
255
100
AcDbEntity
  8
0
100
AcDbBlockEnd
  0
BLOCK
  5
259
330
258
100
AcDbEntity
  8
0
100
AcDbBlockBegin
  2
AI9-BLK175
 70
    0
 10
0
 20
0
  3
AI9-BLK175
  1

  0
CIRCLE
  5
372
100
AcDbEntity
  8
LAYER_1
  6
ByLayer
 62
    7
370
   -1
100
AcDbCircle
 10
0
 20
0
 40
1.999878
  0
ENDBLK
  5
25A
330
258
100
AcDbEntity
  8
0
100
AcDbBlockEnd
  0
BLOCK
  5
25C
330
25B
100
AcDbEntity
  8
0
100
AcDbBlockBegin
  2
AI9-BLK176
 70
    0
 10
0
 20
0
  3
AI9-BLK176
  1

  0
CIRCLE
  5
373
100
AcDbEntity
  8
LAYER_1
  6
ByLayer
 62
    7
370
   -1
100
AcDbCircle
 10
0
 20
0
 40
0.850939
  0
ENDBLK
  5
25D
330
25B
100
AcDbEntity
  8
0
100
AcDbBlockEnd
  0
BLOCK
  5
25F
330
25E
100
AcDbEntity
  8
0
100
AcDbBlockBegin
  2
AI9-BLK177
 70
    0
 10
0
 20
0
  3
AI9-BLK177
  1

  0
CIRCLE
  5
374
100
AcDbEntity
  8
LAYER_1
  6
ByLayer
 62
    7
370
   -1
100
AcDbCircle
 10
0
 20
0
 40
0.850939
  0
ENDBLK
  5
260
330
25E
100
AcDbEntity
  8
0
100
AcDbBlockEnd
  0
BLOCK
  5
262
330
261
100
AcDbEntity
  8
0
100
AcDbBlockBegin
  2
AI9-BLK178
 70
    0
 10
0
 20
0
  3
AI9-BLK178
  1

  0
CIRCLE
  5
375
100
AcDbEntity
  8
LAYER_1
  6
ByLayer
 62
    7
370
   -1
100
AcDbCircle
 10
0.000172
 20
0
 40
1.474845
  0
ENDBLK
  5
263
330
261
100
AcDbEntity
  8
0
100
AcDbBlockEnd
  0
BLOCK
  5
265
330
264
100
AcDbEntity
  8
0
100
AcDbBlockBegin
  2
AI9-BLK179
 70
    0
 10
0
 20
0
  3
AI9-BLK179
  1

  0
CIRCLE
  5
376
100
AcDbEntity
  8
LAYER_1
  6
ByLayer
 62
    7
370
   -1
100
AcDbCircle
 10
0.000172
 20
0
 40
1.474845
  0
ENDBLK
  5
266
330
264
100
AcDbEntity
  8
0
100
AcDbBlockEnd
  0
BLOCK
  5
268
330
267
100
AcDbEntity
  8
0
100
AcDbBlockBegin
  2
AI9-BLK180
 70
    0
 10
0
 20
0
  3
AI9-BLK180
  1

  0
CIRCLE
  5
377
100
AcDbEntity
  8
LAYER_1
  6
ByLayer
 62
    7
370
   -1
100
AcDbCircle
 10
0
 20
0
 40
1.999878
  0
ENDBLK
  5
269
330
267
100
AcDbEntity
  8
0
100
AcDbBlockEnd
  0
BLOCK
  5
26B
330
26A
100
AcDbEntity
  8
0
100
AcDbBlockBegin
  2
AI9-BLK181
 70
    0
 10
0
 20
0
  3
AI9-BLK181
  1

  0
CIRCLE
  5
378
100
AcDbEntity
  8
LAYER_1
  6
ByLayer
 62
    7
370
   -1
100
AcDbCircle
 10
0
 20
0
 40
0.850939
  0
ENDBLK
  5
26C
330
26A
100
AcDbEntity
  8
0
100
AcDbBlockEnd
  0
BLOCK
  5
26E
330
26D
100
AcDbEntity
  8
0
100
AcDbBlockBegin
  2
AI9-BLK182
 70
    0
 10
0
 20
0
  3
AI9-BLK182
  1

  0
CIRCLE
  5
379
100
AcDbEntity
  8
LAYER_1
  6
ByLayer
 62
    7
370
   -1
100
AcDbCircle
 10
0
 20
0
 40
0.850939
  0
ENDBLK
  5
26F
330
26D
100
AcDbEntity
  8
0
100
AcDbBlockEnd
  0
BLOCK
  5
271
330
270
100
AcDbEntity
  8
0
100
AcDbBlockBegin
  2
AI9-BLK183
 70
    0
 10
0
 20
0
  3
AI9-BLK183
  1

  0
CIRCLE
  5
37A
100
AcDbEntity
  8
LAYER_1
  6
ByLayer
 62
    7
370
   -1
100
AcDbCircle
 10
0.000172
 20
0
 40
1.474845
  0
ENDBLK
  5
272
330
270
100
AcDbEntity
  8
0
100
AcDbBlockEnd
  0
BLOCK
  5
274
330
273
100
AcDbEntity
  8
0
100
AcDbBlockBegin
  2
AI9-BLK184
 70
    0
 10
0
 20
0
  3
AI9-BLK184
  1

  0
CIRCLE
  5
37B
100
AcDbEntity
  8
LAYER_1
  6
ByLayer
 62
    7
370
   -1
100
AcDbCircle
 10
0.000172
 20
0
 40
1.474845
  0
ENDBLK
  5
275
330
273
100
AcDbEntity
  8
0
100
AcDbBlockEnd
  0
BLOCK
  5
277
330
276
100
AcDbEntity
  8
0
100
AcDbBlockBegin
  2
AI9-BLK185
 70
    0
 10
0
 20
0
  3
AI9-BLK185
  1

  0
CIRCLE
  5
37C
100
AcDbEntity
  8
LAYER_1
  6
ByLayer
 62
    7
370
   -1
100
AcDbCircle
 10
0
 20
0
 40
1.999878
  0
ENDBLK
  5
278
330
276
100
AcDbEntity
  8
0
100
AcDbBlockEnd
  0
BLOCK
  5
27A
330
279
100
AcDbEntity
  8
0
100
AcDbBlockBegin
  2
AI9-BLK186
 70
    0
 10
0
 20
0
  3
AI9-BLK186
  1

  0
CIRCLE
  5
37D
100
AcDbEntity
  8
LAYER_1
  6
ByLayer
 62
    7
370
   -1
100
AcDbCircle
 10
0
 20
0
 40
0.850939
  0
ENDBLK
  5
27B
330
279
100
AcDbEntity
  8
0
100
AcDbBlockEnd
  0
BLOCK
  5
27D
330
27C
100
AcDbEntity
  8
0
100
AcDbBlockBegin
  2
AI9-BLK187
 70
    0
 10
0
 20
0
  3
AI9-BLK187
  1

  0
CIRCLE
  5
37E
100
AcDbEntity
  8
LAYER_1
  6
ByLayer
 62
    7
370
   -1
100
AcDbCircle
 10
0
 20
0
 40
0.850939
  0
ENDBLK
  5
27E
330
27C
100
AcDbEntity
  8
0
100
AcDbBlockEnd
  0
BLOCK
  5
280
330
27F
100
AcDbEntity
  8
0
100
AcDbBlockBegin
  2
AI9-BLK188
 70
    0
 10
0
 20
0
  3
AI9-BLK188
  1

  0
CIRCLE
  5
37F
100
AcDbEntity
  8
LAYER_1
  6
ByLayer
 62
    7
370
   -1
100
AcDbCircle
 10
0.000172
 20
0
 40
1.474845
  0
ENDBLK
  5
281
330
27F
100
AcDbEntity
  8
0
100
AcDbBlockEnd
  0
BLOCK
  5
283
330
282
100
AcDbEntity
  8
0
100
AcDbBlockBegin
  2
AI9-BLK189
 70
    0
 10
0
 20
0
  3
AI9-BLK189
  1

  0
CIRCLE
  5
380
100
AcDbEntity
  8
LAYER_1
  6
ByLayer
 62
    7
370
   -1
100
AcDbCircle
 10
0.000172
 20
0
 40
1.474845
  0
ENDBLK
  5
284
330
282
100
AcDbEntity
  8
0
100
AcDbBlockEnd
  0
BLOCK
  5
286
330
285
100
AcDbEntity
  8
0
100
AcDbBlockBegin
  2
AI9-BLK190
 70
    0
 10
0
 20
0
  3
AI9-BLK190
  1

  0
CIRCLE
  5
381
100
AcDbEntity
  8
LAYER_1
  6
ByLayer
 62
    7
370
   -1
100
AcDbCircle
 10
0
 20
0
 40
1.999878
  0
ENDBLK
  5
287
330
285
100
AcDbEntity
  8
0
100
AcDbBlockEnd
  0
BLOCK
  5
289
330
288
100
AcDbEntity
  8
0
100
AcDbBlockBegin
  2
AI9-BLK191
 70
    0
 10
0
 20
0
  3
AI9-BLK191
  1

  0
CIRCLE
  5
382
100
AcDbEntity
  8
LAYER_1
  6
ByLayer
 62
    7
370
   -1
100
AcDbCircle
 10
0
 20
0
 40
0.850939
  0
ENDBLK
  5
28A
330
288
100
AcDbEntity
  8
0
100
AcDbBlockEnd
  0
BLOCK
  5
28C
330
28B
100
AcDbEntity
  8
0
100
AcDbBlockBegin
  2
AI9-BLK192
 70
    0
 10
0
 20
0
  3
AI9-BLK192
  1

  0
CIRCLE
  5
383
100
AcDbEntity
  8
LAYER_1
  6
ByLayer
 62
    7
370
   -1
100
AcDbCircle
 10
0
 20
0
 40
0.850939
  0
ENDBLK
  5
28D
330
28B
100
AcDbEntity
  8
0
100
AcDbBlockEnd
  0
BLOCK
  5
28F
330
28E
100
AcDbEntity
  8
0
100
AcDbBlockBegin
  2
AI9-BLK193
 70
    0
 10
0
 20
0
  3
AI9-BLK193
  1

  0
CIRCLE
  5
384
100
AcDbEntity
  8
LAYER_1
  6
ByLayer
 62
    7
370
   -1
100
AcDbCircle
 10
0.000172
 20
0
 40
1.474845
  0
ENDBLK
  5
290
330
28E
100
AcDbEntity
  8
0
100
AcDbBlockEnd
  0
BLOCK
  5
292
330
291
100
AcDbEntity
  8
0
100
AcDbBlockBegin
  2
AI9-BLK194
 70
    0
 10
0
 20
0
  3
AI9-BLK194
  1

  0
CIRCLE
  5
385
100
AcDbEntity
  8
LAYER_1
  6
ByLayer
 62
    7
370
   -1
100
AcDbCircle
 10
0.000172
 20
0
 40
1.474845
  0
ENDBLK
  5
293
330
291
100
AcDbEntity
  8
0
100
AcDbBlockEnd
  0
BLOCK
  5
295
330
294
100
AcDbEntity
  8
0
100
AcDbBlockBegin
  2
AI9-BLK195
 70
    0
 10
0
 20
0
  3
AI9-BLK195
  1

  0
CIRCLE
  5
386
100
AcDbEntity
  8
LAYER_1
  6
ByLayer
 62
    7
370
   -1
100
AcDbCircle
 10
0
 20
0
 40
1.999878
  0
ENDBLK
  5
296
330
294
100
AcDbEntity
  8
0
100
AcDbBlockEnd
  0
BLOCK
  5
298
330
297
100
AcDbEntity
  8
0
100
AcDbBlockBegin
  2
AI9-BLK196
 70
    0
 10
0
 20
0
  3
AI9-BLK196
  1

  0
CIRCLE
  5
387
100
AcDbEntity
  8
LAYER_1
  6
ByLayer
 62
    7
370
   -1
100
AcDbCircle
 10
0
 20
0
 40
0.850939
  0
ENDBLK
  5
299
330
297
100
AcDbEntity
  8
0
100
AcDbBlockEnd
  0
BLOCK
  5
29B
330
29A
100
AcDbEntity
  8
0
100
AcDbBlockBegin
  2
AI9-BLK197
 70
    0
 10
0
 20
0
  3
AI9-BLK197
  1

  0
CIRCLE
  5
388
100
AcDbEntity
  8
LAYER_1
  6
ByLayer
 62
    7
370
   -1
100
AcDbCircle
 10
0
 20
0
 40
0.850939
  0
ENDBLK
  5
29C
330
29A
100
AcDbEntity
  8
0
100
AcDbBlockEnd
  0
BLOCK
  5
29E
330
29D
100
AcDbEntity
  8
0
100
AcDbBlockBegin
  2
AI9-BLK198
 70
    0
 10
0
 20
0
  3
AI9-BLK198
  1

  0
CIRCLE
  5
389
100
AcDbEntity
  8
LAYER_1
  6
ByLayer
 62
    7
370
   -1
100
AcDbCircle
 10
-0.000172
 20
0
 40
1.474845
  0
ENDBLK
  5
29F
330
29D
100
AcDbEntity
  8
0
100
AcDbBlockEnd
  0
BLOCK
  5
2A1
330
2A0
100
AcDbEntity
  8
0
100
AcDbBlockBegin
  2
AI9-BLK199
 70
    0
 10
0
 20
0
  3
AI9-BLK199
  1

  0
CIRCLE
  5
38A
100
AcDbEntity
  8
LAYER_1
  6
ByLayer
 62
    7
370
   -1
100
AcDbCircle
 10
0.000172
 20
0
 40
1.474845
  0
ENDBLK
  5
2A2
330
2A0
100
AcDbEntity
  8
0
100
AcDbBlockEnd
  0
BLOCK
  5
2A4
330
2A3
100
AcDbEntity
  8
0
100
AcDbBlockBegin
  2
AI9-BLK200
 70
    0
 10
0
 20
0
  3
AI9-BLK200
  1

  0
CIRCLE
  5
38B
100
AcDbEntity
  8
LAYER_1
  6
ByLayer
 62
    7
370
   -1
100
AcDbCircle
 10
0
 20
0
 40
1.999878
  0
ENDBLK
  5
2A5
330
2A3
100
AcDbEntity
  8
0
100
AcDbBlockEnd
  0
BLOCK
  5
2A7
330
2A6
100
AcDbEntity
  8
0
100
AcDbBlockBegin
  2
AI9-BLK201
 70
    0
 10
0
 20
0
  3
AI9-BLK201
  1

  0
CIRCLE
  5
38C
100
AcDbEntity
  8
LAYER_1
  6
ByLayer
 62
    7
370
   -1
100
AcDbCircle
 10
0
 20
0
 40
1.999878
  0
ENDBLK
  5
2A8
330
2A6
100
AcDbEntity
  8
0
100
AcDbBlockEnd
  0
BLOCK
  5
2AA
330
2A9
100
AcDbEntity
  8
0
100
AcDbBlockBegin
  2
AI9-BLK202
 70
    0
 10
0
 20
0
  3
AI9-BLK202
  1

  0
CIRCLE
  5
38D
100
AcDbEntity
  8
LAYER_1
  6
ByLayer
 62
    7
370
   -1
100
AcDbCircle
 10
0.000172
 20
0
 40
1.475018
  0
ENDBLK
  5
2AB
330
2A9
100
AcDbEntity
  8
0
100
AcDbBlockEnd
  0
BLOCK
  5
2AD
330
2AC
100
AcDbEntity
  8
0
100
AcDbBlockBegin
  2
AI9-BLK203
 70
    0
 10
0
 20
0
  3
AI9-BLK203
  1

  0
CIRCLE
  5
38E
100
AcDbEntity
  8
LAYER_1
  6
ByLayer
 62
    7
370
   -1
100
AcDbCircle
 10
-0.000172
 20
0
 40
1.474845
  0
ENDBLK
  5
2AE
330
2AC
100
AcDbEntity
  8
0
100
AcDbBlockEnd
  0
BLOCK
  5
2B0
330
2AF
100
AcDbEntity
  8
0
100
AcDbBlockBegin
  2
AI9-BLK204
 70
    0
 10
0
 20
0
  3
AI9-BLK204
  1

  0
CIRCLE
  5
38F
100
AcDbEntity
  8
LAYER_1
  6
ByLayer
 62
    7
370
   -1
100
AcDbCircle
 10
0
 20
0
 40
0.850939
  0
ENDBLK
  5
2B1
330
2AF
100
AcDbEntity
  8
0
100
AcDbBlockEnd
  0
BLOCK
  5
2B3
330
2B2
100
AcDbEntity
  8
0
100
AcDbBlockBegin
  2
AI9-BLK205
 70
    0
 10
0
 20
0
  3
AI9-BLK205
  1

  0
CIRCLE
  5
390
100
AcDbEntity
  8
LAYER_1
  6
ByLayer
 62
    7
370
   -1
100
AcDbCircle
 10
0
 20
0
 40
0.850939
  0
ENDBLK
  5
2B4
330
2B2
100
AcDbEntity
  8
0
100
AcDbBlockEnd
  0
BLOCK
  5
2B6
330
2B5
100
AcDbEntity
  8
0
100
AcDbBlockBegin
  2
AI9-BLK206
 70
    0
 10
0
 20
0
  3
AI9-BLK206
  1

  0
CIRCLE
  5
391
100
AcDbEntity
  8
LAYER_1
  6
ByLayer
 62
    7
370
   -1
100
AcDbCircle
 10
0
 20
0
 40
1.999878
  0
ENDBLK
  5
2B7
330
2B5
100
AcDbEntity
  8
0
100
AcDbBlockEnd
  0
BLOCK
  5
2B9
330
2B8
100
AcDbEntity
  8
0
100
AcDbBlockBegin
  2
AI9-BLK207
 70
    0
 10
0
 20
0
  3
AI9-BLK207
  1

  0
CIRCLE
  5
392
100
AcDbEntity
  8
LAYER_1
  6
ByLayer
 62
    7
370
   -1
100
AcDbCircle
 10
0.000172
 20
0
 40
1.475018
  0
ENDBLK
  5
2BA
330
2B8
100
AcDbEntity
  8
0
100
AcDbBlockEnd
  0
BLOCK
  5
2BC
330
2BB
100
AcDbEntity
  8
0
100
AcDbBlockBegin
  2
AI9-BLK208
 70
    0
 10
0
 20
0
  3
AI9-BLK208
  1

  0
CIRCLE
  5
393
100
AcDbEntity
  8
LAYER_1
  6
ByLayer
 62
    7
370
   -1
100
AcDbCircle
 10
-0.000172
 20
0
 40
1.474845
  0
ENDBLK
  5
2BD
330
2BB
100
AcDbEntity
  8
0
100
AcDbBlockEnd
  0
BLOCK
  5
2BF
330
2BE
100
AcDbEntity
  8
0
100
AcDbBlockBegin
  2
AI9-BLK209
 70
    0
 10
0
 20
0
  3
AI9-BLK209
  1

  0
CIRCLE
  5
394
100
AcDbEntity
  8
LAYER_1
  6
ByLayer
 62
    7
370
   -1
100
AcDbCircle
 10
0
 20
0
 40
0.850939
  0
ENDBLK
  5
2C0
330
2BE
100
AcDbEntity
  8
0
100
AcDbBlockEnd
  0
BLOCK
  5
2C2
330
2C1
100
AcDbEntity
  8
0
100
AcDbBlockBegin
  2
AI9-BLK210
 70
    0
 10
0
 20
0
  3
AI9-BLK210
  1

  0
CIRCLE
  5
395
100
AcDbEntity
  8
LAYER_1
  6
ByLayer
 62
    7
370
   -1
100
AcDbCircle
 10
0
 20
0
 40
0.850939
  0
ENDBLK
  5
2C3
330
2C1
100
AcDbEntity
  8
0
100
AcDbBlockEnd
  0
ENDSEC
  0
SECTION
  2
ENTITIES
  0
CIRCLE
  5
396
100
AcDbEntity
  8
LAYER_1
  6
ByLayer
 62
    7
370
   -1
100
AcDbCircle
 10
230.422456
 20
305.61132
 40
1.100019
  0
CIRCLE
  5
397
100
AcDbEntity
  8
LAYER_1
  6
ByLayer
 62
    7
370
   -1
100
AcDbCircle
 10
230.422456
 20
267.51132
 40
1.100019
  0
CIRCLE
  5
398
100
AcDbEntity
  8
LAYER_1
  6
ByLayer
 62
    7
370
   -1
100
AcDbCircle
 10
382.822456
 20
305.61132
 40
1.100019
  0
CIRCLE
  5
399
100
AcDbEntity
  8
LAYER_1
  6
ByLayer
 62
    7
370
   -1
100
AcDbCircle
 10
382.822456
 20
267.51132
 40
1.100019
  0
CIRCLE
  5
39A
100
AcDbEntity
  8
LAYER_1
  6
ByLayer
 62
    7
370
   -1
100
AcDbCircle
 10
423.843552
 20
267.51132
 40
1.100019
  0
LINE
  5
39B
100
AcDbEntity
  8
LAYER_1
  6
ByLayer
 62
    7
370
   -1
100
AcDbLine
 10
426.047724
 20
322.62768
 11
426.047724
 21
250.627252
  0
LINE
  5
39C
100
AcDbEntity
  8
LAYER_1
  6
ByLayer
 62
    7
370
   -1
100
AcDbLine
 10
213.316523
 20
248.486469
 11
424.047846
 21
248.486469
  0
LINE
  5
39D
100
AcDbEntity
  8
LAYER_1
  6
ByLayer
 62
    7
370
   -1
100
AcDbLine
 10
213.316867
 20
324.627558
 11
424.047846
 21
324.627558
  0
LINE
  5
39E
100
AcDbEntity
  8
LAYER_1
  6
ByLayer
 62
    7
370
   -1
100
AcDbLine
 10
211.297352
 20
322.686247
 11
211.297352
 21
250.486347
  0
SPLINE
  5
39F
100
AcDbEntity
  8
LAYER_1
  6
ByLayer
 62
    7
370
   -1
100
AcDbSpline
210
0
220
0
230
0
 70
    8
 71
    3
 72
   11
 73
    7
 74
    0
 42
1e-007
 43
1e-007
 40
0
 40
0
 40
0
 40
0
 40
1
 40
1
 40
1
 40
2
 40
2
 40
2
 40
2
 10
426.0477240668403
 20
250.4863471137153
 30
0
 10
426.0477240668403
 20
249.381849500868
 30
0
 10
425.1523437499999
 20
248.4864691840278
 30
0
 10
424.0478461371528
 20
248.4864691840278
 30
0
 10
424.0478461371528
 20
248.4864691840278
 30
0
 10
424.0478461371528
 20
248.4864691840278
 30
0
 10
424.0478461371528
 20
248.4864691840278
 30
0
  0
SPLINE
  5
3A0
100
AcDbEntity
  8
LAYER_1
  6
ByLayer
 62
    7
370
   -1
100
AcDbSpline
210
0
220
0
230
0
 70
    8
 71
    3
 72
   11
 73
    7
 74
    0
 42
1e-007
 43
1e-007
 40
0
 40
0
 40
0
 40
0
 40
1
 40
1
 40
1
 40
2
 40
2
 40
2
 40
2
 10
424.0478461371528
 20
324.6113661024305
 30
0
 10
425.1523437499999
 20
324.6113661024305
 30
0
 10
426.0477240668403
 20
323.7159857855902
 30
0
 10
426.0477240668403
 20
322.611488172743
 30
0
 10
426.0477240668403
 20
322.611488172743
 30
0
 10
426.0477240668403
 20
322.611488172743
 30
0
 10
426.0477240668403
 20
322.611488172743
 30
0
  0
SPLINE
  5
3A1
100
AcDbEntity
  8
LAYER_1
  6
ByLayer
 62
    7
370
   -1
100
AcDbSpline
210
0
220
0
230
0
 70
    8
 71
    3
 72
   11
 73
    7
 74
    0
 42
1e-007
 43
1e-007
 40
0
 40
0
 40
0
 40
0
 40
1
 40
1
 40
1
 40
2
 40
2
 40
2
 40
2
 10
213.2958523220486
 20
248.4864691840278
 30
0
 10
212.1913547092014
 20
248.4864691840278
 30
0
 10
211.2959743923611
 20
249.381849500868
 30
0
 10
211.2959743923611
 20
250.4863471137153
 30
0
 10
211.2959743923611
 20
250.4863471137153
 30
0
 10
211.2959743923611
 20
250.4863471137153
 30
0
 10
211.2959743923611
 20
250.4863471137153
 30
0
  0
SPLINE
  5
3A2
100
AcDbEntity
  8
LAYER_1
  6
ByLayer
 62
    7
370
   -1
100
AcDbSpline
210
0
220
0
230
0
 70
    8
 71
    3
 72
   11
 73
    7
 74
    0
 42
1e-007
 43
1e-007
 40
0
 40
0
 40
0
 40
0
 40
1
 40
1
 40
1
 40
2
 40
2
 40
2
 40
2
 10
211.2959743923611
 20
322.611488172743
 30
0
 10
211.2959743923611
 20
323.7159857855902
 30
0
 10
212.1913547092014
 20
324.6113661024305
 30
0
 10
213.2958523220486
 20
324.6113661024305
 30
0
 10
213.2958523220486
 20
324.6113661024305
 30
0
 10
213.2958523220486
 20
324.6113661024305
 30
0
 10
213.2958523220486
 20
324.6113661024305
 30
0
  0
ENDSEC
  0
SECTION
  2
OBJECTS
  0
DICTIONARY
  5
C
330
0
100
AcDbDictionary
281
    1
  3
ACAD_GROUP
350
D
  0
DICTIONARY
  5
D
330
C
100
AcDbDictionary
281
    1
  0
ENDSEC
  0
EOF
