0
SECTION
2
HEADER
9
$INSUNITS
70
4
9
$ACADVER
1
AC1014
9
$HANDSEED
5
FFFF
0
ENDSEC
0
SECTION
2
TABLES
0
TABLE
2
VPORT
5
8
100
AcDbSymbolTable
0
ENDTAB
0
TABLE
2
LTYPE
5
5
100
AcDbSymbolTable
0
LTYPE
5
14
100
AcDbSymbolTableRecord
100
AcDbLinetypeTableRecord
2
BYBLOCK
70
0
0
LTYPE
5
15
100
AcDbSymbolTableRecord
100
AcDbLinetypeTableRecord
2
BYLAYER
70
0
0
ENDTAB
0
TABLE
2
LAYER
5
2
100
AcDbSymbolTable
70
2
0
LAYER
5
50
100
AcDbSymbolTableRecord
100
AcDbLayerTableRecord
2
0
70
0
6
CONTINUOUS
0
ENDTAB
0
TABLE
2
STYLE
5
3
100
AcDbSymbolTable
70
1
0
STYLE
5
11
100
AcDbSymbolTableRecord
100
AcDbTextStyleTableRecord
2
STANDARD
70
0
0
ENDTAB
0
TABLE
2
VIEW
5
6
100
AcDbSymbolTable
70
0
0
ENDTAB
0
TABLE
2
UCS
5
7
100
AcDbSymbolTable
70
0
0
ENDTAB
0
TABLE
2
APPID
5
9
100
AcDbSymbolTable
70
2
0
APPID
5
12
100
AcDbSymbolTableRecord
100
AcDbRegAppTableRecord
2
ACAD
70
0
0
ENDTAB
0
TABLE
2
DIMSTYLE
5
A
100
AcDbSymbolTable
70
1
0
ENDTAB
0
TABLE
2
BLOCK_RECORD
5
1
100
AcDbSymbolTable
70
1
0
BLOCK_RECORD
5
1F
100
AcDbSymbolTableRecord
100
AcDbBlockTableRecord
2
*MODEL_SPACE
0
BLOCK_RECORD
5
1B
100
AcDbSymbolTableRecord
100
AcDbBlockTableRecord
2
*PAPER_SPACE
0
ENDTAB
0
ENDSEC
0
SECTION
2
BLOCKS
0
BLOCK
5
20
100
AcDbEntity
100
AcDbBlockBegin
2
*MODEL_SPACE
0
ENDBLK
5
21
100
AcDbEntity
100
AcDbBlockEnd
0
BLOCK
5
1C
100
AcDbEntity
100
AcDbBlockBegin
2
*PAPER_SPACE
0
ENDBLK
5
1D
100
AcDbEntity
100
AcDbBlockEnd
0
ENDSEC
0
SECTION
2
ENTITIES
0
LWPOLYLINE
5
100
100
AcDbEntity
8
0
100
AcDbPolyline
90
24
70
1
43
0.0
10
66.833166513649786
20
2.6341864407001623
10
67.477808390202313
20
2.6342153416104894
42
0.42208460390253388
10
68.477403298715487
20
3.6610553886012909
42
-0.027425113429624049
10
69.706183093839186
20
47.545226564174293
42
0.46360947823238813
10
66.468265368248623
20
50.783146514583805
42
-0.041438195856303858
10
0.19787636403542752
20
50.783146514583692
42
0.46360947823236803
10
-3.0400413615560118
20
47.545226564174342
42
-0.041438540003069894
10
-3.0400413615557964
20
-18.724550922822786
42
0.46360947823238091
10
0.19787636403506781
20
-21.962470873232562
42
-0.041438195856300521
10
66.468265368248339
20
-21.962470873232437
42
0.46360947823239962
10
69.706183093839428
20
-18.724550922824214
42
-0.0040222841743678996
10
69.22475384984466
20
-12.299060188319102
42
0.3948028796377529
10
68.226963515255534
20
-11.365751293563974
10
66.833105016532656
20
-11.365774521674926
42
0.41420868142969175
10
65.833121681144576
20
-12.365774521536057
10
65.833121681144561
20
-14.089408193717425
42
-0.4142135623731022
10
64.833121681144576
20
-15.08940819371742
10
27.125821297704498
20
-15.089408193717421
42
-0.4142135623730937
10
26.125821297704491
20
-14.089408193717414
10
26.125821297704498
20
4.1278767554221405
42
-0.41421356237308948
10
27.125821297704491
20
5.1278767554221396
10
64.833121681144576
20
5.1278767554221414
42
-0.41421356237309664
10
65.833121681144576
20
4.1278767554221396
10
65.833121681144576
20
3.6341864396951862
42
0.41422669357082365
0
LWPOLYLINE
5
101
100
AcDbEntity
8
0
100
AcDbPolyline
90
8
70
1
43
0.0
10
17.00000025331974
20
37.500000543892384
42
0.41421356237309176
10
18.000000253319737
20
36.500000543892384
10
23.800000253319741
20
36.500000543892384
42
0.41421356237308204
10
24.800000253319734
20
37.500000543892384
10
24.800000253319745
20
42.910083835068789
42
0.41421356237309243
10
23.800000253319741
20
43.910083835068789
10
18.000000253319737
20
43.910083835068797
42
0.41421356237309503
10
17.00000025331974
20
42.910083835068804
0
CIRCLE
5
102
100
AcDbEntity
8
0
100
AcDbCircle
10
65.786362549311036
20
-18.04265078869652
30
0
40
1.6999999999999993
210
0
220
0
230
1
0
CIRCLE
5
103
100
AcDbEntity
8
0
100
AcDbCircle
10
23.48539145062789
20
5.0701698404364945
30
0
40
1.1000000000000001
210
0
220
0
230
1
0
CIRCLE
5
104
100
AcDbEntity
8
0
100
AcDbCircle
10
0.87977918297262481
20
-18.042650788696449
30
0
40
1.7000000000000002
210
0
220
0
230
1
0
CIRCLE
5
105
100
AcDbEntity
8
0
100
AcDbCircle
10
42.563562738751905
20
24.1629112029913
30
0
40
1.1000000000000001
210
0
220
0
230
1
0
CIRCLE
5
106
100
AcDbEntity
8
0
100
AcDbCircle
10
23.566597600093079
20
24.151682858536038
30
0
40
1.1000000000000001
210
0
220
0
230
1
0
CIRCLE
5
107
100
AcDbEntity
8
0
100
AcDbCircle
10
0.87977918297255264
20
46.863326430047891
30
0
40
1.6999999999999993
210
0
220
0
230
1
0
CIRCLE
5
108
100
AcDbEntity
8
0
100
AcDbCircle
10
65.786362549310923
20
46.863326430047891
30
0
40
1.6999999999999953
210
0
220
0
230
1
0
ENDSEC
0
SECTION
2
OBJECTS
0
DICTIONARY
5
C
100
AcDbDictionary
3
ACAD_GROUP
350
D
3
ACAD_MLINESTYLE
350
17
0
DICTIONARY
5
D
100
AcDbDictionary
0
DICTIONARY
5
1A
330
C
100
AcDbDictionary
0
DICTIONARY
5
17
100
AcDbDictionary
0
ENDSEC
0
EOF
