0
SECTION
2
HEADER
9
$INSUNITS
70
4
9
$ACADVER
1
AC1014
9
$HANDSEED
5
FFFF
0
ENDSEC
0
SECTION
2
TABLES
0
TABLE
2
VPORT
5
8
100
AcDbSymbolTable
0
ENDTAB
0
TABLE
2
LTYPE
5
5
100
AcDbSymbolTable
0
LTYPE
5
14
100
AcDbSymbolTableRecord
100
AcDbLinetypeTableRecord
2
BYBLOCK
70
0
0
LTYPE
5
15
100
AcDbSymbolTableRecord
100
AcDbLinetypeTableRecord
2
BYLAYER
70
0
0
ENDTAB
0
TABLE
2
LAYER
5
2
100
AcDbSymbolTable
70
2
0
LAYER
5
50
100
AcDbSymbolTableRecord
100
AcDbLayerTableRecord
2
0
70
0
6
CONTINUOUS
0
ENDTAB
0
TABLE
2
STYLE
5
3
100
AcDbSymbolTable
70
1
0
STYLE
5
11
100
AcDbSymbolTableRecord
100
AcDbTextStyleTableRecord
2
STANDARD
70
0
0
ENDTAB
0
TABLE
2
VIEW
5
6
100
AcDbSymbolTable
70
0
0
ENDTAB
0
TABLE
2
UCS
5
7
100
AcDbSymbolTable
70
0
0
ENDTAB
0
TABLE
2
APPID
5
9
100
AcDbSymbolTable
70
2
0
APPID
5
12
100
AcDbSymbolTableRecord
100
AcDbRegAppTableRecord
2
ACAD
70
0
0
ENDTAB
0
TABLE
2
DIMSTYLE
5
A
100
AcDbSymbolTable
70
1
0
ENDTAB
0
TABLE
2
BLOCK_RECORD
5
1
100
AcDbSymbolTable
70
1
0
BLOCK_RECORD
5
1F
100
AcDbSymbolTableRecord
100
AcDbBlockTableRecord
2
*MODEL_SPACE
0
BLOCK_RECORD
5
1B
100
AcDbSymbolTableRecord
100
AcDbBlockTableRecord
2
*PAPER_SPACE
0
ENDTAB
0
ENDSEC
0
SECTION
2
BLOCKS
0
BLOCK
5
20
100
AcDbEntity
100
AcDbBlockBegin
2
*MODEL_SPACE
0
ENDBLK
5
21
100
AcDbEntity
100
AcDbBlockEnd
0
BLOCK
5
1C
100
AcDbEntity
100
AcDbBlockBegin
2
*PAPER_SPACE
0
ENDBLK
5
1D
100
AcDbEntity
100
AcDbBlockEnd
0
ENDSEC
0
SECTION
2
ENTITIES
0
LWPOLYLINE
5
100
100
AcDbEntity
8
0
100
AcDbPolyline
90
8
70
1
43
0.0
10
219.08325065087641
20
7.8785724406313351
10
219.08325065087641
20
-64.675133350266762
42
-0.41421356237309503
10
217.08325065087647
20
-66.675133350266719
10
-7.8785724406313173
20
-66.675133350266719
42
-0.41421356237309503
10
-9.8785724406313271
20
-64.675133350266719
10
-9.8785724406313271
20
7.8785724406313307
42
-0.41421356237309503
10
-7.8785724406313307
20
9.8785724406313271
10
217.08325065087644
20
9.8785724406313271
42
-0.41421356237309503
0
LWPOLYLINE
5
101
100
AcDbEntity
8
0
100
AcDbPolyline
90
8
70
1
43
0.0
10
25.727076439251732
20
11.524804327647455
10
25.727076439251732
20
9.5249682499364763
10
25.727076439251732
20
-43.815062230124454
10
25.727076439251732
20
-44.815011444924046
10
26.727076454152893
20
-44.815011444924046
10
50.727076469054055
20
-44.815011444924046
10
50.727076469054055
20
9.5249682499364763
10
50.727076469054055
20
11.524804327647455
0
CIRCLE
5
102
100
AcDbEntity
8
0
100
AcDbCircle
10
200.02501905003811
20
-9.5249682499364763
30
0
40
1.3
210
0
220
0
230
1
0
LWPOLYLINE
5
103
100
AcDbEntity
8
0
100
AcDbPolyline
90
4
70
1
43
0.0
10
45.227076454152886
20
18.607662668958579
10
31.22707645415289
20
18.607662668958579
10
31.22707645415289
20
6.6076626689585787
10
45.227076454152886
20
6.6076626689585787
0
CIRCLE
5
104
100
AcDbEntity
8
0
100
AcDbCircle
10
9.5250190500380558
20
-47.625019050038084
30
0
40
1.3
210
0
220
0
230
1
0
CIRCLE
5
105
100
AcDbEntity
8
0
100
AcDbCircle
10
9.5250190500380558
20
-9.5250190500380558
30
0
40
1.3
210
0
220
0
230
1
0
CIRCLE
5
106
100
AcDbEntity
8
0
100
AcDbCircle
10
200.02499364998741
20
-47.625019050038084
30
0
40
1.3
210
0
220
0
230
1
0
CIRCLE
5
107
100
AcDbEntity
8
0
100
AcDbCircle
10
104.7750317500636
20
-28.5750063500127
30
0
40
1.3
210
0
220
0
230
1
0
LWPOLYLINE
5
108
100
AcDbEntity
8
0
100
AcDbPolyline
90
8
70
1
43
0.0
10
218.58325065087641
20
-67.175133350266691
10
-9.3785724406313093
20
-67.175133350266691
42
-0.41421356237309503
10
-10.378572440631327
20
-66.175133350266691
10
-10.378572440631327
20
9.3785724406313271
42
-0.41421356237309503
10
-9.3785724406313271
20
10.378572440631327
10
218.58325065087641
20
10.378572440631327
42
-0.41421356237309503
10
219.58325065087644
20
9.3785724406313129
10
219.58325065087644
20
-66.175133350266691
42
-0.41421356237309503
0
LWPOLYLINE
5
109
100
AcDbEntity
8
0
100
AcDbPolyline
90
8
70
1
43
0.0
10
226.58325065087641
20
9.3785724406315154
10
226.58325065087641
20
-66.175133350266705
42
-0.41421356237309437
10
218.58325065087641
20
-74.175133350266705
10
-9.3785724406312969
20
-74.175133350266705
42
-0.41421356237309026
10
-17.378572440631327
20
-66.175133350266833
10
-17.378572440631327
20
9.3785724406313147
42
-0.41421356237309548
10
-9.3785724406313271
20
17.378572440631327
10
218.58325065087638
20
17.37857244063132
42
-0.41421356237308887
0
CIRCLE
5
110
100
AcDbEntity
8
0
100
AcDbCircle
10
-11.853446174784246
20
11.853446174784242
30
0
40
1.6999999999999993
210
0
220
0
230
1
0
LWPOLYLINE
5
111
100
AcDbEntity
8
0
100
AcDbPolyline
90
8
70
1
43
0.0
10
-9.3785724406313271
20
16.378572440631327
10
218.58325065087641
20
16.378572440631341
42
-0.41421356237309503
10
225.58325065087644
20
9.3785724406313129
10
225.58325065087644
20
-66.175133350266691
42
-0.41421356237309503
10
218.58325065087641
20
-73.175133350266691
10
-9.3785724406313147
20
-73.175133350266705
42
-0.41421356237309476
10
-16.378572440631327
20
-66.175133350266691
10
-16.378572440631327
20
9.3785724406313236
42
-0.41421356237309515
0
LWPOLYLINE
5
112
100
AcDbEntity
8
0
100
AcDbPolyline
90
8
70
1
43
0.0
10
224.58325065087644
20
9.3785724406313129
42
0.41421356237309503
10
218.58325065087641
20
15.378572440631327
10
-9.3785724406313271
20
15.378572440631327
42
0.41421356237309503
10
-15.378572440631327
20
9.3785724406313253
10
-15.378572440631327
20
-66.175133350266691
42
0.41421356237309503
10
-9.3785724406313165
20
-72.175133350266691
10
218.58325065087641
20
-72.175133350266691
42
0.41421356237309503
10
224.58325065087644
20
-66.175133350266691
0
CIRCLE
5
113
100
AcDbEntity
8
0
100
AcDbCircle
10
-11.853446174784246
20
11.853446174784242
30
0
40
1.2999999999999994
210
0
220
0
230
1
0
CIRCLE
5
114
100
AcDbEntity
8
0
100
AcDbCircle
10
57.150114300228594
20
12.878572440631324
30
0
40
1.6999999999999993
210
0
220
0
230
1
0
CIRCLE
5
115
100
AcDbEntity
8
0
100
AcDbCircle
10
152.40011430022864
20
12.878572440631322
30
0
40
1.6999999999999993
210
0
220
0
230
1
0
CIRCLE
5
116
100
AcDbEntity
8
0
100
AcDbCircle
10
221.05812438502926
20
11.853446174784283
30
0
40
1.6999999999999833
210
0
220
0
230
1
0
CIRCLE
5
117
100
AcDbEntity
8
0
100
AcDbCircle
10
221.05812438502926
20
11.853446174784283
30
0
40
1.299999999999994
210
0
220
0
230
1
0
CIRCLE
5
118
100
AcDbEntity
8
0
100
AcDbCircle
10
152.40011430022864
20
12.878572440631322
30
0
40
1.3
210
0
220
0
230
1
0
CIRCLE
5
119
100
AcDbEntity
8
0
100
AcDbCircle
10
57.150114300228594
20
12.878572440631324
30
0
40
1.3000000000000007
210
0
220
0
230
1
0
CIRCLE
5
120
100
AcDbEntity
8
0
100
AcDbCircle
10
-11.853446174784214
20
-68.650007084419627
30
0
40
1.6999999999999993
210
0
220
0
230
1
0
CIRCLE
5
121
100
AcDbEntity
8
0
100
AcDbCircle
10
-11.853446174784214
20
-68.650007084419627
30
0
40
1.3
210
0
220
0
230
1
0
CIRCLE
5
122
100
AcDbEntity
8
0
100
AcDbCircle
10
57.150114300228594
20
-69.675133350266691
30
0
40
1.6999999999999993
210
0
220
0
230
1
0
CIRCLE
5
123
100
AcDbEntity
8
0
100
AcDbCircle
10
57.150114300228594
20
-69.675133350266691
30
0
40
1.3000000000000009
210
0
220
0
230
1
0
CIRCLE
5
124
100
AcDbEntity
8
0
100
AcDbCircle
10
152.40011430022864
20
-69.675133350266691
30
0
40
1.6999999999999993
210
0
220
0
230
1
0
CIRCLE
5
125
100
AcDbEntity
8
0
100
AcDbCircle
10
152.40011430022864
20
-69.675133350266691
30
0
40
1.3000000000000016
210
0
220
0
230
1
0
CIRCLE
5
126
100
AcDbEntity
8
0
100
AcDbCircle
10
221.05812438502934
20
-68.650007084419613
30
0
40
1.7000000000000171
210
0
220
0
230
1
0
CIRCLE
5
127
100
AcDbEntity
8
0
100
AcDbCircle
10
221.05812438502934
20
-68.650007084419613
30
0
40
1.3
210
0
220
0
230
1
0
ENDSEC
0
SECTION
2
OBJECTS
0
DICTIONARY
5
C
100
AcDbDictionary
3
ACAD_GROUP
350
D
3
ACAD_MLINESTYLE
350
17
0
DICTIONARY
5
D
100
AcDbDictionary
0
DICTIONARY
5
1A
330
C
100
AcDbDictionary
0
DICTIONARY
5
17
100
AcDbDictionary
0
ENDSEC
0
EOF
