999
dxfrw 0.6.3
  0
SECTION
  2
HEADER
  9
$ACADVER
  1
AC1021
  9
$DWGCODEPAGE
  3
ANSI_936
  9
$INSBASE
 10
0
 20
0
 30
0
  9
$EXTMIN
 10
5.969773939547849
 20
5.07642875285751
 30
0
  9
$EXTMAX
 10
234.5702311404623
 20
83.69443738887495
 30
0
  9
$LIMMIN
 10
0
 20
0
  9
$LIMMAX
 10
420
 20
297
  9
$ORTHOMODE
 70
    0
  9
$REGENMODE
 70
    1
  9
$FILLMODE
 70
    1
  9
$QTEXTMODE
 70
    0
  9
$MIRRTEXT
 70
    0
  9
$LTSCALE
 40
1
  9
$ATTMODE
 70
    1
  9
$TEXTSIZE
 40
2.5
  9
$TRACEWID
 40
1
  9
$TEXTSTYLE
  7
Standard
  9
$CLAYER
  8
0
  9
$CELTYPE
  6
ByLayer
  9
$CECOLOR
 62
  256
  9
$CELTSCALE
 40
1
  9
$DISPSILH
 70
    0
  9
$DIMSCALE
 40
1
  9
$DIMASZ
 40
2.5
  9
$DIMEXO
 40
0.625
  9
$DIMDLI
 40
3.75
  9
$DIMRND
 40
0
  9
$DIMDLE
 40
0
  9
$DIMEXE
 40
1.25
  9
$DIMTP
 40
0
  9
$DIMTM
 40
0
  9
$DIMTXT
 40
2.5
  9
$DIMCEN
 40
2.5
  9
$DIMTSZ
 40
0
  9
$DIMTOL
 70
    0
  9
$DIMLIM
 70
    0
  9
$DIMTIH
 70
    0
  9
$DIMTOH
 70
    0
  9
$DIMSE1
 70
    0
  9
$DIMSE2
 70
    0
  9
$DIMTAD
 70
    1
  9
$DIMZIN
 70
    8
  9
$DIMBLK
  1

  9
$DIMASO
 70
    1
  9
$DIMSHO
 70
    1
  9
$DIMPOST
  1

  9
$DIMAPOST
  1

  9
$DIMALT
 70
    0
  9
$DIMALTD
 70
    3
  9
$DIMALTF
 40
0.03937007874016
  9
$DIMLFAC
 40
1
  9
$DIMTOFL
 70
    1
  9
$DIMTVP
 40
0
  9
$DIMTIX
 70
    0
  9
$DIMSOXD
 70
    0
  9
$DIMSAH
 70
    0
  9
$DIMBLK1
  1

  9
$DIMBLK2
  1

  9
$DIMSTYLE
  2
ISO-25
  9
$DIMCLRD
 70
    0
  9
$DIMCLRE
 70
    0
  9
$DIMCLRT
 70
    0
  9
$DIMTFAC
 40
1
  9
$DIMGAP
 40
0.625
  9
$DIMJUST
 70
    0
  9
$DIMSD1
 70
    0
  9
$DIMSD2
 70
    0
  9
$DIMTOLJ
 70
    0
  9
$DIMTZIN
 70
    8
  9
$DIMALTZ
 70
    0
  9
$DIMALTTZ
 70
    0
  9
$DIMUPT
 70
    0
  9
$DIMDEC
 70
    2
  9
$DIMTDEC
 70
    2
  9
$DIMALTU
 70
    2
  9
$DIMALTTD
 70
    3
  9
$DIMTXSTY
  7
Standard
  9
$DIMAUNIT
 70
    0
  9
$DIMADEC
 70
    0
  9
$DIMALTRND
 40
0
  9
$DIMAZIN
 70
    0
  9
$DIMDSEP
 70
   44
  9
$DIMATFIT
 70
    3
  9
$DIMFRAC
 70
    0
  9
$DIMLDRBLK
  1

  9
$DIMLUNIT
 70
    2
  9
$DIMLWD
 70
   -2
  9
$DIMLWE
 70
   -2
  9
$DIMTMOVE
 70
    0
  9
$DIMFXL
 40
1
  9
$DIMFXLON
 70
    0
  9
$DIMJOGANG
 40
0.7853981633974483
  9
$DIMTFILL
 70
    0
  9
$DIMTFILLCLR
 70
    0
  9
$DIMARCSYM
 70
    0
  9
$DIMLTYPE
  6

  9
$DIMLTEX1
  6

  9
$DIMLTEX2
  6

  9
$LUNITS
 70
    2
  9
$LUPREC
 70
    4
  9
$SKETCHINC
 40
1
  9
$FILLETRAD
 40
0
  9
$AUNITS
 70
    0
  9
$AUPREC
 70
    0
  9
$MENU
  1
.
  9
$ELEVATION
 40
0
  9
$PELEVATION
 40
0
  9
$THICKNESS
 40
0
  9
$LIMCHECK
 70
    0
  9
$CHAMFERA
 40
0
  9
$CHAMFERB
 40
0
  9
$CHAMFERC
 40
0
  9
$CHAMFERD
 40
0
  9
$SKPOLY
 70
    0
  9
$USRTIMER
 70
    1
  9
$ANGBASE
 50
0
  9
$ANGDIR
 70
    0
  9
$PDMODE
 70
    0
  9
$PDSIZE
 40
0
  9
$PLINEWID
 40
0
  9
$SPLFRAME
 70
    0
  9
$SPLINETYPE
 70
    6
  9
$SPLINESEGS
 70
    8
  9
$HANDSEED
  5
20000
  9
$SURFTAB1
 70
    6
  9
$SURFTAB2
 70
    6
  9
$SURFTYPE
 70
    6
  9
$SURFU
 70
    6
  9
$SURFV
 70
    6
  9
$UCSBASE
  2

  9
$UCSNAME
  2

  9
$UCSORG
 10
0
 20
0
 30
0
  9
$UCSXDIR
 10
1
 20
0
 30
0
  9
$UCSYDIR
 10
0
 20
1
 30
0
  9
$UCSORTHOREF
  2

  9
$UCSORTHOVIEW
 70
    0
  9
$UCSORGTOP
 10
0
 20
0
 30
0
  9
$UCSORGBOTTOM
 10
0
 20
0
 30
0
  9
$UCSORGLEFT
 10
0
 20
0
 30
0
  9
$UCSORGRIGHT
 10
0
 20
0
 30
0
  9
$UCSORGFRONT
 10
0
 20
0
 30
0
  9
$UCSORGBACK
 10
0
 20
0
 30
0
  9
$PUCSBASE
  2

  9
$PUCSNAME
  2

  9
$PUCSORG
 10
0
 20
0
 30
0
  9
$PUCSXDIR
 10
1
 20
0
 30
0
  9
$PUCSYDIR
 10
0
 20
1
 30
0
  9
$PUCSORTHOREF
  2

  9
$PUCSORTHOVIEW
 70
    0
  9
$PUCSORGTOP
 10
0
 20
0
 30
0
  9
$PUCSORGBOTTOM
 10
0
 20
0
 30
0
  9
$PUCSORGLEFT
 10
0
 20
0
 30
0
  9
$PUCSORGRIGHT
 10
0
 20
0
 30
0
  9
$PUCSORGFRONT
 10
0
 20
0
 30
0
  9
$PUCSORGBACK
 10
0
 20
0
 30
0
  9
$USERI1
 70
    0
  9
$USERI2
 70
    0
  9
$USERI3
 70
    0
  9
$USERI4
 70
    0
  9
$USERI5
 70
    0
  9
$USERR1
 40
0
  9
$USERR2
 40
0
  9
$USERR3
 40
0
  9
$USERR4
 40
0
  9
$USERR5
 40
0
  9
$WORLDVIEW
 70
    1
  9
$SHADEDGE
 70
    3
  9
$SHADEDIF
 70
   70
  9
$TILEMODE
 70
    1
  9
$MAXACTVP
 70
   64
  9
$PINSBASE
 10
0
 20
0
 30
0
  9
$PLIMCHECK
 70
    0
  9
$PEXTMIN
 10
0
 20
0
 30
0
  9
$PEXTMAX
 10
0
 20
0
 30
0
  9
$GRIDMODE
 70
    1
  9
$SNAPSTYLE
 70
    0
  9
$PLIMMIN
 10
0
 20
0
  9
$PLIMMAX
 10
12
 20
9
  9
$UNITMODE
 70
    0
  9
$VISRETAIN
 70
    1
  9
$PLINEGEN
 70
    0
  9
$PSLTSCALE
 70
    1
  9
$TREEDEPTH
 70
 3020
  9
$CMLSTYLE
  2
Standard
  9
$CMLJUST
 70
    0
  9
$CMLSCALE
 40
20
  9
$PROXYGRAPHICS
 70
    1
  9
$MEASUREMENT
 70
    1
  9
$CELWEIGHT
370
   -1
  9
$ENDCAPS
280
    0
  9
$JOINSTYLE
280
    0
  9
$LWDISPLAY
290
    0
  9
$INSUNITS
 70
    4
  9
$HYPERLINKBASE
  1

  9
$STYLESHEET
  1

  9
$XEDIT
290
    1
  9
$CEPSNTYPE
380
    0
  9
$PSTYLEMODE
290
    1
  9
$EXTNAMES
290
    1
  9
$PSVPSCALE
 40
0
  9
$OLESTARTUP
290
    0
  9
$SORTENTS
280
  127
  9
$INDEXCTL
280
    0
  9
$HIDETEXT
280
    1
  9
$XCLIPFRAME
290
    0
  9
$HALOGAP
280
    0
  9
$OBSCOLOR
 70
  257
  9
$OBSLTYPE
280
    0
  9
$INTERSECTIONDISPLAY
280
    0
  9
$INTERSECTIONCOLOR
 70
  257
  9
$DIMASSOC
280
    2
  9
$PROJECTNAME
  1

  9
$CAMERADISPLAY
290
    0
  9
$LENSLENGTH
 40
50
  9
$CAMERAHEIGHT
 40
0
  9
$STEPSPERSEC
 40
2
  9
$STEPSIZE
 40
6
  9
$3DDWFPREC
 40
2
  9
$PSOLWIDTH
 40
5
  9
$PSOLHEIGHT
 40
80
  9
$LOFTANG1
 40
1.570796326794896
  9
$LOFTANG2
 40
1.570796326794896
  9
$LOFTMAG1
 40
0
  9
$LOFTMAG2
 40
0
  9
$LOFTPARAM
 70
    7
  9
$LOFTNORMALS
280
    1
  9
$LATITUDE
 40
37.795
  9
$LONGITUDE
 40
-122.394
  9
$NORTHDIRECTION
 40
0
  9
$TIMEZONE
 70
-8000
  9
$LIGHTGLYPHDISPLAY
280
    1
  9
$TILEMODELIGHTSYNCH
280
    1
  9
$SOLIDHIST
280
    0
  9
$SHOWHIST
280
    1
  9
$DWFFRAME
280
    2
  9
$DGNFRAME
280
    0
  9
$REALWORLDSCALE
290
    1
  9
$INTERFERECOLOR
 62
    1
  9
$CSHADOW
280
    0
  9
$SHADOWPLANELOCATION
 40
0
  0
ENDSEC
  0
SECTION
  2
CLASSES
  0
ENDSEC
  0
SECTION
  2
TABLES
  0
TABLE
  2
VPORT
  5
8
330
0
100
AcDbSymbolTable
 70
    1
  0
VPORT
  5
31
330
2
100
AcDbSymbolTableRecord
100
AcDbViewportTableRecord
  2
*ACTIVE
 70
    0
 10
0
 20
0
 11
1
 21
1
 12
198.316693684386
 22
94.530300862468
 13
0
 23
0
 14
10
 24
10
 15
10
 25
10
 16
0
 26
0
 36
1
 17
0
 27
0
 37
0
 40
237.9012571705445
 41
1.829470198675497
 42
50
 43
0
 44
0
 50
0
 51
0
 71
    0
 72
  100
 73
    1
 74
    3
 75
    0
 76
    1
 77
    0
 78
    0
281
    0
 65
    1
110
0
120
0
130
0
111
1
121
0
131
0
112
0
122
1
132
0
 79
    0
146
0
348
10020
 60
    7
 61
    5
292
1
282
    1
141
0
142
0
 63
  250
421
3358443
  0
ENDTAB
  0
TABLE
  2
LTYPE
  5
5
330
0
100
AcDbSymbolTable
 70
    4
  0
LTYPE
  5
14
330
5
100
AcDbSymbolTableRecord
100
AcDbLinetypeTableRecord
  2
ByBlock
 70
    0
  3

 72
   65
 73
    0
 40
0
  0
LTYPE
  5
15
330
5
100
AcDbSymbolTableRecord
100
AcDbLinetypeTableRecord
  2
ByLayer
 70
    0
  3

 72
   65
 73
    0
 40
0
  0
LTYPE
  5
16
330
5
100
AcDbSymbolTableRecord
100
AcDbLinetypeTableRecord
  2
Continuous
 70
    0
  3
Solid line
 72
   65
 73
    0
 40
0
  0
LTYPE
  5
32
330
5
100
AcDbSymbolTableRecord
100
AcDbLinetypeTableRecord
  2
DOT
 70
    0
  3
Dot . . . . . . . . . . . . . . . . . . . . . .
 72
   65
 73
    2
 40
6.35
 49
0
 74
    0
 49
-6.35
 74
    0
  0
LTYPE
  5
33
330
5
100
AcDbSymbolTableRecord
100
AcDbLinetypeTableRecord
  2
DOTTINY
 70
    0
  3
Dot (.15x) .....................................
 72
   65
 73
    2
 40
0.9525
 49
0
 74
    0
 49
-0.9525
 74
    0
  0
LTYPE
  5
34
330
5
100
AcDbSymbolTableRecord
100
AcDbLinetypeTableRecord
  2
DOT2
 70
    0
  3
Dot (.5x) .....................................
 72
   65
 73
    2
 40
3.175
 49
0
 74
    0
 49
-3.175
 74
    0
  0
LTYPE
  5
35
330
5
100
AcDbSymbolTableRecord
100
AcDbLinetypeTableRecord
  2
DOTX2
 70
    0
  3
Dot (2x) .  .  .  .  .  .  .  .  .  .  .  .  .
 72
   65
 73
    2
 40
12.7
 49
0
 74
    0
 49
-12.7
 74
    0
  0
LTYPE
  5
36
330
5
100
AcDbSymbolTableRecord
100
AcDbLinetypeTableRecord
  2
DASHED
 70
    0
  3
Dashed _ _ _ _ _ _ _ _ _ _ _ _ _ _ _ _ _
 72
   65
 73
    2
 40
19.05
 49
12.7
 74
    0
 49
-6.35
 74
    0
  0
LTYPE
  5
37
330
5
100
AcDbSymbolTableRecord
100
AcDbLinetypeTableRecord
  2
DASHEDTINY
 70
    0
  3
Dashed (.15x) _ _ _ _ _ _ _ _ _ _ _ _ _ _ _ _ _
 72
   65
 73
    2
 40
2.8575
 49
1.905
 74
    0
 49
-0.9525
 74
    0
  0
LTYPE
  5
38
330
5
100
AcDbSymbolTableRecord
100
AcDbLinetypeTableRecord
  2
DASHED2
 70
    0
  3
Dashed (.5x) _ _ _ _ _ _ _ _ _ _ _ _ _ _ _ _ _
 72
   65
 73
    2
 40
9.524999999999999
 49
6.35
 74
    0
 49
-3.175
 74
    0
  0
LTYPE
  5
39
330
5
100
AcDbSymbolTableRecord
100
AcDbLinetypeTableRecord
  2
DASHEDX2
 70
    0
  3
Dashed (2x) ____  ____  ____  ____  ____  ___
 72
   65
 73
    2
 40
38.09999999999999
 49
25.4
 74
    0
 49
-12.7
 74
    0
  0
LTYPE
  5
3A
330
5
100
AcDbSymbolTableRecord
100
AcDbLinetypeTableRecord
  2
DASHDOT
 70
    0
  3
Dash dot __ . __ . __ . __ . __ . __ . __ . __
 72
   65
 73
    4
 40
25.4
 49
12.7
 74
    0
 49
-6.35
 74
    0
 49
0
 74
    0
 49
-6.35
 74
    0
  0
LTYPE
  5
3B
330
5
100
AcDbSymbolTableRecord
100
AcDbLinetypeTableRecord
  2
DASHDOTTINY
 70
    0
  3
Dash dot (.15x) _._._._._._._._._._._._._._._.
 72
   65
 73
    4
 40
3.81
 49
1.905
 74
    0
 49
-0.9525
 74
    0
 49
0
 74
    0
 49
-0.9525
 74
    0
  0
LTYPE
  5
3C
330
5
100
AcDbSymbolTableRecord
100
AcDbLinetypeTableRecord
  2
DASHDOT2
 70
    0
  3
Dash dot (.5x) _._._._._._._._._._._._._._._.
 72
   65
 73
    4
 40
12.7
 49
6.35
 74
    0
 49
-3.175
 74
    0
 49
0
 74
    0
 49
-3.175
 74
    0
  0
LTYPE
  5
3D
330
5
100
AcDbSymbolTableRecord
100
AcDbLinetypeTableRecord
  2
DASHDOTX2
 70
    0
  3
Dash dot (2x) ____  .  ____  .  ____  .  ___
 72
   65
 73
    4
 40
50.8
 49
25.4
 74
    0
 49
-12.7
 74
    0
 49
0
 74
    0
 49
-12.7
 74
    0
  0
LTYPE
  5
3E
330
5
100
AcDbSymbolTableRecord
100
AcDbLinetypeTableRecord
  2
DIVIDE
 70
    0
  3
Divide ____ . . ____ . . ____ . . ____ . . ____
 72
   65
 73
    6
 40
31.75
 49
12.7
 74
    0
 49
-6.35
 74
    0
 49
0
 74
    0
 49
-6.35
 74
    0
 49
0
 74
    0
 49
-6.35
 74
    0
  0
LTYPE
  5
3F
330
5
100
AcDbSymbolTableRecord
100
AcDbLinetypeTableRecord
  2
DIVIDETINY
 70
    0
  3
Divide (.15x) __..__..__..__..__..__..__..__.._
 72
   65
 73
    6
 40
4.7625
 49
1.905
 74
    0
 49
-0.9525
 74
    0
 49
0
 74
    0
 49
-0.9525
 74
    0
 49
0
 74
    0
 49
-0.9525
 74
    0
  0
LTYPE
  5
40
330
5
100
AcDbSymbolTableRecord
100
AcDbLinetypeTableRecord
  2
DIVIDE2
 70
    0
  3
Divide (.5x) __..__..__..__..__..__..__..__.._
 72
   65
 73
    6
 40
15.875
 49
6.35
 74
    0
 49
-3.175
 74
    0
 49
0
 74
    0
 49
-3.175
 74
    0
 49
0
 74
    0
 49
-3.175
 74
    0
  0
LTYPE
  5
41
330
5
100
AcDbSymbolTableRecord
100
AcDbLinetypeTableRecord
  2
DIVIDEX2
 70
    0
  3
Divide (2x) ________  .  .  ________  .  .  _
 72
   65
 73
    6
 40
63.5
 49
25.4
 74
    0
 49
-12.7
 74
    0
 49
0
 74
    0
 49
-12.7
 74
    0
 49
0
 74
    0
 49
-12.7
 74
    0
  0
LTYPE
  5
42
330
5
100
AcDbSymbolTableRecord
100
AcDbLinetypeTableRecord
  2
BORDER
 70
    0
  3
Border __ __ . __ __ . __ __ . __ __ . __ __ .
 72
   65
 73
    6
 40
44.45
 49
12.7
 74
    0
 49
-6.35
 74
    0
 49
12.7
 74
    0
 49
-6.35
 74
    0
 49
0
 74
    0
 49
-6.35
 74
    0
  0
LTYPE
  5
43
330
5
100
AcDbSymbolTableRecord
100
AcDbLinetypeTableRecord
  2
BORDERTINY
 70
    0
  3
Border (.15x) __.__.__.__.__.__.__.__.__.__.__.
 72
   65
 73
    6
 40
6.6675
 49
1.905
 74
    0
 49
-0.9525
 74
    0
 49
1.905
 74
    0
 49
-0.9525
 74
    0
 49
0
 74
    0
 49
-0.9525
 74
    0
  0
LTYPE
  5
44
330
5
100
AcDbSymbolTableRecord
100
AcDbLinetypeTableRecord
  2
BORDER2
 70
    0
  3
Border (.5x) __.__.__.__.__.__.__.__.__.__.__.
 72
   65
 73
    6
 40
22.225
 49
6.35
 74
    0
 49
-3.175
 74
    0
 49
6.35
 74
    0
 49
-3.175
 74
    0
 49
0
 74
    0
 49
-3.175
 74
    0
  0
LTYPE
  5
45
330
5
100
AcDbSymbolTableRecord
100
AcDbLinetypeTableRecord
  2
BORDERX2
 70
    0
  3
Border (2x) ____  ____  .  ____  ____  .  ___
 72
   65
 73
    6
 40
88.89999999999999
 49
25.4
 74
    0
 49
-12.7
 74
    0
 49
25.4
 74
    0
 49
-12.7
 74
    0
 49
0
 74
    0
 49
-12.7
 74
    0
  0
LTYPE
  5
46
330
5
100
AcDbSymbolTableRecord
100
AcDbLinetypeTableRecord
  2
CENTER
 70
    0
  3
Center ____ _ ____ _ ____ _ ____ _ ____ _ ____
 72
   65
 73
    4
 40
50.8
 49
31.75
 74
    0
 49
-6.35
 74
    0
 49
6.35
 74
    0
 49
-6.35
 74
    0
  0
LTYPE
  5
47
330
5
100
AcDbSymbolTableRecord
100
AcDbLinetypeTableRecord
  2
CENTERTINY
 70
    0
  3
Center (.15x) ___ _ ___ _ ___ _ ___ _ ___ _ ___
 72
   65
 73
    4
 40
7.62
 49
4.7625
 74
    0
 49
-0.9525
 74
    0
 49
0.9525
 74
    0
 49
-0.9525
 74
    0
  0
LTYPE
  5
48
330
5
100
AcDbSymbolTableRecord
100
AcDbLinetypeTableRecord
  2
CENTER2
 70
    0
  3
Center (.5x) ___ _ ___ _ ___ _ ___ _ ___ _ ___
 72
   65
 73
    4
 40
28.575
 49
19.05
 74
    0
 49
-3.175
 74
    0
 49
3.175
 74
    0
 49
-3.175
 74
    0
  0
LTYPE
  5
49
330
5
100
AcDbSymbolTableRecord
100
AcDbLinetypeTableRecord
  2
CENTERX2
 70
    0
  3
Center (2x) ________  __  ________  __  _____
 72
   65
 73
    4
 40
101.6
 49
63.5
 74
    0
 49
-12.7
 74
    0
 49
12.7
 74
    0
 49
-12.7
 74
    0
  0
ENDTAB
  0
TABLE
  2
LAYER
  5
2
330
0
100
AcDbSymbolTable
 70
    1
  0
LAYER
  5
10
330
2
100
AcDbSymbolTableRecord
100
AcDbLayerTableRecord
  2
0
 70
    0
 62
    7
  6
CONTINUOUS
370
   -3
390
F
  0
LAYER
  5
4A
330
2
100
AcDbSymbolTableRecord
100
AcDbLayerTableRecord
  2
BoardOutLine
 70
    0
 62
    6
  6
CONTINUOUS
370
   -3
390
F
  0
LAYER
  5
4B
330
2
100
AcDbSymbolTableRecord
100
AcDbLayerTableRecord
  2
BottomSilkLayer
 70
    0
 62
   72
420
6736947
  6
CONTINUOUS
370
   -3
390
F
  0
LAYER
  5
4C
330
2
100
AcDbSymbolTableRecord
100
AcDbLayerTableRecord
  2
BottomSolderMaskLayer
 70
    0
 62
  200
420
11141375
  6
CONTINUOUS
370
   -3
390
F
  0
LAYER
  5
4D
330
2
100
AcDbSymbolTableRecord
100
AcDbLayerTableRecord
  2
Multi-Layer
 70
    0
 62
    9
  6
CONTINUOUS
370
   -3
390
F
  0
LAYER
  5
4E
330
2
100
AcDbSymbolTableRecord
100
AcDbLayerTableRecord
  2
TopSilkLayer
 70
    0
 62
    7
  6
CONTINUOUS
370
   -3
390
F
  0
LAYER
  5
4F
330
2
100
AcDbSymbolTableRecord
100
AcDbLayerTableRecord
  2
TopSolderMaskLayer
 70
    0
 62
  216
420
8388736
  6
CONTINUOUS
370
   -3
390
F
  0
ENDTAB
  0
TABLE
  2
STYLE
  5
3
330
0
100
AcDbSymbolTable
 70
    3
  0
STYLE
  5
50
330
2
100
AcDbSymbolTableRecord
100
AcDbTextStyleTableRecord
  2
Standard
 70
    0
 40
0
 41
1
 50
0
 71
    0
 42
1
  3
txt
  4

  0
ENDTAB
  0
TABLE
  2
VIEW
  5
6
330
0
100
AcDbSymbolTable
 70
    0
  0
ENDTAB
  0
TABLE
  2
UCS
  5
7
330
0
100
AcDbSymbolTable
 70
    0
  0
ENDTAB
  0
TABLE
  2
APPID
  5
9
330
0
100
AcDbSymbolTable
 70
    1
  0
APPID
  5
12
330
9
100
AcDbSymbolTableRecord
100
AcDbRegAppTableRecord
  2
ACAD
 70
    0
  0
APPID
  5
51
330
9
100
AcDbSymbolTableRecord
100
AcDbRegAppTableRecord
  2
LibreCad
 70
    0
  0
ENDTAB
  0
TABLE
  2
DIMSTYLE
  5
A
330
0
100
AcDbSymbolTable
 70
    1
100
AcDbDimStyleTable
 71
    1
  0
DIMSTYLE
105
52
330
A
100
AcDbSymbolTableRecord
100
AcDbDimStyleTableRecord
  2
Standard
 70
    0
 40
1
 41
2.5
 42
0.625
 43
0.38
 44
1.25
 45
0
 46
0
 47
0
 48
0
 49
1
140
2.5
141
0.09
142
0
143
25.4
144
1
145
0
146
1
147
0.625
148
0
 71
    0
 72
    0
 73
    0
 74
    1
 75
    0
 76
    0
 77
    0
 78
    8
 79
    0
170
    0
171
    2
172
    0
173
    0
174
    0
175
    0
176
    0
177
    0
178
    0
179
    0
271
    2
272
    4
273
    2
274
    2
275
    0
276
    0
277
    2
278
   44
279
    0
280
    0
281
    0
282
    0
283
    1
284
    0
285
    0
286
    0
288
    0
289
    3
340
Standard
341

371
   -2
372
   -2
  0
ENDTAB
  0
TABLE
  2
BLOCK_RECORD
  5
1
330
0
100
AcDbSymbolTable
 70
    2
  0
BLOCK_RECORD
  5
1F
330
1
100
AcDbSymbolTableRecord
100
AcDbBlockTableRecord
  2
*Model_Space
 70
    0
280
    1
281
    0
  0
BLOCK_RECORD
  5
1E
330
1
100
AcDbSymbolTableRecord
100
AcDbBlockTableRecord
  2
*Paper_Space
 70
    0
280
    1
281
    0
  0
ENDTAB
  0
ENDSEC
  0
SECTION
  2
BLOCKS
  0
BLOCK
  5
20
330
1F
100
AcDbEntity
  8
0
100
AcDbBlockBegin
  2
*Model_Space
 70
    0
 10
0
 20
0
 30
0
  3
*Model_Space
  1

  0
ENDBLK
  5
21
330
1F
100
AcDbEntity
  8
0
100
AcDbBlockEnd
  0
BLOCK
  5
1C
330
1B
100
AcDbEntity
  8
0
100
AcDbBlockBegin
  2
*Paper_Space
 70
    0
 10
0
 20
0
 30
0
  3
*Paper_Space
  1

  0
ENDBLK
  5
1D
330
1F
100
AcDbEntity
  8
0
100
AcDbBlockEnd
  0
ENDSEC
  0
SECTION
  2
ENTITIES
  0
LWPOLYLINE
  5
53
100
AcDbEntity
  8
BoardOutLine
  6
ByLayer
 62
  256
370
   -1
100
AcDbPolyline
 90
    2
 70
    0
 43
0
 10
234.5702311404623
 20
79.37645415290831
 10
234.5702311404623
 20
6.986309372618734
  0
LWPOLYLINE
  5
54
100
AcDbEntity
  8
BoardOutLine
  6
ByLayer
 62
  256
370
   -1
100
AcDbPolyline
 90
    2
 70
    0
 43
0
 10
232.6652273304546
 20
5.081305562611078
 10
7.874777749555506
 20
5.081305562611078
  0
LWPOLYLINE
  5
55
100
AcDbEntity
  8
BoardOutLine
  6
ByLayer
 62
  256
370
   -1
100
AcDbPolyline
 90
    2
 70
    0
 43
0
 10
5.969773939547849
 20
6.986309372618734
 10
5.969773939547849
 20
79.21229362458723
  0
LWPOLYLINE
  5
56
100
AcDbEntity
  8
BoardOutLine
  6
ByLayer
 62
  256
370
   -1
100
AcDbPolyline
 90
    2
 70
    0
 43
0
 10
7.874777749555506
 20
81.28145796291597
 10
232.6652273304546
 20
81.28145796291597
  0
ARC
  5
57
100
AcDbEntity
  8
BoardOutLine
  6
ByLayer
 62
  256
370
   -1
100
AcDbCircle
 10
232.5647955295913
 20
79.28145796291597
 40
2
100
AcDbArc
 50
0
 51
90
  0
ARC
  5
58
100
AcDbEntity
  8
BoardOutLine
  6
ByLayer
 62
  256
370
   -1
100
AcDbCircle
 10
232.5702311404623
 20
7.07642875285751
 40
2
100
AcDbArc
 50
270
 51
0
  0
ARC
  5
59
100
AcDbEntity
  8
BoardOutLine
  6
ByLayer
 62
  256
370
   -1
100
AcDbCircle
 10
7.969799339598694
 20
7.07642875285751
 40
2
100
AcDbArc
 50
180.0000000000015
 51
270
  0
ARC
  5
5A
100
AcDbEntity
  8
BoardOutLine
  6
ByLayer
 62
  256
370
   -1
100
AcDbCircle
 10
7.969773939547849
 20
79.28143256286523
 40
2
100
AcDbArc
 50
90
 51
180
  0
CIRCLE
  5
5B
100
AcDbEntity
  8
Multi-Layer
  6
ByLayer
 62
  256
370
   -1
100
AcDbCircle
 10
25.0190500381002
 20
62.23012446024893
 40
2.5
  0
CIRCLE
  5
5C
100
AcDbEntity
  8
Multi-Layer
  6
ByLayer
 62
  256
370
   -1
100
AcDbCircle
 10
120.2692405384812
 20
43.18008636017271
 40
2.5
  0
CIRCLE
  5
5D
100
AcDbEntity
  8
Multi-Layer
  6
ByLayer
 62
  256
370
   -1
100
AcDbCircle
 10
215.5194310388622
 20
62.23012446024893
 40
2.5
  0
CIRCLE
  5
5E
100
AcDbEntity
  8
Multi-Layer
  6
ByLayer
 62
  256
370
   -1
100
AcDbCircle
 10
215.5194310388622
 20
24.13004826009649
 40
2.5
  0
CIRCLE
  5
5F
100
AcDbEntity
  8
Multi-Layer
  6
ByLayer
 62
  256
370
   -1
100
AcDbCircle
 10
25.0190500381002
 20
24.13004826009649
 40
2.5
  0
LWPOLYLINE
  5
60
100
AcDbEntity
  8
Multi-Layer
  6
ByLayer
 62
  256
370
   -1
100
AcDbPolyline
 90
  108
 70
    1
 43
0
 10
136.7792735585472
 20
21.59004318008635
 10
136.7792735585472
 20
7.620015240030511
 10
136.7781870537688
 20
7.603438380464922
 10
136.7749461298311
 20
7.587145155562325
 10
136.7696062398413
 20
7.571414346918345
 10
136.7622587507981
 20
7.556515113030287
 10
136.7530293802758
 20
7.542702383920641
 10
136.7420760453629
 20
7.530212499214258
 10
136.7295861606565
 20
7.519259164301388
 10
136.7157734315469
 20
7.51002979377904
 10
136.7008741976588
 20
7.502682304735799
 10
136.6851433890149
 20
7.497342414746186
 10
136.6688501641124
 20
7.494101490808589
 10
136.6522733045467
 20
7.493014986029948
 10
103.6322072644145
 20
7.493014986029948
 10
103.6156304048488
 20
7.494101490808589
 10
103.5993371799464
 20
7.497342414746186
 10
103.5836063713025
 20
7.502682304735799
 10
103.5687071374143
 20
7.51002979377904
 10
103.5548944083048
 20
7.519259164301388
 10
103.5424045235984
 20
7.530212499214258
 10
103.5314511886854
 20
7.542702383920641
 10
103.5222218181632
 20
7.556515113030287
 10
103.5148743291197
 20
7.571414346918345
 10
103.5095344391302
 20
7.587145155562325
 10
103.5062935151925
 20
7.603438380464922
 10
103.5052070104141
 20
7.620015240030511
 10
103.5052070104141
 20
21.59004318008635
 10
103.5062935151925
 20
21.60662003965206
 10
103.5095344391302
 20
21.62291326455454
 10
103.5148743291197
 20
21.63864407319852
 10
103.5222218181632
 20
21.65354330708658
 10
103.5314511886854
 20
21.66735603619622
 10
103.5424045235984
 20
21.67984592090261
 10
103.5548944083048
 20
21.69079925581548
 10
103.5687071374143
 20
21.70002862633783
 10
103.5836063713025
 20
21.70737611538118
 10
103.5993371799464
 20
21.71271600537079
 10
103.6156304048488
 20
21.71595692930828
 10
103.6322072644145
 20
21.71704343408692
 10
106.4262128524258
 20
21.71704343408692
 10
106.4262128524258
 20
22.60604521209041
 10
106.4272993572042
 20
22.62262207165611
 10
106.4305402811419
 20
22.63891529655859
 10
106.4358801711314
 20
22.65464610520269
 10
106.4432276601747
 20
22.66954533909075
 10
106.4524570306969
 20
22.68335806820028
 10
106.4634103656101
 20
22.69584795290666
 10
106.4759002503165
 20
22.70680128781953
 10
106.489712979426
 20
22.71603065834188
 10
106.5046122133142
 20
22.72337814738523
 10
106.5203430219581
 20
22.72871803737485
 10
106.5366362468606
 20
22.73195896131244
 10
106.5532131064263
 20
22.73304546609097
 10
109.98221996444
 20
22.73304546609097
 10
109.9987968240057
 20
22.73195896131244
 10
110.0150900489082
 20
22.72871803737485
 10
110.030820857552
 20
22.72337814738523
 10
110.0457200914402
 20
22.71603065834188
 10
110.0595328205497
 20
22.70680128781953
 10
110.0720227052561
 20
22.69584795290666
 10
110.0829760401691
 20
22.68335806820028
 10
110.0922054106913
 20
22.66954533909075
 10
110.0995528997348
 20
22.65464610520269
 10
110.1048927897243
 20
22.63891529655859
 10
110.108133713662
 20
22.62262207165611
 10
110.1092202184404
 20
22.60604521209041
 10
110.1092202184404
 20
21.71704343408692
 10
130.1752603505208
 20
21.71704343408692
 10
130.1752603505208
 20
22.60604521209041
 10
130.1763468552992
 20
22.62262207165611
 10
130.179587779237
 20
22.63891529655859
 10
130.1849276692265
 20
22.65464610520269
 10
130.1922751582697
 20
22.66954533909075
 10
130.2015045287919
 20
22.68335806820028
 10
130.2124578637051
 20
22.69584795290666
 10
130.2249477484115
 20
22.70680128781953
 10
130.2387604775211
 20
22.71603065834188
 10
130.2536597114092
 20
22.72337814738523
 10
130.2693905200531
 20
22.72871803737485
 10
130.2856837449556
 20
22.73195896131244
 10
130.3022606045213
 20
22.73304546609097
 10
133.731267462535
 20
22.73304546609097
 10
133.7478443221007
 20
22.73195896131244
 10
133.7641375470032
 20
22.72871803737485
 10
133.7798683556471
 20
22.72337814738523
 10
133.7947675895352
 20
22.71603065834188
 10
133.8085803186448
 20
22.70680128781953
 10
133.8210702033512
 20
22.69584795290666
 10
133.8320235382641
 20
22.68335806820028
 10
133.8412529087864
 20
22.66954533909075
 10
133.8486003978296
 20
22.65464610520269
 10
133.8539402878193
 20
22.63891529655859
 10
133.8571812117571
 20
22.62262207165611
 10
133.8582677165355
 20
22.60604521209041
 10
133.8582677165355
 20
21.71704343408692
 10
136.6522733045467
 20
21.71704343408692
 10
136.6688501641124
 20
21.71595692930828
 10
136.6851433890149
 20
21.71271600537079
 10
136.7008741976588
 20
21.70737611538118
 10
136.7157734315469
 20
21.70002862633783
 10
136.7295861606565
 20
21.69079925581548
 10
136.7420760453629
 20
21.67984592090261
 10
136.7530293802758
 20
21.66735603619622
 10
136.7622587507981
 20
21.65354330708658
 10
136.7696062398413
 20
21.63864407319852
 10
136.7749461298311
 20
21.62291326455454
 10
136.7781870537688
 20
21.60662003965206
  0
LWPOLYLINE
  5
61
100
AcDbEntity
  8
Multi-Layer
  6
ByLayer
 62
  256
370
   -1
100
AcDbPolyline
 90
   52
 70
    1
 43
0
 10
8.493853187706463
 20
64.62928625857251
 10
8.477276328140761
 20
64.63037276335103
 10
8.460983103238277
 20
64.63361368728863
 10
8.445252294594184
 20
64.63895357727824
 10
8.430353060706238
 20
64.64630106632148
 10
8.41654033159648
 20
64.65553043684383
 10
8.404050446890324
 20
64.66648377175682
 10
8.39309711197734
 20
64.67897365646309
 10
8.383867741454878
 20
64.69278638557273
 10
8.376520252411638
 20
64.70768561946079
 10
8.371180362422137
 20
64.72341642810488
 10
8.367939438484427
 20
64.73970965300737
 10
8.366852933706014
 20
64.75628651257296
 10
8.366852933706014
 20
78.75560071120151
 10
8.367939438484427
 20
78.7721775707671
 10
8.371180362422137
 20
78.7884707956697
 10
8.376520252411638
 20
78.80420160431368
 10
8.383867741454878
 20
78.81910083820173
 10
8.39309711197734
 20
78.83291356731138
 10
8.404050446890324
 20
78.84540345201765
 10
8.41654033159648
 20
78.85635678693063
 10
8.430353060706238
 20
78.86558615745298
 10
8.445252294594184
 20
78.87293364649622
 10
8.460983103238277
 20
78.87827353648584
 10
8.477276328140761
 20
78.88151446042343
 10
8.493853187706463
 20
78.88260096520196
 10
22.49339598679194
 20
78.88260096520196
 10
22.50997284635764
 20
78.88151446042343
 10
22.52626607126012
 20
78.87827353648584
 10
22.54199687990399
 20
78.87293364649622
 10
22.55689611379216
 20
78.86558615745298
 10
22.57070884290169
 20
78.85635678693063
 10
22.58319872760808
 20
78.84540345201765
 10
22.59415206252106
 20
78.83291356731138
 10
22.6033814330433
 20
78.81910083820173
 10
22.61072892208676
 20
78.80420160431368
 10
22.61606881207626
 20
78.7884707956697
 10
22.61930973601397
 20
78.7721775707671
 10
22.62039624079239
 20
78.75560071120151
 10
22.62039624079239
 20
64.75628651257296
 10
22.61930973601397
 20
64.73970965300737
 10
22.61606881207626
 20
64.72341642810488
 10
22.61072892208676
 20
64.70768561946079
 10
22.6033814330433
 20
64.69278638557273
 10
22.59415206252106
 20
64.67897365646309
 10
22.58319872760808
 20
64.66648377175682
 10
22.57070884290169
 20
64.65553043684383
 10
22.55689611379216
 20
64.64630106632148
 10
22.54199687990399
 20
64.63895357727824
 10
22.52626607126012
 20
64.63361368728863
 10
22.50997284635764
 20
64.63037276335103
 10
22.49339598679194
 20
64.62928625857251
  0
LWPOLYLINE
  5
62
100
AcDbEntity
  8
Multi-Layer
  6
ByLayer
 62
  256
370
   -1
100
AcDbPolyline
 90
   52
 70
    1
 43
0
 10
27.54389128778257
 20
64.62928625857251
 10
27.52731442821687
 20
64.63037276335103
 10
27.51102120331439
 20
64.63361368728863
 10
27.49529039467052
 20
64.63895357727824
 10
27.48039116078235
 20
64.64630106632148
 10
27.46657843167281
 20
64.65553043684383
 10
27.45408854696643
 20
64.66648377175682
 10
27.44313521205345
 20
64.67897365646309
 10
27.43390584153121
 20
64.69278638557273
 10
27.42655835248797
 20
64.70768561946079
 10
27.42121846249825
 20
64.72341642810488
 10
27.41797753856054
 20
64.73970965300737
 10
27.41689103378212
 20
64.75628651257296
 10
27.41689103378212
 20
78.75560071120151
 10
27.41797753856054
 20
78.7721775707671
 10
27.42121846249825
 20
78.7884707956697
 10
27.42655835248797
 20
78.80420160431368
 10
27.43390584153121
 20
78.81910083820173
 10
27.44313521205345
 20
78.83291356731138
 10
27.45408854696643
 20
78.84540345201765
 10
27.46657843167281
 20
78.85635678693063
 10
27.48039116078235
 20
78.86558615745298
 10
27.49529039467052
 20
78.87293364649622
 10
27.51102120331439
 20
78.87827353648584
 10
27.52731442821687
 20
78.88151446042343
 10
27.54389128778257
 20
78.88260096520196
 10
41.5432054864109
 20
78.88260096520196
 10
41.5597823459766
 20
78.88151446042343
 10
41.57607557087908
 20
78.87827353648584
 10
41.59180637952295
 20
78.87293364649622
 10
41.60670561341112
 20
78.86558615745298
 10
41.62051834252065
 20
78.85635678693063
 10
41.63300822722704
 20
78.84540345201765
 10
41.64396156214025
 20
78.83291356731138
 10
41.65319093266248
 20
78.81910083820173
 10
41.66053842170572
 20
78.80420160431368
 10
41.66587831169522
 20
78.7884707956697
 10
41.66911923563293
 20
78.7721775707671
 10
41.67020574041135
 20
78.75560071120151
 10
41.67020574041135
 20
64.75628651257296
 10
41.66911923563293
 20
64.73970965300737
 10
41.66587831169522
 20
64.72341642810488
 10
41.66053842170572
 20
64.70768561946079
 10
41.65319093266248
 20
64.69278638557273
 10
41.64396156214025
 20
64.67897365646309
 10
41.63300822722704
 20
64.66648377175682
 10
41.62051834252065
 20
64.65553043684383
 10
41.60670561341112
 20
64.64630106632148
 10
41.59180637952295
 20
64.63895357727824
 10
41.57607557087908
 20
64.63361368728863
 10
41.5597823459766
 20
64.63037276335103
 10
41.5432054864109
 20
64.62928625857251
  0
LWPOLYLINE
  5
63
100
AcDbEntity
  8
Multi-Layer
  6
ByLayer
 62
  256
370
   -1
100
AcDbPolyline
 90
   52
 70
    1
 43
0
 10
46.59390398780806
 20
64.62928625857251
 10
46.57732712824236
 20
64.63037276335103
 10
46.56103390333988
 20
64.63361368728863
 10
46.54530309469601
 20
64.63895357727824
 10
46.53040386080784
 20
64.64630106632148
 10
46.51659113169831
 20
64.65553043684383
 10
46.50410124699192
 20
64.66648377175682
 10
46.49314791207871
 20
64.67897365646309
 10
46.48391854155648
 20
64.69278638557273
 10
46.47657105251324
 20
64.70768561946079
 10
46.47123116252374
 20
64.72341642810488
 10
46.46799023858603
 20
64.73970965300737
 10
46.46690373380738
 20
64.75628651257296
 10
46.46690373380738
 20
78.75560071120151
 10
46.46799023858603
 20
78.7721775707671
 10
46.47123116252374
 20
78.7884707956697
 10
46.47657105251324
 20
78.80420160431368
 10
46.48391854155648
 20
78.81910083820173
 10
46.49314791207871
 20
78.83291356731138
 10
46.50410124699192
 20
78.84540345201765
 10
46.51659113169831
 20
78.85635678693063
 10
46.53040386080784
 20
78.86558615745298
 10
46.54530309469601
 20
78.87293364649622
 10
46.56103390333988
 20
78.87827353648584
 10
46.57732712824236
 20
78.88151446042343
 10
46.59390398780806
 20
78.88260096520196
 10
60.59319278638554
 20
78.88260096520196
 10
60.60976964595147
 20
78.88151446042343
 10
60.62606287085373
 20
78.87827353648584
 10
60.64179367949782
 20
78.87293364649622
 10
60.656692913386
 20
78.86558615745298
 10
60.6705056424953
 20
78.85635678693063
 10
60.68299552720191
 20
78.84540345201765
 10
60.69394886211489
 20
78.83291356731138
 10
60.70317823263713
 20
78.81910083820173
 10
60.71052572168037
 20
78.80420160431368
 10
60.7158656116701
 20
78.7884707956697
 10
60.71910653560781
 20
78.7721775707671
 10
60.72019304038622
 20
78.75560071120151
 10
60.72019304038622
 20
64.75628651257296
 10
60.71910653560781
 20
64.73970965300737
 10
60.7158656116701
 20
64.72341642810488
 10
60.71052572168037
 20
64.70768561946079
 10
60.70317823263713
 20
64.69278638557273
 10
60.69394886211489
 20
64.67897365646309
 10
60.68299552720191
 20
64.66648377175682
 10
60.6705056424953
 20
64.65553043684383
 10
60.656692913386
 20
64.64630106632148
 10
60.64179367949782
 20
64.63895357727824
 10
60.62606287085373
 20
64.63361368728863
 10
60.60976964595147
 20
64.63037276335103
 10
60.59319278638554
 20
64.62928625857251
  0
LWPOLYLINE
  5
64
100
AcDbEntity
  8
Multi-Layer
  6
ByLayer
 62
  256
370
   -1
100
AcDbPolyline
 90
   52
 70
    1
 43
0
 10
65.64389128778248
 20
64.62928625857251
 10
65.62731442821678
 20
64.63037276335103
 10
65.61102120331429
 20
64.63361368728863
 10
65.59529039467043
 20
64.63895357727824
 10
65.58039116078226
 20
64.64630106632148
 10
65.56657843167272
 20
64.65553043684383
 10
65.55408854696634
 20
64.66648377175682
 10
65.54313521205336
 20
64.67897365646309
 10
65.53390584153112
 20
64.69278638557273
 10
65.52655835248765
 20
64.70768561946079
 10
65.52121846249815
 20
64.72341642810488
 10
65.51797753856044
 20
64.73970965300737
 10
65.51689103378203
 20
64.75628651257296
 10
65.51689103378203
 20
78.75560071120151
 10
65.51797753856044
 20
78.7721775707671
 10
65.52121846249815
 20
78.7884707956697
 10
65.52655835248765
 20
78.80420160431368
 10
65.53390584153112
 20
78.81910083820173
 10
65.54313521205336
 20
78.83291356731138
 10
65.55408854696634
 20
78.84540345201765
 10
65.56657843167272
 20
78.85635678693063
 10
65.58039116078226
 20
78.86558615745298
 10
65.59529039467043
 20
78.87293364649622
 10
65.61102120331429
 20
78.87827353648584
 10
65.62731442821678
 20
78.88151446042343
 10
65.64389128778248
 20
78.88260096520196
 10
79.64320548641103
 20
78.88260096520196
 10
79.65978234597674
 20
78.88151446042343
 10
79.67607557087922
 20
78.87827353648584
 10
79.69180637952309
 20
78.87293364649622
 10
79.70670561341126
 20
78.86558615745298
 10
79.72051834252079
 20
78.85635678693063
 10
79.73300822722717
 20
78.84540345201765
 10
79.74396156214016
 20
78.83291356731138
 10
79.75319093266239
 20
78.81910083820173
 10
79.76053842170586
 20
78.80420160431368
 10
79.76587831169536
 20
78.7884707956697
 10
79.76911923563307
 20
78.7721775707671
 10
79.77020574041148
 20
78.75560071120151
 10
79.77020574041148
 20
64.75628651257296
 10
79.76911923563307
 20
64.73970965300737
 10
79.76587831169536
 20
64.72341642810488
 10
79.76053842170586
 20
64.70768561946079
 10
79.75319093266239
 20
64.69278638557273
 10
79.74396156214016
 20
64.67897365646309
 10
79.73300822722717
 20
64.66648377175682
 10
79.72051834252079
 20
64.65553043684383
 10
79.70670561341126
 20
64.64630106632148
 10
79.69180637952309
 20
64.63895357727824
 10
79.67607557087922
 20
64.63361368728863
 10
79.65978234597674
 20
64.63037276335103
 10
79.64320548641103
 20
64.62928625857251
  0
LWPOLYLINE
  5
65
100
AcDbEntity
  8
Multi-Layer
  6
ByLayer
 62
  256
370
   -1
100
AcDbPolyline
 90
   52
 70
    1
 43
0
 10
84.69390398780797
 20
64.62928625857251
 10
84.67732712824227
 20
64.63037276335103
 10
84.66103390334001
 20
64.63361368728863
 10
84.64530309469592
 20
64.63895357727824
 10
84.63040386080775
 20
64.64630106632148
 10
84.61659113169844
 20
64.65553043684383
 10
84.60410124699183
 20
64.66648377175682
 10
84.59314791207885
 20
64.67897365646309
 10
84.58391854155661
 20
64.69278638557273
 10
84.57657105251337
 20
64.70768561946079
 10
84.57123116252365
 20
64.72341642810488
 10
84.56799023858594
 20
64.73970965300737
 10
84.56690373380752
 20
64.75628651257296
 10
84.56690373380752
 20
78.75560071120151
 10
84.56799023858594
 20
78.7721775707671
 10
84.57123116252365
 20
78.7884707956697
 10
84.57657105251337
 20
78.80420160431368
 10
84.58391854155661
 20
78.81910083820173
 10
84.59314791207885
 20
78.83291356731138
 10
84.60410124699183
 20
78.84540345201765
 10
84.61659113169844
 20
78.85635678693063
 10
84.63040386080775
 20
78.86558615745298
 10
84.64530309469592
 20
78.87293364649622
 10
84.66103390334001
 20
78.87827353648584
 10
84.67732712824227
 20
78.88151446042343
 10
84.69390398780797
 20
78.88260096520196
 10
98.69319278638545
 20
78.88260096520196
 10
98.70976964595116
 20
78.88151446042343
 10
98.72606287085364
 20
78.87827353648584
 10
98.7417936794975
 20
78.87293364649622
 10
98.75669291338568
 20
78.86558615745298
 10
98.77050564249521
 20
78.85635678693063
 10
98.78299552720159
 20
78.84540345201765
 10
98.7939488621148
 20
78.83291356731138
 10
98.80317823263704
 20
78.81910083820173
 10
98.81052572168028
 20
78.80420160431368
 10
98.81586561166978
 20
78.7884707956697
 10
98.81910653560749
 20
78.7721775707671
 10
98.8201930403859
 20
78.75560071120151
 10
98.8201930403859
 20
64.75628651257296
 10
98.81910653560749
 20
64.73970965300737
 10
98.81586561166978
 20
64.72341642810488
 10
98.81052572168028
 20
64.70768561946079
 10
98.80317823263704
 20
64.69278638557273
 10
98.7939488621148
 20
64.67897365646309
 10
98.78299552720159
 20
64.66648377175682
 10
98.77050564249521
 20
64.65553043684383
 10
98.75669291338568
 20
64.64630106632148
 10
98.7417936794975
 20
64.63895357727824
 10
98.72606287085364
 20
64.63361368728863
 10
98.70976964595116
 20
64.63037276335103
 10
98.69319278638545
 20
64.62928625857251
  0
LWPOLYLINE
  5
66
100
AcDbEntity
  8
Multi-Layer
  6
ByLayer
 62
  256
370
   -1
100
AcDbPolyline
 90
   52
 70
    1
 43
0
 10
103.7424942849884
 20
64.62928625857251
 10
103.7259174254227
 20
64.63037276335103
 10
103.7096242005202
 20
64.63361368728863
 10
103.6938933918764
 20
64.63895357727824
 10
103.6789941579882
 20
64.64630106632148
 10
103.6651814288787
 20
64.65553043684383
 10
103.6526915441723
 20
64.66648377175682
 10
103.6417382092593
 20
64.67897365646309
 10
103.6325088387371
 20
64.69278638557273
 10
103.6251613496938
 20
64.70768561946079
 10
103.6198214597041
 20
64.72341642810488
 10
103.6165805357664
 20
64.73970965300737
 10
103.615494030988
 20
64.75628651257296
 10
103.615494030988
 20
78.75560071120151
 10
103.6165805357664
 20
78.7721775707671
 10
103.6198214597041
 20
78.7884707956697
 10
103.6251613496938
 20
78.80420160431368
 10
103.6325088387371
 20
78.81910083820173
 10
103.6417382092593
 20
78.83291356731138
 10
103.6526915441723
 20
78.84540345201765
 10
103.6651814288787
 20
78.85635678693063
 10
103.6789941579882
 20
78.86558615745298
 10
103.6938933918764
 20
78.87293364649622
 10
103.7096242005202
 20
78.87827353648584
 10
103.7259174254227
 20
78.88151446042343
 10
103.7424942849884
 20
78.88260096520196
 10
117.7432054864112
 20
78.88260096520196
 10
117.7597823459769
 20
78.88151446042343
 10
117.7760755708794
 20
78.87827353648584
 10
117.7918063795232
 20
78.87293364649622
 10
117.8067056134114
 20
78.86558615745298
 10
117.8205183425209
 20
78.85635678693063
 10
117.8330082272273
 20
78.84540345201765
 10
117.8439615621403
 20
78.83291356731138
 10
117.8531909326625
 20
78.81910083820173
 10
117.8605384217058
 20
78.80420160431368
 10
117.8658783116955
 20
78.7884707956697
 10
117.8691192356332
 20
78.7721775707671
 10
117.8702057404116
 20
78.75560071120151
 10
117.8702057404116
 20
64.75628651257296
 10
117.8691192356332
 20
64.73970965300737
 10
117.8658783116955
 20
64.72341642810488
 10
117.8605384217058
 20
64.70768561946079
 10
117.8531909326625
 20
64.69278638557273
 10
117.8439615621403
 20
64.67897365646309
 10
117.8330082272273
 20
64.66648377175682
 10
117.8205183425209
 20
64.65553043684383
 10
117.8067056134114
 20
64.64630106632148
 10
117.7918063795232
 20
64.63895357727824
 10
117.7760755708794
 20
64.63361368728863
 10
117.7597823459769
 20
64.63037276335103
 10
117.7432054864112
 20
64.62928625857251
  0
LWPOLYLINE
  5
67
100
AcDbEntity
  8
Multi-Layer
  6
ByLayer
 62
  256
370
   -1
100
AcDbPolyline
 90
   52
 70
    1
 43
0
 10
122.7922021844045
 20
64.62928625857251
 10
122.7756253248385
 20
64.63037276335103
 10
122.7593320999363
 20
64.63361368728863
 10
122.7436012912922
 20
64.63895357727824
 10
122.728702057404
 20
64.64630106632148
 10
122.7148893282947
 20
64.65553043684383
 10
122.7023994435881
 20
64.66648377175682
 10
122.6914461086751
 20
64.67897365646309
 10
122.6822167381529
 20
64.69278638557273
 10
122.6748692491096
 20
64.70768561946079
 10
122.6695293591199
 20
64.72341642810488
 10
122.6662884351822
 20
64.73970965300737
 10
122.6652019304038
 20
64.75628651257296
 10
122.6652019304038
 20
78.75560071120151
 10
122.6662884351822
 20
78.7721775707671
 10
122.6695293591199
 20
78.7884707956697
 10
122.6748692491096
 20
78.80420160431368
 10
122.6822167381529
 20
78.81910083820173
 10
122.6914461086751
 20
78.83291356731138
 10
122.7023994435881
 20
78.84540345201765
 10
122.7148893282947
 20
78.85635678693063
 10
122.728702057404
 20
78.86558615745298
 10
122.7436012912922
 20
78.87293364649622
 10
122.7593320999363
 20
78.87827353648584
 10
122.7756253248385
 20
78.88151446042343
 10
122.7922021844045
 20
78.88260096520196
 10
136.7931927863856
 20
78.88260096520196
 10
136.8097696459513
 20
78.88151446042343
 10
136.8260628708538
 20
78.87827353648584
 10
136.8417936794976
 20
78.87293364649622
 10
136.8566929133858
 20
78.86558615745298
 10
136.8705056424953
 20
78.85635678693063
 10
136.8829955272017
 20
78.84540345201765
 10
136.8939488621147
 20
78.83291356731138
 10
136.9031782326369
 20
78.81910083820173
 10
136.9105257216804
 20
78.80420160431368
 10
136.9158656116699
 20
78.7884707956697
 10
136.9191065356076
 20
78.7721775707671
 10
136.920193040386
 20
78.75560071120151
 10
136.920193040386
 20
64.75628651257296
 10
136.9191065356076
 20
64.73970965300737
 10
136.9158656116699
 20
64.72341642810488
 10
136.9105257216804
 20
64.70768561946079
 10
136.9031782326369
 20
64.69278638557273
 10
136.8939488621147
 20
64.67897365646309
 10
136.8829955272017
 20
64.66648377175682
 10
136.8705056424953
 20
64.65553043684383
 10
136.8566929133858
 20
64.64630106632148
 10
136.8417936794976
 20
64.63895357727824
 10
136.8260628708538
 20
64.63361368728863
 10
136.8097696459513
 20
64.63037276335103
 10
136.7931927863856
 20
64.62928625857251
  0
LWPOLYLINE
  5
68
100
AcDbEntity
  8
Multi-Layer
  6
ByLayer
 62
  256
370
   -1
100
AcDbPolyline
 90
   52
 70
    1
 43
0
 10
141.8441960883922
 20
64.62928625857251
 10
141.8276192288265
 20
64.63037276335103
 10
141.811326003924
 20
64.63361368728863
 10
141.7955951952802
 20
64.63895357727824
 10
141.780695961392
 20
64.64630106632148
 10
141.7668832322825
 20
64.65553043684383
 10
141.7543933475761
 20
64.66648377175682
 10
141.7434400126629
 20
64.67897365646309
 10
141.7342106421406
 20
64.69278638557273
 10
141.7268631530974
 20
64.70768561946079
 10
141.7215232631079
 20
64.72341642810488
 10
141.7182823391702
 20
64.73970965300737
 10
141.7171958343918
 20
64.75628651257296
 10
141.7171958343918
 20
78.75560071120151
 10
141.7182823391702
 20
78.7721775707671
 10
141.7215232631079
 20
78.7884707956697
 10
141.7268631530974
 20
78.80420160431368
 10
141.7342106421406
 20
78.81910083820173
 10
141.7434400126629
 20
78.83291356731138
 10
141.7543933475761
 20
78.84540345201765
 10
141.7668832322825
 20
78.85635678693063
 10
141.780695961392
 20
78.86558615745298
 10
141.7955951952802
 20
78.87293364649622
 10
141.811326003924
 20
78.87827353648584
 10
141.8276192288265
 20
78.88151446042343
 10
141.8441960883922
 20
78.88260096520196
 10
155.8432054864109
 20
78.88260096520196
 10
155.8597823459768
 20
78.88151446042343
 10
155.876075570879
 20
78.87827353648584
 10
155.8918063795229
 20
78.87293364649622
 10
155.9067056134111
 20
78.86558615745298
 10
155.9205183425206
 20
78.85635678693063
 10
155.9330082272272
 20
78.84540345201765
 10
155.9439615621402
 20
78.83291356731138
 10
155.9531909326624
 20
78.81910083820173
 10
155.9605384217057
 20
78.80420160431368
 10
155.9658783116954
 20
78.7884707956697
 10
155.9691192356329
 20
78.7721775707671
 10
155.9702057404115
 20
78.75560071120151
 10
155.9702057404115
 20
64.75628651257296
 10
155.9691192356329
 20
64.73970965300737
 10
155.9658783116954
 20
64.72341642810488
 10
155.9605384217057
 20
64.70768561946079
 10
155.9531909326624
 20
64.69278638557273
 10
155.9439615621402
 20
64.67897365646309
 10
155.9330082272272
 20
64.66648377175682
 10
155.9205183425206
 20
64.65553043684383
 10
155.9067056134111
 20
64.64630106632148
 10
155.8918063795229
 20
64.63895357727824
 10
155.876075570879
 20
64.63361368728863
 10
155.8597823459768
 20
64.63037276335103
 10
155.8432054864109
 20
64.62928625857251
  0
LWPOLYLINE
  5
69
100
AcDbEntity
  8
Multi-Layer
  6
ByLayer
 62
  256
370
   -1
100
AcDbPolyline
 90
   52
 70
    1
 43
0
 10
160.8942087884175
 20
64.62928625857251
 10
160.8776319288518
 20
64.63037276335103
 10
160.8613387039493
 20
64.63361368728863
 10
160.8456078953054
 20
64.63895357727824
 10
160.8307086614172
 20
64.64630106632148
 10
160.8168959323077
 20
64.65553043684383
 10
160.8044060476013
 20
64.66648377175682
 10
160.7934527126883
 20
64.67897365646309
 10
160.7842233421661
 20
64.69278638557273
 10
160.7768758531229
 20
64.70768561946079
 10
160.7715359631331
 20
64.72341642810488
 10
160.7682950391954
 20
64.73970965300737
 10
160.767208534417
 20
64.75628651257296
 10
160.767208534417
 20
78.75560071120151
 10
160.7682950391954
 20
78.7721775707671
 10
160.7715359631331
 20
78.7884707956697
 10
160.7768758531229
 20
78.80420160431368
 10
160.7842233421661
 20
78.81910083820173
 10
160.7934527126883
 20
78.83291356731138
 10
160.8044060476013
 20
78.84540345201765
 10
160.8168959323077
 20
78.85635678693063
 10
160.8307086614172
 20
78.86558615745298
 10
160.8456078953054
 20
78.87293364649622
 10
160.8613387039493
 20
78.87827353648584
 10
160.8776319288518
 20
78.88151446042343
 10
160.8942087884175
 20
78.88260096520196
 10
174.8931927863857
 20
78.88260096520196
 10
174.9097696459514
 20
78.88151446042343
 10
174.9260628708539
 20
78.87827353648584
 10
174.9417936794978
 20
78.87293364649622
 10
174.956692913386
 20
78.86558615745298
 10
174.9705056424955
 20
78.85635678693063
 10
174.9829955272019
 20
78.84540345201765
 10
174.9939488621148
 20
78.83291356731138
 10
175.0031782326371
 20
78.81910083820173
 10
175.0105257216803
 20
78.80420160431368
 10
175.0158656116701
 20
78.7884707956697
 10
175.0191065356078
 20
78.7721775707671
 10
175.0201930403862
 20
78.75560071120151
 10
175.0201930403862
 20
64.75628651257296
 10
175.0191065356078
 20
64.73970965300737
 10
175.0158656116701
 20
64.72341642810488
 10
175.0105257216803
 20
64.70768561946079
 10
175.0031782326371
 20
64.69278638557273
 10
174.9939488621148
 20
64.67897365646309
 10
174.9829955272019
 20
64.66648377175682
 10
174.9705056424955
 20
64.65553043684383
 10
174.956692913386
 20
64.64630106632148
 10
174.9417936794978
 20
64.63895357727824
 10
174.9260628708539
 20
64.63361368728863
 10
174.9097696459514
 20
64.63037276335103
 10
174.8931927863857
 20
64.62928625857251
  0
LWPOLYLINE
  5
6A
100
AcDbEntity
  8
Multi-Layer
  6
ByLayer
 62
  256
370
   -1
100
AcDbPolyline
 90
   52
 70
    1
 43
0
 10
179.9441960883923
 20
64.62928625857251
 10
179.9276192288264
 20
64.63037276335103
 10
179.9113260039242
 20
64.63361368728863
 10
179.8955951952803
 20
64.63895357727824
 10
179.8806959613921
 20
64.64630106632148
 10
179.8668832322826
 20
64.65553043684383
 10
179.854393347576
 20
64.66648377175682
 10
179.843440012663
 20
64.67897365646309
 10
179.8342106421408
 20
64.69278638557273
 10
179.8268631530975
 20
64.70768561946079
 10
179.8215232631078
 20
64.72341642810488
 10
179.8182823391703
 20
64.73970965300737
 10
179.8171958343917
 20
64.75628651257296
 10
179.8171958343917
 20
78.75560071120151
 10
179.8182823391703
 20
78.7721775707671
 10
179.8215232631078
 20
78.7884707956697
 10
179.8268631530975
 20
78.80420160431368
 10
179.8342106421408
 20
78.81910083820173
 10
179.843440012663
 20
78.83291356731138
 10
179.854393347576
 20
78.84540345201765
 10
179.8668832322826
 20
78.85635678693063
 10
179.8806959613921
 20
78.86558615745298
 10
179.8955951952803
 20
78.87293364649622
 10
179.9113260039242
 20
78.87827353648584
 10
179.9276192288264
 20
78.88151446042343
 10
179.9441960883923
 20
78.88260096520196
 10
193.943205486411
 20
78.88260096520196
 10
193.9597823459767
 20
78.88151446042343
 10
193.9760755708792
 20
78.87827353648584
 10
193.991806379523
 20
78.87293364649622
 10
194.0067056134112
 20
78.86558615745298
 10
194.0205183425207
 20
78.85635678693063
 10
194.0330082272271
 20
78.84540345201765
 10
194.0439615621403
 20
78.83291356731138
 10
194.0531909326626
 20
78.81910083820173
 10
194.0605384217058
 20
78.80420160431368
 10
194.0658783116953
 20
78.7884707956697
 10
194.069119235633
 20
78.7721775707671
 10
194.0702057404114
 20
78.75560071120151
 10
194.0702057404114
 20
64.75628651257296
 10
194.069119235633
 20
64.73970965300737
 10
194.0658783116953
 20
64.72341642810488
 10
194.0605384217058
 20
64.70768561946079
 10
194.0531909326626
 20
64.69278638557273
 10
194.0439615621403
 20
64.67897365646309
 10
194.0330082272271
 20
64.66648377175682
 10
194.0205183425207
 20
64.65553043684383
 10
194.0067056134112
 20
64.64630106632148
 10
193.991806379523
 20
64.63895357727824
 10
193.9760755708792
 20
64.63361368728863
 10
193.9597823459767
 20
64.63037276335103
 10
193.943205486411
 20
64.62928625857251
  0
LWPOLYLINE
  5
6B
100
AcDbEntity
  8
Multi-Layer
  6
ByLayer
 62
  256
370
   -1
100
AcDbPolyline
 90
   52
 70
    1
 43
0
 10
198.9942087884176
 20
64.62928625857251
 10
198.9776319288519
 20
64.63037276335103
 10
198.9613387039494
 20
64.63361368728863
 10
198.9456078953056
 20
64.63895357727824
 10
198.9307086614174
 20
64.64630106632148
 10
198.9168959323079
 20
64.65553043684383
 10
198.9044060476015
 20
64.66648377175682
 10
198.8934527126885
 20
64.67897365646309
 10
198.8842233421663
 20
64.69278638557273
 10
198.8768758531228
 20
64.70768561946079
 10
198.8715359631333
 20
64.72341642810488
 10
198.8682950391956
 20
64.73970965300737
 10
198.8672085344172
 20
64.75628651257296
 10
198.8672085344172
 20
78.75560071120151
 10
198.8682950391956
 20
78.7721775707671
 10
198.8715359631333
 20
78.7884707956697
 10
198.8768758531228
 20
78.80420160431368
 10
198.8842233421663
 20
78.81910083820173
 10
198.8934527126885
 20
78.83291356731138
 10
198.9044060476015
 20
78.84540345201765
 10
198.9168959323079
 20
78.85635678693063
 10
198.9307086614174
 20
78.86558615745298
 10
198.9456078953056
 20
78.87293364649622
 10
198.9613387039494
 20
78.87827353648584
 10
198.9776319288519
 20
78.88151446042343
 10
198.9942087884176
 20
78.88260096520196
 10
212.9931927863854
 20
78.88260096520196
 10
213.0097696459513
 20
78.88151446042343
 10
213.0260628708536
 20
78.87827353648584
 10
213.0417936794977
 20
78.87293364649622
 10
213.0566929133859
 20
78.86558615745298
 10
213.0705056424952
 20
78.85635678693063
 10
213.0829955272018
 20
78.84540345201765
 10
213.0939488621148
 20
78.83291356731138
 10
213.103178232637
 20
78.81910083820173
 10
213.1105257216802
 20
78.80420160431368
 10
213.11586561167
 20
78.7884707956697
 10
213.1191065356077
 20
78.7721775707671
 10
213.1201930403861
 20
78.75560071120151
 10
213.1201930403861
 20
64.75628651257296
 10
213.1191065356077
 20
64.73970965300737
 10
213.11586561167
 20
64.72341642810488
 10
213.1105257216802
 20
64.70768561946079
 10
213.103178232637
 20
64.69278638557273
 10
213.0939488621148
 20
64.67897365646309
 10
213.0829955272018
 20
64.66648377175682
 10
213.0705056424952
 20
64.65553043684383
 10
213.0566929133859
 20
64.64630106632148
 10
213.0417936794977
 20
64.63895357727824
 10
213.0260628708536
 20
64.63361368728863
 10
213.0097696459513
 20
64.63037276335103
 10
212.9931927863854
 20
64.62928625857251
  0
LWPOLYLINE
  5
6C
100
AcDbEntity
  8
Multi-Layer
  6
ByLayer
 62
  256
370
   -1
100
AcDbPolyline
 90
   52
 70
    1
 43
0
 10
218.044196088392
 20
64.62928625857251
 10
218.0276192288263
 20
64.63037276335103
 10
218.0113260039238
 20
64.63361368728863
 10
217.99559519528
 20
64.63895357727824
 10
217.9806959613918
 20
64.64630106632148
 10
217.9668832322823
 20
64.65553043684383
 10
217.9543933475759
 20
64.66648377175682
 10
217.9434400126629
 20
64.67897365646309
 10
217.9342106421407
 20
64.69278638557273
 10
217.9268631530974
 20
64.70768561946079
 10
217.9215232631077
 20
64.72341642810488
 10
217.91828233917
 20
64.73970965300737
 10
217.9171958343916
 20
64.75628651257296
 10
217.9171958343916
 20
78.75560071120151
 10
217.91828233917
 20
78.7721775707671
 10
217.9215232631077
 20
78.7884707956697
 10
217.9268631530974
 20
78.80420160431368
 10
217.9342106421407
 20
78.81910083820173
 10
217.9434400126629
 20
78.83291356731138
 10
217.9543933475759
 20
78.84540345201765
 10
217.9668832322823
 20
78.85635678693063
 10
217.9806959613918
 20
78.86558615745298
 10
217.99559519528
 20
78.87293364649622
 10
218.0113260039238
 20
78.87827353648584
 10
218.0276192288263
 20
78.88151446042343
 10
218.044196088392
 20
78.88260096520196
 10
232.0432054864111
 20
78.88260096520196
 10
232.0597823459768
 20
78.88151446042343
 10
232.0760755708793
 20
78.87827353648584
 10
232.0918063795232
 20
78.87293364649622
 10
232.1067056134113
 20
78.86558615745298
 10
232.1205183425209
 20
78.85635678693063
 10
232.1330082272273
 20
78.84540345201765
 10
232.1439615621402
 20
78.83291356731138
 10
232.1531909326625
 20
78.81910083820173
 10
232.160538421706
 20
78.80420160431368
 10
232.1658783116955
 20
78.7884707956697
 10
232.1691192356332
 20
78.7721775707671
 10
232.1702057404116
 20
78.75560071120151
 10
232.1702057404116
 20
64.75628651257296
 10
232.1691192356332
 20
64.73970965300737
 10
232.1658783116955
 20
64.72341642810488
 10
232.160538421706
 20
64.70768561946079
 10
232.1531909326625
 20
64.69278638557273
 10
232.1439615621402
 20
64.67897365646309
 10
232.1330082272273
 20
64.66648377175682
 10
232.1205183425209
 20
64.65553043684383
 10
232.1067056134113
 20
64.64630106632148
 10
232.0918063795232
 20
64.63895357727824
 10
232.0760755708793
 20
64.63361368728863
 10
232.0597823459768
 20
64.63037276335103
 10
232.0432054864111
 20
64.62928625857251
  0
LWPOLYLINE
  5
6D
100
AcDbEntity
  8
Multi-Layer
  6
ByLayer
 62
  256
370
   -1
100
AcDbPolyline
 90
   52
 70
    1
 43
0
 10
218.044196088392
 20
45.57929895859797
 10
218.0276192288263
 20
45.58038546337662
 10
218.0113260039238
 20
45.5836263873141
 10
217.99559519528
 20
45.58896627730371
 10
217.9806959613918
 20
45.59631376634707
 10
217.9668832322823
 20
45.60554313686941
 10
217.9543933475759
 20
45.61649647178228
 10
217.9434400126629
 20
45.62898635648867
 10
217.9342106421407
 20
45.6427990855982
 10
217.9268631530974
 20
45.65769831948626
 10
217.9215232631077
 20
45.67342912813035
 10
217.91828233917
 20
45.68972235303283
 10
217.9171958343916
 20
45.70629921259854
 10
217.9171958343916
 20
59.70558801117602
 10
217.91828233917
 20
59.72216487074172
 10
217.9215232631077
 20
59.73845809564421
 10
217.9268631530974
 20
59.75418890428818
 10
217.9342106421407
 20
59.76908813817624
 10
217.9434400126629
 20
59.78290086728589
 10
217.9543933475759
 20
59.79539075199227
 10
217.9668832322823
 20
59.80634408690514
 10
217.9806959613918
 20
59.81557345742749
 10
217.99559519528
 20
59.82292094647084
 10
218.0113260039238
 20
59.82826083646034
 10
218.0276192288263
 20
59.83150176039794
 10
218.044196088392
 20
59.83258826517658
 10
232.0432054864111
 20
59.83258826517658
 10
232.0597823459768
 20
59.83150176039794
 10
232.0760755708793
 20
59.82826083646034
 10
232.0918063795232
 20
59.82292094647084
 10
232.1067056134113
 20
59.81557345742749
 10
232.1205183425209
 20
59.80634408690514
 10
232.1330082272273
 20
59.79539075199227
 10
232.1439615621402
 20
59.78290086728589
 10
232.1531909326625
 20
59.76908813817624
 10
232.160538421706
 20
59.75418890428818
 10
232.1658783116955
 20
59.73845809564421
 10
232.1691192356332
 20
59.72216487074172
 10
232.1702057404116
 20
59.70558801117602
 10
232.1702057404116
 20
45.70629921259854
 10
232.1691192356332
 20
45.68972235303283
 10
232.1658783116955
 20
45.67342912813035
 10
232.160538421706
 20
45.65769831948626
 10
232.1531909326625
 20
45.6427990855982
 10
232.1439615621402
 20
45.62898635648867
 10
232.1330082272273
 20
45.61649647178228
 10
232.1205183425209
 20
45.60554313686941
 10
232.1067056134113
 20
45.59631376634707
 10
232.0918063795232
 20
45.58896627730371
 10
232.0760755708793
 20
45.5836263873141
 10
232.0597823459768
 20
45.58038546337662
 10
232.0432054864111
 20
45.57929895859797
  0
LWPOLYLINE
  5
6E
100
AcDbEntity
  8
Multi-Layer
  6
ByLayer
 62
  256
370
   -1
100
AcDbPolyline
 90
   52
 70
    1
 43
0
 10
198.9942087884176
 20
45.57929895859797
 10
198.9776319288519
 20
45.58038546337662
 10
198.9613387039494
 20
45.5836263873141
 10
198.9456078953056
 20
45.58896627730371
 10
198.9307086614174
 20
45.59631376634707
 10
198.9168959323079
 20
45.60554313686941
 10
198.9044060476015
 20
45.61649647178228
 10
198.8934527126885
 20
45.62898635648867
 10
198.8842233421663
 20
45.6427990855982
 10
198.8768758531228
 20
45.65769831948626
 10
198.8715359631333
 20
45.67342912813035
 10
198.8682950391956
 20
45.68972235303283
 10
198.8672085344172
 20
45.70629921259854
 10
198.8672085344172
 20
59.70558801117602
 10
198.8682950391956
 20
59.72216487074172
 10
198.8715359631333
 20
59.73845809564421
 10
198.8768758531228
 20
59.75418890428818
 10
198.8842233421663
 20
59.76908813817624
 10
198.8934527126885
 20
59.78290086728589
 10
198.9044060476015
 20
59.79539075199227
 10
198.9168959323079
 20
59.80634408690514
 10
198.9307086614174
 20
59.81557345742749
 10
198.9456078953056
 20
59.82292094647084
 10
198.9613387039494
 20
59.82826083646034
 10
198.9776319288519
 20
59.83150176039794
 10
198.9942087884176
 20
59.83258826517658
 10
212.9931927863854
 20
59.83258826517658
 10
213.0097696459513
 20
59.83150176039794
 10
213.0260628708536
 20
59.82826083646034
 10
213.0417936794977
 20
59.82292094647084
 10
213.0566929133859
 20
59.81557345742749
 10
213.0705056424952
 20
59.80634408690514
 10
213.0829955272018
 20
59.79539075199227
 10
213.0939488621148
 20
59.78290086728589
 10
213.103178232637
 20
59.76908813817624
 10
213.1105257216802
 20
59.75418890428818
 10
213.11586561167
 20
59.73845809564421
 10
213.1191065356077
 20
59.72216487074172
 10
213.1201930403861
 20
59.70558801117602
 10
213.1201930403861
 20
45.70629921259854
 10
213.1191065356077
 20
45.68972235303283
 10
213.11586561167
 20
45.67342912813035
 10
213.1105257216802
 20
45.65769831948626
 10
213.103178232637
 20
45.6427990855982
 10
213.0939488621148
 20
45.62898635648867
 10
213.0829955272018
 20
45.61649647178228
 10
213.0705056424952
 20
45.60554313686941
 10
213.0566929133859
 20
45.59631376634707
 10
213.0417936794977
 20
45.58896627730371
 10
213.0260628708536
 20
45.5836263873141
 10
213.0097696459513
 20
45.58038546337662
 10
212.9931927863854
 20
45.57929895859797
  0
LWPOLYLINE
  5
6F
100
AcDbEntity
  8
Multi-Layer
  6
ByLayer
 62
  256
370
   -1
100
AcDbPolyline
 90
   52
 70
    1
 43
0
 10
179.9441960883923
 20
45.57929895859797
 10
179.9276192288264
 20
45.58038546337662
 10
179.9113260039242
 20
45.5836263873141
 10
179.8955951952803
 20
45.58896627730371
 10
179.8806959613921
 20
45.59631376634707
 10
179.8668832322826
 20
45.60554313686941
 10
179.854393347576
 20
45.61649647178228
 10
179.843440012663
 20
45.62898635648867
 10
179.8342106421408
 20
45.6427990855982
 10
179.8268631530975
 20
45.65769831948626
 10
179.8215232631078
 20
45.67342912813035
 10
179.8182823391703
 20
45.68972235303283
 10
179.8171958343917
 20
45.70629921259854
 10
179.8171958343917
 20
59.70558801117602
 10
179.8182823391703
 20
59.72216487074172
 10
179.8215232631078
 20
59.73845809564421
 10
179.8268631530975
 20
59.75418890428818
 10
179.8342106421408
 20
59.76908813817624
 10
179.843440012663
 20
59.78290086728589
 10
179.854393347576
 20
59.79539075199227
 10
179.8668832322826
 20
59.80634408690514
 10
179.8806959613921
 20
59.81557345742749
 10
179.8955951952803
 20
59.82292094647084
 10
179.9113260039242
 20
59.82826083646034
 10
179.9276192288264
 20
59.83150176039794
 10
179.9441960883923
 20
59.83258826517658
 10
193.943205486411
 20
59.83258826517658
 10
193.9597823459767
 20
59.83150176039794
 10
193.9760755708792
 20
59.82826083646034
 10
193.991806379523
 20
59.82292094647084
 10
194.0067056134112
 20
59.81557345742749
 10
194.0205183425207
 20
59.80634408690514
 10
194.0330082272271
 20
59.79539075199227
 10
194.0439615621403
 20
59.78290086728589
 10
194.0531909326626
 20
59.76908813817624
 10
194.0605384217058
 20
59.75418890428818
 10
194.0658783116953
 20
59.73845809564421
 10
194.069119235633
 20
59.72216487074172
 10
194.0702057404114
 20
59.70558801117602
 10
194.0702057404114
 20
45.70629921259854
 10
194.069119235633
 20
45.68972235303283
 10
194.0658783116953
 20
45.67342912813035
 10
194.0605384217058
 20
45.65769831948626
 10
194.0531909326626
 20
45.6427990855982
 10
194.0439615621403
 20
45.62898635648867
 10
194.0330082272271
 20
45.61649647178228
 10
194.0205183425207
 20
45.60554313686941
 10
194.0067056134112
 20
45.59631376634707
 10
193.991806379523
 20
45.58896627730371
 10
193.9760755708792
 20
45.5836263873141
 10
193.9597823459767
 20
45.58038546337662
 10
193.943205486411
 20
45.57929895859797
  0
LWPOLYLINE
  5
70
100
AcDbEntity
  8
Multi-Layer
  6
ByLayer
 62
  256
370
   -1
100
AcDbPolyline
 90
   52
 70
    1
 43
0
 10
160.8942087884175
 20
45.57929895859797
 10
160.8776319288518
 20
45.58038546337662
 10
160.8613387039493
 20
45.5836263873141
 10
160.8456078953054
 20
45.58896627730371
 10
160.8307086614172
 20
45.59631376634707
 10
160.8168959323077
 20
45.60554313686941
 10
160.8044060476013
 20
45.61649647178228
 10
160.7934527126883
 20
45.62898635648867
 10
160.7842233421661
 20
45.6427990855982
 10
160.7768758531229
 20
45.65769831948626
 10
160.7715359631331
 20
45.67342912813035
 10
160.7682950391954
 20
45.68972235303283
 10
160.767208534417
 20
45.70629921259854
 10
160.767208534417
 20
59.70558801117602
 10
160.7682950391954
 20
59.72216487074172
 10
160.7715359631331
 20
59.73845809564421
 10
160.7768758531229
 20
59.75418890428818
 10
160.7842233421661
 20
59.76908813817624
 10
160.7934527126883
 20
59.78290086728589
 10
160.8044060476013
 20
59.79539075199227
 10
160.8168959323077
 20
59.80634408690514
 10
160.8307086614172
 20
59.81557345742749
 10
160.8456078953054
 20
59.82292094647084
 10
160.8613387039493
 20
59.82826083646034
 10
160.8776319288518
 20
59.83150176039794
 10
160.8942087884175
 20
59.83258826517658
 10
174.8931927863857
 20
59.83258826517658
 10
174.9097696459514
 20
59.83150176039794
 10
174.9260628708539
 20
59.82826083646034
 10
174.9417936794978
 20
59.82292094647084
 10
174.956692913386
 20
59.81557345742749
 10
174.9705056424955
 20
59.80634408690514
 10
174.9829955272019
 20
59.79539075199227
 10
174.9939488621148
 20
59.78290086728589
 10
175.0031782326371
 20
59.76908813817624
 10
175.0105257216803
 20
59.75418890428818
 10
175.0158656116701
 20
59.73845809564421
 10
175.0191065356078
 20
59.72216487074172
 10
175.0201930403862
 20
59.70558801117602
 10
175.0201930403862
 20
45.70629921259854
 10
175.0191065356078
 20
45.68972235303283
 10
175.0158656116701
 20
45.67342912813035
 10
175.0105257216803
 20
45.65769831948626
 10
175.0031782326371
 20
45.6427990855982
 10
174.9939488621148
 20
45.62898635648867
 10
174.9829955272019
 20
45.61649647178228
 10
174.9705056424955
 20
45.60554313686941
 10
174.956692913386
 20
45.59631376634707
 10
174.9417936794978
 20
45.58896627730371
 10
174.9260628708539
 20
45.5836263873141
 10
174.9097696459514
 20
45.58038546337662
 10
174.8931927863857
 20
45.57929895859797
  0
LWPOLYLINE
  5
71
100
AcDbEntity
  8
Multi-Layer
  6
ByLayer
 62
  256
370
   -1
100
AcDbPolyline
 90
   52
 70
    1
 43
0
 10
141.8441960883922
 20
45.57929895859797
 10
141.8276192288265
 20
45.58038546337662
 10
141.811326003924
 20
45.5836263873141
 10
141.7955951952802
 20
45.58896627730371
 10
141.780695961392
 20
45.59631376634707
 10
141.7668832322825
 20
45.60554313686941
 10
141.7543933475761
 20
45.61649647178228
 10
141.7434400126629
 20
45.62898635648867
 10
141.7342106421406
 20
45.6427990855982
 10
141.7268631530974
 20
45.65769831948626
 10
141.7215232631079
 20
45.67342912813035
 10
141.7182823391702
 20
45.68972235303283
 10
141.7171958343918
 20
45.70629921259854
 10
141.7171958343918
 20
59.70558801117602
 10
141.7182823391702
 20
59.72216487074172
 10
141.7215232631079
 20
59.73845809564421
 10
141.7268631530974
 20
59.75418890428818
 10
141.7342106421406
 20
59.76908813817624
 10
141.7434400126629
 20
59.78290086728589
 10
141.7543933475761
 20
59.79539075199227
 10
141.7668832322825
 20
59.80634408690514
 10
141.780695961392
 20
59.81557345742749
 10
141.7955951952802
 20
59.82292094647084
 10
141.811326003924
 20
59.82826083646034
 10
141.8276192288265
 20
59.83150176039794
 10
141.8441960883922
 20
59.83258826517658
 10
155.8432054864109
 20
59.83258826517658
 10
155.8597823459768
 20
59.83150176039794
 10
155.876075570879
 20
59.82826083646034
 10
155.8918063795229
 20
59.82292094647084
 10
155.9067056134111
 20
59.81557345742749
 10
155.9205183425206
 20
59.80634408690514
 10
155.9330082272272
 20
59.79539075199227
 10
155.9439615621402
 20
59.78290086728589
 10
155.9531909326624
 20
59.76908813817624
 10
155.9605384217057
 20
59.75418890428818
 10
155.9658783116954
 20
59.73845809564421
 10
155.9691192356329
 20
59.72216487074172
 10
155.9702057404115
 20
59.70558801117602
 10
155.9702057404115
 20
45.70629921259854
 10
155.9691192356329
 20
45.68972235303283
 10
155.9658783116954
 20
45.67342912813035
 10
155.9605384217057
 20
45.65769831948626
 10
155.9531909326624
 20
45.6427990855982
 10
155.9439615621402
 20
45.62898635648867
 10
155.9330082272272
 20
45.61649647178228
 10
155.9205183425206
 20
45.60554313686941
 10
155.9067056134111
 20
45.59631376634707
 10
155.8918063795229
 20
45.58896627730371
 10
155.876075570879
 20
45.5836263873141
 10
155.8597823459768
 20
45.58038546337662
 10
155.8432054864109
 20
45.57929895859797
  0
LWPOLYLINE
  5
72
100
AcDbEntity
  8
Multi-Layer
  6
ByLayer
 62
  256
370
   -1
100
AcDbPolyline
 90
   52
 70
    1
 43
0
 10
122.7922021844045
 20
45.57929895859797
 10
122.7756253248385
 20
45.58038546337662
 10
122.7593320999363
 20
45.5836263873141
 10
122.7436012912922
 20
45.58896627730371
 10
122.728702057404
 20
45.59631376634707
 10
122.7148893282947
 20
45.60554313686941
 10
122.7023994435881
 20
45.61649647178228
 10
122.6914461086751
 20
45.62898635648867
 10
122.6822167381529
 20
45.6427990855982
 10
122.6748692491096
 20
45.65769831948626
 10
122.6695293591199
 20
45.67342912813035
 10
122.6662884351822
 20
45.68972235303283
 10
122.6652019304038
 20
45.70629921259854
 10
122.6652019304038
 20
59.70558801117602
 10
122.6662884351822
 20
59.72216487074172
 10
122.6695293591199
 20
59.73845809564421
 10
122.6748692491096
 20
59.75418890428818
 10
122.6822167381529
 20
59.76908813817624
 10
122.6914461086751
 20
59.78290086728589
 10
122.7023994435881
 20
59.79539075199227
 10
122.7148893282947
 20
59.80634408690514
 10
122.728702057404
 20
59.81557345742749
 10
122.7436012912922
 20
59.82292094647084
 10
122.7593320999363
 20
59.82826083646034
 10
122.7756253248385
 20
59.83150176039794
 10
122.7922021844045
 20
59.83258826517658
 10
136.7931927863856
 20
59.83258826517658
 10
136.8097696459513
 20
59.83150176039794
 10
136.8260628708538
 20
59.82826083646034
 10
136.8417936794976
 20
59.82292094647084
 10
136.8566929133858
 20
59.81557345742749
 10
136.8705056424953
 20
59.80634408690514
 10
136.8829955272017
 20
59.79539075199227
 10
136.8939488621147
 20
59.78290086728589
 10
136.9031782326369
 20
59.76908813817624
 10
136.9105257216804
 20
59.75418890428818
 10
136.9158656116699
 20
59.73845809564421
 10
136.9191065356076
 20
59.72216487074172
 10
136.920193040386
 20
59.70558801117602
 10
136.920193040386
 20
45.70629921259854
 10
136.9191065356076
 20
45.68972235303283
 10
136.9158656116699
 20
45.67342912813035
 10
136.9105257216804
 20
45.65769831948626
 10
136.9031782326369
 20
45.6427990855982
 10
136.8939488621147
 20
45.62898635648867
 10
136.8829955272017
 20
45.61649647178228
 10
136.8705056424953
 20
45.60554313686941
 10
136.8566929133858
 20
45.59631376634707
 10
136.8417936794976
 20
45.58896627730371
 10
136.8260628708538
 20
45.5836263873141
 10
136.8097696459513
 20
45.58038546337662
 10
136.7931927863856
 20
45.57929895859797
  0
LWPOLYLINE
  5
73
100
AcDbEntity
  8
Multi-Layer
  6
ByLayer
 62
  256
370
   -1
100
AcDbPolyline
 90
   52
 70
    1
 43
0
 10
103.7424942849884
 20
45.57929895859797
 10
103.7259174254227
 20
45.58038546337662
 10
103.7096242005202
 20
45.5836263873141
 10
103.6938933918764
 20
45.58896627730371
 10
103.6789941579882
 20
45.59631376634707
 10
103.6651814288787
 20
45.60554313686941
 10
103.6526915441723
 20
45.61649647178228
 10
103.6417382092593
 20
45.62898635648867
 10
103.6325088387371
 20
45.6427990855982
 10
103.6251613496938
 20
45.65769831948626
 10
103.6198214597041
 20
45.67342912813035
 10
103.6165805357664
 20
45.68972235303283
 10
103.615494030988
 20
45.70629921259854
 10
103.615494030988
 20
59.70558801117602
 10
103.6165805357664
 20
59.72216487074172
 10
103.6198214597041
 20
59.73845809564421
 10
103.6251613496938
 20
59.75418890428818
 10
103.6325088387371
 20
59.76908813817624
 10
103.6417382092593
 20
59.78290086728589
 10
103.6526915441723
 20
59.79539075199227
 10
103.6651814288787
 20
59.80634408690514
 10
103.6789941579882
 20
59.81557345742749
 10
103.6938933918764
 20
59.82292094647084
 10
103.7096242005202
 20
59.82826083646034
 10
103.7259174254227
 20
59.83150176039794
 10
103.7424942849884
 20
59.83258826517658
 10
117.7432054864112
 20
59.83258826517658
 10
117.7597823459769
 20
59.83150176039794
 10
117.7760755708794
 20
59.82826083646034
 10
117.7918063795232
 20
59.82292094647084
 10
117.8067056134114
 20
59.81557345742749
 10
117.8205183425209
 20
59.80634408690514
 10
117.8330082272273
 20
59.79539075199227
 10
117.8439615621403
 20
59.78290086728589
 10
117.8531909326625
 20
59.76908813817624
 10
117.8605384217058
 20
59.75418890428818
 10
117.8658783116955
 20
59.73845809564421
 10
117.8691192356332
 20
59.72216487074172
 10
117.8702057404116
 20
59.70558801117602
 10
117.8702057404116
 20
45.70629921259854
 10
117.8691192356332
 20
45.68972235303283
 10
117.8658783116955
 20
45.67342912813035
 10
117.8605384217058
 20
45.65769831948626
 10
117.8531909326625
 20
45.6427990855982
 10
117.8439615621403
 20
45.62898635648867
 10
117.8330082272273
 20
45.61649647178228
 10
117.8205183425209
 20
45.60554313686941
 10
117.8067056134114
 20
45.59631376634707
 10
117.7918063795232
 20
45.58896627730371
 10
117.7760755708794
 20
45.5836263873141
 10
117.7597823459769
 20
45.58038546337662
 10
117.7432054864112
 20
45.57929895859797
  0
LWPOLYLINE
  5
74
100
AcDbEntity
  8
Multi-Layer
  6
ByLayer
 62
  256
370
   -1
100
AcDbPolyline
 90
   52
 70
    1
 43
0
 10
84.69390398780797
 20
45.57929895859797
 10
84.67732712824227
 20
45.58038546337662
 10
84.66103390334001
 20
45.5836263873141
 10
84.64530309469592
 20
45.58896627730371
 10
84.63040386080775
 20
45.59631376634707
 10
84.61659113169844
 20
45.60554313686941
 10
84.60410124699183
 20
45.61649647178228
 10
84.59314791207885
 20
45.62898635648867
 10
84.58391854155661
 20
45.6427990855982
 10
84.57657105251337
 20
45.65769831948626
 10
84.57123116252365
 20
45.67342912813035
 10
84.56799023858594
 20
45.68972235303283
 10
84.56690373380752
 20
45.70629921259854
 10
84.56690373380752
 20
59.70558801117602
 10
84.56799023858594
 20
59.72216487074172
 10
84.57123116252365
 20
59.73845809564421
 10
84.57657105251337
 20
59.75418890428818
 10
84.58391854155661
 20
59.76908813817624
 10
84.59314791207885
 20
59.78290086728589
 10
84.60410124699183
 20
59.79539075199227
 10
84.61659113169844
 20
59.80634408690514
 10
84.63040386080775
 20
59.81557345742749
 10
84.64530309469592
 20
59.82292094647084
 10
84.66103390334001
 20
59.82826083646034
 10
84.67732712824227
 20
59.83150176039794
 10
84.69390398780797
 20
59.83258826517658
 10
98.69319278638545
 20
59.83258826517658
 10
98.70976964595116
 20
59.83150176039794
 10
98.72606287085364
 20
59.82826083646034
 10
98.7417936794975
 20
59.82292094647084
 10
98.75669291338568
 20
59.81557345742749
 10
98.77050564249521
 20
59.80634408690514
 10
98.78299552720159
 20
59.79539075199227
 10
98.7939488621148
 20
59.78290086728589
 10
98.80317823263704
 20
59.76908813817624
 10
98.81052572168028
 20
59.75418890428818
 10
98.81586561166978
 20
59.73845809564421
 10
98.81910653560749
 20
59.72216487074172
 10
98.8201930403859
 20
59.70558801117602
 10
98.8201930403859
 20
45.70629921259854
 10
98.81910653560749
 20
45.68972235303283
 10
98.81586561166978
 20
45.67342912813035
 10
98.81052572168028
 20
45.65769831948626
 10
98.80317823263704
 20
45.6427990855982
 10
98.7939488621148
 20
45.62898635648867
 10
98.78299552720159
 20
45.61649647178228
 10
98.77050564249521
 20
45.60554313686941
 10
98.75669291338568
 20
45.59631376634707
 10
98.7417936794975
 20
45.58896627730371
 10
98.72606287085364
 20
45.5836263873141
 10
98.70976964595116
 20
45.58038546337662
 10
98.69319278638545
 20
45.57929895859797
  0
LWPOLYLINE
  5
75
100
AcDbEntity
  8
Multi-Layer
  6
ByLayer
 62
  256
370
   -1
100
AcDbPolyline
 90
   52
 70
    1
 43
0
 10
65.64389128778248
 20
45.57929895859797
 10
65.62731442821678
 20
45.58038546337662
 10
65.61102120331429
 20
45.5836263873141
 10
65.59529039467043
 20
45.58896627730371
 10
65.58039116078226
 20
45.59631376634707
 10
65.56657843167272
 20
45.60554313686941
 10
65.55408854696634
 20
45.61649647178228
 10
65.54313521205336
 20
45.62898635648867
 10
65.53390584153112
 20
45.6427990855982
 10
65.52655835248765
 20
45.65769831948626
 10
65.52121846249815
 20
45.67342912813035
 10
65.51797753856044
 20
45.68972235303283
 10
65.51689103378203
 20
45.70629921259854
 10
65.51689103378203
 20
59.70558801117602
 10
65.51797753856044
 20
59.72216487074172
 10
65.52121846249815
 20
59.73845809564421
 10
65.52655835248765
 20
59.75418890428818
 10
65.53390584153112
 20
59.76908813817624
 10
65.54313521205336
 20
59.78290086728589
 10
65.55408854696634
 20
59.79539075199227
 10
65.56657843167272
 20
59.80634408690514
 10
65.58039116078226
 20
59.81557345742749
 10
65.59529039467043
 20
59.82292094647084
 10
65.61102120331429
 20
59.82826083646034
 10
65.62731442821678
 20
59.83150176039794
 10
65.64389128778248
 20
59.83258826517658
 10
79.64320548641103
 20
59.83258826517658
 10
79.65978234597674
 20
59.83150176039794
 10
79.67607557087922
 20
59.82826083646034
 10
79.69180637952309
 20
59.82292094647084
 10
79.70670561341126
 20
59.81557345742749
 10
79.72051834252079
 20
59.80634408690514
 10
79.73300822722717
 20
59.79539075199227
 10
79.74396156214016
 20
59.78290086728589
 10
79.75319093266239
 20
59.76908813817624
 10
79.76053842170586
 20
59.75418890428818
 10
79.76587831169536
 20
59.73845809564421
 10
79.76911923563307
 20
59.72216487074172
 10
79.77020574041148
 20
59.70558801117602
 10
79.77020574041148
 20
45.70629921259854
 10
79.76911923563307
 20
45.68972235303283
 10
79.76587831169536
 20
45.67342912813035
 10
79.76053842170586
 20
45.65769831948626
 10
79.75319093266239
 20
45.6427990855982
 10
79.74396156214016
 20
45.62898635648867
 10
79.73300822722717
 20
45.61649647178228
 10
79.72051834252079
 20
45.60554313686941
 10
79.70670561341126
 20
45.59631376634707
 10
79.69180637952309
 20
45.58896627730371
 10
79.67607557087922
 20
45.5836263873141
 10
79.65978234597674
 20
45.58038546337662
 10
79.64320548641103
 20
45.57929895859797
  0
LWPOLYLINE
  5
76
100
AcDbEntity
  8
Multi-Layer
  6
ByLayer
 62
  256
370
   -1
100
AcDbPolyline
 90
   52
 70
    1
 43
0
 10
46.59390398780806
 20
45.57929895859797
 10
46.57732712824236
 20
45.58038546337662
 10
46.56103390333988
 20
45.5836263873141
 10
46.54530309469601
 20
45.58896627730371
 10
46.53040386080784
 20
45.59631376634707
 10
46.51659113169831
 20
45.60554313686941
 10
46.50410124699192
 20
45.61649647178228
 10
46.49314791207871
 20
45.62898635648867
 10
46.48391854155648
 20
45.6427990855982
 10
46.47657105251324
 20
45.65769831948626
 10
46.47123116252374
 20
45.67342912813035
 10
46.46799023858603
 20
45.68972235303283
 10
46.46690373380738
 20
45.70629921259854
 10
46.46690373380738
 20
59.70558801117602
 10
46.46799023858603
 20
59.72216487074172
 10
46.47123116252374
 20
59.73845809564421
 10
46.47657105251324
 20
59.75418890428818
 10
46.48391854155648
 20
59.76908813817624
 10
46.49314791207871
 20
59.78290086728589
 10
46.50410124699192
 20
59.79539075199227
 10
46.51659113169831
 20
59.80634408690514
 10
46.53040386080784
 20
59.81557345742749
 10
46.54530309469601
 20
59.82292094647084
 10
46.56103390333988
 20
59.82826083646034
 10
46.57732712824236
 20
59.83150176039794
 10
46.59390398780806
 20
59.83258826517658
 10
60.59319278638554
 20
59.83258826517658
 10
60.60976964595147
 20
59.83150176039794
 10
60.62606287085373
 20
59.82826083646034
 10
60.64179367949782
 20
59.82292094647084
 10
60.656692913386
 20
59.81557345742749
 10
60.6705056424953
 20
59.80634408690514
 10
60.68299552720191
 20
59.79539075199227
 10
60.69394886211489
 20
59.78290086728589
 10
60.70317823263713
 20
59.76908813817624
 10
60.71052572168037
 20
59.75418890428818
 10
60.7158656116701
 20
59.73845809564421
 10
60.71910653560781
 20
59.72216487074172
 10
60.72019304038622
 20
59.70558801117602
 10
60.72019304038622
 20
45.70629921259854
 10
60.71910653560781
 20
45.68972235303283
 10
60.7158656116701
 20
45.67342912813035
 10
60.71052572168037
 20
45.65769831948626
 10
60.70317823263713
 20
45.6427990855982
 10
60.69394886211489
 20
45.62898635648867
 10
60.68299552720191
 20
45.61649647178228
 10
60.6705056424953
 20
45.60554313686941
 10
60.656692913386
 20
45.59631376634707
 10
60.64179367949782
 20
45.58896627730371
 10
60.62606287085373
 20
45.5836263873141
 10
60.60976964595147
 20
45.58038546337662
 10
60.59319278638554
 20
45.57929895859797
  0
LWPOLYLINE
  5
77
100
AcDbEntity
  8
Multi-Layer
  6
ByLayer
 62
  256
370
   -1
100
AcDbPolyline
 90
   52
 70
    1
 43
0
 10
27.54389128778257
 20
45.57929895859797
 10
27.52731442821687
 20
45.58038546337662
 10
27.51102120331439
 20
45.5836263873141
 10
27.49529039467052
 20
45.58896627730371
 10
27.48039116078235
 20
45.59631376634707
 10
27.46657843167281
 20
45.60554313686941
 10
27.45408854696643
 20
45.61649647178228
 10
27.44313521205345
 20
45.62898635648867
 10
27.43390584153121
 20
45.6427990855982
 10
27.42655835248797
 20
45.65769831948626
 10
27.42121846249825
 20
45.67342912813035
 10
27.41797753856054
 20
45.68972235303283
 10
27.41689103378212
 20
45.70629921259854
 10
27.41689103378212
 20
59.70558801117602
 10
27.41797753856054
 20
59.72216487074172
 10
27.42121846249825
 20
59.73845809564421
 10
27.42655835248797
 20
59.75418890428818
 10
27.43390584153121
 20
59.76908813817624
 10
27.44313521205345
 20
59.78290086728589
 10
27.45408854696643
 20
59.79539075199227
 10
27.46657843167281
 20
59.80634408690514
 10
27.48039116078235
 20
59.81557345742749
 10
27.49529039467052
 20
59.82292094647084
 10
27.51102120331439
 20
59.82826083646034
 10
27.52731442821687
 20
59.83150176039794
 10
27.54389128778257
 20
59.83258826517658
 10
41.5432054864109
 20
59.83258826517658
 10
41.5597823459766
 20
59.83150176039794
 10
41.57607557087908
 20
59.82826083646034
 10
41.59180637952295
 20
59.82292094647084
 10
41.60670561341112
 20
59.81557345742749
 10
41.62051834252065
 20
59.80634408690514
 10
41.63300822722704
 20
59.79539075199227
 10
41.64396156214025
 20
59.78290086728589
 10
41.65319093266248
 20
59.76908813817624
 10
41.66053842170572
 20
59.75418890428818
 10
41.66587831169522
 20
59.73845809564421
 10
41.66911923563293
 20
59.72216487074172
 10
41.67020574041135
 20
59.70558801117602
 10
41.67020574041135
 20
45.70629921259854
 10
41.66911923563293
 20
45.68972235303283
 10
41.66587831169522
 20
45.67342912813035
 10
41.66053842170572
 20
45.65769831948626
 10
41.65319093266248
 20
45.6427990855982
 10
41.64396156214025
 20
45.62898635648867
 10
41.63300822722704
 20
45.61649647178228
 10
41.62051834252065
 20
45.60554313686941
 10
41.60670561341112
 20
45.59631376634707
 10
41.59180637952295
 20
45.58896627730371
 10
41.57607557087908
 20
45.5836263873141
 10
41.5597823459766
 20
45.58038546337662
 10
41.5432054864109
 20
45.57929895859797
  0
LWPOLYLINE
  5
78
100
AcDbEntity
  8
Multi-Layer
  6
ByLayer
 62
  256
370
   -1
100
AcDbPolyline
 90
   52
 70
    1
 43
0
 10
8.493853187706463
 20
45.57929895859797
 10
8.477276328140761
 20
45.58038546337662
 10
8.460983103238277
 20
45.5836263873141
 10
8.445252294594184
 20
45.58896627730371
 10
8.430353060706238
 20
45.59631376634707
 10
8.41654033159648
 20
45.60554313686941
 10
8.404050446890324
 20
45.61649647178228
 10
8.39309711197734
 20
45.62898635648867
 10
8.383867741454878
 20
45.6427990855982
 10
8.376520252411638
 20
45.65769831948626
 10
8.371180362422137
 20
45.67342912813035
 10
8.367939438484427
 20
45.68972235303283
 10
8.366852933706014
 20
45.70629921259854
 10
8.366852933706014
 20
59.70558801117602
 10
8.367939438484427
 20
59.72216487074172
 10
8.371180362422137
 20
59.73845809564421
 10
8.376520252411638
 20
59.75418890428818
 10
8.383867741454878
 20
59.76908813817624
 10
8.39309711197734
 20
59.78290086728589
 10
8.404050446890324
 20
59.79539075199227
 10
8.41654033159648
 20
59.80634408690514
 10
8.430353060706238
 20
59.81557345742749
 10
8.445252294594184
 20
59.82292094647084
 10
8.460983103238277
 20
59.82826083646034
 10
8.477276328140761
 20
59.83150176039794
 10
8.493853187706463
 20
59.83258826517658
 10
22.49339598679194
 20
59.83258826517658
 10
22.50997284635764
 20
59.83150176039794
 10
22.52626607126012
 20
59.82826083646034
 10
22.54199687990399
 20
59.82292094647084
 10
22.55689611379216
 20
59.81557345742749
 10
22.57070884290169
 20
59.80634408690514
 10
22.58319872760808
 20
59.79539075199227
 10
22.59415206252106
 20
59.78290086728589
 10
22.6033814330433
 20
59.76908813817624
 10
22.61072892208676
 20
59.75418890428818
 10
22.61606881207626
 20
59.73845809564421
 10
22.61930973601397
 20
59.72216487074172
 10
22.62039624079239
 20
59.70558801117602
 10
22.62039624079239
 20
45.70629921259854
 10
22.61930973601397
 20
45.68972235303283
 10
22.61606881207626
 20
45.67342912813035
 10
22.61072892208676
 20
45.65769831948626
 10
22.6033814330433
 20
45.6427990855982
 10
22.59415206252106
 20
45.62898635648867
 10
22.58319872760808
 20
45.61649647178228
 10
22.57070884290169
 20
45.60554313686941
 10
22.55689611379216
 20
45.59631376634707
 10
22.54199687990399
 20
45.58896627730371
 10
22.52626607126012
 20
45.5836263873141
 10
22.50997284635764
 20
45.58038546337662
 10
22.49339598679194
 20
45.57929895859797
  0
LWPOLYLINE
  5
79
100
AcDbEntity
  8
Multi-Layer
  6
ByLayer
 62
  256
370
   -1
100
AcDbPolyline
 90
   52
 70
    1
 43
0
 10
8.493853187706463
 20
26.52908305816618
 10
8.477276328140761
 20
26.53016956294471
 10
8.460983103238277
 20
26.5334104868823
 10
8.445252294594184
 20
26.53875037687192
 10
8.430353060706238
 20
26.54609786591527
 10
8.41654033159648
 20
26.55532723643762
 10
8.404050446890324
 20
26.56628057135049
 10
8.39309711197734
 20
26.57877045605687
 10
8.383867741454878
 20
26.5925831851664
 10
8.376520252411638
 20
26.60748241905446
 10
8.371180362422137
 20
26.62321322769856
 10
8.367939438484427
 20
26.63950645260104
 10
8.366852933706014
 20
26.65608331216674
 10
8.366852933706014
 20
40.65549911099822
 10
8.367939438484427
 20
40.67207597056392
 10
8.371180362422137
 20
40.68836919546641
 10
8.376520252411638
 20
40.70410000411039
 10
8.383867741454878
 20
40.71899923799845
 10
8.39309711197734
 20
40.73281196710809
 10
8.404050446890324
 20
40.74530185181447
 10
8.41654033159648
 20
40.75625518672734
 10
8.430353060706238
 20
40.76548455724969
 10
8.445252294594184
 20
40.77283204629305
 10
8.460983103238277
 20
40.77817193628266
 10
8.477276328140761
 20
40.78141286022014
 10
8.493853187706463
 20
40.78249936499878
 10
22.49339598679194
 20
40.78249936499878
 10
22.50997284635764
 20
40.78141286022014
 10
22.52626607126012
 20
40.77817193628266
 10
22.54199687990399
 20
40.77283204629305
 10
22.55689611379216
 20
40.76548455724969
 10
22.57070884290169
 20
40.75625518672734
 10
22.58319872760808
 20
40.74530185181447
 10
22.59415206252106
 20
40.73281196710809
 10
22.6033814330433
 20
40.71899923799845
 10
22.61072892208676
 20
40.70410000411039
 10
22.61606881207626
 20
40.68836919546641
 10
22.61930973601397
 20
40.67207597056392
 10
22.62039624079239
 20
40.65549911099822
 10
22.62039624079239
 20
26.65608331216674
 10
22.61930973601397
 20
26.63950645260104
 10
22.61606881207626
 20
26.62321322769856
 10
22.61072892208676
 20
26.60748241905446
 10
22.6033814330433
 20
26.5925831851664
 10
22.59415206252106
 20
26.57877045605687
 10
22.58319872760808
 20
26.56628057135049
 10
22.57070884290169
 20
26.55532723643762
 10
22.55689611379216
 20
26.54609786591527
 10
22.54199687990399
 20
26.53875037687192
 10
22.52626607126012
 20
26.5334104868823
 10
22.50997284635764
 20
26.53016956294471
 10
22.49339598679194
 20
26.52908305816618
  0
LWPOLYLINE
  5
7A
100
AcDbEntity
  8
Multi-Layer
  6
ByLayer
 62
  256
370
   -1
100
AcDbPolyline
 90
   52
 70
    1
 43
0
 10
8.493853187706463
 20
7.479121158242265
 10
8.477276328140761
 20
7.480207663020906
 10
8.460983103238277
 20
7.483448586958389
 10
8.445252294594184
 20
7.488788476948002
 10
8.430353060706238
 20
7.496135965991357
 10
8.41654033159648
 20
7.505365336513705
 10
8.404050446890324
 20
7.516318671426575
 10
8.39309711197734
 20
7.528808556132958
 10
8.383867741454878
 20
7.542621285242603
 10
8.376520252411638
 20
7.557520519130662
 10
8.371180362422137
 20
7.573251327774642
 10
8.367939438484427
 20
7.589544552677125
 10
8.366852933706014
 20
7.606121412242828
 10
8.366852933706014
 20
21.60558801117611
 10
8.367939438484427
 20
21.6221648707417
 10
8.371180362422137
 20
21.6384580956443
 10
8.376520252411638
 20
21.65418890428828
 10
8.383867741454878
 20
21.66908813817633
 10
8.39309711197734
 20
21.68290086728598
 10
8.404050446890324
 20
21.69539075199225
 10
8.41654033159648
 20
21.70634408690523
 10
8.430353060706238
 20
21.71557345742758
 10
8.445252294594184
 20
21.72292094647082
 10
8.460983103238277
 20
21.72826083646044
 10
8.477276328140761
 20
21.73150176039803
 10
8.493853187706463
 20
21.73258826517656
 10
22.49339598679194
 20
21.73258826517656
 10
22.50997284635764
 20
21.73150176039803
 10
22.52626607126012
 20
21.72826083646044
 10
22.54199687990399
 20
21.72292094647082
 10
22.55689611379216
 20
21.71557345742758
 10
22.57070884290169
 20
21.70634408690523
 10
22.58319872760808
 20
21.69539075199225
 10
22.59415206252106
 20
21.68290086728598
 10
22.6033814330433
 20
21.66908813817633
 10
22.61072892208676
 20
21.65418890428828
 10
22.61606881207626
 20
21.6384580956443
 10
22.61930973601397
 20
21.6221648707417
 10
22.62039624079239
 20
21.60558801117611
 10
22.62039624079239
 20
7.606121412242828
 10
22.61930973601397
 20
7.589544552677125
 10
22.61606881207626
 20
7.573251327774642
 10
22.61072892208676
 20
7.557520519130662
 10
22.6033814330433
 20
7.542621285242603
 10
22.59415206252106
 20
7.528808556132958
 10
22.58319872760808
 20
7.516318671426575
 10
22.57070884290169
 20
7.505365336513705
 10
22.55689611379216
 20
7.496135965991357
 10
22.54199687990399
 20
7.488788476948002
 10
22.52626607126012
 20
7.483448586958389
 10
22.50997284635764
 20
7.480207663020906
 10
22.49339598679194
 20
7.479121158242265
  0
LWPOLYLINE
  5
7B
100
AcDbEntity
  8
Multi-Layer
  6
ByLayer
 62
  256
370
   -1
100
AcDbPolyline
 90
   52
 70
    1
 43
0
 10
27.54389128778257
 20
26.52908305816618
 10
27.52731442821687
 20
26.53016956294471
 10
27.51102120331439
 20
26.5334104868823
 10
27.49529039467052
 20
26.53875037687192
 10
27.48039116078235
 20
26.54609786591527
 10
27.46657843167281
 20
26.55532723643762
 10
27.45408854696643
 20
26.56628057135049
 10
27.44313521205345
 20
26.57877045605687
 10
27.43390584153121
 20
26.5925831851664
 10
27.42655835248797
 20
26.60748241905446
 10
27.42121846249825
 20
26.62321322769856
 10
27.41797753856054
 20
26.63950645260104
 10
27.41689103378212
 20
26.65608331216674
 10
27.41689103378212
 20
40.65549911099822
 10
27.41797753856054
 20
40.67207597056392
 10
27.42121846249825
 20
40.68836919546641
 10
27.42655835248797
 20
40.70410000411039
 10
27.43390584153121
 20
40.71899923799845
 10
27.44313521205345
 20
40.73281196710809
 10
27.45408854696643
 20
40.74530185181447
 10
27.46657843167281
 20
40.75625518672734
 10
27.48039116078235
 20
40.76548455724969
 10
27.49529039467052
 20
40.77283204629305
 10
27.51102120331439
 20
40.77817193628266
 10
27.52731442821687
 20
40.78141286022014
 10
27.54389128778257
 20
40.78249936499878
 10
41.5432054864109
 20
40.78249936499878
 10
41.5597823459766
 20
40.78141286022014
 10
41.57607557087908
 20
40.77817193628266
 10
41.59180637952295
 20
40.77283204629305
 10
41.60670561341112
 20
40.76548455724969
 10
41.62051834252065
 20
40.75625518672734
 10
41.63300822722704
 20
40.74530185181447
 10
41.64396156214025
 20
40.73281196710809
 10
41.65319093266248
 20
40.71899923799845
 10
41.66053842170572
 20
40.70410000411039
 10
41.66587831169522
 20
40.68836919546641
 10
41.66911923563293
 20
40.67207597056392
 10
41.67020574041135
 20
40.65549911099822
 10
41.67020574041135
 20
26.65608331216674
 10
41.66911923563293
 20
26.63950645260104
 10
41.66587831169522
 20
26.62321322769856
 10
41.66053842170572
 20
26.60748241905446
 10
41.65319093266248
 20
26.5925831851664
 10
41.64396156214025
 20
26.57877045605687
 10
41.63300822722704
 20
26.56628057135049
 10
41.62051834252065
 20
26.55532723643762
 10
41.60670561341112
 20
26.54609786591527
 10
41.59180637952295
 20
26.53875037687192
 10
41.57607557087908
 20
26.5334104868823
 10
41.5597823459766
 20
26.53016956294471
 10
41.5432054864109
 20
26.52908305816618
  0
LWPOLYLINE
  5
7C
100
AcDbEntity
  8
Multi-Layer
  6
ByLayer
 62
  256
370
   -1
100
AcDbPolyline
 90
   52
 70
    1
 43
0
 10
27.54389128778257
 20
7.479121158242265
 10
27.52731442821687
 20
7.480207663020906
 10
27.51102120331439
 20
7.483448586958389
 10
27.49529039467052
 20
7.488788476948002
 10
27.48039116078235
 20
7.496135965991357
 10
27.46657843167281
 20
7.505365336513705
 10
27.45408854696643
 20
7.516318671426575
 10
27.44313521205345
 20
7.528808556132958
 10
27.43390584153121
 20
7.542621285242603
 10
27.42655835248797
 20
7.557520519130662
 10
27.42121846249825
 20
7.573251327774642
 10
27.41797753856054
 20
7.589544552677125
 10
27.41689103378212
 20
7.606121412242828
 10
27.41689103378212
 20
21.60558801117611
 10
27.41797753856054
 20
21.6221648707417
 10
27.42121846249825
 20
21.6384580956443
 10
27.42655835248797
 20
21.65418890428828
 10
27.43390584153121
 20
21.66908813817633
 10
27.44313521205345
 20
21.68290086728598
 10
27.45408854696643
 20
21.69539075199225
 10
27.46657843167281
 20
21.70634408690523
 10
27.48039116078235
 20
21.71557345742758
 10
27.49529039467052
 20
21.72292094647082
 10
27.51102120331439
 20
21.72826083646044
 10
27.52731442821687
 20
21.73150176039803
 10
27.54389128778257
 20
21.73258826517656
 10
41.5432054864109
 20
21.73258826517656
 10
41.5597823459766
 20
21.73150176039803
 10
41.57607557087908
 20
21.72826083646044
 10
41.59180637952295
 20
21.72292094647082
 10
41.60670561341112
 20
21.71557345742758
 10
41.62051834252065
 20
21.70634408690523
 10
41.63300822722704
 20
21.69539075199225
 10
41.64396156214025
 20
21.68290086728598
 10
41.65319093266248
 20
21.66908813817633
 10
41.66053842170572
 20
21.65418890428828
 10
41.66587831169522
 20
21.6384580956443
 10
41.66911923563293
 20
21.6221648707417
 10
41.67020574041135
 20
21.60558801117611
 10
41.67020574041135
 20
7.606121412242828
 10
41.66911923563293
 20
7.589544552677125
 10
41.66587831169522
 20
7.573251327774642
 10
41.66053842170572
 20
7.557520519130662
 10
41.65319093266248
 20
7.542621285242603
 10
41.64396156214025
 20
7.528808556132958
 10
41.63300822722704
 20
7.516318671426575
 10
41.62051834252065
 20
7.505365336513705
 10
41.60670561341112
 20
7.496135965991357
 10
41.59180637952295
 20
7.488788476948002
 10
41.57607557087908
 20
7.483448586958389
 10
41.5597823459766
 20
7.480207663020906
 10
41.5432054864109
 20
7.479121158242265
  0
LWPOLYLINE
  5
7D
100
AcDbEntity
  8
Multi-Layer
  6
ByLayer
 62
  256
370
   -1
100
AcDbPolyline
 90
   52
 70
    1
 43
0
 10
46.59390398780806
 20
26.52908305816618
 10
46.57732712824236
 20
26.53016956294471
 10
46.56103390333988
 20
26.5334104868823
 10
46.54530309469601
 20
26.53875037687192
 10
46.53040386080784
 20
26.54609786591527
 10
46.51659113169831
 20
26.55532723643762
 10
46.50410124699192
 20
26.56628057135049
 10
46.49314791207871
 20
26.57877045605687
 10
46.48391854155648
 20
26.5925831851664
 10
46.47657105251324
 20
26.60748241905446
 10
46.47123116252374
 20
26.62321322769856
 10
46.46799023858603
 20
26.63950645260104
 10
46.46690373380738
 20
26.65608331216674
 10
46.46690373380738
 20
40.65549911099822
 10
46.46799023858603
 20
40.67207597056392
 10
46.47123116252374
 20
40.68836919546641
 10
46.47657105251324
 20
40.70410000411039
 10
46.48391854155648
 20
40.71899923799845
 10
46.49314791207871
 20
40.73281196710809
 10
46.50410124699192
 20
40.74530185181447
 10
46.51659113169831
 20
40.75625518672734
 10
46.53040386080784
 20
40.76548455724969
 10
46.54530309469601
 20
40.77283204629305
 10
46.56103390333988
 20
40.77817193628266
 10
46.57732712824236
 20
40.78141286022014
 10
46.59390398780806
 20
40.78249936499878
 10
60.59319278638554
 20
40.78249936499878
 10
60.60976964595147
 20
40.78141286022014
 10
60.62606287085373
 20
40.77817193628266
 10
60.64179367949782
 20
40.77283204629305
 10
60.656692913386
 20
40.76548455724969
 10
60.6705056424953
 20
40.75625518672734
 10
60.68299552720191
 20
40.74530185181447
 10
60.69394886211489
 20
40.73281196710809
 10
60.70317823263713
 20
40.71899923799845
 10
60.71052572168037
 20
40.70410000411039
 10
60.7158656116701
 20
40.68836919546641
 10
60.71910653560781
 20
40.67207597056392
 10
60.72019304038622
 20
40.65549911099822
 10
60.72019304038622
 20
26.65608331216674
 10
60.71910653560781
 20
26.63950645260104
 10
60.7158656116701
 20
26.62321322769856
 10
60.71052572168037
 20
26.60748241905446
 10
60.70317823263713
 20
26.5925831851664
 10
60.69394886211489
 20
26.57877045605687
 10
60.68299552720191
 20
26.56628057135049
 10
60.6705056424953
 20
26.55532723643762
 10
60.656692913386
 20
26.54609786591527
 10
60.64179367949782
 20
26.53875037687192
 10
60.62606287085373
 20
26.5334104868823
 10
60.60976964595147
 20
26.53016956294471
 10
60.59319278638554
 20
26.52908305816618
  0
LWPOLYLINE
  5
7E
100
AcDbEntity
  8
Multi-Layer
  6
ByLayer
 62
  256
370
   -1
100
AcDbPolyline
 90
   52
 70
    1
 43
0
 10
65.64389128778248
 20
26.52908305816618
 10
65.62731442821678
 20
26.53016956294471
 10
65.61102120331429
 20
26.5334104868823
 10
65.59529039467043
 20
26.53875037687192
 10
65.58039116078226
 20
26.54609786591527
 10
65.56657843167272
 20
26.55532723643762
 10
65.55408854696634
 20
26.56628057135049
 10
65.54313521205336
 20
26.57877045605687
 10
65.53390584153112
 20
26.5925831851664
 10
65.52655835248765
 20
26.60748241905446
 10
65.52121846249815
 20
26.62321322769856
 10
65.51797753856044
 20
26.63950645260104
 10
65.51689103378203
 20
26.65608331216674
 10
65.51689103378203
 20
40.65549911099822
 10
65.51797753856044
 20
40.67207597056392
 10
65.52121846249815
 20
40.68836919546641
 10
65.52655835248765
 20
40.70410000411039
 10
65.53390584153112
 20
40.71899923799845
 10
65.54313521205336
 20
40.73281196710809
 10
65.55408854696634
 20
40.74530185181447
 10
65.56657843167272
 20
40.75625518672734
 10
65.58039116078226
 20
40.76548455724969
 10
65.59529039467043
 20
40.77283204629305
 10
65.61102120331429
 20
40.77817193628266
 10
65.62731442821678
 20
40.78141286022014
 10
65.64389128778248
 20
40.78249936499878
 10
79.64320548641103
 20
40.78249936499878
 10
79.65978234597674
 20
40.78141286022014
 10
79.67607557087922
 20
40.77817193628266
 10
79.69180637952309
 20
40.77283204629305
 10
79.70670561341126
 20
40.76548455724969
 10
79.72051834252079
 20
40.75625518672734
 10
79.73300822722717
 20
40.74530185181447
 10
79.74396156214016
 20
40.73281196710809
 10
79.75319093266239
 20
40.71899923799845
 10
79.76053842170586
 20
40.70410000411039
 10
79.76587831169536
 20
40.68836919546641
 10
79.76911923563307
 20
40.67207597056392
 10
79.77020574041148
 20
40.65549911099822
 10
79.77020574041148
 20
26.65608331216674
 10
79.76911923563307
 20
26.63950645260104
 10
79.76587831169536
 20
26.62321322769856
 10
79.76053842170586
 20
26.60748241905446
 10
79.75319093266239
 20
26.5925831851664
 10
79.74396156214016
 20
26.57877045605687
 10
79.73300822722717
 20
26.56628057135049
 10
79.72051834252079
 20
26.55532723643762
 10
79.70670561341126
 20
26.54609786591527
 10
79.69180637952309
 20
26.53875037687192
 10
79.67607557087922
 20
26.5334104868823
 10
79.65978234597674
 20
26.53016956294471
 10
79.64320548641103
 20
26.52908305816618
  0
LWPOLYLINE
  5
7F
100
AcDbEntity
  8
Multi-Layer
  6
ByLayer
 62
  256
370
   -1
100
AcDbPolyline
 90
   52
 70
    1
 43
0
 10
84.69390398780797
 20
26.52908305816618
 10
84.67732712824227
 20
26.53016956294471
 10
84.66103390334001
 20
26.5334104868823
 10
84.64530309469592
 20
26.53875037687192
 10
84.63040386080775
 20
26.54609786591527
 10
84.61659113169844
 20
26.55532723643762
 10
84.60410124699183
 20
26.56628057135049
 10
84.59314791207885
 20
26.57877045605687
 10
84.58391854155661
 20
26.5925831851664
 10
84.57657105251337
 20
26.60748241905446
 10
84.57123116252365
 20
26.62321322769856
 10
84.56799023858594
 20
26.63950645260104
 10
84.56690373380752
 20
26.65608331216674
 10
84.56690373380752
 20
40.65549911099822
 10
84.56799023858594
 20
40.67207597056392
 10
84.57123116252365
 20
40.68836919546641
 10
84.57657105251337
 20
40.70410000411039
 10
84.58391854155661
 20
40.71899923799845
 10
84.59314791207885
 20
40.73281196710809
 10
84.60410124699183
 20
40.74530185181447
 10
84.61659113169844
 20
40.75625518672734
 10
84.63040386080775
 20
40.76548455724969
 10
84.64530309469592
 20
40.77283204629305
 10
84.66103390334001
 20
40.77817193628266
 10
84.67732712824227
 20
40.78141286022014
 10
84.69390398780797
 20
40.78249936499878
 10
98.69319278638545
 20
40.78249936499878
 10
98.70976964595116
 20
40.78141286022014
 10
98.72606287085364
 20
40.77817193628266
 10
98.7417936794975
 20
40.77283204629305
 10
98.75669291338568
 20
40.76548455724969
 10
98.77050564249521
 20
40.75625518672734
 10
98.78299552720159
 20
40.74530185181447
 10
98.7939488621148
 20
40.73281196710809
 10
98.80317823263704
 20
40.71899923799845
 10
98.81052572168028
 20
40.70410000411039
 10
98.81586561166978
 20
40.68836919546641
 10
98.81910653560749
 20
40.67207597056392
 10
98.8201930403859
 20
40.65549911099822
 10
98.8201930403859
 20
26.65608331216674
 10
98.81910653560749
 20
26.63950645260104
 10
98.81586561166978
 20
26.62321322769856
 10
98.81052572168028
 20
26.60748241905446
 10
98.80317823263704
 20
26.5925831851664
 10
98.7939488621148
 20
26.57877045605687
 10
98.78299552720159
 20
26.56628057135049
 10
98.77050564249521
 20
26.55532723643762
 10
98.75669291338568
 20
26.54609786591527
 10
98.7417936794975
 20
26.53875037687192
 10
98.72606287085364
 20
26.5334104868823
 10
98.70976964595116
 20
26.53016956294471
 10
98.69319278638545
 20
26.52908305816618
  0
LWPOLYLINE
  5
80
100
AcDbEntity
  8
Multi-Layer
  6
ByLayer
 62
  256
370
   -1
100
AcDbPolyline
 90
   52
 70
    1
 43
0
 10
103.7424942849884
 20
26.52908305816618
 10
103.7259174254227
 20
26.53016956294471
 10
103.7096242005202
 20
26.5334104868823
 10
103.6938933918764
 20
26.53875037687192
 10
103.6789941579882
 20
26.54609786591527
 10
103.6651814288787
 20
26.55532723643762
 10
103.6526915441723
 20
26.56628057135049
 10
103.6417382092593
 20
26.57877045605687
 10
103.6325088387371
 20
26.5925831851664
 10
103.6251613496938
 20
26.60748241905446
 10
103.6198214597041
 20
26.62321322769856
 10
103.6165805357664
 20
26.63950645260104
 10
103.615494030988
 20
26.65608331216674
 10
103.615494030988
 20
40.65549911099822
 10
103.6165805357664
 20
40.67207597056392
 10
103.6198214597041
 20
40.68836919546641
 10
103.6251613496938
 20
40.70410000411039
 10
103.6325088387371
 20
40.71899923799845
 10
103.6417382092593
 20
40.73281196710809
 10
103.6526915441723
 20
40.74530185181447
 10
103.6651814288787
 20
40.75625518672734
 10
103.6789941579882
 20
40.76548455724969
 10
103.6938933918764
 20
40.77283204629305
 10
103.7096242005202
 20
40.77817193628266
 10
103.7259174254227
 20
40.78141286022014
 10
103.7424942849884
 20
40.78249936499878
 10
117.7432054864112
 20
40.78249936499878
 10
117.7597823459769
 20
40.78141286022014
 10
117.7760755708794
 20
40.77817193628266
 10
117.7918063795232
 20
40.77283204629305
 10
117.8067056134114
 20
40.76548455724969
 10
117.8205183425209
 20
40.75625518672734
 10
117.8330082272273
 20
40.74530185181447
 10
117.8439615621403
 20
40.73281196710809
 10
117.8531909326625
 20
40.71899923799845
 10
117.8605384217058
 20
40.70410000411039
 10
117.8658783116955
 20
40.68836919546641
 10
117.8691192356332
 20
40.67207597056392
 10
117.8702057404116
 20
40.65549911099822
 10
117.8702057404116
 20
26.65608331216674
 10
117.8691192356332
 20
26.63950645260104
 10
117.8658783116955
 20
26.62321322769856
 10
117.8605384217058
 20
26.60748241905446
 10
117.8531909326625
 20
26.5925831851664
 10
117.8439615621403
 20
26.57877045605687
 10
117.8330082272273
 20
26.56628057135049
 10
117.8205183425209
 20
26.55532723643762
 10
117.8067056134114
 20
26.54609786591527
 10
117.7918063795232
 20
26.53875037687192
 10
117.7760755708794
 20
26.5334104868823
 10
117.7597823459769
 20
26.53016956294471
 10
117.7432054864112
 20
26.52908305816618
  0
LWPOLYLINE
  5
81
100
AcDbEntity
  8
Multi-Layer
  6
ByLayer
 62
  256
370
   -1
100
AcDbPolyline
 90
   52
 70
    1
 43
0
 10
122.7922021844045
 20
26.52908305816618
 10
122.7756253248385
 20
26.53016956294471
 10
122.7593320999363
 20
26.5334104868823
 10
122.7436012912922
 20
26.53875037687192
 10
122.728702057404
 20
26.54609786591527
 10
122.7148893282947
 20
26.55532723643762
 10
122.7023994435881
 20
26.56628057135049
 10
122.6914461086751
 20
26.57877045605687
 10
122.6822167381529
 20
26.5925831851664
 10
122.6748692491096
 20
26.60748241905446
 10
122.6695293591199
 20
26.62321322769856
 10
122.6662884351822
 20
26.63950645260104
 10
122.6652019304038
 20
26.65608331216674
 10
122.6652019304038
 20
40.65549911099822
 10
122.6662884351822
 20
40.67207597056392
 10
122.6695293591199
 20
40.68836919546641
 10
122.6748692491096
 20
40.70410000411039
 10
122.6822167381529
 20
40.71899923799845
 10
122.6914461086751
 20
40.73281196710809
 10
122.7023994435881
 20
40.74530185181447
 10
122.7148893282947
 20
40.75625518672734
 10
122.728702057404
 20
40.76548455724969
 10
122.7436012912922
 20
40.77283204629305
 10
122.7593320999363
 20
40.77817193628266
 10
122.7756253248385
 20
40.78141286022014
 10
122.7922021844045
 20
40.78249936499878
 10
136.7931927863856
 20
40.78249936499878
 10
136.8097696459513
 20
40.78141286022014
 10
136.8260628708538
 20
40.77817193628266
 10
136.8417936794976
 20
40.77283204629305
 10
136.8566929133858
 20
40.76548455724969
 10
136.8705056424953
 20
40.75625518672734
 10
136.8829955272017
 20
40.74530185181447
 10
136.8939488621147
 20
40.73281196710809
 10
136.9031782326369
 20
40.71899923799845
 10
136.9105257216804
 20
40.70410000411039
 10
136.9158656116699
 20
40.68836919546641
 10
136.9191065356076
 20
40.67207597056392
 10
136.920193040386
 20
40.65549911099822
 10
136.920193040386
 20
26.65608331216674
 10
136.9191065356076
 20
26.63950645260104
 10
136.9158656116699
 20
26.62321322769856
 10
136.9105257216804
 20
26.60748241905446
 10
136.9031782326369
 20
26.5925831851664
 10
136.8939488621147
 20
26.57877045605687
 10
136.8829955272017
 20
26.56628057135049
 10
136.8705056424953
 20
26.55532723643762
 10
136.8566929133858
 20
26.54609786591527
 10
136.8417936794976
 20
26.53875037687192
 10
136.8260628708538
 20
26.5334104868823
 10
136.8097696459513
 20
26.53016956294471
 10
136.7931927863856
 20
26.52908305816618
  0
LWPOLYLINE
  5
82
100
AcDbEntity
  8
Multi-Layer
  6
ByLayer
 62
  256
370
   -1
100
AcDbPolyline
 90
   52
 70
    1
 43
0
 10
141.8441960883922
 20
26.52908305816618
 10
141.8276192288265
 20
26.53016956294471
 10
141.811326003924
 20
26.5334104868823
 10
141.7955951952802
 20
26.53875037687192
 10
141.780695961392
 20
26.54609786591527
 10
141.7668832322825
 20
26.55532723643762
 10
141.7543933475761
 20
26.56628057135049
 10
141.7434400126629
 20
26.57877045605687
 10
141.7342106421406
 20
26.5925831851664
 10
141.7268631530974
 20
26.60748241905446
 10
141.7215232631079
 20
26.62321322769856
 10
141.7182823391702
 20
26.63950645260104
 10
141.7171958343918
 20
26.65608331216674
 10
141.7171958343918
 20
40.65549911099822
 10
141.7182823391702
 20
40.67207597056392
 10
141.7215232631079
 20
40.68836919546641
 10
141.7268631530974
 20
40.70410000411039
 10
141.7342106421406
 20
40.71899923799845
 10
141.7434400126629
 20
40.73281196710809
 10
141.7543933475761
 20
40.74530185181447
 10
141.7668832322825
 20
40.75625518672734
 10
141.780695961392
 20
40.76548455724969
 10
141.7955951952802
 20
40.77283204629305
 10
141.811326003924
 20
40.77817193628266
 10
141.8276192288265
 20
40.78141286022014
 10
141.8441960883922
 20
40.78249936499878
 10
155.8432054864109
 20
40.78249936499878
 10
155.8597823459768
 20
40.78141286022014
 10
155.876075570879
 20
40.77817193628266
 10
155.8918063795229
 20
40.77283204629305
 10
155.9067056134111
 20
40.76548455724969
 10
155.9205183425206
 20
40.75625518672734
 10
155.9330082272272
 20
40.74530185181447
 10
155.9439615621402
 20
40.73281196710809
 10
155.9531909326624
 20
40.71899923799845
 10
155.9605384217057
 20
40.70410000411039
 10
155.9658783116954
 20
40.68836919546641
 10
155.9691192356329
 20
40.67207597056392
 10
155.9702057404115
 20
40.65549911099822
 10
155.9702057404115
 20
26.65608331216674
 10
155.9691192356329
 20
26.63950645260104
 10
155.9658783116954
 20
26.62321322769856
 10
155.9605384217057
 20
26.60748241905446
 10
155.9531909326624
 20
26.5925831851664
 10
155.9439615621402
 20
26.57877045605687
 10
155.9330082272272
 20
26.56628057135049
 10
155.9205183425206
 20
26.55532723643762
 10
155.9067056134111
 20
26.54609786591527
 10
155.8918063795229
 20
26.53875037687192
 10
155.876075570879
 20
26.5334104868823
 10
155.8597823459768
 20
26.53016956294471
 10
155.8432054864109
 20
26.52908305816618
  0
LWPOLYLINE
  5
83
100
AcDbEntity
  8
Multi-Layer
  6
ByLayer
 62
  256
370
   -1
100
AcDbPolyline
 90
   52
 70
    1
 43
0
 10
160.8942087884175
 20
26.52908305816618
 10
160.8776319288518
 20
26.53016956294471
 10
160.8613387039493
 20
26.5334104868823
 10
160.8456078953054
 20
26.53875037687192
 10
160.8307086614172
 20
26.54609786591527
 10
160.8168959323077
 20
26.55532723643762
 10
160.8044060476013
 20
26.56628057135049
 10
160.7934527126883
 20
26.57877045605687
 10
160.7842233421661
 20
26.5925831851664
 10
160.7768758531229
 20
26.60748241905446
 10
160.7715359631331
 20
26.62321322769856
 10
160.7682950391954
 20
26.63950645260104
 10
160.767208534417
 20
26.65608331216674
 10
160.767208534417
 20
40.65549911099822
 10
160.7682950391954
 20
40.67207597056392
 10
160.7715359631331
 20
40.68836919546641
 10
160.7768758531229
 20
40.70410000411039
 10
160.7842233421661
 20
40.71899923799845
 10
160.7934527126883
 20
40.73281196710809
 10
160.8044060476013
 20
40.74530185181447
 10
160.8168959323077
 20
40.75625518672734
 10
160.8307086614172
 20
40.76548455724969
 10
160.8456078953054
 20
40.77283204629305
 10
160.8613387039493
 20
40.77817193628266
 10
160.8776319288518
 20
40.78141286022014
 10
160.8942087884175
 20
40.78249936499878
 10
174.8931927863857
 20
40.78249936499878
 10
174.9097696459514
 20
40.78141286022014
 10
174.9260628708539
 20
40.77817193628266
 10
174.9417936794978
 20
40.77283204629305
 10
174.956692913386
 20
40.76548455724969
 10
174.9705056424955
 20
40.75625518672734
 10
174.9829955272019
 20
40.74530185181447
 10
174.9939488621148
 20
40.73281196710809
 10
175.0031782326371
 20
40.71899923799845
 10
175.0105257216803
 20
40.70410000411039
 10
175.0158656116701
 20
40.68836919546641
 10
175.0191065356078
 20
40.67207597056392
 10
175.0201930403862
 20
40.65549911099822
 10
175.0201930403862
 20
26.65608331216674
 10
175.0191065356078
 20
26.63950645260104
 10
175.0158656116701
 20
26.62321322769856
 10
175.0105257216803
 20
26.60748241905446
 10
175.0031782326371
 20
26.5925831851664
 10
174.9939488621148
 20
26.57877045605687
 10
174.9829955272019
 20
26.56628057135049
 10
174.9705056424955
 20
26.55532723643762
 10
174.956692913386
 20
26.54609786591527
 10
174.9417936794978
 20
26.53875037687192
 10
174.9260628708539
 20
26.5334104868823
 10
174.9097696459514
 20
26.53016956294471
 10
174.8931927863857
 20
26.52908305816618
  0
LWPOLYLINE
  5
84
100
AcDbEntity
  8
Multi-Layer
  6
ByLayer
 62
  256
370
   -1
100
AcDbPolyline
 90
   52
 70
    1
 43
0
 10
179.9441960883923
 20
26.52908305816618
 10
179.9276192288264
 20
26.53016956294471
 10
179.9113260039242
 20
26.5334104868823
 10
179.8955951952803
 20
26.53875037687192
 10
179.8806959613921
 20
26.54609786591527
 10
179.8668832322826
 20
26.55532723643762
 10
179.854393347576
 20
26.56628057135049
 10
179.843440012663
 20
26.57877045605687
 10
179.8342106421408
 20
26.5925831851664
 10
179.8268631530975
 20
26.60748241905446
 10
179.8215232631078
 20
26.62321322769856
 10
179.8182823391703
 20
26.63950645260104
 10
179.8171958343917
 20
26.65608331216674
 10
179.8171958343917
 20
40.65549911099822
 10
179.8182823391703
 20
40.67207597056392
 10
179.8215232631078
 20
40.68836919546641
 10
179.8268631530975
 20
40.70410000411039
 10
179.8342106421408
 20
40.71899923799845
 10
179.843440012663
 20
40.73281196710809
 10
179.854393347576
 20
40.74530185181447
 10
179.8668832322826
 20
40.75625518672734
 10
179.8806959613921
 20
40.76548455724969
 10
179.8955951952803
 20
40.77283204629305
 10
179.9113260039242
 20
40.77817193628266
 10
179.9276192288264
 20
40.78141286022014
 10
179.9441960883923
 20
40.78249936499878
 10
193.943205486411
 20
40.78249936499878
 10
193.9597823459767
 20
40.78141286022014
 10
193.9760755708792
 20
40.77817193628266
 10
193.991806379523
 20
40.77283204629305
 10
194.0067056134112
 20
40.76548455724969
 10
194.0205183425207
 20
40.75625518672734
 10
194.0330082272271
 20
40.74530185181447
 10
194.0439615621403
 20
40.73281196710809
 10
194.0531909326626
 20
40.71899923799845
 10
194.0605384217058
 20
40.70410000411039
 10
194.0658783116953
 20
40.68836919546641
 10
194.069119235633
 20
40.67207597056392
 10
194.0702057404114
 20
40.65549911099822
 10
194.0702057404114
 20
26.65608331216674
 10
194.069119235633
 20
26.63950645260104
 10
194.0658783116953
 20
26.62321322769856
 10
194.0605384217058
 20
26.60748241905446
 10
194.0531909326626
 20
26.5925831851664
 10
194.0439615621403
 20
26.57877045605687
 10
194.0330082272271
 20
26.56628057135049
 10
194.0205183425207
 20
26.55532723643762
 10
194.0067056134112
 20
26.54609786591527
 10
193.991806379523
 20
26.53875037687192
 10
193.9760755708792
 20
26.5334104868823
 10
193.9597823459767
 20
26.53016956294471
 10
193.943205486411
 20
26.52908305816618
  0
LWPOLYLINE
  5
85
100
AcDbEntity
  8
Multi-Layer
  6
ByLayer
 62
  256
370
   -1
100
AcDbPolyline
 90
   52
 70
    1
 43
0
 10
198.9942087884176
 20
26.52908305816618
 10
198.9776319288519
 20
26.53016956294471
 10
198.9613387039494
 20
26.5334104868823
 10
198.9456078953056
 20
26.53875037687192
 10
198.9307086614174
 20
26.54609786591527
 10
198.9168959323079
 20
26.55532723643762
 10
198.9044060476015
 20
26.56628057135049
 10
198.8934527126885
 20
26.57877045605687
 10
198.8842233421663
 20
26.5925831851664
 10
198.8768758531228
 20
26.60748241905446
 10
198.8715359631333
 20
26.62321322769856
 10
198.8682950391956
 20
26.63950645260104
 10
198.8672085344172
 20
26.65608331216674
 10
198.8672085344172
 20
40.65549911099822
 10
198.8682950391956
 20
40.67207597056392
 10
198.8715359631333
 20
40.68836919546641
 10
198.8768758531228
 20
40.70410000411039
 10
198.8842233421663
 20
40.71899923799845
 10
198.8934527126885
 20
40.73281196710809
 10
198.9044060476015
 20
40.74530185181447
 10
198.9168959323079
 20
40.75625518672734
 10
198.9307086614174
 20
40.76548455724969
 10
198.9456078953056
 20
40.77283204629305
 10
198.9613387039494
 20
40.77817193628266
 10
198.9776319288519
 20
40.78141286022014
 10
198.9942087884176
 20
40.78249936499878
 10
212.9931927863854
 20
40.78249936499878
 10
213.0097696459513
 20
40.78141286022014
 10
213.0260628708536
 20
40.77817193628266
 10
213.0417936794977
 20
40.77283204629305
 10
213.0566929133859
 20
40.76548455724969
 10
213.0705056424952
 20
40.75625518672734
 10
213.0829955272018
 20
40.74530185181447
 10
213.0939488621148
 20
40.73281196710809
 10
213.103178232637
 20
40.71899923799845
 10
213.1105257216802
 20
40.70410000411039
 10
213.11586561167
 20
40.68836919546641
 10
213.1191065356077
 20
40.67207597056392
 10
213.1201930403861
 20
40.65549911099822
 10
213.1201930403861
 20
26.65608331216674
 10
213.1191065356077
 20
26.63950645260104
 10
213.11586561167
 20
26.62321322769856
 10
213.1105257216802
 20
26.60748241905446
 10
213.103178232637
 20
26.5925831851664
 10
213.0939488621148
 20
26.57877045605687
 10
213.0829955272018
 20
26.56628057135049
 10
213.0705056424952
 20
26.55532723643762
 10
213.0566929133859
 20
26.54609786591527
 10
213.0417936794977
 20
26.53875037687192
 10
213.0260628708536
 20
26.5334104868823
 10
213.0097696459513
 20
26.53016956294471
 10
212.9931927863854
 20
26.52908305816618
  0
LWPOLYLINE
  5
86
100
AcDbEntity
  8
Multi-Layer
  6
ByLayer
 62
  256
370
   -1
100
AcDbPolyline
 90
   52
 70
    1
 43
0
 10
218.044196088392
 20
26.52908305816618
 10
218.0276192288263
 20
26.53016956294471
 10
218.0113260039238
 20
26.5334104868823
 10
217.99559519528
 20
26.53875037687192
 10
217.9806959613918
 20
26.54609786591527
 10
217.9668832322823
 20
26.55532723643762
 10
217.9543933475759
 20
26.56628057135049
 10
217.9434400126629
 20
26.57877045605687
 10
217.9342106421407
 20
26.5925831851664
 10
217.9268631530974
 20
26.60748241905446
 10
217.9215232631077
 20
26.62321322769856
 10
217.91828233917
 20
26.63950645260104
 10
217.9171958343916
 20
26.65608331216674
 10
217.9171958343916
 20
40.65549911099822
 10
217.91828233917
 20
40.67207597056392
 10
217.9215232631077
 20
40.68836919546641
 10
217.9268631530974
 20
40.70410000411039
 10
217.9342106421407
 20
40.71899923799845
 10
217.9434400126629
 20
40.73281196710809
 10
217.9543933475759
 20
40.74530185181447
 10
217.9668832322823
 20
40.75625518672734
 10
217.9806959613918
 20
40.76548455724969
 10
217.99559519528
 20
40.77283204629305
 10
218.0113260039238
 20
40.77817193628266
 10
218.0276192288263
 20
40.78141286022014
 10
218.044196088392
 20
40.78249936499878
 10
232.0432054864111
 20
40.78249936499878
 10
232.0597823459768
 20
40.78141286022014
 10
232.0760755708793
 20
40.77817193628266
 10
232.0918063795232
 20
40.77283204629305
 10
232.1067056134113
 20
40.76548455724969
 10
232.1205183425209
 20
40.75625518672734
 10
232.1330082272273
 20
40.74530185181447
 10
232.1439615621402
 20
40.73281196710809
 10
232.1531909326625
 20
40.71899923799845
 10
232.160538421706
 20
40.70410000411039
 10
232.1658783116955
 20
40.68836919546641
 10
232.1691192356332
 20
40.67207597056392
 10
232.1702057404116
 20
40.65549911099822
 10
232.1702057404116
 20
26.65608331216674
 10
232.1691192356332
 20
26.63950645260104
 10
232.1658783116955
 20
26.62321322769856
 10
232.160538421706
 20
26.60748241905446
 10
232.1531909326625
 20
26.5925831851664
 10
232.1439615621402
 20
26.57877045605687
 10
232.1330082272273
 20
26.56628057135049
 10
232.1205183425209
 20
26.55532723643762
 10
232.1067056134113
 20
26.54609786591527
 10
232.0918063795232
 20
26.53875037687192
 10
232.0760755708793
 20
26.5334104868823
 10
232.0597823459768
 20
26.53016956294471
 10
232.0432054864111
 20
26.52908305816618
  0
LWPOLYLINE
  5
87
100
AcDbEntity
  8
Multi-Layer
  6
ByLayer
 62
  256
370
   -1
100
AcDbPolyline
 90
   52
 70
    1
 43
0
 10
218.044196088392
 20
7.479121158242265
 10
218.0276192288263
 20
7.480207663020906
 10
218.0113260039238
 20
7.483448586958389
 10
217.99559519528
 20
7.488788476948002
 10
217.9806959613918
 20
7.496135965991357
 10
217.9668832322823
 20
7.505365336513705
 10
217.9543933475759
 20
7.516318671426575
 10
217.9434400126629
 20
7.528808556132958
 10
217.9342106421407
 20
7.542621285242603
 10
217.9268631530974
 20
7.557520519130662
 10
217.9215232631077
 20
7.573251327774642
 10
217.91828233917
 20
7.589544552677125
 10
217.9171958343916
 20
7.606121412242828
 10
217.9171958343916
 20
21.60558801117611
 10
217.91828233917
 20
21.6221648707417
 10
217.9215232631077
 20
21.6384580956443
 10
217.9268631530974
 20
21.65418890428828
 10
217.9342106421407
 20
21.66908813817633
 10
217.9434400126629
 20
21.68290086728598
 10
217.9543933475759
 20
21.69539075199225
 10
217.9668832322823
 20
21.70634408690523
 10
217.9806959613918
 20
21.71557345742758
 10
217.99559519528
 20
21.72292094647082
 10
218.0113260039238
 20
21.72826083646044
 10
218.0276192288263
 20
21.73150176039803
 10
218.044196088392
 20
21.73258826517656
 10
232.0432054864111
 20
21.73258826517656
 10
232.0597823459768
 20
21.73150176039803
 10
232.0760755708793
 20
21.72826083646044
 10
232.0918063795232
 20
21.72292094647082
 10
232.1067056134113
 20
21.71557345742758
 10
232.1205183425209
 20
21.70634408690523
 10
232.1330082272273
 20
21.69539075199225
 10
232.1439615621402
 20
21.68290086728598
 10
232.1531909326625
 20
21.66908813817633
 10
232.160538421706
 20
21.65418890428828
 10
232.1658783116955
 20
21.6384580956443
 10
232.1691192356332
 20
21.6221648707417
 10
232.1702057404116
 20
21.60558801117611
 10
232.1702057404116
 20
7.606121412242828
 10
232.1691192356332
 20
7.589544552677125
 10
232.1658783116955
 20
7.573251327774642
 10
232.160538421706
 20
7.557520519130662
 10
232.1531909326625
 20
7.542621285242603
 10
232.1439615621402
 20
7.528808556132958
 10
232.1330082272273
 20
7.516318671426575
 10
232.1205183425209
 20
7.505365336513705
 10
232.1067056134113
 20
7.496135965991357
 10
232.0918063795232
 20
7.488788476948002
 10
232.0760755708793
 20
7.483448586958389
 10
232.0597823459768
 20
7.480207663020906
 10
232.0432054864111
 20
7.479121158242265
  0
LWPOLYLINE
  5
88
100
AcDbEntity
  8
Multi-Layer
  6
ByLayer
 62
  256
370
   -1
100
AcDbPolyline
 90
   52
 70
    1
 43
0
 10
198.9942087884176
 20
7.479121158242265
 10
198.9776319288519
 20
7.480207663020906
 10
198.9613387039494
 20
7.483448586958389
 10
198.9456078953056
 20
7.488788476948002
 10
198.9307086614174
 20
7.496135965991357
 10
198.9168959323079
 20
7.505365336513705
 10
198.9044060476015
 20
7.516318671426575
 10
198.8934527126885
 20
7.528808556132958
 10
198.8842233421663
 20
7.542621285242603
 10
198.8768758531228
 20
7.557520519130662
 10
198.8715359631333
 20
7.573251327774642
 10
198.8682950391956
 20
7.589544552677125
 10
198.8672085344172
 20
7.606121412242828
 10
198.8672085344172
 20
21.60558801117611
 10
198.8682950391956
 20
21.6221648707417
 10
198.8715359631333
 20
21.6384580956443
 10
198.8768758531228
 20
21.65418890428828
 10
198.8842233421663
 20
21.66908813817633
 10
198.8934527126885
 20
21.68290086728598
 10
198.9044060476015
 20
21.69539075199225
 10
198.9168959323079
 20
21.70634408690523
 10
198.9307086614174
 20
21.71557345742758
 10
198.9456078953056
 20
21.72292094647082
 10
198.9613387039494
 20
21.72826083646044
 10
198.9776319288519
 20
21.73150176039803
 10
198.9942087884176
 20
21.73258826517656
 10
212.9931927863854
 20
21.73258826517656
 10
213.0097696459513
 20
21.73150176039803
 10
213.0260628708536
 20
21.72826083646044
 10
213.0417936794977
 20
21.72292094647082
 10
213.0566929133859
 20
21.71557345742758
 10
213.0705056424952
 20
21.70634408690523
 10
213.0829955272018
 20
21.69539075199225
 10
213.0939488621148
 20
21.68290086728598
 10
213.103178232637
 20
21.66908813817633
 10
213.1105257216802
 20
21.65418890428828
 10
213.11586561167
 20
21.6384580956443
 10
213.1191065356077
 20
21.6221648707417
 10
213.1201930403861
 20
21.60558801117611
 10
213.1201930403861
 20
7.606121412242828
 10
213.1191065356077
 20
7.589544552677125
 10
213.11586561167
 20
7.573251327774642
 10
213.1105257216802
 20
7.557520519130662
 10
213.103178232637
 20
7.542621285242603
 10
213.0939488621148
 20
7.528808556132958
 10
213.0829955272018
 20
7.516318671426575
 10
213.0705056424952
 20
7.505365336513705
 10
213.0566929133859
 20
7.496135965991357
 10
213.0417936794977
 20
7.488788476948002
 10
213.0260628708536
 20
7.483448586958389
 10
213.0097696459513
 20
7.480207663020906
 10
212.9931927863854
 20
7.479121158242265
  0
LWPOLYLINE
  5
89
100
AcDbEntity
  8
Multi-Layer
  6
ByLayer
 62
  256
370
   -1
100
AcDbPolyline
 90
   52
 70
    1
 43
0
 10
179.9441960883923
 20
7.479121158242265
 10
179.9276192288264
 20
7.480207663020906
 10
179.9113260039242
 20
7.483448586958389
 10
179.8955951952803
 20
7.488788476948002
 10
179.8806959613921
 20
7.496135965991357
 10
179.8668832322826
 20
7.505365336513705
 10
179.854393347576
 20
7.516318671426575
 10
179.843440012663
 20
7.528808556132958
 10
179.8342106421408
 20
7.542621285242603
 10
179.8268631530975
 20
7.557520519130662
 10
179.8215232631078
 20
7.573251327774642
 10
179.8182823391703
 20
7.589544552677125
 10
179.8171958343917
 20
7.606121412242828
 10
179.8171958343917
 20
21.60558801117611
 10
179.8182823391703
 20
21.6221648707417
 10
179.8215232631078
 20
21.6384580956443
 10
179.8268631530975
 20
21.65418890428828
 10
179.8342106421408
 20
21.66908813817633
 10
179.843440012663
 20
21.68290086728598
 10
179.854393347576
 20
21.69539075199225
 10
179.8668832322826
 20
21.70634408690523
 10
179.8806959613921
 20
21.71557345742758
 10
179.8955951952803
 20
21.72292094647082
 10
179.9113260039242
 20
21.72826083646044
 10
179.9276192288264
 20
21.73150176039803
 10
179.9441960883923
 20
21.73258826517656
 10
193.943205486411
 20
21.73258826517656
 10
193.9597823459767
 20
21.73150176039803
 10
193.9760755708792
 20
21.72826083646044
 10
193.991806379523
 20
21.72292094647082
 10
194.0067056134112
 20
21.71557345742758
 10
194.0205183425207
 20
21.70634408690523
 10
194.0330082272271
 20
21.69539075199225
 10
194.0439615621403
 20
21.68290086728598
 10
194.0531909326626
 20
21.66908813817633
 10
194.0605384217058
 20
21.65418890428828
 10
194.0658783116953
 20
21.6384580956443
 10
194.069119235633
 20
21.6221648707417
 10
194.0702057404114
 20
21.60558801117611
 10
194.0702057404114
 20
7.606121412242828
 10
194.069119235633
 20
7.589544552677125
 10
194.0658783116953
 20
7.573251327774642
 10
194.0605384217058
 20
7.557520519130662
 10
194.0531909326626
 20
7.542621285242603
 10
194.0439615621403
 20
7.528808556132958
 10
194.0330082272271
 20
7.516318671426575
 10
194.0205183425207
 20
7.505365336513705
 10
194.0067056134112
 20
7.496135965991357
 10
193.991806379523
 20
7.488788476948002
 10
193.9760755708792
 20
7.483448586958389
 10
193.9597823459767
 20
7.480207663020906
 10
193.943205486411
 20
7.479121158242265
  0
LWPOLYLINE
  5
8A
100
AcDbEntity
  8
Multi-Layer
  6
ByLayer
 62
  256
370
   -1
100
AcDbPolyline
 90
   52
 70
    1
 43
0
 10
160.8942087884175
 20
7.479121158242265
 10
160.8776319288518
 20
7.480207663020906
 10
160.8613387039493
 20
7.483448586958389
 10
160.8456078953054
 20
7.488788476948002
 10
160.8307086614172
 20
7.496135965991357
 10
160.8168959323077
 20
7.505365336513705
 10
160.8044060476013
 20
7.516318671426575
 10
160.7934527126883
 20
7.528808556132958
 10
160.7842233421661
 20
7.542621285242603
 10
160.7768758531229
 20
7.557520519130662
 10
160.7715359631331
 20
7.573251327774642
 10
160.7682950391954
 20
7.589544552677125
 10
160.767208534417
 20
7.606121412242828
 10
160.767208534417
 20
21.60558801117611
 10
160.7682950391954
 20
21.6221648707417
 10
160.7715359631331
 20
21.6384580956443
 10
160.7768758531229
 20
21.65418890428828
 10
160.7842233421661
 20
21.66908813817633
 10
160.7934527126883
 20
21.68290086728598
 10
160.8044060476013
 20
21.69539075199225
 10
160.8168959323077
 20
21.70634408690523
 10
160.8307086614172
 20
21.71557345742758
 10
160.8456078953054
 20
21.72292094647082
 10
160.8613387039493
 20
21.72826083646044
 10
160.8776319288518
 20
21.73150176039803
 10
160.8942087884175
 20
21.73258826517656
 10
174.8931927863857
 20
21.73258826517656
 10
174.9097696459514
 20
21.73150176039803
 10
174.9260628708539
 20
21.72826083646044
 10
174.9417936794978
 20
21.72292094647082
 10
174.956692913386
 20
21.71557345742758
 10
174.9705056424955
 20
21.70634408690523
 10
174.9829955272019
 20
21.69539075199225
 10
174.9939488621148
 20
21.68290086728598
 10
175.0031782326371
 20
21.66908813817633
 10
175.0105257216803
 20
21.65418890428828
 10
175.0158656116701
 20
21.6384580956443
 10
175.0191065356078
 20
21.6221648707417
 10
175.0201930403862
 20
21.60558801117611
 10
175.0201930403862
 20
7.606121412242828
 10
175.0191065356078
 20
7.589544552677125
 10
175.0158656116701
 20
7.573251327774642
 10
175.0105257216803
 20
7.557520519130662
 10
175.0031782326371
 20
7.542621285242603
 10
174.9939488621148
 20
7.528808556132958
 10
174.9829955272019
 20
7.516318671426575
 10
174.9705056424955
 20
7.505365336513705
 10
174.956692913386
 20
7.496135965991357
 10
174.9417936794978
 20
7.488788476948002
 10
174.9260628708539
 20
7.483448586958389
 10
174.9097696459514
 20
7.480207663020906
 10
174.8931927863857
 20
7.479121158242265
  0
LWPOLYLINE
  5
8B
100
AcDbEntity
  8
Multi-Layer
  6
ByLayer
 62
  256
370
   -1
100
AcDbPolyline
 90
   52
 70
    1
 43
0
 10
141.8441960883922
 20
7.479121158242265
 10
141.8276192288265
 20
7.480207663020906
 10
141.811326003924
 20
7.483448586958389
 10
141.7955951952802
 20
7.488788476948002
 10
141.780695961392
 20
7.496135965991357
 10
141.7668832322825
 20
7.505365336513705
 10
141.7543933475761
 20
7.516318671426575
 10
141.7434400126629
 20
7.528808556132958
 10
141.7342106421406
 20
7.542621285242603
 10
141.7268631530974
 20
7.557520519130662
 10
141.7215232631079
 20
7.573251327774642
 10
141.7182823391702
 20
7.589544552677125
 10
141.7171958343918
 20
7.606121412242828
 10
141.7171958343918
 20
21.60558801117611
 10
141.7182823391702
 20
21.6221648707417
 10
141.7215232631079
 20
21.6384580956443
 10
141.7268631530974
 20
21.65418890428828
 10
141.7342106421406
 20
21.66908813817633
 10
141.7434400126629
 20
21.68290086728598
 10
141.7543933475761
 20
21.69539075199225
 10
141.7668832322825
 20
21.70634408690523
 10
141.780695961392
 20
21.71557345742758
 10
141.7955951952802
 20
21.72292094647082
 10
141.811326003924
 20
21.72826083646044
 10
141.8276192288265
 20
21.73150176039803
 10
141.8441960883922
 20
21.73258826517656
 10
155.8432054864109
 20
21.73258826517656
 10
155.8597823459768
 20
21.73150176039803
 10
155.876075570879
 20
21.72826083646044
 10
155.8918063795229
 20
21.72292094647082
 10
155.9067056134111
 20
21.71557345742758
 10
155.9205183425206
 20
21.70634408690523
 10
155.9330082272272
 20
21.69539075199225
 10
155.9439615621402
 20
21.68290086728598
 10
155.9531909326624
 20
21.66908813817633
 10
155.9605384217057
 20
21.65418890428828
 10
155.9658783116954
 20
21.6384580956443
 10
155.9691192356329
 20
21.6221648707417
 10
155.9702057404115
 20
21.60558801117611
 10
155.9702057404115
 20
7.606121412242828
 10
155.9691192356329
 20
7.589544552677125
 10
155.9658783116954
 20
7.573251327774642
 10
155.9605384217057
 20
7.557520519130662
 10
155.9531909326624
 20
7.542621285242603
 10
155.9439615621402
 20
7.528808556132958
 10
155.9330082272272
 20
7.516318671426575
 10
155.9205183425206
 20
7.505365336513705
 10
155.9067056134111
 20
7.496135965991357
 10
155.8918063795229
 20
7.488788476948002
 10
155.876075570879
 20
7.483448586958389
 10
155.8597823459768
 20
7.480207663020906
 10
155.8432054864109
 20
7.479121158242265
  0
LWPOLYLINE
  5
8C
100
AcDbEntity
  8
Multi-Layer
  6
ByLayer
 62
  256
370
   -1
100
AcDbPolyline
 90
   52
 70
    1
 43
0
 10
84.69390398780797
 20
7.479121158242265
 10
84.67732712824227
 20
7.480207663020906
 10
84.66103390334001
 20
7.483448586958389
 10
84.64530309469592
 20
7.488788476948002
 10
84.63040386080775
 20
7.496135965991357
 10
84.61659113169844
 20
7.505365336513705
 10
84.60410124699183
 20
7.516318671426575
 10
84.59314791207885
 20
7.528808556132958
 10
84.58391854155661
 20
7.542621285242603
 10
84.57657105251337
 20
7.557520519130662
 10
84.57123116252365
 20
7.573251327774642
 10
84.56799023858594
 20
7.589544552677125
 10
84.56690373380752
 20
7.606121412242828
 10
84.56690373380752
 20
21.60558801117611
 10
84.56799023858594
 20
21.6221648707417
 10
84.57123116252365
 20
21.6384580956443
 10
84.57657105251337
 20
21.65418890428828
 10
84.58391854155661
 20
21.66908813817633
 10
84.59314791207885
 20
21.68290086728598
 10
84.60410124699183
 20
21.69539075199225
 10
84.61659113169844
 20
21.70634408690523
 10
84.63040386080775
 20
21.71557345742758
 10
84.64530309469592
 20
21.72292094647082
 10
84.66103390334001
 20
21.72826083646044
 10
84.67732712824227
 20
21.73150176039803
 10
84.69390398780797
 20
21.73258826517656
 10
98.69319278638545
 20
21.73258826517656
 10
98.70976964595116
 20
21.73150176039803
 10
98.72606287085364
 20
21.72826083646044
 10
98.7417936794975
 20
21.72292094647082
 10
98.75669291338568
 20
21.71557345742758
 10
98.77050564249521
 20
21.70634408690523
 10
98.78299552720159
 20
21.69539075199225
 10
98.7939488621148
 20
21.68290086728598
 10
98.80317823263704
 20
21.66908813817633
 10
98.81052572168028
 20
21.65418890428828
 10
98.81586561166978
 20
21.6384580956443
 10
98.81910653560749
 20
21.6221648707417
 10
98.8201930403859
 20
21.60558801117611
 10
98.8201930403859
 20
7.606121412242828
 10
98.81910653560749
 20
7.589544552677125
 10
98.81586561166978
 20
7.573251327774642
 10
98.81052572168028
 20
7.557520519130662
 10
98.80317823263704
 20
7.542621285242603
 10
98.7939488621148
 20
7.528808556132958
 10
98.78299552720159
 20
7.516318671426575
 10
98.77050564249521
 20
7.505365336513705
 10
98.75669291338568
 20
7.496135965991357
 10
98.7417936794975
 20
7.488788476948002
 10
98.72606287085364
 20
7.483448586958389
 10
98.70976964595116
 20
7.480207663020906
 10
98.69319278638545
 20
7.479121158242265
  0
LWPOLYLINE
  5
8D
100
AcDbEntity
  8
Multi-Layer
  6
ByLayer
 62
  256
370
   -1
100
AcDbPolyline
 90
   52
 70
    1
 43
0
 10
46.59390398780806
 20
7.479121158242265
 10
46.57732712824236
 20
7.480207663020906
 10
46.56103390333988
 20
7.483448586958389
 10
46.54530309469601
 20
7.488788476948002
 10
46.53040386080784
 20
7.496135965991357
 10
46.51659113169831
 20
7.505365336513705
 10
46.50410124699192
 20
7.516318671426575
 10
46.49314791207871
 20
7.528808556132958
 10
46.48391854155648
 20
7.542621285242603
 10
46.47657105251324
 20
7.557520519130662
 10
46.47123116252374
 20
7.573251327774642
 10
46.46799023858603
 20
7.589544552677125
 10
46.46690373380738
 20
7.606121412242828
 10
46.46690373380738
 20
21.60558801117611
 10
46.46799023858603
 20
21.6221648707417
 10
46.47123116252374
 20
21.6384580956443
 10
46.47657105251324
 20
21.65418890428828
 10
46.48391854155648
 20
21.66908813817633
 10
46.49314791207871
 20
21.68290086728598
 10
46.50410124699192
 20
21.69539075199225
 10
46.51659113169831
 20
21.70634408690523
 10
46.53040386080784
 20
21.71557345742758
 10
46.54530309469601
 20
21.72292094647082
 10
46.56103390333988
 20
21.72826083646044
 10
46.57732712824236
 20
21.73150176039803
 10
46.59390398780806
 20
21.73258826517656
 10
60.59319278638554
 20
21.73258826517656
 10
60.60976964595147
 20
21.73150176039803
 10
60.62606287085373
 20
21.72826083646044
 10
60.64179367949782
 20
21.72292094647082
 10
60.656692913386
 20
21.71557345742758
 10
60.6705056424953
 20
21.70634408690523
 10
60.68299552720191
 20
21.69539075199225
 10
60.69394886211489
 20
21.68290086728598
 10
60.70317823263713
 20
21.66908813817633
 10
60.71052572168037
 20
21.65418890428828
 10
60.7158656116701
 20
21.6384580956443
 10
60.71910653560781
 20
21.6221648707417
 10
60.72019304038622
 20
21.60558801117611
 10
60.72019304038622
 20
7.606121412242828
 10
60.71910653560781
 20
7.589544552677125
 10
60.7158656116701
 20
7.573251327774642
 10
60.71052572168037
 20
7.557520519130662
 10
60.70317823263713
 20
7.542621285242603
 10
60.69394886211489
 20
7.528808556132958
 10
60.68299552720191
 20
7.516318671426575
 10
60.6705056424953
 20
7.505365336513705
 10
60.656692913386
 20
7.496135965991357
 10
60.64179367949782
 20
7.488788476948002
 10
60.62606287085373
 20
7.483448586958389
 10
60.60976964595147
 20
7.480207663020906
 10
60.59319278638554
 20
7.479121158242265
  0
LWPOLYLINE
  5
8E
100
AcDbEntity
  8
Multi-Layer
  6
ByLayer
 62
  256
370
   -1
100
AcDbPolyline
 90
   52
 70
    1
 43
0
 10
65.64389128778248
 20
7.479121158242265
 10
65.62731442821678
 20
7.480207663020906
 10
65.61102120331429
 20
7.483448586958389
 10
65.59529039467043
 20
7.488788476948002
 10
65.58039116078226
 20
7.496135965991357
 10
65.56657843167272
 20
7.505365336513705
 10
65.55408854696634
 20
7.516318671426575
 10
65.54313521205336
 20
7.528808556132958
 10
65.53390584153112
 20
7.542621285242603
 10
65.52655835248765
 20
7.557520519130662
 10
65.52121846249815
 20
7.573251327774642
 10
65.51797753856044
 20
7.589544552677125
 10
65.51689103378203
 20
7.606121412242828
 10
65.51689103378203
 20
21.60558801117611
 10
65.51797753856044
 20
21.6221648707417
 10
65.52121846249815
 20
21.6384580956443
 10
65.52655835248765
 20
21.65418890428828
 10
65.53390584153112
 20
21.66908813817633
 10
65.54313521205336
 20
21.68290086728598
 10
65.55408854696634
 20
21.69539075199225
 10
65.56657843167272
 20
21.70634408690523
 10
65.58039116078226
 20
21.71557345742758
 10
65.59529039467043
 20
21.72292094647082
 10
65.61102120331429
 20
21.72826083646044
 10
65.62731442821678
 20
21.73150176039803
 10
65.64389128778248
 20
21.73258826517656
 10
79.64320548641103
 20
21.73258826517656
 10
79.65978234597674
 20
21.73150176039803
 10
79.67607557087922
 20
21.72826083646044
 10
79.69180637952309
 20
21.72292094647082
 10
79.70670561341126
 20
21.71557345742758
 10
79.72051834252079
 20
21.70634408690523
 10
79.73300822722717
 20
21.69539075199225
 10
79.74396156214016
 20
21.68290086728598
 10
79.75319093266239
 20
21.66908813817633
 10
79.76053842170586
 20
21.65418890428828
 10
79.76587831169536
 20
21.6384580956443
 10
79.76911923563307
 20
21.6221648707417
 10
79.77020574041148
 20
21.60558801117611
 10
79.77020574041148
 20
7.606121412242828
 10
79.76911923563307
 20
7.589544552677125
 10
79.76587831169536
 20
7.573251327774642
 10
79.76053842170586
 20
7.557520519130662
 10
79.75319093266239
 20
7.542621285242603
 10
79.74396156214016
 20
7.528808556132958
 10
79.73300822722717
 20
7.516318671426575
 10
79.72051834252079
 20
7.505365336513705
 10
79.70670561341126
 20
7.496135965991357
 10
79.69180637952309
 20
7.488788476948002
 10
79.67607557087922
 20
7.483448586958389
 10
79.65978234597674
 20
7.480207663020906
 10
79.64320548641103
 20
7.479121158242265
  0
ENDSEC
  0
SECTION
  2
OBJECTS
  0
DICTIONARY
  5
C
330
0
100
AcDbDictionary
281
    1
  3
ACAD_GROUP
350
D
  0
DICTIONARY
  5
D
330
C
100
AcDbDictionary
281
    1
  0
PLOTSETTINGS
  5
8F
100
AcDbPlotSettings
  6
1x1
 40
0
 41
0
 42
0
 43
0
  0
ENDSEC
  0
EOF
