0
SECTION
2
HEADER
9
$INSUNITS
70
4
9
$ACADVER
1
AC1014
9
$HANDSEED
5
FFFF
0
ENDSEC
0
SECTION
2
TABLES
0
TABLE
2
VPORT
5
8
100
AcDbSymbolTable
0
ENDTAB
0
TABLE
2
LTYPE
5
5
100
AcDbSymbolTable
0
LTYPE
5
14
100
AcDbSymbolTableRecord
100
AcDbLinetypeTableRecord
2
BYBLOCK
70
0
0
LTYPE
5
15
100
AcDbSymbolTableRecord
100
AcDbLinetypeTableRecord
2
BYLAYER
70
0
0
ENDTAB
0
TABLE
2
LAYER
5
2
100
AcDbSymbolTable
70
2
0
LAYER
5
50
100
AcDbSymbolTableRecord
100
AcDbLayerTableRecord
2
0
70
0
6
CONTINUOUS
0
ENDTAB
0
TABLE
2
STYLE
5
3
100
AcDbSymbolTable
70
1
0
STYLE
5
11
100
AcDbSymbolTableRecord
100
AcDbTextStyleTableRecord
2
STANDARD
70
0
0
ENDTAB
0
TABLE
2
VIEW
5
6
100
AcDbSymbolTable
70
0
0
ENDTAB
0
TABLE
2
UCS
5
7
100
AcDbSymbolTable
70
0
0
ENDTAB
0
TABLE
2
APPID
5
9
100
AcDbSymbolTable
70
2
0
APPID
5
12
100
AcDbSymbolTableRecord
100
AcDbRegAppTableRecord
2
ACAD
70
0
0
ENDTAB
0
TABLE
2
DIMSTYLE
5
A
100
AcDbSymbolTable
70
1
0
ENDTAB
0
TABLE
2
BLOCK_RECORD
5
1
100
AcDbSymbolTable
70
1
0
BLOCK_RECORD
5
1F
100
AcDbSymbolTableRecord
100
AcDbBlockTableRecord
2
*MODEL_SPACE
0
BLOCK_RECORD
5
1B
100
AcDbSymbolTableRecord
100
AcDbBlockTableRecord
2
*PAPER_SPACE
0
ENDTAB
0
ENDSEC
0
SECTION
2
BLOCKS
0
BLOCK
5
20
100
AcDbEntity
100
AcDbBlockBegin
2
*MODEL_SPACE
0
ENDBLK
5
21
100
AcDbEntity
100
AcDbBlockEnd
0
BLOCK
5
1C
100
AcDbEntity
100
AcDbBlockBegin
2
*PAPER_SPACE
0
ENDBLK
5
1D
100
AcDbEntity
100
AcDbBlockEnd
0
ENDSEC
0
SECTION
2
ENTITIES
0
LINE
5
100
100
AcDbEntity
8
0
100
AcDbLine
10
284.529997459995
20
-45.600000000000016
30
0
11
284.529997459995
21
26.600000000000019
31
0
0
LWPOLYLINE
5
101
100
AcDbEntity
8
0
100
AcDbPolyline
90
12
70
1
43
0.0
10
418.05468090249133
20
-43.629753533222669
10
408.95548090249144
20
-43.629753533222669
10
408.95548090249144
20
-30.000000447034839
10
416.53048090249143
20
-30.000000447034839
10
416.53048090249143
20
-31.097028554362488
10
433.57938090249138
20
-31.097028554362488
10
433.57938090249138
20
-29.999999329447746
10
441.15458090249138
20
-29.999999329447746
10
441.15458090249138
20
-43.629753533222669
10
431.95999755695459
20
-43.629753533222669
10
431.95999755695459
20
-45.100053533222678
10
418.05468090249133
20
-45.100053533222663
0
ARC
5
102
100
AcDbEntity
8
0
100
AcDbCircle
10
286.529997459995
20
-45.619989839979667
30
0
40
1.9999999999999929
210
0
220
0
230
1
100
AcDbArc
50
180
51
270
0
LWPOLYLINE
5
103
100
AcDbEntity
8
0
100
AcDbPolyline
90
12
70
1
43
0.0
10
385.91938090249135
20
-31.097028554362488
10
368.87048090249141
20
-31.097028554362488
10
368.87048090249141
20
-30.000000447034839
10
361.29548090249148
20
-30.000000447034839
10
361.29548090249148
20
-43.629753533222669
10
370.39468090249147
20
-43.629753533222669
10
370.39468090249147
20
-45.100053533222663
10
384.29999755695462
20
-45.100053533222678
10
384.29999755695462
20
-43.629753533222669
10
393.49458090249129
20
-43.629753533222669
10
393.49458090249129
20
-29.999999329447746
10
385.91938090249135
20
-29.999999329447746
0
ARC
5
104
100
AcDbEntity
8
0
100
AcDbCircle
10
511.93649987299989
20
27.57000254000517
30
0
40
0.99999999999994316
210
0
220
0
230
1
100
AcDbArc
50
0
51
90.000000000003254
0
ARC
5
105
100
AcDbEntity
8
0
100
AcDbCircle
10
513.93649987299978
20
-24.264973329946692
30
0
40
0.99999999999994316
210
0
220
0
230
1
100
AcDbArc
50
180
51
270.00000000000648
0
ARC
5
106
100
AcDbEntity
8
0
100
AcDbCircle
10
535.46200152400331
20
-26.264973329946631
30
0
40
0.99999999999994316
210
-0
220
0
230
1
100
AcDbArc
50
0
51
90.000000000006523
0
LWPOLYLINE
5
107
100
AcDbEntity
8
0
100
AcDbPolyline
90
4
70
1
43
0.0
10
301.00003810007638
20
25.999530099060124
10
287.10003810007612
20
25.999530099060124
10
287.10003810007612
20
12.099530099060118
10
301.00003810007638
20
12.099530099060118
0
LWPOLYLINE
5
108
100
AcDbEntity
8
0
100
AcDbPolyline
90
4
70
1
43
0.0
10
306.15007620015245
20
12.099530099060118
10
320.05007620015243
20
12.099530099060118
10
320.05007620015243
20
25.999530099060124
10
306.15007620015245
20
25.999530099060124
0
LWPOLYLINE
5
109
100
AcDbEntity
8
0
100
AcDbPolyline
90
4
70
1
43
0.0
10
339.10011430022877
20
25.999530099060124
10
325.20011430022856
20
25.999530099060124
10
325.20011430022856
20
12.099530099060118
10
339.10011430022877
20
12.099530099060118
0
LWPOLYLINE
5
110
100
AcDbEntity
8
0
100
AcDbPolyline
90
4
70
1
43
0.0
10
358.15015240030482
20
25.999530099060124
10
344.2501524003049
20
25.999530099060124
10
344.2501524003049
20
12.099530099060118
10
358.15015240030482
20
12.099530099060118
0
LWPOLYLINE
5
111
100
AcDbEntity
8
0
100
AcDbPolyline
90
4
70
1
43
0.0
10
377.20019050038098
20
25.999530099060124
10
363.30019050038106
20
25.999530099060124
10
363.30019050038106
20
12.099530099060118
10
377.20019050038098
20
12.099530099060118
0
LWPOLYLINE
5
112
100
AcDbEntity
8
0
100
AcDbPolyline
90
4
70
1
43
0.0
10
382.35022860045711
20
12.099530099060118
10
396.25022860045726
20
12.099530099060118
10
396.25022860045726
20
25.999530099060124
10
382.35022860045711
20
25.999530099060124
0
LWPOLYLINE
5
113
100
AcDbEntity
8
0
100
AcDbPolyline
90
4
70
1
43
0.0
10
415.30026670053337
20
25.999530099060124
10
401.40026670053345
20
25.999530099060124
10
401.40026670053345
20
12.099530099060118
10
415.30026670053337
20
12.099530099060118
0
LWPOLYLINE
5
114
100
AcDbEntity
8
0
100
AcDbPolyline
90
4
70
1
43
0.0
10
434.35030480060982
20
25.999530099060124
10
420.4503048006095
20
25.999530099060124
10
420.4503048006095
20
12.099530099060118
10
434.35030480060982
20
12.099530099060118
0
LWPOLYLINE
5
115
100
AcDbEntity
8
0
100
AcDbPolyline
90
4
70
1
43
0.0
10
439.50034290068595
20
12.099530099060118
10
453.40034290068593
20
12.099530099060118
10
453.40034290068593
20
25.999530099060124
10
439.50034290068595
20
25.999530099060124
0
LWPOLYLINE
5
116
100
AcDbEntity
8
0
100
AcDbPolyline
90
4
70
1
43
0.0
10
458.55038100076206
20
12.099530099060118
10
472.45038100076204
20
12.099530099060118
10
472.45038100076192
20
25.999530099060124
10
458.55038100076206
20
25.999530099060124
0
LWPOLYLINE
5
117
100
AcDbEntity
8
0
100
AcDbPolyline
90
4
70
1
43
0.0
10
477.60041910083817
20
12.099530099060118
10
491.50041910083837
20
12.099530099060118
10
491.50041910083837
20
25.999530099060124
10
477.60041910083822
20
25.999530099060124
0
LWPOLYLINE
5
118
100
AcDbEntity
8
0
100
AcDbPolyline
90
4
70
1
43
0.0
10
496.6504572009145
20
12.099530099060118
10
510.55045720091442
20
12.099530099060118
10
510.55045720091442
20
25.999530099060124
10
496.6504572009145
20
25.999530099060124
0
LWPOLYLINE
5
119
100
AcDbEntity
8
0
100
AcDbPolyline
90
4
70
1
43
0.0
10
489.50542291084582
20
-6.950508001016102
10
503.40542291084597
20
-6.950508001016102
10
503.40542291084597
20
6.9494919989838984
10
489.50542291084582
20
6.9494919989838984
0
LWPOLYLINE
5
120
100
AcDbEntity
8
0
100
AcDbPolyline
90
4
70
1
43
0.0
10
463.31289052578114
20
-6.950508001016102
10
477.21289052578106
20
-6.950508001016102
10
477.21289052578106
20
6.9494919989838984
10
463.31289052578114
20
6.9494919989838984
0
LINE
5
121
100
AcDbEntity
8
0
100
AcDbLine
10
286.5
20
28.570002540005135
30
0
11
511.93649987299983
21
28.570002540005113
31
0
0
LWPOLYLINE
5
122
100
AcDbEntity
8
0
100
AcDbPolyline
90
12
70
1
43
0.0
10
418.05468090249133
20
-43.629753533222669
10
408.95548090249144
20
-43.629753533222669
10
408.95548090249144
20
-30.000000447034839
10
416.53048090249143
20
-30.000000447034839
10
416.53048090249143
20
-31.097028554362488
10
433.57938090249138
20
-31.097028554362488
10
433.57938090249138
20
-29.999999329447746
10
441.15458090249138
20
-29.999999329447746
10
441.15458090249138
20
-43.629753533222669
10
431.95999755695459
20
-43.629753533222669
10
431.95999755695459
20
-45.100053533222678
10
418.05468090249133
20
-45.100053533222663
0
LWPOLYLINE
5
123
100
AcDbEntity
8
0
100
AcDbPolyline
90
12
70
1
43
0.0
10
385.91938090249135
20
-31.097028554362488
10
368.87048090249141
20
-31.097028554362488
10
368.87048090249141
20
-30.000000447034839
10
361.29548090249148
20
-30.000000447034839
10
361.29548090249148
20
-43.629753533222669
10
370.39468090249147
20
-43.629753533222669
10
370.39468090249147
20
-45.100053533222663
10
384.29999755695462
20
-45.100053533222678
10
384.29999755695462
20
-43.629753533222669
10
393.49458090249129
20
-43.629753533222669
10
393.49458090249129
20
-29.999999329447746
10
385.91938090249135
20
-29.999999329447746
0
ARC
5
124
100
AcDbEntity
8
0
100
AcDbCircle
10
286.52501905003805
20
26.570002540005024
30
0
40
2.0000000000000018
210
0
220
-0
230
1
100
AcDbArc
50
90
51
180
0
LINE
5
125
100
AcDbEntity
8
0
100
AcDbLine
10
513.93649987299989
20
-25.264973329946656
30
0
11
535.4620015240032
21
-25.26497332994666
31
0
0
LINE
5
126
100
AcDbEntity
8
0
100
AcDbLine
10
536.4620015240032
20
-26.264973329946663
30
0
11
536.4620015240032
21
-45.619989840140988
31
0
0
ARC
5
127
100
AcDbEntity
8
0
100
AcDbCircle
10
534.4620015240032
20
-45.619989840140988
30
0
40
2.0000000000000018
210
0
220
0
230
1
100
AcDbArc
50
-90
51
0
0
LINE
5
128
100
AcDbEntity
8
0
100
AcDbLine
10
512.93649987299989
20
27.570002540005131
30
0
11
512.93649987299989
21
-24.264973329946656
31
0
0
LWPOLYLINE
5
129
100
AcDbEntity
8
0
100
AcDbPolyline
90
4
70
1
43
0.0
10
444.26285242570481
20
-6.950508001016102
10
458.16285242570495
20
-6.950508001016102
10
458.16285242570495
20
6.9494919989838984
10
444.26285242570481
20
6.9494919989838984
0
LWPOLYLINE
5
130
100
AcDbEntity
8
0
100
AcDbPolyline
90
4
70
1
43
0.0
10
439.11281432562868
20
6.9494919989838984
10
425.21281432562876
20
6.9494919989838984
10
425.21281432562876
20
-6.950508001016102
10
439.11281432562868
20
-6.950508001016102
0
LWPOLYLINE
5
131
100
AcDbEntity
8
0
100
AcDbPolyline
90
4
70
1
43
0.0
10
406.16277622555242
20
-6.950508001016102
10
420.06277622555262
20
-6.950508001016102
10
420.06277622555262
20
6.9494919989838984
10
406.16277622555242
20
6.9494919989838984
0
LWPOLYLINE
5
132
100
AcDbEntity
8
0
100
AcDbPolyline
90
4
70
1
43
0.0
10
387.11273812547626
20
-6.950508001016102
10
401.01273812547618
20
-6.950508001016102
10
401.01273812547618
20
6.9494919989838984
10
387.11273812547626
20
6.9494919989838984
0
LWPOLYLINE
5
133
100
AcDbEntity
8
0
100
AcDbPolyline
90
4
70
1
43
0.0
10
368.0627000254002
20
-6.950508001016102
10
381.96270002540012
20
-6.950508001016102
10
381.96270002540007
20
6.9494919989838984
10
368.0627000254002
20
6.9494919989838984
0
LWPOLYLINE
5
134
100
AcDbEntity
8
0
100
AcDbPolyline
90
4
70
1
43
0.0
10
349.01266192532381
20
-6.950508001016102
10
362.91266192532407
20
-6.950508001016102
10
362.91266192532407
20
6.9494919989838984
10
349.01266192532381
20
6.9494919989838984
0
LWPOLYLINE
5
135
100
AcDbEntity
8
0
100
AcDbPolyline
90
4
70
1
43
0.0
10
329.9626238252477
20
-6.950508001016102
10
343.86262382524762
20
-6.950508001016102
10
343.86262382524768
20
6.9494919989838984
10
329.96262382524776
20
6.9494919989838984
0
LWPOLYLINE
5
136
100
AcDbEntity
8
0
100
AcDbPolyline
90
4
70
1
43
0.0
10
310.91299212598437
20
-6.950508001016102
10
324.81299212598412
20
-6.950508001016102
10
324.81299212598412
20
6.9494919989838984
10
310.91299212598437
20
6.9494919989838984
0
LWPOLYLINE
5
137
100
AcDbEntity
8
0
100
AcDbPolyline
90
4
70
1
43
0.0
10
291.8630048260095
20
-6.950508001016102
10
305.76300482600976
20
-6.950508001016102
10
305.76300482600976
20
6.9494919989838984
10
291.8630048260095
20
6.9494919989838984
0
LWPOLYLINE
5
138
100
AcDbEntity
8
0
100
AcDbPolyline
90
4
70
1
43
0.0
10
294.2450723901448
20
-26.000546101092212
10
308.14507239014478
20
-26.000546101092212
10
308.14507239014478
20
-12.10054610109221
10
294.2450723901448
20
-12.10054610109221
0
LWPOLYLINE
5
139
100
AcDbEntity
8
0
100
AcDbPolyline
90
4
70
1
43
0.0
10
320.43760477520942
20
-26.000546101092212
10
334.33760477520963
20
-26.000546101092212
10
334.33760477520963
20
-12.10054610109221
10
320.43760477520942
20
-12.10054610109221
0
LWPOLYLINE
5
140
100
AcDbEntity
8
0
100
AcDbPolyline
90
4
70
1
43
0.0
10
353.38764287528568
20
-12.10054610109221
10
339.48764287528576
20
-12.10054610109221
10
339.48764287528576
20
-26.000546101092212
10
353.38764287528568
20
-26.000546101092212
0
LWPOLYLINE
5
141
100
AcDbEntity
8
0
100
AcDbPolyline
90
4
70
1
43
0.0
10
372.43768097536201
20
-12.10054610109221
10
358.53768097536192
20
-12.10054610109221
10
358.53768097536192
20
-26.000546101092212
10
372.43768097536201
20
-26.000546101092212
0
LWPOLYLINE
5
142
100
AcDbEntity
8
0
100
AcDbPolyline
90
4
70
1
43
0.0
10
391.48771907543818
20
-12.10054610109221
10
377.58771907543826
20
-12.10054610109221
10
377.58771907543826
20
-26.000546101092212
10
391.48771907543818
20
-26.000546101092212
0
LWPOLYLINE
5
143
100
AcDbEntity
8
0
100
AcDbPolyline
90
4
70
1
43
0.0
10
410.53775717551446
20
-12.10054610109221
10
396.63775717551431
20
-12.10054610109221
10
396.63775717551431
20
-26.000546101092212
10
410.53775717551446
20
-26.000546101092212
0
LWPOLYLINE
5
144
100
AcDbEntity
8
0
100
AcDbPolyline
90
4
70
1
43
0.0
10
429.58779527559057
20
-12.10054610109221
10
415.68779527559064
20
-12.10054610109221
10
415.68779527559064
20
-26.000546101092212
10
429.58779527559057
20
-26.000546101092212
0
LWPOLYLINE
5
145
100
AcDbEntity
8
0
100
AcDbPolyline
90
4
70
1
43
0.0
10
448.63783337566667
20
-12.10054610109221
10
434.7378333756667
20
-12.10054610109221
10
434.7378333756667
20
-26.000546101092212
10
448.63783337566667
20
-26.000546101092212
0
LWPOLYLINE
5
146
100
AcDbEntity
8
0
100
AcDbPolyline
90
4
70
1
43
0.0
10
467.68787147574307
20
-12.10054610109221
10
453.7878714757428
20
-12.10054610109221
10
453.7878714757428
20
-26.000546101092212
10
467.68787147574307
20
-26.000546101092212
0
LWPOLYLINE
5
147
100
AcDbEntity
8
0
100
AcDbPolyline
90
4
70
1
43
0.0
10
489.12043434086866
20
-12.10054610109221
10
475.22043434086874
20
-12.10054610109221
10
475.22043434086874
20
-26.000546101092212
10
489.12043434086866
20
-26.000546101092212
0
LWPOLYLINE
5
148
100
AcDbEntity
8
0
100
AcDbPolyline
90
4
70
1
43
0.0
10
510.55045720091442
20
-12.10054610109221
10
496.6504572009145
20
-12.10054610109221
10
496.6504572009145
20
-26.000546101092212
10
510.55045720091442
20
-26.000546101092212
0
LWPOLYLINE
5
149
100
AcDbEntity
8
0
100
AcDbPolyline
90
4
70
1
43
0.0
10
303.3800228600457
20
-31.150584201168428
10
289.48002286004572
20
-31.150584201168428
10
289.48002286004572
20
-45.050584201168434
10
303.3800228600457
20
-45.050584201168434
0
LWPOLYLINE
5
150
100
AcDbEntity
8
0
100
AcDbPolyline
90
4
70
1
43
0.0
10
324.81258572517157
20
-31.150584201168428
10
310.91258572517137
20
-31.150584201168428
10
310.91258572517137
20
-45.050584201168434
10
324.81258572517157
20
-45.050584201168434
0
LWPOLYLINE
5
151
100
AcDbEntity
8
0
100
AcDbPolyline
90
4
70
1
43
0.0
10
346.24499618999238
20
-31.150584201168428
10
332.34499618999246
20
-31.150584201168428
10
332.34499618999246
20
-45.050584201168434
10
346.24499618999238
20
-45.050584201168434
0
LWPOLYLINE
5
152
100
AcDbEntity
8
0
100
AcDbPolyline
90
4
70
1
43
0.0
10
465.30534671069353
20
-31.150508001016011
10
451.40534671069338
20
-31.150508001016011
10
451.40534671069338
20
-45.050508001016013
10
465.30534671069353
20
-45.050508001016013
0
LWPOLYLINE
5
153
100
AcDbEntity
8
0
100
AcDbPolyline
90
4
70
1
43
0.0
10
491.50041910083837
20
-31.150584201168428
10
477.60041910083817
20
-31.150584201168428
10
477.60041910083817
20
-45.050584201168434
10
491.50041910083837
20
-45.050584201168434
0
LWPOLYLINE
5
154
100
AcDbEntity
8
0
100
AcDbPolyline
90
4
70
1
43
0.0
10
510.55045720091442
20
-31.150584201168428
10
496.6504572009145
20
-31.150584201168428
10
496.6504572009145
20
-45.050584201168434
10
510.55045720091442
20
-45.050584201168434
0
LWPOLYLINE
5
155
100
AcDbEntity
8
0
100
AcDbPolyline
90
4
70
1
43
0.0
10
529.60049530099081
20
-31.150584201168428
10
515.7004953009905
20
-31.150584201168428
10
515.7004953009905
20
-45.050584201168434
10
529.60049530099081
20
-45.050584201168434
0
CIRCLE
5
156
100
AcDbEntity
8
0
100
AcDbCircle
10
532.17551435102882
20
-28.575057150114283
30
0
40
1.2999999999999998
210
0
220
0
230
1
0
CIRCLE
5
157
100
AcDbEntity
8
0
100
AcDbCircle
10
494.07543815087638
20
9.5250190500380558
30
0
40
1.2999999999999969
210
0
220
0
230
1
0
CIRCLE
5
158
100
AcDbEntity
8
0
100
AcDbCircle
10
436.92532385064783
20
9.5250190500380558
30
0
40
1.300000000000012
210
0
220
0
230
1
0
CIRCLE
5
159
100
AcDbEntity
8
0
100
AcDbCircle
10
360.72517145034294
20
9.5250190500380558
30
0
40
1.2999999999999858
210
0
220
0
230
1
0
CIRCLE
5
160
100
AcDbEntity
8
0
100
AcDbCircle
10
289
20
9.5250190500380558
30
0
40
1.3000000000000103
210
0
220
0
230
1
0
CIRCLE
5
161
100
AcDbEntity
8
0
100
AcDbCircle
10
289
20
-28.575057150114283
30
0
40
1.2999999999999903
210
0
220
0
230
1
0
CIRCLE
5
162
100
AcDbEntity
8
0
100
AcDbCircle
10
351.32715265430534
20
-38.100076200152436
30
0
40
1.3000000000000029
210
0
220
0
230
1
0
CIRCLE
5
163
100
AcDbEntity
8
0
100
AcDbCircle
10
446.32334264668543
20
-38.100076200152436
30
0
40
1.3000000000000003
210
0
220
0
230
1
0
LINE
5
164
100
AcDbEntity
8
0
100
AcDbLine
10
534.4620015240032
20
-47.619989840140988
30
0
11
286.529997459995
21
-47.619989839979667
31
0
0
ENDSEC
0
SECTION
2
OBJECTS
0
DICTIONARY
5
C
100
AcDbDictionary
3
ACAD_GROUP
350
D
3
ACAD_MLINESTYLE
350
17
0
DICTIONARY
5
D
100
AcDbDictionary
0
DICTIONARY
5
1A
330
C
100
AcDbDictionary
0
DICTIONARY
5
17
100
AcDbDictionary
0
ENDSEC
0
EOF
