0
SECTION
2
HEADER
9
$INSUNITS
70
4
9
$ACADVER
1
AC1014
9
$HANDSEED
5
FFFF
0
ENDSEC
0
SECTION
2
TABLES
0
TABLE
2
VPORT
5
8
100
AcDbSymbolTable
0
ENDTAB
0
TABLE
2
LTYPE
5
5
100
AcDbSymbolTable
0
LTYPE
5
14
100
AcDbSymbolTableRecord
100
AcDbLinetypeTableRecord
2
BYBLOCK
70
0
0
LTYPE
5
15
100
AcDbSymbolTableRecord
100
AcDbLinetypeTableRecord
2
BYLAYER
70
0
0
ENDTAB
0
TABLE
2
LAYER
5
2
100
AcDbSymbolTable
70
2
0
LAYER
5
50
100
AcDbSymbolTableRecord
100
AcDbLayerTableRecord
2
0
70
0
6
CONTINUOUS
0
ENDTAB
0
TABLE
2
STYLE
5
3
100
AcDbSymbolTable
70
1
0
STYLE
5
11
100
AcDbSymbolTableRecord
100
AcDbTextStyleTableRecord
2
STANDARD
70
0
0
ENDTAB
0
TABLE
2
VIEW
5
6
100
AcDbSymbolTable
70
0
0
ENDTAB
0
TABLE
2
UCS
5
7
100
AcDbSymbolTable
70
0
0
ENDTAB
0
TABLE
2
APPID
5
9
100
AcDbSymbolTable
70
2
0
APPID
5
12
100
AcDbSymbolTableRecord
100
AcDbRegAppTableRecord
2
ACAD
70
0
0
ENDTAB
0
TABLE
2
DIMSTYLE
5
A
100
AcDbSymbolTable
70
1
0
ENDTAB
0
TABLE
2
BLOCK_RECORD
5
1
100
AcDbSymbolTable
70
1
0
BLOCK_RECORD
5
1F
100
AcDbSymbolTableRecord
100
AcDbBlockTableRecord
2
*MODEL_SPACE
0
BLOCK_RECORD
5
1B
100
AcDbSymbolTableRecord
100
AcDbBlockTableRecord
2
*PAPER_SPACE
0
ENDTAB
0
ENDSEC
0
SECTION
2
BLOCKS
0
BLOCK
5
20
100
AcDbEntity
100
AcDbBlockBegin
2
*MODEL_SPACE
0
ENDBLK
5
21
100
AcDbEntity
100
AcDbBlockEnd
0
BLOCK
5
1C
100
AcDbEntity
100
AcDbBlockBegin
2
*PAPER_SPACE
0
ENDBLK
5
1D
100
AcDbEntity
100
AcDbBlockEnd
0
ENDSEC
0
SECTION
2
ENTITIES
0
LWPOLYLINE
5
100
100
AcDbEntity
8
0
100
AcDbPolyline
90
8
70
1
43
0.0
10
518.41753072927725
20
-14.858764694086354
10
531.41753072927725
20
-14.858764694086338
42
-0.4142135623730937
10
532.41753072927725
20
-15.858764694086346
10
532.41753072927725
20
-19.858764694086354
42
-0.41421356237309503
10
531.41753072927725
20
-20.85876469408635
10
518.41753072927725
20
-20.858764694086368
42
-0.41421356237309503
10
517.41753072927725
20
-19.858764694086354
10
517.41753072927725
20
-15.858764694086352
42
-0.4142135623730957
0
LWPOLYLINE
5
101
100
AcDbEntity
8
0
100
AcDbPolyline
90
8
70
1
43
0.0
10
517.50000178813946
20
5.5000000745057998
42
0.41421356237309631
10
518.50000178813946
20
4.5000000745058033
10
520.50000184774399
20
4.5000000745057989
42
0.41421356237309698
10
521.5000018477441
20
5.5000000745058024
10
521.5000018477441
20
9.5000001639127785
42
0.4142135623730957
10
520.50000184774399
20
10.500000163912775
10
518.50000178813946
20
10.500000163912782
42
0.41421356237309764
10
517.50000178813946
20
9.5000001639127767
0
LWPOLYLINE
5
102
100
AcDbEntity
8
0
100
AcDbPolyline
90
25
70
1
43
0.0
10
530.30000181794173
20
20.000000298023224
10
530.30000181794173
20
27.575006350012686
42
-0.41421356237312362
10
531.30000181794173
20
28.575006350012657
10
534.43993441155681
20
28.575006350012728
42
-0.41421356237309503
10
536.43993441155681
20
26.5750063500127
10
536.43993441155681
20
-23.764973329946663
10
536.43993441155681
20
-28.567370794136945
10
536.43993441155681
20
-29.566158459508966
42
-0.414213562373069
10
534.43993441155681
20
-31.566158459508969
10
532.17561158666012
20
-31.566158459508951
42
-0.25106665611311535
10
529.67757261596432
20
-30.227423429609996
42
0.25106665611310791
10
521.35077604697801
20
-25.764973329946663
10
513.43993441155737
20
-25.764973329947122
42
-0.41421371764936377
10
511.43993441155703
20
-23.764972269653683
10
511.43993441155669
20
1.0024936403453799
42
0.40906405882072799
10
508.49277205563806
20
4.0020283014832909
42
-0.98253985663245302
10
508.49277205563823
20
10.001097623759151
42
0.40906405882071994
10
511.43993441155669
20
13.000632284897192
10
511.43993441155646
20
26.575006350012643
42
-0.41421356237309959
10
513.43993441155646
20
28.575006350012679
10
517.30000181794162
20
28.5750063500127
42
-0.41421356237309631
10
518.30000181794173
20
27.575006350012682
10
518.30000181794173
20
20.000000298023227
42
0.41421356237309631
10
519.30000181794173
20
19.000000298023224
10
529.30000181794173
20
19.000000298023224
42
0.41421356237309764
0
LWPOLYLINE
5
103
100
AcDbEntity
8
0
100
AcDbPolyline
90
8
70
1
43
0.0
10
529.1000019669533
20
3.8000000596046468
42
0.41421356237309437
10
530.1000019669533
20
4.800000059604641
10
530.1000019669533
20
9.8000001639127774
42
0.41421356237309503
10
529.1000019669533
20
10.800000163912774
10
524.10000186264517
20
10.800000163912774
42
0.41421356237309503
10
523.10000186264517
20
9.8000001639127774
10
523.10000186264517
20
4.800000059604641
42
0.41421356237309437
10
524.10000186264517
20
3.8000000596046468
0
CIRCLE
5
104
100
AcDbEntity
8
0
100
AcDbCircle
10
508.54560969971965
20
7.0015629626212199
30
0
40
1.25
210
0
220
0
230
1
0
CIRCLE
5
105
100
AcDbEntity
8
0
100
AcDbCircle
10
532.17561158666012
20
-28.566158459508983
30
0
40
1.25
210
0
220
0
230
1
0
ENDSEC
0
SECTION
2
OBJECTS
0
DICTIONARY
5
C
100
AcDbDictionary
3
ACAD_GROUP
350
D
3
ACAD_MLINESTYLE
350
17
0
DICTIONARY
5
D
100
AcDbDictionary
0
DICTIONARY
5
1A
330
C
100
AcDbDictionary
0
DICTIONARY
5
17
100
AcDbDictionary
0
ENDSEC
0
EOF
