0
SECTION
2
HEADER
9
$INSUNITS
70
4
9
$ACADVER
1
AC1014
9
$HANDSEED
5
FFFF
0
ENDSEC
0
SECTION
2
TABLES
0
TABLE
2
VPORT
5
8
100
AcDbSymbolTable
0
ENDTAB
0
TABLE
2
LTYPE
5
5
100
AcDbSymbolTable
0
LTYPE
5
14
100
AcDbSymbolTableRecord
100
AcDbLinetypeTableRecord
2
BYBLOCK
70
0
0
LTYPE
5
15
100
AcDbSymbolTableRecord
100
AcDbLinetypeTableRecord
2
BYLAYER
70
0
0
ENDTAB
0
TABLE
2
LAYER
5
2
100
AcDbSymbolTable
70
2
0
LAYER
5
50
100
AcDbSymbolTableRecord
100
AcDbLayerTableRecord
2
0
70
0
6
CONTINUOUS
0
ENDTAB
0
TABLE
2
STYLE
5
3
100
AcDbSymbolTable
70
1
0
STYLE
5
11
100
AcDbSymbolTableRecord
100
AcDbTextStyleTableRecord
2
STANDARD
70
0
0
ENDTAB
0
TABLE
2
VIEW
5
6
100
AcDbSymbolTable
70
0
0
ENDTAB
0
TABLE
2
UCS
5
7
100
AcDbSymbolTable
70
0
0
ENDTAB
0
TABLE
2
APPID
5
9
100
AcDbSymbolTable
70
2
0
APPID
5
12
100
AcDbSymbolTableRecord
100
AcDbRegAppTableRecord
2
ACAD
70
0
0
ENDTAB
0
TABLE
2
DIMSTYLE
5
A
100
AcDbSymbolTable
70
1
0
ENDTAB
0
TABLE
2
BLOCK_RECORD
5
1
100
AcDbSymbolTable
70
1
0
BLOCK_RECORD
5
1F
100
AcDbSymbolTableRecord
100
AcDbBlockTableRecord
2
*MODEL_SPACE
0
BLOCK_RECORD
5
1B
100
AcDbSymbolTableRecord
100
AcDbBlockTableRecord
2
*PAPER_SPACE
0
ENDTAB
0
ENDSEC
0
SECTION
2
BLOCKS
0
BLOCK
5
20
100
AcDbEntity
100
AcDbBlockBegin
2
*MODEL_SPACE
0
ENDBLK
5
21
100
AcDbEntity
100
AcDbBlockEnd
0
BLOCK
5
1C
100
AcDbEntity
100
AcDbBlockBegin
2
*PAPER_SPACE
0
ENDBLK
5
1D
100
AcDbEntity
100
AcDbBlockEnd
0
ENDSEC
0
SECTION
2
ENTITIES
0
LWPOLYLINE
5
100
100
AcDbEntity
8
0
100
AcDbPolyline
90
8
70
1
43
0.0
10
10.036500523523966
20
36.319999976981308
42
0.0030408854063936623
10
256.67350709594632
20
36.319999976981563
42
-0.41824092513964878
10
264.92931920629826
20
27.963230544624757
42
0.049997274784806742
10
264.92931920629769
20
-47.013217845660414
42
-0.41824092530414503
10
256.67350709133166
20
-55.369987277995278
42
0.0030408854063685609
10
10.036500520048389
20
-55.369987133145948
42
-0.41824092499869042
10
1.7806884137186785
20
-47.013217700588264
42
0.049997274881598115
10
1.7806884137200629
20
27.963230544417193
42
-0.41824092512849692
0
LWPOLYLINE
5
101
100
AcDbEntity
8
0
100
AcDbPolyline
90
8
70
1
43
0.0
10
257.6800101600204
20
28.070002540005149
42
0.41421356237306772
10
256.6800101600204
20
29.070002540005149
10
240.62501905003813
20
29.07000254000571
42
0.41421356237310025
10
239.62501905003808
20
28.07000254000571
10
239.62501905003822
20
-9.0249936499872305
42
0.41421356237306639
10
240.62501905003825
20
-10.024993649987216
10
256.6800101600204
20
-10.024993649987339
42
0.41421356237307
10
257.6800101600204
20
-9.0249936499873407
0
CIRCLE
5
102
100
AcDbEntity
8
0
100
AcDbCircle
10
259.24327224182161
20
30.633264621806411
30
0
40
1.6000000000000014
210
0
220
0
230
1
0
CIRCLE
5
103
100
AcDbEntity
8
0
100
AcDbCircle
10
178.4500381000762
20
31.695002540005135
30
0
40
1.6000000000000014
210
0
220
0
230
1
0
CIRCLE
5
104
100
AcDbEntity
8
0
100
AcDbCircle
10
88.249961899923846
20
31.695002540005135
30
0
40
1.599999999999995
210
0
220
0
230
1
0
CIRCLE
5
105
100
AcDbEntity
8
0
100
AcDbCircle
10
7.4667353781937651
20
30.633264621806369
30
0
40
1.6000000000000003
210
0
220
0
230
1
0
CIRCLE
5
106
100
AcDbEntity
8
0
100
AcDbCircle
10
7.4667353774410472
20
-49.683251777213364
30
0
40
1.6000000000000003
210
0
220
0
230
1
0
CIRCLE
5
107
100
AcDbEntity
8
0
100
AcDbCircle
10
88.249961899923818
20
-50.744989742103357
30
0
40
1.6000000000000014
210
0
220
0
230
1
0
CIRCLE
5
108
100
AcDbEntity
8
0
100
AcDbCircle
10
178.4500381000762
20
-50.744989795077799
30
0
40
1.6000000000000014
210
0
220
0
230
1
0
CIRCLE
5
109
100
AcDbEntity
8
0
100
AcDbCircle
10
259.24327224106889
20
-49.683251923576115
30
0
40
1.6000000000000014
210
0
220
0
230
1
0
LWPOLYLINE
5
110
100
AcDbEntity
8
0
100
AcDbPolyline
90
12
70
1
43
0.0
10
133.95548090249144
20
-30.000000447034839
10
141.53048090249141
20
-30.000000447034839
10
141.53048090249141
20
-31.097028554362488
10
158.57938090249138
20
-31.097028554362488
10
158.57938090249138
20
-29.999999329447746
10
166.15458090249138
20
-29.999999329447746
10
166.15458090249138
20
-43.629753533222669
10
156.95999755695462
20
-43.629753533222669
10
156.95999755695462
20
-45.100053533222678
10
143.05468090249138
20
-45.100053533222663
10
143.05468090249138
20
-43.629753533222669
10
133.95548090249144
20
-43.629753533222669
0
LWPOLYLINE
5
111
100
AcDbEntity
8
0
100
AcDbPolyline
90
12
70
1
43
0.0
10
93.870480902491394
20
-30.000000447034839
10
86.295480902491434
20
-30.000000447034839
10
86.295480902491434
20
-43.629753533222669
10
95.394680902491416
20
-43.629753533222669
10
95.394680902491416
20
-45.100053533222663
10
109.29999755695464
20
-45.100053533222678
10
109.29999755695464
20
-43.629753533222669
10
118.49458090249132
20
-43.629753533222669
10
118.49458090249132
20
-29.999999329447746
10
110.91938090249137
20
-29.999999329447746
10
110.91938090249137
20
-31.097028554362488
10
93.870480902491394
20
-31.097028554362488
0
LWPOLYLINE
5
112
100
AcDbEntity
8
0
100
AcDbPolyline
90
4
70
1
43
0.0
10
12.100012700025488
20
12.10052070104136
10
26.00001270002549
20
12.10052070104136
10
26.00001270002549
20
26.000520701041367
10
12.100012700025488
20
26.000520701041367
0
LWPOLYLINE
5
113
100
AcDbEntity
8
0
100
AcDbPolyline
90
4
70
1
43
0.0
10
45.049999999999898
20
26.000520701041367
10
31.150000000000141
20
26.000520701041367
10
31.150000000000141
20
12.10052070104136
10
45.049999999999898
20
12.10052070104136
0
LWPOLYLINE
5
114
100
AcDbEntity
8
0
100
AcDbPolyline
90
4
70
1
43
0.0
10
50.199987299974545
20
12.10052070104136
10
64.100012700025403
20
12.10052070104136
10
64.100012700025403
20
26.000520701041367
10
50.199987299974545
20
26.000520701041367
0
LWPOLYLINE
5
115
100
AcDbEntity
8
0
100
AcDbPolyline
90
4
70
1
43
0.0
10
83.150000000000048
20
26.000520701041367
10
69.250000000000057
20
26.000520701041367
10
69.250000000000057
20
12.10052070104136
10
83.150000000000048
20
12.10052070104136
0
LWPOLYLINE
5
116
100
AcDbEntity
8
0
100
AcDbPolyline
90
4
70
1
43
0.0
10
102.20001270002528
20
26.000520701041367
10
88.300012700025547
20
26.000520701041367
10
88.300012700025547
20
12.10052070104136
10
102.20001270002528
20
12.10052070104136
0
LWPOLYLINE
5
117
100
AcDbEntity
8
0
100
AcDbPolyline
90
4
70
1
43
0.0
10
107.35000000000001
20
12.10052070104136
10
121.25000000000021
20
12.10052070104136
10
121.25000000000021
20
26.000520701041367
10
107.35000000000001
20
26.000520701041367
0
LWPOLYLINE
5
118
100
AcDbEntity
8
0
100
AcDbPolyline
90
4
70
1
43
0.0
10
140.30001270002541
20
26.000520701041367
10
126.4000127000252
20
26.000520701041367
10
126.4000127000252
20
12.10052070104136
10
140.30001270002541
20
12.10052070104136
0
LWPOLYLINE
5
119
100
AcDbEntity
8
0
100
AcDbPolyline
90
4
70
1
43
0.0
10
159.34999999999991
20
26.000520701041367
10
145.4500000000001
20
26.000520701041367
10
145.4500000000001
20
12.10052070104136
10
159.34999999999991
20
12.10052070104136
0
LWPOLYLINE
5
120
100
AcDbEntity
8
0
100
AcDbPolyline
90
4
70
1
43
0.0
10
178.40001270002563
20
26.000520701041367
10
164.49998729997449
20
26.000520701041367
10
164.49998729997449
20
12.10052070104136
10
178.40001270002563
20
12.10052070104136
0
LWPOLYLINE
5
121
100
AcDbEntity
8
0
100
AcDbPolyline
90
4
70
1
43
0.0
10
183.55000000000018
20
12.10052070104136
10
197.45000000000002
20
12.10052070104136
10
197.45000000000002
20
26.000520701041367
10
183.55000000000018
20
26.000520701041367
0
LWPOLYLINE
5
122
100
AcDbEntity
8
0
100
AcDbPolyline
90
4
70
1
43
0.0
10
202.6000127000255
20
12.10052070104136
10
216.50001270002534
20
12.10052070104136
10
216.50001270002534
20
26.000520701041367
10
202.6000127000255
20
26.000520701041367
0
LWPOLYLINE
5
123
100
AcDbEntity
8
0
100
AcDbPolyline
90
4
70
1
43
0.0
10
221.64999999999995
20
12.10052070104136
10
235.5500000000001
20
12.10052070104136
10
235.5500000000001
20
26.000520701041367
10
221.64999999999995
20
26.000520701041367
0
LWPOLYLINE
5
124
100
AcDbEntity
8
0
100
AcDbPolyline
90
4
70
1
43
0.0
10
214.50499110998231
20
-6.9494919989839001
10
228.40499110998235
20
-6.9494919989838984
10
228.40499110998235
20
6.9505080010159865
10
214.50499110998231
20
6.9505080010159883
0
LWPOLYLINE
5
125
100
AcDbEntity
8
0
100
AcDbPolyline
90
4
70
1
43
0.0
10
188.31299212598429
20
-6.9494919989838984
10
202.21299212598436
20
-6.9494919989838984
10
202.21299212598436
20
6.9505080010159865
10
188.31299212598429
20
6.9505080010159883
0
LWPOLYLINE
5
126
100
AcDbEntity
8
0
100
AcDbPolyline
90
4
70
1
43
0.0
10
169.26300482600962
20
-6.9494919989838984
10
183.16300482600963
20
-6.9494919989838984
10
183.16300482600963
20
6.9505080010159919
10
169.26300482600962
20
6.9505080010159883
0
LWPOLYLINE
5
127
100
AcDbEntity
8
0
100
AcDbPolyline
90
4
70
1
43
0.0
10
150.21299212598441
20
-6.9494665989331672
10
164.11299212598411
20
-6.9494665989331672
10
164.11299212598411
20
6.9505334010667186
10
150.21299212598441
20
6.9505334010667186
0
LWPOLYLINE
5
128
100
AcDbEntity
8
0
100
AcDbPolyline
90
4
70
1
43
0.0
10
131.16300482600971
20
-6.9494919989838984
10
145.06300482600972
20
-6.9494919989838984
10
145.06300482600972
20
6.9505080010159919
10
131.16300482600971
20
6.9505080010159883
0
LWPOLYLINE
5
129
100
AcDbEntity
8
0
100
AcDbPolyline
90
4
70
1
43
0.0
10
126.0129921259845
20
-6.9494919989838984
10
126.0129921259845
20
6.9505080010159865
10
112.11299212598422
20
6.9505080010159883
10
112.11299212598422
20
-6.9494919989838975
0
LWPOLYLINE
5
130
100
AcDbEntity
8
0
100
AcDbPolyline
90
4
70
1
43
0.0
10
106.96300482600959
20
-6.9494919989838984
10
106.96300482600959
20
6.9505080010159919
10
93.063004826009816
20
6.9505080010159883
10
93.063004826009816
20
-6.9494919989838975
0
LWPOLYLINE
5
131
100
AcDbEntity
8
0
100
AcDbPolyline
90
4
70
1
43
0.0
10
87.912992125984317
20
-6.9494919989838984
10
87.912992125984317
20
6.9505080010159865
10
74.012992125984113
20
6.9505080010159883
10
74.012992125984113
20
-6.9494919989838975
0
LWPOLYLINE
5
132
100
AcDbEntity
8
0
100
AcDbPolyline
90
4
70
1
43
0.0
10
68.863004826009686
20
6.9505080010159892
10
54.963004826009687
20
6.9505080010159883
10
54.963004826009687
20
-6.9494919989839019
10
68.863004826009686
20
-6.9494919989838984
0
LWPOLYLINE
5
133
100
AcDbEntity
8
0
100
AcDbPolyline
90
4
70
1
43
0.0
10
49.812992125984195
20
6.9505080010159892
10
35.912992125984424
20
6.9505080010159883
10
35.912992125984424
20
-6.9494919989838975
10
49.812992125984195
20
-6.9494919989838984
0
LWPOLYLINE
5
134
100
AcDbEntity
8
0
100
AcDbPolyline
90
4
70
1
43
0.0
10
28.379997459994868
20
6.9505080010159883
10
14.47999745999487
20
6.9505080010159883
10
14.47999745999487
20
-6.9494919989838975
10
28.379997459994868
20
-6.9494919989838984
0
LWPOLYLINE
5
135
100
AcDbEntity
8
0
100
AcDbPolyline
90
4
70
1
43
0.0
10
33.144996189992256
20
-12.09947929895854
10
19.244996189992481
20
-12.09947929895854
10
19.244996189992481
20
-25.999479298958544
10
33.144996189992256
20
-25.999479298958544
0
LWPOLYLINE
5
136
100
AcDbEntity
8
0
100
AcDbPolyline
90
4
70
1
43
0.0
10
59.338011176022256
20
-12.09947929895854
10
45.438011176022471
20
-12.09947929895854
10
45.438011176022471
20
-25.999479298958544
10
59.338011176022256
20
-25.999479298958544
0
LWPOLYLINE
5
137
100
AcDbEntity
8
0
100
AcDbPolyline
90
4
70
1
43
0.0
10
78.387998475997122
20
-12.09947929895854
10
64.487998475996889
20
-12.09947929895854
10
64.487998475996889
20
-25.999479298958544
10
78.387998475997122
20
-25.999479298958544
0
LWPOLYLINE
5
138
100
AcDbEntity
8
0
100
AcDbPolyline
90
4
70
1
43
0.0
10
97.438011176022385
20
-12.09947929895854
10
83.538011176022394
20
-12.09947929895854
10
83.538011176022394
20
-25.999479298958544
10
97.438011176022385
20
-25.999479298958544
0
LWPOLYLINE
5
139
100
AcDbEntity
8
0
100
AcDbPolyline
90
4
70
1
43
0.0
10
116.48799847599679
20
-12.09947929895854
10
102.58799847599703
20
-12.09947929895854
10
102.58799847599703
20
-25.999479298958544
10
116.48799847599679
20
-25.999479298958544
0
LWPOLYLINE
5
140
100
AcDbEntity
8
0
100
AcDbPolyline
90
4
70
1
43
0.0
10
135.53801117602251
20
-12.09947929895854
10
121.63801117602232
20
-12.09947929895854
10
121.63801117602232
20
-25.999479298958544
10
135.53801117602251
20
-25.999479298958544
0
LWPOLYLINE
5
141
100
AcDbEntity
8
0
100
AcDbPolyline
90
4
70
1
43
0.0
10
154.5879984759969
20
-12.09947929895854
10
140.68799847599692
20
-12.09947929895854
10
140.68799847599692
20
-25.999479298958544
10
154.5879984759969
20
-25.999479298958544
0
LWPOLYLINE
5
142
100
AcDbEntity
8
0
100
AcDbPolyline
90
4
70
1
43
0.0
10
173.63801117602242
20
-12.09947929895854
10
159.73801117602244
20
-12.09947929895854
10
159.73801117602244
20
-25.999479298958544
10
173.63801117602242
20
-25.999479298958544
0
LWPOLYLINE
5
143
100
AcDbEntity
8
0
100
AcDbPolyline
90
4
70
1
43
0.0
10
192.68799847599709
20
-12.09947929895854
10
178.78799847599709
20
-12.09947929895854
10
178.78799847599709
20
-25.999479298958544
10
192.68799847599709
20
-25.999479298958544
0
LWPOLYLINE
5
144
100
AcDbEntity
8
0
100
AcDbPolyline
90
4
70
1
43
0.0
10
214.120002540005
20
-12.09947929895854
10
200.220002540005
20
-12.09947929895854
10
200.220002540005
20
-25.999479298958544
10
214.120002540005
20
-25.999479298958544
0
LWPOLYLINE
5
145
100
AcDbEntity
8
0
100
AcDbPolyline
90
4
70
1
43
0.0
10
235.5500000000001
20
-12.09947929895854
10
221.64999999999995
20
-12.09947929895854
10
221.64999999999995
20
-25.999479298958544
10
235.5500000000001
20
-25.999479298958544
0
LWPOLYLINE
5
146
100
AcDbEntity
8
0
100
AcDbPolyline
90
4
70
1
43
0.0
10
254.60001270002545
20
-12.09947929895854
10
240.70001270002538
20
-12.09947929895854
10
240.70001270002538
20
-25.999479298958544
10
254.60001270002545
20
-25.999479298958544
0
LWPOLYLINE
5
147
100
AcDbEntity
8
0
100
AcDbPolyline
90
4
70
1
43
0.0
10
254.60001270002545
20
-31.149466598933195
10
240.70001270002538
20
-31.149466598933195
10
240.70001270002538
20
-45.049466598933193
10
254.60001270002545
20
-45.049466598933193
0
LWPOLYLINE
5
148
100
AcDbEntity
8
0
100
AcDbPolyline
90
4
70
1
43
0.0
10
235.5500000000001
20
-31.149466598933195
10
221.64999999999995
20
-31.149466598933195
10
221.64999999999995
20
-45.049466598933193
10
235.5500000000001
20
-45.049466598933193
0
LWPOLYLINE
5
149
100
AcDbEntity
8
0
100
AcDbPolyline
90
4
70
1
43
0.0
10
216.50001270002534
20
-31.149491998984043
10
202.6000127000255
20
-31.149491998984043
10
202.6000127000255
20
-45.049491998984045
10
216.50001270002534
20
-45.049491998984045
0
LWPOLYLINE
5
150
100
AcDbEntity
8
0
100
AcDbPolyline
90
4
70
1
43
0.0
10
190.30499110998221
20
-31.149491998984043
10
176.40499110998221
20
-31.149491998984043
10
176.40499110998221
20
-45.049491998984045
10
190.30499110998221
20
-45.049491998984045
0
LWPOLYLINE
5
151
100
AcDbEntity
8
0
100
AcDbPolyline
90
4
70
1
43
0.0
10
71.244996189992392
20
-31.149491998984043
10
57.344996189992386
20
-31.149491998984043
10
57.344996189992386
20
-45.049491998984045
10
71.244996189992392
20
-45.049491998984045
0
LWPOLYLINE
5
152
100
AcDbEntity
8
0
100
AcDbPolyline
90
4
70
1
43
0.0
10
49.812992125984195
20
-31.149491998984043
10
35.912992125984424
20
-31.149491998984043
10
35.912992125984424
20
-45.049491998984045
10
49.812992125984195
20
-45.049491998984045
0
LWPOLYLINE
5
153
100
AcDbEntity
8
0
100
AcDbPolyline
90
4
70
1
43
0.0
10
28.379997459994868
20
-31.149491998984043
10
14.47999745999487
20
-31.149491998984043
10
14.47999745999487
20
-45.049491998984045
10
28.379997459994868
20
-45.049491998984045
0
CIRCLE
5
154
100
AcDbEntity
8
0
100
AcDbCircle
10
28.5750063500127
20
9.9059944119887877
30
0
40
1.3000000000000016
210
0
220
0
230
1
0
CIRCLE
5
155
100
AcDbEntity
8
0
100
AcDbCircle
10
32.257988315976718
20
-29.21000762001529
30
0
40
1.2999999999999989
210
0
220
0
230
1
0
CIRCLE
5
156
100
AcDbEntity
8
0
100
AcDbCircle
10
119.12626365252731
20
-9.7789941579882225
30
0
40
1.3000000000000078
210
0
220
0
230
1
0
CIRCLE
5
157
100
AcDbEntity
8
0
100
AcDbCircle
10
233.55351790703594
20
6.9849885699770775
30
0
40
1.2999999999999901
210
0
220
0
230
1
0
CIRCLE
5
158
100
AcDbEntity
8
0
100
AcDbCircle
10
219.07551435102869
20
-28.5750063500127
30
0
40
1.2999999999999901
210
0
220
0
230
1
0
ENDSEC
0
SECTION
2
OBJECTS
0
DICTIONARY
5
C
100
AcDbDictionary
3
ACAD_GROUP
350
D
3
ACAD_MLINESTYLE
350
17
0
DICTIONARY
5
D
100
AcDbDictionary
0
DICTIONARY
5
1A
330
C
100
AcDbDictionary
0
DICTIONARY
5
17
100
AcDbDictionary
0
ENDSEC
0
EOF
