0
SECTION
2
HEADER
9
$INSUNITS
70
4
9
$ACADVER
1
AC1014
9
$HANDSEED
5
FFFF
0
ENDSEC
0
SECTION
2
TABLES
0
TABLE
2
VPORT
5
8
100
AcDbSymbolTable
0
ENDTAB
0
TABLE
2
LTYPE
5
5
100
AcDbSymbolTable
0
LTYPE
5
14
100
AcDbSymbolTableRecord
100
AcDbLinetypeTableRecord
2
BYBLOCK
70
0
0
LTYPE
5
15
100
AcDbSymbolTableRecord
100
AcDbLinetypeTableRecord
2
BYLAYER
70
0
0
ENDTAB
0
TABLE
2
LAYER
5
2
100
AcDbSymbolTable
70
2
0
LAYER
5
50
100
AcDbSymbolTableRecord
100
AcDbLayerTableRecord
2
0
70
0
6
CONTINUOUS
0
ENDTAB
0
TABLE
2
STYLE
5
3
100
AcDbSymbolTable
70
1
0
STYLE
5
11
100
AcDbSymbolTableRecord
100
AcDbTextStyleTableRecord
2
STANDARD
70
0
0
ENDTAB
0
TABLE
2
VIEW
5
6
100
AcDbSymbolTable
70
0
0
ENDTAB
0
TABLE
2
UCS
5
7
100
AcDbSymbolTable
70
0
0
ENDTAB
0
TABLE
2
APPID
5
9
100
AcDbSymbolTable
70
2
0
APPID
5
12
100
AcDbSymbolTableRecord
100
AcDbRegAppTableRecord
2
ACAD
70
0
0
ENDTAB
0
TABLE
2
DIMSTYLE
5
A
100
AcDbSymbolTable
70
1
0
ENDTAB
0
TABLE
2
BLOCK_RECORD
5
1
100
AcDbSymbolTable
70
1
0
BLOCK_RECORD
5
1F
100
AcDbSymbolTableRecord
100
AcDbBlockTableRecord
2
*MODEL_SPACE
0
BLOCK_RECORD
5
1B
100
AcDbSymbolTableRecord
100
AcDbBlockTableRecord
2
*PAPER_SPACE
0
ENDTAB
0
ENDSEC
0
SECTION
2
BLOCKS
0
BLOCK
5
20
100
AcDbEntity
100
AcDbBlockBegin
2
*MODEL_SPACE
0
ENDBLK
5
21
100
AcDbEntity
100
AcDbBlockEnd
0
BLOCK
5
1C
100
AcDbEntity
100
AcDbBlockBegin
2
*PAPER_SPACE
0
ENDBLK
5
1D
100
AcDbEntity
100
AcDbBlockEnd
0
ENDSEC
0
SECTION
2
ENTITIES
0
LWPOLYLINE
5
100
100
AcDbEntity
8
0
100
AcDbPolyline
90
4
70
1
43
0.0
10
93.013004826009805
20
7.0005080010159881
10
93.013004826009805
20
-6.9994919989838991
10
107.01300482600959
20
-6.9994919989838991
10
107.01300482600959
20
7.000508001015989
0
LWPOLYLINE
5
101
100
AcDbEntity
8
0
100
AcDbPolyline
90
4
70
1
43
0.0
10
87.962992125984329
20
7.0005080010159881
10
73.962992125984101
20
7.0005080010159881
10
73.962992125984101
20
-6.9994919989838991
10
87.962992125984329
20
-6.9994919989838991
0
LWPOLYLINE
5
102
100
AcDbEntity
8
0
100
AcDbPolyline
90
4
70
1
43
0.0
10
69.200000000000045
20
26.050520701041364
10
69.200000000000045
20
12.050520701041361
10
83.20000000000006
20
12.050520701041361
10
83.20000000000006
20
26.050520701041364
0
LWPOLYLINE
5
103
100
AcDbEntity
8
0
100
AcDbPolyline
90
4
70
1
43
0.0
10
126.06299212598451
20
-6.9994919989838991
10
126.06299212598451
20
7.0005080010159881
10
112.06299212598422
20
7.0005080010159881
10
112.06299212598422
20
-6.9994919989838991
0
LWPOLYLINE
5
104
100
AcDbEntity
8
0
100
AcDbPolyline
90
4
70
1
43
0.0
10
116.5379984759968
20
-12.049479298958541
10
102.53799847599701
20
-12.049479298958541
10
102.53799847599701
20
-26.049479298958541
10
116.5379984759968
20
-26.049479298958541
0
CIRCLE
5
105
100
AcDbEntity
8
0
100
AcDbCircle
10
88.249961899923846
20
31.695002540005135
30
0
40
1.599999999999995
210
0
220
0
230
1
0
LWPOLYLINE
5
106
100
AcDbEntity
8
0
100
AcDbPolyline
90
4
70
1
43
0.0
10
88.250012700025536
20
12.050520701041361
10
102.25001270002529
20
12.050520701041361
10
102.25001270002529
20
26.050520701041364
10
88.250012700025536
20
26.050520701041364
0
LWPOLYLINE
5
107
100
AcDbEntity
8
0
100
AcDbPolyline
90
4
70
1
43
0.0
10
107.30000000000001
20
26.050520701041364
10
107.30000000000001
20
12.050520701041361
10
121.30000000000022
20
12.050520701041361
10
121.30000000000022
20
26.050520701041364
0
LWPOLYLINE
5
108
100
AcDbEntity
8
0
100
AcDbPolyline
90
4
70
1
43
0.0
10
131.1130048260097
20
7.0005080010159881
10
131.1130048260097
20
-6.9994919989838991
10
145.1130048260097
20
-6.9994919989838991
10
145.1130048260097
20
7.000508001015989
0
LWPOLYLINE
5
109
100
AcDbEntity
8
0
100
AcDbPolyline
90
4
70
1
43
0.0
10
126.35001270002519
20
26.050520701041364
10
126.35001270002519
20
12.050520701041361
10
140.35001270002542
20
12.050520701041361
10
140.35001270002542
20
26.050520701041364
0
LWPOLYLINE
5
110
100
AcDbEntity
8
0
100
AcDbPolyline
90
4
70
1
43
0.0
10
68.913004826009683
20
-6.9994919989838991
10
68.913004826009683
20
7.000508001015989
10
54.91300482600969
20
7.0005080010159881
10
54.91300482600969
20
-6.9994919989839
0
LWPOLYLINE
5
111
100
AcDbEntity
8
0
100
AcDbPolyline
90
4
70
1
43
0.0
10
97.488011176022397
20
-12.049479298958541
10
83.488011176022383
20
-12.049479298958541
10
83.488011176022383
20
-26.049479298958541
10
97.488011176022397
20
-26.049479298958541
0
LWPOLYLINE
5
112
100
AcDbEntity
8
0
100
AcDbPolyline
90
4
70
1
43
0.0
10
121.58801117602231
20
-26.049479298958541
10
135.58801117602252
20
-26.049479298958541
10
135.58801117602252
20
-12.049479298958541
10
121.58801117602231
20
-12.049479298958541
0
LWPOLYLINE
5
113
100
AcDbEntity
8
0
100
AcDbPolyline
90
8
70
1
43
0.0
10
10.036500523523966
20
36.319999976981308
42
0.0030408854063936623
10
256.67350709594632
20
36.319999976981563
42
-0.41824092513964878
10
264.92931920629826
20
27.963230544624757
42
0.049997274784806742
10
264.92931920629769
20
-47.013217845660414
42
-0.41824092530414503
10
256.67350709133166
20
-55.369987277995278
42
0.0030408854063685609
10
10.036500520048389
20
-55.369987133145948
42
-0.41824092499869042
10
1.7806884137186785
20
-47.013217700588264
42
0.049997274881598115
10
1.7806884137200629
20
27.963230544417193
42
-0.41824092512849692
0
LWPOLYLINE
5
114
100
AcDbEntity
8
0
100
AcDbPolyline
90
4
70
1
43
0.0
10
192.73799847599707
20
-12.049479298958541
10
178.7379984759971
20
-12.049479298958541
10
178.7379984759971
20
-26.049479298958541
10
192.73799847599707
20
-26.049479298958541
0
LWPOLYLINE
5
115
100
AcDbEntity
8
0
100
AcDbPolyline
90
4
70
1
43
0.0
10
57.294996189992389
20
-45.099491998984043
10
71.294996189992389
20
-45.099491998984043
10
71.294996189992389
20
-31.099491998984043
10
57.294996189992389
20
-31.099491998984043
0
LWPOLYLINE
5
116
100
AcDbEntity
8
0
100
AcDbPolyline
90
4
70
1
43
0.0
10
197.5
20
26.050520701041364
10
183.5000000000002
20
26.050520701041364
10
183.5000000000002
20
12.050520701041361
10
197.5
20
12.050520701041361
0
LWPOLYLINE
5
117
100
AcDbEntity
8
0
100
AcDbPolyline
90
4
70
1
43
0.0
10
64.437998475996892
20
-26.049479298958541
10
78.437998475997119
20
-26.049479298958541
10
78.437998475997119
20
-12.049479298958541
10
64.437998475996892
20
-12.049479298958541
0
LWPOLYLINE
5
118
100
AcDbEntity
8
0
100
AcDbPolyline
90
4
70
1
43
0.0
10
190.35499110998219
20
-31.099491998984043
10
176.35499110998222
20
-31.099491998984043
10
176.35499110998222
20
-45.099491998984043
10
190.35499110998219
20
-45.099491998984043
0
LWPOLYLINE
5
119
100
AcDbEntity
8
0
100
AcDbPolyline
90
4
70
1
43
0.0
10
31.10000000000014
20
26.050520701041364
10
31.10000000000014
20
12.050520701041361
10
45.099999999999902
20
12.050520701041361
10
45.099999999999902
20
26.050520701041364
0
LWPOLYLINE
5
120
100
AcDbEntity
8
0
100
AcDbPolyline
90
4
70
1
43
0.0
10
12.050012700025491
20
26.050520701041364
10
12.050012700025491
20
12.050520701041361
10
26.050012700025491
20
12.050520701041361
10
26.050012700025491
20
26.050520701041364
0
LWPOLYLINE
5
121
100
AcDbEntity
8
0
100
AcDbPolyline
90
4
70
1
43
0.0
10
140.63799847599691
20
-26.049479298958541
10
154.63799847599691
20
-26.049479298958541
10
154.63799847599691
20
-12.049479298958541
10
140.63799847599691
20
-12.049479298958541
0
LWPOLYLINE
5
122
100
AcDbEntity
8
0
100
AcDbPolyline
90
4
70
1
43
0.0
10
19.19499618999248
20
-12.049479298958541
10
19.19499618999248
20
-26.049479298958541
10
33.194996189992253
20
-26.049479298958541
10
33.194996189992253
20
-12.049479298958541
0
CIRCLE
5
123
100
AcDbEntity
8
0
100
AcDbCircle
10
178.4500381000762
20
-50.744989795077799
30
0
40
1.6000000000000014
210
0
220
0
230
1
0
LWPOLYLINE
5
124
100
AcDbEntity
8
0
100
AcDbPolyline
90
4
70
1
43
0.0
10
35.86299212598442
20
-31.099491998984043
10
35.86299212598442
20
-45.099491998984043
10
49.862992125984192
20
-45.099491998984043
10
49.862992125984192
20
-31.099491998984043
0
LWPOLYLINE
5
125
100
AcDbEntity
8
0
100
AcDbPolyline
90
4
70
1
43
0.0
10
200.17000254000499
20
-12.049479298958541
10
200.17000254000499
20
-26.049479298958541
10
214.17000254000499
20
-26.049479298958541
10
214.17000254000499
20
-12.049479298958541
0
LWPOLYLINE
5
126
100
AcDbEntity
8
0
100
AcDbPolyline
90
4
70
1
43
0.0
10
221.59999999999997
20
-26.049479298958541
10
235.60000000000008
20
-26.049479298958541
10
235.60000000000008
20
-12.049479298958541
10
221.59999999999997
20
-12.049479298958541
0
LWPOLYLINE
5
127
100
AcDbEntity
8
0
100
AcDbPolyline
90
4
70
1
43
0.0
10
202.55001270002552
20
-45.099491998984043
10
216.55001270002532
20
-45.099491998984043
10
216.55001270002532
20
-31.099491998984043
10
202.55001270002552
20
-31.099491998984043
0
LWPOLYLINE
5
128
100
AcDbEntity
8
0
100
AcDbPolyline
90
4
70
1
43
0.0
10
159.68801117602243
20
-26.049479298958541
10
173.68801117602243
20
-26.049479298958541
10
173.68801117602243
20
-12.049479298958541
10
159.68801117602243
20
-12.049479298958541
0
CIRCLE
5
129
100
AcDbEntity
8
0
100
AcDbCircle
10
259.24327224182161
20
30.633264621806411
30
0
40
1.6000000000000014
210
0
220
0
230
1
0
LWPOLYLINE
5
130
100
AcDbEntity
8
0
100
AcDbPolyline
90
4
70
1
43
0.0
10
228.45499110998233
20
-6.9994919989838991
10
228.45499110998233
20
7.0005080010159881
10
214.4549911099823
20
7.0005080010159881
10
214.4549911099823
20
-6.9994919989839
0
LWPOLYLINE
5
131
100
AcDbEntity
8
0
100
AcDbPolyline
90
4
70
1
43
0.0
10
14.429997459994869
20
-6.9994919989838991
10
28.429997459994869
20
-6.9994919989838991
10
28.429997459994869
20
7.0005080010159881
10
14.429997459994869
20
7.0005080010159881
0
CIRCLE
5
132
100
AcDbEntity
8
0
100
AcDbCircle
10
7.4667353781937651
20
30.633264621806369
30
0
40
1.6000000000000003
210
0
220
0
230
1
0
LWPOLYLINE
5
133
100
AcDbEntity
8
0
100
AcDbPolyline
90
4
70
1
43
0.0
10
50.149987299974548
20
12.050520701041361
10
64.1500127000254
20
12.050520701041361
10
64.1500127000254
20
26.050520701041364
10
50.149987299974548
20
26.050520701041364
0
LWPOLYLINE
5
134
100
AcDbEntity
8
0
100
AcDbPolyline
90
4
70
1
43
0.0
10
45.388011176022474
20
-12.049479298958541
10
45.388011176022474
20
-26.049479298958541
10
59.388011176022253
20
-26.049479298958541
10
59.388011176022253
20
-12.049479298958541
0
LWPOLYLINE
5
135
100
AcDbEntity
8
0
100
AcDbPolyline
90
8
70
1
43
0.0
10
257.6800101600204
20
28.070002540005149
42
0.41421356237306772
10
256.6800101600204
20
29.070002540005149
10
240.62501905003813
20
29.07000254000571
42
0.41421356237310025
10
239.62501905003808
20
28.07000254000571
10
239.62501905003822
20
-9.0249936499872305
42
0.41421356237306639
10
240.62501905003825
20
-10.024993649987216
10
256.6800101600204
20
-10.024993649987339
42
0.41421356237307
10
257.6800101600204
20
-9.0249936499873407
0
LWPOLYLINE
5
136
100
AcDbEntity
8
0
100
AcDbPolyline
90
4
70
1
43
0.0
10
28.429997459994869
20
-45.099491998984043
10
28.429997459994869
20
-31.099491998984043
10
14.429997459994869
20
-31.099491998984043
10
14.429997459994869
20
-45.099491998984043
0
LWPOLYLINE
5
137
100
AcDbEntity
8
0
100
AcDbPolyline
90
4
70
1
43
0.0
10
35.86299212598442
20
-6.9994919989838991
10
49.862992125984192
20
-6.9994919989838991
10
49.862992125984192
20
7.000508001015989
10
35.86299212598442
20
7.0005080010159881
0
CIRCLE
5
138
100
AcDbEntity
8
0
100
AcDbCircle
10
7.4667353774410472
20
-49.683251777213364
30
0
40
1.6000000000000003
210
0
220
0
230
1
0
LWPOLYLINE
5
139
100
AcDbEntity
8
0
100
AcDbPolyline
90
4
70
1
43
0.0
10
221.59999999999997
20
-45.099466598933191
10
235.60000000000008
20
-45.099466598933191
10
235.60000000000008
20
-31.099466598933194
10
221.59999999999997
20
-31.099466598933194
0
LWPOLYLINE
5
140
100
AcDbEntity
8
0
100
AcDbPolyline
90
4
70
1
43
0.0
10
240.6500127000254
20
-31.099466598933194
10
240.6500127000254
20
-45.099466598933191
10
254.65001270002543
20
-45.099466598933191
10
254.65001270002543
20
-31.099466598933194
0
LWPOLYLINE
5
141
100
AcDbEntity
8
0
100
AcDbPolyline
90
4
70
1
43
0.0
10
254.65001270002543
20
-26.049479298958541
10
254.65001270002543
20
-12.049479298958541
10
240.6500127000254
20
-12.049479298958541
10
240.6500127000254
20
-26.049479298958541
0
LWPOLYLINE
5
142
100
AcDbEntity
8
0
100
AcDbPolyline
90
4
70
1
43
0.0
10
188.26299212598431
20
-6.9994919989838991
10
202.26299212598434
20
-6.9994919989838991
10
202.26299212598434
20
7.0005080010159881
10
188.26299212598431
20
7.0005080010159881
0
LWPOLYLINE
5
143
100
AcDbEntity
8
0
100
AcDbPolyline
90
4
70
1
43
0.0
10
150.1629921259844
20
-6.999466598933167
10
164.16299212598409
20
-6.999466598933167
10
164.16299212598409
20
7.0005334010667184
10
150.1629921259844
20
7.0005334010667184
0
LWPOLYLINE
5
144
100
AcDbEntity
8
0
100
AcDbPolyline
90
4
70
1
43
0.0
10
221.59999999999997
20
26.050520701041364
10
221.59999999999997
20
12.050520701041361
10
235.60000000000008
20
12.050520701041361
10
235.60000000000008
20
26.050520701041364
0
CIRCLE
5
145
100
AcDbEntity
8
0
100
AcDbCircle
10
178.4500381000762
20
31.695002540005135
30
0
40
1.6000000000000014
210
0
220
0
230
1
0
LWPOLYLINE
5
146
100
AcDbEntity
8
0
100
AcDbPolyline
90
4
70
1
43
0.0
10
159.39999999999992
20
12.050520701041361
10
159.39999999999992
20
26.050520701041364
10
145.40000000000009
20
26.050520701041364
10
145.40000000000009
20
12.050520701041361
0
CIRCLE
5
147
100
AcDbEntity
8
0
100
AcDbCircle
10
259.24327224106889
20
-49.683251923576115
30
0
40
1.6000000000000014
210
0
220
0
230
1
0
LWPOLYLINE
5
148
100
AcDbEntity
8
0
100
AcDbPolyline
90
4
70
1
43
0.0
10
164.44998729997451
20
26.050520701041364
10
164.44998729997451
20
12.050520701041361
10
178.45001270002564
20
12.050520701041361
10
178.45001270002564
20
26.050520701041364
0
LWPOLYLINE
5
149
100
AcDbEntity
8
0
100
AcDbPolyline
90
4
70
1
43
0.0
10
216.55001270002532
20
12.050520701041361
10
216.55001270002532
20
26.050520701041364
10
202.55001270002552
20
26.050520701041364
10
202.55001270002552
20
12.050520701041361
0
LWPOLYLINE
5
150
100
AcDbEntity
8
0
100
AcDbPolyline
90
4
70
1
43
0.0
10
169.21300482600964
20
7.0005080010159881
10
169.21300482600964
20
-6.9994919989838991
10
183.21300482600961
20
-6.9994919989838991
10
183.21300482600961
20
7.000508001015989
0
CIRCLE
5
151
100
AcDbEntity
8
0
100
AcDbCircle
10
88.249961899923818
20
-50.744989742103357
30
0
40
1.6000000000000014
210
0
220
0
230
1
0
CIRCLE
5
152
100
AcDbEntity
8
0
100
AcDbCircle
10
28.5750063500127
20
9.9059944119887877
30
0
40
1.2999999999999989
210
0
220
0
230
1
0
CIRCLE
5
153
100
AcDbEntity
8
0
100
AcDbCircle
10
32.257988315976718
20
-29.21000762001529
30
0
40
1.3000000000000012
210
0
220
0
230
1
0
CIRCLE
5
154
100
AcDbEntity
8
0
100
AcDbCircle
10
119.12626365252731
20
-9.7789941579882225
30
0
40
1.3000000000000078
210
0
220
0
230
1
0
CIRCLE
5
155
100
AcDbEntity
8
0
100
AcDbCircle
10
233.55351790703594
20
6.9849885699770775
30
0
40
1.2999999999999901
210
0
220
0
230
1
0
CIRCLE
5
156
100
AcDbEntity
8
0
100
AcDbCircle
10
219.07551435102869
20
-28.5750063500127
30
0
40
1.2999999999999901
210
0
220
0
230
1
0
LWPOLYLINE
5
157
100
AcDbEntity
8
0
100
AcDbPolyline
90
12
70
1
43
0.0
10
95.053583591670474
20
-27.082283260138809
10
95.053583591670474
20
-28.082283006138375
10
109.98869638601593
20
-28.082283006138375
10
109.98869638601593
20
-27.082283260138809
10
119.05244287332138
20
-27.082283260138809
10
119.05244287332138
20
-47.082311454195214
10
109.98869638601593
20
-47.082311454195214
10
109.99246480371987
20
-46.082311454195199
10
95.053583591670474
20
-46.082311454195199
10
95.053583591670474
20
-47.082311454195214
10
85.778376325188347
20
-47.082311454195214
10
85.778376325188347
20
-27.082283260138809
0
LWPOLYLINE
5
158
100
AcDbEntity
8
0
100
AcDbPolyline
90
12
70
1
43
0.0
10
142.6535835916705
20
-27.082283260138809
10
142.6535835916705
20
-28.082283006138375
10
157.58869638601595
20
-28.082283006138375
10
157.58869638601595
20
-27.082283260138809
10
166.65244287332141
20
-27.082283260138809
10
166.65244287332141
20
-47.082311454195214
10
157.58869638601595
20
-47.082311454195214
10
157.59246480371988
20
-46.082311454195199
10
142.6535835916705
20
-46.082311454195199
10
142.6535835916705
20
-47.082311454195214
10
133.37837632518836
20
-47.082311454195214
10
133.37837632518836
20
-27.082283260138809
0
ENDSEC
0
SECTION
2
OBJECTS
0
DICTIONARY
5
C
100
AcDbDictionary
3
ACAD_GROUP
350
D
3
ACAD_MLINESTYLE
350
17
0
DICTIONARY
5
D
100
AcDbDictionary
0
DICTIONARY
5
1A
330
C
100
AcDbDictionary
0
DICTIONARY
5
17
100
AcDbDictionary
0
ENDSEC
0
EOF
