0
SECTION
2
HEADER
9
$INSUNITS
70
4
9
$ACADVER
1
AC1014
9
$HANDSEED
5
FFFF
0
ENDSEC
0
SECTION
2
TABLES
0
TABLE
2
VPORT
5
8
100
AcDbSymbolTable
0
ENDTAB
0
TABLE
2
LTYPE
5
5
100
AcDbSymbolTable
0
LTYPE
5
14
100
AcDbSymbolTableRecord
100
AcDbLinetypeTableRecord
2
BYBLOCK
70
0
0
LTYPE
5
15
100
AcDbSymbolTableRecord
100
AcDbLinetypeTableRecord
2
BYLAYER
70
0
0
ENDTAB
0
TABLE
2
LAYER
5
2
100
AcDbSymbolTable
70
2
0
LAYER
5
50
100
AcDbSymbolTableRecord
100
AcDbLayerTableRecord
2
0
70
0
6
CONTINUOUS
0
ENDTAB
0
TABLE
2
STYLE
5
3
100
AcDbSymbolTable
70
1
0
STYLE
5
11
100
AcDbSymbolTableRecord
100
AcDbTextStyleTableRecord
2
STANDARD
70
0
0
ENDTAB
0
TABLE
2
VIEW
5
6
100
AcDbSymbolTable
70
0
0
ENDTAB
0
TABLE
2
UCS
5
7
100
AcDbSymbolTable
70
0
0
ENDTAB
0
TABLE
2
APPID
5
9
100
AcDbSymbolTable
70
2
0
APPID
5
12
100
AcDbSymbolTableRecord
100
AcDbRegAppTableRecord
2
ACAD
70
0
0
ENDTAB
0
TABLE
2
DIMSTYLE
5
A
100
AcDbSymbolTable
70
1
0
ENDTAB
0
TABLE
2
BLOCK_RECORD
5
1
100
AcDbSymbolTable
70
1
0
BLOCK_RECORD
5
1F
100
AcDbSymbolTableRecord
100
AcDbBlockTableRecord
2
*MODEL_SPACE
0
BLOCK_RECORD
5
1B
100
AcDbSymbolTableRecord
100
AcDbBlockTableRecord
2
*PAPER_SPACE
0
ENDTAB
0
ENDSEC
0
SECTION
2
BLOCKS
0
BLOCK
5
20
100
AcDbEntity
100
AcDbBlockBegin
2
*MODEL_SPACE
0
ENDBLK
5
21
100
AcDbEntity
100
AcDbBlockEnd
0
BLOCK
5
1C
100
AcDbEntity
100
AcDbBlockBegin
2
*PAPER_SPACE
0
ENDBLK
5
1D
100
AcDbEntity
100
AcDbBlockEnd
0
ENDSEC
0
SECTION
2
ENTITIES
0
LWPOLYLINE
5
100
100
AcDbEntity
8
0
100
AcDbPolyline
90
28
70
1
43
0.0
10
238.62501905003822
20
-8.5249936499872003
42
0.41421356237312817
10
239.12501905003822
20
-9.0249936499871932
10
240.99999459087849
20
-9.024993649987211
42
0.41421356237309148
10
241.99999459087849
20
-8.0249936499872092
10
241.99999459087849
20
1.5999999418854569
42
-0.41421356237309453
10
242.99999459087849
20
2.5999999418854691
10
251.8999943472445
20
2.5999999418854691
42
-0.41421356237309453
10
252.8999943472445
20
1.5999999418854571
10
252.8999943472445
20
-8.0249936499872998
42
0.41421356237309342
10
253.8999943472445
20
-9.0249936499873158
10
257.1800101600204
20
-9.0249936499873424
42
-0.41421356237298318
10
257.6800101600204
20
-9.5249936499873513
10
257.6800101600204
20
-47.119989841022203
42
-0.41421356254507713
10
256.6800101594331
20
-48.119989841022175
10
200.52499363848358
20
-48.119989805223646
42
-0.4142135623583762
10
200.02499363880241
20
-47.619989804930036
10
200.0249936494001
20
-29.574988951258305
42
0.41421824939432084
10
199.52498564846132
20
-29.07498895102869
10
196.26303492455989
20
-29.075041148364772
42
0.41420887536734319
10
195.76304292549872
20
-29.575041148007092
10
195.76304291490089
20
-47.619989805245702
42
-0.41421356237307944
10
195.26304291460721
20
-48.119989804952084
10
10.029997459407696
20
-48.119989696164858
42
-0.41421356220108818
10
9.0299974599949948
20
-47.119989696164843
10
9.0299974599950001
20
28.070002540005135
42
-0.4142135623730937
10
10.029997459995002
20
29.070002540005131
10
238.12501905003813
20
29.070002540005149
42
-0.41421356237305601
10
238.62501905003808
20
28.570002540005135
0
LWPOLYLINE
5
101
100
AcDbEntity
8
0
100
AcDbPolyline
90
8
70
1
43
0.0
10
10.029997456484132
20
-53.36998969616161
42
-0.0030407458397894733
10
256.68001015634979
20
-53.369989841023902
42
0.41421356254509428
10
262.93001016002029
20
-47.11998984102226
42
-0.049873658465035831
10
262.93001016002029
20
28.070002540005135
42
0.41421356237308821
10
256.680010159988
20
34.320002540000587
42
-0.0030407458398054475
10
10.029997459980571
20
34.32000254000377
42
0.41421356237309415
10
3.7799974599950303
20
28.07000254000533
42
-0.049873658561118465
10
3.7799974599950059
20
-47.119989696164986
42
0.41421356220108163
0
CIRCLE
5
102
100
AcDbEntity
8
0
100
AcDbCircle
10
7.4667353781937651
20
30.633264621806369
30
0
40
1.3000000000000007
210
0
220
0
230
1
0
CIRCLE
5
103
100
AcDbEntity
8
0
100
AcDbCircle
10
88.249961899923846
20
31.695002540005135
30
0
40
1.3000000000000078
210
0
220
0
230
1
0
CIRCLE
5
104
100
AcDbEntity
8
0
100
AcDbCircle
10
178.4500381000762
20
31.695002540005135
30
0
40
1.2999999999999901
210
0
220
0
230
1
0
CIRCLE
5
105
100
AcDbEntity
8
0
100
AcDbCircle
10
259.24327224182161
20
30.633264621806411
30
0
40
1.2999999999999901
210
0
220
0
230
1
0
CIRCLE
5
106
100
AcDbEntity
8
0
100
AcDbCircle
10
259.24327224106889
20
-49.683251923576115
30
0
40
1.2999999999999901
210
0
220
0
230
1
0
CIRCLE
5
107
100
AcDbEntity
8
0
100
AcDbCircle
10
178.4500381000762
20
-50.744989795077799
30
0
40
1.2999999999999901
210
0
220
0
230
1
0
CIRCLE
5
108
100
AcDbEntity
8
0
100
AcDbCircle
10
88.249961899923818
20
-50.744989742103357
30
0
40
1.3000000000000078
210
0
220
0
230
1
0
CIRCLE
5
109
100
AcDbEntity
8
0
100
AcDbCircle
10
7.4667353774410472
20
-49.683251777213364
30
0
40
1.3000000000000003
210
0
220
0
230
1
0
ENDSEC
0
SECTION
2
OBJECTS
0
DICTIONARY
5
C
100
AcDbDictionary
3
ACAD_GROUP
350
D
3
ACAD_MLINESTYLE
350
17
0
DICTIONARY
5
D
100
AcDbDictionary
0
DICTIONARY
5
1A
330
C
100
AcDbDictionary
0
DICTIONARY
5
17
100
AcDbDictionary
0
ENDSEC
0
EOF
