0
SECTION
2
HEADER
9
$INSUNITS
70
4
9
$ACADVER
1
AC1014
9
$HANDSEED
5
FFFF
0
ENDSEC
0
SECTION
2
TABLES
0
TABLE
2
VPORT
5
8
100
AcDbSymbolTable
0
ENDTAB
0
TABLE
2
LTYPE
5
5
100
AcDbSymbolTable
0
LTYPE
5
14
100
AcDbSymbolTableRecord
100
AcDbLinetypeTableRecord
2
BYBLOCK
70
0
0
LTYPE
5
15
100
AcDbSymbolTableRecord
100
AcDbLinetypeTableRecord
2
BYLAYER
70
0
0
ENDTAB
0
TABLE
2
LAYER
5
2
100
AcDbSymbolTable
70
2
0
LAYER
5
50
100
AcDbSymbolTableRecord
100
AcDbLayerTableRecord
2
0
70
0
6
CONTINUOUS
0
ENDTAB
0
TABLE
2
STYLE
5
3
100
AcDbSymbolTable
70
1
0
STYLE
5
11
100
AcDbSymbolTableRecord
100
AcDbTextStyleTableRecord
2
STANDARD
70
0
0
ENDTAB
0
TABLE
2
VIEW
5
6
100
AcDbSymbolTable
70
0
0
ENDTAB
0
TABLE
2
UCS
5
7
100
AcDbSymbolTable
70
0
0
ENDTAB
0
TABLE
2
APPID
5
9
100
AcDbSymbolTable
70
2
0
APPID
5
12
100
AcDbSymbolTableRecord
100
AcDbRegAppTableRecord
2
ACAD
70
0
0
ENDTAB
0
TABLE
2
DIMSTYLE
5
A
100
AcDbSymbolTable
70
1
0
ENDTAB
0
TABLE
2
BLOCK_RECORD
5
1
100
AcDbSymbolTable
70
1
0
BLOCK_RECORD
5
1F
100
AcDbSymbolTableRecord
100
AcDbBlockTableRecord
2
*MODEL_SPACE
0
BLOCK_RECORD
5
1B
100
AcDbSymbolTableRecord
100
AcDbBlockTableRecord
2
*PAPER_SPACE
0
ENDTAB
0
ENDSEC
0
SECTION
2
BLOCKS
0
BLOCK
5
20
100
AcDbEntity
100
AcDbBlockBegin
2
*MODEL_SPACE
0
ENDBLK
5
21
100
AcDbEntity
100
AcDbBlockEnd
0
BLOCK
5
1C
100
AcDbEntity
100
AcDbBlockBegin
2
*PAPER_SPACE
0
ENDBLK
5
1D
100
AcDbEntity
100
AcDbBlockEnd
0
ENDSEC
0
SECTION
2
ENTITIES
0
LWPOLYLINE
5
100
100
AcDbEntity
8
0
100
AcDbPolyline
90
34
70
1
43
0.0
10
135.34887699997066
20
63.756855608720578
10
138.26891466443513
20
48.001787123750255
42
-0.41414577167248307
10
137.46812345409711
20
46.836338488032531
10
129.90412752432826
20
45.432619752283394
42
0.41363437816173354
10
129.10301955549758
20
44.268888555668717
10
132.36172513532264
20
26.513541567215704
42
0.41369938600374934
10
133.52408803774807
20
25.710173139376881
10
138.00793399721942
20
26.524974805356681
42
-0.42318490855921181
10
139.17561189286042
20
25.689759774116911
10
141.70355999732192
20
8.8752003780815016
42
0.4142137958701525
10
142.84111933682118
20
8.0349859152594654
10
184.46436026347496
20
14.29277483988729
10
208.24772686015976
20
15.784610533416007
10
231.57121026701023
20
15.988162508350385
42
0.41421346052693536
10
232.56244518110734
20
16.99685108745981
10
232.40491533906362
20
35.047725143549812
42
0.41332859144037576
10
231.39924910194509
20
36.03898221364409
10
229.13194140515856
20
36.02604856558979
42
-0.41332859144037837
10
228.12627516803991
20
37.017305635684046
10
227.98613089857315
20
53.076018861164478
42
-0.41328574838976567
10
228.9741975362715
20
54.084674769935255
10
233.56767381073598
20
54.139319342223395
42
0.41073370841902901
10
234.55577852645808
20
55.139248590826483
10
234.55577852645817
20
73.195271775497631
42
0.41417116645884178
10
233.55592327733277
20
74.195271765021204
10
228.88761243954093
20
74.195947507105046
42
-0.41417116645882879
10
227.88775719041564
20
75.195947496628634
10
227.88775719041558
20
92.25798674523169
42
0.40741236187853513
10
226.9110315477829
20
93.257715860687043
42
0.057770450458946354
10
128.75712574546048
20
84.18851410465642
42
0.41232561425243613
10
127.9833399327331
20
83.010229211409992
10
131.64244036761255
20
65.060621397618462
42
0.41421356237311902
10
132.82203402774508
20
64.280519611326923
10
134.16587624851064
20
64.5544673045259
42
-0.41944805492607429
0
LINE
5
101
100
AcDbEntity
8
0
100
AcDbLine
10
14.403921474746396
20
53.877304560133787
30
0
11
19.300615926007449
21
53.839168198538971
31
0
0
LINE
5
102
100
AcDbEntity
8
0
100
AcDbLine
10
36.679503850251152
20
15.17289019055834
30
0
11
13.397128992995956
21
15.7825616281267
31
0
0
LINE
5
103
100
AcDbEntity
8
0
100
AcDbLine
10
13.411709423418865
20
72.014314843509737
30
0
11
13.411709423418865
21
54.877274233601682
31
0
0
LWPOLYLINE
5
104
100
AcDbEntity
8
0
100
AcDbPolyline
90
14
70
1
43
0.0
10
114.92984235013212
20
-3.7262356287888028
10
185.47212889429119
20
6.8793867218214189
10
208.84580904099639
20
8.308932013356527
10
236.10808293739424
20
8.5467127315418754
42
0.41166132251541276
10
242.05575311150625
20
14.546484526312295
10
242.05575311150625
20
94.467800234687601
42
0.39927370728566847
10
236.36327373193762
20
100.4599143080352
10
8.8961887555968264
20
100.62074022390888
42
0.40649405199112809
10
3.0547371094742326
20
94.622835388094785
10
3.0547371094742237
20
14.415034952184321
42
0.40656714196147042
10
8.8976936058607663
20
8.4170905261352509
10
36.402447380898977
20
7.6969366547358931
10
59.568949648941754
20
5.4662265133634316
10
112.0444152348651
20
-3.6922413194064374
42
0.080678048760070856
0
LINE
5
105
100
AcDbEntity
8
0
100
AcDbLine
10
11.497763029491402
20
73.068073020904109
30
0
11
12.468658103350849
21
73.012691950545957
31
0
0
LWPOLYLINE
5
106
100
AcDbEntity
8
0
100
AcDbPolyline
90
8
70
1
43
0.0
10
135.50246397474172
20
21.755788498643089
10
137.13000102637804
20
10.865693765803758
42
-0.41421383015581636
10
136.28879382196547
20
9.7288682436681277
10
123.43159464849633
20
7.8073572121236943
42
-0.41421329459042655
10
122.29477016572262
20
8.6485636474483929
10
120.66723311408629
20
19.538658380287643
42
-0.41421383015581514
10
121.50844031849887
20
20.675483902423274
10
134.36563949196801
20
22.596994933967792
42
-0.41421329459044054
0
LINE
5
107
100
AcDbEntity
8
0
100
AcDbLine
10
37.04178169829067
20
15.150732310254194
30
0
11
60.432442856753212
21
12.8984664958145
31
0
0
LINE
5
108
100
AcDbEntity
8
0
100
AcDbLine
10
12.423648670943832
20
16.808396354616903
30
0
11
12.896386658363747
21
34.86121820691848
31
0
0
LINE
5
109
100
AcDbEntity
8
0
100
AcDbLine
10
115.81945083394658
20
22.727934277454285
30
0
11
112.69121945580146
21
4.8040493548516805
31
0
0
CIRCLE
5
110
100
AcDbEntity
8
0
100
AcDbCircle
10
177.48438087911777
20
97.500160247539412
30
0
40
1.3
210
0
220
0
230
1
0
CIRCLE
5
111
100
AcDbEntity
8
0
100
AcDbCircle
10
122.52857505715021
20
51.390906781813577
30
0
40
7.5
210
0
220
0
230
1
0
LINE
5
112
100
AcDbEntity
8
0
100
AcDbLine
10
20.292485292240844
20
52.813021192220276
30
0
11
19.872358419411288
21
36.769259056230723
31
0
0
LINE
5
113
100
AcDbEntity
8
0
100
AcDbLine
10
13.904014520095878
20
35.835009038957772
30
0
11
18.864730555851825
21
35.795468154408951
31
0
0
CIRCLE
5
114
100
AcDbEntity
8
0
100
AcDbCircle
10
63.819132770888828
20
97.58052491934194
30
0
40
1.3
210
0
220
0
230
1
0
ARC
5
115
100
AcDbEntity
8
0
100
AcDbCircle
10
19.04859097557733
20
-343.79519995036242
30
0
40
437.01259835243599
210
0
220
-0
230
1
100
AcDbArc
50
78.091235539877488
51
90.984808232605289
0
LINE
5
116
100
AcDbEntity
8
0
100
AcDbLine
10
107.46096021417337
20
64.45927543275954
30
0
11
112.46303395776607
21
63.351743443240423
31
0
0
LINE
5
117
100
AcDbEntity
8
0
100
AcDbLine
10
110.75877494778224
20
44.257975607127293
30
0
11
117.94697923217637
21
42.832576535038712
31
0
0
ARC
5
118
100
AcDbEntity
8
0
100
AcDbCircle
10
36.543383496914593
20
9.9746721065184705
30
0
40
5.1999999999838078
210
0
220
-0
230
1
100
AcDbArc
50
84.499996809002454
51
88.499997551572974
0
LINE
5
119
100
AcDbEntity
8
0
100
AcDbLine
10
110.0031025944469
20
82.642477694780951
30
0
11
106.69551205728081
21
65.626438610232597
31
0
0
CIRCLE
5
120
100
AcDbEntity
8
0
100
AcDbCircle
10
6.9058344528352293
20
12.321660314836777
30
0
40
1.3
210
0
220
0
230
1
0
CIRCLE
5
121
100
AcDbEntity
8
0
100
AcDbCircle
10
63.819132770888828
20
7.7697957390364003
30
0
40
1.3
210
0
220
0
230
1
0
LINE
5
122
100
AcDbEntity
8
0
100
AcDbLine
10
111.53418118217688
20
3.9908697995174758
30
0
11
60.419318677788709
21
12.911839542680905
31
0
0
CIRCLE
5
123
100
AcDbEntity
8
0
100
AcDbCircle
10
113.5210991784996
20
-0.8258419684997822
30
0
40
1.3
210
0
220
0
230
1
0
ARC
5
124
100
AcDbEntity
8
0
100
AcDbCircle
10
114.83434162587781
20
22.899864054335055
30
0
40
1.0000000000000755
210
0
220
0
230
1
100
AcDbArc
50
-9.9000393523875676
51
55.505094294123715
0
CIRCLE
5
125
100
AcDbEntity
8
0
100
AcDbCircle
10
238.25228486191889
20
96.511142660574407
30
0
40
1.3
210
0
220
0
230
1
0
LINE
5
126
100
AcDbEntity
8
0
100
AcDbLine
10
109.97165740936779
20
45.429685387430816
30
0
11
113.22848216320288
21
62.184580515505417
31
0
0
ARC
5
127
100
AcDbEntity
8
0
100
AcDbCircle
10
13.896043971442273
20
34.835040804285214
30
0
40
0.99999999999999911
210
0
220
-0
230
1
100
AcDbArc
50
89.543316366166167
51
178.49997396014922
0
LINE
5
128
100
AcDbEntity
8
0
100
AcDbLine
10
10.554711709423367
20
92.152993870402128
30
0
11
10.554711709423364
21
74.066450127940314
31
0
0
CIRCLE
5
129
100
AcDbEntity
8
0
100
AcDbCircle
10
177.48438087911777
20
8.7121908848139107
30
0
40
1.3
210
0
220
0
230
1
0
CIRCLE
5
130
100
AcDbEntity
8
0
100
AcDbCircle
10
238.18630406593471
20
12.434435135179589
30
0
40
1.3
210
0
220
0
230
1
0
CIRCLE
5
131
100
AcDbEntity
8
0
100
AcDbCircle
10
6.893841787838408
20
96.703828278263444
30
0
40
1.3
210
0
220
0
230
1
0
LINE
5
132
100
AcDbEntity
8
0
100
AcDbLine
10
115.29685103817005
20
23.977787028596772
30
0
11
118.73409677059085
21
41.660866754735189
31
0
0
ARC
5
133
100
AcDbEntity
8
0
100
AcDbCircle
10
111.70611024773278
20
4.9759791317324886
30
0
40
1.0000000000000135
210
0
220
0
230
1
100
AcDbArc
50
260.10000201958366
51
350.09996064760946
0
ARC
5
134
100
AcDbEntity
8
0
100
AcDbCircle
10
107.67713915861293
20
65.435629192408669
30
0
40
1.0000000000000135
210
0
220
0
230
1
100
AcDbArc
50
168.99997534251958
51
257.51529743047581
0
ARC
5
135
100
AcDbEntity
8
0
100
AcDbCircle
10
117.75246962071449
20
41.851675922821066
30
0
40
1.0000000000000036
210
0
220
0
230
1
100
AcDbArc
50
-11.000010080727279
51
78.78392211059915
0
ARC
5
136
100
AcDbEntity
8
0
100
AcDbCircle
10
112.24685501332644
20
62.375389683591251
30
0
40
1.0000000000000613
210
0
220
0
230
1
100
AcDbArc
50
-11.000010080723969
51
77.515297430472373
0
ARC
5
137
100
AcDbEntity
8
0
100
AcDbCircle
10
19.292827977334969
20
52.839198525071055
30
0
40
1.0000000000000071
210
0
220
0
230
1
100
AcDbArc
50
-1.5000220402381832
51
89.553778899213796
0
ARC
5
138
100
AcDbEntity
8
0
100
AcDbCircle
10
11.554711709423351
20
74.066450127940286
30
0
40
0.99999999999998757
210
0
220
0
230
1
100
AcDbArc
50
180
51
266.73531472165115
0
ARC
5
139
100
AcDbEntity
8
0
100
AcDbCircle
10
109.02147549311482
20
82.833287112604921
30
0
40
0.99999999999996469
210
0
220
0
230
1
100
AcDbArc
50
-11.000024657483268
51
78.091235539892054
0
ARC
5
140
100
AcDbEntity
8
0
100
AcDbCircle
10
12.411709423418863
20
72.014314843509737
30
0
40
1.0000000000000053
210
0
220
0
230
1
100
AcDbArc
50
0
51
86.735314721649146
0
ARC
5
141
100
AcDbEntity
8
0
100
AcDbCircle
10
110.95328455924417
20
45.238876219344952
30
0
40
1.000000000000016
210
0
220
0
230
1
100
AcDbArc
50
168.99998991927367
51
258.7839221105969
0
ARC
5
142
100
AcDbEntity
8
0
100
AcDbCircle
10
18.872701104505431
20
36.795436389081523
30
0
40
0.99999999999999911
210
0
220
0
230
1
100
AcDbArc
50
269.54331636616604
51
358.49997795976088
0
ARC
5
143
100
AcDbEntity
8
0
100
AcDbCircle
10
14.41170942341887
20
54.877274233601682
30
0
40
1.0000000000000031
210
0
220
0
230
1
100
AcDbArc
50
180
51
269.55377889921402
0
ARC
5
144
100
AcDbEntity
8
0
100
AcDbCircle
10
11.554711709423435
20
92.152993870402071
30
0
40
1.0000000000000679
210
0
220
0
230
1
100
AcDbArc
50
90.984808232622257
51
180
0
ARC
5
145
100
AcDbEntity
8
0
100
AcDbCircle
10
13.423305984022356
20
16.782218951983637
30
0
40
1.0000000000000011
210
0
220
0
230
1
100
AcDbArc
50
178.49997396014922
51
268.49999755156972
0
ARC
5
146
100
AcDbEntity
8
0
100
AcDbCircle
10
126.4666905097493
20
82.94056813998526
30
0
40
0.99999999999999933
210
0
220
-0
230
1
100
AcDbArc
50
11.199933392474733
51
11.522102512533669
0
ARC
5
147
100
AcDbEntity
8
0
100
AcDbCircle
10
115.54225782563918
20
23.930084736575317
30
0
40
0.25000000000003675
210
0
220
0
230
1
100
AcDbArc
50
168.99998991927794
51
235.50509429411511
0
ENDSEC
0
SECTION
2
OBJECTS
0
DICTIONARY
5
C
100
AcDbDictionary
3
ACAD_GROUP
350
D
3
ACAD_MLINESTYLE
350
17
0
DICTIONARY
5
D
100
AcDbDictionary
0
DICTIONARY
5
1A
330
C
100
AcDbDictionary
0
DICTIONARY
5
17
100
AcDbDictionary
0
ENDSEC
0
EOF
