0
SECTION
2
HEADER
9
$INSUNITS
70
4
9
$ACADVER
1
AC1014
9
$HANDSEED
5
FFFF
0
ENDSEC
0
SECTION
2
TABLES
0
TABLE
2
VPORT
5
8
100
AcDbSymbolTable
0
ENDTAB
0
TABLE
2
LTYPE
5
5
100
AcDbSymbolTable
0
LTYPE
5
14
100
AcDbSymbolTableRecord
100
AcDbLinetypeTableRecord
2
BYBLOCK
70
0
0
LTYPE
5
15
100
AcDbSymbolTableRecord
100
AcDbLinetypeTableRecord
2
BYLAYER
70
0
0
ENDTAB
0
TABLE
2
LAYER
5
2
100
AcDbSymbolTable
70
2
0
LAYER
5
50
100
AcDbSymbolTableRecord
100
AcDbLayerTableRecord
2
0
70
0
6
CONTINUOUS
0
ENDTAB
0
TABLE
2
STYLE
5
3
100
AcDbSymbolTable
70
1
0
STYLE
5
11
100
AcDbSymbolTableRecord
100
AcDbTextStyleTableRecord
2
STANDARD
70
0
0
ENDTAB
0
TABLE
2
VIEW
5
6
100
AcDbSymbolTable
70
0
0
ENDTAB
0
TABLE
2
UCS
5
7
100
AcDbSymbolTable
70
0
0
ENDTAB
0
TABLE
2
APPID
5
9
100
AcDbSymbolTable
70
2
0
APPID
5
12
100
AcDbSymbolTableRecord
100
AcDbRegAppTableRecord
2
ACAD
70
0
0
ENDTAB
0
TABLE
2
DIMSTYLE
5
A
100
AcDbSymbolTable
70
1
0
ENDTAB
0
TABLE
2
BLOCK_RECORD
5
1
100
AcDbSymbolTable
70
1
0
BLOCK_RECORD
5
1F
100
AcDbSymbolTableRecord
100
AcDbBlockTableRecord
2
*MODEL_SPACE
0
BLOCK_RECORD
5
1B
100
AcDbSymbolTableRecord
100
AcDbBlockTableRecord
2
*PAPER_SPACE
0
ENDTAB
0
ENDSEC
0
SECTION
2
BLOCKS
0
BLOCK
5
20
100
AcDbEntity
100
AcDbBlockBegin
2
*MODEL_SPACE
0
ENDBLK
5
21
100
AcDbEntity
100
AcDbBlockEnd
0
BLOCK
5
1C
100
AcDbEntity
100
AcDbBlockBegin
2
*PAPER_SPACE
0
ENDBLK
5
1D
100
AcDbEntity
100
AcDbBlockEnd
0
ENDSEC
0
SECTION
2
ENTITIES
0
LWPOLYLINE
5
100
100
AcDbEntity
8
0
100
AcDbPolyline
90
22
70
1
43
0.0
10
111.70055583260148
20
-5.662459761984544
42
0.080678048760072965
10
115.22718897348342
20
-5.7040083623407556
10
185.68225646675791
20
4.8885011114295445
10
208.91562492639355
20
6.309464874068107
10
236.1255262126902
20
6.546788799951738
42
0.4116613225154086
10
244.05575311150619
20
14.546484526312291
10
244.05575311150619
20
94.467800234687616
42
0.40123912739852063
10
236.41163396449687
20
102.45988061581966
10
126.31721706224027
20
102.53772060498876
42
0.41442066161938218
10
125.31651003302024
20
101.53772085493394
10
125.31651003302019
20
88.168529337061301
42
-0.41421356237337076
10
124.31651003301921
20
87.168529337061287
10
113.07650495300904
20
87.168529337072528
42
-0.41421356237280366
10
112.07650495301003
20
88.168529337072528
10
112.07650495300999
20
101.54849598653229
42
0.4140064934502567
10
111.07721198223005
20
102.5484957365871
10
8.8724149475112331
20
102.62075753258058
42
0.4075535158460144
10
1.0547371094742219
20
94.622835388094799
10
1.0547371094742219
20
14.415034952184325
42
0.40656714196147037
10
8.8453457713229469
20
6.4177757174522352
10
36.280277629207909
20
5.6994499854486236
10
59.300777753682695
20
3.4827984386171429
0
CIRCLE
5
101
100
AcDbEntity
8
0
100
AcDbCircle
10
113.5210991784996
20
-0.82584196849978198
30
0
40
1.6999999999999988
210
0
220
0
230
1
0
CIRCLE
5
102
100
AcDbEntity
8
0
100
AcDbCircle
10
177.48438087911774
20
97.500160247539398
30
0
40
1.6999999999999993
210
0
220
0
230
1
0
CIRCLE
5
103
100
AcDbEntity
8
0
100
AcDbCircle
10
63.819132770888814
20
97.580524919341968
30
0
40
1.6999999999999962
210
0
220
0
230
1
0
CIRCLE
5
104
100
AcDbEntity
8
0
100
AcDbCircle
10
63.819132770888814
20
7.7697957390364003
30
0
40
1.7000000000000004
210
0
220
0
230
1
0
CIRCLE
5
105
100
AcDbEntity
8
0
100
AcDbCircle
10
238.18630406593468
20
12.434435135179584
30
0
40
1.7000000000000171
210
0
220
0
230
1
0
CIRCLE
5
106
100
AcDbEntity
8
0
100
AcDbCircle
10
6.893841787838408
20
96.70382827826343
30
0
40
1.7000000000000015
210
0
220
0
230
1
0
CIRCLE
5
107
100
AcDbEntity
8
0
100
AcDbCircle
10
177.48438087911774
20
8.7121908848139107
30
0
40
1.6999999999999993
210
0
220
0
230
1
0
CIRCLE
5
108
100
AcDbEntity
8
0
100
AcDbCircle
10
6.9058344528352293
20
12.321660314836775
30
0
40
1.7000000000000004
210
0
220
0
230
1
0
CIRCLE
5
109
100
AcDbEntity
8
0
100
AcDbCircle
10
238.25228486191889
20
96.511142660574393
30
0
40
1.7000000000000171
210
0
220
0
230
1
0
CIRCLE
5
110
100
AcDbEntity
8
0
100
AcDbCircle
10
150.87630175260352
20
68.707137414274825
30
0
40
1.2999999999999956
210
0
220
0
230
1
0
CIRCLE
5
111
100
AcDbEntity
8
0
100
AcDbCircle
10
122.1742443484886
20
40.640081280162576
30
0
40
1.2999999999999958
210
0
220
0
230
1
0
LWPOLYLINE
5
112
100
AcDbEntity
8
0
100
AcDbPolyline
90
8
70
1
43
0.0
10
115.5514351028701
20
45.899796799593567
42
0.41421356237309503
10
116.5514351028701
20
44.899796799593574
10
128.5514351028701
20
44.899796799593574
42
0.41421356237309764
10
129.55143510287007
20
45.899796799593567
10
129.55143510287007
20
56.899796799593574
42
0.41421356237309764
10
128.5514351028701
20
57.899796799593574
10
116.5514351028701
20
57.899796799593574
42
0.41421356237309503
10
115.55143510287009
20
56.899796799593574
0
LWPOLYLINE
5
113
100
AcDbEntity
8
0
100
AcDbPolyline
90
4
70
1
43
0.0
10
160.1041800632137
20
52.961560497344209
10
173.88840131337005
20
54.751805237592066
10
172.09813134140916
20
68.536051807166146
10
158.31391009125304
20
66.74578184829646
0
LWPOLYLINE
5
114
100
AcDbEntity
8
0
100
AcDbPolyline
90
4
70
1
43
0.0
10
171.48413389490469
20
49.211315874180137
10
172.88881112607379
20
35.382482891602436
10
186.71764410865134
20
36.787160122771894
10
185.31296687748224
20
50.61599310534951
0
LWPOLYLINE
5
115
100
AcDbEntity
8
0
100
AcDbPolyline
90
4
70
1
43
0.0
10
151.72837711695774
20
46.25678625946253
10
153.90282758306705
20
32.527894518212577
10
167.63169400318461
20
34.702344968085555
10
165.45724353707521
20
48.431211490713856
0
LWPOLYLINE
5
116
100
AcDbEntity
8
0
100
AcDbPolyline
90
4
70
1
43
0.0
10
141.133548519897
20
49.580321714097664
10
154.80078064810687
20
52.113380970276182
10
152.26772139192852
20
65.780638317108142
10
138.60046404509663
20
63.247553842307795
0
LWPOLYLINE
5
117
100
AcDbEntity
8
0
100
AcDbPolyline
90
4
70
1
43
0.0
10
131.43374041710453
20
81.347328920895805
10
134.13359564095339
20
67.712048773721421
10
147.76887578812796
20
70.41190399757005
10
145.06902056427893
20
84.047184144744563
0
LWPOLYLINE
5
118
100
AcDbEntity
8
0
100
AcDbPolyline
90
4
70
1
43
0.0
10
49.786452509473037
20
55.815885929523297
10
50.683453669155767
20
69.686909710387326
10
36.812429888291746
20
70.58391087007027
10
35.915428728609022
20
56.712887089206234
0
LWPOLYLINE
5
119
100
AcDbEntity
8
0
100
AcDbPolyline
90
12
70
1
43
0.0
10
97.545573320416622
20
23.658244319458014
10
97.753684483551694
20
24.838501375405492
10
105.21380017416973
20
23.523081699942963
10
102.84701819463606
20
10.100394088414749
10
93.792121230234642
20
11.6970167307739
10
93.536806314610942
20
10.249053891520044
10
79.842742665205833
20
12.663686788449215
10
80.098057580829504
20
14.111649627703054
10
71.137094874620928
20
15.691709125929966
10
73.503876660087656
20
29.114395636849743
10
80.963795389155123
20
27.799010691022751
10
80.755684420086993
20
26.618754735683709
0
LWPOLYLINE
5
120
100
AcDbEntity
8
0
100
AcDbPolyline
90
4
70
1
43
0.0
10
226.92764089960505
20
32.922326483685879
10
213.02839741776216
20
32.776764597852235
10
213.17395930359569
20
18.877521116009351
10
227.07320278543858
20
19.023083001842881
0
LWPOLYLINE
5
121
100
AcDbEntity
8
0
100
AcDbPolyline
90
4
70
1
43
0.0
10
57.083690396503989
20
30.251872850126556
10
43.247695349009888
20
31.584122197367563
10
41.915446001768885
20
17.748127149873344
10
55.751441049262986
20
16.41587780263233
0
LWPOLYLINE
5
122
100
AcDbEntity
8
0
100
AcDbPolyline
90
4
70
1
43
0.0
10
178.12689555947946
20
69.181864741768123
10
179.2174748640065
20
55.324711155669057
10
193.07462835285395
20
56.415290452542294
10
191.98402382970511
20
70.272444038641339
0
LWPOLYLINE
5
123
100
AcDbEntity
8
0
100
AcDbPolyline
90
4
70
1
43
0.0
10
22.951723493870446
20
37.782964016028124
10
36.846957155536145
20
37.419084521618664
10
37.210811431199403
20
51.314318178536411
10
23.315577769533931
20
51.678197672945856
0
LWPOLYLINE
5
124
100
AcDbEntity
8
0
100
AcDbPolyline
90
5
70
1
43
0.0
10
109.70117839043985
20
60.744640306541001
10
96.1547300575279
20
63.377801884376012
10
93.50246238385796
20
49.733190901861015
10
107.14709865541553
20
47.080948433124739
10
109.78026021956195
20
60.627396695616127
42
0.41421356237312057
0
LWPOLYLINE
5
125
100
AcDbEntity
8
0
100
AcDbPolyline
90
4
70
1
43
0.0
10
69.118262457080974
20
53.70695162855111
10
70.691778368908928
20
67.517602055760079
10
56.881127941699916
20
69.091117967588062
10
55.307612029871962
20
55.280467540379057
0
LWPOLYLINE
5
126
100
AcDbEntity
8
0
100
AcDbPolyline
90
4
70
1
43
0.0
10
204.68954121777855
20
90.04512342793582
10
190.80275566782245
20
89.438817316330727
10
191.40906177942765
20
75.552031766374597
10
205.29584732938375
20
76.15833787797969
0
LWPOLYLINE
5
127
100
AcDbEntity
8
0
100
AcDbPolyline
90
4
70
1
43
0.0
10
17.902193394810332
20
18.732925915951895
10
31.797427056475797
20
18.36904642154245
10
32.161281332139055
20
32.264280078460182
10
18.26604767047359
20
32.628159572869627
0
LWPOLYLINE
5
128
100
AcDbEntity
8
0
100
AcDbPolyline
90
4
70
1
43
0.0
10
189.28358276678301
20
17.697866388583357
10
203.15765802656173
20
18.546422577311294
10
202.3090766185357
20
32.420497848145089
10
188.43500135875718
20
31.571941659417263
0
LWPOLYLINE
5
129
100
AcDbEntity
8
0
100
AcDbPolyline
90
4
70
1
43
0.0
10
205.2026672846952
20
51.631742083921935
10
191.31926121808459
20
50.952705475485743
10
191.99829782652085
20
37.069324627497124
10
205.88167867450963
20
37.748336017311544
0
LWPOLYLINE
5
130
100
AcDbEntity
8
0
100
AcDbPolyline
90
4
70
1
43
0.0
10
63.015791625142896
20
48.996073190537501
10
61.201463095249295
20
35.215004223567888
10
74.982557280840908
20
33.400675693674501
10
76.796860592112395
20
47.18176987926612
0
LWPOLYLINE
5
131
100
AcDbEntity
8
0
100
AcDbPolyline
90
4
70
1
43
0.0
10
65.984735793052636
20
73.460921534879873
10
67.43768146232614
20
87.284761193103648
10
53.613841804102471
20
88.737706862376939
10
52.160896134828974
20
74.913867204153135
0
LWPOLYLINE
5
132
100
AcDbEntity
8
0
100
AcDbPolyline
90
4
70
1
43
0.0
10
42.127026097202858
20
37.135446117293995
10
55.965341275781753
20
35.827356207951844
10
57.27343119442628
20
49.665671484941342
10
43.43514123446888
20
50.973761394283351
0
LWPOLYLINE
5
133
100
AcDbEntity
8
0
100
AcDbPolyline
90
4
70
1
43
0.0
10
106.52781456741016
20
80.946539857600555
10
92.883203514474758
20
83.598782326336831
10
90.230935840804861
20
69.954171343821926
10
103.87557211236242
20
67.301928875085466
0
CIRCLE
5
134
100
AcDbEntity
8
0
100
AcDbCircle
10
109.22021844043681
20
15.240030480060911
30
0
40
1.3000000000000043
210
0
220
0
230
1
0
LWPOLYLINE
5
135
100
AcDbEntity
8
0
100
AcDbPolyline
90
4
70
1
43
0.0
10
186.12977969072415
20
75.18281546727286
10
184.9183275350133
20
89.029932000314446
10
171.07121100197162
20
87.818454625981587
10
172.28268837630438
20
73.971363311561902
0
LWPOLYLINE
5
136
100
AcDbEntity
8
0
100
AcDbPolyline
90
4
70
1
43
0.0
10
76.893284399747088
20
66.649977151520801
10
74.599121146675699
20
52.940604694387574
10
88.308493603808927
20
50.646441441316298
10
90.602656856880316
20
64.355813898449526
0
LWPOLYLINE
5
137
100
AcDbEntity
8
0
100
AcDbPolyline
90
4
70
1
43
0.0
10
33.623895789426768
20
89.904678001490538
10
32.896414200694039
20
76.023717989071059
10
46.777374213113291
20
75.296236400338216
10
47.504855801846247
20
89.177196412757681
0
LWPOLYLINE
5
138
100
AcDbEntity
8
0
100
AcDbPolyline
90
4
70
1
43
0.0
10
198.37833182235323
20
56.628601063962961
10
212.27109413240578
20
57.077341223204527
10
211.82235397901849
20
70.970078133395418
10
197.92959166896571
20
70.521337974153838
0
CIRCLE
5
139
100
AcDbEntity
8
0
100
AcDbCircle
10
93.726187452374916
20
65.91313182626368
30
0
40
1.3000000000000016
210
0
220
0
230
1
0
LWPOLYLINE
5
140
100
AcDbEntity
8
0
100
AcDbPolyline
90
4
70
1
43
0.0
10
210.89099568199143
20
76.265138430276963
10
224.79099568199121
20
76.265138430276963
10
224.79099568199121
20
90.165138430276841
10
210.89099568199143
20
90.165138430276841
0
LWPOLYLINE
5
141
100
AcDbEntity
8
0
100
AcDbPolyline
90
4
70
1
43
0.0
10
217.55850901701803
20
71.112560325120583
10
217.55850901701803
20
57.212560325120691
10
231.45850901701803
20
57.212560325120691
10
231.45850901701803
20
71.112560325120583
0
LWPOLYLINE
5
142
100
AcDbEntity
8
0
100
AcDbPolyline
90
4
70
1
43
0.0
10
16.463766827533661
20
56.948399796799592
10
30.363766827533667
20
56.948399796799592
10
30.363766827533667
20
70.848399796799598
10
16.463766827533661
20
70.848399796799598
0
CIRCLE
5
143
100
AcDbEntity
8
0
100
AcDbCircle
10
207.64541529083073
20
35.306070612141184
30
0
40
1.2999999999999932
210
0
220
0
230
1
0
LWPOLYLINE
5
144
100
AcDbEntity
8
0
100
AcDbPolyline
90
4
70
1
43
0.0
10
86.930065858985941
20
84.614112823902531
10
73.165338625714782
20
86.54863329612067
10
71.230843372118272
20
72.783906062849624
10
84.995545386767674
20
70.849410809253214
0
LWPOLYLINE
5
145
100
AcDbEntity
8
0
100
AcDbPolyline
90
4
70
1
43
0.0
10
224.89011311908686
20
52.008595376103166
10
210.99064271387192
20
51.887319023582947
10
211.1119442850279
20
37.98784861678481
10
225.0114146902429
20
38.109124969305043
0
LWPOLYLINE
5
146
100
AcDbEntity
8
0
100
AcDbPolyline
90
4
70
1
43
0.0
10
13.60626111252218
20
76.163538227076458
10
27.506261112522182
20
76.163538227076458
10
27.506261112522182
20
90.063538227076435
10
13.60626111252218
20
90.063538227076435
0
CIRCLE
5
147
100
AcDbEntity
8
0
100
AcDbCircle
10
30.099060198120469
20
73.533147066294177
30
0
40
1.3000000000000012
210
0
220
0
230
1
0
CIRCLE
5
148
100
AcDbEntity
8
0
100
AcDbCircle
10
37.846075692151324
20
34.671069342138708
30
0
40
1.3000000000000012
210
0
220
0
230
1
0
CIRCLE
5
149
100
AcDbEntity
8
0
100
AcDbCircle
10
214.75742951485901
20
73.152146304292614
30
0
40
1.300000000000008
210
0
220
0
230
1
0
LWPOLYLINE
5
150
100
AcDbEntity
8
0
100
AcDbPolyline
90
4
70
1
43
0.0
10
99.052373483680341
20
29.202329840138876
10
112.69700975523742
20
26.550087371402498
10
115.34925221028566
20
40.194698353917488
10
101.70464115734998
20
42.846940822653885
0
LWPOLYLINE
5
151
100
AcDbEntity
8
0
100
AcDbPolyline
90
4
70
1
43
0.0
10
153.15981616156373
20
71.392412679785906
10
166.90535220445284
20
73.458977882509771
10
164.83881223569315
20
87.204488604730841
10
151.09327619280373
20
85.137948620629302
0
LWPOLYLINE
5
152
100
AcDbEntity
8
0
100
AcDbPolyline
90
4
70
1
43
0.0
10
146.1666291897443
20
45.300577356986182
10
132.49937184291238
20
42.767492882185856
10
135.03245631771262
20
29.100260753975739
10
148.69968844592267
20
31.63332001015425
0
LWPOLYLINE
5
153
100
AcDbEntity
8
0
100
AcDbPolyline
90
12
70
1
43
0.0
10
169.17572829386165
20
30.348648260426966
10
176.66772126200078
20
31.468334111615981
10
178.68232720470218
20
17.988290990358887
10
169.58873841896315
20
16.629245040472995
10
169.80606259614703
20
15.175095016571962
10
156.05348383981229
20
13.119758350305016
10
155.8361596626284
20
14.573908374206031
10
146.83690651872575
20
13.22896098045549
10
144.82230074121441
20
26.709002996401225
10
152.31409590618088
20
27.828659285708035
10
152.49124006168461
20
26.64336006452772
10
169.35287261455534
20
29.163347933935309
0
LWPOLYLINE
5
154
100
AcDbEntity
8
0
100
AcDbPolyline
90
8
70
1
43
0.0
10
136.23784040846181
20
23.908550440994109
10
138.30718254714608
20
10.062271548436257
42
-0.4142138301558132
10
137.88657894493977
20
9.4938587873684437
10
121.27111031400239
20
7.0106736209981744
42
-0.41421329459041106
10
120.70269807261555
20
7.431276838660521
10
118.63335593393124
20
21.277555731218257
42
-0.41421383015581037
10
119.05395953613754
20
21.845968492286062
10
135.66942816707495
20
24.329153658656463
42
-0.41421329459044365
0
LWPOLYLINE
5
155
100
AcDbEntity
8
0
100
AcDbPolyline
90
4
70
1
43
0.0
10
82.69123180146795
20
46.371146010656339
10
80.229742991121867
20
32.690825400655243
10
93.910063601122999
20
30.229336590308826
10
96.371552411469082
20
43.909657200309923
0
CIRCLE
5
156
100
AcDbEntity
8
0
100
AcDbCircle
10
141.73228346456699
20
18.542037084074199
30
0
40
1.2999999999999992
210
0
220
0
230
1
0
ENDSEC
0
SECTION
2
OBJECTS
0
DICTIONARY
5
C
100
AcDbDictionary
3
ACAD_GROUP
350
D
3
ACAD_MLINESTYLE
350
17
0
DICTIONARY
5
D
100
AcDbDictionary
0
DICTIONARY
5
1A
330
C
100
AcDbDictionary
0
DICTIONARY
5
17
100
AcDbDictionary
0
ENDSEC
0
EOF
