  0
SECTION
  2
HEADER
  9
$ACADVER
  1
AC1015
  9
$ACADMAINTVER
 70
     6
  9
$DWGCODEPAGE
  3
ANSI_932
  9
$INSBASE
 10
0.0
 20
0.0
 30
0.0
  9
$EXTMIN
 10
217.758974
 20
248.375882
 30
1.000000E+20
  9
$EXTMAX
 10
423.273044
 20
324.752271
 30
-1.000000E+20
  9
$LIMMIN
 10
217.758974
 20
248.375882
  9
$LIMMAX
 10
423.273044
 20
324.752271
  9
$ORTHOMODE
 70
     0
  9
$REGENMODE
 70
     1
  9
$FILLMODE
 70
     1
  9
$QTEXTMODE
 70
     0
  9
$MIRRTEXT
 70
     1
  9
$LTSCALE
 40
1.0
  9
$ATTMODE
 70
     1
  9
$TEXTSIZE
 40
0.2
  9
$TRACEWID
 40
0.05
  9
$TEXTSTYLE
  7
Standard
  9
$CLAYER
  8
0
  9
$CELTYPE
  6
Continuous
  9
$CECOLOR
 62
   256
  9
$CELTSCALE
 40
1.0
  9
$DISPSILH
 70
     0
  9
$DIMSCALE
 40
1.0
  9
$DIMASZ
 40
0.18
  9
$DIMEXO
 40
0.0625
  9
$DIMDLI
 40
0.38
  9
$DIMRND
 40
0.0
  9
$DIMDLE
 40
0.0
  9
$DIMEXE
 40
0.18
  9
$DIMTP
 40
0.0
  9
$DIMTM
 40
0.0
  9
$DIMTXT
 40
0.18
  9
$DIMCEN
 40
0.09
  9
$DIMTSZ
 40
0.0
  9
$DIMTOL
 70
     0
  9
$DIMLIM
 70
     0
  9
$DIMTIH
 70
     1
  9
$DIMTOH
 70
     1
  9
$DIMSE1
 70
     0
  9
$DIMSE2
 70
     0
  9
$DIMTAD
 70
     0
  9
$DIMZIN
 70
     0
  9
$DIMBLK
  1

  9
$DIMASO
 70
     1
  9
$DIMSHO
 70
     1
  9
$DIMPOST
  1

  9
$DIMAPOST
  1

  9
$DIMALT
 70
     0
  9
$DIMALTD
 70
     2
  9
$DIMALTF
 40
25.4
  9
$DIMLFAC
 40
1.0
  9
$DIMTOFL
 70
     0
  9
$DIMTVP
 40
0.0
  9
$DIMTIX
 70
     0
  9
$DIMSOXD
 70
     0
  9
$DIMSAH
 70
     0
  9
$DIMBLK1
  1

  9
$DIMBLK2
  1

  9
$DIMSTYLE
  2
Standard
  9
$DIMCLRD
 70
     0
  9
$DIMCLRE
 70
     0
  9
$DIMCLRT
 70
     0
  9
$DIMTFAC
 40
1.0
  9
$DIMGAP
 40
0.09
  9
$DIMJUST
 70
     0
  9
$DIMSD1
 70
     0
  9
$DIMSD2
 70
     0
  9
$DIMTOLJ
 70
     1
  9
$DIMTZIN
 70
     0
  9
$DIMALTZ
 70
     0
  9
$DIMALTTZ
 70
     0
  9
$DIMUPT
 70
     0
  9
$DIMDEC
 70
     4
  9
$DIMTDEC
 70
     4
  9
$DIMALTU
 70
     2
  9
$DIMALTTD
 70
     2
  9
$DIMTXSTY
  7
Standard
  9
$DIMAUNIT
 70
     0
  9
$DIMADEC
 70
     0
  9
$DIMALTRND
 40
0.0
  9
$DIMAZIN
 70
     0
  9
$DIMDSEP
 70
     0
  9
$DIMATFIT
 70
     3
  9
$DIMFRAC
 70
     0
  9
$DIMLDRBLK
  1

  9
$DIMLUNIT
 70
     2
  9
$DIMLWD
 70
     0
  9
$DIMLWE
 70
     0
  9
$DIMTMOVE
 70
     0
  9
$LUNITS
 70
     2
  9
$LUPREC
 70
     4
  9
$SKETCHINC
 40
0.1
  9
$FILLETRAD
 40
0.0
  9
$AUNITS
 70
     0
  9
$AUPREC
 70
     0
  9
$MENU
  1
acad
  9
$ELEVATION
 40
0.0
  9
$PELEVATION
 40
0.0
  9
$THICKNESS
 40
0.0
  9
$LIMCHECK
 70
     0
  9
$CHAMFERA
 40
0.0
  9
$CHAMFERB
 40
0.0
  9
$CHAMFERC
 40
0.0
  9
$CHAMFERD
 40
0.0
  9
$SKPOLY
 70
     0
  9
$TDCREATE
 40
0.000000000
  9
$TDUCREATE
 40
0.000000000
  9
$TDUPDATE
 40
0.000000000
  9
$TDUUPDATE
 40
0.000000000
  9
$TDINDWG
 40
0.0000000000
  9
$TDUSRTIMER
 40
0.0000000000
  9
$USRTIMER
 70
     1
  9
$ANGBASE
 50
0.0
  9
$ANGDIR
 70
     0
  9
$PDMODE
 70
     0
  9
$PDSIZE
 40
0.0
  9
$PLINEWID
 40
0.0
  9
$SPLFRAME
 70
     0
  9
$SPLINETYPE
 70
     6
  9
$SPLINESEGS
 70
     8
  9
$HANDSEED
  5
155
  9
$SURFTAB1
 70
     6
  9
$SURFTAB2
 70
     6
  9
$SURFTYPE
 70
     6
  9
$SURFU
 70
     6
  9
$SURFV
 70
     6
  9
$UCSBASE
  2

  9
$UCSNAME
  2

  9
$UCSORG
 10
0.0
 20
0.0
 30
0.0
  9
$UCSXDIR
 10
1.0
 20
0.0
 30
0.0
  9
$UCSYDIR
 10
0.0
 20
1.0
 30
0.0
  9
$UCSORTHOREF
  2

  9
$UCSORTHOVIEW
 70
     0
  9
$UCSORGTOP
 10
0.0
 20
0.0
 30
0.0
  9
$UCSORGBOTTOM
 10
0.0
 20
0.0
 30
0.0
  9
$UCSORGLEFT
 10
0.0
 20
0.0
 30
0.0
  9
$UCSORGRIGHT
 10
0.0
 20
0.0
 30
0.0
  9
$UCSORGFRONT
 10
0.0
 20
0.0
 30
0.0
  9
$UCSORGBACK
 10
0.0
 20
0.0
 30
0.0
  9
$PUCSBASE
  2

  9
$PUCSNAME
  2

  9
$PUCSORG
 10
0.0
 20
0.0
 30
0.0
  9
$PUCSXDIR
 10
1.0
 20
0.0
 30
0.0
  9
$PUCSYDIR
 10
0.0
 20
1.0
 30
0.0
  9
$PUCSORTHOREF
  2

  9
$PUCSORTHOVIEW
 70
     0
  9
$PUCSORGTOP
 10
0.0
 20
0.0
 30
0.0
  9
$PUCSORGBOTTOM
 10
0.0
 20
0.0
 30
0.0
  9
$PUCSORGLEFT
 10
0.0
 20
0.0
 30
0.0
  9
$PUCSORGRIGHT
 10
0.0
 20
0.0
 30
0.0
  9
$PUCSORGFRONT
 10
0.0
 20
0.0
 30
0.0
  9
$PUCSORGBACK
 10
0.0
 20
0.0
 30
0.0
  9
$USERI1
 70
     0
  9
$USERI2
 70
     0
  9
$USERI3
 70
     0
  9
$USERI4
 70
     0
  9
$USERI5
 70
     0
  9
$USERR1
 40
0.0
  9
$USERR2
 40
0.0
  9
$USERR3
 40
0.0
  9
$USERR4
 40
0.0
  9
$USERR5
 40
0.0
  9
$WORLDVIEW
 70
     1
  9
$SHADEDGE
 70
     3
  9
$SHADEDIF
 70
    70
  9
$TILEMODE
 70
     1
  9
$MAXACTVP
 70
    16
  9
$PINSBASE
 10
0.0
 20
0.0
 30
0.0
  9
$PLIMCHECK
 70
     0
  9
$PEXTMIN
 10
1.000000E+20
 20
1.000000E+20
 30
1.000000E+20
  9
$PEXTMAX
 10
-1.000000E+20
 20
-1.000000E+20
 30
-1.000000E+20
  9
$PLIMMIN
 10
0.0
 20
0.0
  9
$PLIMMAX
 10
12.0
 20
9.0
  9
$UNITMODE
 70
     0
  9
$VISRETAIN
 70
     0
  9
$PLINEGEN
 70
     1
  9
$PSLTSCALE
 70
     0
  9
$TREEDEPTH
 70
  3020
  9
$CMLSTYLE
  2
Standard
  9
$CMLJUST
 70
     0
  9
$CMLSCALE
 40
1.0
  9
$PROXYGRAPHICS
 70
     0
  9
$MEASUREMENT
 70
     1
  9
$CELWEIGHT
370
     0
  9
$ENDCAPS
280
     0
  9
$JOINSTYLE
280
     0
  9
$LWDISPLAY
290
     0
  9
$INSUNITS
 70
     0
  9
$HYPERLINKBASE
  1

  9
$STYLESHEET
  1

  9
$XEDIT
290
     1
  9
$CEPSNTYPE
380
     0
  9
$PSTYLEMODE
290
     1
  9
$FINGERPRINTGUID
  2

  9
$VERSIONGUID
  2

  9
$EXTNAMES
290
     1
  9
$PSVPSCALE
 40
0.0
  0
ENDSEC
  0
SECTION
  2
CLASSES
  0
CLASS
  1
LWPOLYLINE
  2
AcDbPolyline
  3
AutoCAD 2000
 90
    32768
280
     0
281
     1
  0
CLASS
  1
IMAGE
  2
AcDbRasterImage
  3
ISM
 90
    32895
280
     0
281
     1
  0
CLASS
  1
OLE2FRAME
  2
AcDbOle2Frame
  3
AutoCAD 2000
 90
    32768
280
     0
281
     1
  0
CLASS
  1
HATCH
  2
AcDbHatch
  3
AutoCAD 2000
 90
    32768
280
     0
281
     1
  0
CLASS
  1
DICTIONARYVAR
  2
AcDbDictionaryVar
  3
AutoCAD 2000
 90
    32768
280
     0
281
     0
  0
CLASS
  1
RASTERVARIABLES
  2
AcDbRasterVariables
  3
ISM
 90
    32768
280
     0
281
     0
  0
CLASS
  1
IMAGEDEF
  2
AcDbRasterImageDef
  3
ISM
 90
    32768
280
     0
281
     0
  0
CLASS
  1
IMAGEDEF_REACTOR
  2
AcDbRasterImageDefReactor
  3
ISM
 90
    32769
280
     0
281
     0
  0
CLASS
  1
IDBUFFER
  2
AcDbIdBuffer
  3
AutoCAD 2000
 90
    32768
280
     0
281
     0
  0
CLASS
  1
SPATIAL_FILTER
  2
AcDbSpatialFilter
  3
AutoCAD 2000
 90
    32768
280
     0
281
     0
  0
CLASS
  1
XRECORD
  2
AcDbXrecord
  3
AutoCAD 2000
 90
    32768
280
     0
281
     0
  0
CLASS
  1
SORTENTSTABLE
  2
AcDbSortentsTable
  3
AutoCAD 2000
 90
    32768
280
     0
281
     0
  0
CLASS
  1
LAYER_INDEX
  2
AcDbLayerIndex
  3
AutoCAD 2000
 90
    32768
280
     0
281
     0
  0
CLASS
  1
SPATIAL_INDEX
  2
AcDbSpatialIndex
  3
AutoCAD 2000
 90
    32768
280
     0
281
     0
  0
CLASS
  1
OBJECT_PTR
  2
CAseDLPNTableRecord
  3
"ASE-LPNTableRecord"
 90
    32769
280
     0
281
     0
  0
CLASS
  1
LAYOUT
  2
AcDbLayout
  3
AutoCAD 2000
 90
        0
280
     0
281
     0
  0
CLASS
  1
PLOTSETTINGS
  2
AcDbPlotSettings
  3
AutoCAD 2000
 90
    32768
280
     0
281
     0
  0
CLASS
  1
ACDBDICTIONARYWDFLT
  2
AcDbDictionaryWithDefault
  3
AutoCAD 2000
 90
        0
280
     0
281
     0
  0
CLASS
  1
ACDBPLACEHOLDER
  2
AcDbPlaceHolder
  3
AutoCAD 2000
 90
        0
280
     0
281
     0
  0
CLASS
  1
VBA_PROJECT
  2
AcDbVbaProject
  3
acadvba
 90
    32768
280
     0
281
     0
  0
CLASS
  1
WIPEOUT
  2
AcDbWipeout
  3
WipeOut|AutoCAD Express Tool|expresstools@autodesk.com
 90
    32895
280
     0
281
     1
  0
CLASS
  1
WIPEOUTVARIABLES
  2
AcDbWipeoutVariables
  3
WipeOut|AutoCAD Express Tool|expresstools@autodesk.com
 90
        0
280
     0
281
     0
  0
CLASS
  1
RTEXT
  2
RText
  3
RText|AutoCAD Express Tool|expresstools@autodesk.com
 90
    32768
280
     0
281
     1
  0
CLASS
  1
ARCALIGNEDTEXT
  2
AcDbArcAlignedText
  3
ATEXT|AutoCAD Express Tool|expresstools@autodesk.com
 90
    32768
280
     0
281
     1
  0
ENDSEC
  0
SECTION
  2
TABLES
  0
TABLE
  2
VPORT
  5
7
100
AcDbSymbolTable
 70
     1
  0
VPORT
  5
15
100
AcDbSymbolTableRecord
100
AcDbViewportTableRecord
  2
*ACTIVE
 70
     0
 10
0.0
 20
0.0
 11
1.0
 21
1.0
 12
6.591288
 22
4.579184
 13
0.0
 23
0.0
 14
1.0
 24
1.0
 15
0.0
 25
0.0
 16
0.0
 26
0.0
 36
1.0
 17
0.0
 27
0.0
 37
0.0
 40
9.158369
 41
0.688564
 42
50.0
 43
0.0
 44
0.0
 50
0.0
 51
0.0
 71
     0
 72
   100
 73
     1
 74
     1
 75
     0
 76
     0
 77
     0
 78
     0
281
     0
 65
     0
110
0.0
120
0.0
130
0.0
111
1.0
121
0.0
131
0.0
112
0.0
122
1.0
132
0.0
345
0
346
0
 79
     0
146
0.0
  0
ENDTAB
  0
TABLE
  2
LTYPE
  5
4
100
AcDbSymbolTable
 70
     3
  0
LTYPE
  5
11
100
AcDbSymbolTableRecord
100
AcDbLinetypeTableRecord
  2
ByBlock
 70
    64
  3

 72
    65
 73
     0
 40
0.0
  0
LTYPE
  5
12
100
AcDbSymbolTableRecord
100
AcDbLinetypeTableRecord
  2
ByLayer
 70
    64
  3

 72
    65
 73
     0
 40
0.0
  0
LTYPE
  5
13
100
AcDbSymbolTableRecord
100
AcDbLinetypeTableRecord
  2
Continuous
 70
    64
  3
Solid line
 72
    65
 73
     0
 40
0.0
  0
ENDTAB
  0
TABLE
  2
LAYER
  5
2
100
AcDbSymbolTable
 70
     2
  0
LAYER
  5
14
100
AcDbSymbolTableRecord
100
AcDbLayerTableRecord
  2
0
 70
     0
 62
     7
  6
Continuous
290
     1
370
    -3
390
1D
  0
LAYER
  5
28
100
AcDbSymbolTableRecord
100
AcDbLayerTableRecord
  2
LAYER_1
 70
     0
 62
   160
  6
Continuous
290
     1
370
    -3
390
1D
  0
ENDTAB
  0
TABLE
  2
STYLE
  5
3
100
AcDbSymbolTable
 70
     5
  0
STYLE
  5
17
100
AcDbSymbolTableRecord
100
AcDbTextStyleTableRecord
  2
Standard
 70
     0
 40
0.0
 41
1.0
 50
0.0
 71
     0
 42
0.0
  3
txt
  4

  0
STYLE
  5
24
100
AcDbSymbolTableRecord
100
AcDbTextStyleTableRecord
  2
STD
 70
     0
 40
0.0
 41
1.0
 50
0.0
 71
     0
 42
0.0
  3
txt
  4

  0
STYLE
  5
25
100
AcDbSymbolTableRecord
100
AcDbTextStyleTableRecord
  2
TATESTD
 70
     4
 40
0.0
 41
1.0
 50
0.0
 71
     0
 42
0.0
  3
txt
  4

  0
STYLE
  5
26
100
AcDbSymbolTableRecord
100
AcDbTextStyleTableRecord
  2
KANJISTD
 70
     0
 40
0.0
 41
1.0
 50
0.0
 71
     0
 42
0.0
  3
txt
  4
extfont
  0
STYLE
  5
27
100
AcDbSymbolTableRecord
100
AcDbTextStyleTableRecord
  2
KANJITATE
 70
     4
 40
0.0
 41
1.0
 50
0.0
 71
     0
 42
0.0
  3
txt
  4
extfont
  0
ENDTAB
  0
TABLE
  2
VIEW
  5
5
100
AcDbSymbolTable
 70
     0
  0
ENDTAB
  0
TABLE
  2
UCS
  5
6
100
AcDbSymbolTable
 70
     0
  0
ENDTAB
  0
TABLE
  2
APPID
  5
8
100
AcDbSymbolTable
 70
     1
  0
APPID
  5
16
100
AcDbSymbolTableRecord
100
AcDbRegAppTableRecord
  2
ACAD
 70
     0
  0
ENDTAB
  0
TABLE
  2
DIMSTYLE
  5
9
100
AcDbSymbolTable
 70
     1
100
AcDbDimStyleTable
 71
     0
  0
DIMSTYLE
105
18
100
AcDbSymbolTableRecord
100
AcDbDimStyleTableRecord
  2
Standard
 70
     0
  3

  4

 40
1.0
 41
0.18
 42
0.0625
 43
0.38
 44
0.18
 45
0.0
 46
0.0
 47
0.0
 48
0.0
 71
     0
 72
     0
 73
     1
 74
     1
 75
     0
 76
     0
 77
     0
 78
     0
 79
     0
140
0.18
141
0.09
142
0.0
143
25.4
144
1.0
145
0.0
146
1.0
147
0.09
148
0.0
170
     0
171
     2
172
     0
173
     0
174
     0
175
     0
176
     0
177
     0
178
     0
179
     0
271
     4
272
     4
273
     2
274
     2
275
     0
276
     0
277
     2
278
    46
279
     0
280
     0
281
     0
282
     0
283
     1
284
     0
285
     0
286
     0
288
     0
340
17
341
0
342
0
343
0
344
0
371
    -2
372
    -2
  0
ENDTAB
  0
TABLE
  2
BLOCK_RECORD
  5
1
100
AcDbSymbolTable
 70
     0
  0
BLOCK_RECORD
  5
A
100
AcDbSymbolTableRecord
100
AcDbBlockTableRecord
  2
*MODEL_SPACE
340
20
  0
BLOCK_RECORD
  5
B
100
AcDbSymbolTableRecord
100
AcDbBlockTableRecord
  2
*PAPER_SPACE
340
21
  0
ENDTAB
  0
ENDSEC
  0
SECTION
  2
BLOCKS
  0
BLOCK
  5
D
100
AcDbEntity
  8
0
100
AcDbBlockBegin
  2
*MODEL_SPACE
 70
     0
 10
0.0
 20
0.0
 30
0.0
  3
*MODEL_SPACE
  1

  0
ENDBLK
  5
E
100
AcDbEntity
  8
0
100
AcDbBlockEnd
  0
BLOCK
  5
F
100
AcDbEntity
 67
     1
  8
0
100
AcDbBlockBegin
  2
*PAPER_SPACE
 70
     0
 10
0.0
 20
0.0
 30
0.0
  3
*PAPER_SPACE
  1

  0
ENDBLK
  5
10
100
AcDbEntity
 67
     1
  8
0
100
AcDbBlockEnd
  0
ENDSEC
  0
SECTION
  2
ENTITIES
  0
CIRCLE
  5
154
100
AcDbEntity
  8
LAYER_1
 62
     7
100
AcDbCircle
 10
242.072046
 20
305.535356
 30
0.0
 40
2.199866
  0
CIRCLE
  5
153
100
AcDbEntity
  8
LAYER_1
 62
     7
100
AcDbCircle
 10
251.343142
 20
267.435356
 30
0.0
 40
2.199866
  0
CIRCLE
  5
152
100
AcDbEntity
  8
LAYER_1
 62
     7
100
AcDbCircle
 10
403.870266
 20
267.435356
 30
0.0
 40
2.199866
  0
CIRCLE
  5
151
100
AcDbEntity
  8
LAYER_1
 62
     7
100
AcDbCircle
 10
356.245266
 20
305.535356
 30
0.0
 40
2.199866
  0
LINE
  5
150
100
AcDbEntity
  8
LAYER_1
 62
     7
100
AcDbLine
 10
217.847168
 20
324.664076
 30
0.0
 11
408.89735
 21
324.664076
 31
0.0
  0
LINE
  5
14F
100
AcDbEntity
  8
LAYER_1
 62
     7
100
AcDbLine
 10
408.89735
 20
324.664076
 30
0.0
 11
408.89735
 21
305.614076
 31
0.0
  0
LINE
  5
14E
100
AcDbEntity
  8
LAYER_1
 62
     7
100
AcDbLine
 10
408.89735
 20
305.614076
 30
0.0
 11
413.65985
 21
305.614076
 31
0.0
  0
LINE
  5
14D
100
AcDbEntity
  8
LAYER_1
 62
     7
100
AcDbLine
 10
413.65985
 20
305.614076
 30
0.0
 11
413.65985
 21
286.564076
 31
0.0
  0
LINE
  5
14C
100
AcDbEntity
  8
LAYER_1
 62
     7
100
AcDbLine
 10
413.65985
 20
286.564076
 30
0.0
 11
418.42235
 21
286.564076
 31
0.0
  0
LINE
  5
14B
100
AcDbEntity
  8
LAYER_1
 62
     7
100
AcDbLine
 10
418.42235
 20
286.564076
 30
0.0
 11
418.42235
 21
267.514076
 31
0.0
  0
LINE
  5
14A
100
AcDbEntity
  8
LAYER_1
 62
     7
100
AcDbLine
 10
418.42235
 20
267.514076
 30
0.0
 11
423.18485
 21
267.514076
 31
0.0
  0
LINE
  5
149
100
AcDbEntity
  8
LAYER_1
 62
     7
100
AcDbLine
 10
423.18485
 20
267.514076
 30
0.0
 11
423.18485
 21
248.464076
 31
0.0
  0
LINE
  5
148
100
AcDbEntity
  8
LAYER_1
 62
     7
100
AcDbLine
 10
423.18485
 20
248.464076
 30
0.0
 11
232.134668
 21
248.464076
 31
0.0
  0
LINE
  5
147
100
AcDbEntity
  8
LAYER_1
 62
     7
100
AcDbLine
 10
232.134668
 20
248.464076
 30
0.0
 11
232.134668
 21
267.514076
 31
0.0
  0
LINE
  5
146
100
AcDbEntity
  8
LAYER_1
 62
     7
100
AcDbLine
 10
232.134668
 20
267.514076
 30
0.0
 11
227.372168
 21
267.514076
 31
0.0
  0
LINE
  5
145
100
AcDbEntity
  8
LAYER_1
 62
     7
100
AcDbLine
 10
227.372168
 20
267.514076
 30
0.0
 11
227.372168
 21
286.564076
 31
0.0
  0
LINE
  5
144
100
AcDbEntity
  8
LAYER_1
 62
     7
100
AcDbLine
 10
227.372168
 20
286.564076
 30
0.0
 11
222.609668
 21
286.564076
 31
0.0
  0
LINE
  5
143
100
AcDbEntity
  8
LAYER_1
 62
     7
100
AcDbLine
 10
222.609668
 20
286.564076
 30
0.0
 11
222.609668
 21
305.614076
 31
0.0
  0
LINE
  5
142
100
AcDbEntity
  8
LAYER_1
 62
     7
100
AcDbLine
 10
222.609668
 20
305.614076
 30
0.0
 11
217.847168
 21
305.614076
 31
0.0
  0
LINE
  5
141
100
AcDbEntity
  8
LAYER_1
 62
     7
100
AcDbLine
 10
217.847168
 20
305.614076
 30
0.0
 11
217.847168
 21
324.664076
 31
0.0
  0
POLYLINE
  5
13A
100
AcDbEntity
  8
LAYER_1
 62
     7
100
AcDb2dPolyline
 66
     1
 10
0.0
 20
0.0
 30
0.0
  0
VERTEX
  5
13B
100
AcDbEntity
  8
LAYER_1
 62
     7
100
AcDbVertex
100
AcDb2dVertex
 10
219.847046
 20
321.664087
 30
0.0
  0
VERTEX
  5
13C
100
AcDbEntity
  8
LAYER_1
 62
     7
100
AcDbVertex
100
AcDb2dVertex
 10
235.447127
 20
321.664087
 30
0.0
  0
VERTEX
  5
13D
100
AcDbEntity
  8
LAYER_1
 62
     7
100
AcDbVertex
100
AcDb2dVertex
 10
235.447127
 20
308.664364
 30
0.0
  0
VERTEX
  5
13E
100
AcDbEntity
  8
LAYER_1
 62
     7
100
AcDbVertex
100
AcDb2dVertex
 10
219.847046
 20
308.664364
 30
0.0
  0
VERTEX
  5
13F
100
AcDbEntity
  8
LAYER_1
 62
     7
100
AcDbVertex
100
AcDb2dVertex
 10
219.847046
 20
321.664087
 30
0.0
  0
SEQEND
  5
140
100
AcDbEntity
  8
LAYER_1
 62
     7
  0
POLYLINE
  5
133
100
AcDbEntity
  8
LAYER_1
 62
     7
100
AcDb2dPolyline
 66
     1
 10
0.0
 20
0.0
 30
0.0
  0
VERTEX
  5
134
100
AcDbEntity
  8
LAYER_1
 62
     7
100
AcDbVertex
100
AcDb2dVertex
 10
238.897046
 20
321.664087
 30
0.0
  0
VERTEX
  5
135
100
AcDbEntity
  8
LAYER_1
 62
     7
100
AcDbVertex
100
AcDb2dVertex
 10
254.497127
 20
321.664087
 30
0.0
  0
VERTEX
  5
136
100
AcDbEntity
  8
LAYER_1
 62
     7
100
AcDbVertex
100
AcDb2dVertex
 10
254.497127
 20
308.664364
 30
0.0
  0
VERTEX
  5
137
100
AcDbEntity
  8
LAYER_1
 62
     7
100
AcDbVertex
100
AcDb2dVertex
 10
238.897046
 20
308.664364
 30
0.0
  0
VERTEX
  5
138
100
AcDbEntity
  8
LAYER_1
 62
     7
100
AcDbVertex
100
AcDb2dVertex
 10
238.897046
 20
321.664087
 30
0.0
  0
SEQEND
  5
139
100
AcDbEntity
  8
LAYER_1
 62
     7
  0
POLYLINE
  5
12C
100
AcDbEntity
  8
LAYER_1
 62
     7
100
AcDb2dPolyline
 66
     1
 10
0.0
 20
0.0
 30
0.0
  0
VERTEX
  5
12D
100
AcDbEntity
  8
LAYER_1
 62
     7
100
AcDbVertex
100
AcDb2dVertex
 10
257.947046
 20
321.664087
 30
0.0
  0
VERTEX
  5
12E
100
AcDbEntity
  8
LAYER_1
 62
     7
100
AcDbVertex
100
AcDb2dVertex
 10
273.547127
 20
321.664087
 30
0.0
  0
VERTEX
  5
12F
100
AcDbEntity
  8
LAYER_1
 62
     7
100
AcDbVertex
100
AcDb2dVertex
 10
273.547127
 20
308.664364
 30
0.0
  0
VERTEX
  5
130
100
AcDbEntity
  8
LAYER_1
 62
     7
100
AcDbVertex
100
AcDb2dVertex
 10
257.947046
 20
308.664364
 30
0.0
  0
VERTEX
  5
131
100
AcDbEntity
  8
LAYER_1
 62
     7
100
AcDbVertex
100
AcDb2dVertex
 10
257.947046
 20
321.664087
 30
0.0
  0
SEQEND
  5
132
100
AcDbEntity
  8
LAYER_1
 62
     7
  0
POLYLINE
  5
125
100
AcDbEntity
  8
LAYER_1
 62
     7
100
AcDb2dPolyline
 66
     1
 10
0.0
 20
0.0
 30
0.0
  0
VERTEX
  5
126
100
AcDbEntity
  8
LAYER_1
 62
     7
100
AcDbVertex
100
AcDb2dVertex
 10
276.997046
 20
321.664087
 30
0.0
  0
VERTEX
  5
127
100
AcDbEntity
  8
LAYER_1
 62
     7
100
AcDbVertex
100
AcDb2dVertex
 10
292.597127
 20
321.664087
 30
0.0
  0
VERTEX
  5
128
100
AcDbEntity
  8
LAYER_1
 62
     7
100
AcDbVertex
100
AcDb2dVertex
 10
292.597127
 20
308.664364
 30
0.0
  0
VERTEX
  5
129
100
AcDbEntity
  8
LAYER_1
 62
     7
100
AcDbVertex
100
AcDb2dVertex
 10
276.997046
 20
308.664364
 30
0.0
  0
VERTEX
  5
12A
100
AcDbEntity
  8
LAYER_1
 62
     7
100
AcDbVertex
100
AcDb2dVertex
 10
276.997046
 20
321.664087
 30
0.0
  0
SEQEND
  5
12B
100
AcDbEntity
  8
LAYER_1
 62
     7
  0
POLYLINE
  5
11E
100
AcDbEntity
  8
LAYER_1
 62
     7
100
AcDb2dPolyline
 66
     1
 10
0.0
 20
0.0
 30
0.0
  0
VERTEX
  5
11F
100
AcDbEntity
  8
LAYER_1
 62
     7
100
AcDbVertex
100
AcDb2dVertex
 10
296.047046
 20
321.664087
 30
0.0
  0
VERTEX
  5
120
100
AcDbEntity
  8
LAYER_1
 62
     7
100
AcDbVertex
100
AcDb2dVertex
 10
311.647127
 20
321.664087
 30
0.0
  0
VERTEX
  5
121
100
AcDbEntity
  8
LAYER_1
 62
     7
100
AcDbVertex
100
AcDb2dVertex
 10
311.647127
 20
308.664364
 30
0.0
  0
VERTEX
  5
122
100
AcDbEntity
  8
LAYER_1
 62
     7
100
AcDbVertex
100
AcDb2dVertex
 10
296.047046
 20
308.664364
 30
0.0
  0
VERTEX
  5
123
100
AcDbEntity
  8
LAYER_1
 62
     7
100
AcDbVertex
100
AcDb2dVertex
 10
296.047046
 20
321.664087
 30
0.0
  0
SEQEND
  5
124
100
AcDbEntity
  8
LAYER_1
 62
     7
  0
POLYLINE
  5
117
100
AcDbEntity
  8
LAYER_1
 62
     7
100
AcDb2dPolyline
 66
     1
 10
0.0
 20
0.0
 30
0.0
  0
VERTEX
  5
118
100
AcDbEntity
  8
LAYER_1
 62
     7
100
AcDbVertex
100
AcDb2dVertex
 10
315.097046
 20
321.664087
 30
0.0
  0
VERTEX
  5
119
100
AcDbEntity
  8
LAYER_1
 62
     7
100
AcDbVertex
100
AcDb2dVertex
 10
330.697127
 20
321.664087
 30
0.0
  0
VERTEX
  5
11A
100
AcDbEntity
  8
LAYER_1
 62
     7
100
AcDbVertex
100
AcDb2dVertex
 10
330.697127
 20
308.664364
 30
0.0
  0
VERTEX
  5
11B
100
AcDbEntity
  8
LAYER_1
 62
     7
100
AcDbVertex
100
AcDb2dVertex
 10
315.097046
 20
308.664364
 30
0.0
  0
VERTEX
  5
11C
100
AcDbEntity
  8
LAYER_1
 62
     7
100
AcDbVertex
100
AcDb2dVertex
 10
315.097046
 20
321.664087
 30
0.0
  0
SEQEND
  5
11D
100
AcDbEntity
  8
LAYER_1
 62
     7
  0
POLYLINE
  5
110
100
AcDbEntity
  8
LAYER_1
 62
     7
100
AcDb2dPolyline
 66
     1
 10
0.0
 20
0.0
 30
0.0
  0
VERTEX
  5
111
100
AcDbEntity
  8
LAYER_1
 62
     7
100
AcDbVertex
100
AcDb2dVertex
 10
334.147046
 20
321.664087
 30
0.0
  0
VERTEX
  5
112
100
AcDbEntity
  8
LAYER_1
 62
     7
100
AcDbVertex
100
AcDb2dVertex
 10
349.747127
 20
321.664087
 30
0.0
  0
VERTEX
  5
113
100
AcDbEntity
  8
LAYER_1
 62
     7
100
AcDbVertex
100
AcDb2dVertex
 10
349.747127
 20
308.664364
 30
0.0
  0
VERTEX
  5
114
100
AcDbEntity
  8
LAYER_1
 62
     7
100
AcDbVertex
100
AcDb2dVertex
 10
334.147046
 20
308.664364
 30
0.0
  0
VERTEX
  5
115
100
AcDbEntity
  8
LAYER_1
 62
     7
100
AcDbVertex
100
AcDb2dVertex
 10
334.147046
 20
321.664087
 30
0.0
  0
SEQEND
  5
116
100
AcDbEntity
  8
LAYER_1
 62
     7
  0
POLYLINE
  5
109
100
AcDbEntity
  8
LAYER_1
 62
     7
100
AcDb2dPolyline
 66
     1
 10
0.0
 20
0.0
 30
0.0
  0
VERTEX
  5
10A
100
AcDbEntity
  8
LAYER_1
 62
     7
100
AcDbVertex
100
AcDb2dVertex
 10
353.197046
 20
321.664087
 30
0.0
  0
VERTEX
  5
10B
100
AcDbEntity
  8
LAYER_1
 62
     7
100
AcDbVertex
100
AcDb2dVertex
 10
368.797127
 20
321.664087
 30
0.0
  0
VERTEX
  5
10C
100
AcDbEntity
  8
LAYER_1
 62
     7
100
AcDbVertex
100
AcDb2dVertex
 10
368.797127
 20
308.664364
 30
0.0
  0
VERTEX
  5
10D
100
AcDbEntity
  8
LAYER_1
 62
     7
100
AcDbVertex
100
AcDb2dVertex
 10
353.197046
 20
308.664364
 30
0.0
  0
VERTEX
  5
10E
100
AcDbEntity
  8
LAYER_1
 62
     7
100
AcDbVertex
100
AcDb2dVertex
 10
353.197046
 20
321.664087
 30
0.0
  0
SEQEND
  5
10F
100
AcDbEntity
  8
LAYER_1
 62
     7
  0
POLYLINE
  5
102
100
AcDbEntity
  8
LAYER_1
 62
     7
100
AcDb2dPolyline
 66
     1
 10
0.0
 20
0.0
 30
0.0
  0
VERTEX
  5
103
100
AcDbEntity
  8
LAYER_1
 62
     7
100
AcDbVertex
100
AcDb2dVertex
 10
372.247046
 20
321.664087
 30
0.0
  0
VERTEX
  5
104
100
AcDbEntity
  8
LAYER_1
 62
     7
100
AcDbVertex
100
AcDb2dVertex
 10
387.847127
 20
321.664087
 30
0.0
  0
VERTEX
  5
105
100
AcDbEntity
  8
LAYER_1
 62
     7
100
AcDbVertex
100
AcDb2dVertex
 10
387.847127
 20
308.664364
 30
0.0
  0
VERTEX
  5
106
100
AcDbEntity
  8
LAYER_1
 62
     7
100
AcDbVertex
100
AcDb2dVertex
 10
372.247046
 20
308.664364
 30
0.0
  0
VERTEX
  5
107
100
AcDbEntity
  8
LAYER_1
 62
     7
100
AcDbVertex
100
AcDb2dVertex
 10
372.247046
 20
321.664087
 30
0.0
  0
SEQEND
  5
108
100
AcDbEntity
  8
LAYER_1
 62
     7
  0
POLYLINE
  5
FB
100
AcDbEntity
  8
LAYER_1
 62
     7
100
AcDb2dPolyline
 66
     1
 10
0.0
 20
0.0
 30
0.0
  0
VERTEX
  5
FC
100
AcDbEntity
  8
LAYER_1
 62
     7
100
AcDbVertex
100
AcDb2dVertex
 10
391.297046
 20
321.664087
 30
0.0
  0
VERTEX
  5
FD
100
AcDbEntity
  8
LAYER_1
 62
     7
100
AcDbVertex
100
AcDb2dVertex
 10
406.897127
 20
321.664087
 30
0.0
  0
VERTEX
  5
FE
100
AcDbEntity
  8
LAYER_1
 62
     7
100
AcDbVertex
100
AcDb2dVertex
 10
406.897127
 20
308.664364
 30
0.0
  0
VERTEX
  5
FF
100
AcDbEntity
  8
LAYER_1
 62
     7
100
AcDbVertex
100
AcDb2dVertex
 10
391.297046
 20
308.664364
 30
0.0
  0
VERTEX
  5
100
100
AcDbEntity
  8
LAYER_1
 62
     7
100
AcDbVertex
100
AcDb2dVertex
 10
391.297046
 20
321.664087
 30
0.0
  0
SEQEND
  5
101
100
AcDbEntity
  8
LAYER_1
 62
     7
  0
POLYLINE
  5
F4
100
AcDbEntity
  8
LAYER_1
 62
     7
100
AcDb2dPolyline
 66
     1
 10
0.0
 20
0.0
 30
0.0
  0
VERTEX
  5
F5
100
AcDbEntity
  8
LAYER_1
 62
     7
100
AcDbVertex
100
AcDb2dVertex
 10
224.609546
 20
302.614087
 30
0.0
  0
VERTEX
  5
F6
100
AcDbEntity
  8
LAYER_1
 62
     7
100
AcDbVertex
100
AcDb2dVertex
 10
240.209627
 20
302.614087
 30
0.0
  0
VERTEX
  5
F7
100
AcDbEntity
  8
LAYER_1
 62
     7
100
AcDbVertex
100
AcDb2dVertex
 10
240.209627
 20
289.614364
 30
0.0
  0
VERTEX
  5
F8
100
AcDbEntity
  8
LAYER_1
 62
     7
100
AcDbVertex
100
AcDb2dVertex
 10
224.609546
 20
289.614364
 30
0.0
  0
VERTEX
  5
F9
100
AcDbEntity
  8
LAYER_1
 62
     7
100
AcDbVertex
100
AcDb2dVertex
 10
224.609546
 20
302.614087
 30
0.0
  0
SEQEND
  5
FA
100
AcDbEntity
  8
LAYER_1
 62
     7
  0
POLYLINE
  5
ED
100
AcDbEntity
  8
LAYER_1
 62
     7
100
AcDb2dPolyline
 66
     1
 10
0.0
 20
0.0
 30
0.0
  0
VERTEX
  5
EE
100
AcDbEntity
  8
LAYER_1
 62
     7
100
AcDbVertex
100
AcDb2dVertex
 10
243.659546
 20
302.614087
 30
0.0
  0
VERTEX
  5
EF
100
AcDbEntity
  8
LAYER_1
 62
     7
100
AcDbVertex
100
AcDb2dVertex
 10
259.259627
 20
302.614087
 30
0.0
  0
VERTEX
  5
F0
100
AcDbEntity
  8
LAYER_1
 62
     7
100
AcDbVertex
100
AcDb2dVertex
 10
259.259627
 20
289.614364
 30
0.0
  0
VERTEX
  5
F1
100
AcDbEntity
  8
LAYER_1
 62
     7
100
AcDbVertex
100
AcDb2dVertex
 10
243.659546
 20
289.614364
 30
0.0
  0
VERTEX
  5
F2
100
AcDbEntity
  8
LAYER_1
 62
     7
100
AcDbVertex
100
AcDb2dVertex
 10
243.659546
 20
302.614087
 30
0.0
  0
SEQEND
  5
F3
100
AcDbEntity
  8
LAYER_1
 62
     7
  0
POLYLINE
  5
E6
100
AcDbEntity
  8
LAYER_1
 62
     7
100
AcDb2dPolyline
 66
     1
 10
0.0
 20
0.0
 30
0.0
  0
VERTEX
  5
E7
100
AcDbEntity
  8
LAYER_1
 62
     7
100
AcDbVertex
100
AcDb2dVertex
 10
262.709546
 20
302.614087
 30
0.0
  0
VERTEX
  5
E8
100
AcDbEntity
  8
LAYER_1
 62
     7
100
AcDbVertex
100
AcDb2dVertex
 10
278.309627
 20
302.614087
 30
0.0
  0
VERTEX
  5
E9
100
AcDbEntity
  8
LAYER_1
 62
     7
100
AcDbVertex
100
AcDb2dVertex
 10
278.309627
 20
289.614364
 30
0.0
  0
VERTEX
  5
EA
100
AcDbEntity
  8
LAYER_1
 62
     7
100
AcDbVertex
100
AcDb2dVertex
 10
262.709546
 20
289.614364
 30
0.0
  0
VERTEX
  5
EB
100
AcDbEntity
  8
LAYER_1
 62
     7
100
AcDbVertex
100
AcDb2dVertex
 10
262.709546
 20
302.614087
 30
0.0
  0
SEQEND
  5
EC
100
AcDbEntity
  8
LAYER_1
 62
     7
  0
POLYLINE
  5
DF
100
AcDbEntity
  8
LAYER_1
 62
     7
100
AcDb2dPolyline
 66
     1
 10
0.0
 20
0.0
 30
0.0
  0
VERTEX
  5
E0
100
AcDbEntity
  8
LAYER_1
 62
     7
100
AcDbVertex
100
AcDb2dVertex
 10
281.759546
 20
302.614087
 30
0.0
  0
VERTEX
  5
E1
100
AcDbEntity
  8
LAYER_1
 62
     7
100
AcDbVertex
100
AcDb2dVertex
 10
297.359627
 20
302.614087
 30
0.0
  0
VERTEX
  5
E2
100
AcDbEntity
  8
LAYER_1
 62
     7
100
AcDbVertex
100
AcDb2dVertex
 10
297.359627
 20
289.614364
 30
0.0
  0
VERTEX
  5
E3
100
AcDbEntity
  8
LAYER_1
 62
     7
100
AcDbVertex
100
AcDb2dVertex
 10
281.759546
 20
289.614364
 30
0.0
  0
VERTEX
  5
E4
100
AcDbEntity
  8
LAYER_1
 62
     7
100
AcDbVertex
100
AcDb2dVertex
 10
281.759546
 20
302.614087
 30
0.0
  0
SEQEND
  5
E5
100
AcDbEntity
  8
LAYER_1
 62
     7
  0
POLYLINE
  5
D8
100
AcDbEntity
  8
LAYER_1
 62
     7
100
AcDb2dPolyline
 66
     1
 10
0.0
 20
0.0
 30
0.0
  0
VERTEX
  5
D9
100
AcDbEntity
  8
LAYER_1
 62
     7
100
AcDbVertex
100
AcDb2dVertex
 10
300.809546
 20
302.614087
 30
0.0
  0
VERTEX
  5
DA
100
AcDbEntity
  8
LAYER_1
 62
     7
100
AcDbVertex
100
AcDb2dVertex
 10
316.409627
 20
302.614087
 30
0.0
  0
VERTEX
  5
DB
100
AcDbEntity
  8
LAYER_1
 62
     7
100
AcDbVertex
100
AcDb2dVertex
 10
316.409627
 20
289.614364
 30
0.0
  0
VERTEX
  5
DC
100
AcDbEntity
  8
LAYER_1
 62
     7
100
AcDbVertex
100
AcDb2dVertex
 10
300.809546
 20
289.614364
 30
0.0
  0
VERTEX
  5
DD
100
AcDbEntity
  8
LAYER_1
 62
     7
100
AcDbVertex
100
AcDb2dVertex
 10
300.809546
 20
302.614087
 30
0.0
  0
SEQEND
  5
DE
100
AcDbEntity
  8
LAYER_1
 62
     7
  0
POLYLINE
  5
D1
100
AcDbEntity
  8
LAYER_1
 62
     7
100
AcDb2dPolyline
 66
     1
 10
0.0
 20
0.0
 30
0.0
  0
VERTEX
  5
D2
100
AcDbEntity
  8
LAYER_1
 62
     7
100
AcDbVertex
100
AcDb2dVertex
 10
319.859546
 20
302.614087
 30
0.0
  0
VERTEX
  5
D3
100
AcDbEntity
  8
LAYER_1
 62
     7
100
AcDbVertex
100
AcDb2dVertex
 10
335.459627
 20
302.614087
 30
0.0
  0
VERTEX
  5
D4
100
AcDbEntity
  8
LAYER_1
 62
     7
100
AcDbVertex
100
AcDb2dVertex
 10
335.459627
 20
289.614364
 30
0.0
  0
VERTEX
  5
D5
100
AcDbEntity
  8
LAYER_1
 62
     7
100
AcDbVertex
100
AcDb2dVertex
 10
319.859546
 20
289.614364
 30
0.0
  0
VERTEX
  5
D6
100
AcDbEntity
  8
LAYER_1
 62
     7
100
AcDbVertex
100
AcDb2dVertex
 10
319.859546
 20
302.614087
 30
0.0
  0
SEQEND
  5
D7
100
AcDbEntity
  8
LAYER_1
 62
     7
  0
POLYLINE
  5
CA
100
AcDbEntity
  8
LAYER_1
 62
     7
100
AcDb2dPolyline
 66
     1
 10
0.0
 20
0.0
 30
0.0
  0
VERTEX
  5
CB
100
AcDbEntity
  8
LAYER_1
 62
     7
100
AcDbVertex
100
AcDb2dVertex
 10
338.909546
 20
302.614087
 30
0.0
  0
VERTEX
  5
CC
100
AcDbEntity
  8
LAYER_1
 62
     7
100
AcDbVertex
100
AcDb2dVertex
 10
354.509627
 20
302.614087
 30
0.0
  0
VERTEX
  5
CD
100
AcDbEntity
  8
LAYER_1
 62
     7
100
AcDbVertex
100
AcDb2dVertex
 10
354.509627
 20
289.614364
 30
0.0
  0
VERTEX
  5
CE
100
AcDbEntity
  8
LAYER_1
 62
     7
100
AcDbVertex
100
AcDb2dVertex
 10
338.909546
 20
289.614364
 30
0.0
  0
VERTEX
  5
CF
100
AcDbEntity
  8
LAYER_1
 62
     7
100
AcDbVertex
100
AcDb2dVertex
 10
338.909546
 20
302.614087
 30
0.0
  0
SEQEND
  5
D0
100
AcDbEntity
  8
LAYER_1
 62
     7
  0
POLYLINE
  5
C3
100
AcDbEntity
  8
LAYER_1
 62
     7
100
AcDb2dPolyline
 66
     1
 10
0.0
 20
0.0
 30
0.0
  0
VERTEX
  5
C4
100
AcDbEntity
  8
LAYER_1
 62
     7
100
AcDbVertex
100
AcDb2dVertex
 10
357.959546
 20
302.614087
 30
0.0
  0
VERTEX
  5
C5
100
AcDbEntity
  8
LAYER_1
 62
     7
100
AcDbVertex
100
AcDb2dVertex
 10
373.559627
 20
302.614087
 30
0.0
  0
VERTEX
  5
C6
100
AcDbEntity
  8
LAYER_1
 62
     7
100
AcDbVertex
100
AcDb2dVertex
 10
373.559627
 20
289.614364
 30
0.0
  0
VERTEX
  5
C7
100
AcDbEntity
  8
LAYER_1
 62
     7
100
AcDbVertex
100
AcDb2dVertex
 10
357.959546
 20
289.614364
 30
0.0
  0
VERTEX
  5
C8
100
AcDbEntity
  8
LAYER_1
 62
     7
100
AcDbVertex
100
AcDb2dVertex
 10
357.959546
 20
302.614087
 30
0.0
  0
SEQEND
  5
C9
100
AcDbEntity
  8
LAYER_1
 62
     7
  0
POLYLINE
  5
BC
100
AcDbEntity
  8
LAYER_1
 62
     7
100
AcDb2dPolyline
 66
     1
 10
0.0
 20
0.0
 30
0.0
  0
VERTEX
  5
BD
100
AcDbEntity
  8
LAYER_1
 62
     7
100
AcDbVertex
100
AcDb2dVertex
 10
377.009546
 20
302.614087
 30
0.0
  0
VERTEX
  5
BE
100
AcDbEntity
  8
LAYER_1
 62
     7
100
AcDbVertex
100
AcDb2dVertex
 10
392.609627
 20
302.614087
 30
0.0
  0
VERTEX
  5
BF
100
AcDbEntity
  8
LAYER_1
 62
     7
100
AcDbVertex
100
AcDb2dVertex
 10
392.609627
 20
289.614364
 30
0.0
  0
VERTEX
  5
C0
100
AcDbEntity
  8
LAYER_1
 62
     7
100
AcDbVertex
100
AcDb2dVertex
 10
377.009546
 20
289.614364
 30
0.0
  0
VERTEX
  5
C1
100
AcDbEntity
  8
LAYER_1
 62
     7
100
AcDbVertex
100
AcDb2dVertex
 10
377.009546
 20
302.614087
 30
0.0
  0
SEQEND
  5
C2
100
AcDbEntity
  8
LAYER_1
 62
     7
  0
POLYLINE
  5
B5
100
AcDbEntity
  8
LAYER_1
 62
     7
100
AcDb2dPolyline
 66
     1
 10
0.0
 20
0.0
 30
0.0
  0
VERTEX
  5
B6
100
AcDbEntity
  8
LAYER_1
 62
     7
100
AcDbVertex
100
AcDb2dVertex
 10
396.059546
 20
302.614087
 30
0.0
  0
VERTEX
  5
B7
100
AcDbEntity
  8
LAYER_1
 62
     7
100
AcDbVertex
100
AcDb2dVertex
 10
411.659627
 20
302.614087
 30
0.0
  0
VERTEX
  5
B8
100
AcDbEntity
  8
LAYER_1
 62
     7
100
AcDbVertex
100
AcDb2dVertex
 10
411.659627
 20
289.614364
 30
0.0
  0
VERTEX
  5
B9
100
AcDbEntity
  8
LAYER_1
 62
     7
100
AcDbVertex
100
AcDb2dVertex
 10
396.059546
 20
289.614364
 30
0.0
  0
VERTEX
  5
BA
100
AcDbEntity
  8
LAYER_1
 62
     7
100
AcDbVertex
100
AcDb2dVertex
 10
396.059546
 20
302.614087
 30
0.0
  0
SEQEND
  5
BB
100
AcDbEntity
  8
LAYER_1
 62
     7
  0
POLYLINE
  5
AE
100
AcDbEntity
  8
LAYER_1
 62
     7
100
AcDb2dPolyline
 66
     1
 10
0.0
 20
0.0
 30
0.0
  0
VERTEX
  5
AF
100
AcDbEntity
  8
LAYER_1
 62
     7
100
AcDbVertex
100
AcDb2dVertex
 10
229.372046
 20
283.564087
 30
0.0
  0
VERTEX
  5
B0
100
AcDbEntity
  8
LAYER_1
 62
     7
100
AcDbVertex
100
AcDb2dVertex
 10
244.972127
 20
283.564087
 30
0.0
  0
VERTEX
  5
B1
100
AcDbEntity
  8
LAYER_1
 62
     7
100
AcDbVertex
100
AcDb2dVertex
 10
244.972127
 20
270.564364
 30
0.0
  0
VERTEX
  5
B2
100
AcDbEntity
  8
LAYER_1
 62
     7
100
AcDbVertex
100
AcDb2dVertex
 10
229.372046
 20
270.564364
 30
0.0
  0
VERTEX
  5
B3
100
AcDbEntity
  8
LAYER_1
 62
     7
100
AcDbVertex
100
AcDb2dVertex
 10
229.372046
 20
283.564087
 30
0.0
  0
SEQEND
  5
B4
100
AcDbEntity
  8
LAYER_1
 62
     7
  0
POLYLINE
  5
A7
100
AcDbEntity
  8
LAYER_1
 62
     7
100
AcDb2dPolyline
 66
     1
 10
0.0
 20
0.0
 30
0.0
  0
VERTEX
  5
A8
100
AcDbEntity
  8
LAYER_1
 62
     7
100
AcDbVertex
100
AcDb2dVertex
 10
248.422046
 20
283.564087
 30
0.0
  0
VERTEX
  5
A9
100
AcDbEntity
  8
LAYER_1
 62
     7
100
AcDbVertex
100
AcDb2dVertex
 10
264.022127
 20
283.564087
 30
0.0
  0
VERTEX
  5
AA
100
AcDbEntity
  8
LAYER_1
 62
     7
100
AcDbVertex
100
AcDb2dVertex
 10
264.022127
 20
270.564364
 30
0.0
  0
VERTEX
  5
AB
100
AcDbEntity
  8
LAYER_1
 62
     7
100
AcDbVertex
100
AcDb2dVertex
 10
248.422046
 20
270.564364
 30
0.0
  0
VERTEX
  5
AC
100
AcDbEntity
  8
LAYER_1
 62
     7
100
AcDbVertex
100
AcDb2dVertex
 10
248.422046
 20
283.564087
 30
0.0
  0
SEQEND
  5
AD
100
AcDbEntity
  8
LAYER_1
 62
     7
  0
POLYLINE
  5
A0
100
AcDbEntity
  8
LAYER_1
 62
     7
100
AcDb2dPolyline
 66
     1
 10
0.0
 20
0.0
 30
0.0
  0
VERTEX
  5
A1
100
AcDbEntity
  8
LAYER_1
 62
     7
100
AcDbVertex
100
AcDb2dVertex
 10
267.472046
 20
283.564087
 30
0.0
  0
VERTEX
  5
A2
100
AcDbEntity
  8
LAYER_1
 62
     7
100
AcDbVertex
100
AcDb2dVertex
 10
283.072127
 20
283.564087
 30
0.0
  0
VERTEX
  5
A3
100
AcDbEntity
  8
LAYER_1
 62
     7
100
AcDbVertex
100
AcDb2dVertex
 10
283.072127
 20
270.564364
 30
0.0
  0
VERTEX
  5
A4
100
AcDbEntity
  8
LAYER_1
 62
     7
100
AcDbVertex
100
AcDb2dVertex
 10
267.472046
 20
270.564364
 30
0.0
  0
VERTEX
  5
A5
100
AcDbEntity
  8
LAYER_1
 62
     7
100
AcDbVertex
100
AcDb2dVertex
 10
267.472046
 20
283.564087
 30
0.0
  0
SEQEND
  5
A6
100
AcDbEntity
  8
LAYER_1
 62
     7
  0
POLYLINE
  5
99
100
AcDbEntity
  8
LAYER_1
 62
     7
100
AcDb2dPolyline
 66
     1
 10
0.0
 20
0.0
 30
0.0
  0
VERTEX
  5
9A
100
AcDbEntity
  8
LAYER_1
 62
     7
100
AcDbVertex
100
AcDb2dVertex
 10
286.522046
 20
283.564087
 30
0.0
  0
VERTEX
  5
9B
100
AcDbEntity
  8
LAYER_1
 62
     7
100
AcDbVertex
100
AcDb2dVertex
 10
302.122127
 20
283.564087
 30
0.0
  0
VERTEX
  5
9C
100
AcDbEntity
  8
LAYER_1
 62
     7
100
AcDbVertex
100
AcDb2dVertex
 10
302.122127
 20
270.564364
 30
0.0
  0
VERTEX
  5
9D
100
AcDbEntity
  8
LAYER_1
 62
     7
100
AcDbVertex
100
AcDb2dVertex
 10
286.522046
 20
270.564364
 30
0.0
  0
VERTEX
  5
9E
100
AcDbEntity
  8
LAYER_1
 62
     7
100
AcDbVertex
100
AcDb2dVertex
 10
286.522046
 20
283.564087
 30
0.0
  0
SEQEND
  5
9F
100
AcDbEntity
  8
LAYER_1
 62
     7
  0
POLYLINE
  5
92
100
AcDbEntity
  8
LAYER_1
 62
     7
100
AcDb2dPolyline
 66
     1
 10
0.0
 20
0.0
 30
0.0
  0
VERTEX
  5
93
100
AcDbEntity
  8
LAYER_1
 62
     7
100
AcDbVertex
100
AcDb2dVertex
 10
305.572046
 20
283.564087
 30
0.0
  0
VERTEX
  5
94
100
AcDbEntity
  8
LAYER_1
 62
     7
100
AcDbVertex
100
AcDb2dVertex
 10
321.172127
 20
283.564087
 30
0.0
  0
VERTEX
  5
95
100
AcDbEntity
  8
LAYER_1
 62
     7
100
AcDbVertex
100
AcDb2dVertex
 10
321.172127
 20
270.564364
 30
0.0
  0
VERTEX
  5
96
100
AcDbEntity
  8
LAYER_1
 62
     7
100
AcDbVertex
100
AcDb2dVertex
 10
305.572046
 20
270.564364
 30
0.0
  0
VERTEX
  5
97
100
AcDbEntity
  8
LAYER_1
 62
     7
100
AcDbVertex
100
AcDb2dVertex
 10
305.572046
 20
283.564087
 30
0.0
  0
SEQEND
  5
98
100
AcDbEntity
  8
LAYER_1
 62
     7
  0
POLYLINE
  5
8B
100
AcDbEntity
  8
LAYER_1
 62
     7
100
AcDb2dPolyline
 66
     1
 10
0.0
 20
0.0
 30
0.0
  0
VERTEX
  5
8C
100
AcDbEntity
  8
LAYER_1
 62
     7
100
AcDbVertex
100
AcDb2dVertex
 10
324.622046
 20
283.564087
 30
0.0
  0
VERTEX
  5
8D
100
AcDbEntity
  8
LAYER_1
 62
     7
100
AcDbVertex
100
AcDb2dVertex
 10
340.222127
 20
283.564087
 30
0.0
  0
VERTEX
  5
8E
100
AcDbEntity
  8
LAYER_1
 62
     7
100
AcDbVertex
100
AcDb2dVertex
 10
340.222127
 20
270.564364
 30
0.0
  0
VERTEX
  5
8F
100
AcDbEntity
  8
LAYER_1
 62
     7
100
AcDbVertex
100
AcDb2dVertex
 10
324.622046
 20
270.564364
 30
0.0
  0
VERTEX
  5
90
100
AcDbEntity
  8
LAYER_1
 62
     7
100
AcDbVertex
100
AcDb2dVertex
 10
324.622046
 20
283.564087
 30
0.0
  0
SEQEND
  5
91
100
AcDbEntity
  8
LAYER_1
 62
     7
  0
POLYLINE
  5
84
100
AcDbEntity
  8
LAYER_1
 62
     7
100
AcDb2dPolyline
 66
     1
 10
0.0
 20
0.0
 30
0.0
  0
VERTEX
  5
85
100
AcDbEntity
  8
LAYER_1
 62
     7
100
AcDbVertex
100
AcDb2dVertex
 10
343.672046
 20
283.564087
 30
0.0
  0
VERTEX
  5
86
100
AcDbEntity
  8
LAYER_1
 62
     7
100
AcDbVertex
100
AcDb2dVertex
 10
359.272127
 20
283.564087
 30
0.0
  0
VERTEX
  5
87
100
AcDbEntity
  8
LAYER_1
 62
     7
100
AcDbVertex
100
AcDb2dVertex
 10
359.272127
 20
270.564364
 30
0.0
  0
VERTEX
  5
88
100
AcDbEntity
  8
LAYER_1
 62
     7
100
AcDbVertex
100
AcDb2dVertex
 10
343.672046
 20
270.564364
 30
0.0
  0
VERTEX
  5
89
100
AcDbEntity
  8
LAYER_1
 62
     7
100
AcDbVertex
100
AcDb2dVertex
 10
343.672046
 20
283.564087
 30
0.0
  0
SEQEND
  5
8A
100
AcDbEntity
  8
LAYER_1
 62
     7
  0
POLYLINE
  5
7D
100
AcDbEntity
  8
LAYER_1
 62
     7
100
AcDb2dPolyline
 66
     1
 10
0.0
 20
0.0
 30
0.0
  0
VERTEX
  5
7E
100
AcDbEntity
  8
LAYER_1
 62
     7
100
AcDbVertex
100
AcDb2dVertex
 10
362.722046
 20
283.564087
 30
0.0
  0
VERTEX
  5
7F
100
AcDbEntity
  8
LAYER_1
 62
     7
100
AcDbVertex
100
AcDb2dVertex
 10
378.322127
 20
283.564087
 30
0.0
  0
VERTEX
  5
80
100
AcDbEntity
  8
LAYER_1
 62
     7
100
AcDbVertex
100
AcDb2dVertex
 10
378.322127
 20
270.564364
 30
0.0
  0
VERTEX
  5
81
100
AcDbEntity
  8
LAYER_1
 62
     7
100
AcDbVertex
100
AcDb2dVertex
 10
362.722046
 20
270.564364
 30
0.0
  0
VERTEX
  5
82
100
AcDbEntity
  8
LAYER_1
 62
     7
100
AcDbVertex
100
AcDb2dVertex
 10
362.722046
 20
283.564087
 30
0.0
  0
SEQEND
  5
83
100
AcDbEntity
  8
LAYER_1
 62
     7
  0
POLYLINE
  5
76
100
AcDbEntity
  8
LAYER_1
 62
     7
100
AcDb2dPolyline
 66
     1
 10
0.0
 20
0.0
 30
0.0
  0
VERTEX
  5
77
100
AcDbEntity
  8
LAYER_1
 62
     7
100
AcDbVertex
100
AcDb2dVertex
 10
381.772046
 20
283.564087
 30
0.0
  0
VERTEX
  5
78
100
AcDbEntity
  8
LAYER_1
 62
     7
100
AcDbVertex
100
AcDb2dVertex
 10
397.372127
 20
283.564087
 30
0.0
  0
VERTEX
  5
79
100
AcDbEntity
  8
LAYER_1
 62
     7
100
AcDbVertex
100
AcDb2dVertex
 10
397.372127
 20
270.564364
 30
0.0
  0
VERTEX
  5
7A
100
AcDbEntity
  8
LAYER_1
 62
     7
100
AcDbVertex
100
AcDb2dVertex
 10
381.772046
 20
270.564364
 30
0.0
  0
VERTEX
  5
7B
100
AcDbEntity
  8
LAYER_1
 62
     7
100
AcDbVertex
100
AcDb2dVertex
 10
381.772046
 20
283.564087
 30
0.0
  0
SEQEND
  5
7C
100
AcDbEntity
  8
LAYER_1
 62
     7
  0
POLYLINE
  5
6F
100
AcDbEntity
  8
LAYER_1
 62
     7
100
AcDb2dPolyline
 66
     1
 10
0.0
 20
0.0
 30
0.0
  0
VERTEX
  5
70
100
AcDbEntity
  8
LAYER_1
 62
     7
100
AcDbVertex
100
AcDb2dVertex
 10
400.822046
 20
283.564087
 30
0.0
  0
VERTEX
  5
71
100
AcDbEntity
  8
LAYER_1
 62
     7
100
AcDbVertex
100
AcDb2dVertex
 10
416.422127
 20
283.564087
 30
0.0
  0
VERTEX
  5
72
100
AcDbEntity
  8
LAYER_1
 62
     7
100
AcDbVertex
100
AcDb2dVertex
 10
416.422127
 20
270.564364
 30
0.0
  0
VERTEX
  5
73
100
AcDbEntity
  8
LAYER_1
 62
     7
100
AcDbVertex
100
AcDb2dVertex
 10
400.822046
 20
270.564364
 30
0.0
  0
VERTEX
  5
74
100
AcDbEntity
  8
LAYER_1
 62
     7
100
AcDbVertex
100
AcDb2dVertex
 10
400.822046
 20
283.564087
 30
0.0
  0
SEQEND
  5
75
100
AcDbEntity
  8
LAYER_1
 62
     7
  0
POLYLINE
  5
68
100
AcDbEntity
  8
LAYER_1
 62
     7
100
AcDb2dPolyline
 66
     1
 10
0.0
 20
0.0
 30
0.0
  0
VERTEX
  5
69
100
AcDbEntity
  8
LAYER_1
 62
     7
100
AcDbVertex
100
AcDb2dVertex
 10
234.134546
 20
264.514087
 30
0.0
  0
VERTEX
  5
6A
100
AcDbEntity
  8
LAYER_1
 62
     7
100
AcDbVertex
100
AcDb2dVertex
 10
249.734627
 20
264.514087
 30
0.0
  0
VERTEX
  5
6B
100
AcDbEntity
  8
LAYER_1
 62
     7
100
AcDbVertex
100
AcDb2dVertex
 10
249.734627
 20
251.514364
 30
0.0
  0
VERTEX
  5
6C
100
AcDbEntity
  8
LAYER_1
 62
     7
100
AcDbVertex
100
AcDb2dVertex
 10
234.134546
 20
251.514364
 30
0.0
  0
VERTEX
  5
6D
100
AcDbEntity
  8
LAYER_1
 62
     7
100
AcDbVertex
100
AcDb2dVertex
 10
234.134546
 20
264.514087
 30
0.0
  0
SEQEND
  5
6E
100
AcDbEntity
  8
LAYER_1
 62
     7
  0
POLYLINE
  5
61
100
AcDbEntity
  8
LAYER_1
 62
     7
100
AcDb2dPolyline
 66
     1
 10
0.0
 20
0.0
 30
0.0
  0
VERTEX
  5
62
100
AcDbEntity
  8
LAYER_1
 62
     7
100
AcDbVertex
100
AcDb2dVertex
 10
253.184546
 20
264.514087
 30
0.0
  0
VERTEX
  5
63
100
AcDbEntity
  8
LAYER_1
 62
     7
100
AcDbVertex
100
AcDb2dVertex
 10
268.784627
 20
264.514087
 30
0.0
  0
VERTEX
  5
64
100
AcDbEntity
  8
LAYER_1
 62
     7
100
AcDbVertex
100
AcDb2dVertex
 10
268.784627
 20
251.514364
 30
0.0
  0
VERTEX
  5
65
100
AcDbEntity
  8
LAYER_1
 62
     7
100
AcDbVertex
100
AcDb2dVertex
 10
253.184546
 20
251.514364
 30
0.0
  0
VERTEX
  5
66
100
AcDbEntity
  8
LAYER_1
 62
     7
100
AcDbVertex
100
AcDb2dVertex
 10
253.184546
 20
264.514087
 30
0.0
  0
SEQEND
  5
67
100
AcDbEntity
  8
LAYER_1
 62
     7
  0
POLYLINE
  5
5A
100
AcDbEntity
  8
LAYER_1
 62
     7
100
AcDb2dPolyline
 66
     1
 10
0.0
 20
0.0
 30
0.0
  0
VERTEX
  5
5B
100
AcDbEntity
  8
LAYER_1
 62
     7
100
AcDbVertex
100
AcDb2dVertex
 10
272.234546
 20
264.514087
 30
0.0
  0
VERTEX
  5
5C
100
AcDbEntity
  8
LAYER_1
 62
     7
100
AcDbVertex
100
AcDb2dVertex
 10
287.834627
 20
264.514087
 30
0.0
  0
VERTEX
  5
5D
100
AcDbEntity
  8
LAYER_1
 62
     7
100
AcDbVertex
100
AcDb2dVertex
 10
287.834627
 20
251.514364
 30
0.0
  0
VERTEX
  5
5E
100
AcDbEntity
  8
LAYER_1
 62
     7
100
AcDbVertex
100
AcDb2dVertex
 10
272.234546
 20
251.514364
 30
0.0
  0
VERTEX
  5
5F
100
AcDbEntity
  8
LAYER_1
 62
     7
100
AcDbVertex
100
AcDb2dVertex
 10
272.234546
 20
264.514087
 30
0.0
  0
SEQEND
  5
60
100
AcDbEntity
  8
LAYER_1
 62
     7
  0
POLYLINE
  5
53
100
AcDbEntity
  8
LAYER_1
 62
     7
100
AcDb2dPolyline
 66
     1
 10
0.0
 20
0.0
 30
0.0
  0
VERTEX
  5
54
100
AcDbEntity
  8
LAYER_1
 62
     7
100
AcDbVertex
100
AcDb2dVertex
 10
291.284546
 20
264.514087
 30
0.0
  0
VERTEX
  5
55
100
AcDbEntity
  8
LAYER_1
 62
     7
100
AcDbVertex
100
AcDb2dVertex
 10
306.884627
 20
264.514087
 30
0.0
  0
VERTEX
  5
56
100
AcDbEntity
  8
LAYER_1
 62
     7
100
AcDbVertex
100
AcDb2dVertex
 10
306.884627
 20
251.514364
 30
0.0
  0
VERTEX
  5
57
100
AcDbEntity
  8
LAYER_1
 62
     7
100
AcDbVertex
100
AcDb2dVertex
 10
291.284546
 20
251.514364
 30
0.0
  0
VERTEX
  5
58
100
AcDbEntity
  8
LAYER_1
 62
     7
100
AcDbVertex
100
AcDb2dVertex
 10
291.284546
 20
264.514087
 30
0.0
  0
SEQEND
  5
59
100
AcDbEntity
  8
LAYER_1
 62
     7
  0
POLYLINE
  5
4C
100
AcDbEntity
  8
LAYER_1
 62
     7
100
AcDb2dPolyline
 66
     1
 10
0.0
 20
0.0
 30
0.0
  0
VERTEX
  5
4D
100
AcDbEntity
  8
LAYER_1
 62
     7
100
AcDbVertex
100
AcDb2dVertex
 10
310.334546
 20
264.514087
 30
0.0
  0
VERTEX
  5
4E
100
AcDbEntity
  8
LAYER_1
 62
     7
100
AcDbVertex
100
AcDb2dVertex
 10
325.934627
 20
264.514087
 30
0.0
  0
VERTEX
  5
4F
100
AcDbEntity
  8
LAYER_1
 62
     7
100
AcDbVertex
100
AcDb2dVertex
 10
325.934627
 20
251.514364
 30
0.0
  0
VERTEX
  5
50
100
AcDbEntity
  8
LAYER_1
 62
     7
100
AcDbVertex
100
AcDb2dVertex
 10
310.334546
 20
251.514364
 30
0.0
  0
VERTEX
  5
51
100
AcDbEntity
  8
LAYER_1
 62
     7
100
AcDbVertex
100
AcDb2dVertex
 10
310.334546
 20
264.514087
 30
0.0
  0
SEQEND
  5
52
100
AcDbEntity
  8
LAYER_1
 62
     7
  0
POLYLINE
  5
45
100
AcDbEntity
  8
LAYER_1
 62
     7
100
AcDb2dPolyline
 66
     1
 10
0.0
 20
0.0
 30
0.0
  0
VERTEX
  5
46
100
AcDbEntity
  8
LAYER_1
 62
     7
100
AcDbVertex
100
AcDb2dVertex
 10
329.384546
 20
264.514087
 30
0.0
  0
VERTEX
  5
47
100
AcDbEntity
  8
LAYER_1
 62
     7
100
AcDbVertex
100
AcDb2dVertex
 10
344.984627
 20
264.514087
 30
0.0
  0
VERTEX
  5
48
100
AcDbEntity
  8
LAYER_1
 62
     7
100
AcDbVertex
100
AcDb2dVertex
 10
344.984627
 20
251.514364
 30
0.0
  0
VERTEX
  5
49
100
AcDbEntity
  8
LAYER_1
 62
     7
100
AcDbVertex
100
AcDb2dVertex
 10
329.384546
 20
251.514364
 30
0.0
  0
VERTEX
  5
4A
100
AcDbEntity
  8
LAYER_1
 62
     7
100
AcDbVertex
100
AcDb2dVertex
 10
329.384546
 20
264.514087
 30
0.0
  0
SEQEND
  5
4B
100
AcDbEntity
  8
LAYER_1
 62
     7
  0
POLYLINE
  5
3E
100
AcDbEntity
  8
LAYER_1
 62
     7
100
AcDb2dPolyline
 66
     1
 10
0.0
 20
0.0
 30
0.0
  0
VERTEX
  5
3F
100
AcDbEntity
  8
LAYER_1
 62
     7
100
AcDbVertex
100
AcDb2dVertex
 10
348.434546
 20
264.514087
 30
0.0
  0
VERTEX
  5
40
100
AcDbEntity
  8
LAYER_1
 62
     7
100
AcDbVertex
100
AcDb2dVertex
 10
364.034627
 20
264.514087
 30
0.0
  0
VERTEX
  5
41
100
AcDbEntity
  8
LAYER_1
 62
     7
100
AcDbVertex
100
AcDb2dVertex
 10
364.034627
 20
251.514364
 30
0.0
  0
VERTEX
  5
42
100
AcDbEntity
  8
LAYER_1
 62
     7
100
AcDbVertex
100
AcDb2dVertex
 10
348.434546
 20
251.514364
 30
0.0
  0
VERTEX
  5
43
100
AcDbEntity
  8
LAYER_1
 62
     7
100
AcDbVertex
100
AcDb2dVertex
 10
348.434546
 20
264.514087
 30
0.0
  0
SEQEND
  5
44
100
AcDbEntity
  8
LAYER_1
 62
     7
  0
POLYLINE
  5
37
100
AcDbEntity
  8
LAYER_1
 62
     7
100
AcDb2dPolyline
 66
     1
 10
0.0
 20
0.0
 30
0.0
  0
VERTEX
  5
38
100
AcDbEntity
  8
LAYER_1
 62
     7
100
AcDbVertex
100
AcDb2dVertex
 10
367.484546
 20
264.514087
 30
0.0
  0
VERTEX
  5
39
100
AcDbEntity
  8
LAYER_1
 62
     7
100
AcDbVertex
100
AcDb2dVertex
 10
383.084627
 20
264.514087
 30
0.0
  0
VERTEX
  5
3A
100
AcDbEntity
  8
LAYER_1
 62
     7
100
AcDbVertex
100
AcDb2dVertex
 10
383.084627
 20
251.514364
 30
0.0
  0
VERTEX
  5
3B
100
AcDbEntity
  8
LAYER_1
 62
     7
100
AcDbVertex
100
AcDb2dVertex
 10
367.484546
 20
251.514364
 30
0.0
  0
VERTEX
  5
3C
100
AcDbEntity
  8
LAYER_1
 62
     7
100
AcDbVertex
100
AcDb2dVertex
 10
367.484546
 20
264.514087
 30
0.0
  0
SEQEND
  5
3D
100
AcDbEntity
  8
LAYER_1
 62
     7
  0
POLYLINE
  5
30
100
AcDbEntity
  8
LAYER_1
 62
     7
100
AcDb2dPolyline
 66
     1
 10
0.0
 20
0.0
 30
0.0
  0
VERTEX
  5
31
100
AcDbEntity
  8
LAYER_1
 62
     7
100
AcDbVertex
100
AcDb2dVertex
 10
386.534546
 20
264.514087
 30
0.0
  0
VERTEX
  5
32
100
AcDbEntity
  8
LAYER_1
 62
     7
100
AcDbVertex
100
AcDb2dVertex
 10
402.134627
 20
264.514087
 30
0.0
  0
VERTEX
  5
33
100
AcDbEntity
  8
LAYER_1
 62
     7
100
AcDbVertex
100
AcDb2dVertex
 10
402.134627
 20
251.514364
 30
0.0
  0
VERTEX
  5
34
100
AcDbEntity
  8
LAYER_1
 62
     7
100
AcDbVertex
100
AcDb2dVertex
 10
386.534546
 20
251.514364
 30
0.0
  0
VERTEX
  5
35
100
AcDbEntity
  8
LAYER_1
 62
     7
100
AcDbVertex
100
AcDb2dVertex
 10
386.534546
 20
264.514087
 30
0.0
  0
SEQEND
  5
36
100
AcDbEntity
  8
LAYER_1
 62
     7
  0
POLYLINE
  5
29
100
AcDbEntity
  8
LAYER_1
 62
     7
100
AcDb2dPolyline
 66
     1
 10
0.0
 20
0.0
 30
0.0
  0
VERTEX
  5
2A
100
AcDbEntity
  8
LAYER_1
 62
     7
100
AcDbVertex
100
AcDb2dVertex
 10
405.584546
 20
264.514087
 30
0.0
  0
VERTEX
  5
2B
100
AcDbEntity
  8
LAYER_1
 62
     7
100
AcDbVertex
100
AcDb2dVertex
 10
421.184627
 20
264.514087
 30
0.0
  0
VERTEX
  5
2C
100
AcDbEntity
  8
LAYER_1
 62
     7
100
AcDbVertex
100
AcDb2dVertex
 10
421.184627
 20
251.514364
 30
0.0
  0
VERTEX
  5
2D
100
AcDbEntity
  8
LAYER_1
 62
     7
100
AcDbVertex
100
AcDb2dVertex
 10
405.584546
 20
251.514364
 30
0.0
  0
VERTEX
  5
2E
100
AcDbEntity
  8
LAYER_1
 62
     7
100
AcDbVertex
100
AcDb2dVertex
 10
405.584546
 20
264.514087
 30
0.0
  0
SEQEND
  5
2F
100
AcDbEntity
  8
LAYER_1
 62
     7
  0
ENDSEC
  0
SECTION
  2
OBJECTS
  0
DICTIONARY
  5
19
100
AcDbDictionary
280
     0
281
     1
  3
ACAD_GROUP
350
1A
  3
ACAD_MLINESTYLE
350
1B
  3
ACAD_LAYOUT
350
1E
  3
ACAD_PLOTSETTINGS
350
22
  3
ACAD_PLOTSTYLENAME
350
1F
  3
ACAD_WIPEOUT_VARS
350
23
  0
DICTIONARY
  5
1A
102
{ACAD_REACTORS
330
19
102
}
100
AcDbDictionary
280
     0
281
     1
  0
DICTIONARY
  5
1B
102
{ACAD_REACTORS
330
19
102
}
100
AcDbDictionary
280
     0
281
     1
  3
Standard
350
1C
  0
MLINESTYLE
  5
1C
102
{ACAD_REACTORS
330
1B
102
}
100
AcDbMlineStyle
  2
Standard
 70
     0
  3

 62
     0
 51
90.0
 52
90.0
 71
     2
 49
0.5
 62
   256
  6
ByLayer
 49
-0.5
 62
   256
  6
ByLayer
  0
ACDBDICTIONARYWDFLT
  5
1F
102
{ACAD_REACTORS
330
19
102
}
100
AcDbDictionary
281
     1
  3
Normal
350
1D
100
AcDbDictionaryWithDefault
340
1D
  0
ACDBPLACEHOLDER
  5
1D
102
{ACAD_REACTORS
330
1F
102
}
  0
LAYOUT
  5
20
102
{ACAD_REACTORS
330
1E
102
}
100
AcDbPlotSettings
  1

  2

  4

  6

 40
0.0
 41
0.0
 42
0.0
 43
0.0
 44
0.0
 45
0.0
 46
0.0
 47
0.0
 48
0.0
 49
0.0
140
0.0
141
0.0
142
1.0
143
1.0
 70
  1024
 72
     0
 73
     0
 74
     0
  7

 75
     0
147
1.0
148
0.0
149
0.0
100
AcDbLayout
  1
Model
 70
     0
 71
     0
 10
0.0
 20
0.0
 11
0.0
 21
0.0
 12
0.0
 22
0.0
 32
0.0
 14
0.0
 24
0.0
 34
0.0
 15
0.0
 25
0.0
 35
0.0
146
0.0
 13
0.0
 23
0.0
 33
0.0
 16
0.0
 26
0.0
 36
0.0
 17
0.0
 27
0.0
 37
0.0
 76
     0
330
A
331
0
345
0
346
0
  0
LAYOUT
  5
21
102
{ACAD_REACTORS
330
1E
102
}
100
AcDbPlotSettings
  1

  2

  4

  6

 40
0.0
 41
0.0
 42
0.0
 43
0.0
 44
0.0
 45
0.0
 46
0.0
 47
0.0
 48
0.0
 49
0.0
140
0.0
141
0.0
142
1.0
143
1.0
 70
     0
 72
     0
 73
     0
 74
     0
  7

 75
     0
147
1.0
148
0.0
149
0.0
100
AcDbLayout
  1
Layout1
 70
     0
 71
     0
 10
0.0
 20
0.0
 11
0.0
 21
0.0
 12
0.0
 22
0.0
 32
0.0
 14
0.0
 24
0.0
 34
0.0
 15
0.0
 25
0.0
 35
0.0
146
0.0
 13
0.0
 23
0.0
 33
0.0
 16
0.0
 26
0.0
 36
0.0
 17
0.0
 27
0.0
 37
0.0
 76
     0
330
B
331
0
345
0
346
0
  0
DICTIONARY
  5
1E
102
{ACAD_REACTORS
330
19
102
}
100
AcDbDictionary
280
     0
281
     1
  3
Layout1
350
21
  3
Model
350
20
  0
DICTIONARY
  5
22
102
{ACAD_REACTORS
330
19
102
}
100
AcDbDictionary
280
     0
281
     1
  0
WIPEOUTVARIABLES
  5
23
100
AcDbWipeoutVariables
 70
     1
  0
ENDSEC
  0
EOF
