0
SECTION
2
HEADER
9
$INSUNITS
70
4
9
$ACADVER
1
AC1014
9
$HANDSEED
5
FFFF
0
ENDSEC
0
SECTION
2
TABLES
0
TABLE
2
VPORT
5
8
100
AcDbSymbolTable
0
ENDTAB
0
TABLE
2
LTYPE
5
5
100
AcDbSymbolTable
0
LTYPE
5
14
100
AcDbSymbolTableRecord
100
AcDbLinetypeTableRecord
2
BYBLOCK
70
0
0
LTYPE
5
15
100
AcDbSymbolTableRecord
100
AcDbLinetypeTableRecord
2
BYLAYER
70
0
0
ENDTAB
0
TABLE
2
LAYER
5
2
100
AcDbSymbolTable
70
2
0
LAYER
5
50
100
AcDbSymbolTableRecord
100
AcDbLayerTableRecord
2
0
70
0
6
CONTINUOUS
0
ENDTAB
0
TABLE
2
STYLE
5
3
100
AcDbSymbolTable
70
1
0
STYLE
5
11
100
AcDbSymbolTableRecord
100
AcDbTextStyleTableRecord
2
STANDARD
70
0
0
ENDTAB
0
TABLE
2
VIEW
5
6
100
AcDbSymbolTable
70
0
0
ENDTAB
0
TABLE
2
UCS
5
7
100
AcDbSymbolTable
70
0
0
ENDTAB
0
TABLE
2
APPID
5
9
100
AcDbSymbolTable
70
2
0
APPID
5
12
100
AcDbSymbolTableRecord
100
AcDbRegAppTableRecord
2
ACAD
70
0
0
ENDTAB
0
TABLE
2
DIMSTYLE
5
A
100
AcDbSymbolTable
70
1
0
ENDTAB
0
TABLE
2
BLOCK_RECORD
5
1
100
AcDbSymbolTable
70
1
0
BLOCK_RECORD
5
1F
100
AcDbSymbolTableRecord
100
AcDbBlockTableRecord
2
*MODEL_SPACE
0
BLOCK_RECORD
5
1B
100
AcDbSymbolTableRecord
100
AcDbBlockTableRecord
2
*PAPER_SPACE
0
ENDTAB
0
ENDSEC
0
SECTION
2
BLOCKS
0
BLOCK
5
20
100
AcDbEntity
100
AcDbBlockBegin
2
*MODEL_SPACE
0
ENDBLK
5
21
100
AcDbEntity
100
AcDbBlockEnd
0
BLOCK
5
1C
100
AcDbEntity
100
AcDbBlockBegin
2
*PAPER_SPACE
0
ENDBLK
5
1D
100
AcDbEntity
100
AcDbBlockEnd
0
ENDSEC
0
SECTION
2
ENTITIES
0
LWPOLYLINE
5
100
100
AcDbEntity
8
0
100
AcDbPolyline
90
20
70
1
43
0.0
10
82.259062
20
37.516401000000002
10
81.459110999999993
20
37.516401000000002
10
81.459110999999993
20
40.616641999999999
10
82.259062
20
40.616641999999999
10
82.259062
20
46.417494000000005
10
81.459110999999993
20
46.417494000000005
10
81.459110999999993
20
49.516357000000006
10
82.259062
20
49.516357000000006
10
82.259062
20
50.516469000000008
10
96.259068000000013
20
50.516469000000008
10
96.259068000000013
20
49.516357000000006
10
97.059020000000004
20
49.516357000000006
10
97.059020000000004
20
46.417494000000005
10
96.259068000000013
20
46.417494000000005
10
96.259068000000013
20
40.616641999999999
10
97.059020000000004
20
40.616641999999999
10
97.059020000000004
20
37.516401000000002
10
96.259068000000013
20
37.516401000000002
10
96.259068000000013
20
36.516290000000005
10
82.259062
20
36.516290000000005
0
LWPOLYLINE
5
101
100
AcDbEntity
8
0
100
AcDbPolyline
90
20
70
1
43
0.0
10
105.27178300000003
20
106.666357
10
106.07173400000001
20
106.666357
10
106.07173400000001
20
107.66646899999999
10
120.07191300000001
20
107.66646899999999
10
120.07191300000001
20
106.666357
10
120.871864
20
106.666357
10
120.871864
20
103.566461
10
120.07191300000001
20
103.566461
10
120.07191300000001
20
97.766642000000004
10
120.871864
20
97.766642000000004
10
120.871864
20
94.666401000000008
10
120.07191300000001
20
94.666401000000008
10
120.07191300000001
20
93.666290000000018
10
106.07173400000001
20
93.666290000000018
10
106.07173400000001
20
94.666401000000008
10
105.27178300000003
20
94.666401000000008
10
105.27178300000003
20
97.766642000000004
10
106.07173400000001
20
97.766642000000004
10
106.07173400000001
20
103.566461
10
105.27178300000003
20
103.566461
0
LWPOLYLINE
5
102
100
AcDbEntity
8
0
100
AcDbPolyline
90
20
70
1
43
0.0
10
239.42173400000001
20
106.666357
10
239.42173400000001
20
107.66646899999999
10
253.42191299999999
20
107.66646899999999
10
253.42191299999999
20
106.666357
10
254.22186400000001
20
106.666357
10
254.22186400000001
20
103.566461
10
253.42191299999999
20
103.566461
10
253.42191299999999
20
97.766642000000004
10
254.22186400000001
20
97.766642000000004
10
254.22186400000001
20
94.666401000000008
10
253.42191299999999
20
94.666401000000008
10
253.42191299999999
20
93.666290000000018
10
239.42173400000001
20
93.666290000000018
10
239.42173400000001
20
94.666401000000008
10
238.62178299999999
20
94.666401000000008
10
238.62178299999999
20
97.766642000000004
10
239.42173400000001
20
97.766642000000004
10
239.42173400000001
20
103.566461
10
238.62178299999999
20
103.566461
10
238.62178299999999
20
106.666357
0
LWPOLYLINE
5
103
100
AcDbEntity
8
0
100
AcDbPolyline
90
20
70
1
43
0.0
10
220.371734
20
106.666357
10
220.371734
20
107.66646899999999
10
234.37191299999998
20
107.66646899999999
10
234.37191299999998
20
106.666357
10
235.171864
20
106.666357
10
235.171864
20
103.566461
10
234.37191299999998
20
103.566461
10
234.37191299999998
20
97.766642000000004
10
235.171864
20
97.766642000000004
10
235.171864
20
94.666401000000008
10
234.37191299999998
20
94.666401000000008
10
234.37191299999998
20
93.666290000000018
10
220.371734
20
93.666290000000018
10
220.371734
20
94.666401000000008
10
219.57178300000004
20
94.666401000000008
10
219.57178300000004
20
97.766642000000004
10
220.371734
20
97.766642000000004
10
220.371734
20
103.566461
10
219.57178300000004
20
103.566461
10
219.57178300000004
20
106.666357
0
LWPOLYLINE
5
104
100
AcDbEntity
8
0
100
AcDbPolyline
90
20
70
1
43
0.0
10
120.35923400000001
20
49.516357000000006
10
120.35923400000001
20
50.516469000000008
10
134.35906799999998
20
50.516469000000008
10
134.35906799999998
20
49.516357000000006
10
135.15902
20
49.516357000000006
10
135.15902
20
46.417494000000005
10
134.35906799999998
20
46.417494000000005
10
134.35906799999998
20
40.616641999999999
10
135.15902
20
40.616641999999999
10
135.15902
20
37.516401000000002
10
134.35906799999998
20
37.516401000000002
10
134.35906799999998
20
36.516290000000005
10
120.35923400000001
20
36.516290000000005
10
120.35923400000001
20
37.516401000000002
10
119.55928300000002
20
37.516401000000002
10
119.55928300000002
20
40.616641999999999
10
120.35923400000001
20
40.616641999999999
10
120.35923400000001
20
46.417494000000005
10
119.55928300000002
20
46.417494000000005
10
119.55928300000002
20
49.516357000000006
0
LWPOLYLINE
5
105
100
AcDbEntity
8
0
100
AcDbPolyline
90
20
70
1
43
0.0
10
125.12173400000002
20
106.666357
10
125.12173400000002
20
107.66646899999999
10
139.12191299999998
20
107.66646899999999
10
139.12191299999998
20
106.666357
10
139.92186400000003
20
106.666357
10
139.92186400000003
20
103.566461
10
139.12191299999998
20
103.566461
10
139.12191299999998
20
97.766642000000004
10
139.92186400000003
20
97.766642000000004
10
139.92186400000003
20
94.666401000000008
10
139.12191299999998
20
94.666401000000008
10
139.12191299999998
20
93.666290000000018
10
125.12173400000002
20
93.666290000000018
10
125.12173400000002
20
94.666401000000008
10
124.32178300000002
20
94.666401000000008
10
124.32178300000002
20
97.766642000000004
10
125.12173400000002
20
97.766642000000004
10
125.12173400000002
20
103.566461
10
124.32178300000002
20
103.566461
10
124.32178300000002
20
106.666357
0
LWPOLYLINE
5
106
100
AcDbEntity
8
0
100
AcDbPolyline
90
20
70
1
43
0.0
10
163.22069999999999
20
106.666357
10
163.22069999999999
20
107.66646899999999
10
177.22087900000002
20
107.66646899999999
10
177.22087900000002
20
106.666357
10
178.02083100000002
20
106.666357
10
178.02083100000002
20
103.566461
10
177.22087900000002
20
103.566461
10
177.22087900000002
20
97.766642000000004
10
178.02083100000002
20
97.766642000000004
10
178.02083100000002
20
94.666401000000008
10
177.22087900000002
20
94.666401000000008
10
177.22087900000002
20
93.666290000000018
10
163.22069999999999
20
93.666290000000018
10
163.22069999999999
20
94.666401000000008
10
162.42178300000003
20
94.666401000000008
10
162.42178300000003
20
97.766642000000004
10
163.22069999999999
20
97.766642000000004
10
163.22069999999999
20
103.566461
10
162.42178300000003
20
103.566461
10
162.42178300000003
20
106.666357
0
LWPOLYLINE
5
107
100
AcDbEntity
8
0
100
AcDbPolyline
90
20
70
1
43
0.0
10
201.32173400000002
20
106.666357
10
201.32173400000002
20
107.66646899999999
10
215.321913
20
107.66646899999999
10
215.321913
20
106.666357
10
216.12186400000002
20
106.666357
10
216.12186400000002
20
103.566461
10
215.321913
20
103.566461
10
215.321913
20
97.766642000000004
10
216.12186400000002
20
97.766642000000004
10
216.12186400000002
20
94.666401000000008
10
215.321913
20
94.666401000000008
10
215.321913
20
93.666290000000018
10
201.32173400000002
20
93.666290000000018
10
201.32173400000002
20
94.666401000000008
10
200.52178300000003
20
94.666401000000008
10
200.52178300000003
20
97.766642000000004
10
201.32173400000002
20
97.766642000000004
10
201.32173400000002
20
103.566461
10
200.52178300000003
20
103.566461
10
200.52178300000003
20
106.666357
0
LWPOLYLINE
5
108
100
AcDbEntity
8
0
100
AcDbPolyline
90
20
70
1
43
0.0
10
196.55923400000003
20
49.516357000000006
10
196.55923400000003
20
50.516469000000008
10
210.55906800000002
20
50.516469000000008
10
210.55906800000002
20
49.516357000000006
10
211.35902000000002
20
49.516357000000006
10
211.35902000000002
20
46.417494000000005
10
210.55906800000002
20
46.417494000000005
10
210.55906800000002
20
40.616641999999999
10
211.35902000000002
20
40.616641999999999
10
211.35902000000002
20
37.516401000000002
10
210.55906800000002
20
37.516401000000002
10
210.55906800000002
20
36.516290000000005
10
196.55923400000003
20
36.516290000000005
10
196.55923400000003
20
37.516401000000002
10
195.75893800000003
20
37.516401000000002
10
195.75893800000003
20
40.616641999999999
10
196.55923400000003
20
40.616641999999999
10
196.55923400000003
20
46.417494000000005
10
195.75893800000003
20
46.417494000000005
10
195.75893800000003
20
49.516357000000006
0
LWPOLYLINE
5
109
100
AcDbEntity
8
0
100
AcDbPolyline
90
20
70
1
43
0.0
10
177.50923400000002
20
49.516357000000006
10
177.50923400000002
20
50.516469000000008
10
191.50906799999998
20
50.516469000000008
10
191.50906799999998
20
49.516357000000006
10
192.30902
20
49.516357000000006
10
192.30902
20
46.417494000000005
10
191.50906799999998
20
46.417494000000005
10
191.50906799999998
20
40.616641999999999
10
192.30902
20
40.616641999999999
10
192.30902
20
37.516401000000002
10
191.50906799999998
20
37.516401000000002
10
191.50906799999998
20
36.516290000000005
10
177.50923400000002
20
36.516290000000005
10
177.50923400000002
20
37.516401000000002
10
176.70893799999999
20
37.516401000000002
10
176.70893799999999
20
40.616641999999999
10
177.50923400000002
20
40.616641999999999
10
177.50923400000002
20
46.417494000000005
10
176.70893799999999
20
46.417494000000005
10
176.70893799999999
20
49.516357000000006
0
LWPOLYLINE
5
110
100
AcDbEntity
8
0
100
AcDbPolyline
90
20
70
1
43
0.0
10
87.021733999999995
20
106.666357
10
87.021733999999995
20
107.66646899999999
10
101.02191300000001
20
107.66646899999999
10
101.02191300000001
20
106.666357
10
101.82186400000001
20
106.666357
10
101.82186400000001
20
103.566461
10
101.02191300000001
20
103.566461
10
101.02191300000001
20
97.766642000000004
10
101.82186400000001
20
97.766642000000004
10
101.82186400000001
20
94.666401000000008
10
101.02191300000001
20
94.666401000000008
10
101.02191300000001
20
93.666290000000018
10
87.021733999999995
20
93.666290000000018
10
87.021733999999995
20
94.666401000000008
10
86.221783000000002
20
94.666401000000008
10
86.221783000000002
20
97.766642000000004
10
87.021733999999995
20
97.766642000000004
10
87.021733999999995
20
103.566461
10
86.221783000000002
20
103.566461
10
86.221783000000002
20
106.666357
0
LWPOLYLINE
5
111
100
AcDbEntity
8
0
100
AcDbPolyline
90
20
70
1
43
0.0
10
67.971733999999998
20
106.666357
10
67.971733999999998
20
107.66646899999999
10
81.971913000000001
20
107.66646899999999
10
81.971913000000001
20
106.666357
10
82.771864000000022
20
106.666357
10
82.771864000000022
20
103.566461
10
81.971913000000001
20
103.566461
10
81.971913000000001
20
97.766642000000004
10
82.771864000000022
20
97.766642000000004
10
82.771864000000022
20
94.666401000000008
10
81.971913000000001
20
94.666401000000008
10
81.971913000000001
20
93.666290000000018
10
67.971733999999998
20
93.666290000000018
10
67.971733999999998
20
94.666401000000008
10
67.171782999999991
20
94.666401000000008
10
67.171782999999991
20
97.766642000000004
10
67.971733999999998
20
97.766642000000004
10
67.971733999999998
20
103.566461
10
67.171782999999991
20
103.566461
10
67.171782999999991
20
106.666357
0
LWPOLYLINE
5
112
100
AcDbEntity
8
0
100
AcDbPolyline
90
20
70
1
43
0.0
10
248.94673400000002
20
68.566356999999996
10
248.94673400000002
20
69.566468999999998
10
262.94656800000001
20
69.566468999999998
10
262.94656800000001
20
68.566356999999996
10
263.74652000000003
20
68.566356999999996
10
263.74652000000003
20
65.46646100000001
10
262.94656800000001
20
65.46646100000001
10
262.94656800000001
20
59.666642000000003
10
263.74652000000003
20
59.666642000000003
10
263.74652000000003
20
56.566401000000006
10
262.94656800000001
20
56.566401000000006
10
262.94656800000001
20
55.566290000000009
10
248.94673400000002
20
55.566290000000009
10
248.94673400000002
20
56.566401000000006
10
248.14643799999999
20
56.566401000000006
10
248.14643799999999
20
59.666642000000003
10
248.94673400000002
20
59.666642000000003
10
248.94673400000002
20
65.46646100000001
10
248.14643799999999
20
65.46646100000001
10
248.14643799999999
20
68.566356999999996
0
LWPOLYLINE
5
113
100
AcDbEntity
8
0
100
AcDbPolyline
90
32
70
1
43
0.0
10
260.29085600000002
20
91.050084000000012
10
257.64583299999998
20
91.050084000000012
42
-0.41421356237312101
10
256.64583299999998
20
92.050083999999998
10
256.64583299999998
20
109.19137900000001
42
0.41421356237308982
10
255.64583299999995
20
110.19137900000001
10
66.446822999999995
20
110.19137900000001
42
0.41421356237310025
10
65.446822999999995
20
109.19137899999998
10
65.446822999999995
20
91.726934
42
0.41421356237309764
10
66.446822999999995
20
90.726934
10
68.938031070825275
20
90.726934
42
-0.41421090558033713
10
69.93803107078412
20
89.726943070866412
10
69.938184929215879
20
72.76511992913359
42
0.41421090558034229
10
70.938184929174724
20
71.765129000000002
10
73.701020283025798
20
71.765129000000002
42
-0.41421904440723328
10
74.701020282850649
20
70.765110283200968
10
74.700712717149358
20
54.33250871679904
42
0.41421904440723328
10
75.700712716974209
20
53.332490000000014
10
78.19862883653991
20
53.332490000000014
42
-0.41420833813456431
10
79.198628836380834
20
52.332507836698966
10
79.198938163619175
20
34.990328163301037
42
0.41420833813456431
10
80.198938163460127
20
33.990346000000002
10
269.9771040842362
20
33.990346000000002
42
0.41420826558496326
10
270.97710408407272
20
34.990327915600268
10
270.97741291527325
20
52.067543915600268
42
0.41421885918106421
10
269.97741291543673
20
53.067562000000017
10
267.11192200000005
20
53.067562000000009
42
-0.414213562373069
10
266.11192199999999
20
54.067562000000002
10
266.11192199999999
20
70.941172999999992
42
0.41421356237306639
10
265.11192199999999
20
71.941172999999992
10
262.29085600000008
20
71.941173000000006
42
-0.41421356237308721
10
261.29085600000002
20
72.941172999999992
10
261.29085600000002
20
90.050084000000012
42
0.41421356237310542
0
LWPOLYLINE
5
114
100
AcDbEntity
8
0
100
AcDbPolyline
90
20
70
1
43
0.0
10
115.59673400000001
20
68.566356999999996
10
115.59673400000001
20
69.566468999999998
10
129.59656799999999
20
69.566468999999998
10
129.59656799999999
20
68.566356999999996
10
130.39652000000001
20
68.566356999999996
10
130.39652000000001
20
65.46646100000001
10
129.59656799999999
20
65.46646100000001
10
129.59656799999999
20
59.666642000000003
10
130.39652000000001
20
59.666642000000003
10
130.39652000000001
20
56.566401000000006
10
129.59656799999999
20
56.566401000000006
10
129.59656799999999
20
55.566290000000009
10
115.59673400000001
20
55.566290000000009
10
115.59673400000001
20
56.566401000000006
10
114.79678300000002
20
56.566401000000006
10
114.79678300000002
20
59.666642000000003
10
115.59673400000001
20
59.666642000000003
10
115.59673400000001
20
65.46646100000001
10
114.79678300000002
20
65.46646100000001
10
114.79678300000002
20
68.566356999999996
0
LWPOLYLINE
5
115
100
AcDbEntity
8
0
100
AcDbPolyline
90
20
70
1
43
0.0
10
172.746734
20
68.566356999999996
10
172.746734
20
69.566468999999998
10
186.74656800000002
20
69.566468999999998
10
186.74656800000002
20
68.566356999999996
10
187.54651999999999
20
68.566356999999996
10
187.54651999999999
20
65.46646100000001
10
186.74656800000002
20
65.46646100000001
10
186.74656800000002
20
59.666642000000003
10
187.54651999999999
20
59.666642000000003
10
187.54651999999999
20
56.566401000000006
10
186.74656800000002
20
56.566401000000006
10
186.74656800000002
20
55.566290000000009
10
172.746734
20
55.566290000000009
10
172.746734
20
56.566401000000006
10
171.946438
20
56.566401000000006
10
171.946438
20
59.666642000000003
10
172.746734
20
59.666642000000003
10
172.746734
20
65.46646100000001
10
171.946438
20
65.46646100000001
10
171.946438
20
68.566356999999996
0
LWPOLYLINE
5
116
100
AcDbEntity
8
0
100
AcDbPolyline
90
20
70
1
43
0.0
10
110.83457800000002
20
87.616356999999994
10
110.83457800000002
20
88.616468999999995
10
124.83475700000001
20
88.616468999999995
10
124.83475700000001
20
87.616356999999994
10
125.63470900000002
20
87.616356999999994
10
125.63470900000002
20
84.516460999999993
10
124.83475700000001
20
84.516460999999993
10
124.83475700000001
20
78.716642000000007
10
125.63470900000002
20
78.716642000000007
10
125.63470900000002
20
75.616400999999996
10
124.83475700000001
20
75.616400999999996
10
124.83475700000001
20
74.616290000000006
10
110.83457800000002
20
74.616290000000006
10
110.83457800000002
20
75.616400999999996
10
110.034627
20
75.616400999999996
10
110.034627
20
78.716642000000007
10
110.83457800000002
20
78.716642000000007
10
110.83457800000002
20
84.516460999999993
10
110.034627
20
84.516460999999993
10
110.034627
20
87.616356999999994
0
LWPOLYLINE
5
117
100
AcDbEntity
8
0
100
AcDbPolyline
90
20
70
1
43
0.0
10
253.70923399999998
20
49.516357000000006
10
253.70923399999998
20
50.516469000000008
10
267.709068
20
50.516469000000008
10
267.709068
20
49.516357000000006
10
268.50902000000008
20
49.516357000000006
10
268.50902000000008
20
46.417494000000005
10
267.709068
20
46.417494000000005
10
267.709068
20
40.616641999999999
10
268.50902000000008
20
40.616641999999999
10
268.50902000000008
20
37.516401000000002
10
267.709068
20
37.516401000000002
10
267.709068
20
36.516290000000005
10
253.70923399999998
20
36.516290000000005
10
253.70923399999998
20
37.516401000000002
10
252.90928300000004
20
37.516401000000002
10
252.90928300000004
20
40.616641999999999
10
253.70923399999998
20
40.616641999999999
10
253.70923399999998
20
46.417494000000005
10
252.90928300000004
20
46.417494000000005
10
252.90928300000004
20
49.516357000000006
0
LWPOLYLINE
5
118
100
AcDbEntity
8
0
100
AcDbPolyline
90
20
70
1
43
0.0
10
77.496562000000011
20
68.566356999999996
10
77.496562000000011
20
69.566468999999998
10
91.49639599999999
20
69.566468999999998
10
91.49639599999999
20
68.566356999999996
10
92.296346999999997
20
68.566356999999996
10
92.296346999999997
20
65.46646100000001
10
91.49639599999999
20
65.46646100000001
10
91.49639599999999
20
59.666642000000003
10
92.296346999999997
20
59.666642000000003
10
92.296346999999997
20
56.566401000000006
10
91.49639599999999
20
56.566401000000006
10
91.49639599999999
20
55.566290000000009
10
77.496562000000011
20
55.566290000000009
10
77.496562000000011
20
56.566401000000006
10
76.696611000000004
20
56.566401000000006
10
76.696611000000004
20
59.666642000000003
10
77.496562000000011
20
59.666642000000003
10
77.496562000000011
20
65.46646100000001
10
76.696611000000004
20
65.46646100000001
10
76.696611000000004
20
68.566356999999996
0
LWPOLYLINE
5
119
100
AcDbEntity
8
0
100
AcDbPolyline
90
20
70
1
43
0.0
10
153.69673400000005
20
68.566356999999996
10
153.69673400000005
20
69.566468999999998
10
167.69656800000001
20
69.566468999999998
10
167.69656800000001
20
68.566356999999996
10
168.49652000000003
20
68.566356999999996
10
168.49652000000003
20
65.46646100000001
10
167.69656800000001
20
65.46646100000001
10
167.69656800000001
20
59.666642000000003
10
168.49652000000003
20
59.666642000000003
10
168.49652000000003
20
56.566401000000006
10
167.69656800000001
20
56.566401000000006
10
167.69656800000001
20
55.566290000000009
10
153.69673400000005
20
55.566290000000009
10
153.69673400000005
20
56.566401000000006
10
152.896783
20
56.566401000000006
10
152.896783
20
59.666642000000003
10
153.69673400000005
20
59.666642000000003
10
153.69673400000005
20
65.46646100000001
10
152.896783
20
65.46646100000001
10
152.896783
20
68.566356999999996
0
LWPOLYLINE
5
120
100
AcDbEntity
8
0
100
AcDbPolyline
90
20
70
1
43
0.0
10
187.03423400000003
20
87.616356999999994
10
187.03423400000003
20
88.616468999999995
10
201.034413
20
88.616468999999995
10
201.034413
20
87.616356999999994
10
201.83436400000002
20
87.616356999999994
10
201.83436400000002
20
84.516460999999993
10
201.034413
20
84.516460999999993
10
201.034413
20
78.716642000000007
10
201.83436400000002
20
78.716642000000007
10
201.83436400000002
20
75.616400999999996
10
201.034413
20
75.616400999999996
10
201.034413
20
74.616290000000006
10
187.03423400000003
20
74.616290000000006
10
187.03423400000003
20
75.616400999999996
10
186.23359399999998
20
75.616400999999996
10
186.23359399999998
20
78.716642000000007
10
187.03423400000003
20
78.716642000000007
10
187.03423400000003
20
84.516460999999993
10
186.23359399999998
20
84.516460999999993
10
186.23359399999998
20
87.616356999999994
0
LWPOLYLINE
5
121
100
AcDbEntity
8
0
100
AcDbPolyline
90
20
70
1
43
0.0
10
191.79673400000001
20
68.566356999999996
10
191.79673400000001
20
69.566468999999998
10
205.79656799999998
20
69.566468999999998
10
205.79656799999998
20
68.566356999999996
10
206.59652
20
68.566356999999996
10
206.59652
20
65.46646100000001
10
205.79656799999998
20
65.46646100000001
10
205.79656799999998
20
59.666642000000003
10
206.59652
20
59.666642000000003
10
206.59652
20
56.566401000000006
10
205.79656799999998
20
56.566401000000006
10
205.79656799999998
20
55.566290000000009
10
191.79673400000001
20
55.566290000000009
10
191.79673400000001
20
56.566401000000006
10
190.99643799999998
20
56.566401000000006
10
190.99643799999998
20
59.666642000000003
10
191.79673400000001
20
59.666642000000003
10
191.79673400000001
20
65.46646100000001
10
190.99643799999998
20
65.46646100000001
10
190.99643799999998
20
68.566356999999996
0
LWPOLYLINE
5
122
100
AcDbEntity
8
0
100
AcDbPolyline
90
20
70
1
43
0.0
10
72.734406000000007
20
87.616356999999994
10
72.734406000000007
20
88.616468999999995
10
86.73458500000001
20
88.616468999999995
10
86.73458500000001
20
87.616356999999994
10
87.534536000000003
20
87.616356999999994
10
87.534536000000003
20
84.516460999999993
10
86.73458500000001
20
84.516460999999993
10
86.73458500000001
20
78.716642000000007
10
87.534536000000003
20
78.716642000000007
10
87.534536000000003
20
75.616400999999996
10
86.73458500000001
20
75.616400999999996
10
86.73458500000001
20
74.616290000000006
10
72.734406000000007
20
74.616290000000006
10
72.734406000000007
20
75.616400999999996
10
71.934455
20
75.616400999999996
10
71.934455
20
78.716642000000007
10
72.734406000000007
20
78.716642000000007
10
72.734406000000007
20
84.516460999999993
10
71.934455
20
84.516460999999993
10
71.934455
20
87.616356999999994
0
LWPOLYLINE
5
123
100
AcDbEntity
8
0
100
AcDbPolyline
90
20
70
1
43
0.0
10
96.546561999999994
20
68.566356999999996
10
96.546561999999994
20
69.566468999999998
10
110.54656800000001
20
69.566468999999998
10
110.54656800000001
20
68.566356999999996
10
111.34652000000001
20
68.566356999999996
10
111.34652000000001
20
65.46646100000001
10
110.54656800000001
20
65.46646100000001
10
110.54656800000001
20
59.666642000000003
10
111.34652000000001
20
59.666642000000003
10
111.34652000000001
20
56.566401000000006
10
110.54656800000001
20
56.566401000000006
10
110.54656800000001
20
55.566290000000009
10
96.546561999999994
20
55.566290000000009
10
96.546561999999994
20
56.566401000000006
10
95.746611000000001
20
56.566401000000006
10
95.746611000000001
20
59.666642000000003
10
96.546561999999994
20
59.666642000000003
10
96.546561999999994
20
65.46646100000001
10
95.746611000000001
20
65.46646100000001
10
95.746611000000001
20
68.566356999999996
0
LWPOLYLINE
5
124
100
AcDbEntity
8
0
100
AcDbPolyline
90
20
70
1
43
0.0
10
101.309234
20
49.516357000000006
10
101.309234
20
50.516469000000008
10
115.309068
20
50.516469000000008
10
115.309068
20
49.516357000000006
10
116.10902000000002
20
49.516357000000006
10
116.10902000000002
20
46.417494000000005
10
115.309068
20
46.417494000000005
10
115.309068
20
40.616641999999999
10
116.10902000000002
20
40.616641999999999
10
116.10902000000002
20
37.516401000000002
10
115.309068
20
37.516401000000002
10
115.309068
20
36.516290000000005
10
101.309234
20
36.516290000000005
10
101.309234
20
37.516401000000002
10
100.50928300000001
20
37.516401000000002
10
100.50928300000001
20
40.616641999999999
10
101.309234
20
40.616641999999999
10
101.309234
20
46.417494000000005
10
100.50928300000001
20
46.417494000000005
10
100.50928300000001
20
49.516357000000006
0
LWPOLYLINE
5
125
100
AcDbEntity
8
0
100
AcDbPolyline
90
20
70
1
43
0.0
10
244.18423399999998
20
87.616356999999994
10
244.18423399999998
20
88.616468999999995
10
258.18441300000006
20
88.616468999999995
10
258.18441300000006
20
87.616356999999994
10
258.98436400000003
20
87.616356999999994
10
258.98436400000003
20
84.516460999999993
10
258.18441300000006
20
84.516460999999993
10
258.18441300000006
20
78.716642000000007
10
258.98436400000003
20
78.716642000000007
10
258.98436400000003
20
75.616400999999996
10
258.18441300000006
20
75.616400999999996
10
258.18441300000006
20
74.616290000000006
10
244.18423399999998
20
74.616290000000006
10
244.18423399999998
20
75.616400999999996
10
243.38428300000004
20
75.616400999999996
10
243.38428300000004
20
78.716642000000007
10
244.18423399999998
20
78.716642000000007
10
244.18423399999998
20
84.516460999999993
10
243.38428300000004
20
84.516460999999993
10
243.38428300000004
20
87.616356999999994
0
LWPOLYLINE
5
126
100
AcDbEntity
8
0
100
AcDbPolyline
90
20
70
1
43
0.0
10
210.846734
20
68.566356999999996
10
210.846734
20
69.566468999999998
10
224.84656800000005
20
69.566468999999998
10
224.84656800000005
20
68.566356999999996
10
225.64652000000001
20
68.566356999999996
10
225.64652000000001
20
65.46646100000001
10
224.84656800000005
20
65.46646100000001
10
224.84656800000005
20
59.666642000000003
10
225.64652000000001
20
59.666642000000003
10
225.64652000000001
20
56.566401000000006
10
224.84656800000005
20
56.566401000000006
10
224.84656800000005
20
55.566290000000009
10
210.846734
20
55.566290000000009
10
210.846734
20
56.566401000000006
10
210.046783
20
56.566401000000006
10
210.046783
20
59.666642000000003
10
210.846734
20
59.666642000000003
10
210.846734
20
65.46646100000001
10
210.046783
20
65.46646100000001
10
210.046783
20
68.566356999999996
0
LWPOLYLINE
5
127
100
AcDbEntity
8
0
100
AcDbPolyline
90
20
70
1
43
0.0
10
158.45923400000001
20
49.516357000000006
10
158.45923400000001
20
50.516469000000008
10
172.459068
20
50.516469000000008
10
172.459068
20
49.516357000000006
10
173.25901999999999
20
49.516357000000006
10
173.25901999999999
20
46.417494000000005
10
172.459068
20
46.417494000000005
10
172.459068
20
40.616641999999999
10
173.25901999999999
20
40.616641999999999
10
173.25901999999999
20
37.516401000000002
10
172.459068
20
37.516401000000002
10
172.459068
20
36.516290000000005
10
158.45923400000001
20
36.516290000000005
10
158.45923400000001
20
37.516401000000002
10
157.65928300000002
20
37.516401000000002
10
157.65928300000002
20
40.616641999999999
10
158.45923400000001
20
40.616641999999999
10
158.45923400000001
20
46.417494000000005
10
157.65928300000002
20
46.417494000000005
10
157.65928300000002
20
49.516357000000006
0
LWPOLYLINE
5
128
100
AcDbEntity
8
0
100
AcDbPolyline
90
20
70
1
43
0.0
10
167.984578
20
87.616356999999994
10
167.984578
20
88.616468999999995
10
181.98441299999999
20
88.616468999999995
10
181.98441299999999
20
87.616356999999994
10
182.78436400000001
20
87.616356999999994
10
182.78436400000001
20
84.516460999999993
10
181.98441299999999
20
84.516460999999993
10
181.98441299999999
20
78.716642000000007
10
182.78436400000001
20
78.716642000000007
10
182.78436400000001
20
75.616400999999996
10
181.98441299999999
20
75.616400999999996
10
181.98441299999999
20
74.616290000000006
10
167.984578
20
74.616290000000006
10
167.984578
20
75.616400999999996
10
167.18462700000001
20
75.616400999999996
10
167.18462700000001
20
78.716642000000007
10
167.984578
20
78.716642000000007
10
167.984578
20
84.516460999999993
10
167.18462700000001
20
84.516460999999993
10
167.18462700000001
20
87.616356999999994
0
LWPOLYLINE
5
129
100
AcDbEntity
8
0
100
AcDbPolyline
90
20
70
1
43
0.0
10
148.93457800000002
20
87.616356999999994
10
148.93457800000002
20
88.616468999999995
10
162.93475700000002
20
88.616468999999995
10
162.93475700000002
20
87.616356999999994
10
163.73470900000001
20
87.616356999999994
10
163.73470900000001
20
84.516460999999993
10
162.93475700000002
20
84.516460999999993
10
162.93475700000002
20
78.716642000000007
10
163.73470900000001
20
78.716642000000007
10
163.73470900000001
20
75.616400999999996
10
162.93475700000002
20
75.616400999999996
10
162.93475700000002
20
74.616290000000006
10
148.93457800000002
20
74.616290000000006
10
148.93457800000002
20
75.616400999999996
10
148.13462699999999
20
75.616400999999996
10
148.13462699999999
20
78.716642000000007
10
148.93457800000002
20
78.716642000000007
10
148.93457800000002
20
84.516460999999993
10
148.13462699999999
20
84.516460999999993
10
148.13462699999999
20
87.616356999999994
0
LWPOLYLINE
5
130
100
AcDbEntity
8
0
100
AcDbPolyline
90
20
70
1
43
0.0
10
206.08423400000004
20
87.616356999999994
10
206.08423400000004
20
88.616468999999995
10
220.08441300000001
20
88.616468999999995
10
220.08441300000001
20
87.616356999999994
10
220.88436400000003
20
87.616356999999994
10
220.88436400000003
20
84.516460999999993
10
220.08441300000001
20
84.516460999999993
10
220.08441300000001
20
78.716642000000007
10
220.88436400000003
20
78.716642000000007
10
220.88436400000003
20
75.616400999999996
10
220.08441300000001
20
75.616400999999996
10
220.08441300000001
20
74.616290000000006
10
206.08423400000004
20
74.616290000000006
10
206.08423400000004
20
75.616400999999996
10
205.28428300000002
20
75.616400999999996
10
205.28428300000002
20
78.716642000000007
10
206.08423400000004
20
78.716642000000007
10
206.08423400000004
20
84.516460999999993
10
205.28428300000002
20
84.516460999999993
10
205.28428300000002
20
87.616356999999994
0
LWPOLYLINE
5
131
100
AcDbEntity
8
0
100
AcDbPolyline
90
20
70
1
43
0.0
10
139.409234
20
49.516357000000006
10
139.409234
20
50.516469000000008
10
153.40906799999999
20
50.516469000000008
10
153.40906799999999
20
49.516357000000006
10
154.20902000000001
20
49.516357000000006
10
154.20902000000001
20
46.417494000000005
10
153.40906799999999
20
46.417494000000005
10
153.40906799999999
20
40.616641999999999
10
154.20902000000001
20
40.616641999999999
10
154.20902000000001
20
37.516401000000002
10
153.40906799999999
20
37.516401000000002
10
153.40906799999999
20
36.516290000000005
10
139.409234
20
36.516290000000005
10
139.409234
20
37.516401000000002
10
138.609283
20
37.516401000000002
10
138.609283
20
40.616641999999999
10
139.409234
20
40.616641999999999
10
139.409234
20
46.417494000000005
10
138.609283
20
46.417494000000005
10
138.609283
20
49.516357000000006
0
LWPOLYLINE
5
132
100
AcDbEntity
8
0
100
AcDbPolyline
90
20
70
1
43
0.0
10
134.64673400000004
20
68.566356999999996
10
134.64673400000004
20
69.566468999999998
10
148.646568
20
69.566468999999998
10
148.646568
20
68.566356999999996
10
149.44651999999999
20
68.566356999999996
10
149.44651999999999
20
65.46646100000001
10
148.646568
20
65.46646100000001
10
148.646568
20
59.666642000000003
10
149.44651999999999
20
59.666642000000003
10
149.44651999999999
20
56.566401000000006
10
148.646568
20
56.566401000000006
10
148.646568
20
55.566290000000009
10
134.64673400000004
20
55.566290000000009
10
134.64673400000004
20
56.566401000000006
10
133.84678300000002
20
56.566401000000006
10
133.84678300000002
20
59.666642000000003
10
134.64673400000004
20
59.666642000000003
10
134.64673400000004
20
65.46646100000001
10
133.84678300000002
20
65.46646100000001
10
133.84678300000002
20
68.566356999999996
0
LWPOLYLINE
5
133
100
AcDbEntity
8
0
100
AcDbPolyline
90
20
70
1
43
0.0
10
91.784406000000004
20
87.616356999999994
10
91.784406000000004
20
88.616468999999995
10
105.78475700000001
20
88.616468999999995
10
105.78475700000001
20
87.616356999999994
10
106.584709
20
87.616356999999994
10
106.584709
20
84.516460999999993
10
105.78475700000001
20
84.516460999999993
10
105.78475700000001
20
78.716642000000007
10
106.584709
20
78.716642000000007
10
106.584709
20
75.616400999999996
10
105.78475700000001
20
75.616400999999996
10
105.78475700000001
20
74.616290000000006
10
91.784406000000004
20
74.616290000000006
10
91.784406000000004
20
75.616400999999996
10
90.984455000000025
20
75.616400999999996
10
90.984455000000025
20
78.716642000000007
10
91.784406000000004
20
78.716642000000007
10
91.784406000000004
20
84.516460999999993
10
90.984455000000025
20
84.516460999999993
10
90.984455000000025
20
87.616356999999994
0
LWPOLYLINE
5
134
100
AcDbEntity
8
0
100
AcDbPolyline
90
20
70
1
43
0.0
10
129.884578
20
87.616356999999994
10
129.884578
20
88.616468999999995
10
143.88475700000001
20
88.616468999999995
10
143.88475700000001
20
87.616356999999994
10
144.684709
20
87.616356999999994
10
144.684709
20
84.516460999999993
10
143.88475700000001
20
84.516460999999993
10
143.88475700000001
20
78.716642000000007
10
144.684709
20
78.716642000000007
10
144.684709
20
75.616400999999996
10
143.88475700000001
20
75.616400999999996
10
143.88475700000001
20
74.616290000000006
10
129.884578
20
74.616290000000006
10
129.884578
20
75.616400999999996
10
129.08462700000001
20
75.616400999999996
10
129.08462700000001
20
78.716642000000007
10
129.884578
20
78.716642000000007
10
129.884578
20
84.516460999999993
10
129.08462700000001
20
84.516460999999993
10
129.08462700000001
20
87.616356999999994
0
LWPOLYLINE
5
135
100
AcDbEntity
8
0
100
AcDbPolyline
90
20
70
1
43
0.0
10
144.17173400000001
20
106.666357
10
144.17173400000001
20
107.66646899999999
10
158.17191299999999
20
107.66646899999999
10
158.17191299999999
20
106.666357
10
158.970831
20
106.666357
10
158.970831
20
103.566461
10
158.17191299999999
20
103.566461
10
158.17191299999999
20
97.766642000000004
10
158.970831
20
97.766642000000004
10
158.970831
20
94.666401000000008
10
158.17191299999999
20
94.666401000000008
10
158.17191299999999
20
93.666290000000018
10
144.17173400000001
20
93.666290000000018
10
144.17173400000001
20
94.666401000000008
10
143.37178299999999
20
94.666401000000008
10
143.37178299999999
20
97.766642000000004
10
144.17173400000001
20
97.766642000000004
10
144.17173400000001
20
103.566461
10
143.37178299999999
20
103.566461
10
143.37178299999999
20
106.666357
0
LWPOLYLINE
5
136
100
AcDbEntity
8
0
100
AcDbPolyline
90
20
70
1
43
0.0
10
215.60923400000001
20
49.516357000000006
10
215.60923400000001
20
50.516469000000008
10
229.60906800000004
20
50.516469000000008
10
229.60906800000004
20
49.516357000000006
10
230.40902000000003
20
49.516357000000006
10
230.40902000000003
20
46.417494000000005
10
229.60906800000004
20
46.417494000000005
10
229.60906800000004
20
40.616641999999999
10
230.40902000000003
20
40.616641999999999
10
230.40902000000003
20
37.516401000000002
10
229.60906800000004
20
37.516401000000002
10
229.60906800000004
20
36.516290000000005
10
215.60923400000001
20
36.516290000000005
10
215.60923400000001
20
37.516401000000002
10
214.80893800000001
20
37.516401000000002
10
214.80893800000001
20
40.616641999999999
10
215.60923400000001
20
40.616641999999999
10
215.60923400000001
20
46.417494000000005
10
214.80893800000001
20
46.417494000000005
10
214.80893800000001
20
49.516357000000006
0
LWPOLYLINE
5
137
100
AcDbEntity
8
0
100
AcDbPolyline
90
20
70
1
43
0.0
10
234.65923400000003
20
49.516357000000006
10
234.65923400000003
20
50.516469000000008
10
248.65906800000005
20
50.516469000000008
10
248.65906800000005
20
49.516357000000006
10
249.45902000000004
20
49.516357000000006
10
249.45902000000004
20
46.417494000000005
10
248.65906800000005
20
46.417494000000005
10
248.65906800000005
20
40.616641999999999
10
249.45902000000004
20
40.616641999999999
10
249.45902000000004
20
37.516401000000002
10
248.65906800000005
20
37.516401000000002
10
248.65906800000005
20
36.516290000000005
10
234.65923400000003
20
36.516290000000005
10
234.65923400000003
20
37.516401000000002
10
233.85893800000002
20
37.516401000000002
10
233.85893800000002
20
40.616641999999999
10
234.65923400000003
20
40.616641999999999
10
234.65923400000003
20
46.417494000000005
10
233.85893800000002
20
46.417494000000005
10
233.85893800000002
20
49.516357000000006
0
LWPOLYLINE
5
138
100
AcDbEntity
8
0
100
AcDbPolyline
90
20
70
1
43
0.0
10
229.89673400000001
20
68.566356999999996
10
229.89673400000001
20
69.566468999999998
10
243.89656800000006
20
69.566468999999998
10
243.89656800000006
20
68.566356999999996
10
244.69652000000002
20
68.566356999999996
10
244.69652000000002
20
65.46646100000001
10
243.89656800000006
20
65.46646100000001
10
243.89656800000006
20
59.666642000000003
10
244.69652000000002
20
59.666642000000003
10
244.69652000000002
20
56.566401000000006
10
243.89656800000006
20
56.566401000000006
10
243.89656800000006
20
55.566290000000009
10
229.89673400000001
20
55.566290000000009
10
229.89673400000001
20
56.566401000000006
10
229.09643799999998
20
56.566401000000006
10
229.09643799999998
20
59.666642000000003
10
229.89673400000001
20
59.666642000000003
10
229.89673400000001
20
65.46646100000001
10
229.09643799999998
20
65.46646100000001
10
229.09643799999998
20
68.566356999999996
0
LWPOLYLINE
5
139
100
AcDbEntity
8
0
100
AcDbPolyline
90
20
70
1
43
0.0
10
225.13423399999999
20
87.616356999999994
10
225.13423399999999
20
88.616468999999995
10
239.13441300000002
20
88.616468999999995
10
239.13441300000002
20
87.616356999999994
10
239.93436400000004
20
87.616356999999994
10
239.93436400000004
20
84.516460999999993
10
239.13441300000002
20
84.516460999999993
10
239.13441300000002
20
78.716642000000007
10
239.93436400000004
20
78.716642000000007
10
239.93436400000004
20
75.616400999999996
10
239.13441300000002
20
75.616400999999996
10
239.13441300000002
20
74.616290000000006
10
225.13423399999999
20
74.616290000000006
10
225.13423399999999
20
75.616400999999996
10
224.33428300000003
20
75.616400999999996
10
224.33428300000003
20
78.716642000000007
10
225.13423399999999
20
78.716642000000007
10
225.13423399999999
20
84.516460999999993
10
224.33428300000003
20
84.516460999999993
10
224.33428300000003
20
87.616356999999994
0
LWPOLYLINE
5
140
100
AcDbEntity
8
0
100
AcDbPolyline
90
20
70
1
43
0.0
10
182.27070000000001
20
106.666357
10
182.27070000000001
20
107.66646899999999
10
196.27191299999998
20
107.66646899999999
10
196.27191299999998
20
106.666357
10
197.07186399999998
20
106.666357
10
197.07186399999998
20
103.566461
10
196.27191299999998
20
103.566461
10
196.27191299999998
20
97.766642000000004
10
197.07186399999998
20
97.766642000000004
10
197.07186399999998
20
94.666401000000008
10
196.27191299999998
20
94.666401000000008
10
196.27191299999998
20
93.666290000000018
10
182.27070000000001
20
93.666290000000018
10
182.27070000000001
20
94.666401000000008
10
181.47074900000004
20
94.666401000000008
10
181.47074900000004
20
97.766642000000004
10
182.27070000000001
20
97.766642000000004
10
182.27070000000001
20
103.566461
10
181.47074900000004
20
103.566461
10
181.47074900000004
20
106.666357
0
CIRCLE
5
141
100
AcDbEntity
8
0
100
AcDbCircle
10
89.49972451942088
20
90.398226940200061
30
0
40
1.999999999999996
210
0
220
0
230
1
0
CIRCLE
5
142
100
AcDbEntity
8
0
100
AcDbCircle
10
99.044847434272882
20
52.375095236527123
30
0
40
1.9999999999999925
210
0
220
0
230
1
0
CIRCLE
5
143
100
AcDbEntity
8
0
100
AcDbCircle
10
203.87297978599508
20
90.371531540484767
30
0
40
2.0000000000000173
210
0
220
0
230
1
0
CIRCLE
5
144
100
AcDbEntity
8
0
100
AcDbCircle
10
246.71281605032391
20
52.987022055180717
30
0
40
1.999999999999996
210
0
220
0
230
1
0
ENDSEC
0
SECTION
2
OBJECTS
0
DICTIONARY
5
C
100
AcDbDictionary
3
ACAD_GROUP
350
D
3
ACAD_MLINESTYLE
350
17
0
DICTIONARY
5
D
100
AcDbDictionary
0
DICTIONARY
5
1A
330
C
100
AcDbDictionary
0
DICTIONARY
5
17
100
AcDbDictionary
0
ENDSEC
0
EOF
