999
dxfrw 0.6.3
  0
SECTION
  2
HEADER
  9
$ACADVER
  1
AC1021
  9
$DWGCODEPAGE
  3
ANSI_1252
  9
$INSBASE
 10
0
 20
0
 30
0
  9
$EXTMIN
 10
44.5306338498126
 20
-102.8500965130331
 30
0
  9
$EXTMAX
 10
317.3442069267848
 20
148.3127034869669
 30
0
  9
$LIMMIN
 10
0
 20
0
  9
$LIMMAX
 10
420
 20
297
  9
$ORTHOMODE
 70
    0
  9
$REGENMODE
 70
    1
  9
$FILLMODE
 70
    1
  9
$QTEXTMODE
 70
    0
  9
$MIRRTEXT
 70
    1
  9
$LTSCALE
 40
1
  9
$ATTMODE
 70
    1
  9
$TEXTSIZE
 40
2.5
  9
$TRACEWID
 40
1
  9
$TEXTSTYLE
  7
STANDARD
  9
$CLAYER
  8
0
  9
$CELTYPE
  6
BYLAYER
  9
$CECOLOR
 62
  256
  9
$CELTSCALE
 40
1
  9
$DISPSILH
 70
    0
  9
$DIMSCALE
 40
1
  9
$DIMASZ
 40
2.5
  9
$DIMEXO
 40
0.625
  9
$DIMDLI
 40
3.75
  9
$DIMRND
 40
0
  9
$DIMDLE
 40
0
  9
$DIMEXE
 40
1.25
  9
$DIMTP
 40
0
  9
$DIMTM
 40
0
  9
$DIMTXT
 40
2.5
  9
$DIMCEN
 40
2.5
  9
$DIMTSZ
 40
0
  9
$DIMTOL
 70
    0
  9
$DIMLIM
 70
    0
  9
$DIMTIH
 70
    0
  9
$DIMTOH
 70
    0
  9
$DIMSE1
 70
    0
  9
$DIMSE2
 70
    0
  9
$DIMTAD
 70
    1
  9
$DIMZIN
 70
    8
  9
$DIMBLK
  1

  9
$DIMASO
 70
    1
  9
$DIMSHO
 70
    1
  9
$DIMPOST
  1

  9
$DIMAPOST
  1

  9
$DIMALT
 70
    0
  9
$DIMALTD
 70
    3
  9
$DIMALTF
 40
0.03937007874016
  9
$DIMLFAC
 40
1
  9
$DIMTOFL
 70
    1
  9
$DIMTVP
 40
0
  9
$DIMTIX
 70
    0
  9
$DIMSOXD
 70
    0
  9
$DIMSAH
 70
    0
  9
$DIMBLK1
  1

  9
$DIMBLK2
  1

  9
$DIMSTYLE
  2
ISO-25
  9
$DIMCLRD
 70
    0
  9
$DIMCLRE
 70
    0
  9
$DIMCLRT
 70
    0
  9
$DIMTFAC
 40
1
  9
$DIMGAP
 40
0.625
  9
$DIMJUST
 70
    0
  9
$DIMSD1
 70
    0
  9
$DIMSD2
 70
    0
  9
$DIMTOLJ
 70
    0
  9
$DIMTZIN
 70
    8
  9
$DIMALTZ
 70
    0
  9
$DIMALTTZ
 70
    0
  9
$DIMUPT
 70
    0
  9
$DIMDEC
 70
    2
  9
$DIMTDEC
 70
    2
  9
$DIMALTU
 70
    2
  9
$DIMALTTD
 70
    3
  9
$DIMTXSTY
  7
STANDARD
  9
$DIMAUNIT
 70
    0
  9
$DIMADEC
 70
    0
  9
$DIMALTRND
 40
0
  9
$DIMAZIN
 70
    0
  9
$DIMDSEP
 70
   44
  9
$DIMATFIT
 70
    3
  9
$DIMFRAC
 70
    0
  9
$DIMLDRBLK
  1
STANDARD
  9
$DIMLUNIT
 70
    2
  9
$DIMLWD
 70
   -2
  9
$DIMLWE
 70
   -2
  9
$DIMTMOVE
 70
    0
  9
$DIMFXL
 40
1
  9
$DIMFXLON
 70
    0
  9
$DIMJOGANG
 40
0.7854
  9
$DIMTFILL
 70
    0
  9
$DIMTFILLCLR
 70
    0
  9
$DIMARCSYM
 70
    0
  9
$DIMLTYPE
  6

  9
$DIMLTEX1
  6

  9
$DIMLTEX2
  6

  9
$LUNITS
 70
    2
  9
$LUPREC
 70
    4
  9
$SKETCHINC
 40
1
  9
$FILLETRAD
 40
10
  9
$AUNITS
 70
    0
  9
$AUPREC
 70
    0
  9
$MENU
  1
.
  9
$ELEVATION
 40
0
  9
$PELEVATION
 40
0
  9
$THICKNESS
 40
0
  9
$LIMCHECK
 70
    0
  9
$CHAMFERA
 40
0
  9
$CHAMFERB
 40
0
  9
$CHAMFERC
 40
0
  9
$CHAMFERD
 40
0
  9
$SKPOLY
 70
    0
  9
$USRTIMER
 70
    1
  9
$ANGBASE
 50
0
  9
$ANGDIR
 70
    0
  9
$PDMODE
 70
    0
  9
$PDSIZE
 40
0
  9
$PLINEWID
 40
0
  9
$SPLFRAME
 70
    0
  9
$SPLINETYPE
 70
    6
  9
$SPLINESEGS
 70
    8
  9
$HANDSEED
  5
20000
  9
$SURFTAB1
 70
    6
  9
$SURFTAB2
 70
    6
  9
$SURFTYPE
 70
    6
  9
$SURFU
 70
    6
  9
$SURFV
 70
    6
  9
$UCSBASE
  2

  9
$UCSNAME
  2

  9
$UCSORG
 10
0
 20
0
 30
0
  9
$UCSXDIR
 10
1
 20
0
 30
0
  9
$UCSYDIR
 10
0
 20
1
 30
0
  9
$UCSORTHOREF
  2

  9
$UCSORTHOVIEW
 70
    0
  9
$UCSORGTOP
 10
0
 20
0
 30
0
  9
$UCSORGBOTTOM
 10
0
 20
0
 30
0
  9
$UCSORGLEFT
 10
0
 20
0
 30
0
  9
$UCSORGRIGHT
 10
0
 20
0
 30
0
  9
$UCSORGFRONT
 10
0
 20
0
 30
0
  9
$UCSORGBACK
 10
0
 20
0
 30
0
  9
$PUCSBASE
  2

  9
$PUCSNAME
  2

  9
$PUCSORG
 10
0
 20
0
 30
0
  9
$PUCSXDIR
 10
1
 20
0
 30
0
  9
$PUCSYDIR
 10
0
 20
1
 30
0
  9
$PUCSORTHOREF
  2

  9
$PUCSORTHOVIEW
 70
    0
  9
$PUCSORGTOP
 10
0
 20
0
 30
0
  9
$PUCSORGBOTTOM
 10
0
 20
0
 30
0
  9
$PUCSORGLEFT
 10
0
 20
0
 30
0
  9
$PUCSORGRIGHT
 10
0
 20
0
 30
0
  9
$PUCSORGFRONT
 10
0
 20
0
 30
0
  9
$PUCSORGBACK
 10
0
 20
0
 30
0
  9
$USERI1
 70
    0
  9
$USERI2
 70
    0
  9
$USERI3
 70
    0
  9
$USERI4
 70
    0
  9
$USERI5
 70
    0
  9
$USERR1
 40
0
  9
$USERR2
 40
0
  9
$USERR3
 40
0
  9
$USERR4
 40
0
  9
$USERR5
 40
0
  9
$WORLDVIEW
 70
    1
  9
$SHADEDGE
 70
    3
  9
$SHADEDIF
 70
   70
  9
$TILEMODE
 70
    1
  9
$MAXACTVP
 70
   64
  9
$PINSBASE
 10
0
 20
0
 30
0
  9
$PLIMCHECK
 70
    0
  9
$PEXTMIN
 10
1e+20
 20
1e+20
 30
1e+20
  9
$PEXTMAX
 10
-1e+20
 20
-1e+20
 30
-1e+20
  9
$GRIDMODE
 70
    0
  9
$SNAPSTYLE
 70
    0
  9
$PLIMMIN
 10
0
 20
0
  9
$PLIMMAX
 10
420
 20
297
  9
$UNITMODE
 70
    0
  9
$VISRETAIN
 70
    1
  9
$PLINEGEN
 70
    0
  9
$PSLTSCALE
 70
    1
  9
$TREEDEPTH
 70
 3020
  9
$CMLSTYLE
  2
STANDARD
  9
$CMLJUST
 70
    0
  9
$CMLSCALE
 40
20
  9
$PROXYGRAPHICS
 70
    1
  9
$MEASUREMENT
 70
    1
  9
$CELWEIGHT
370
   -1
  9
$ENDCAPS
280
    0
  9
$JOINSTYLE
280
    0
  9
$LWDISPLAY
290
    0
  9
$INSUNITS
 70
    4
  9
$HYPERLINKBASE
  1

  9
$STYLESHEET
  1

  9
$XEDIT
290
    1
  9
$CEPSNTYPE
380
    0
  9
$PSTYLEMODE
290
    1
  9
$EXTNAMES
290
    1
  9
$PSVPSCALE
 40
1
  9
$OLESTARTUP
290
    0
  9
$SORTENTS
280
  127
  9
$INDEXCTL
280
    0
  9
$HIDETEXT
280
    1
  9
$XCLIPFRAME
290
    0
  9
$HALOGAP
280
    0
  9
$OBSCOLOR
 70
  257
  9
$OBSLTYPE
280
    0
  9
$INTERSECTIONDISPLAY
280
    0
  9
$INTERSECTIONCOLOR
 70
  257
  9
$DIMASSOC
280
    1
  9
$PROJECTNAME
  1

  9
$CAMERADISPLAY
290
    0
  9
$LENSLENGTH
 40
50
  9
$CAMERAHEIGHT
 40
0
  9
$STEPSPERSEC
 40
2
  9
$STEPSIZE
 40
50
  9
$3DDWFPREC
 40
2
  9
$PSOLWIDTH
 40
5
  9
$PSOLHEIGHT
 40
80
  9
$LOFTANG1
 40
1.570796326794897
  9
$LOFTANG2
 40
1.570796326794897
  9
$LOFTMAG1
 40
0
  9
$LOFTMAG2
 40
0
  9
$LOFTPARAM
 70
    7
  9
$LOFTNORMALS
280
    1
  9
$LATITUDE
 40
1
  9
$LONGITUDE
 40
1
  9
$NORTHDIRECTION
 40
0
  9
$TIMEZONE
 70
-8000
  9
$LIGHTGLYPHDISPLAY
280
    1
  9
$TILEMODELIGHTSYNCH
280
    1
  9
$SOLIDHIST
280
    1
  9
$SHOWHIST
280
    1
  9
$DWFFRAME
280
    2
  9
$DGNFRAME
280
    0
  9
$REALWORLDSCALE
290
    1
  9
$INTERFERECOLOR
 62
    1
  9
$CSHADOW
280
    0
  9
$SHADOWPLANELOCATION
 40
0
  0
ENDSEC
  0
SECTION
  2
CLASSES
  0
ENDSEC
  0
SECTION
  2
TABLES
  0
TABLE
  2
VPORT
  5
8
330
0
100
AcDbSymbolTable
 70
    1
  0
VPORT
  5
31
330
2
100
AcDbSymbolTableRecord
100
AcDbViewportTableRecord
  2
*ACTIVE
 70
    0
 10
0
 20
0
 11
1
 21
1
 12
117.9139202447662
 22
-31.65180051199478
 13
0
 23
0
 14
10
 24
10
 15
10
 25
10
 16
0
 26
0
 36
1
 17
0
 27
0
 37
0
 40
33.48332279100996
 41
2.135593220338983
 42
50
 43
0
 44
0
 50
0
 51
0
 71
    0
 72
  100
 73
    1
 74
    3
 75
    0
 76
    0
 77
    0
 78
    0
281
    0
 65
    1
110
0
120
0
130
0
111
1
121
0
131
0
112
0
122
1
132
0
 79
    0
146
0
348
10020
 60
    7
 61
    5
292
1
282
    1
141
0
142
0
 63
  250
421
3358443
  0
ENDTAB
  0
TABLE
  2
LTYPE
  5
5
330
0
100
AcDbSymbolTable
 70
    4
  0
LTYPE
  5
14
330
5
100
AcDbSymbolTableRecord
100
AcDbLinetypeTableRecord
  2
ByBlock
 70
    0
  3

 72
   65
 73
    0
 40
0
  0
LTYPE
  5
15
330
5
100
AcDbSymbolTableRecord
100
AcDbLinetypeTableRecord
  2
ByLayer
 70
    0
  3

 72
   65
 73
    0
 40
0
  0
LTYPE
  5
16
330
5
100
AcDbSymbolTableRecord
100
AcDbLinetypeTableRecord
  2
Continuous
 70
    0
  3
Solid line
 72
   65
 73
    0
 40
0
  0
LTYPE
  5
32
330
5
100
AcDbSymbolTableRecord
100
AcDbLinetypeTableRecord
  2
DOT
 70
    0
  3
Dot . . . . . . . . . . . . . . . . . . . . . .
 72
   65
 73
    2
 40
6.35
 49
0
 74
    0
 49
-6.35
 74
    0
  0
LTYPE
  5
33
330
5
100
AcDbSymbolTableRecord
100
AcDbLinetypeTableRecord
  2
DOTTINY
 70
    0
  3
Dot (.15x) .....................................
 72
   65
 73
    2
 40
0.9525
 49
0
 74
    0
 49
-0.9525
 74
    0
  0
LTYPE
  5
34
330
5
100
AcDbSymbolTableRecord
100
AcDbLinetypeTableRecord
  2
DOT2
 70
    0
  3
Dot (.5x) .....................................
 72
   65
 73
    2
 40
3.175
 49
0
 74
    0
 49
-3.175
 74
    0
  0
LTYPE
  5
35
330
5
100
AcDbSymbolTableRecord
100
AcDbLinetypeTableRecord
  2
DOTX2
 70
    0
  3
Dot (2x) .  .  .  .  .  .  .  .  .  .  .  .  .
 72
   65
 73
    2
 40
12.7
 49
0
 74
    0
 49
-12.7
 74
    0
  0
LTYPE
  5
36
330
5
100
AcDbSymbolTableRecord
100
AcDbLinetypeTableRecord
  2
DASHED
 70
    0
  3
Dashed _ _ _ _ _ _ _ _ _ _ _ _ _ _ _ _ _
 72
   65
 73
    2
 40
19.05
 49
12.7
 74
    0
 49
-6.35
 74
    0
  0
LTYPE
  5
37
330
5
100
AcDbSymbolTableRecord
100
AcDbLinetypeTableRecord
  2
DASHEDTINY
 70
    0
  3
Dashed (.15x) _ _ _ _ _ _ _ _ _ _ _ _ _ _ _ _ _
 72
   65
 73
    2
 40
2.8575
 49
1.905
 74
    0
 49
-0.9525
 74
    0
  0
LTYPE
  5
38
330
5
100
AcDbSymbolTableRecord
100
AcDbLinetypeTableRecord
  2
DASHED2
 70
    0
  3
Dashed (.5x) _ _ _ _ _ _ _ _ _ _ _ _ _ _ _ _ _
 72
   65
 73
    2
 40
9.524999999999999
 49
6.35
 74
    0
 49
-3.175
 74
    0
  0
LTYPE
  5
39
330
5
100
AcDbSymbolTableRecord
100
AcDbLinetypeTableRecord
  2
DASHEDX2
 70
    0
  3
Dashed (2x) ____  ____  ____  ____  ____  ___
 72
   65
 73
    2
 40
38.09999999999999
 49
25.4
 74
    0
 49
-12.7
 74
    0
  0
LTYPE
  5
3A
330
5
100
AcDbSymbolTableRecord
100
AcDbLinetypeTableRecord
  2
DASHDOT
 70
    0
  3
Dash dot __ . __ . __ . __ . __ . __ . __ . __
 72
   65
 73
    4
 40
25.4
 49
12.7
 74
    0
 49
-6.35
 74
    0
 49
0
 74
    0
 49
-6.35
 74
    0
  0
LTYPE
  5
3B
330
5
100
AcDbSymbolTableRecord
100
AcDbLinetypeTableRecord
  2
DASHDOTTINY
 70
    0
  3
Dash dot (.15x) _._._._._._._._._._._._._._._.
 72
   65
 73
    4
 40
3.81
 49
1.905
 74
    0
 49
-0.9525
 74
    0
 49
0
 74
    0
 49
-0.9525
 74
    0
  0
LTYPE
  5
3C
330
5
100
AcDbSymbolTableRecord
100
AcDbLinetypeTableRecord
  2
DASHDOT2
 70
    0
  3
Dash dot (.5x) _._._._._._._._._._._._._._._.
 72
   65
 73
    4
 40
12.7
 49
6.35
 74
    0
 49
-3.175
 74
    0
 49
0
 74
    0
 49
-3.175
 74
    0
  0
LTYPE
  5
3D
330
5
100
AcDbSymbolTableRecord
100
AcDbLinetypeTableRecord
  2
DASHDOTX2
 70
    0
  3
Dash dot (2x) ____  .  ____  .  ____  .  ___
 72
   65
 73
    4
 40
50.8
 49
25.4
 74
    0
 49
-12.7
 74
    0
 49
0
 74
    0
 49
-12.7
 74
    0
  0
LTYPE
  5
3E
330
5
100
AcDbSymbolTableRecord
100
AcDbLinetypeTableRecord
  2
DIVIDE
 70
    0
  3
Divide ____ . . ____ . . ____ . . ____ . . ____
 72
   65
 73
    6
 40
31.75
 49
12.7
 74
    0
 49
-6.35
 74
    0
 49
0
 74
    0
 49
-6.35
 74
    0
 49
0
 74
    0
 49
-6.35
 74
    0
  0
LTYPE
  5
3F
330
5
100
AcDbSymbolTableRecord
100
AcDbLinetypeTableRecord
  2
DIVIDETINY
 70
    0
  3
Divide (.15x) __..__..__..__..__..__..__..__.._
 72
   65
 73
    6
 40
4.7625
 49
1.905
 74
    0
 49
-0.9525
 74
    0
 49
0
 74
    0
 49
-0.9525
 74
    0
 49
0
 74
    0
 49
-0.9525
 74
    0
  0
LTYPE
  5
40
330
5
100
AcDbSymbolTableRecord
100
AcDbLinetypeTableRecord
  2
DIVIDE2
 70
    0
  3
Divide (.5x) __..__..__..__..__..__..__..__.._
 72
   65
 73
    6
 40
15.875
 49
6.35
 74
    0
 49
-3.175
 74
    0
 49
0
 74
    0
 49
-3.175
 74
    0
 49
0
 74
    0
 49
-3.175
 74
    0
  0
LTYPE
  5
41
330
5
100
AcDbSymbolTableRecord
100
AcDbLinetypeTableRecord
  2
DIVIDEX2
 70
    0
  3
Divide (2x) ________  .  .  ________  .  .  _
 72
   65
 73
    6
 40
63.5
 49
25.4
 74
    0
 49
-12.7
 74
    0
 49
0
 74
    0
 49
-12.7
 74
    0
 49
0
 74
    0
 49
-12.7
 74
    0
  0
LTYPE
  5
42
330
5
100
AcDbSymbolTableRecord
100
AcDbLinetypeTableRecord
  2
BORDER
 70
    0
  3
Border __ __ . __ __ . __ __ . __ __ . __ __ .
 72
   65
 73
    6
 40
44.45
 49
12.7
 74
    0
 49
-6.35
 74
    0
 49
12.7
 74
    0
 49
-6.35
 74
    0
 49
0
 74
    0
 49
-6.35
 74
    0
  0
LTYPE
  5
43
330
5
100
AcDbSymbolTableRecord
100
AcDbLinetypeTableRecord
  2
BORDERTINY
 70
    0
  3
Border (.15x) __.__.__.__.__.__.__.__.__.__.__.
 72
   65
 73
    6
 40
6.6675
 49
1.905
 74
    0
 49
-0.9525
 74
    0
 49
1.905
 74
    0
 49
-0.9525
 74
    0
 49
0
 74
    0
 49
-0.9525
 74
    0
  0
LTYPE
  5
44
330
5
100
AcDbSymbolTableRecord
100
AcDbLinetypeTableRecord
  2
BORDER2
 70
    0
  3
Border (.5x) __.__.__.__.__.__.__.__.__.__.__.
 72
   65
 73
    6
 40
22.225
 49
6.35
 74
    0
 49
-3.175
 74
    0
 49
6.35
 74
    0
 49
-3.175
 74
    0
 49
0
 74
    0
 49
-3.175
 74
    0
  0
LTYPE
  5
45
330
5
100
AcDbSymbolTableRecord
100
AcDbLinetypeTableRecord
  2
BORDERX2
 70
    0
  3
Border (2x) ____  ____  .  ____  ____  .  ___
 72
   65
 73
    6
 40
88.89999999999999
 49
25.4
 74
    0
 49
-12.7
 74
    0
 49
25.4
 74
    0
 49
-12.7
 74
    0
 49
0
 74
    0
 49
-12.7
 74
    0
  0
LTYPE
  5
46
330
5
100
AcDbSymbolTableRecord
100
AcDbLinetypeTableRecord
  2
CENTER
 70
    0
  3
Center ____ _ ____ _ ____ _ ____ _ ____ _ ____
 72
   65
 73
    4
 40
50.8
 49
31.75
 74
    0
 49
-6.35
 74
    0
 49
6.35
 74
    0
 49
-6.35
 74
    0
  0
LTYPE
  5
47
330
5
100
AcDbSymbolTableRecord
100
AcDbLinetypeTableRecord
  2
CENTERTINY
 70
    0
  3
Center (.15x) ___ _ ___ _ ___ _ ___ _ ___ _ ___
 72
   65
 73
    4
 40
7.62
 49
4.7625
 74
    0
 49
-0.9525
 74
    0
 49
0.9525
 74
    0
 49
-0.9525
 74
    0
  0
LTYPE
  5
48
330
5
100
AcDbSymbolTableRecord
100
AcDbLinetypeTableRecord
  2
CENTER2
 70
    0
  3
Center (.5x) ___ _ ___ _ ___ _ ___ _ ___ _ ___
 72
   65
 73
    4
 40
28.575
 49
19.05
 74
    0
 49
-3.175
 74
    0
 49
3.175
 74
    0
 49
-3.175
 74
    0
  0
LTYPE
  5
49
330
5
100
AcDbSymbolTableRecord
100
AcDbLinetypeTableRecord
  2
CENTERX2
 70
    0
  3
Center (2x) ________  __  ________  __  _____
 72
   65
 73
    4
 40
101.6
 49
63.5
 74
    0
 49
-12.7
 74
    0
 49
12.7
 74
    0
 49
-12.7
 74
    0
  0
ENDTAB
  0
TABLE
  2
LAYER
  5
2
330
0
100
AcDbSymbolTable
 70
    1
  0
LAYER
  5
10
330
2
100
AcDbSymbolTableRecord
100
AcDbLayerTableRecord
  2
0
 70
    0
 62
    7
  6
CONTINUOUS
370
   -3
390
F
  0
LAYER
  5
4A
330
2
100
AcDbSymbolTableRecord
100
AcDbLayerTableRecord
  2
ANNOTATION_LINES
 70
    0
 62
  256
  6
CONTINUOUS
370
   -3
390
F
  0
LAYER
  5
4B
330
2
100
AcDbSymbolTableRecord
100
AcDbLayerTableRecord
  2
ANNOTATION_TEXT
 70
    0
 62
  256
  6
CONTINUOUS
370
   -3
390
F
  0
LAYER
  5
4C
330
2
100
AcDbSymbolTableRecord
100
AcDbLayerTableRecord
  2
BLIND_THREAD_SYMBOLS
 70
    0
 62
    7
  6
CONTINUOUS
370
   -3
390
F
  0
LAYER
  5
4D
330
2
100
AcDbSymbolTableRecord
100
AcDbLayerTableRecord
  2
BLIND_THREAD_SYMBOLS_HIDDE
 70
    0
 62
  256
  6
DASHED
370
   -3
390
F
  0
LAYER
  5
4E
330
2
100
AcDbSymbolTableRecord
100
AcDbLayerTableRecord
  2
BREAK_LINES
 70
    0
 62
  256
  6
CONTINUOUS
370
   -3
390
F
  0
LAYER
  5
4F
330
2
100
AcDbSymbolTableRecord
100
AcDbLayerTableRecord
  2
CENTERLINES
 70
    0
 62
  256
  6
CENTER
370
   -3
390
F
  0
LAYER
  5
50
330
2
100
AcDbSymbolTableRecord
100
AcDbLayerTableRecord
  2
CENTERMARKS
 70
    0
 62
  256
  6
CONTINUOUS
370
   -3
390
F
  0
LAYER
  5
51
330
2
100
AcDbSymbolTableRecord
100
AcDbLayerTableRecord
  2
DETAIL_VIEW_BORDER
 70
    0
 62
    7
  6
CONTINUOUS
370
   -3
390
F
  0
LAYER
  5
52
330
2
100
AcDbSymbolTableRecord
100
AcDbLayerTableRecord
  2
DETAIL_VIEW_PARENT_BORDER
 70
    0
 62
    7
  6
CONTINUOUS
370
   -3
390
F
  0
LAYER
  5
53
330
2
100
AcDbSymbolTableRecord
100
AcDbLayerTableRecord
  2
EXPLODE_LINES
 70
    0
 62
    7
  6
CONTINUOUS
370
   -3
390
F
  0
LAYER
  5
54
330
2
100
AcDbSymbolTableRecord
100
AcDbLayerTableRecord
  2
HIDDEN
 70
    0
 62
  256
  6
DASHED
370
   -3
390
F
  0
LAYER
  5
55
330
2
100
AcDbSymbolTableRecord
100
AcDbLayerTableRecord
  2
HIDDEN_BASE_VIEW
 70
    0
 62
    7
  6
CONTINUOUS
370
   -3
390
F
  0
LAYER
  5
56
330
2
100
AcDbSymbolTableRecord
100
AcDbLayerTableRecord
  2
HIDDEN_EXPLODE_LINES
 70
    0
 62
  256
  6
CONTINUOUS
370
   -3
390
F
  0
LAYER
  5
57
330
2
100
AcDbSymbolTableRecord
100
AcDbLayerTableRecord
  2
IMAGES
 70
    0
 62
  256
  6
CONTINUOUS
370
   -3
390
F
  0
LAYER
  5
58
330
2
100
AcDbSymbolTableRecord
100
AcDbLayerTableRecord
  2
INVISIBLE_LINES
 70
    0
 62
  256
  6
CONTINUOUS
370
   -3
390
F
  0
LAYER
  5
59
330
2
100
AcDbSymbolTableRecord
100
AcDbLayerTableRecord
  2
MODELSKETCH_CONSTRUCTION
 70
    0
 62
  256
  6
CENTER
370
   -3
390
F
  0
LAYER
  5
5A
330
2
100
AcDbSymbolTableRecord
100
AcDbLayerTableRecord
  2
MODELSKETCH_POINT
 70
    0
 62
    7
  6
CONTINUOUS
370
   -3
390
F
  0
LAYER
  5
5B
330
2
100
AcDbSymbolTableRecord
100
AcDbLayerTableRecord
  2
MODELSKETCH_VISIBLE
 70
    0
 62
    7
  6
CONTINUOUS
370
   -3
390
F
  0
LAYER
  5
5C
330
2
100
AcDbSymbolTableRecord
100
AcDbLayerTableRecord
  2
PATTERN_CENTERLINES
 70
    1
 62
  256
  6
CENTER
370
   -3
390
F
  0
LAYER
  5
5D
330
2
100
AcDbSymbolTableRecord
100
AcDbLayerTableRecord
  2
REGION_ASSOC_POINTS
 70
    0
 62
  256
  6
CONTINUOUS
370
   -3
390
F
  0
LAYER
  5
5E
330
2
100
AcDbSymbolTableRecord
100
AcDbLayerTableRecord
  2
SECTION_CUTTING_LINE
 70
    0
 62
    7
  6
CONTINUOUS
370
   -3
390
F
  0
LAYER
  5
5F
330
2
100
AcDbSymbolTableRecord
100
AcDbLayerTableRecord
  2
SECTION_JOG_LINES
 70
    0
 62
  256
  6
CONTINUOUS
370
   -3
390
F
  0
LAYER
  5
60
330
2
100
AcDbSymbolTableRecord
100
AcDbLayerTableRecord
  2
SHEETMETAL_BEND_LINES_DOWN
 70
    0
 62
    7
  6
CENTER
370
   -3
390
F
  0
LAYER
  5
61
330
2
100
AcDbSymbolTableRecord
100
AcDbLayerTableRecord
  2
SHEETMETAL_BEND_LINES_UP
 70
    0
 62
    7
  6
CENTER
370
   -3
390
F
  0
LAYER
  5
62
330
2
100
AcDbSymbolTableRecord
100
AcDbLayerTableRecord
  2
SHEETMETAL_BEND_TANGENT_LI
 70
    0
 62
    7
  6
CONTINUOUS
370
   -3
390
F
  0
LAYER
  5
63
330
2
100
AcDbSymbolTableRecord
100
AcDbLayerTableRecord
  2
SHEETMETAL_CUT_LINES
 70
    0
 62
    7
  6
CONTINUOUS
370
   -3
390
F
  0
LAYER
  5
64
330
2
100
AcDbSymbolTableRecord
100
AcDbLayerTableRecord
  2
SIDE_THREAD_SYMBOLS
 70
    0
 62
    7
  6
CONTINUOUS
370
   -3
390
F
  0
LAYER
  5
65
330
2
100
AcDbSymbolTableRecord
100
AcDbLayerTableRecord
  2
SIDE_THREAD_SYMBOLS_HIDDEN
 70
    0
 62
  256
  6
DASHED
370
   -3
390
F
  0
LAYER
  5
66
330
2
100
AcDbSymbolTableRecord
100
AcDbLayerTableRecord
  2
SKETCHED_GEOMETRY
 70
    0
 62
  256
  6
CONTINUOUS
370
   -3
390
F
  0
LAYER
  5
67
330
2
100
AcDbSymbolTableRecord
100
AcDbLayerTableRecord
  2
SURFACE_THREAD_SYMBOLS
 70
    0
 62
    7
  6
CONTINUOUS
370
   -3
390
F
  0
LAYER
  5
68
330
2
100
AcDbSymbolTableRecord
100
AcDbLayerTableRecord
  2
SURFACE_THREAD_SYMBOLS_HID
 70
    0
 62
  256
  6
DASHED
370
   -3
390
F
  0
LAYER
  5
69
330
2
100
AcDbSymbolTableRecord
100
AcDbLayerTableRecord
  2
SURFACE_THREAD_SYMBOLS_ON_
 70
    0
 62
    7
  6
CONTINUOUS
370
   -3
390
F
  0
LAYER
  5
6A
330
2
100
AcDbSymbolTableRecord
100
AcDbLayerTableRecord
  2
TABLES
 70
    0
 62
    7
  6
CONTINUOUS
370
   -3
390
F
  0
LAYER
  5
6B
330
2
100
AcDbSymbolTableRecord
100
AcDbLayerTableRecord
  2
TANGENT_HIDDEN
 70
    0
 62
  256
  6
DASHED
370
   -3
390
F
  0
LAYER
  5
6C
330
2
100
AcDbSymbolTableRecord
100
AcDbLayerTableRecord
  2
TANGENT_LINES
 70
    0
 62
  256
  6
CONTINUOUS
370
   -3
390
F
  0
LAYER
  5
6D
330
2
100
AcDbSymbolTableRecord
100
AcDbLayerTableRecord
  2
TEXT
 70
    0
 62
    7
  6
CONTINUOUS
370
   -3
390
F
  0
LAYER
  5
6E
330
2
100
AcDbSymbolTableRecord
100
AcDbLayerTableRecord
  2
VIEW_HATCHES
 70
    0
 62
  256
  6
CONTINUOUS
370
   -3
390
F
  0
LAYER
  5
6F
330
2
100
AcDbSymbolTableRecord
100
AcDbLayerTableRecord
  2
VIRTUAL_SHARPS
 70
    0
 62
  256
  6
CONTINUOUS
370
   -3
390
F
  0
LAYER
  5
70
330
2
100
AcDbSymbolTableRecord
100
AcDbLayerTableRecord
  2
VISIBLE
 70
    0
 62
    7
  6
CONTINUOUS
370
   -3
390
F
  0
ENDTAB
  0
TABLE
  2
STYLE
  5
3
330
0
100
AcDbSymbolTable
 70
    3
  0
STYLE
  5
71
330
2
100
AcDbSymbolTableRecord
100
AcDbTextStyleTableRecord
  2
Standard
 70
    0
 40
0
 41
1
 50
0
 71
    0
 42
1
  3
txt
  4

  0
ENDTAB
  0
TABLE
  2
VIEW
  5
6
330
0
100
AcDbSymbolTable
 70
    0
  0
ENDTAB
  0
TABLE
  2
UCS
  5
7
330
0
100
AcDbSymbolTable
 70
    0
  0
ENDTAB
  0
TABLE
  2
APPID
  5
9
330
0
100
AcDbSymbolTable
 70
    1
  0
APPID
  5
12
330
9
100
AcDbSymbolTableRecord
100
AcDbRegAppTableRecord
  2
ACAD
 70
    0
  0
APPID
  5
72
330
9
100
AcDbSymbolTableRecord
100
AcDbRegAppTableRecord
  2
LibreCad
 70
    0
  0
ENDTAB
  0
TABLE
  2
DIMSTYLE
  5
A
330
0
100
AcDbSymbolTable
 70
    1
100
AcDbDimStyleTable
 71
    1
  0
DIMSTYLE
105
73
330
A
100
AcDbSymbolTableRecord
100
AcDbDimStyleTableRecord
  2
Standard
 70
    0
 40
1
 41
2.5
 42
0.625
 43
0.38
 44
1.25
 45
0
 46
0
 47
0
 48
0
 49
1
140
2.5
141
0.09
142
0
143
25.4
144
1
145
0
146
1
147
0.625
148
0
 71
    0
 72
    0
 73
    0
 74
    1
 75
    0
 76
    0
 77
    0
 78
    8
 79
    0
170
    0
171
    2
172
    0
173
    0
174
    0
175
    0
176
    0
177
    0
178
    0
179
    0
271
    2
272
    4
273
    2
274
    2
275
    0
276
    0
277
    2
278
   44
279
    0
280
    0
281
    0
282
    0
283
    1
284
    0
285
    0
286
    0
288
    0
289
    3
340
STANDARD
341

371
   -2
372
   -2
  0
ENDTAB
  0
TABLE
  2
BLOCK_RECORD
  5
1
330
0
100
AcDbSymbolTable
 70
    2
  0
BLOCK_RECORD
  5
1F
330
1
100
AcDbSymbolTableRecord
100
AcDbBlockTableRecord
  2
*Model_Space
 70
    0
280
    1
281
    0
  0
BLOCK_RECORD
  5
1E
330
1
100
AcDbSymbolTableRecord
100
AcDbBlockTableRecord
  2
*Paper_Space
 70
    0
280
    1
281
    0
  0
ENDTAB
  0
ENDSEC
  0
SECTION
  2
BLOCKS
  0
BLOCK
  5
20
330
1F
100
AcDbEntity
  8
0
100
AcDbBlockBegin
  2
*Model_Space
 70
    0
 10
0
 20
0
 30
0
  3
*Model_Space
  1

  0
ENDBLK
  5
21
330
1F
100
AcDbEntity
  8
0
100
AcDbBlockEnd
  0
BLOCK
  5
1C
330
1B
100
AcDbEntity
  8
0
100
AcDbBlockBegin
  2
*Paper_Space
 70
    0
 10
0
 20
0
 30
0
  3
*Paper_Space
  1

  0
ENDBLK
  5
1D
330
1F
100
AcDbEntity
  8
0
100
AcDbBlockEnd
  0
ENDSEC
  0
SECTION
  2
ENTITIES
  0
ARC
  5
74
100
AcDbEntity
  8
MODELSKETCH_VISIBLE
  6
ByLayer
 62
  256
370
   -1
100
AcDbCircle
 10
201.589837759979
 20
140.5629034869669
 40
0.9999999999999966
100
AcDbArc
 50
0
 51
90
  0
LINE
  5
75
100
AcDbEntity
  8
MODELSKETCH_VISIBLE
  6
ByLayer
 62
  256
370
   -1
100
AcDbLine
 10
202.589837759979
 20
82.36429503183092
 11
202.589837759979
 21
140.5629034869669
  0
LINE
  5
76
100
AcDbEntity
  8
MODELSKETCH_VISIBLE
  6
ByLayer
 62
  256
370
   -1
100
AcDbLine
 10
296.3721377599791
 20
92.10100348696692
 11
296.3721377599791
 21
106.0010034869669
  0
LINE
  5
77
100
AcDbEntity
  8
MODELSKETCH_VISIBLE
  6
ByLayer
 62
  256
370
   -1
100
AcDbLine
 10
265.9609376863465
 20
50.18837253777407
 11
265.9609376863465
 21
64.08837253777403
  0
LINE
  5
78
100
AcDbEntity
  8
MODELSKETCH_VISIBLE
  6
ByLayer
 62
  256
370
   -1
100
AcDbLine
 10
242.5609376863465
 20
28.18837253777404
 11
256.4609376863465
 21
28.18837253777404
  0
LINE
  5
79
100
AcDbEntity
  8
MODELSKETCH_VISIBLE
  6
ByLayer
 62
  256
370
   -1
100
AcDbLine
 10
225.472137759979
 20
89.7260034869669
 11
239.372137759979
 21
89.7260034869669
  0
LINE
  5
7A
100
AcDbEntity
  8
MODELSKETCH_VISIBLE
  6
ByLayer
 62
  256
370
   -1
100
AcDbLine
 10
218.4609376863465
 20
16.31337253777404
 11
218.4609376863465
 21
30.21337253777403
  0
LINE
  5
7B
100
AcDbEntity
  8
MODELSKETCH_VISIBLE
  6
ByLayer
 62
  256
370
   -1
100
AcDbLine
 10
294.4609376863465
 20
46.83837253777405
 11
280.5609376863465
 21
46.83837253777405
  0
LINE
  5
7C
100
AcDbEntity
  8
MODELSKETCH_VISIBLE
  6
ByLayer
 62
  256
370
   -1
100
AcDbLine
 10
263.472137759979
 20
146.3760034869669
 11
263.472137759979
 21
132.4760034869669
  0
LINE
  5
7D
100
AcDbEntity
  8
MODELSKETCH_VISIBLE
  6
ByLayer
 62
  256
370
   -1
100
AcDbLine
 10
256.4609376863465
 20
23.08837253777404
 11
242.5609376863465
 21
23.08837253777404
  0
LINE
  5
7E
100
AcDbEntity
  8
MODELSKETCH_VISIBLE
  6
ByLayer
 62
  256
370
   -1
100
AcDbLine
 10
239.372137759979
 20
108.7260034869669
 11
239.372137759979
 21
122.6260034869669
  0
LINE
  5
7F
100
AcDbEntity
  8
MODELSKETCH_VISIBLE
  6
ByLayer
 62
  256
370
   -1
100
AcDbLine
 10
225.472137759979
 20
127.7260034869669
 11
239.372137759979
 21
127.7260034869669
  0
LINE
  5
80
100
AcDbEntity
  8
MODELSKETCH_VISIBLE
  6
ByLayer
 62
  256
370
   -1
100
AcDbLine
 10
223.5609376863465
 20
11.56337253777404
 11
237.4609376863465
 21
11.56337253777404
  0
LINE
  5
81
100
AcDbEntity
  8
MODELSKETCH_VISIBLE
  6
ByLayer
 62
  256
370
   -1
100
AcDbLine
 10
218.4609376863465
 20
49.21337253777406
 11
204.5609376863465
 21
49.21337253777406
  0
LINE
  5
82
100
AcDbEntity
  8
MODELSKETCH_VISIBLE
  6
ByLayer
 62
  256
370
   -1
100
AcDbLine
 10
239.372137759979
 20
89.7260034869669
 11
239.372137759979
 21
103.6260034869669
  0
LINE
  5
83
100
AcDbEntity
  8
MODELSKETCH_VISIBLE
  6
ByLayer
 62
  256
370
   -1
100
AcDbLine
 10
311.7548364451433
 20
61.09447391614002
 11
304.8048363079806
 21
73.13227129657082
  0
LINE
  5
84
100
AcDbEntity
  8
MODELSKETCH_VISIBLE
  6
ByLayer
 62
  256
370
   -1
100
AcDbLine
 10
239.372137759979
 20
122.6260034869669
 11
225.472137759979
 21
122.6260034869669
  0
LINE
  5
85
100
AcDbEntity
  8
MODELSKETCH_VISIBLE
  6
ByLayer
 62
  256
370
   -1
100
AcDbLine
 10
244.472137759979
 20
111.1010034869669
 11
258.372137759979
 21
111.1010034869669
  0
LINE
  5
86
100
AcDbEntity
  8
MODELSKETCH_VISIBLE
  6
ByLayer
 62
  256
370
   -1
100
AcDbLine
 10
288.522900321138
 20
54.97402766614768
 11
284.9252825579729
 21
68.40033517256553
  0
CIRCLE
  5
87
100
AcDbEntity
  8
MODELSKETCH_VISIBLE
  6
ByLayer
 62
  256
370
   -1
100
AcDbCircle
 10
228.1992060300857
 20
78.95604215531675
 40
1.300000000000008
  0
LINE
  5
88
100
AcDbEntity
  8
MODELSKETCH_VISIBLE
  6
ByLayer
 62
  256
370
   -1
100
AcDbLine
 10
282.472137759979
 20
111.1010034869669
 11
296.3721377599791
 21
111.1010034869669
  0
LINE
  5
89
100
AcDbEntity
  8
MODELSKETCH_VISIBLE
  6
ByLayer
 62
  256
370
   -1
100
AcDbLine
 10
204.5609376863465
 20
30.21337253777403
 11
204.5609376863465
 21
16.31337253777404
  0
LINE
  5
8A
100
AcDbEntity
  8
MODELSKETCH_VISIBLE
  6
ByLayer
 62
  256
370
   -1
100
AcDbLine
 10
275.4609376863465
 20
6.463372537774056
 11
261.5609376863466
 21
6.463372537774054
  0
LINE
  5
8B
100
AcDbEntity
  8
MODELSKETCH_VISIBLE
  6
ByLayer
 62
  256
370
   -1
100
AcDbLine
 10
232.264137759979
 20
-94.58899651303314
 11
217.970037759979
 21
-102.8500965130331
  0
LINE
  5
8C
100
AcDbEntity
  8
MODELSKETCH_VISIBLE
  6
ByLayer
 62
  256
370
   -1
100
AcDbLine
 10
303.8911376863465
 20
79.03497253777407
 11
316.5728280503697
 21
57.04634437325539
  0
LINE
  5
8D
100
AcDbEntity
  8
MODELSKETCH_VISIBLE
  6
ByLayer
 62
  256
370
   -1
100
AcDbLine
 10
222.9468392577882
 20
91.73243640226063
 11
203.6477558798188
 21
80.59004872548392
  0
LINE
  5
8E
100
AcDbEntity
  8
MODELSKETCH_VISIBLE
  6
ByLayer
 62
  256
370
   -1
100
AcDbLine
 10
275.4609376863465
 20
11.56337253777405
 11
275.4609376863465
 21
25.46337253777407
  0
LINE
  5
8F
100
AcDbEntity
  8
MODELSKETCH_VISIBLE
  6
ByLayer
 62
  256
370
   -1
100
AcDbLine
 10
261.5609376863465
 20
6.463372537774043
 11
261.5609376863465
 21
-7.436627462225981
  0
LINE
  5
90
100
AcDbEntity
  8
MODELSKETCH_VISIBLE
  6
ByLayer
 62
  256
370
   -1
100
AcDbLine
 10
244.472137759979
 20
125.0010034869669
 11
244.472137759979
 21
111.1010034869669
  0
LINE
  5
91
100
AcDbEntity
  8
MODELSKETCH_VISIBLE
  6
ByLayer
 62
  256
370
   -1
100
AcDbLine
 10
296.3721377599791
 20
106.0010034869669
 11
282.472137759979
 21
106.0010034869669
  0
LINE
  5
92
100
AcDbEntity
  8
MODELSKETCH_VISIBLE
  6
ByLayer
 62
  256
370
   -1
100
AcDbLine
 10
218.4609376863465
 20
30.21337253777403
 11
204.5609376863465
 21
30.21337253777403
  0
LINE
  5
93
100
AcDbEntity
  8
MODELSKETCH_VISIBLE
  6
ByLayer
 62
  256
370
   -1
100
AcDbLine
 10
301.472137759979
 20
120.2510034869669
 11
301.472137759979
 21
106.3510034869669
  0
LINE
  5
94
100
AcDbEntity
  8
MODELSKETCH_VISIBLE
  6
ByLayer
 62
  256
370
   -1
100
AcDbLine
 10
239.372137759979
 20
127.7260034869669
 11
239.372137759979
 21
141.6260034869669
  0
LINE
  5
95
100
AcDbEntity
  8
MODELSKETCH_VISIBLE
  6
ByLayer
 62
  256
370
   -1
100
AcDbLine
 10
244.472137759979
 20
144.0010034869669
 11
244.472137759979
 21
130.1010034869669
  0
LINE
  5
96
100
AcDbEntity
  8
MODELSKETCH_VISIBLE
  6
ByLayer
 62
  256
370
   -1
100
AcDbLine
 10
267.872137759979
 20
86.37600348696688
 11
253.9721377599791
 21
86.37600348696688
  0
LINE
  5
97
100
AcDbEntity
  8
MODELSKETCH_VISIBLE
  6
ByLayer
 62
  256
370
   -1
100
AcDbLine
 10
204.5609376863465
 20
49.21337253777406
 11
204.5609376863465
 21
35.31337253777403
  0
LINE
  5
98
100
AcDbEntity
  8
MODELSKETCH_VISIBLE
  6
ByLayer
 62
  256
370
   -1
100
AcDbLine
 10
216.041937759979
 20
57.52940348696688
 11
203.3602473959559
 21
79.51803165148556
  0
LINE
  5
99
100
AcDbEntity
  8
MODELSKETCH_VISIBLE
  6
ByLayer
 62
  256
370
   -1
100
AcDbLine
 10
242.5609376863465
 20
4.088372537774027
 11
242.5609376863465
 21
-9.811627462225941
  0
LINE
  5
9A
100
AcDbEntity
  8
MODELSKETCH_VISIBLE
  6
ByLayer
 62
  256
370
   -1
100
AcDbLine
 10
244.8364826316054
 20
85.18796612175832
 11
231.4101751251875
 21
81.59034835859325
  0
LINE
  5
9B
100
AcDbEntity
  8
MODELSKETCH_VISIBLE
  6
ByLayer
 62
  256
370
   -1
100
AcDbLine
 10
296.9862361885373
 20
44.83193962248032
 11
316.2853195665068
 21
55.97432729925703
  0
CIRCLE
  5
9C
100
AcDbEntity
  8
MODELSKETCH_VISIBLE
  6
ByLayer
 62
  256
370
   -1
100
AcDbCircle
 10
241.9605418034175
 20
126.3269950120776
 40
1.300000000000008
  0
LINE
  5
9D
100
AcDbEntity
  8
MODELSKETCH_VISIBLE
  6
ByLayer
 62
  256
370
   -1
100
AcDbLine
 10
257.8080376863466
 20
-11.74832746222593
 11
241.3785302181214
 21
-11.74832746222593
  0
LINE
  5
9E
100
AcDbEntity
  8
MODELSKETCH_VISIBLE
  6
ByLayer
 62
  256
370
   -1
100
AcDbLine
 10
301.472137759979
 20
101.2510034869669
 11
301.472137759979
 21
87.35100348696687
  0
LINE
  5
9F
100
AcDbEntity
  8
MODELSKETCH_VISIBLE
  6
ByLayer
 62
  256
370
   -1
100
AcDbLine
 10
275.0965928147201
 20
51.37640990298263
 11
288.522900321138
 21
54.9740276661477
  0
LINE
  5
A0
100
AcDbEntity
  8
MODELSKETCH_VISIBLE
  6
ByLayer
 62
  256
370
   -1
100
AcDbLine
 10
316.8441974116657
 20
85.06089739654625
 11
280.8393377599779
 21
85.06090348696763
  0
LINE
  5
A1
100
AcDbEntity
  8
MODELSKETCH_VISIBLE
  6
ByLayer
 62
  256
370
   -1
100
AcDbLine
 10
215.128239138345
 20
63.43210472817014
 11
227.1660365187758
 21
70.38210486533285
  0
LINE
  5
A2
100
AcDbEntity
  8
MODELSKETCH_VISIBLE
  6
ByLayer
 62
  256
370
   -1
100
AcDbLine
 10
256.4609376863465
 20
9.18837253777402
 11
256.4609376863465
 21
23.08837253777404
  0
LINE
  5
A3
100
AcDbEntity
  8
MODELSKETCH_VISIBLE
  6
ByLayer
 62
  256
370
   -1
100
AcDbLine
 10
204.5609376863465
 20
11.21337253777405
 11
204.5609376863465
 21
-2.686627462225949
  0
LINE
  5
A4
100
AcDbEntity
  8
MODELSKETCH_VISIBLE
  6
ByLayer
 62
  256
370
   -1
100
AcDbLine
 10
301.472137759979
 20
87.35100348696687
 11
315.3721377599791
 21
87.35100348696687
  0
LINE
  5
A5
100
AcDbEntity
  8
MODELSKETCH_VISIBLE
  6
ByLayer
 62
  256
370
   -1
100
AcDbLine
 10
280.5609376863466
 20
-5.061627462225951
 11
294.4609376863465
 21
-5.06162746222595
  0
LINE
  5
A6
100
AcDbEntity
  8
MODELSKETCH_VISIBLE
  6
ByLayer
 62
  256
370
   -1
100
AcDbLine
 10
261.5609376863465
 20
44.46337253777403
 11
261.5609376863465
 21
30.56337253777407
  0
LINE
  5
A7
100
AcDbEntity
  8
MODELSKETCH_VISIBLE
  6
ByLayer
 62
  256
370
   -1
100
AcDbLine
 10
218.4609376863465
 20
11.21337253777405
 11
204.5609376863465
 21
11.21337253777405
  0
LINE
  5
A8
100
AcDbEntity
  8
MODELSKETCH_VISIBLE
  6
ByLayer
 62
  256
370
   -1
100
AcDbLine
 10
265.9609376863465
 20
64.08837253777403
 11
252.0609376863466
 21
64.08837253777403
  0
CIRCLE
  5
A9
100
AcDbEntity
  8
MODELSKETCH_VISIBLE
  6
ByLayer
 62
  256
370
   -1
100
AcDbCircle
 10
274.7648273386528
 20
86.56204904572824
 40
1.299999999999999
  0
LINE
  5
AA
100
AcDbEntity
  8
MODELSKETCH_VISIBLE
  6
ByLayer
 62
  256
370
   -1
100
AcDbLine
 10
235.0077928883527
 20
68.1640408521754
 11
248.4341003947705
 21
71.76165861534049
  0
LINE
  5
AB
100
AcDbEntity
  8
MODELSKETCH_VISIBLE
  6
ByLayer
 62
  256
370
   -1
100
AcDbLine
 10
296.3721377599791
 20
125.0010034869669
 11
282.472137759979
 21
125.0010034869669
  0
LINE
  5
AC
100
AcDbEntity
  8
MODELSKETCH_VISIBLE
  6
ByLayer
 62
  256
370
   -1
100
AcDbLine
 10
275.4609376863465
 20
-7.436627462225967
 11
275.4609376863465
 21
6.463372537774056
  0
LINE
  5
AD
100
AcDbEntity
  8
MODELSKETCH_VISIBLE
  6
ByLayer
 62
  256
370
   -1
100
AcDbLine
 10
225.472137759979
 20
108.7260034869669
 11
239.372137759979
 21
108.7260034869669
  0
LINE
  5
AE
100
AcDbEntity
  8
MODELSKETCH_VISIBLE
  6
ByLayer
 62
  256
370
   -1
100
AcDbLine
 10
256.4609376863465
 20
4.088372537774027
 11
242.5609376863465
 21
4.088372537774025
  0
LINE
  5
AF
100
AcDbEntity
  8
MODELSKETCH_VISIBLE
  6
ByLayer
 62
  256
370
   -1
100
AcDbLine
 10
218.4609376863465
 20
35.31337253777403
 11
218.4609376863465
 21
49.21337253777406
  0
LINE
  5
B0
100
AcDbEntity
  8
MODELSKETCH_VISIBLE
  6
ByLayer
 62
  256
370
   -1
100
AcDbLine
 10
280.5609376863466
 20
32.93837253777409
 11
294.4609376863465
 21
32.93837253777409
  0
LINE
  5
B1
100
AcDbEntity
  8
MODELSKETCH_VISIBLE
  6
ByLayer
 62
  256
370
   -1
100
AcDbLine
 10
244.472137759979
 20
130.1010034869669
 11
258.372137759979
 21
130.1010034869669
  0
LINE
  5
B2
100
AcDbEntity
  8
MODELSKETCH_VISIBLE
  6
ByLayer
 62
  256
370
   -1
100
AcDbLine
 10
203.0888780346598
 20
51.50347862819469
 11
239.0937376863476
 21
51.50347253777331
  0
LINE
  5
B3
100
AcDbEntity
  8
MODELSKETCH_VISIBLE
  6
ByLayer
 62
  256
370
   -1
100
AcDbLine
 10
258.372137759979
 20
125.0010034869669
 11
244.472137759979
 21
125.0010034869669
  0
LINE
  5
B4
100
AcDbEntity
  8
MODELSKETCH_VISIBLE
  6
ByLayer
 62
  256
370
   -1
100
AcDbLine
 10
277.3721377599791
 20
108.3760034869669
 11
263.472137759979
 21
108.3760034869669
  0
LINE
  5
B5
100
AcDbEntity
  8
MODELSKETCH_VISIBLE
  6
ByLayer
 62
  256
370
   -1
100
AcDbLine
 10
277.3721377599791
 20
132.4760034869669
 11
277.3721377599791
 21
146.3760034869669
  0
LINE
  5
B6
100
AcDbEntity
  8
MODELSKETCH_VISIBLE
  6
ByLayer
 62
  256
370
   -1
100
AcDbLine
 10
237.4609376863465
 20
6.463372537774043
 11
223.5609376863465
 21
6.463372537774041
  0
LINE
  5
B7
100
AcDbEntity
  8
MODELSKETCH_VISIBLE
  6
ByLayer
 62
  256
370
   -1
100
AcDbLine
 10
253.972137759979
 20
86.37600348696688
 11
253.972137759979
 21
72.4760034869669
  0
LINE
  5
B8
100
AcDbEntity
  8
MODELSKETCH_VISIBLE
  6
ByLayer
 62
  256
370
   -1
100
AcDbLine
 10
244.472137759979
 20
106.0010034869669
 11
244.472137759979
 21
92.10100348696692
  0
LINE
  5
B9
100
AcDbEntity
  8
MODELSKETCH_VISIBLE
  6
ByLayer
 62
  256
370
   -1
100
AcDbLine
 10
301.472137759979
 20
106.3510034869669
 11
315.3721377599791
 21
106.3510034869669
  0
LINE
  5
BA
100
AcDbEntity
  8
MODELSKETCH_VISIBLE
  6
ByLayer
 62
  256
370
   -1
100
AcDbLine
 10
294.4609376863465
 20
27.83837253777403
 11
280.5609376863465
 21
27.83837253777403
  0
LINE
  5
BB
100
AcDbEntity
  8
MODELSKETCH_VISIBLE
  6
ByLayer
 62
  256
370
   -1
100
AcDbLine
 10
280.5609376863466
 20
13.93837253777407
 11
294.4609376863465
 21
13.93837253777407
  0
LINE
  5
BC
100
AcDbEntity
  8
MODELSKETCH_VISIBLE
  6
ByLayer
 62
  256
370
   -1
100
AcDbLine
 10
237.4609376863465
 20
-7.436627462225981
 11
237.4609376863465
 21
6.463372537774043
  0
LINE
  5
BD
100
AcDbEntity
  8
MODELSKETCH_VISIBLE
  6
ByLayer
 62
  256
370
   -1
100
AcDbLine
 10
256.4609376863465
 20
-9.811627462225969
 11
256.4609376863465
 21
4.088372537774027
  0
LINE
  5
BE
100
AcDbEntity
  8
MODELSKETCH_VISIBLE
  6
ByLayer
 62
  256
370
   -1
100
AcDbLine
 10
280.5609376863466
 20
46.83837253777405
 11
280.5609376863466
 21
32.93837253777409
  0
LINE
  5
BF
100
AcDbEntity
  8
MODELSKETCH_VISIBLE
  6
ByLayer
 62
  256
370
   -1
100
AcDbLine
 10
282.472137759979
 20
144.0010034869669
 11
282.472137759979
 21
130.1010034869669
  0
LINE
  5
C0
100
AcDbEntity
  8
MODELSKETCH_VISIBLE
  6
ByLayer
 62
  256
370
   -1
100
AcDbLine
 10
231.4101751251876
 20
81.59034835859326
 11
235.0077928883527
 21
68.1640408521754
  0
LINE
  5
C1
100
AcDbEntity
  8
MODELSKETCH_VISIBLE
  6
ByLayer
 62
  256
370
   -1
100
AcDbLine
 10
284.9252825579729
 20
68.40033517256553
 11
271.4989750515551
 21
64.80271740940046
  0
LINE
  5
C2
100
AcDbEntity
  8
MODELSKETCH_VISIBLE
  6
ByLayer
 62
  256
370
   -1
100
AcDbLine
 10
296.5937376863465
 20
-5.246427462225936
 11
296.5937376863465
 21
44.15211054527225
  0
LINE
  5
C3
100
AcDbEntity
  8
MODELSKETCH_VISIBLE
  6
ByLayer
 62
  256
370
   -1
100
AcDbLine
 10
220.2160363816131
 20
82.41990224576361
 11
208.1782390011823
 21
75.46990210860092
  0
LINE
  5
C4
100
AcDbEntity
  8
MODELSKETCH_VISIBLE
  6
ByLayer
 62
  256
370
   -1
100
AcDbLine
 10
258.372137759979
 20
111.1010034869669
 11
258.372137759979
 21
125.0010034869669
  0
CIRCLE
  5
C5
100
AcDbEntity
  8
MODELSKETCH_VISIBLE
  6
ByLayer
 62
  256
370
   -1
100
AcDbCircle
 10
245.1682481076727
 20
50.00232697901271
 40
1.701955352924719
  0
LINE
  5
C6
100
AcDbEntity
  8
MODELSKETCH_VISIBLE
  6
ByLayer
 62
  256
370
   -1
100
AcDbLine
 10
294.4609376863465
 20
-5.061627462225951
 11
294.4609376863465
 21
8.838372537774072
  0
LINE
  5
C7
100
AcDbEntity
  8
MODELSKETCH_VISIBLE
  6
ByLayer
 62
  256
370
   -1
100
AcDbLine
 10
239.372137759979
 20
141.6260034869669
 11
225.472137759979
 21
141.6260034869669
  0
LINE
  5
C8
100
AcDbEntity
  8
MODELSKETCH_VISIBLE
  6
ByLayer
 62
  256
370
   -1
100
AcDbLine
 10
253.972137759979
 20
72.4760034869669
 11
267.872137759979
 21
72.4760034869669
  0
LINE
  5
C9
100
AcDbEntity
  8
MODELSKETCH_VISIBLE
  6
ByLayer
 62
  256
370
   -1
100
AcDbLine
 10
315.372137759979
 20
101.2510034869669
 11
301.472137759979
 21
101.2510034869669
  0
LINE
  5
CA
100
AcDbEntity
  8
MODELSKETCH_VISIBLE
  6
ByLayer
 62
  256
370
   -1
100
AcDbLine
 10
304.8048363079806
 20
73.13227129657081
 11
292.7670389275497
 21
66.18227115940809
  0
LINE
  5
CB
100
AcDbEntity
  8
MODELSKETCH_VISIBLE
  6
ByLayer
 62
  256
370
   -1
100
AcDbLine
 10
269.9889576228977
 20
70.52058296170715
 11
269.9884595851144
 21
70.51990002214154
  0
ARC
  5
CC
100
AcDbEntity
  8
MODELSKETCH_VISIBLE
  6
ByLayer
 62
  256
370
   -1
100
AcDbCircle
 10
269.5844730033705
 20
70.81450966517926
 40
0.4999999999998983
100
AcDbArc
 50
277.4119025799941
 51
323.8983740729513
  0
LINE
  5
CD
100
AcDbEntity
  8
MODELSKETCH_VISIBLE
  6
ByLayer
 62
  256
370
   -1
100
AcDbLine
 10
280.485737759979
 20
84.9144034869669
 11
269.9889576228977
 21
70.52058296170708
  0
CIRCLE
  5
CE
100
AcDbEntity
  8
MODELSKETCH_VISIBLE
  6
ByLayer
 62
  256
370
   -1
100
AcDbCircle
 10
205.2391633859341
 20
85.31539324518138
 40
1.3
  0
LINE
  5
CF
100
AcDbEntity
  8
MODELSKETCH_VISIBLE
  6
ByLayer
 62
  256
370
   -1
100
AcDbLine
 10
280.1255281284658
 20
146.0623034869668
 11
297.5551377599791
 21
146.0607034869668
  0
SPLINE
  5
D0
100
AcDbEntity
  8
MODELSKETCH_VISIBLE
  6
ByLayer
 62
  256
370
   -1
100
AcDbSpline
210
0
220
0
230
0
 70
    8
 71
    3
 72
    8
 73
    4
 74
    0
 42
1e-07
 43
1e-07
 40
0
 40
0
 40
0
 40
0
 40
1
 40
1
 40
1
 40
1
 10
232.264137759979
 20
65.41100348696686
 30
0
 10
232.477537759979
 20
65.47540348696688
 30
0
 10
232.696837759979
 20
65.51880348696689
 30
0
 10
232.9187377599791
 20
65.54050348696688
 30
0
  0
LINE
  5
D1
100
AcDbEntity
  8
MODELSKETCH_VISIBLE
  6
ByLayer
 62
  256
370
   -1
100
AcDbLine
 10
222.3779376863465
 20
-9.496327462225919
 11
239.8075473178598
 21
-9.497927462225917
  0
LINE
  5
D2
100
AcDbEntity
  8
MODELSKETCH_VISIBLE
  6
ByLayer
 62
  256
370
   -1
100
AcDbLine
 10
259.3780376863465
 20
-9.496327462225954
 11
276.8072376863465
 21
-9.497927462225938
  0
LINE
  5
D3
100
AcDbEntity
  8
MODELSKETCH_VISIBLE
  6
ByLayer
 62
  256
370
   -1
100
AcDbLine
 10
280.1255281284658
 20
-13.93769651303315
 11
297.8392377599791
 21
-13.93929651303312
  0
CIRCLE
  5
D4
100
AcDbEntity
  8
MODELSKETCH_VISIBLE
  6
ByLayer
 62
  256
370
   -1
100
AcDbCircle
 10
274.7648273386528
 20
-73.43795095427176
 40
1.299999999999999
  0
LINE
  5
D5
100
AcDbEntity
  8
MODELSKETCH_VISIBLE
  6
ByLayer
 62
  256
370
   -1
100
AcDbLine
 10
243.125837759979
 20
-13.93769651303315
 11
260.555037759979
 21
-13.93929651303313
  0
LINE
  5
D6
100
AcDbEntity
  8
MODELSKETCH_VISIBLE
  6
ByLayer
 62
  256
370
   -1
100
AcDbLine
 10
221.897137759979
 20
140.5629034869669
 11
221.897137759979
 21
92.60498206699336
  0
LINE
  5
D7
100
AcDbEntity
  8
MODELSKETCH_VISIBLE
  6
ByLayer
 62
  256
370
   -1
100
AcDbLine
 10
241.555837759979
 20
-16.43709651303312
 11
223.8735223828039
 21
-16.43709651303312
  0
LINE
  5
D8
100
AcDbEntity
  8
MODELSKETCH_VISIBLE
  6
ByLayer
 62
  256
370
   -1
100
AcDbLine
 10
243.125837759979
 20
146.0623034869669
 11
260.5550377599791
 21
146.0607034869669
  0
LINE
  5
D9
100
AcDbEntity
  8
MODELSKETCH_VISIBLE
  6
ByLayer
 62
  256
370
   -1
100
AcDbLine
 10
263.472137759979
 20
113.4760034869669
 11
277.3721377599791
 21
113.4760034869669
  0
LINE
  5
DA
100
AcDbEntity
  8
MODELSKETCH_VISIBLE
  6
ByLayer
 62
  256
370
   -1
100
AcDbLine
 10
315.372137759979
 20
87.35100348696687
 11
315.372137759979
 21
101.2510034869669
  0
LINE
  5
DB
100
AcDbEntity
  8
MODELSKETCH_VISIBLE
  6
ByLayer
 62
  256
370
   -1
100
AcDbLine
 10
282.472137759979
 20
106.0010034869669
 11
282.472137759979
 21
92.10100348696692
  0
LINE
  5
DC
100
AcDbEntity
  8
MODELSKETCH_VISIBLE
  6
ByLayer
 62
  256
370
   -1
100
AcDbLine
 10
280.485737759979
 20
-75.08559651303311
 11
270.0605834478391
 21
-89.38119937004441
  0
LINE
  5
DD
100
AcDbEntity
  8
MODELSKETCH_VISIBLE
  6
ByLayer
 62
  256
370
   -1
100
AcDbLine
 10
232.9187377599791
 20
65.54050348696688
 11
269.6489738047611
 21
70.31868747263452
  0
ARC
  5
DE
100
AcDbEntity
  8
MODELSKETCH_VISIBLE
  6
ByLayer
 62
  256
370
   -1
100
AcDbCircle
 10
224.1261161324346
 20
142.7779034869669
 40
0.7850000000000181
100
AcDbArc
 50
90
 51
179.8947190664187
  0
LINE
  5
DF
100
AcDbEntity
  8
MODELSKETCH_VISIBLE
  6
ByLayer
 62
  256
370
   -1
100
AcDbLine
 10
242.5609376863465
 20
23.08837253777404
 11
242.5609376863465
 21
9.18837253777402
  0
CIRCLE
  5
E0
100
AcDbEntity
  8
MODELSKETCH_VISIBLE
  6
ByLayer
 62
  256
370
   -1
100
AcDbCircle
 10
298.8542069267849
 20
125.2086098932169
 40
1.3
  0
LINE
  5
E1
100
AcDbEntity
  8
MODELSKETCH_VISIBLE
  6
ByLayer
 62
  256
370
   -1
100
AcDbLine
 10
280.5609376863466
 20
27.83837253777403
 11
280.5609376863466
 21
13.93837253777407
  0
LINE
  5
E2
100
AcDbEntity
  8
MODELSKETCH_VISIBLE
  6
ByLayer
 62
  256
370
   -1
100
AcDbLine
 10
202.589837759979
 20
-19.43189948042074
 11
202.5898377599792
 21
-78.90523151822752
  0
LINE
  5
E3
100
AcDbEntity
  8
MODELSKETCH_VISIBLE
  6
ByLayer
 62
  256
370
   -1
100
AcDbLine
 10
216.041937759979
 20
-102.4705965130331
 11
202.7102084816289
 21
-79.35487380754127
  0
LINE
  5
E4
100
AcDbEntity
  8
MODELSKETCH_VISIBLE
  6
ByLayer
 62
  256
370
   -1
100
AcDbLine
 10
269.5275907726844
 20
-89.69710307277042
 11
232.918737759979
 21
-94.45949651303312
  0
LINE
  5
E5
100
AcDbEntity
  8
MODELSKETCH_VISIBLE
  6
ByLayer
 62
  256
370
   -1
100
AcDbLine
 10
316.8442069267849
 20
-74.93909651303314
 11
280.8393377599791
 21
-74.93909651303314
  0
LINE
  5
E6
100
AcDbEntity
  8
MODELSKETCH_VISIBLE
  6
ByLayer
 62
  256
370
   -1
100
AcDbLine
 10
317.3442069267848
 20
-19.18836802239815
 11
317.3442069267848
 21
-74.43909651303314
  0
CIRCLE
  5
E7
100
AcDbEntity
  8
MODELSKETCH_VISIBLE
  6
ByLayer
 62
  256
370
   -1
100
AcDbCircle
 10
298.8542069267849
 20
-34.84421000000001
 40
1.300000000000009
  0
LINE
  5
E8
100
AcDbEntity
  8
MODELSKETCH_VISIBLE
  6
ByLayer
 62
  256
370
   -1
100
AcDbLine
 10
223.5609376863465
 20
25.46337253777406
 11
223.5609376863465
 21
11.56337253777404
  0
LINE
  5
E9
100
AcDbEntity
  8
MODELSKETCH_VISIBLE
  6
ByLayer
 62
  256
370
   -1
100
AcDbLine
 10
299.1253544811766
 20
-18.68750599096197
 11
316.8442312520295
 21
-18.68836802298988
  0
LINE
  5
EA
100
AcDbEntity
  8
MODELSKETCH_VISIBLE
  6
ByLayer
 62
  256
370
   -1
100
AcDbLine
 10
277.3721377599791
 20
94.47600348696687
 11
277.3721377599791
 21
108.3760034869669
  0
LINE
  5
EB
100
AcDbEntity
  8
MODELSKETCH_VISIBLE
  6
ByLayer
 62
  256
370
   -1
100
AcDbLine
 10
225.472137759979
 20
141.6260034869669
 11
225.472137759979
 21
127.7260034869669
  0
LINE
  5
EC
100
AcDbEntity
  8
MODELSKETCH_VISIBLE
  6
ByLayer
 62
  256
370
   -1
100
AcDbLine
 10
222.8734774077013
 20
-18.93367902085169
 11
203.0898827350816
 21
-18.93189948244352
  0
LINE
  5
ED
100
AcDbEntity
  8
MODELSKETCH_VISIBLE
  6
ByLayer
 62
  256
370
   -1
100
AcDbLine
 10
315.372137759979
 20
106.3510034869669
 11
315.372137759979
 21
120.2510034869669
  0
CIRCLE
  5
EE
100
AcDbEntity
  8
MODELSKETCH_VISIBLE
  6
ByLayer
 62
  256
370
   -1
100
AcDbCircle
 10
298.8542069267849
 20
-53.84421000000001
 40
1.300000000000009
  0
LINE
  5
EF
100
AcDbEntity
  8
MODELSKETCH_VISIBLE
  6
ByLayer
 62
  256
370
   -1
100
AcDbLine
 10
277.3721377599791
 20
127.3760034869669
 11
263.472137759979
 21
127.3760034869669
  0
LINE
  5
F0
100
AcDbEntity
  8
MODELSKETCH_VISIBLE
  6
ByLayer
 62
  256
370
   -1
100
AcDbLine
 10
301.472137759979
 20
139.2510034869669
 11
301.472137759979
 21
125.3510034869669
  0
LINE
  5
F1
100
AcDbEntity
  8
MODELSKETCH_VISIBLE
  6
ByLayer
 62
  256
370
   -1
100
AcDbLine
 10
242.5609376863465
 20
9.18837253777402
 11
256.4609376863465
 21
9.188372537774022
  0
LINE
  5
F2
100
AcDbEntity
  8
MODELSKETCH_VISIBLE
  6
ByLayer
 62
  256
370
   -1
100
AcDbLine
 10
248.4341003947705
 20
71.76165861534049
 11
244.8364826316054
 21
85.18796612175832
  0
LINE
  5
F3
100
AcDbEntity
  8
MODELSKETCH_VISIBLE
  6
ByLayer
 62
  256
370
   -1
100
AcDbLine
 10
296.3721377599791
 20
111.1010034869669
 11
296.3721377599791
 21
125.0010034869669
  0
LINE
  5
F4
100
AcDbEntity
  8
MODELSKETCH_VISIBLE
  6
ByLayer
 62
  256
370
   -1
100
AcDbLine
 10
239.372137759979
 20
103.6260034869669
 11
225.472137759979
 21
103.6260034869669
  0
LINE
  5
F5
100
AcDbEntity
  8
MODELSKETCH_VISIBLE
  6
ByLayer
 62
  256
370
   -1
100
AcDbLine
 10
204.5609376863465
 20
35.31337253777403
 11
218.4609376863465
 21
35.31337253777403
  0
LINE
  5
F6
100
AcDbEntity
  8
MODELSKETCH_VISIBLE
  6
ByLayer
 62
  256
370
   -1
100
AcDbLine
 10
261.5609376863465
 20
11.56337253777404
 11
275.4609376863465
 21
11.56337253777404
  0
LINE
  5
F7
100
AcDbEntity
  8
MODELSKETCH_VISIBLE
  6
ByLayer
 62
  256
370
   -1
100
AcDbLine
 10
271.4989750515551
 20
64.80271740940046
 11
275.0965928147202
 21
51.37640990298262
  0
CIRCLE
  5
F8
100
AcDbEntity
  8
MODELSKETCH_VISIBLE
  6
ByLayer
 62
  256
370
   -1
100
AcDbCircle
 10
277.972533642908
 20
10.2373810126634
 40
1.700136258680356
  0
LINE
  5
F9
100
AcDbEntity
  8
MODELSKETCH_VISIBLE
  6
ByLayer
 62
  256
370
   -1
100
AcDbLine
 10
258.372137759979
 20
130.1010034869669
 11
258.372137759979
 21
144.0010034869669
  0
LINE
  5
FA
100
AcDbEntity
  8
MODELSKETCH_VISIBLE
  6
ByLayer
 62
  256
370
   -1
100
AcDbLine
 10
267.872137759979
 20
72.4760034869669
 11
267.872137759979
 21
86.37600348696688
  0
LINE
  5
FB
100
AcDbEntity
  8
MODELSKETCH_VISIBLE
  6
ByLayer
 62
  256
370
   -1
100
AcDbLine
 10
275.4609376863465
 20
25.46337253777407
 11
261.5609376863464
 21
25.46337253777407
  0
LINE
  5
FC
100
AcDbEntity
  8
MODELSKETCH_VISIBLE
  6
ByLayer
 62
  256
370
   -1
100
AcDbLine
 10
261.5609376863465
 20
25.46337253777406
 11
261.5609376863465
 21
11.56337253777404
  0
LINE
  5
FD
100
AcDbEntity
  8
MODELSKETCH_VISIBLE
  6
ByLayer
 62
  256
370
   -1
100
AcDbLine
 10
275.4609376863465
 20
44.46337253777403
 11
261.5609376863464
 21
44.46337253777403
  0
LINE
  5
FE
100
AcDbEntity
  8
MODELSKETCH_VISIBLE
  6
ByLayer
 62
  256
370
   -1
100
AcDbLine
 10
282.472137759979
 20
130.1010034869669
 11
296.3721377599791
 21
130.1010034869669
  0
LINE
  5
FF
100
AcDbEntity
  8
MODELSKETCH_VISIBLE
  6
ByLayer
 62
  256
370
   -1
100
AcDbLine
 10
237.4609376863465
 20
11.56337253777404
 11
237.4609376863465
 21
25.46337253777406
  0
LINE
  5
100
100
AcDbEntity
  8
MODELSKETCH_VISIBLE
  6
ByLayer
 62
  256
370
   -1
100
AcDbLine
 10
237.4609376863465
 20
30.56337253777405
 11
237.4609376863465
 21
44.46337253777402
  0
LINE
  5
101
100
AcDbEntity
  8
MODELSKETCH_VISIBLE
  6
ByLayer
 62
  256
370
   -1
100
AcDbLine
 10
250.3439376863465
 20
66.25347253777407
 11
287.0143376863466
 21
71.02387253777407
  0
LINE
  5
102
100
AcDbEntity
  8
MODELSKETCH_VISIBLE
  6
ByLayer
 62
  256
370
   -1
100
AcDbLine
 10
256.4609376863465
 20
28.18837253777404
 11
256.4609376863465
 21
42.08837253777406
  0
LINE
  5
103
100
AcDbEntity
  8
MODELSKETCH_VISIBLE
  6
ByLayer
 62
  256
370
   -1
100
AcDbLine
 10
296.3721377599791
 20
130.1010034869669
 11
296.3721377599791
 21
144.0010034869669
  0
LINE
  5
104
100
AcDbEntity
  8
MODELSKETCH_VISIBLE
  6
ByLayer
 62
  256
370
   -1
100
AcDbLine
 10
294.4609376863465
 20
32.93837253777409
 11
294.4609376863465
 21
46.83837253777405
  0
LINE
  5
105
100
AcDbEntity
  8
MODELSKETCH_VISIBLE
  6
ByLayer
 62
  256
370
   -1
100
AcDbLine
 10
223.5609376863465
 20
44.46337253777402
 11
223.5609376863465
 21
30.56337253777405
  0
LINE
  5
106
100
AcDbEntity
  8
MODELSKETCH_VISIBLE
  6
ByLayer
 62
  256
370
   -1
100
AcDbLine
 10
292.7670389275498
 20
66.1822711594081
 11
299.7170390647125
 21
54.14447377897731
  0
LINE
  5
107
100
AcDbEntity
  8
MODELSKETCH_VISIBLE
  6
ByLayer
 62
  256
370
   -1
100
AcDbLine
 10
252.0609376863465
 20
50.18837253777407
 11
265.9609376863465
 21
50.18837253777407
  0
LINE
  5
108
100
AcDbEntity
  8
MODELSKETCH_VISIBLE
  6
ByLayer
 62
  256
370
   -1
100
AcDbLine
 10
224.1261161324346
 20
143.5629034869669
 11
241.555837759979
 21
143.5629034869669
  0
LINE
  5
109
100
AcDbEntity
  8
MODELSKETCH_VISIBLE
  6
ByLayer
 62
  256
370
   -1
100
AcDbLine
 10
258.372137759979
 20
106.0010034869669
 11
244.472137759979
 21
106.0010034869669
  0
LINE
  5
10A
100
AcDbEntity
  8
MODELSKETCH_VISIBLE
  6
ByLayer
 62
  256
370
   -1
100
AcDbLine
 10
263.472137759979
 20
94.47600348696687
 11
277.3721377599791
 21
94.47600348696687
  0
LINE
  5
10B
100
AcDbEntity
  8
MODELSKETCH_VISIBLE
  6
ByLayer
 62
  256
370
   -1
100
AcDbLine
 10
221.5046392577882
 20
91.92515298978533
 11
203.7673392577882
 21
81.68446595462287
  0
LINE
  5
10C
100
AcDbEntity
  8
MODELSKETCH_VISIBLE
  6
ByLayer
 62
  256
370
   -1
100
AcDbLine
 10
227.1660365187758
 20
70.38210486533285
 11
220.2160363816131
 21
82.41990224576364
  0
LINE
  5
10D
100
AcDbEntity
  8
MODELSKETCH_VISIBLE
  6
ByLayer
 62
  256
370
   -1
100
AcDbLine
 10
225.472137759979
 20
103.6260034869669
 11
225.472137759979
 21
89.7260034869669
  0
LINE
  5
10E
100
AcDbEntity
  8
MODELSKETCH_VISIBLE
  6
ByLayer
 62
  256
370
   -1
100
AcDbLine
 10
225.472137759979
 20
122.6260034869669
 11
225.472137759979
 21
108.7260034869669
  0
LINE
  5
10F
100
AcDbEntity
  8
MODELSKETCH_VISIBLE
  6
ByLayer
 62
  256
370
   -1
100
AcDbLine
 10
275.4609376863465
 20
30.56337253777407
 11
275.4609376863465
 21
44.46337253777403
  0
LINE
  5
110
100
AcDbEntity
  8
MODELSKETCH_VISIBLE
  6
ByLayer
 62
  256
370
   -1
100
AcDbLine
 10
223.5609376863465
 20
30.56337253777405
 11
237.4609376863465
 21
30.56337253777405
  0
LINE
  5
111
100
AcDbEntity
  8
MODELSKETCH_VISIBLE
  6
ByLayer
 62
  256
370
   -1
100
AcDbLine
 10
208.1782390011823
 20
75.46990210860092
 11
215.128239138345
 21
63.43210472817014
  0
LINE
  5
112
100
AcDbEntity
  8
MODELSKETCH_VISIBLE
  6
ByLayer
 62
  256
370
   -1
100
AcDbLine
 10
256.4609376863465
 20
42.08837253777406
 11
242.5609376863465
 21
42.08837253777406
  0
LINE
  5
113
100
AcDbEntity
  8
MODELSKETCH_VISIBLE
  6
ByLayer
 62
  256
370
   -1
100
AcDbLine
 10
237.4609376863465
 20
25.46337253777406
 11
223.5609376863465
 21
25.46337253777406
  0
LINE
  5
114
100
AcDbEntity
  8
MODELSKETCH_VISIBLE
  6
ByLayer
 62
  256
370
   -1
100
AcDbLine
 10
263.472137759979
 20
108.3760034869669
 11
263.472137759979
 21
94.47600348696687
  0
CIRCLE
  5
115
100
AcDbEntity
  8
MODELSKETCH_VISIBLE
  6
ByLayer
 62
  256
370
   -1
100
AcDbCircle
 10
219.6595951815466
 20
93.82018684817344
 40
1.3
  0
LINE
  5
116
100
AcDbEntity
  8
MODELSKETCH_VISIBLE
  6
ByLayer
 62
  256
370
   -1
100
AcDbLine
 10
252.0609376863465
 20
64.08837253777403
 11
252.0609376863465
 21
50.18837253777407
  0
LINE
  5
117
100
AcDbEntity
  8
MODELSKETCH_VISIBLE
  6
ByLayer
 62
  256
370
   -1
100
AcDbLine
 10
280.5609376863466
 20
8.838372537774072
 11
280.5609376863466
 21
-5.061627462225951
  0
LINE
  5
118
100
AcDbEntity
  8
MODELSKETCH_VISIBLE
  6
ByLayer
 62
  256
370
   -1
100
AcDbLine
 10
258.372137759979
 20
92.10100348696692
 11
258.372137759979
 21
106.0010034869669
  0
LINE
  5
119
100
AcDbEntity
  8
MODELSKETCH_VISIBLE
  6
ByLayer
 62
  256
370
   -1
100
AcDbLine
 10
282.472137759979
 20
125.0010034869669
 11
282.472137759979
 21
111.1010034869669
  0
LINE
  5
11A
100
AcDbEntity
  8
MODELSKETCH_VISIBLE
  6
ByLayer
 62
  256
370
   -1
100
AcDbLine
 10
294.4609376863465
 20
13.93837253777407
 11
294.4609376863465
 21
27.83837253777403
  0
LINE
  5
11B
100
AcDbEntity
  8
MODELSKETCH_VISIBLE
  6
ByLayer
 62
  256
370
   -1
100
AcDbLine
 10
277.3721377599791
 20
113.4760034869669
 11
277.3721377599791
 21
127.3760034869669
  0
LINE
  5
11C
100
AcDbEntity
  8
MODELSKETCH_VISIBLE
  6
ByLayer
 62
  256
370
   -1
100
AcDbLine
 10
294.4609376863465
 20
8.838372537774072
 11
280.5609376863465
 21
8.83837253777407
  0
LINE
  5
11D
100
AcDbEntity
  8
MODELSKETCH_VISIBLE
  6
ByLayer
 62
  256
370
   -1
100
AcDbLine
 10
317.3442068422112
 20
140.8116318778035
 11
317.3441974962436
 21
85.56089731196849
  0
LINE
  5
11E
100
AcDbEntity
  8
MODELSKETCH_VISIBLE
  6
ByLayer
 62
  256
370
   -1
100
AcDbLine
 10
315.372137759979
 20
125.3510034869669
 11
315.372137759979
 21
139.2510034869669
  0
LINE
  5
11F
100
AcDbEntity
  8
MODELSKETCH_VISIBLE
  6
ByLayer
 62
  256
370
   -1
100
AcDbLine
 10
301.472137759979
 20
125.3510034869669
 11
315.3721377599791
 21
125.3510034869669
  0
LINE
  5
120
100
AcDbEntity
  8
MODELSKETCH_VISIBLE
  6
ByLayer
 62
  256
370
   -1
100
AcDbLine
 10
244.472137759979
 20
92.10100348696692
 11
258.372137759979
 21
92.10100348696692
  0
LINE
  5
121
100
AcDbEntity
  8
MODELSKETCH_VISIBLE
  6
ByLayer
 62
  256
370
   -1
100
AcDbLine
 10
299.7170390647125
 20
54.14447377897734
 11
311.7548364451433
 21
61.09447391614003
  0
LINE
  5
122
100
AcDbEntity
  8
MODELSKETCH_VISIBLE
  6
ByLayer
 62
  256
370
   -1
100
AcDbLine
 10
242.5609376863465
 20
42.08837253777406
 11
242.5609376863465
 21
28.18837253777404
  0
LINE
  5
123
100
AcDbEntity
  8
MODELSKETCH_VISIBLE
  6
ByLayer
 62
  256
370
   -1
100
AcDbLine
 10
263.472137759979
 20
132.4760034869669
 11
277.3721377599791
 21
132.4760034869669
  0
LINE
  5
124
100
AcDbEntity
  8
MODELSKETCH_VISIBLE
  6
ByLayer
 62
  256
370
   -1
100
AcDbLine
 10
282.472137759979
 20
92.10100348696692
 11
296.3721377599791
 21
92.10100348696692
  0
LINE
  5
125
100
AcDbEntity
  8
MODELSKETCH_VISIBLE
  6
ByLayer
 62
  256
370
   -1
100
AcDbLine
 10
315.372137759979
 20
120.2510034869669
 11
301.472137759979
 21
120.2510034869669
  0
CIRCLE
  5
126
100
AcDbEntity
  8
MODELSKETCH_VISIBLE
  6
ByLayer
 62
  256
370
   -1
100
AcDbCircle
 10
241.9605418034175
 20
-33.67300498792246
 40
1.300000000000008
  0
LINE
  5
127
100
AcDbEntity
  8
MODELSKETCH_VISIBLE
  6
ByLayer
 62
  256
370
   -1
100
AcDbLine
 10
204.5609376863465
 20
16.31337253777404
 11
218.4609376863465
 21
16.31337253777404
  0
CIRCLE
  5
128
100
AcDbEntity
  8
MODELSKETCH_VISIBLE
  6
ByLayer
 62
  256
370
   -1
100
AcDbCircle
 10
291.7338694162398
 20
57.6083338694242
 40
1.698323350898221
  0
LINE
  5
129
100
AcDbEntity
  8
MODELSKETCH_VISIBLE
  6
ByLayer
 62
  256
370
   -1
100
AcDbLine
 10
258.5930376863466
 20
-10.28132746222596
 11
258.5930376863466
 21
-10.96332746222597
  0
LINE
  5
12A
100
AcDbEntity
  8
MODELSKETCH_VISIBLE
  6
ByLayer
 62
  256
370
   -1
100
AcDbLine
 10
237.4609376863465
 20
44.46337253777403
 11
223.5609376863465
 21
44.46337253777403
  0
LINE
  5
12B
100
AcDbEntity
  8
MODELSKETCH_VISIBLE
  6
ByLayer
 62
  256
370
   -1
100
AcDbLine
 10
261.5609376863465
 20
30.56337253777405
 11
275.4609376863465
 21
30.56337253777405
  0
SPLINE
  5
12C
100
AcDbEntity
  8
MODELSKETCH_VISIBLE
  6
ByLayer
 62
  256
370
   -1
100
AcDbSpline
210
0
220
0
230
0
 70
    8
 71
    3
 72
    8
 73
    4
 74
    0
 42
1e-07
 43
1e-07
 40
0
 40
0
 40
0
 40
0
 40
1
 40
1
 40
1
 40
1
 10
280.485737759979
 20
-75.08559651303311
 30
0
 10
280.579437759979
 20
-74.99179651303312
 30
0
 10
280.7066377599791
 20
-74.93909651303314
 30
0
 10
280.8393377599791
 20
-74.93909651303314
 30
0
  0
ARC
  5
12D
100
AcDbEntity
  8
MODELSKETCH_VISIBLE
  6
ByLayer
 62
  256
370
   -1
100
AcDbCircle
 10
203.589837759979
 20
140.5629034869669
 40
0.9999999999999966
100
AcDbArc
 50
90
 51
180.0000000000016
  0
LINE
  5
12E
100
AcDbEntity
  8
MODELSKETCH_VISIBLE
  6
ByLayer
 62
  256
370
   -1
100
AcDbLine
 10
220.8079758767677
 20
-4.748117981474287
 11
203.0888442788696
 21
-4.747255937048573
  0
CIRCLE
  5
12F
100
AcDbEntity
  8
MODELSKETCH_VISIBLE
  6
ByLayer
 62
  256
370
   -1
100
AcDbCircle
 10
298.8542069267849
 20
106.2086098932169
 40
1.3
  0
LINE
  5
130
100
AcDbEntity
  8
MODELSKETCH_VISIBLE
  6
ByLayer
 62
  256
370
   -1
100
AcDbLine
 10
218.4609376863465
 20
-2.686627462225949
 11
218.4609376863465
 21
11.21337253777407
  0
LINE
  5
131
100
AcDbEntity
  8
MODELSKETCH_VISIBLE
  6
ByLayer
 62
  256
370
   -1
100
AcDbLine
 10
277.3721377599791
 20
146.3760034869669
 11
263.472137759979
 21
146.3760034869669
  0
LINE
  5
132
100
AcDbEntity
  8
MODELSKETCH_VISIBLE
  6
ByLayer
 62
  256
370
   -1
100
AcDbLine
 10
296.3721377599791
 20
144.0010034869669
 11
282.472137759979
 21
144.0010034869669
  0
LINE
  5
133
100
AcDbEntity
  8
MODELSKETCH_VISIBLE
  6
ByLayer
 62
  256
370
   -1
100
AcDbLine
 10
223.3393377599791
 20
141.8108034869669
 11
223.3393377599791
 21
92.41226547946872
  0
ARC
  5
134
100
AcDbEntity
  8
MODELSKETCH_VISIBLE
  6
ByLayer
 62
  256
370
   -1
100
AcDbCircle
 10
297.3787376863465
 20
44.15211054527228
 40
0.7849999999999825
100
AcDbArc
 50
120.0001262348037
 51
180
  0
LINE
  5
135
100
AcDbEntity
  8
MODELSKETCH_VISIBLE
  6
ByLayer
 62
  256
370
   -1
100
AcDbLine
 10
299.1250995695578
 20
141.3124940062152
 11
316.8442311674559
 21
141.3116319617895
  0
LINE
  5
136
100
AcDbEntity
  8
MODELSKETCH_VISIBLE
  6
ByLayer
 62
  256
370
   -1
100
AcDbLine
 10
204.5609376863465
 20
-2.686627462225949
 11
218.4609376863465
 21
-2.686627462225947
  0
LINE
  5
137
100
AcDbEntity
  8
MODELSKETCH_VISIBLE
  6
ByLayer
 62
  256
370
   -1
100
AcDbLine
 10
223.5609376863465
 20
6.463372537774043
 11
223.5609376863465
 21
-7.436627462225981
  0
LINE
  5
138
100
AcDbEntity
  8
MODELSKETCH_VISIBLE
  6
ByLayer
 62
  256
370
   -1
100
AcDbLine
 10
203.589837759979
 20
141.5629034869669
 11
220.897137759979
 21
141.5629034869669
  0
LINE
  5
139
100
AcDbEntity
  8
MODELSKETCH_VISIBLE
  6
ByLayer
 62
  256
370
   -1
100
AcDbLine
 10
315.372137759979
 20
139.2510034869669
 11
301.472137759979
 21
139.2510034869669
  0
LINE
  5
13A
100
AcDbEntity
  8
MODELSKETCH_VISIBLE
  6
ByLayer
 62
  256
370
   -1
100
AcDbLine
 10
262.1250377599791
 20
148.3127034869669
 11
278.5545452282042
 21
148.3127034869669
  0
ARC
  5
13B
100
AcDbEntity
  8
MODELSKETCH_VISIBLE
  6
ByLayer
 62
  256
370
   -1
100
AcDbCircle
 10
315.8928180686976
 20
56.65415637646508
 40
0.7850000000000433
100
AcDbArc
 50
300.0001262348011
 51
29.97370798358149
  0
CIRCLE
  5
13C
100
AcDbEntity
  8
MODELSKETCH_VISIBLE
  6
ByLayer
 62
  256
370
   -1
100
AcDbCircle
 10
221.0788685195407
 20
30.35576613152405
 40
1.700507406789944
  0
SPLINE
  5
13D
100
AcDbEntity
  8
MODELSKETCH_VISIBLE
  6
ByLayer
 62
  256
370
   -1
100
AcDbSpline
210
0
220
0
230
0
 70
    8
 71
    3
 72
    8
 73
    4
 74
    0
 42
1e-07
 43
1e-07
 40
0
 40
0
 40
0
 40
0
 40
1
 40
1
 40
1
 40
1
 10
280.485737759979
 20
84.91440348696688
 30
0
 10
280.579437759979
 20
85.00820348696688
 30
0
 10
280.7066377599791
 20
85.06090348696686
 30
0
 10
280.8393377599791
 20
85.06090348696686
 30
0
  0
ARC
  5
13E
100
AcDbEntity
  8
MODELSKETCH_VISIBLE
  6
ByLayer
 62
  256
370
   -1
100
AcDbCircle
 10
316.8442069267848
 20
-74.43909651303312
 40
0.5000000000000143
100
AcDbArc
 50
270
 51
0
  0
LINE
  5
13F
100
AcDbEntity
  8
MODELSKETCH_VISIBLE
  6
ByLayer
 62
  256
370
   -1
100
AcDbLine
 10
232.264137759979
 20
65.41100348696686
 11
217.970037759979
 21
57.14990348696686
  0
SPLINE
  5
140
100
AcDbEntity
  8
MODELSKETCH_VISIBLE
  6
ByLayer
 62
  256
370
   -1
100
AcDbSpline
210
0
220
0
230
0
 70
    8
 71
    3
 72
    8
 73
    4
 74
    0
 42
1e-07
 43
1e-07
 40
0
 40
0
 40
0
 40
0
 40
1
 40
1
 40
1
 40
1
 10
239.4473376863476
 20
51.64997253777333
 30
0
 10
239.3536376863476
 20
51.55617253777332
 30
0
 10
239.2264376863476
 20
51.50347253777333
 30
0
 10
239.0937376863476
 20
51.50347253777333
 30
0
  0
LINE
  5
141
100
AcDbEntity
  8
MODELSKETCH_VISIBLE
  6
ByLayer
 62
  256
370
   -1
100
AcDbLine
 10
258.372137759979
 20
144.0010034869669
 11
244.472137759979
 21
144.0010034869669
  0
SPLINE
  5
142
100
AcDbEntity
  8
MODELSKETCH_VISIBLE
  6
ByLayer
 62
  256
370
   -1
100
AcDbSpline
210
0
220
0
230
0
 70
    8
 71
    3
 72
    8
 73
    4
 74
    0
 42
1e-07
 43
1e-07
 40
0
 40
0
 40
0
 40
0
 40
1
 40
1
 40
1
 40
1
 10
216.045037759979
 20
-102.4751965130331
 30
0
 10
216.044037759979
 20
-102.4736965130331
 30
0
 10
216.042937759979
 20
-102.4720965130331
 30
0
 10
216.041937759979
 20
-102.4705965130331
 30
0
  0
SPLINE
  5
143
100
AcDbEntity
  8
MODELSKETCH_VISIBLE
  6
ByLayer
 62
  256
370
   -1
100
AcDbSpline
210
0
220
0
230
0
 70
    8
 71
    3
 72
    8
 73
    4
 74
    0
 42
1e-07
 43
1e-07
 40
0
 40
0
 40
0
 40
0
 40
1
 40
1
 40
1
 40
1
 10
217.970037759979
 20
-102.8500965130331
 30
0
 10
217.334937759979
 20
-103.2781965130331
 30
0
 10
216.473137759979
 20
-103.1102965130331
 30
0
 10
216.045037759979
 20
-102.4751965130331
 30
0
  0
LINE
  5
144
100
AcDbEntity
  8
MODELSKETCH_VISIBLE
  6
ByLayer
 62
  256
370
   -1
100
AcDbLine
 10
261.5609376863465
 20
-7.436627462225981
 11
275.4609376863465
 21
-7.436627462225979
  0
LINE
  5
145
100
AcDbEntity
  8
MODELSKETCH_VISIBLE
  6
ByLayer
 62
  256
370
   -1
100
AcDbLine
 10
239.4473376863465
 20
51.64997253777408
 11
249.9903376863465
 21
66.10717253777408
  0
SPLINE
  5
146
100
AcDbEntity
  8
MODELSKETCH_VISIBLE
  6
ByLayer
 62
  256
370
   -1
100
AcDbSpline
210
0
220
0
230
0
 70
    8
 71
    3
 72
    8
 73
    4
 74
    0
 42
1e-07
 43
1e-07
 40
0
 40
0
 40
0
 40
0
 40
1
 40
1
 40
1
 40
1
 10
232.264137759979
 20
-94.58899651303314
 30
0
 10
232.477537759979
 20
-94.52459651303312
 30
0
 10
232.696837759979
 20
-94.48119651303313
 30
0
 10
232.9187377599791
 20
-94.4594965130331
 30
0
  0
LINE
  5
147
100
AcDbEntity
  8
MODELSKETCH_VISIBLE
  6
ByLayer
 62
  256
370
   -1
100
AcDbLine
 10
262.1250377599791
 20
-11.68729651303312
 11
278.5545452282042
 21
-11.68729651303312
  0
ARC
  5
148
100
AcDbEntity
  8
MODELSKETCH_VISIBLE
  6
ByLayer
 62
  256
370
   -1
100
AcDbCircle
 10
316.8441974962436
 20
85.56089739654622
 40
0.4999999999999798
100
AcDbArc
 50
269.9999903080941
 51
359.9999903081055
  0
ARC
  5
149
100
AcDbEntity
  8
MODELSKETCH_VISIBLE
  6
ByLayer
 62
  256
370
   -1
100
AcDbCircle
 10
316.8442068422112
 20
140.8116319623812
 40
0.4999999999999969
100
AcDbArc
 50
359.9999903081006
 51
89.9972125322807
  0
LINE
  5
14A
100
AcDbEntity
  8
MODELSKETCH_VISIBLE
  6
ByLayer
 62
  256
370
   -1
100
AcDbLine
 10
287.6689376863465
 20
71.15337253777408
 11
301.9630376863465
 21
79.4144725377741
  0
SPLINE
  5
14B
100
AcDbEntity
  8
MODELSKETCH_VISIBLE
  6
ByLayer
 62
  256
370
   -1
100
AcDbSpline
210
0
220
0
230
0
 70
    8
 71
    3
 72
    8
 73
    4
 74
    0
 42
1e-07
 43
1e-07
 40
0
 40
0
 40
0
 40
0
 40
1
 40
1
 40
1
 40
1
 10
249.9903376863465
 20
66.10717253777408
 30
0
 10
250.0841376863465
 20
66.20087253777406
 30
0
 10
250.2113376863465
 20
66.25347253777407
 30
0
 10
250.3439376863465
 20
66.25347253777407
 30
0
  0
ARC
  5
14C
100
AcDbEntity
  8
MODELSKETCH_VISIBLE
  6
ByLayer
 62
  256
370
   -1
100
AcDbCircle
 10
316.8442069267848
 20
-19.18836802239816
 40
0.4999999999999969
100
AcDbArc
 50
0
 51
89.9972125322807
  0
ARC
  5
14D
100
AcDbEntity
  8
MODELSKETCH_VISIBLE
  6
ByLayer
 62
  256
370
   -1
100
AcDbCircle
 10
299.1251377599791
 20
142.0974896419665
 40
0.7850000000000152
100
AcDbArc
 50
180
 51
269.9972125322835
  0
ARC
  5
14E
100
AcDbEntity
  8
MODELSKETCH_VISIBLE
  6
ByLayer
 62
  256
370
   -1
100
AcDbCircle
 10
204.040257377628
 20
79.91021964827587
 40
0.7850000000000433
100
AcDbArc
 50
120.0001262348034
 51
209.9737079835843
  0
LINE
  5
14F
100
AcDbEntity
  8
MODELSKETCH_VISIBLE
  6
ByLayer
 62
  256
370
   -1
100
AcDbLine
 10
263.472137759979
 20
127.3760034869669
 11
263.472137759979
 21
113.4760034869669
  0
ARC
  5
150
100
AcDbEntity
  8
MODELSKETCH_VISIBLE
  6
ByLayer
 62
  256
370
   -1
100
AcDbCircle
 10
221.112137759979
 20
92.60498206699337
 40
0.7849999999999696
100
AcDbArc
 50
300.0001262348001
 51
0
  0
ARC
  5
151
100
AcDbEntity
  8
MODELSKETCH_VISIBLE
  6
ByLayer
 62
  256
370
   -1
100
AcDbCircle
 10
269.4263245145011
 20
-88.91866223047491
 40
0.7850000000001044
100
AcDbArc
 50
277.4119025800046
 51
323.8983740729445
  0
ARC
  5
152
100
AcDbEntity
  8
MODELSKETCH_VISIBLE
  6
ByLayer
 62
  256
370
   -1
100
AcDbCircle
 10
222.5543377599791
 20
92.41226547946867
 40
0.7849999999999825
100
AcDbArc
 50
300.0001262348037
 51
0
  0
ARC
  5
153
100
AcDbEntity
  8
MODELSKETCH_VISIBLE
  6
ByLayer
 62
  256
370
   -1
100
AcDbCircle
 10
203.089837759979
 20
-19.43189948042074
 40
0.4999999999999818
100
AcDbArc
 50
89.99484623286752
 51
180
  0
SPLINE
  5
154
100
AcDbEntity
  8
MODELSKETCH_VISIBLE
  6
ByLayer
 62
  256
370
   -1
100
AcDbSpline
210
0
220
0
230
0
 70
    8
 71
    3
 72
    8
 73
    4
 74
    0
 42
1e-07
 43
1e-07
 40
0
 40
0
 40
0
 40
0
 40
1
 40
1
 40
1
 40
1
 10
287.6689376863466
 20
71.15337253777419
 30
0
 10
287.4555376863466
 20
71.08897253777417
 30
0
 10
287.2362376863466
 20
71.04557253777418
 30
0
 10
287.0143376863466
 20
71.02387253777417
 30
0
  0
LINE
  5
155
100
AcDbEntity
  8
MODELSKETCH_VISIBLE
  6
ByLayer
 62
  256
370
   -1
100
AcDbLine
 10
242.5609376863465
 20
-9.811627462225969
 11
256.4609376863465
 21
-9.811627462225967
  0
SPLINE
  5
156
100
AcDbEntity
  8
MODELSKETCH_VISIBLE
  6
ByLayer
 62
  256
370
   -1
100
AcDbSpline
210
0
220
0
230
0
 70
    8
 71
    3
 72
    8
 73
    4
 74
    0
 42
1e-07
 43
1e-07
 40
0
 40
0
 40
0
 40
0
 40
1
 40
1
 40
1
 40
1
 10
297.8392377599791
 20
-13.93929651303312
 30
0
 10
298.1153377599791
 20
-13.93929651303312
 30
0
 10
298.3390377599791
 20
-14.16309651303312
 30
0
 10
298.3391377599791
 20
-14.43909651303314
 30
0
  0
LINE
  5
157
100
AcDbEntity
  8
MODELSKETCH_VISIBLE
  6
ByLayer
 62
  256
370
   -1
100
AcDbLine
 10
223.5609376863465
 20
-7.436627462225981
 11
237.4609376863465
 21
-7.436627462225979
  0
LINE
  5
158
100
AcDbEntity
  8
MODELSKETCH_VISIBLE
  6
ByLayer
 62
  256
370
   -1
100
AcDbLine
 10
298.3391377599791
 20
-14.43909651303314
 11
298.3403927231232
 21
-17.90279479070622
  0
ARC
  5
159
100
AcDbEntity
  8
MODELSKETCH_VISIBLE
  6
ByLayer
 62
  256
370
   -1
100
AcDbCircle
 10
203.374837759979
 20
82.36429503183089
 40
0.7849999999999822
100
AcDbArc
 50
179.999999999998
 51
300.0001262348066
  0
ARC
  5
15A
100
AcDbEntity
  8
MODELSKETCH_VISIBLE
  6
ByLayer
 62
  256
370
   -1
100
AcDbCircle
 10
203.4898377599791
 20
-78.9052315182275
 40
0.9000000000000528
100
AcDbArc
 50
180
 51
209.9737079835876
  0
ARC
  5
15B
100
AcDbEntity
  8
MODELSKETCH_VISIBLE
  6
ByLayer
 62
  256
370
   -1
100
AcDbCircle
 10
297.5551377599791
 20
145.2757034869669
 40
0.7849999999999825
100
AcDbArc
 50
0
 51
90.00000000000418
  0
LINE
  5
15C
100
AcDbEntity
  8
MODELSKETCH_VISIBLE
  6
ByLayer
 62
  256
370
   -1
100
AcDbLine
 10
298.340137759979
 20
145.2757034869669
 11
298.3401377599791
 21
142.0974896419665
  0
SPLINE
  5
15D
100
AcDbEntity
  8
MODELSKETCH_VISIBLE
  6
ByLayer
 62
  256
370
   -1
100
AcDbSpline
210
0
220
0
230
0
 70
    8
 71
    3
 72
    8
 73
    4
 74
    0
 42
1e-07
 43
1e-07
 40
0
 40
0
 40
0
 40
0
 40
1
 40
1
 40
1
 40
1
 10
217.970037759979
 20
57.14990348696687
 30
0
 10
217.334937759979
 20
56.72180348696688
 30
0
 10
216.473137759979
 20
56.88970348696688
 30
0
 10
216.045037759979
 20
57.52480348696685
 30
0
  0
ARC
  5
15E
100
AcDbEntity
  8
MODELSKETCH_VISIBLE
  6
ByLayer
 62
  256
370
   -1
100
AcDbCircle
 10
299.1253926715978
 20
-17.90251037043504
 40
0.7849999999999797
100
AcDbArc
 50
180.0207593394816
 51
269.9972125322876
  0
CIRCLE
  5
15F
100
AcDbEntity
  8
MODELSKETCH_VISIBLE
  6
ByLayer
 62
  256
370
   -1
100
AcDbCircle
 10
228.1992060300857
 20
-81.04395784468325
 40
1.300000000000008
  0
LINE
  5
160
100
AcDbEntity
  8
MODELSKETCH_VISIBLE
  6
ByLayer
 62
  256
370
   -1
100
AcDbLine
 10
221.5929376863465
 20
-8.711327462225944
 11
221.5929376863465
 21
-5.53311361722561
  0
SPLINE
  5
161
100
AcDbEntity
  8
MODELSKETCH_VISIBLE
  6
ByLayer
 62
  256
370
   -1
100
AcDbSpline
210
0
220
0
230
0
 70
    8
 71
    3
 72
    8
 73
    4
 74
    0
 42
1e-07
 43
1e-07
 40
0
 40
0
 40
0
 40
0
 40
1
 40
1
 40
1
 40
1
 10
303.8880376863465
 20
79.03957253777409
 30
0
 10
303.8890376863465
 20
79.03807253777404
 30
0
 10
303.8901376863465
 20
79.03647253777406
 30
0
 10
303.8911376863465
 20
79.03497253777407
 30
0
  0
ARC
  5
162
100
AcDbEntity
  8
MODELSKETCH_VISIBLE
  6
ByLayer
 62
  256
370
   -1
100
AcDbCircle
 10
203.088877950082
 20
51.00347862819471
 40
0.4999999999999798
100
AcDbArc
 50
89.99999030810059
 51
179.9999903081055
  0
ARC
  5
163
100
AcDbEntity
  8
MODELSKETCH_VISIBLE
  6
ByLayer
 62
  256
370
   -1
100
AcDbCircle
 10
220.8079376863465
 20
-5.533113617225638
 40
0.7850000000000152
100
AcDbArc
 50
0
 51
89.9972125322835
  0
SPLINE
  5
164
100
AcDbEntity
  8
MODELSKETCH_VISIBLE
  6
ByLayer
 62
  256
370
   -1
100
AcDbSpline
210
0
220
0
230
0
 70
    8
 71
    3
 72
    8
 73
    4
 74
    0
 42
1e-07
 43
1e-07
 40
0
 40
0
 40
0
 40
0
 40
1
 40
1
 40
1
 40
1
 10
301.9630376863465
 20
79.41447253777422
 30
0
 10
302.5981376863465
 20
79.8425725377742
 30
0
 10
303.4599376863465
 20
79.6746725377742
 30
0
 10
303.8880376863465
 20
79.03957253777423
 30
0
  0
LINE
  5
165
100
AcDbEntity
  8
MODELSKETCH_VISIBLE
  6
ByLayer
 62
  256
370
   -1
100
AcDbLine
 10
279.3395444118376
 20
147.5288356066132
 11
279.3405289448323
 21
146.8461713673206
  0
CIRCLE
  5
166
100
AcDbEntity
  8
MODELSKETCH_VISIBLE
  6
ByLayer
 62
  256
370
   -1
100
AcDbCircle
 10
221.0788685195407
 20
11.35576613152403
 40
1.701228743306443
  0
ARC
  5
167
100
AcDbEntity
  8
MODELSKETCH_VISIBLE
  6
ByLayer
 62
  256
370
   -1
100
AcDbCircle
 10
222.3779376863465
 20
-8.711327462225944
 40
0.7849999999999825
100
AcDbArc
 50
180
 51
270.0000000000021
  0
ARC
  5
168
100
AcDbEntity
  8
MODELSKETCH_VISIBLE
  6
ByLayer
 62
  256
370
   -1
100
AcDbCircle
 10
280.1255281284658
 20
146.8473034869669
 40
0.7850000000000534
100
AcDbArc
 50
180.0826314651234
 51
269.9999999999959
  0
LINE
  5
169
100
AcDbEntity
  8
MODELSKETCH_VISIBLE
  6
ByLayer
 62
  256
370
   -1
100
AcDbLine
 10
295.806959313891
 20
-6.998527462225971
 11
278.3772376863465
 21
-6.998527462225972
  0
ARC
  5
16A
100
AcDbEntity
  8
MODELSKETCH_VISIBLE
  6
ByLayer
 62
  256
370
   -1
100
AcDbCircle
 10
220.897137759979
 20
140.5629034869669
 40
0.9999999999999893
100
AcDbArc
 50
0
 51
90
  0
ARC
  5
16B
100
AcDbEntity
  8
MODELSKETCH_VISIBLE
  6
ByLayer
 62
  256
370
   -1
100
AcDbCircle
 10
295.806959313891
 20
-6.213527462225935
 40
0.7850000000000181
100
AcDbArc
 50
270
 51
359.8947190664184
  0
ARC
  5
16C
100
AcDbEntity
  8
MODELSKETCH_VISIBLE
  6
ByLayer
 62
  256
370
   -1
100
AcDbCircle
 10
203.0888686041144
 20
-4.247255937640304
 40
0.4999999999999969
100
AcDbArc
 50
179.9999903081024
 51
269.9972125322807
  0
LINE
  5
16D
100
AcDbEntity
  8
MODELSKETCH_VISIBLE
  6
ByLayer
 62
  256
370
   -1
100
AcDbLine
 10
223.3411174576722
 20
142.7793459228157
 11
223.3393377599791
 21
141.8108034869668
  0
LINE
  5
16E
100
AcDbEntity
  8
MODELSKETCH_VISIBLE
  6
ByLayer
 62
  256
370
   -1
100
AcDbLine
 10
296.5919579886535
 20
-6.214969898074782
 11
296.5937376863466
 21
-5.246427462225908
  0
LINE
  5
16F
100
AcDbEntity
  8
MODELSKETCH_VISIBLE
  6
ByLayer
 62
  256
370
   -1
100
AcDbLine
 10
240.593531034488
 20
-10.96445958187228
 11
240.5925465014932
 21
-10.28179534257967
  0
ARC
  5
170
100
AcDbEntity
  8
MODELSKETCH_VISIBLE
  6
ByLayer
 62
  256
370
   -1
100
AcDbCircle
 10
241.3785302181214
 20
-10.963327462226
 40
0.7849999999999469
100
AcDbArc
 50
180.0826314651189
 51
270.0000000000041
  0
LINE
  5
171
100
AcDbEntity
  8
MODELSKETCH_VISIBLE
  6
ByLayer
 62
  256
370
   -1
100
AcDbLine
 10
261.3400377599791
 20
146.8457034869669
 11
261.3400377599791
 21
147.5277034869669
  0
LINE
  5
172
100
AcDbEntity
  8
MODELSKETCH_VISIBLE
  6
ByLayer
 62
  256
370
   -1
100
AcDbLine
 10
242.340837759979
 20
-15.65209651303312
 11
242.3408377599791
 21
-14.72269651303314
  0
ARC
  5
173
100
AcDbEntity
  8
MODELSKETCH_VISIBLE
  6
ByLayer
 62
  256
370
   -1
100
AcDbCircle
 10
278.5545452282042
 20
147.5277034869669
 40
0.7849999999999469
100
AcDbArc
 50
0.0826314651192698
 51
90.00000000000418
  0
ARC
  5
174
100
AcDbEntity
  8
MODELSKETCH_VISIBLE
  6
ByLayer
 62
  256
370
   -1
100
AcDbCircle
 10
241.5558377599791
 20
144.3479034869668
 40
0.7849999999999113
100
AcDbArc
 50
269.9999999999959
 51
0
  0
ARC
  5
175
100
AcDbEntity
  8
MODELSKETCH_VISIBLE
  6
ByLayer
 62
  256
370
   -1
100
AcDbCircle
 10
278.3772376863465
 20
-7.783527462225867
 40
0.7849999999999113
100
AcDbArc
 50
89.99999999999582
 51
180
  0
ARC
  5
176
100
AcDbEntity
  8
MODELSKETCH_VISIBLE
  6
ByLayer
 62
  256
370
   -1
100
AcDbCircle
 10
278.5545452282042
 20
-12.47229651303307
 40
0.7849999999999469
100
AcDbArc
 50
0.0826314651199314
 51
90.00000000000418
  0
LINE
  5
177
100
AcDbEntity
  8
MODELSKETCH_VISIBLE
  6
ByLayer
 62
  256
370
   -1
100
AcDbLine
 10
223.3735223828039
 20
-16.93709651303312
 11
223.3735223828039
 21
-18.43367902287447
  0
ARC
  5
178
100
AcDbEntity
  8
MODELSKETCH_VISIBLE
  6
ByLayer
 62
  256
370
   -1
100
AcDbCircle
 10
243.125837759979
 20
145.2773034869669
 40
0.7849999999999291
100
AcDbArc
 50
89.99999999999582
 51
180
  0
ARC
  5
179
100
AcDbEntity
  8
MODELSKETCH_VISIBLE
  6
ByLayer
 62
  256
370
   -1
100
AcDbCircle
 10
223.8735223828039
 20
-16.93709651303312
 40
0.5000000000000073
100
AcDbArc
 50
90
 51
179.9999999999992
  0
ARC
  5
17A
100
AcDbEntity
  8
MODELSKETCH_VISIBLE
  6
ByLayer
 62
  256
370
   -1
100
AcDbCircle
 10
276.8072376863466
 20
-8.712927462226002
 40
0.7849999999999291
100
AcDbArc
 50
269.9999999999959
 51
0
  0
ARC
  5
17B
100
AcDbEntity
  8
MODELSKETCH_VISIBLE
  6
ByLayer
 62
  256
370
   -1
100
AcDbCircle
 10
280.1255281284658
 20
-13.15269651303309
 40
0.7850000000000534
100
AcDbArc
 50
180.0826314651239
 51
269.9999999999959
  0
ARC
  5
17C
100
AcDbEntity
  8
MODELSKETCH_VISIBLE
  6
ByLayer
 62
  256
370
   -1
100
AcDbCircle
 10
243.125837759979
 20
-14.72269651303305
 40
0.7849999999999113
100
AcDbArc
 50
89.99999999999582
 51
180
  0
LINE
  5
17D
100
AcDbEntity
  8
MODELSKETCH_VISIBLE
  6
ByLayer
 62
  256
370
   -1
100
AcDbLine
 10
277.5922376863466
 20
-7.783527462225923
 11
277.5922376863466
 21
-8.71292746222592
  0
ARC
  5
17E
100
AcDbEntity
  8
MODELSKETCH_VISIBLE
  6
ByLayer
 62
  256
370
   -1
100
AcDbCircle
 10
222.8735223828039
 20
-18.43367902287447
 40
0.4999999999999796
100
AcDbArc
 50
269.9948462328675
 51
0
  0
ARC
  5
17F
100
AcDbEntity
  8
MODELSKETCH_VISIBLE
  6
ByLayer
 62
  256
370
   -1
100
AcDbCircle
 10
239.8075473178598
 20
-10.28292746222598
 40
0.7850000000000534
100
AcDbArc
 50
0.0826314651230356
 51
89.99999999999791
  0
ARC
  5
180
100
AcDbEntity
  8
MODELSKETCH_VISIBLE
  6
ByLayer
 62
  256
370
   -1
100
AcDbCircle
 10
262.125037759979
 20
-12.4722965130331
 40
0.7849999999999825
100
AcDbArc
 50
89.99999999999582
 51
180
  0
ARC
  5
181
100
AcDbEntity
  8
MODELSKETCH_VISIBLE
  6
ByLayer
 62
  256
370
   -1
100
AcDbCircle
 10
257.8080376863466
 20
-10.96332746222597
 40
0.7849999999999825
100
AcDbArc
 50
269.9999999999959
 51
0
  0
ARC
  5
182
100
AcDbEntity
  8
MODELSKETCH_VISIBLE
  6
ByLayer
 62
  256
370
   -1
100
AcDbCircle
 10
241.5558377599791
 20
-15.65209651303319
 40
0.7849999999999291
100
AcDbArc
 50
269.9999999999959
 51
0
  0
LINE
  5
183
100
AcDbEntity
  8
MODELSKETCH_VISIBLE
  6
ByLayer
 62
  256
370
   -1
100
AcDbLine
 10
261.3400377599791
 20
-13.15429651303314
 11
261.3400377599791
 21
-12.4722965130331
  0
LINE
  5
184
100
AcDbEntity
  8
MODELSKETCH_VISIBLE
  6
ByLayer
 62
  256
370
   -1
100
AcDbLine
 10
242.340837759979
 20
144.3479034869669
 11
242.340837759979
 21
145.2773034869668
  0
ARC
  5
185
100
AcDbEntity
  8
MODELSKETCH_VISIBLE
  6
ByLayer
 62
  256
370
   -1
100
AcDbCircle
 10
262.125037759979
 20
147.5277034869669
 40
0.7849999999999825
100
AcDbArc
 50
89.99999999999582
 51
180
  0
LINE
  5
186
100
AcDbEntity
  8
MODELSKETCH_VISIBLE
  6
ByLayer
 62
  256
370
   -1
100
AcDbLine
 10
279.3395444118376
 20
-12.47116439338682
 11
279.3405289448323
 21
-13.1538286326794
  0
ARC
  5
187
100
AcDbEntity
  8
MODELSKETCH_VISIBLE
  6
ByLayer
 62
  256
370
   -1
100
AcDbCircle
 10
260.555037759979
 20
146.8457034869668
 40
0.7849999999999825
100
AcDbArc
 50
270
 51
0
  0
ARC
  5
188
100
AcDbEntity
  8
MODELSKETCH_VISIBLE
  6
ByLayer
 62
  256
370
   -1
100
AcDbCircle
 10
260.555037759979
 20
-13.15429651303311
 40
0.7850000000000179
100
AcDbArc
 50
270
 51
0
  0
ARC
  5
189
100
AcDbEntity
  8
MODELSKETCH_VISIBLE
  6
ByLayer
 62
  256
370
   -1
100
AcDbCircle
 10
259.3780376863465
 20
-10.28132746222593
 40
0.7849999999999825
100
AcDbArc
 50
90
 51
180
  0
LINE
  5
18A
100
AcDbEntity
  8
MODELSKETCH_VISIBLE
  6
ByLayer
 62
  256
370
   -1
100
AcDbLine
 10
202.5908069158437
 20
-4.247255853062542
 11
202.5907975698761
 21
51.00347871277244
  0
ENDSEC
  0
SECTION
  2
OBJECTS
  0
DICTIONARY
  5
C
330
0
100
AcDbDictionary
281
    1
  3
ACAD_GROUP
350
D
  0
DICTIONARY
  5
D
330
C
100
AcDbDictionary
281
    1
  0
PLOTSETTINGS
  5
18B
100
AcDbPlotSettings
  6
1x1
 40
0
 41
0
 42
0
 43
0
  0
ENDSEC
  0
EOF
