0
SECTION
2
HEADER
9
$INSUNITS
70
4
9
$ACADVER
1
AC1014
9
$HANDSEED
5
FFFF
0
ENDSEC
0
SECTION
2
TABLES
0
TABLE
2
VPORT
5
8
100
AcDbSymbolTable
0
ENDTAB
0
TABLE
2
LTYPE
5
5
100
AcDbSymbolTable
0
LTYPE
5
14
100
AcDbSymbolTableRecord
100
AcDbLinetypeTableRecord
2
BYBLOCK
70
0
0
LTYPE
5
15
100
AcDbSymbolTableRecord
100
AcDbLinetypeTableRecord
2
BYLAYER
70
0
0
ENDTAB
0
TABLE
2
LAYER
5
2
100
AcDbSymbolTable
70
2
0
LAYER
5
50
100
AcDbSymbolTableRecord
100
AcDbLayerTableRecord
2
0
70
0
6
CONTINUOUS
0
ENDTAB
0
TABLE
2
STYLE
5
3
100
AcDbSymbolTable
70
1
0
STYLE
5
11
100
AcDbSymbolTableRecord
100
AcDbTextStyleTableRecord
2
STANDARD
70
0
0
ENDTAB
0
TABLE
2
VIEW
5
6
100
AcDbSymbolTable
70
0
0
ENDTAB
0
TABLE
2
UCS
5
7
100
AcDbSymbolTable
70
0
0
ENDTAB
0
TABLE
2
APPID
5
9
100
AcDbSymbolTable
70
2
0
APPID
5
12
100
AcDbSymbolTableRecord
100
AcDbRegAppTableRecord
2
ACAD
70
0
0
ENDTAB
0
TABLE
2
DIMSTYLE
5
A
100
AcDbSymbolTable
70
1
0
ENDTAB
0
TABLE
2
BLOCK_RECORD
5
1
100
AcDbSymbolTable
70
1
0
BLOCK_RECORD
5
1F
100
AcDbSymbolTableRecord
100
AcDbBlockTableRecord
2
*MODEL_SPACE
0
BLOCK_RECORD
5
1B
100
AcDbSymbolTableRecord
100
AcDbBlockTableRecord
2
*PAPER_SPACE
0
ENDTAB
0
ENDSEC
0
SECTION
2
BLOCKS
0
BLOCK
5
20
100
AcDbEntity
100
AcDbBlockBegin
2
*MODEL_SPACE
0
ENDBLK
5
21
100
AcDbEntity
100
AcDbBlockEnd
0
BLOCK
5
1C
100
AcDbEntity
100
AcDbBlockBegin
2
*PAPER_SPACE
0
ENDBLK
5
1D
100
AcDbEntity
100
AcDbBlockEnd
0
ENDSEC
0
SECTION
2
ENTITIES
0
LWPOLYLINE
5
100
100
AcDbEntity
8
0
100
AcDbPolyline
90
8
70
1
43
0.0
10
10.000025400050845
20
-67.124002848403691
10
199.54029039309279
20
-67.124002848403677
42
0.41433251442772795
10
200.54029031062987
20
-66.123596737777291
10
200.51748964702699
20
-9.9796294494455076
42
0.41409462032284944
10
199.51748972948994
20
-8.9800355600718831
10
10.000025400050841
20
-8.9800355600719808
42
0.4142135623730947
10
9.0000254000508395
20
-9.9800355600719808
10
9.0000254000508413
20
-66.124002848403705
42
0.41421356237309698
0
LWPOLYLINE
5
101
100
AcDbEntity
8
0
100
AcDbPolyline
90
8
70
1
43
0.0
10
9.0000254000511006
20
-73.124002848411976
10
202.97000254000548
20
-73.124002848403819
42
0.4142135623730816
10
208.9700025400052
20
-67.124002848403805
10
208.97000254000517
20
-8.9800355600719044
42
0.41421356237309659
10
202.97000254000511
20
-2.9800355600719008
10
9.0000254000507862
20
-2.9800355600735804
42
0.41421356237309243
10
3.0000254000508386
20
-8.9800355600735813
10
3.0000254000508439
20
-67.124002848411962
42
0.41421356237310691
0
CIRCLE
5
102
100
AcDbEntity
8
0
100
AcDbCircle
10
76.525151665897909
20
-70.624002848409035
30
0
40
1.6999999999999993
210
0
220
0
230
1
0
LWPOLYLINE
5
103
100
AcDbEntity
8
0
100
AcDbPolyline
90
8
70
1
43
0.0
10
9.0000254000511397
20
-74.12400284841199
10
202.97000254000551
20
-74.124002848403819
42
0.41421356237308204
10
209.97000254000517
20
-67.124002848403805
10
209.97000254000514
20
-8.9800355600719044
42
0.41421356237309781
10
202.97000254000508
20
-1.9800355600719088
10
9.0000254000507773
20
-1.9800355600735808
42
0.41421356237309243
10
2.0000254000508391
20
-8.9800355600735813
10
2.0000254000508431
20
-67.124002848411962
42
0.41421356237310686
0
CIRCLE
5
104
100
AcDbEntity
8
0
100
AcDbCircle
10
135.44487627415808
20
-70.624002848406747
30
0
40
1.6999999999999993
210
0
220
0
230
1
0
CIRCLE
5
105
100
AcDbEntity
8
0
100
AcDbCircle
10
135.44487627415808
20
-5.4800355600719453
30
0
40
1.6999999999999995
210
0
220
0
230
1
0
CIRCLE
5
106
100
AcDbEntity
8
0
100
AcDbCircle
10
6.5251516658979813
20
-69.598876582564941
30
0
40
1.7000000000000004
210
0
220
0
230
1
0
CIRCLE
5
107
100
AcDbEntity
8
0
100
AcDbCircle
10
6.5251516658979112
20
-6.5051618259206769
30
0
40
1.7000000000000004
210
0
220
0
230
1
0
CIRCLE
5
108
100
AcDbEntity
8
0
100
AcDbCircle
10
76.525151665897909
20
-5.4800355600735369
30
0
40
1.7000000000000002
210
0
220
0
230
1
0
CIRCLE
5
109
100
AcDbEntity
8
0
100
AcDbCircle
10
205.44487627415819
20
-69.59887658255667
30
0
40
1.6999999999999915
210
0
220
0
230
1
0
CIRCLE
5
110
100
AcDbEntity
8
0
100
AcDbCircle
10
205.44487627415808
20
-6.505161825918969
30
0
40
1.6999999999999944
210
0
220
0
230
1
0
CIRCLE
5
111
100
AcDbEntity
8
0
100
AcDbCircle
10
6.5251516658979112
20
-6.5051618259206769
30
0
40
1.2
210
0
220
0
230
1
0
CIRCLE
5
112
100
AcDbEntity
8
0
100
AcDbCircle
10
6.5251516658979813
20
-69.598876582564941
30
0
40
1.1999999999999984
210
0
220
0
230
1
0
CIRCLE
5
113
100
AcDbEntity
8
0
100
AcDbCircle
10
76.525151665897909
20
-70.624002848409035
30
0
40
1.200000000000002
210
0
220
0
230
1
0
CIRCLE
5
114
100
AcDbEntity
8
0
100
AcDbCircle
10
135.44487627415808
20
-70.624002848406747
30
0
40
1.1999999999999922
210
0
220
0
230
1
0
CIRCLE
5
115
100
AcDbEntity
8
0
100
AcDbCircle
10
205.44487627415819
20
-69.59887658255667
30
0
40
1.2000000000000011
210
0
220
0
230
1
0
CIRCLE
5
116
100
AcDbEntity
8
0
100
AcDbCircle
10
205.44487627415808
20
-6.505161825918969
30
0
40
1.2
210
0
220
0
230
1
0
CIRCLE
5
117
100
AcDbEntity
8
0
100
AcDbCircle
10
135.44487627415808
20
-5.4800355600719453
30
0
40
1.1999999999999964
210
0
220
0
230
1
0
CIRCLE
5
118
100
AcDbEntity
8
0
100
AcDbCircle
10
76.525151665897909
20
-5.4800355600735369
30
0
40
1.1999999999999997
210
0
220
0
230
1
0
ENDSEC
0
SECTION
2
OBJECTS
0
DICTIONARY
5
C
100
AcDbDictionary
3
ACAD_GROUP
350
D
3
ACAD_MLINESTYLE
350
17
0
DICTIONARY
5
D
100
AcDbDictionary
0
DICTIONARY
5
1A
330
C
100
AcDbDictionary
0
DICTIONARY
5
17
100
AcDbDictionary
0
ENDSEC
0
EOF
