0
SECTION
2
HEADER
9
$INSUNITS
70
4
9
$ACADVER
1
AC1014
9
$HANDSEED
5
FFFF
0
ENDSEC
0
SECTION
2
TABLES
0
TABLE
2
VPORT
5
8
100
AcDbSymbolTable
0
ENDTAB
0
TABLE
2
LTYPE
5
5
100
AcDbSymbolTable
0
LTYPE
5
14
100
AcDbSymbolTableRecord
100
AcDbLinetypeTableRecord
2
BYBLOCK
70
0
0
LTYPE
5
15
100
AcDbSymbolTableRecord
100
AcDbLinetypeTableRecord
2
BYLAYER
70
0
0
ENDTAB
0
TABLE
2
LAYER
5
2
100
AcDbSymbolTable
70
2
0
LAYER
5
50
100
AcDbSymbolTableRecord
100
AcDbLayerTableRecord
2
0
70
0
6
CONTINUOUS
0
ENDTAB
0
TABLE
2
STYLE
5
3
100
AcDbSymbolTable
70
1
0
STYLE
5
11
100
AcDbSymbolTableRecord
100
AcDbTextStyleTableRecord
2
STANDARD
70
0
0
ENDTAB
0
TABLE
2
VIEW
5
6
100
AcDbSymbolTable
70
0
0
ENDTAB
0
TABLE
2
UCS
5
7
100
AcDbSymbolTable
70
0
0
ENDTAB
0
TABLE
2
APPID
5
9
100
AcDbSymbolTable
70
2
0
APPID
5
12
100
AcDbSymbolTableRecord
100
AcDbRegAppTableRecord
2
ACAD
70
0
0
ENDTAB
0
TABLE
2
DIMSTYLE
5
A
100
AcDbSymbolTable
70
1
0
ENDTAB
0
TABLE
2
BLOCK_RECORD
5
1
100
AcDbSymbolTable
70
1
0
BLOCK_RECORD
5
1F
100
AcDbSymbolTableRecord
100
AcDbBlockTableRecord
2
*MODEL_SPACE
0
BLOCK_RECORD
5
1B
100
AcDbSymbolTableRecord
100
AcDbBlockTableRecord
2
*PAPER_SPACE
0
ENDTAB
0
ENDSEC
0
SECTION
2
BLOCKS
0
BLOCK
5
20
100
AcDbEntity
100
AcDbBlockBegin
2
*MODEL_SPACE
0
ENDBLK
5
21
100
AcDbEntity
100
AcDbBlockEnd
0
BLOCK
5
1C
100
AcDbEntity
100
AcDbBlockBegin
2
*PAPER_SPACE
0
ENDBLK
5
1D
100
AcDbEntity
100
AcDbBlockEnd
0
ENDSEC
0
SECTION
2
ENTITIES
0
LWPOLYLINE
5
100
100
AcDbEntity
8
0
100
AcDbPolyline
90
32
70
1
43
0.0
10
10.000025400050845
20
-67.124002848403691
10
199.54029039309279
20
-67.124002848403677
42
0.41433251442773056
10
200.54029031062987
20
-66.123596737777305
10
200.53420937841793
20
-51.150012409838936
42
-0.41433251442773833
10
201.53420929595501
20
-50.149606299212522
10
206.77139954279912
20
-50.14960629921255
42
0.41421356237307161
10
207.77139954279914
20
-49.14960629921255
10
207.77139954279914
20
-46.107695455433138
42
-0.41421356237305601
10
208.77139954279914
20
-45.107695455433117
10
209.97000254000511
20
-45.107695455433131
42
-0.414213562373069
10
210.97000254000517
20
-46.107695455433131
10
210.97000254000517
20
-67.124002848403819
42
-0.41421356237308365
10
202.97000254000548
20
-75.124002848403819
10
9.0000254000511841
20
-75.124002848411976
42
-0.41421356237310691
10
1.0000254000508435
20
-67.124002848411962
10
1.0000254000508391
20
-8.9800355600735813
42
-0.41421356237309243
10
9.0000254000507685
20
-0.98003556007358106
10
202.97000254000508
20
-0.98003556007190129
42
-0.41421356237309748
10
210.97000254000517
20
-8.9800355600719044
10
210.97000254000517
20
-33.687960376007318
42
-0.41421356238843815
10
209.97000253995276
20
-34.687960376007318
10
208.77139954279912
20
-34.687960375944442
42
-0.41421356235772067
10
207.77139954285158
20
-33.687960375944442
10
207.77139954285158
20
-30.930340803304031
42
0.414213562373069
10
206.77139954285155
20
-29.930340803304031
10
201.52518581538277
20
-29.930340803304041
42
-0.41409462032286665
10
200.52518589784569
20
-28.93074691393041
10
200.51748964702705
20
-9.9796294494455076
42
0.41409462032288319
10
199.51748972949002
20
-8.9800355600718831
10
10.000025400050841
20
-8.9800355600719808
42
0.4142135623730947
10
9.0000254000508395
20
-9.9800355600719808
10
9.0000254000508413
20
-66.124002848403705
42
0.41421356237309698
0
CIRCLE
5
101
100
AcDbEntity
8
0
100
AcDbCircle
10
76.525151665897909
20
-70.624002848409035
30
0
40
1.6999999999999993
210
0
220
0
230
1
0
CIRCLE
5
102
100
AcDbEntity
8
0
100
AcDbCircle
10
135.44487627415808
20
-70.624002848406747
30
0
40
1.6999999999999993
210
0
220
0
230
1
0
CIRCLE
5
103
100
AcDbEntity
8
0
100
AcDbCircle
10
135.44487627415808
20
-5.4800355600719453
30
0
40
1.6999999999999995
210
0
220
0
230
1
0
CIRCLE
5
104
100
AcDbEntity
8
0
100
AcDbCircle
10
6.5251516658979813
20
-69.598876582564941
30
0
40
1.7000000000000004
210
0
220
0
230
1
0
CIRCLE
5
105
100
AcDbEntity
8
0
100
AcDbCircle
10
6.5251516658979112
20
-6.5051618259206769
30
0
40
1.7000000000000004
210
0
220
0
230
1
0
CIRCLE
5
106
100
AcDbEntity
8
0
100
AcDbCircle
10
76.525151665897909
20
-5.4800355600735369
30
0
40
1.7000000000000002
210
0
220
0
230
1
0
CIRCLE
5
107
100
AcDbEntity
8
0
100
AcDbCircle
10
205.44487627415819
20
-69.59887658255667
30
0
40
1.6999999999999915
210
0
220
0
230
1
0
CIRCLE
5
108
100
AcDbEntity
8
0
100
AcDbCircle
10
205.44487627415808
20
-6.505161825918969
30
0
40
1.6999999999999944
210
0
220
0
230
1
0
ENDSEC
0
SECTION
2
OBJECTS
0
DICTIONARY
5
C
100
AcDbDictionary
3
ACAD_GROUP
350
D
3
ACAD_MLINESTYLE
350
17
0
DICTIONARY
5
D
100
AcDbDictionary
0
DICTIONARY
5
1A
330
C
100
AcDbDictionary
0
DICTIONARY
5
17
100
AcDbDictionary
0
ENDSEC
0
EOF
