0
SECTION
2
HEADER
9
$INSUNITS
70
4
9
$ACADVER
1
AC1014
9
$HANDSEED
5
FFFF
0
ENDSEC
0
SECTION
2
TABLES
0
TABLE
2
VPORT
5
8
100
AcDbSymbolTable
0
ENDTAB
0
TABLE
2
LTYPE
5
5
100
AcDbSymbolTable
0
LTYPE
5
14
100
AcDbSymbolTableRecord
100
AcDbLinetypeTableRecord
2
BYBLOCK
70
0
0
LTYPE
5
15
100
AcDbSymbolTableRecord
100
AcDbLinetypeTableRecord
2
BYLAYER
70
0
0
ENDTAB
0
TABLE
2
LAYER
5
2
100
AcDbSymbolTable
70
2
0
LAYER
5
50
100
AcDbSymbolTableRecord
100
AcDbLayerTableRecord
2
0
70
0
6
CONTINUOUS
0
ENDTAB
0
TABLE
2
STYLE
5
3
100
AcDbSymbolTable
70
1
0
STYLE
5
11
100
AcDbSymbolTableRecord
100
AcDbTextStyleTableRecord
2
STANDARD
70
0
0
ENDTAB
0
TABLE
2
VIEW
5
6
100
AcDbSymbolTable
70
0
0
ENDTAB
0
TABLE
2
UCS
5
7
100
AcDbSymbolTable
70
0
0
ENDTAB
0
TABLE
2
APPID
5
9
100
AcDbSymbolTable
70
2
0
APPID
5
12
100
AcDbSymbolTableRecord
100
AcDbRegAppTableRecord
2
ACAD
70
0
0
ENDTAB
0
TABLE
2
DIMSTYLE
5
A
100
AcDbSymbolTable
70
1
0
ENDTAB
0
TABLE
2
BLOCK_RECORD
5
1
100
AcDbSymbolTable
70
1
0
BLOCK_RECORD
5
1F
100
AcDbSymbolTableRecord
100
AcDbBlockTableRecord
2
*MODEL_SPACE
0
BLOCK_RECORD
5
1B
100
AcDbSymbolTableRecord
100
AcDbBlockTableRecord
2
*PAPER_SPACE
0
ENDTAB
0
ENDSEC
0
SECTION
2
BLOCKS
0
BLOCK
5
20
100
AcDbEntity
100
AcDbBlockBegin
2
*MODEL_SPACE
0
ENDBLK
5
21
100
AcDbEntity
100
AcDbBlockEnd
0
BLOCK
5
1C
100
AcDbEntity
100
AcDbBlockBegin
2
*PAPER_SPACE
0
ENDBLK
5
1D
100
AcDbEntity
100
AcDbBlockEnd
0
ENDSEC
0
SECTION
2
ENTITIES
0
LWPOLYLINE
5
100
100
AcDbEntity
8
0
100
AcDbPolyline
90
4
70
1
43
0.0
10
102.250190500381
20
-64.149606299212564
10
102.250190500381
20
-50.149606299212557
10
88.250190500380995
20
-50.149606299212557
10
88.250190500380995
20
-64.149606299212564
0
LWPOLYLINE
5
101
100
AcDbEntity
8
0
100
AcDbPolyline
90
4
70
1
43
0.0
10
102.250190500381
20
-45.099568199136343
10
102.250190500381
20
-31.099568199136343
10
88.250190500380995
20
-31.099568199136343
10
88.250190500380995
20
-45.099568199136343
0
CIRCLE
5
102
100
AcDbEntity
8
0
100
AcDbCircle
10
104.77520955041902
20
-47.625095250190498
30
0
40
1.2
210
0
220
0
230
1
0
LWPOLYLINE
5
103
100
AcDbEntity
8
0
100
AcDbPolyline
90
4
70
1
43
0.0
10
107.30000000000001
20
-50.149606299212557
10
107.30000000000001
20
-64.149606299212564
10
121.30000000000022
20
-64.149606299212564
10
121.30000000000022
20
-50.149606299212557
0
LWPOLYLINE
5
104
100
AcDbEntity
8
0
100
AcDbPolyline
90
4
70
1
43
0.0
10
107.30000000000001
20
-31.099568199136343
10
107.30000000000001
20
-45.099568199136343
10
121.30000000000022
20
-45.099568199136343
10
121.30000000000022
20
-31.099568199136343
0
LWPOLYLINE
5
105
100
AcDbEntity
8
0
100
AcDbPolyline
90
10
70
1
43
0.0
10
9.0000254000507685
20
-0.98003556007358106
10
202.97000254000508
20
-0.98003556007190129
42
-0.41421356237309748
10
210.97000254000517
20
-8.9800355600719044
10
210.95451233084117
20
-33.69639055590109
10
210.9826405078864
20
-46.958716681408106
10
210.97000254000517
20
-67.124002848403819
42
-0.41421356237308365
10
202.97000254000548
20
-75.124002848403819
10
9.0000254000511841
20
-75.124002848411976
42
-0.41421356237310691
10
1.0000254000508435
20
-67.124002848411962
10
1.0000254000508391
20
-8.9800355600735813
42
-0.41421356237309243
0
LWPOLYLINE
5
106
100
AcDbEntity
8
0
100
AcDbPolyline
90
4
70
1
43
0.0
10
64.150114300228779
20
-11.998729997460028
10
50.150114300228552
20
-11.998729997460028
10
50.150114300228552
20
-25.998729997460032
10
64.150114300228779
20
-25.998729997460032
0
LWPOLYLINE
5
107
100
AcDbEntity
8
0
100
AcDbPolyline
90
4
70
1
43
0.0
10
50.150114300228552
20
-64.149606299212564
10
64.150114300228779
20
-64.149606299212564
10
64.150114300228779
20
-50.149606299212557
10
50.150114300228552
20
-50.149606299212557
0
LWPOLYLINE
5
108
100
AcDbEntity
8
0
100
AcDbPolyline
90
4
70
1
43
0.0
10
83.200152400304887
20
-31.099568199136343
10
69.200152400304887
20
-31.099568199136343
10
69.200152400304887
20
-45.099568199136343
10
83.200152400304887
20
-45.099568199136343
0
LWPOLYLINE
5
109
100
AcDbEntity
8
0
100
AcDbPolyline
90
4
70
1
43
0.0
10
64.150114300228779
20
-45.099568199136343
10
64.150114300228779
20
-31.099568199136343
10
50.150114300228552
20
-31.099568199136343
10
50.150114300228552
20
-45.099568199136343
0
LWPOLYLINE
5
110
100
AcDbEntity
8
0
100
AcDbPolyline
90
4
70
1
43
0.0
10
121.30000000000022
20
-11.998729997460028
10
107.30000000000001
20
-11.998729997460028
10
107.30000000000001
20
-25.998729997460032
10
121.30000000000022
20
-25.998729997460032
0
LWPOLYLINE
5
111
100
AcDbEntity
8
0
100
AcDbPolyline
90
4
70
1
43
0.0
10
178.45001270002564
20
-50.149606299212557
10
164.44998729997451
20
-50.149606299212557
10
164.44998729997451
20
-64.149606299212564
10
178.45001270002564
20
-64.149606299212564
0
LWPOLYLINE
5
112
100
AcDbEntity
8
0
100
AcDbPolyline
90
4
70
1
43
0.0
10
83.200152400304887
20
-50.149606299212557
10
69.200152400304887
20
-50.149606299212557
10
69.200152400304887
20
-64.149606299212564
10
83.200152400304887
20
-64.149606299212564
0
LWPOLYLINE
5
113
100
AcDbEntity
8
0
100
AcDbPolyline
90
4
70
1
43
0.0
10
164.44998729997451
20
-25.998729997460032
10
178.45001270002564
20
-25.998729997460032
10
178.45001270002564
20
-11.998729997460028
10
164.44998729997451
20
-11.998729997460028
0
LWPOLYLINE
5
114
100
AcDbEntity
8
0
100
AcDbPolyline
90
17
70
1
43
0.0
10
178.45001270002564
20
-31.099568199136343
10
164.44998729997451
20
-31.099568199136343
10
164.44998729997451
20
-45.099568199136343
10
178.45001270002564
20
-45.099568199136343
10
178.45001270002564
20
-33.889065278130595
10
183.5000000000002
20
-33.889065278130595
10
183.5000000000002
20
-45.099568199136343
10
197.5
20
-45.099568199136343
10
197.5
20
-34.889065278130609
42
-0.41421356237308982
10
198.5
20
-33.889065278130609
10
200.66040132080272
20
-33.889065278130609
42
0.99999999999999989
10
200.66040132080272
20
-31.389065278130602
10
197.69999999999999
20
-31.389065278130609
42
-0.41421356237321211
10
197.5
20
-31.189065278130602
10
197.50000000000003
20
-31.129568199136344
42
0.41421356237287826
10
197.47
20
-31.099568199136343
10
183.5000000000002
20
-31.099568199136343
0
CIRCLE
5
115
100
AcDbEntity
8
0
100
AcDbCircle
10
104.77520955041902
20
-28.575057150114283
30
0
40
1.2
210
0
220
0
230
1
0
LWPOLYLINE
5
116
100
AcDbEntity
8
0
100
AcDbPolyline
90
4
70
1
43
0.0
10
102.250190500381
20
-25.998729997460032
10
102.250190500381
20
-11.998729997460028
10
88.250190500380995
20
-11.998729997460028
10
88.250190500380995
20
-25.998729997460032
0
CIRCLE
5
117
100
AcDbEntity
8
0
100
AcDbCircle
10
6.5251516658979112
20
-6.5051618259206769
30
0
40
1.7000000000000004
210
0
220
0
230
1
0
LWPOLYLINE
5
118
100
AcDbEntity
8
0
100
AcDbPolyline
90
4
70
1
43
0.0
10
26.050038100076343
20
-25.998729997460032
10
26.050038100076343
20
-11.998729997460028
10
12.05003810007611
20
-11.998729997460028
10
12.05003810007611
20
-25.998729997460032
0
LWPOLYLINE
5
119
100
AcDbEntity
8
0
100
AcDbPolyline
90
4
70
1
43
0.0
10
202.7480060960122
20
-27.233045466090971
42
0.99999999999999989
10
205.74800609601223
20
-27.233045466090971
10
205.7480060960122
20
-18.233045466090971
42
0.99999999999999989
10
202.7480060960122
20
-18.233045466090971
0
LWPOLYLINE
5
120
100
AcDbEntity
8
0
100
AcDbPolyline
90
4
70
1
43
0.0
10
197.5
20
-25.998729997460032
10
197.5
20
-11.998729997460028
10
183.5000000000002
20
-11.998729997460028
10
183.5000000000002
20
-25.998729997460032
0
LWPOLYLINE
5
121
100
AcDbEntity
8
0
100
AcDbPolyline
90
4
70
1
43
0.0
10
31.100025400050981
20
-31.099568199136343
10
31.100025400050981
20
-45.099568199136343
10
45.100025400050754
20
-45.099568199136343
10
45.100025400050754
20
-31.099568199136343
0
LWPOLYLINE
5
122
100
AcDbEntity
8
0
100
AcDbPolyline
90
4
70
1
43
0.0
10
12.05003810007611
20
-31.099568199136343
10
12.05003810007611
20
-45.099568199136343
10
26.050038100076343
20
-45.099568199136343
10
26.050038100076343
20
-31.099568199136343
0
LWPOLYLINE
5
123
100
AcDbEntity
8
0
100
AcDbPolyline
90
4
70
1
43
0.0
10
31.10000000000014
20
-11.998729997460028
10
31.10000000000014
20
-25.998729997460032
10
45.099999999999902
20
-25.998729997460032
10
45.099999999999902
20
-11.998729997460028
0
LWPOLYLINE
5
124
100
AcDbEntity
8
0
100
AcDbPolyline
90
4
70
1
43
0.0
10
12.05003810007611
20
-64.149606299212564
10
26.050038100076343
20
-64.149606299212564
10
26.050038100076343
20
-50.149606299212557
10
12.05003810007611
20
-50.149606299212557
0
CIRCLE
5
125
100
AcDbEntity
8
0
100
AcDbCircle
10
28.57505715011439
20
-28.575057150114283
30
0
40
1.2
210
0
220
0
230
1
0
CIRCLE
5
126
100
AcDbEntity
8
0
100
AcDbCircle
10
205.44487627415808
20
-6.505161825918969
30
0
40
1.6999999999999944
210
0
220
0
230
1
0
LWPOLYLINE
5
127
100
AcDbEntity
8
0
100
AcDbPolyline
90
4
70
1
43
0.0
10
45.100025400050754
20
-64.149606299212564
10
45.100025400050754
20
-50.149606299212557
10
31.100025400050981
20
-50.149606299212557
10
31.100025400050981
20
-64.149606299212564
0
LWPOLYLINE
5
128
100
AcDbEntity
8
0
100
AcDbPolyline
90
4
70
1
43
0.0
10
145.40000000000009
20
-31.099568199136343
10
145.40000000000009
20
-45.099568199136343
10
159.39999999999992
20
-45.099568199136343
10
159.39999999999992
20
-31.099568199136343
0
CIRCLE
5
129
100
AcDbEntity
8
0
100
AcDbCircle
10
135.44487627415808
20
-70.624002848406747
30
0
40
1.6999999999999993
210
0
220
0
230
1
0
LWPOLYLINE
5
130
100
AcDbEntity
8
0
100
AcDbPolyline
90
4
70
1
43
0.0
10
159.39999999999992
20
-64.149606299212564
10
159.39999999999992
20
-50.149606299212557
10
145.40000000000009
20
-50.149606299212557
10
145.40000000000009
20
-64.149606299212564
0
LWPOLYLINE
5
131
100
AcDbEntity
8
0
100
AcDbPolyline
90
4
70
1
43
0.0
10
183.5000000000002
20
-50.149606299212557
10
183.5000000000002
20
-64.149606299212564
10
197.5
20
-64.149606299212564
10
197.5
20
-50.149606299212557
0
LWPOLYLINE
5
132
100
AcDbEntity
8
0
100
AcDbPolyline
90
4
70
1
43
0.0
10
145.40000000000009
20
-11.998729997460028
10
145.40000000000009
20
-25.998729997460032
10
159.39999999999992
20
-25.998729997460032
10
159.39999999999992
20
-11.998729997460028
0
LWPOLYLINE
5
133
100
AcDbEntity
8
0
100
AcDbPolyline
90
4
70
1
43
0.0
10
126.35026670053342
20
-11.998729997460028
10
126.35026670053342
20
-25.998729997460032
10
140.35026670053341
20
-25.998729997460032
10
140.35026670053341
20
-11.998729997460028
0
CIRCLE
5
134
100
AcDbEntity
8
0
100
AcDbCircle
10
76.525151665897909
20
-70.624002848409035
30
0
40
1.6999999999999993
210
0
220
0
230
1
0
CIRCLE
5
135
100
AcDbEntity
8
0
100
AcDbCircle
10
76.525151665897909
20
-5.4800355600735369
30
0
40
1.7000000000000002
210
0
220
0
230
1
0
LWPOLYLINE
5
136
100
AcDbEntity
8
0
100
AcDbPolyline
90
4
70
1
43
0.0
10
140.35026670053341
20
-50.149606299212557
10
126.35026670053342
20
-50.149606299212557
10
126.35026670053342
20
-64.149606299212564
10
140.35026670053341
20
-64.149606299212564
0
LWPOLYLINE
5
137
100
AcDbEntity
8
0
100
AcDbPolyline
90
4
70
1
43
0.0
10
172.72034544069083
20
-46.629095758191504
42
0.99999999999999989
10
172.72034544069083
20
-49.129095758191511
10
200.66040132080272
20
-49.129095758191511
42
0.99999999999999989
10
200.66040132080272
20
-46.629095758191504
0
LWPOLYLINE
5
138
100
AcDbEntity
8
0
100
AcDbPolyline
90
4
70
1
43
0.0
10
126.35026670053342
20
-45.099568199136343
10
140.35026670053341
20
-45.099568199136343
10
140.35026670053341
20
-31.099568199136343
10
126.35026670053342
20
-31.099568199136343
0
LWPOLYLINE
5
139
100
AcDbEntity
8
0
100
AcDbPolyline
90
4
70
1
43
0.0
10
69.200152400304887
20
-11.998729997460028
10
69.200152400304887
20
-25.998729997460032
10
83.200152400304887
20
-25.998729997460032
10
83.200152400304887
20
-11.998729997460028
0
CIRCLE
5
140
100
AcDbEntity
8
0
100
AcDbCircle
10
135.44487627415808
20
-5.4800355600719453
30
0
40
1.6999999999999995
210
0
220
0
230
1
0
CIRCLE
5
141
100
AcDbEntity
8
0
100
AcDbCircle
10
28.57505715011439
20
-47.625095250190498
30
0
40
1.2
210
0
220
0
230
1
0
CIRCLE
5
142
100
AcDbEntity
8
0
100
AcDbCircle
10
180.97536195072391
20
-28.5750063500127
30
0
40
1.2
210
0
220
0
230
1
0
CIRCLE
5
143
100
AcDbEntity
8
0
100
AcDbCircle
10
6.5251516658979813
20
-69.598876582564941
30
0
40
1.7000000000000004
210
0
220
0
230
1
0
CIRCLE
5
144
100
AcDbEntity
8
0
100
AcDbCircle
10
205.445511529806
20
-69.598418844041191
30
0
40
1.7000000000000002
210
0
220
0
230
1
0
ENDSEC
0
SECTION
2
OBJECTS
0
DICTIONARY
5
C
100
AcDbDictionary
3
ACAD_GROUP
350
D
3
ACAD_MLINESTYLE
350
17
0
DICTIONARY
5
D
100
AcDbDictionary
0
DICTIONARY
5
1A
330
C
100
AcDbDictionary
0
DICTIONARY
5
17
100
AcDbDictionary
0
ENDSEC
0
EOF
