<?xml version="1.0" encoding="UTF-8" standalone="no"?>
<svg
   width="83mm"
   height="30mm"
   viewBox="0 0 83.000004 30"
   version="1.1"
   id="svg20"
   sodipodi:docname="p2-blade1-bottom-engrave-rev1.svg"
   inkscape:version="1.2 (dc2aedaf03, 2022-05-15)"
   xmlns:inkscape="http://www.inkscape.org/namespaces/inkscape"
   xmlns:sodipodi="http://sodipodi.sourceforge.net/DTD/sodipodi-0.dtd"
   xmlns="http://www.w3.org/2000/svg"
   xmlns:svg="http://www.w3.org/2000/svg"
   xmlns:lc="http://www.librecad.org">
  <defs
     id="defs24" />
  <sodipodi:namedview
     id="namedview22"
     pagecolor="#ffffff"
     bordercolor="#000000"
     borderopacity="0.25"
     inkscape:showpageshadow="2"
     inkscape:pageopacity="0.0"
     inkscape:pagecheckerboard="0"
     inkscape:deskcolor="#d1d1d1"
     inkscape:document-units="mm"
     showgrid="false"
     inkscape:zoom="2.2843799"
     inkscape:cx="159.78078"
     inkscape:cy="83.611312"
     inkscape:window-width="1440"
     inkscape:window-height="847"
     inkscape:window-x="-8"
     inkscape:window-y="-8"
     inkscape:window-maximized="1"
     inkscape:current-layer="g1334" />
  <g
     lc:layername="0"
     lc:is_locked="false"
     lc:is_construction="false"
     fill="none"
     stroke="black"
     stroke-width="1"
     id="g18"
     style="stroke:#ff0000;stroke-width:0.1;stroke-dasharray:none;stroke-opacity:1"
     transform="translate(1.5875,1.0583333)">
    <path
       d="m 25.942714,4.5688727 v 0.5 a 1,1 0 0 1 -1,1 H 16.51372 a 1,1 0 0 1 -1,-1 v -0.5 a 1,1 0 0 1 1,-1 h 8.428994 a 1,1 0 0 1 1,1 z"
       id="path2"
       style="stroke:#ff0000;stroke-width:0.1;stroke-dasharray:none;stroke-opacity:1" />
    <path
       d="m 25.942714,20.318873 a 1,1 0 0 1 -1,1 H 16.51372 a 1,1 0 0 1 -1,-1 v -0.5 a 1,1 0 0 1 1,-1 h 8.428994 a 1,1 0 0 1 1,1 z"
       id="path4"
       style="stroke:#ff0000;stroke-width:0.1;stroke-dasharray:none;stroke-opacity:1" />
    <circle
       cx="55.966606"
       cy="24.834187"
       r="1.3"
       id="circle6"
       style="stroke:#ff0000;stroke-width:0.1;stroke-dasharray:none;stroke-opacity:1" />
    <path
       d="m 46.242714,5.0688727 a 1,1 0 0 1 -1,1 H 36.81372 a 1,1 0 0 1 -1,-1 v -0.5 a 1,1 0 0 1 1,-1 h 8.428994 a 1,1 0 0 1 1,1 z"
       id="path8"
       style="stroke:#ff0000;stroke-width:0.1;stroke-dasharray:none;stroke-opacity:1" />
    <path
       d="M 18.055168,27.334187 A 4.0682177,4.0682177 0 0 1 16.481281,27.017406 26.90204,26.90204 0 0 1 9.2428059,22.516126 1,1 0 0 1 8.8987476,21.761315 V 19.428265 7.9682105 a 2,2 0 0 0 -2,-2 H 5.4874491 4.1341948 3.1286914 1.1341949 A 1,1 0 0 1 0.13988002,5.0746907 26.90204,26.90204 0 0 1 0.0016397,3.0994467 3.000268,3.000268 0 0 1 3.000268,0 h 54.466337 17.349682 a 5.2557305,5.2557305 0 1 1 0,10.511461 17.915409,17.915409 0 0 0 -4.272102,-0.5478832 11,11 0 0 0 -11.07758,10.9997262 v 4.370883 a 2,2 0 0 1 -2,2 z"
       id="path10"
       style="stroke:#ff0000;stroke-width:0.1;stroke-dasharray:none;stroke-opacity:1" />
    <circle
       cx="5.4874492"
       cy="2.3682106"
       r="1.3"
       id="circle12"
       style="stroke:#ff0000;stroke-width:0.1;stroke-dasharray:none;stroke-opacity:1" />
    <circle
       cx="20.554646"
       cy="24.756327"
       r="1.3"
       id="circle14"
       style="stroke:#ff0000;stroke-width:0.1;stroke-dasharray:none;stroke-opacity:1" />
    <circle
       cx="74.816284"
       cy="5.2557306"
       r="1.3"
       id="circle16"
       style="stroke:#ff0000;stroke-width:0.1;stroke-dasharray:none;stroke-opacity:1" />
  </g>
  <g
     id="g1334"
     transform="matrix(0.12188406,0,0,0.12188406,19.491018,1.677015)"
     style="fill:#000000;fill-opacity:1;stroke:none">
    <path
       id="path360"
       style="stroke-width:0.104835"
       d="M 31.692135,103.06899 H 205.80101 c 0.6447,0 1.16372,0.51901 1.16372,1.16372 0,0.6447 -0.51902,1.16372 -1.16372,1.16372 H 31.692135 c -0.64471,0 -1.16372,-0.51902 -1.16372,-1.16372 0,-0.64471 0.51901,-1.16372 1.16372,-1.16372 z m 3.03808,15.53264 v -8.97456 l 5.03059,0.11065 c 5.90063,0.12979 6.8508,0.38897 8.0458,2.19474 1.24672,1.88393 1.09084,5.02296 -0.33349,6.71568 -1.16716,1.38709 -1.8298,1.5757 -6.03544,1.71783 l -3.85058,0.13012 -0.069,3.54005 -0.0689,3.54005 h -1.35951 -1.35951 z m 9.60904,-1.11331 c 1.63695,-1.2239 1.63904,-3.83151 0.004,-4.82854 -0.67252,-0.41007 -1.25898,-0.48418 -3.83704,-0.48497 l -3.04321,-9.3e-4 v 3.00135 3.00135 l 3.08807,-0.0824 c 2.67594,-0.0714 3.18154,-0.15224 3.7883,-0.60589 z m 9.82739,9.77733 c 0.0618,-0.17079 1.59919,-4.2 3.41624,-8.9538 l 3.30373,-8.64328 1.5963,0.0727 1.5963,0.0726 3.45948,8.57063 c 1.90272,4.71386 3.45993,8.71038 3.46047,8.88117 7.5e-4,0.21621 -0.48233,0.31054 -1.59018,0.31054 h -1.59115 l -0.94587,-2.60846 -0.94586,-2.60846 h -3.40731 -3.40731 l -0.47765,1.30423 c -0.2627,0.71733 -0.68408,1.89113 -0.93641,2.60845 l -0.45876,1.30424 h -1.59226 c -1.16819,0 -1.5623,-0.0827 -1.47976,-0.31054 z m 10.26701,-8.69485 c -0.32013,-0.85395 -0.8955,-2.43857 -1.27862,-3.52136 -0.38311,-1.0828 -0.74581,-1.80943 -0.80598,-1.61476 -0.0602,0.19467 -0.64081,1.7793 -1.2903,3.52136 l -1.18089,3.16741 h 2.56892 2.56891 z m 40.411155,0.12421 0.0652,-8.88116 4.72006,0.0124 c 4.34889,0.0114 4.80124,0.0548 5.75238,0.55202 2.65392,1.38737 3.33665,4.64525 1.41841,6.76851 l -0.84958,0.94038 0.88401,0.54636 c 2.43801,1.50676 2.48853,5.95504 0.0883,7.76713 -1.31037,0.98924 -2.47947,1.17269 -7.4829,1.17418 l -4.66109,10e-4 0.0652,-8.88117 z m 9.46419,6.07424 c 0.37503,-0.2458 0.86806,-0.83732 1.09561,-1.3145 0.37105,-0.77809 0.37644,-0.97423 0.0523,-1.90138 -0.57071,-1.63235 -1.45098,-2.00445 -4.80216,-2.02995 l -2.76359,-0.0211 -0.0702,2.94539 -0.0702,2.94539 2.93821,-0.0885 c 2.30342,-0.0694 3.0855,-0.18505 3.62007,-0.53541 z m -0.15577,-8.43426 c 1.01574,-1.01672 0.96373,-2.47015 -0.12314,-3.44126 -0.78522,-0.70159 -0.87485,-0.71985 -3.53441,-0.71985 h -2.72874 v 2.50562 2.50562 l 2.85189,-0.0834 c 2.72843,-0.0799 2.88144,-0.11306 3.5344,-0.76665 z m 14.29189,2.36002 0.0652,-8.88116 1.42844,-0.0745 1.42844,-0.0745 v 8.95567 8.95567 h -1.49369 -1.49368 z m 40.24474,0 0.0652,-8.88116 1.42844,-0.0745 1.42844,-0.0745 v 7.83777 7.83776 h 4.34742 4.34743 v 1.1179 1.11791 h -5.84111 -5.84112 z m 20.80865,-0.0621 v -8.94327 h 6.58324 6.58324 v 1.24212 1.24212 h -5.09269 -5.09269 v 2.47888 2.47888 l 4.78217,0.0675 4.78216,0.0674 v 1.11791 1.11791 l -4.78216,0.0675 -4.78217,0.0675 v 2.85151 2.85152 h 5.34111 5.34113 v 1.11791 1.11791 h -6.83167 -6.83167 z m -104.089755,3.2987 c -1.65654,-0.62246 -2.90629,-2.65991 -2.61041,-4.25573 0.47702,-2.57282 3.27666,-3.99157 5.58655,-2.83106 2.7311,1.37216 2.67254,5.53593 -0.0955,6.79306 -0.99912,0.45375 -2.14402,0.57049 -2.88059,0.29373 z m 61.485005,-0.3097 c -1.31138,-0.68154 -1.91867,-1.56538 -2.05574,-2.99182 -0.22059,-2.2957 1.20249,-3.97716 3.52352,-4.16324 1.02523,-0.0822 1.4253,0.008 2.11152,0.47967 1.40192,0.96219 1.88603,1.81277 1.88603,3.31375 0,2.89108 -2.9177,4.68571 -5.46533,3.36164 z m 23.47609,-28.328308 c 0,-2.869302 -0.0839,-5.215599 -0.18632,-5.213995 -0.10253,0.0015 -2.98109,0.844496 -6.39692,1.873093 -7.04463,2.121322 -7.77211,2.266062 -9.30948,1.852092 -1.93271,-0.52043 -2.72873,-1.615705 -3.95359,-5.43998 l -1.06548,-3.326637 2.1865,-2.196676 2.18651,-2.196677 0.63034,0.586579 c 0.89395,0.831879 1.59041,1.144139 2.55185,1.144139 0.45994,0 9.37698,-2.34761 19.81562,-5.21691 10.43864,-2.869299 18.99775,-5.216909 19.02025,-5.216909 0.0226,0 0.10988,0.503417 0.19422,1.118704 0.17229,1.257022 0.86979,2.768989 1.5691,3.401378 1.56286,1.413298 4.53128,1.836712 6.52757,0.931089 0.60631,-0.275053 1.24443,-0.445583 1.41807,-0.378954 0.17363,0.06663 0.49659,0.743347 0.71765,1.503816 l 0.40196,1.382672 -2.04215,2.355464 c -1.12317,1.295509 -2.10987,2.355146 -2.19267,2.354752 -0.0828,-4.97e-4 -0.36714,-0.324062 -0.63191,-0.719268 -0.58226,-0.869104 -1.62248,-1.518794 -2.41382,-1.507567 -0.32049,0.0045 -5.94869,1.487954 -12.50709,3.296461 l -11.92437,3.288194 -0.0675,4.79598 -0.0675,4.79599 -2.08069,0.97504 c -1.14437,0.53627 -2.14805,0.97504 -2.2304,0.97504 -0.0823,0 -0.1497,-2.34761 -0.1497,-5.21691 z m -128.062695,4.73712 c -0.40991,-0.0985 -0.96886,-0.30014 -1.24212,-0.44796 -1.06407,-0.57556 -1.07991,-0.60063 -8.79155,-13.915602 l -1.04313,-1.801075 h -1.35537 -1.35538 v -3.602111 -3.602152 h 2.44102 2.44102 l 3.26973,5.548327 c 1.79836,3.051579 3.48081,5.739337 3.73878,5.972799 0.72203,0.65343 2.05792,0.773903 3.02666,0.272949 0.45865,-0.237181 6.58572,-4.013923 13.6157,-8.392755 7.02998,-4.378835 13.45728,-8.234361 14.28289,-8.567842 1.25341,-0.506273 1.79619,-0.587388 3.28933,-0.491564 2.10827,0.135302 3.37349,0.772214 5.13599,2.585448 1.23734,1.272973 1.34237,1.445292 5.42932,8.907874 3.11156,5.681545 3.11821,4.981858 -0.0627,6.594581 l -1.89617,0.961358 -1.99367,-3.528179 c -2.07514,-3.672366 -2.6763,-4.430746 -3.87109,-4.883469 -1.07544,-0.407503 -2.06216,-0.111133 -4.819,1.447441 l -2.50907,1.418483 1.3431,2.474199 c 0.7387,1.360808 1.34638,2.546122 1.35038,2.634027 0.004,0.0879 -0.88407,0.664843 -1.97352,1.282085 l -1.98082,1.122259 -0.47054,-0.785239 c -0.25881,-0.431881 -0.89556,-1.567774 -1.41499,-2.524207 -0.51945,-0.956434 -0.96733,-1.77147 -0.9953,-1.811193 -0.028,-0.03972 -4.3376,2.688382 -9.57696,6.062457 -5.23937,3.374071 -9.97661,6.328301 -10.52721,6.564951 -1.27787,0.54922 -2.53919,0.73166 -3.48533,0.50415 z m 49.37432,-0.95939 c -1.01187,-0.89551 -1.05581,-0.99398 -1.05581,-2.36586 0,-2.32964 0.49066,-6.043859 1.13286,-8.575463 1.7072,-6.72995 5.37898,-10.912788 12.707815,-14.476513 4.74361,-2.306632 12.99766,-4.645679 15.22497,-4.314484 3.14398,0.467508 9.28222,2.419589 12.8171,4.076086 9.50401,4.453729 14.74401,12.217688 14.84992,22.002714 l 0.0323,2.98109 -1.50469,0.79588 -1.50467,0.79587 -12.60675,-2.24811 -12.60676,-2.2481 -12.71838,2.14947 c -6.995115,1.18221 -12.941975,2.19726 -13.215235,2.25565 -0.32255,0.069 -0.86725,-0.22163 -1.55265,-0.82823 z m 18.562715,-6.489313 8.81205,-0.959978 8.4223,0.984997 c 5.53373,0.647172 8.50629,0.901007 8.66719,0.740111 0.42304,-0.42304 0.92735,-3.073547 0.93139,-4.895128 0.008,-3.779047 -1.30635,-6.671625 -4.45559,-9.802846 -1.71701,-1.707173 -2.59958,-2.357007 -4.60802,-3.39288 -2.53342,-1.306642 -5.67457,-2.505171 -8.00855,-3.05572 -1.23277,-0.290794 -1.44806,-0.260593 -4.099,0.575009 -3.33032,1.049747 -7.19128,2.898346 -9.27102,4.438902 -2.48231,1.838749 -4.8938,5.460931 -5.70238,8.565258 -0.20345,0.781135 -0.36992,2.35337 -0.36992,3.493861 0,1.988223 0.3834,4.287968 0.71266,4.27471 0.0863,-0.0035 4.12225,-0.438307 8.96889,-0.966296 z m 29.31853,-16.97604 c -0.45171,-0.307425 -1.04869,-0.86594 -1.32664,-1.241143 -0.67013,-0.904612 -0.67831,-2.781946 -0.0172,-3.933122 0.52861,-0.920382 2.28945,-1.967932 3.30791,-1.967932 1.00128,0 2.70235,0.968482 3.24594,1.848025 0.6704,1.08473 0.67537,2.964198 0.0107,4.054321 -1.083,1.776271 -3.56616,2.365977 -5.22078,1.239851 z m 60.18104,0.07807 c -2.2792,-1.43081 -2.43118,-4.526357 -0.30989,-6.31131 2.18308,-1.836946 5.75157,-0.359406 6.14082,2.542614 0.15979,1.191371 -0.58804,2.884014 -1.59779,3.616339 -0.99757,0.723503 -3.19724,0.802671 -4.23314,0.152357 z" />
  </g>
</svg>
