0
SECTION
2
HEADER
9
$INSUNITS
70
4
9
$ACADVER
1
AC1014
9
$HANDSEED
5
FFFF
0
ENDSEC
0
SECTION
2
TABLES
0
TABLE
2
VPORT
5
8
100
AcDbSymbolTable
0
ENDTAB
0
TABLE
2
LTYPE
5
5
100
AcDbSymbolTable
0
LTYPE
5
14
100
AcDbSymbolTableRecord
100
AcDbLinetypeTableRecord
2
BYBLOCK
70
0
0
LTYPE
5
15
100
AcDbSymbolTableRecord
100
AcDbLinetypeTableRecord
2
BYLAYER
70
0
0
ENDTAB
0
TABLE
2
LAYER
5
2
100
AcDbSymbolTable
70
2
0
LAYER
5
50
100
AcDbSymbolTableRecord
100
AcDbLayerTableRecord
2
0
70
0
6
CONTINUOUS
0
ENDTAB
0
TABLE
2
STYLE
5
3
100
AcDbSymbolTable
70
1
0
STYLE
5
11
100
AcDbSymbolTableRecord
100
AcDbTextStyleTableRecord
2
STANDARD
70
0
0
ENDTAB
0
TABLE
2
VIEW
5
6
100
AcDbSymbolTable
70
0
0
ENDTAB
0
TABLE
2
UCS
5
7
100
AcDbSymbolTable
70
0
0
ENDTAB
0
TABLE
2
APPID
5
9
100
AcDbSymbolTable
70
2
0
APPID
5
12
100
AcDbSymbolTableRecord
100
AcDbRegAppTableRecord
2
ACAD
70
0
0
ENDTAB
0
TABLE
2
DIMSTYLE
5
A
100
AcDbSymbolTable
70
1
0
ENDTAB
0
TABLE
2
BLOCK_RECORD
5
1
100
AcDbSymbolTable
70
1
0
BLOCK_RECORD
5
1F
100
AcDbSymbolTableRecord
100
AcDbBlockTableRecord
2
*MODEL_SPACE
0
BLOCK_RECORD
5
1B
100
AcDbSymbolTableRecord
100
AcDbBlockTableRecord
2
*PAPER_SPACE
0
ENDTAB
0
ENDSEC
0
SECTION
2
BLOCKS
0
BLOCK
5
20
100
AcDbEntity
100
AcDbBlockBegin
2
*MODEL_SPACE
0
ENDBLK
5
21
100
AcDbEntity
100
AcDbBlockEnd
0
BLOCK
5
1C
100
AcDbEntity
100
AcDbBlockBegin
2
*PAPER_SPACE
0
ENDBLK
5
1D
100
AcDbEntity
100
AcDbBlockEnd
0
ENDSEC
0
SECTION
2
ENTITIES
0
LWPOLYLINE
5
100
100
AcDbEntity
8
0
100
AcDbPolyline
90
23
70
1
43
0.0
10
120.70269807261555
20
7.431276838660521
42
0.41421329459041106
10
121.27111031400239
20
7.0106736209981673
10
137.88657894493977
20
9.4938587873684437
42
0.4142138301558132
10
138.30718254714608
20
10.062271548436257
10
136.23784040846181
20
23.908550440994109
42
0.41421329459044365
10
135.66942816707495
20
24.329153658656463
10
123.44325406272959
20
22.501949452038819
42
-0.17999621442872979
10
122.76087033955423
20
22.64584444560063
42
0.25370907742277121
10
121.61928675888561
20
22.722527623584895
42
-0.14168617866525707
10
120.30051612134432
20
22.525423229375981
42
0.27246421003482801
10
119.17864040893565
20
22.052584566500997
42
-0.10190903360812507
10
118.87740496415455
20
21.784207939229837
42
0.30782773933818913
10
118.63335593393124
20
21.277555731218257
10
118.82128914610863
20
20.020066396643237
42
-0.41187870883670763
10
117.98796868755684
20
18.884451737297969
42
0.49679021631247433
10
117.08396472677181
20
17.199014068022279
42
-0.1416784920311363
10
117.28105218761279
20
15.880311163949523
42
0.14167849203127952
10
117.37959591803359
20
15.220959711912547
42
-0.14167849203111887
10
117.5766833788753
20
13.902256807840052
42
0.141674702953628
10
117.67521967931631
20
13.242921563617941
42
-0.14167636274682022
10
117.87229020679055
20
11.924235592912694
42
0.49678892096194066
10
119.22956604717032
20
10.576751245120724
42
-0.4118781112691543
10
120.35849416061991
20
9.7343968845468396
0
LWPOLYLINE
5
101
100
AcDbEntity
8
0
100
AcDbPolyline
90
20
70
1
43
0.0
10
94.138971023699554
20
31.219195549763441
10
96.429616459232903
20
43.950012700025347
10
82.650876301752533
20
46.429210058420153
10
80.351574935224846
20
33.650285473875876
10
75.185767912875079
20
34.5611566290494
10
76.852959105918217
20
47.224815849631796
10
62.972745745491693
20
49.052171704343323
10
61.14536449072898
20
35.1719583439167
10
73.558856691124902
20
33.537679327208814
10
69.916647379847191
20
12.881683876917256
10
79.050943406673937
20
11.271061037609568
10
79.275894605839724
20
12.546822683739681
10
93.987820644794226
20
9.9527131848845851
10
93.758061842855213
20
8.6777992488359263
10
102.6852060906925
20
7.1037028572658301
10
106.32359214753052
20
27.738015554161901
10
112.73655067310119
20
26.491465582931145
10
115.40787401574811
20
40.234239268478532
10
101.6651003302006
20
42.90556261112522
10
99.219351129461614
20
30.323387464863064
0
LWPOLYLINE
5
102
100
AcDbEntity
8
0
100
AcDbPolyline
90
59
70
1
43
0.0
10
107.84071628143261
20
84.124409448818938
10
105.28533307725891
20
84.124409448818938
42
-0.049542063169438363
10
104.89190299883495
20
84.163488039534116
42
0.053567618524544419
10
12.01343063393147
20
92.636347784390836
42
0.40951762342503217
10
11.029489458979011
20
91.636476735636023
10
11.029489458979015
20
74.513999688614319
42
0.39761562118426075
10
11.972520750426149
20
73.515623724237258
10
12.943455881527143
20
73.460220827451835
42
-0.39761562118425325
10
13.886487172974283
20
72.461844863074774
10
13.886487172974281
20
55.348661493959341
42
0.41193200181814277
10
14.878691238136536
20
54.348691882721084
10
19.788478054531694
20
54.310414341426153
42
-0.41960706581256862
10
20.780339563227358
20
53.284272309813261
10
20.33411314573658
20
36.240622797812783
42
-0.40888893117079822
10
19.32649396728819
20
35.266826913301131
10
14.365758990519364
20
35.306324222041368
42
0.40888675266702817
10
13.358140007497193
20
34.332535800783035
10
12.911300487829836
20
17.270337552531664
42
0.41421531047930782
10
13.884783818668108
20
16.244500264562202
10
36.796056820014705
20
15.644616983091719
42
-0.017456140707711863
10
36.935403018284688
20
15.636094327745131
10
60.539911717031494
20
13.363208402749716
42
-0.019200815898269535
10
60.692077086487345
20
13.342634691991398
10
111.15467831274185
20
4.5354691923008055
42
0.080678048760077475
10
115.96372350485393
20
4.4788120099969255
10
184.51915190304396
20
14.785721798360012
42
-0.022039106206683753
10
184.69440572121567
20
14.804218923049508
10
208.48902092913181
20
16.259508801274276
42
-0.013091406477678758
10
208.59367045901539
20
16.26316287462296
10
231.04162736780904
20
16.458953267451193
42
0.41421506512491774
10
232.03286765119469
20
17.467642001411829
10
231.88404871836372
20
34.520147939062838
42
0.4133312074676348
10
230.87837343707889
20
35.511404849521377
10
228.61100934167888
20
35.498450370188969
42
-0.41333167155843753
10
227.60533404655911
20
36.489708866080058
10
227.45651527583658
20
53.54529503198777
42
-0.41328594506369676
10
228.44458407569348
20
54.553949488889529
10
233.04239859602279
20
54.608635785472543
42
0.41073433642655172
10
234.03050546101102
20
55.608565059641265
10
234.03050546101102
20
72.670586749133349
42
0.41417212838036976
10
233.03064692758272
20
73.670586739126946
10
228.36236805844734
20
73.671247144540786
42
-0.4141721283803802
10
227.36250952501902
20
74.671247134534383
10
227.36250952501902
20
91.744440841719523
42
0.40774625691119387
10
226.38463885886907
20
92.744195958027262
42
0.056067475922682956
10
131.19750082482329
20
84.165036460037115
42
-0.050518962754872838
10
130.79643039356176
20
84.124409448818938
10
129.84074168148319
20
84.124409448818938
42
0.41421356237309503
10
128.84074168148319
20
83.124409448818938
10
128.84074168148319
20
60.041376682753352
42
-0.41421356237309503
10
127.84074168148321
20
59.041376682753359
10
110.34724159754782
20
59.041376682753359
42
0.35903671140698018
10
109.36561439731295
20
58.232185591767241
10
107.18663957327932
20
47.02232664465339
10
93.443840487680944
20
49.693649987299978
10
96.115189230378519
20
63.436423672847354
10
107.64990737241871
20
61.194302647738198
42
0.47163059188402917
10
108.84071628143261
20
62.175929847973059
10
108.84071628143261
20
83.124409448818966
42
0.41421356237308982
0
LWPOLYLINE
5
103
100
AcDbEntity
8
0
100
AcDbPolyline
90
4
70
1
43
0.0
10
66.029235458470794
20
73.405969011938041
10
67.492633985267958
20
87.32926085852182
10
53.569342138684313
20
88.792659385318757
10
52.105943611887149
20
74.869367538734977
0
LWPOLYLINE
5
104
100
AcDbEntity
8
0
100
AcDbPolyline
90
4
70
1
43
0.0
10
73.12278384556771
20
86.60510541021084
10
71.174371348742625
20
72.741351282702567
10
85.038100076200195
20
70.792938785877595
10
86.986537973076125
20
84.656667513335066
0
LWPOLYLINE
5
105
100
AcDbEntity
8
0
100
AcDbPolyline
90
4
70
1
43
0.0
10
55.252273304546634
20
55.236449072898147
10
69.16228092456187
20
53.651612903225789
10
70.747117094234241
20
67.56162052324099
10
56.837109474219005
20
69.146456692913375
0
LWPOLYLINE
5
106
100
AcDbEntity
8
0
100
AcDbPolyline
90
4
70
1
43
0.0
10
46.824688849377708
20
75.243688087376086
10
47.557404114808378
20
89.224511049022098
10
33.576581153162351
20
89.957226314452669
10
32.843865887731909
20
75.976403352806642
0
LWPOLYLINE
5
107
100
AcDbEntity
8
0
100
AcDbPolyline
90
8
70
1
43
0.0
10
114.0513081026163
20
57.899871877724081
10
130.55143510287027
20
57.899871877724081
42
-0.41421356237309243
10
131.5514351028703
20
56.899871877724095
10
131.5514351028703
20
45.899871877724074
42
-0.41421356237309503
10
130.5514351028703
20
44.899871877724074
10
114.0513081026163
20
44.899871877724081
42
-0.41421356237309503
10
113.0513081026163
20
45.899871877724081
10
113.0513081026163
20
56.899871877724088
42
-0.41421356237309503
0
LWPOLYLINE
5
108
100
AcDbEntity
8
0
100
AcDbPolyline
90
4
70
1
43
0.0
10
56.01041402082798
20
35.772872745745417
10
57.327914655829332
20
49.71074422148854
10
43.39006858013704
20
51.028244856489792
10
42.072542545085298
20
37.090373380746783
0
LWPOLYLINE
5
109
100
AcDbEntity
8
0
100
AcDbPolyline
90
4
70
1
43
0.0
10
55.796418592837199
20
16.361315722631389
10
57.138252476504931
20
30.296850393700776
10
43.202717805435675
20
31.638684277368498
10
41.860883921767936
20
17.703149606299121
0
LWPOLYLINE
5
110
100
AcDbEntity
8
0
100
AcDbPolyline
90
4
70
1
43
0.0
10
92.843662687325391
20
83.657404114808173
10
90.172313944627845
20
69.914630429260896
10
103.91511303022622
20
67.243307086614109
10
106.58643637287261
20
80.986080772161614
0
LWPOLYLINE
5
111
100
AcDbEntity
8
0
100
AcDbPolyline
90
4
70
1
43
0.0
10
88.349555499110934
20
50.588874777749538
10
90.660223520447062
20
64.396875793751519
10
76.852222504445081
20
66.707543815087547
10
74.541554483108939
20
52.899542799085566
0
CIRCLE
5
112
100
AcDbEntity
8
0
100
AcDbCircle
10
93.726187452374916
20
65.91313182626368
30
0
40
1.7000000000000002
210
0
220
0
230
1
0
CIRCLE
5
113
100
AcDbEntity
8
0
100
AcDbCircle
10
109.22021844043681
20
15.240030480060911
30
0
40
1.6999999999999993
210
0
220
0
230
1
0
LWPOLYLINE
5
114
100
AcDbEntity
8
0
100
AcDbPolyline
90
20
70
1
43
0.0
10
176.50988379062599
20
35.700039607910611
10
186.77244094488171
20
36.742468884937821
10
185.35765811531633
20
50.670789941579876
10
171.42933705867432
20
49.256007112014224
10
172.72002601454219
20
36.54937130479815
10
167.51302945072013
20
35.77118045431348
10
165.49880619761234
20
48.488417576835232
10
151.67117094234189
20
46.298348996697996
10
153.68940352129459
20
33.555774715535954
10
148.53695372850603
20
32.785735934602599
10
146.20668021336058
20
45.358851917703866
10
132.4410972821947
20
42.807543815087683
10
134.99240538481078
20
29.041986283972516
10
143.6222851665338
20
30.641432071951851
10
146.68676432809025
20
10.13652321290985
10
155.86009145061067
20
11.507486137073634
10
155.66842628377262
20
12.789947713830019
10
170.44321678336854
20
14.998054948718183
10
170.63004909929617
20
13.714871097553878
10
179.59534398275352
20
15.05474339527677
0
LWPOLYLINE
5
115
100
AcDbEntity
8
0
100
AcDbPolyline
90
4
70
1
43
0.0
10
184.96377952755921
20
89.084099568199122
10
171.01704343408693
20
87.863906527813015
10
172.23723647447292
20
73.917195834391691
10
186.18394716789436
20
75.137363474726953
0
LWPOLYLINE
5
116
100
AcDbEntity
8
0
100
AcDbPolyline
90
4
70
1
43
0.0
10
217.50850901701801
20
71.16256032512058
10
217.50850901701801
20
57.162560325120694
10
231.50850901701801
20
57.162560325120694
10
231.50850901701801
20
71.16256032512058
0
LWPOLYLINE
5
117
100
AcDbEntity
8
0
100
AcDbPolyline
90
4
70
1
43
0.0
10
138.54218948437892
20
63.287604775209623
10
141.09349758699517
20
49.522047244094445
10
154.85905511811009
20
52.073329946659896
10
152.3077724155448
20
65.83891287782582
0
LWPOLYLINE
5
118
100
AcDbEntity
8
0
100
AcDbPolyline
90
4
70
1
43
0.0
10
49.833121666243407
20
55.762763525527028
10
50.736576073152044
20
69.733578867157689
10
36.765760731521368
20
70.637033274066539
10
35.862306324612753
20
56.666217932435863
0
LWPOLYLINE
5
119
100
AcDbEntity
8
0
100
AcDbPolyline
90
4
70
1
43
0.0
10
178.07312674625362
20
69.227787655575298
10
179.17155194310394
20
55.270942341884734
10
193.12839725679439
20
56.369367538735105
10
192.02994665989334
20
70.32621285242567
0
CIRCLE
5
120
100
AcDbEntity
8
0
100
AcDbCircle
10
122.1742443484886
20
40.640081280162576
30
0
40
1.6999999999999968
210
0
220
0
230
1
0
LWPOLYLINE
5
121
100
AcDbEntity
8
0
100
AcDbPolyline
90
4
70
1
43
0.0
10
37.26210312420632
20
51.362992125984313
10
23.266903733807567
20
51.729489458978946
10
22.900431800863537
20
37.734290068580222
10
36.89563119126251
20
37.367792735585567
0
LWPOLYLINE
5
122
100
AcDbEntity
8
0
100
AcDbPolyline
90
4
70
1
43
0.0
10
224.84099568199122
20
76.215138430276966
10
224.84099568199122
20
90.215138430276852
10
210.84099568199144
20
90.215138430276852
10
210.84099568199144
20
76.215138430276966
0
LWPOLYLINE
5
123
100
AcDbEntity
8
0
100
AcDbPolyline
90
4
70
1
43
0.0
10
16.41376682753366
20
56.898399796799595
10
30.413766827533664
20
56.898399796799595
10
30.413766827533664
20
70.898399796799595
10
16.41376682753366
20
70.898399796799595
0
LWPOLYLINE
5
124
100
AcDbEntity
8
0
100
AcDbPolyline
90
4
70
1
43
0.0
10
225.06184912369832
20
38.05956311912621
10
224.93967487934967
20
52.059029718059492
10
210.9402082804165
20
51.93688087376178
10
211.06238252476513
20
37.937414274828484
0
LWPOLYLINE
5
125
100
AcDbEntity
8
0
100
AcDbPolyline
90
4
70
1
43
0.0
10
212.3226822453644
20
57.028981457962907
10
211.87071374142761
20
71.021666243332447
10
197.87800355600709
20
70.569697739395451
10
198.32997205994411
20
56.577012954025925
0
LWPOLYLINE
5
126
100
AcDbEntity
8
0
100
AcDbPolyline
90
4
70
1
43
0.0
10
191.95080010160018
20
37.01694183388372
10
205.93406146812302
20
37.700838201676333
10
205.25016510033041
20
51.684124968249883
10
191.26687833375667
20
51.000203200406418
0
LWPOLYLINE
5
127
100
AcDbEntity
8
0
100
AcDbPolyline
90
4
70
1
43
0.0
10
31.846101092202161
20
18.317754635509353
10
32.212573025145957
20
32.312954025908084
10
18.217373634747219
20
32.679451358902718
10
17.850901701803423
20
18.684251968503986
0
LWPOLYLINE
5
128
100
AcDbEntity
8
0
100
AcDbPolyline
90
4
70
1
43
0.0
10
134.09425958851921
20
67.653289306578699
10
147.82763525527068
20
70.372567945135884
10
145.10835661671308
20
84.10594361188727
10
131.37498094996181
20
81.386664973329971
0
CIRCLE
5
129
100
AcDbEntity
8
0
100
AcDbCircle
10
214.75742951485901
20
73.152146304292614
30
0
40
1.6999999999999909
210
0
220
0
230
1
0
LWPOLYLINE
5
130
100
AcDbEntity
8
0
100
AcDbPolyline
90
4
70
1
43
0.0
10
191.3612903225808
20
75.499898399796848
10
205.3479806959615
20
76.11056642113283
10
204.7373126746254
20
90.097256794513569
10
190.7506223012447
20
89.486588773177573
0
LWPOLYLINE
5
131
100
AcDbEntity
8
0
100
AcDbPolyline
90
4
70
1
43
0.0
10
212.97787655575334
20
32.826238252476514
10
213.12448564897142
20
18.827000254000499
10
227.12372364744741
20
18.973609347218602
10
226.97711455422933
20
32.972847345694731
0
LWPOLYLINE
5
132
100
AcDbEntity
8
0
100
AcDbPolyline
90
4
70
1
43
0.0
10
202.35593091186183
20
32.473456946913871
10
188.3820421640844
20
31.618796037592123
10
189.23672847345694
20
17.644907289814569
10
203.21061722123454
20
18.49956819913643
0
CIRCLE
5
133
100
AcDbEntity
8
0
100
AcDbCircle
10
37.846075692151324
20
34.671069342138708
30
0
40
1.7000000000000017
210
0
220
0
230
1
0
CIRCLE
5
134
100
AcDbEntity
8
0
100
AcDbCircle
10
144.78028956057909
20
15.240030480060911
30
0
40
1.699999999999996
210
0
220
0
230
1
0
CIRCLE
5
135
100
AcDbEntity
8
0
100
AcDbCircle
10
30.099060198120469
20
73.533147066294177
30
0
40
1.7000000000000002
210
0
220
0
230
1
0
LWPOLYLINE
5
136
100
AcDbEntity
8
0
100
AcDbPolyline
90
4
70
1
43
0.0
10
27.556261112522179
20
76.113538227076461
10
27.556261112522179
20
90.113538227076447
10
13.556261112522181
20
90.113538227076447
10
13.556261112522181
20
76.113538227076461
0
CIRCLE
5
137
100
AcDbEntity
8
0
100
AcDbCircle
10
207.64541529083073
20
35.306070612141184
30
0
40
1.7000000000000024
210
0
220
0
230
1
0
LWPOLYLINE
5
138
100
AcDbEntity
8
0
100
AcDbPolyline
90
4
70
1
43
0.0
10
158.25788671577359
20
66.78892557785116
10
160.0610363220726
20
52.905537211074375
10
173.94442468884949
20
54.708661417322794
10
172.14127508255021
20
68.592075184150417
0
LWPOLYLINE
5
139
100
AcDbEntity
8
0
100
AcDbPolyline
90
4
70
1
43
0.0
10
164.88082296164592
20
87.261366522732956
10
151.0363982727965
20
85.17995935991884
10
153.11780543561099
20
71.33553467106934
10
166.96223012446009
20
73.416967233934542
0
CIRCLE
5
140
100
AcDbEntity
8
0
100
AcDbCircle
10
150.87630175260352
20
68.707137414274825
30
0
40
1.7000000000000055
210
0
220
0
230
1
0
LINE
5
141
100
AcDbEntity
8
0
100
AcDbLine
10
119.05395953613754
20
21.845968492286062
30
0
11
119.05503274458937
21
21.846128883507472
31
0
0
LINE
5
142
100
AcDbEntity
8
0
100
AcDbLine
10
167.340358596172
20
35.734268751154808
30
0
11
167.33873507494741
21
35.745131985324726
31
0
0
ENDSEC
0
SECTION
2
OBJECTS
0
DICTIONARY
5
C
100
AcDbDictionary
3
ACAD_GROUP
350
D
3
ACAD_MLINESTYLE
350
17
0
DICTIONARY
5
D
100
AcDbDictionary
0
DICTIONARY
5
1A
330
C
100
AcDbDictionary
0
DICTIONARY
5
17
100
AcDbDictionary
0
ENDSEC
0
EOF
