0
SECTION
2
HEADER
9
$INSUNITS
70
4
9
$ACADVER
1
AC1014
9
$HANDSEED
5
FFFF
0
ENDSEC
0
SECTION
2
TABLES
0
TABLE
2
VPORT
5
8
100
AcDbSymbolTable
0
ENDTAB
0
TABLE
2
LTYPE
5
5
100
AcDbSymbolTable
0
LTYPE
5
14
100
AcDbSymbolTableRecord
100
AcDbLinetypeTableRecord
2
BYBLOCK
70
0
0
LTYPE
5
15
100
AcDbSymbolTableRecord
100
AcDbLinetypeTableRecord
2
BYLAYER
70
0
0
ENDTAB
0
TABLE
2
LAYER
5
2
100
AcDbSymbolTable
70
2
0
LAYER
5
50
100
AcDbSymbolTableRecord
100
AcDbLayerTableRecord
2
0
70
0
6
CONTINUOUS
0
ENDTAB
0
TABLE
2
STYLE
5
3
100
AcDbSymbolTable
70
1
0
STYLE
5
11
100
AcDbSymbolTableRecord
100
AcDbTextStyleTableRecord
2
STANDARD
70
0
0
ENDTAB
0
TABLE
2
VIEW
5
6
100
AcDbSymbolTable
70
0
0
ENDTAB
0
TABLE
2
UCS
5
7
100
AcDbSymbolTable
70
0
0
ENDTAB
0
TABLE
2
APPID
5
9
100
AcDbSymbolTable
70
2
0
APPID
5
12
100
AcDbSymbolTableRecord
100
AcDbRegAppTableRecord
2
ACAD
70
0
0
ENDTAB
0
TABLE
2
DIMSTYLE
5
A
100
AcDbSymbolTable
70
1
0
ENDTAB
0
TABLE
2
BLOCK_RECORD
5
1
100
AcDbSymbolTable
70
1
0
BLOCK_RECORD
5
1F
100
AcDbSymbolTableRecord
100
AcDbBlockTableRecord
2
*MODEL_SPACE
0
BLOCK_RECORD
5
1B
100
AcDbSymbolTableRecord
100
AcDbBlockTableRecord
2
*PAPER_SPACE
0
ENDTAB
0
ENDSEC
0
SECTION
2
BLOCKS
0
BLOCK
5
20
100
AcDbEntity
100
AcDbBlockBegin
2
*MODEL_SPACE
0
ENDBLK
5
21
100
AcDbEntity
100
AcDbBlockEnd
0
BLOCK
5
1C
100
AcDbEntity
100
AcDbBlockBegin
2
*PAPER_SPACE
0
ENDBLK
5
1D
100
AcDbEntity
100
AcDbBlockEnd
0
ENDSEC
0
SECTION
2
ENTITIES
0
LWPOLYLINE
5
100
100
AcDbEntity
8
0
100
AcDbPolyline
90
48
70
1
43
0.0
10
112.34071628143261
20
84.124409448818938
10
105.28533307725891
20
84.124409448818938
42
-0.049542063169438363
10
104.89190299883495
20
84.163488039534116
42
0.053567618524544419
10
12.01343063393147
20
92.636347784390836
42
0.40951762342503217
10
11.029489458979011
20
91.636476735636023
10
11.029489458979015
20
74.513999688614319
42
0.39761562118426075
10
11.972520750426149
20
73.515623724237258
10
12.943455881527143
20
73.460220827451835
42
-0.39761562118425325
10
13.886487172974283
20
72.461844863074774
10
13.886487172974281
20
55.348661493959341
42
0.41193200181814277
10
14.878691238136536
20
54.348691882721084
10
19.788478054531694
20
54.310414341426153
42
-0.41960706581256862
10
20.780339563227358
20
53.284272309813261
10
20.33411314573658
20
36.240622797812783
42
-0.40888893117079822
10
19.32649396728819
20
35.266826913301131
10
14.365758990519364
20
35.306324222041368
42
0.40888675266702817
10
13.358140007497193
20
34.332535800783035
10
12.911300487829836
20
17.270337552531664
42
0.41421531047930782
10
13.884783818668108
20
16.244500264562202
10
36.796056820014705
20
15.644616983091719
42
-0.017456140707711863
10
36.935403018284688
20
15.636094327745131
10
60.539911717031494
20
13.363208402749716
42
-0.019200815898269535
10
60.692077086487345
20
13.342634691991398
10
111.15467831274185
20
4.5354691923008055
42
0.080678048760077475
10
115.96372350485393
20
4.4788120099969255
10
184.51915190304396
20
14.785721798360012
42
-0.022039106206683753
10
184.69440572121567
20
14.804218923049508
10
208.48902092913181
20
16.259508801274276
42
-0.013091406477678758
10
208.59367045901539
20
16.26316287462296
10
231.04162736780904
20
16.458953267451193
42
0.41421506512491774
10
232.03286765119469
20
17.467642001411829
10
231.88404871836372
20
34.520147939062838
42
0.4133312074676348
10
230.87837343707889
20
35.511404849521377
10
228.61100934167888
20
35.498450370188969
42
-0.41333167155843753
10
227.60533404655911
20
36.489708866080058
10
227.45651527583658
20
53.54529503198777
42
-0.41328594506369676
10
228.44458407569348
20
54.553949488889529
10
233.04239859602279
20
54.608635785472543
42
0.41073433642655172
10
234.03050546101102
20
55.608565059641265
10
234.03050546101102
20
72.670586749133349
42
0.41417212838036976
10
233.03064692758272
20
73.670586739126946
10
228.36236805844734
20
73.671247144540786
42
-0.4141721283803802
10
227.36250952501902
20
74.671247134534383
10
227.36250952501902
20
91.744440841719523
42
0.40774625691119387
10
226.38463885886907
20
92.744195958027262
42
0.056067475922682956
10
131.19750082482329
20
84.165036460037115
42
-0.050518962754872838
10
130.79643039356176
20
84.124409448818938
10
125.34074168148321
20
84.124409448818938
0
CIRCLE
5
101
100
AcDbEntity
8
0
100
AcDbCircle
10
122.1742443484886
20
40.640081280162576
30
0
40
1.2999999999999958
210
0
220
0
230
1
0
CIRCLE
5
102
100
AcDbEntity
8
0
100
AcDbCircle
10
93.726187452374916
20
65.91313182626368
30
0
40
1.3000000000000016
210
0
220
0
230
1
0
CIRCLE
5
103
100
AcDbEntity
8
0
100
AcDbCircle
10
109.22021844043681
20
15.240030480060911
30
0
40
1.3000000000000043
210
0
220
0
230
1
0
CIRCLE
5
104
100
AcDbEntity
8
0
100
AcDbCircle
10
207.64541529083073
20
35.306070612141184
30
0
40
1.2999999999999932
210
0
220
0
230
1
0
CIRCLE
5
105
100
AcDbEntity
8
0
100
AcDbCircle
10
37.846075692151324
20
34.671069342138708
30
0
40
1.3000000000000012
210
0
220
0
230
1
0
CIRCLE
5
106
100
AcDbEntity
8
0
100
AcDbCircle
10
214.75742951485901
20
73.152146304292614
30
0
40
1.300000000000008
210
0
220
0
230
1
0
CIRCLE
5
107
100
AcDbEntity
8
0
100
AcDbCircle
10
144.78028956057909
20
15.240030480060911
30
0
40
1.299999999999994
210
0
220
0
230
1
0
CIRCLE
5
108
100
AcDbEntity
8
0
100
AcDbCircle
10
150.87630175260352
20
68.707137414274825
30
0
40
1.2999999999999956
210
0
220
0
230
1
0
CIRCLE
5
109
100
AcDbEntity
8
0
100
AcDbCircle
10
30.099060198120469
20
73.533147066294177
30
0
40
1.3000000000000012
210
0
220
0
230
1
0
ENDSEC
0
SECTION
2
OBJECTS
0
DICTIONARY
5
C
100
AcDbDictionary
3
ACAD_GROUP
350
D
3
ACAD_MLINESTYLE
350
17
0
DICTIONARY
5
D
100
AcDbDictionary
0
DICTIONARY
5
1A
330
C
100
AcDbDictionary
0
DICTIONARY
5
17
100
AcDbDictionary
0
ENDSEC
0
EOF
