<?xml version="1.0" encoding="UTF-8" standalone="no"?>
<svg
   width="70mm"
   height="50mm"
   viewBox="0 0 70 49.999999"
   version="1.1"
   id="svg196"
   sodipodi:docname="p6-00r1-engrave-faceup.svg"
   xml:space="preserve"
   inkscape:version="1.2.2 (732a01da63, 2022-12-09)"
   xmlns:inkscape="http://www.inkscape.org/namespaces/inkscape"
   xmlns:sodipodi="http://sodipodi.sourceforge.net/DTD/sodipodi-0.dtd"
   xmlns="http://www.w3.org/2000/svg"
   xmlns:svg="http://www.w3.org/2000/svg"
   xmlns:lc="http://www.librecad.org"><defs
     id="defs200" /><sodipodi:namedview
     id="namedview198"
     pagecolor="#ffffff"
     bordercolor="#000000"
     borderopacity="0.25"
     inkscape:showpageshadow="2"
     inkscape:pageopacity="0.0"
     inkscape:pagecheckerboard="0"
     inkscape:deskcolor="#d1d1d1"
     inkscape:document-units="mm"
     showgrid="false"
     inkscape:zoom="2.2076463"
     inkscape:cx="127.73785"
     inkscape:cy="84.252625"
     inkscape:window-width="1440"
     inkscape:window-height="847"
     inkscape:window-x="-8"
     inkscape:window-y="-8"
     inkscape:window-maximized="1"
     inkscape:current-layer="svg196" /><g
     lc:layername="0"
     lc:is_locked="false"
     lc:is_construction="false"
     fill="none"
     stroke="black"
     stroke-width="1"
     id="g252"
     style="stroke:#ff0000;stroke-width:0.1;stroke-dasharray:none;stroke-opacity:1"
     transform="matrix(-1,0,0,1,68.277114,1.108)"><path
       d="m 12.515011,1.9999837 h 9.036018 a 0.8,0.8 0 0 0 0.8,-0.8 V 0.8 a 0.8,0.8 0 0 1 0.8,-0.8 h 41.018085 a 3,3 0 0 1 3,3 v 42.050063 a 3,3 0 0 1 -3,3 H 3 a 3,3 0 0 1 -3,-3 V 3 A 3,3 0 0 1 3,0 h 7.915011 a 0.8,0.8 0 0 1 0.8,0.8 v 0.3999837 a 0.8,0.8 0 0 0 0.8,0.8 z"
       id="path242"
       style="stroke:#ff0000;stroke-width:0.1;stroke-dasharray:none;stroke-opacity:1" /><circle
       cx="2.5251262"
       cy="2.5251262"
       r="1.2"
       id="circle244"
       style="stroke:#ff0000;stroke-width:0.1;stroke-dasharray:none;stroke-opacity:1" /><circle
       cx="64.64399"
       cy="45.524937"
       r="1.2"
       id="circle246"
       style="stroke:#ff0000;stroke-width:0.1;stroke-dasharray:none;stroke-opacity:1" /><circle
       cx="2.5251262"
       cy="45.524937"
       r="1.2"
       id="circle248"
       style="stroke:#ff0000;stroke-width:0.1;stroke-dasharray:none;stroke-opacity:1" /><circle
       cx="64.64399"
       cy="2.5251262"
       r="1.2"
       id="circle250"
       style="stroke:#ff0000;stroke-width:0.1;stroke-dasharray:none;stroke-opacity:1" /></g><g
     id="g2636"
     transform="matrix(0.35189473,0,0,0.35189473,-20.148706,-62.815204)"
     style="fill:none;fill-opacity:1"><path
       id="rect1597"
       style="fill:#000000;fill-opacity:1;stroke:#000000;stroke-width:0.0527549"
       d="m 138.60481,252.3812 h 87.61475 c 0.32443,0 0.58561,0.26117 0.58561,0.5856 0,0.32443 -0.26118,0.58561 -0.58561,0.58561 h -87.61475 c -0.32443,0 -0.5856,-0.26118 -0.5856,-0.58561 0,-0.32443 0.26117,-0.5856 0.5856,-0.5856 z m -33.72445,16.44359 c -4.32029,-0.49227 -8.658901,-2.30456 -11.938612,-4.98691 -1.290696,-1.05561 -3.258123,-3.15737 -4.216789,-4.5047 -1.049247,-1.47463 -2.458392,-4.26644 -3.026224,-5.99557 -3.183696,-9.69483 0.462916,-20.33779 8.91438,-26.0174 2.426539,-1.6307 5.25722,-2.81388 8.259765,-3.45245 1.42946,-0.30402 1.82162,-0.33437 4.3827,-0.33925 2.45536,-0.005 2.99384,0.0313 4.23788,0.28288 4.60118,0.93057 8.45632,2.94902 11.68888,6.11997 3.63182,3.5626 5.88103,7.95818 6.63558,12.96778 0.24686,1.63898 0.24594,4.94068 -0.002,6.59042 -1.55432,10.3485 -9.76091,18.20202 -20.2116,19.34207 -1.38965,0.15159 -3.35865,0.14875 -4.72411,-0.007 z m 8.87582,-2.7305 c 1.82104,-0.5869 4.4848,-1.96736 6.00056,-3.10972 10.14783,-7.64799 11.33403,-22.05739 2.57279,-31.253 -2.7251,-2.8602 -6.78964,-5.09993 -10.70196,-5.89721 -11.47511,-2.33848 -22.444141,4.97312 -24.770937,16.51149 -0.246636,1.22305 -0.287203,1.79676 -0.28221,3.99111 0.0063,2.75845 0.165618,3.87101 0.882203,6.15975 0.428113,1.36737 1.170066,3.09111 1.330515,3.09111 0.07074,0 1.709532,-1.58051 3.641754,-3.51223 l 3.513132,-3.51222 -0.75007,0.0865 c -0.412538,0.0476 -1.111999,0.12723 -1.554356,0.17703 -0.442359,0.0498 -1.323488,0.0513 -1.958067,0.003 -1.411165,-0.10673 -2.032257,-0.41042 -2.634092,-1.28799 -0.357656,-0.52152 -0.416593,-0.71294 -0.416593,-1.35308 0,-0.85295 0.398698,-2.15914 1.059699,-3.47171 0.954098,-1.89459 3.187324,-4.48705 6.225948,-7.22745 1.213245,-1.09418 1.952397,-1.89519 2.910677,-3.15427 0.706456,-0.92821 1.489167,-1.90529 1.739357,-2.17128 0.4269,-0.45387 0.48712,-0.47851 0.97897,-0.40064 0.28826,0.0456 1.03039,0.32619 1.6492,0.62346 0.89004,0.42756 1.88254,0.72776 4.75044,1.43684 1.99394,0.493 4.21602,1.04378 4.93796,1.22395 3.78148,0.94372 6.88835,2.50797 7.5735,3.81313 0.24725,0.47098 0.2209,1.27442 -0.0598,1.82471 -0.47974,0.94038 -2.40517,2.46599 -5.24035,4.15218 l -1.53955,0.91563 0.0332,0.62567 c 0.0316,0.59612 0.012,0.6391 -0.41555,0.90969 l -0.44875,0.28401 0.0628,0.78826 c 0.0549,0.68964 0.0298,0.81806 -0.20136,1.02641 -0.14529,0.13098 -0.26416,0.38947 -0.26416,0.57443 0,0.18496 -0.11307,0.43861 -0.25127,0.56368 -0.31062,0.2811 -0.62382,1.299 -0.62382,2.02743 0,0.40218 -0.0754,0.62091 -0.28679,0.83234 -0.27244,0.27244 -0.4034,0.29048 -2.61565,0.36019 -2.63471,0.083 -2.78857,0.13164 -3.21698,1.01663 -0.17875,0.36924 -0.25617,0.77807 -0.25617,1.35283 v 0.82368 l 0.65631,0.37149 c 1.13911,0.64477 2.18491,1.51159 2.86854,2.37761 0.36365,0.46068 0.7576,0.94403 0.87546,1.07412 0.60989,0.67321 1.11122,2.38701 1.68063,5.74534 l 0.35716,2.10649 0.50005,-0.0684 c 0.27502,-0.0377 1.03447,-0.24069 1.68765,-0.4512 z m 26.37745,-5.89679 v -4.51616 l 2.53148,0.0557 c 2.96931,0.0653 3.44745,0.19574 4.0488,1.10444 0.62737,0.94803 0.54893,2.52764 -0.16782,3.37945 -0.58734,0.69801 -0.92079,0.79292 -3.03715,0.86444 l -1.93768,0.0655 -0.0347,1.78142 -0.0347,1.78142 h -0.68413 -0.68413 z m 4.83544,-0.56023 c 0.82375,-0.61589 0.8248,-1.92809 0.002,-2.42981 -0.33842,-0.20635 -0.63354,-0.24365 -1.93087,-0.24405 l -1.53139,-4.7e-4 v 1.51034 1.51033 l 1.55397,-0.0415 c 1.34658,-0.0359 1.60101,-0.0766 1.90634,-0.3049 z m 4.94533,4.92013 c 0.0311,-0.0859 0.80473,-2.11352 1.71911,-4.50572 l 1.6625,-4.34945 0.80328,0.0366 0.80329,0.0366 1.74088,4.31289 c 0.95748,2.3721 1.74109,4.38322 1.74137,4.46917 3.7e-4,0.1088 -0.24272,0.15627 -0.80021,0.15627 h -0.8007 l -0.47597,-1.31262 -0.47598,-1.31263 h -1.71462 -1.71462 l -0.24036,0.65631 c -0.1322,0.36097 -0.34425,0.95165 -0.47122,1.31262 l -0.23086,0.65632 h -0.80125 c -0.58786,0 -0.78618,-0.0416 -0.74464,-0.15627 z m 5.16654,-4.37541 c -0.16109,-0.42972 -0.45063,-1.22713 -0.64342,-1.77201 -0.19279,-0.54489 -0.37531,-0.91054 -0.40559,-0.81258 -0.0303,0.098 -0.32246,0.89538 -0.6493,1.77202 l -0.59424,1.59389 h 1.29272 1.29273 z m 20.33563,0.0625 0.0328,-4.46916 2.37522,0.006 c 2.18844,0.006 2.41607,0.0276 2.89471,0.27779 1.3355,0.69814 1.67906,2.33757 0.71376,3.40603 l -0.42752,0.47322 0.44485,0.27494 c 1.22685,0.75823 1.25227,2.99668 0.0444,3.90856 -0.65941,0.4978 -1.24772,0.59012 -3.76553,0.59087 l -2.34555,5.3e-4 0.0328,-4.46917 z m 4.76255,3.05666 c 0.18872,-0.12369 0.43682,-0.42135 0.55133,-0.66147 0.18672,-0.39156 0.18943,-0.49026 0.0263,-0.95681 -0.28719,-0.82143 -0.73016,-1.00868 -2.41653,-1.02151 l -1.39069,-0.0106 -0.0353,1.48218 -0.0353,1.48217 1.47856,-0.0445 c 1.15912,-0.0349 1.55268,-0.0931 1.82169,-0.26943 z m -0.0784,-4.24427 c 0.51114,-0.51163 0.48497,-1.24302 -0.062,-1.73171 -0.39514,-0.35305 -0.44024,-0.36224 -1.77858,-0.36224 h -1.37315 v 1.26088 1.26087 l 1.43512,-0.042 c 1.37299,-0.0402 1.44999,-0.0569 1.77857,-0.38579 z m 7.19194,1.18761 0.0328,-4.46916 0.71881,-0.0375 0.71882,-0.0375 v 4.50666 4.50665 h -0.75165 -0.75165 z m 20.25189,0 0.0328,-4.46916 0.71882,-0.0375 0.71882,-0.0375 v 3.94411 3.9441 h 2.1877 2.1877 v 0.56255 0.56255 h -2.93935 -2.93936 z m 10.47129,-0.0312 v -4.50042 h 3.31281 3.3128 v 0.62506 0.62505 h -2.56273 -2.56274 v 1.24742 1.24742 l 2.40648,0.034 2.40647,0.0339 v 0.56255 0.56255 l -2.40647,0.034 -2.40648,0.034 v 1.43493 1.43494 h 2.68775 2.68775 v 0.56255 0.56255 h -3.43782 -3.43782 z m -52.37986,1.65996 c -0.8336,-0.31323 -1.4625,-1.33851 -1.3136,-2.14156 0.24005,-1.29469 1.64888,-2.00863 2.81125,-1.42464 1.37434,0.69049 1.34487,2.78578 -0.0481,3.41839 -0.50277,0.22834 -1.07891,0.28708 -1.44957,0.14781 z m 30.94037,-0.15584 c -0.6599,-0.34297 -0.96551,-0.78773 -1.03448,-1.50554 -0.11101,-1.15524 0.60512,-2.00138 1.7731,-2.09502 0.51591,-0.0414 0.71723,0.004 1.06256,0.24138 0.70547,0.48419 0.94908,0.91222 0.94908,1.66754 0,1.45484 -1.46824,2.35793 -2.75026,1.69164 z m 11.8136,-14.25533 c 0,-1.44388 -0.0422,-2.62458 -0.0938,-2.62377 -0.0516,7.4e-4 -1.50014,0.42496 -3.21905,0.94257 -3.54498,1.06749 -3.91106,1.14032 -4.68469,0.93201 -0.97258,-0.26189 -1.37315,-0.81305 -1.98952,-2.7375 l -0.53617,-1.67402 1.10029,-1.10541 1.10028,-1.10541 0.3172,0.29518 c 0.44985,0.41862 0.80033,0.57575 1.28414,0.57575 0.23145,0 4.71867,-1.18136 9.97158,-2.62524 5.25291,-1.44389 9.56001,-2.62525 9.57134,-2.62525 0.0114,0 0.0553,0.25333 0.0977,0.56295 0.0867,0.63256 0.4377,1.39341 0.7896,1.71164 0.78646,0.7112 2.28023,0.92427 3.2848,0.46854 0.3051,-0.13841 0.62621,-0.22422 0.7136,-0.1907 0.0874,0.0335 0.24989,0.37407 0.36113,0.75675 l 0.20227,0.69579 -1.02765,1.18531 c -0.5652,0.65192 -1.06172,1.18515 -1.10339,1.18495 -0.0417,-2.5e-4 -0.18475,-0.16307 -0.31799,-0.36194 -0.293,-0.43735 -0.81646,-0.76429 -1.21467,-0.75864 -0.16128,0.002 -2.99349,0.74877 -6.2938,1.65884 l -6.00056,1.65468 -0.034,2.41343 -0.034,2.41342 -1.04703,0.49066 c -0.57587,0.26986 -1.08094,0.49066 -1.12238,0.49066 -0.0414,0 -0.0753,-1.18136 -0.0753,-2.62525 z m -64.44348,2.38381 c -0.20627,-0.0496 -0.48754,-0.15104 -0.62505,-0.22542 -0.53546,-0.28964 -0.54343,-0.30225 -4.42407,-7.00259 l -0.52492,-0.90633 h -0.68205 -0.68205 v -1.81267 -1.81267 h 1.22836 1.22837 l 1.64539,2.79202 c 0.90497,1.53561 1.7516,2.88814 1.88142,3.00562 0.36334,0.32882 1.03558,0.38945 1.52307,0.13736 0.2308,-0.11936 3.31405,-2.01988 6.85167,-4.22339 3.53761,-2.20351 6.77195,-4.14368 7.18741,-4.31149 0.63073,-0.25477 0.90387,-0.29559 1.65525,-0.24737 1.06092,0.0681 1.6976,0.38859 2.58452,1.30105 0.62266,0.64058 0.67551,0.72729 2.73213,4.4826 1.5658,2.85906 1.56915,2.50696 -0.0316,3.31851 l -0.95418,0.48378 -1.00325,-1.77545 c -1.04425,-1.848 -1.34677,-2.22963 -1.94801,-2.45745 -0.54118,-0.20506 -1.03771,-0.0559 -2.42501,0.72838 l -1.26261,0.71381 0.67588,1.24506 c 0.37173,0.68478 0.67752,1.28125 0.67954,1.32549 0.002,0.0442 -0.44489,0.33456 -0.99312,0.64517 l -0.99678,0.56474 -0.23679,-0.39515 c -0.13023,-0.21733 -0.45066,-0.78893 -0.71205,-1.27022 -0.26139,-0.4813 -0.48677,-0.89144 -0.50085,-0.91143 -0.0141,-0.02 -2.18276,1.35284 -4.8193,3.05074 -2.63655,1.6979 -5.02041,3.18452 -5.29748,3.3036 -0.64305,0.27638 -1.27777,0.36819 -1.75389,0.2537 z m 24.84606,-0.48278 c -0.50919,-0.45064 -0.5313,-0.50019 -0.5313,-1.19055 0,-1.17231 0.24691,-3.04138 0.57007,-4.31533 0.8591,-3.38663 2.7068,-5.49151 6.3948,-7.28484 2.38707,-1.16074 6.54066,-2.33779 7.66149,-2.17113 1.5821,0.23526 4.67098,1.21758 6.44979,2.05116 4.78259,2.2412 7.41946,6.14817 7.47276,11.07217 l 0.0162,1.50014 -0.75718,0.4005 -0.75718,0.4005 -6.34395,-1.1313 -6.34395,-1.13128 -6.40012,1.08165 c -3.52006,0.59491 -6.51263,1.1057 -6.65014,1.13509 -0.16232,0.0347 -0.43642,-0.11153 -0.78133,-0.41678 z m 9.34109,-3.26554 4.43439,-0.48308 4.23825,0.49567 c 2.78467,0.32567 4.28052,0.4534 4.36149,0.37243 0.21288,-0.21288 0.46666,-1.54666 0.46869,-2.46331 0.004,-1.90169 -0.65738,-3.35729 -2.24213,-4.93297 -0.86403,-0.85909 -1.30816,-1.18609 -2.31884,-1.70736 -1.27486,-0.65753 -2.85555,-1.26065 -4.03005,-1.5377 -0.62035,-0.14633 -0.72869,-0.13113 -2.06269,0.28936 -1.67588,0.52825 -3.61878,1.4585 -4.66535,2.23373 -1.24914,0.9253 -2.46265,2.74804 -2.86954,4.3102 -0.10238,0.39308 -0.18615,1.18426 -0.18615,1.75817 0,1.00051 0.19294,2.15779 0.35862,2.15111 0.0434,-0.002 2.07439,-0.22056 4.51331,-0.48625 z m 14.75362,-8.54266 c -0.22731,-0.1547 -0.52772,-0.43575 -0.66759,-0.62456 -0.33722,-0.45522 -0.34134,-1.39993 -0.009,-1.97922 0.26601,-0.46315 1.15209,-0.9903 1.6646,-0.9903 0.50386,0 1.35988,0.48736 1.63342,0.92996 0.33736,0.54586 0.33986,1.49164 0.005,2.04021 -0.54498,0.89385 -1.79455,1.1906 -2.62719,0.62391 z m 30.28419,0.0393 c -1.14693,-0.72001 -1.22341,-2.27775 -0.15593,-3.17597 1.09856,-0.92438 2.89429,-0.18086 3.09017,1.27949 0.0804,0.59952 -0.29592,1.45129 -0.80404,1.81981 -0.50199,0.36408 -1.60891,0.40392 -2.1302,0.0767 z" /></g><g
     inkscape:groupmode="layer"
     id="layer1"
     inkscape:label="Layer 1" /></svg>
