0
SECTION
2
HEADER
9
$INSUNITS
70
4
9
$ACADVER
1
AC1014
9
$HANDSEED
5
FFFF
0
ENDSEC
0
SECTION
2
TABLES
0
TABLE
2
VPORT
5
8
100
AcDbSymbolTable
0
ENDTAB
0
TABLE
2
LTYPE
5
5
100
AcDbSymbolTable
0
LTYPE
5
14
100
AcDbSymbolTableRecord
100
AcDbLinetypeTableRecord
2
BYBLOCK
70
0
0
LTYPE
5
15
100
AcDbSymbolTableRecord
100
AcDbLinetypeTableRecord
2
BYLAYER
70
0
0
ENDTAB
0
TABLE
2
LAYER
5
2
100
AcDbSymbolTable
70
2
0
LAYER
5
50
100
AcDbSymbolTableRecord
100
AcDbLayerTableRecord
2
0
70
0
6
CONTINUOUS
0
ENDTAB
0
TABLE
2
STYLE
5
3
100
AcDbSymbolTable
70
1
0
STYLE
5
11
100
AcDbSymbolTableRecord
100
AcDbTextStyleTableRecord
2
STANDARD
70
0
0
ENDTAB
0
TABLE
2
VIEW
5
6
100
AcDbSymbolTable
70
0
0
ENDTAB
0
TABLE
2
UCS
5
7
100
AcDbSymbolTable
70
0
0
ENDTAB
0
TABLE
2
APPID
5
9
100
AcDbSymbolTable
70
2
0
APPID
5
12
100
AcDbSymbolTableRecord
100
AcDbRegAppTableRecord
2
ACAD
70
0
0
ENDTAB
0
TABLE
2
DIMSTYLE
5
A
100
AcDbSymbolTable
70
1
0
ENDTAB
0
TABLE
2
BLOCK_RECORD
5
1
100
AcDbSymbolTable
70
1
0
BLOCK_RECORD
5
1F
100
AcDbSymbolTableRecord
100
AcDbBlockTableRecord
2
*MODEL_SPACE
0
BLOCK_RECORD
5
1B
100
AcDbSymbolTableRecord
100
AcDbBlockTableRecord
2
*PAPER_SPACE
0
ENDTAB
0
ENDSEC
0
SECTION
2
BLOCKS
0
BLOCK
5
20
100
AcDbEntity
100
AcDbBlockBegin
2
*MODEL_SPACE
0
ENDBLK
5
21
100
AcDbEntity
100
AcDbBlockEnd
0
BLOCK
5
1C
100
AcDbEntity
100
AcDbBlockBegin
2
*PAPER_SPACE
0
ENDBLK
5
1D
100
AcDbEntity
100
AcDbBlockEnd
0
ENDSEC
0
SECTION
2
ENTITIES
0
LWPOLYLINE
5
100
100
AcDbEntity
8
0
100
AcDbPolyline
90
28
70
1
43
0.0
10
25.684048768097504
20
-6.2022606045211672
42
0.41421356237309243
10
26.684048768097504
20
-7.2022606045211663
10
40.422326644653225
20
-7.2022606045211663
10
40.422326644653225
20
-21.402260604521285
10
26.222326644653236
20
-21.402260604521285
10
26.222326644653236
20
-19.57203454406913
42
0.41421356237309503
10
25.222326644653236
20
-18.57203454406913
10
24.384048768097504
20
-18.57203454406913
42
-0.41421356237309503
10
23.084048768097503
20
-17.272034544069129
10
23.084048768097503
20
10.668021336042671
42
-0.59110962469971973
10
25.079684050790028
20
11.766243332486599
10
26.220193040385901
20
11.766243332486599
10
28.396468826595019
20
11.766243332486599
42
0.32520902694491299
10
29.347848275890883
20
12.458221996443955
42
-0.32520902694491471
10
30.774917449834682
20
13.496189992379978
10
35.85492760985494
20
13.496189992379978
42
-0.32520902694491505
10
37.281996783798732
20
12.458221996443953
42
0.32520902694491188
10
38.233376233094603
20
11.766243332486599
10
40.420193040386124
20
11.766243332486599
10
40.420193040386124
20
-2.4337566675133981
10
38.175581698802574
20
-2.4337566675133981
42
0.30652018425659389
10
37.247320063223633
20
-3.0618288036576446
42
-0.30652018425659755
10
35.85492760985521
20
-4.0039370078740157
10
30.774917449834955
20
-4.0039370078740175
42
-0.30652018425659749
10
29.382524996466536
20
-3.0618288036576464
42
0.30652018425659433
10
28.454263360887595
20
-2.4337566675133981
10
26.684048768097504
20
-2.4337566675133981
42
0.41421356237309209
10
25.684048768097504
20
-3.4337566675133981
0
CIRCLE
5
101
100
AcDbEntity
8
0
100
AcDbCircle
10
23.74904749809502
20
-21.335991871983772
30
0
40
1.2304800609601221
210
0
220
0
230
1
0
LINE
5
102
100
AcDbEntity
8
0
100
AcDbLine
10
26.222326644653236
20
-7.2022606045211663
30
0
11
25.684048768097504
21
-7.2022606045211663
31
0
0
LWPOLYLINE
5
103
100
AcDbEntity
8
0
100
AcDbPolyline
90
28
70
1
43
0.0
10
7.3440182880364748
20
-7.2022606045211663
42
0.4142135623730957
10
7.8440182880364766
20
-6.7022606045211663
10
7.8440182880364766
20
-2.9337566675133986
42
0.3213948542176846
10
7.5045847091693521
20
-2.4602395881967389
42
-0.32139485421768277
10
7.1651511303022293
20
-1.9867225088800788
10
7.1651511303022293
20
11.766243332486599
10
8.448383005343949
20
11.766243332486599
42
-0.2900629231672513
10
9.8396535707290038
20
11.766243332486599
10
9.9262811526531376
20
11.766243332486599
42
0.40285713265085971
10
10.226053868850107
20
12.054567775802166
42
-0.40285713265084933
10
11.724917449834951
20
13.496189992379978
10
16.804927609855209
20
13.496189992379982
42
-0.37507792571511672
10
18.291190556423619
20
12.198729997459946
42
0.37507792571512077
10
18.786611538613087
20
11.766243332486599
10
21.36515113030223
20
11.766243332486599
10
21.36515113030223
20
-2.4337566675133981
10
18.758195400043611
20
-2.4337566675133981
42
0.35210538303939898
10
18.26987845249651
20
-2.8263017526035528
42
-0.3521053830394012
10
16.804927609855209
20
-4.0039370078740157
10
11.724917449834951
20
-4.0039370078740122
42
-0.10061746993718663
10
11.139243078486096
20
-3.8848734766317623
42
0.53722085051820756
10
10.444018288036478
20
-4.3451856328843457
10
10.444018288036474
20
-6.7022606045211663
42
0.41421356237309243
10
10.944018288036474
20
-7.2022606045211663
10
21.367208534417017
20
-7.2022606045211663
10
21.367208534417017
20
-21.402260604521285
10
7.1672085344170231
20
-21.402260604521285
10
7.1672085344170222
20
-7.2022606045211663
0
LWPOLYLINE
5
104
100
AcDbEntity
8
0
100
AcDbPolyline
90
10
70
1
43
0.0
10
-2.2689865379732002
20
-25.860045720091421
42
0.41421356237309503
10
2.7310134620267945
20
-30.860045720091428
10
63.90012700025386
20
-30.860045720091428
42
0.41421356237309398
10
68.90012700025386
20
-25.860045720091421
10
68.90012700025386
20
16.19001778003566
42
0.41421356237309453
10
63.90012700025386
20
21.19001778003566
10
24.0820421640842
20
21.190017780035653
10
10.446024892049762
20
21.190017780035653
10
2.7310134620267945
20
21.190017780035653
42
0.41421356237309509
10
-2.268986537973205
20
16.190017780035653
0
CIRCLE
5
105
100
AcDbEntity
8
0
100
AcDbCircle
10
2.2561397278738862
20
-26.334919454244346
30
0
40
1.7000000000000002
210
0
220
0
230
1
0
LWPOLYLINE
5
106
100
AcDbEntity
8
0
100
AcDbPolyline
90
16
70
1
43
0.0
10
59.470231140462246
20
11.766243332486599
10
57.283376233094607
20
11.766243332486599
42
-0.32520902694491277
10
56.331996783798751
20
12.458221996443953
42
0.3252090269449156
10
54.904927609854951
20
13.496189992379978
10
49.824917449834686
20
13.496189992379978
42
0.32520902694491516
10
48.39784827589088
20
12.458221996443955
42
-0.32520902694491338
10
47.446468826595023
20
11.766243332486599
10
45.270231140462244
20
11.766243332486599
10
45.270231140462244
20
-2.4337566675133981
10
47.504263360887585
20
-2.4337566675134017
42
-0.30652018425660649
10
48.432524996466526
20
-3.0618288036576438
42
0.30652018425659827
10
49.824917449834949
20
-4.0039370078740157
10
54.904927609855214
20
-4.0039370078740157
42
0.30652018425659749
10
56.29732006322363
20
-3.0618288036576446
42
-0.30652018425659622
10
57.225581698802579
20
-2.4337566675133981
10
59.470231140462246
20
-2.4337566675133981
0
CIRCLE
5
107
100
AcDbEntity
8
0
100
AcDbCircle
10
42.847345694691292
20
-21.335991871983772
30
0
40
1.2304800609601221
210
0
220
0
230
1
0
CIRCLE
5
108
100
AcDbEntity
8
0
100
AcDbCircle
10
64.375000734406768
20
-26.334919454244364
30
0
40
1.7000000000000011
210
0
220
0
230
1
0
LWPOLYLINE
5
109
100
AcDbEntity
8
0
100
AcDbPolyline
90
4
70
1
43
0.0
10
45.272364744729572
20
-21.402260604521285
10
59.472364744729347
20
-21.402260604521285
10
59.472364744729347
20
-7.2022606045211663
10
45.272364744729572
20
-7.2022606045211663
0
CIRCLE
5
110
100
AcDbEntity
8
0
100
AcDbCircle
10
64.375000734406782
20
16.664891514188565
30
0
40
1.7000000000000004
210
0
220
0
230
1
0
LINE
5
111
100
AcDbEntity
8
0
100
AcDbLine
10
25.684048768097504
20
-2.4337566675133981
30
0
11
26.220193040385901
21
-2.4337566675133981
31
0
0
CIRCLE
5
112
100
AcDbEntity
8
0
100
AcDbCircle
10
42.845212090424177
20
11.686080772161521
30
0
40
1.215240030480061
210
0
220
0
230
1
0
CIRCLE
5
113
100
AcDbEntity
8
0
100
AcDbCircle
10
2.2561397278738804
20
16.664891514188572
30
0
40
1.7000000000000004
210
0
220
0
230
1
0
LINE
5
114
100
AcDbEntity
8
0
100
AcDbLine
10
7.1651511303022293
20
-2.4337566675133981
30
0
11
7.3440182880364757
21
-2.4337566675133981
31
0
0
ENDSEC
0
SECTION
2
OBJECTS
0
DICTIONARY
5
C
100
AcDbDictionary
3
ACAD_GROUP
350
D
3
ACAD_MLINESTYLE
350
17
0
DICTIONARY
5
D
100
AcDbDictionary
0
DICTIONARY
5
1A
330
C
100
AcDbDictionary
0
DICTIONARY
5
17
100
AcDbDictionary
0
ENDSEC
0
EOF
