0
SECTION
2
HEADER
9
$INSUNITS
70
4
9
$ACADVER
1
AC1014
9
$HANDSEED
5
FFFF
0
ENDSEC
0
SECTION
2
TABLES
0
TABLE
2
VPORT
5
8
100
AcDbSymbolTable
0
ENDTAB
0
TABLE
2
LTYPE
5
5
100
AcDbSymbolTable
0
LTYPE
5
14
100
AcDbSymbolTableRecord
100
AcDbLinetypeTableRecord
2
BYBLOCK
70
0
0
LTYPE
5
15
100
AcDbSymbolTableRecord
100
AcDbLinetypeTableRecord
2
BYLAYER
70
0
0
ENDTAB
0
TABLE
2
LAYER
5
2
100
AcDbSymbolTable
70
2
0
LAYER
5
50
100
AcDbSymbolTableRecord
100
AcDbLayerTableRecord
2
0
70
0
6
CONTINUOUS
0
ENDTAB
0
TABLE
2
STYLE
5
3
100
AcDbSymbolTable
70
1
0
STYLE
5
11
100
AcDbSymbolTableRecord
100
AcDbTextStyleTableRecord
2
STANDARD
70
0
0
ENDTAB
0
TABLE
2
VIEW
5
6
100
AcDbSymbolTable
70
0
0
ENDTAB
0
TABLE
2
UCS
5
7
100
AcDbSymbolTable
70
0
0
ENDTAB
0
TABLE
2
APPID
5
9
100
AcDbSymbolTable
70
2
0
APPID
5
12
100
AcDbSymbolTableRecord
100
AcDbRegAppTableRecord
2
ACAD
70
0
0
ENDTAB
0
TABLE
2
DIMSTYLE
5
A
100
AcDbSymbolTable
70
1
0
ENDTAB
0
TABLE
2
BLOCK_RECORD
5
1
100
AcDbSymbolTable
70
1
0
BLOCK_RECORD
5
1F
100
AcDbSymbolTableRecord
100
AcDbBlockTableRecord
2
*MODEL_SPACE
0
BLOCK_RECORD
5
1B
100
AcDbSymbolTableRecord
100
AcDbBlockTableRecord
2
*PAPER_SPACE
0
ENDTAB
0
ENDSEC
0
SECTION
2
BLOCKS
0
BLOCK
5
20
100
AcDbEntity
100
AcDbBlockBegin
2
*MODEL_SPACE
0
ENDBLK
5
21
100
AcDbEntity
100
AcDbBlockEnd
0
BLOCK
5
1C
100
AcDbEntity
100
AcDbBlockBegin
2
*PAPER_SPACE
0
ENDBLK
5
1D
100
AcDbEntity
100
AcDbBlockEnd
0
ENDSEC
0
SECTION
2
ENTITIES
0
LWPOLYLINE
5
100
100
AcDbEntity
8
0
100
AcDbPolyline
90
32
70
1
43
0.0
10
88.120005800000058
20
-63.50000320000003
10
88.120005800000087
20
15.789989400000053
42
-0.41421356237309581
10
93.120005800000087
20
20.789989400000067
10
116.9460000000002
20
20.78998940000006
42
-0.4142135623730846
10
117.94600000000015
20
19.789989400000067
10
117.94600000000014
20
19.018000000000033
42
-0.41421356237309503
10
116.94600000000014
20
18.018000000000033
10
114.37400000000002
20
18.018000000000033
42
0.41421356237309503
10
113.37400000000002
20
17.018000000000029
10
113.37400000000002
20
15.789989400000062
42
-0.41421356237309437
10
112.37400000000002
20
14.789989400000067
10
95.107810678048864
20
14.78998940000006
42
0.41421356237309503
10
94.10781067804885
20
13.78998940000006
10
94.10781067804885
20
-61.50000320000003
42
0.41421356237309503
10
95.10781067804885
20
-62.500003200000023
10
151.51219832195113
20
-62.500003200000023
42
0.41421356237309503
10
152.51219832195113
20
-61.500003200000052
10
152.5121983219511
20
13.789989400000046
42
0.41421356237309503
10
151.51219832195108
20
14.78998940000006
10
134.154
20
14.78998940000006
42
-0.4142135623730957
10
133.154
20
15.78998940000006
10
133.154
20
17.018000000000029
42
0.41421356237309503
10
132.154
20
18.018000000000033
10
130.08200000000014
20
18.01800000000004
42
-0.41421356237309437
10
129.08200000000014
20
19.018000000000036
10
129.08200000000014
20
19.78998940000006
42
-0.41421356237309959
10
130.08200000000014
20
20.789989400000071
10
153.5000031999999
20
20.789989400000071
42
-0.41421356237309531
10
158.5000031999999
20
15.789989400000064
10
158.5000031999999
20
-63.500003200000023
42
-0.41421356237309503
10
153.5000031999999
20
-68.500003200000037
10
93.120005800000058
20
-68.500003200000037
42
-0.41421356237309503
0
CIRCLE
5
101
100
AcDbEntity
8
0
100
AcDbCircle
10
153.98707205610401
20
-63.974876934152967
30
0
40
1.5999999999999981
210
0
220
0
230
1
0
CIRCLE
5
102
100
AcDbEntity
8
0
100
AcDbCircle
10
92.632936943895942
20
16.264863134152975
30
0
40
1.6000000000000003
210
0
220
0
230
1
0
CIRCLE
5
103
100
AcDbEntity
8
0
100
AcDbCircle
10
92.632936943895942
20
-63.974876934152945
30
0
40
1.5999999999999994
210
0
220
0
230
1
0
CIRCLE
5
104
100
AcDbEntity
8
0
100
AcDbCircle
10
153.98707205610401
20
16.264863134152986
30
0
40
1.6000000000000005
210
0
220
0
230
1
0
ENDSEC
0
SECTION
2
OBJECTS
0
DICTIONARY
5
C
100
AcDbDictionary
3
ACAD_GROUP
350
D
3
ACAD_MLINESTYLE
350
17
0
DICTIONARY
5
D
100
AcDbDictionary
0
DICTIONARY
5
1A
330
C
100
AcDbDictionary
0
DICTIONARY
5
17
100
AcDbDictionary
0
ENDSEC
0
EOF
