0
SECTION
2
HEADER
9
$INSUNITS
70
4
9
$ACADVER
1
AC1014
9
$HANDSEED
5
FFFF
0
ENDSEC
0
SECTION
2
TABLES
0
TABLE
2
VPORT
5
8
100
AcDbSymbolTable
0
ENDTAB
0
TABLE
2
LTYPE
5
5
100
AcDbSymbolTable
0
LTYPE
5
14
100
AcDbSymbolTableRecord
100
AcDbLinetypeTableRecord
2
BYBLOCK
70
0
0
LTYPE
5
15
100
AcDbSymbolTableRecord
100
AcDbLinetypeTableRecord
2
BYLAYER
70
0
0
ENDTAB
0
TABLE
2
LAYER
5
2
100
AcDbSymbolTable
70
2
0
LAYER
5
50
100
AcDbSymbolTableRecord
100
AcDbLayerTableRecord
2
0
70
0
6
CONTINUOUS
0
ENDTAB
0
TABLE
2
STYLE
5
3
100
AcDbSymbolTable
70
1
0
STYLE
5
11
100
AcDbSymbolTableRecord
100
AcDbTextStyleTableRecord
2
STANDARD
70
0
0
ENDTAB
0
TABLE
2
VIEW
5
6
100
AcDbSymbolTable
70
0
0
ENDTAB
0
TABLE
2
UCS
5
7
100
AcDbSymbolTable
70
0
0
ENDTAB
0
TABLE
2
APPID
5
9
100
AcDbSymbolTable
70
2
0
APPID
5
12
100
AcDbSymbolTableRecord
100
AcDbRegAppTableRecord
2
ACAD
70
0
0
ENDTAB
0
TABLE
2
DIMSTYLE
5
A
100
AcDbSymbolTable
70
1
0
ENDTAB
0
TABLE
2
BLOCK_RECORD
5
1
100
AcDbSymbolTable
70
1
0
BLOCK_RECORD
5
1F
100
AcDbSymbolTableRecord
100
AcDbBlockTableRecord
2
*MODEL_SPACE
0
BLOCK_RECORD
5
1B
100
AcDbSymbolTableRecord
100
AcDbBlockTableRecord
2
*PAPER_SPACE
0
ENDTAB
0
ENDSEC
0
SECTION
2
BLOCKS
0
BLOCK
5
20
100
AcDbEntity
100
AcDbBlockBegin
2
*MODEL_SPACE
0
ENDBLK
5
21
100
AcDbEntity
100
AcDbBlockEnd
0
BLOCK
5
1C
100
AcDbEntity
100
AcDbBlockBegin
2
*PAPER_SPACE
0
ENDBLK
5
1D
100
AcDbEntity
100
AcDbBlockEnd
0
ENDSEC
0
SECTION
2
ENTITIES
0
LWPOLYLINE
5
100
100
AcDbEntity
8
0
100
AcDbPolyline
90
16
70
1
43
0.0
10
238.75999491998985
20
26.305054610109249
10
238.75999491998985
20
-4.7150114300228907
42
0.99999999999999989
10
241.65999491998986
20
-4.7150114300228552
10
241.65999491998986
20
5.0619080993450805
42
-0.41505941804271163
10
242.66288198398416
20
6.061903931767155
10
252.64291754405531
20
6.0330908103587788
42
-0.41336821231601445
10
253.640030480061
20
5.0330949779367105
10
253.640030480061
20
-4.7150114300228916
42
0.99999999999999989
10
256.54003048006098
20
-4.7150114300228561
10
256.54003048006098
20
26.305054610109213
42
0.99999999999999989
10
253.640030480061
20
26.305054610109249
10
253.640030480061
20
23.229617396871479
42
-0.41336821231601278
10
252.64291754405531
20
22.229621564449413
10
242.66288198398416
20
22.20080844304103
42
-0.41505941804271057
10
241.65999491998986
20
23.200804275463103
10
241.65999491998986
20
26.305054610109213
42
0.99999999999999989
0
CIRCLE
5
101
100
AcDbEntity
8
0
100
AcDbCircle
10
233.55346710693425
20
6.9850139700279223
30
0
40
1.2
210
0
220
0
230
1
0
CIRCLE
5
102
100
AcDbEntity
8
0
100
AcDbCircle
10
28.57505715011439
20
9.9060198120396326
30
0
40
1.2
210
0
220
0
230
1
0
LWPOLYLINE
5
103
100
AcDbEntity
8
0
100
AcDbPolyline
90
8
70
1
43
0.0
10
256.6299357073205
20
-56.369854302146791
42
0.015208805490431085
10
10.08007190186018
20
-56.369854157348698
42
-0.42102432678519108
10
0.78146014124705232
20
-46.955498165298771
42
0.050053755336970332
10
0.78146014124597207
20
27.905511009139303
42
-0.42102432695789443
10
10.080071907288293
20
37.319867001160674
42
0.015208805490431085
10
256.6299357127142
20
37.319867001159508
42
-0.42102432694818293
10
265.92854747877391
20
27.905511009457161
42
0.050053755239840986
10
265.92854747877402
20
-46.955498310474027
42
-0.42102432711981702
0
CIRCLE
5
104
100
AcDbEntity
8
0
100
AcDbCircle
10
118.999237998476
20
-9.9060198120396326
30
0
40
1.2
210
0
220
0
230
1
0
CIRCLE
5
105
100
AcDbEntity
8
0
100
AcDbCircle
10
219.07543815087638
20
-28.575057150114283
30
0
40
1.2
210
0
220
0
230
1
0
LWPOLYLINE
5
106
100
AcDbEntity
8
0
100
AcDbPolyline
90
12
70
1
43
0.0
10
95.394680902491416
20
-45.100053533222663
10
109.29999755695462
20
-45.100053533222678
10
109.29999755695462
20
-43.629753533222669
10
118.49458090249132
20
-43.629753533222669
10
118.49458090249132
20
-29.999999329447746
10
110.91938090249137
20
-29.999999329447746
10
110.91938090249137
20
-31.097028554362488
10
93.870480902491394
20
-31.097028554362488
10
93.870480902491394
20
-30.000000447034836
10
86.295480902491434
20
-30.000000447034836
10
86.295480902491434
20
-43.629753533222669
10
95.394680902491416
20
-43.629753533222669
0
CIRCLE
5
107
100
AcDbEntity
8
0
100
AcDbCircle
10
32.258064516129025
20
-29.21005842011688
30
0
40
1.2
210
0
220
0
230
1
0
LWPOLYLINE
5
108
100
AcDbEntity
8
0
100
AcDbPolyline
90
4
70
1
43
0.0
10
12.100038100076109
20
12.09947929895854
10
26.000038100076345
20
12.09947929895854
10
26.000038100076345
20
25.999479298958544
10
12.100038100076109
20
25.999479298958544
0
LWPOLYLINE
5
109
100
AcDbEntity
8
0
100
AcDbPolyline
90
4
70
1
43
0.0
10
31.150000000000141
20
12.09947929895854
10
45.049999999999898
20
12.09947929895854
10
45.049999999999898
20
25.999479298958544
10
31.150000000000141
20
25.999479298958544
0
LWPOLYLINE
5
110
100
AcDbEntity
8
0
100
AcDbPolyline
90
4
70
1
43
0.0
10
50.199987299974545
20
12.09947929895854
10
64.100038100076034
20
12.09947929895854
10
64.100038100076034
20
25.999479298958544
10
50.199987299974545
20
25.999479298958544
0
LWPOLYLINE
5
111
100
AcDbEntity
8
0
100
AcDbPolyline
90
4
70
1
43
0.0
10
69.250000000000057
20
12.09947929895854
10
83.150000000000048
20
12.09947929895854
10
83.150000000000048
20
25.999479298958544
10
69.250000000000057
20
25.999479298958544
0
LWPOLYLINE
5
112
100
AcDbEntity
8
0
100
AcDbPolyline
90
4
70
1
43
0.0
10
102.19998729997472
20
25.999479298958544
10
88.299961899923858
20
25.999479298958544
10
88.299961899923858
20
12.09947929895854
10
102.19998729997472
20
12.09947929895854
0
LWPOLYLINE
5
113
100
AcDbEntity
8
0
100
AcDbPolyline
90
4
70
1
43
0.0
10
121.25000000000021
20
25.999479298958544
10
107.35000000000001
20
25.999479298958544
10
107.35000000000001
20
12.09947929895854
10
121.25000000000021
20
12.09947929895854
0
LWPOLYLINE
5
114
100
AcDbEntity
8
0
100
AcDbPolyline
90
4
70
1
43
0.0
10
140.29998729997462
20
25.999479298958544
10
126.39998729997461
20
25.999479298958544
10
126.39998729997461
20
12.09947929895854
10
140.29998729997462
20
12.09947929895854
0
LWPOLYLINE
5
115
100
AcDbEntity
8
0
100
AcDbPolyline
90
4
70
1
43
0.0
10
159.34999999999991
20
25.999479298958544
10
145.4500000000001
20
25.999479298958544
10
145.4500000000001
20
12.09947929895854
10
159.34999999999991
20
12.09947929895854
0
LWPOLYLINE
5
116
100
AcDbEntity
8
0
100
AcDbPolyline
90
4
70
1
43
0.0
10
178.40003810007619
20
25.999479298958544
10
164.50001270002542
20
25.999479298958544
10
164.50001270002542
20
12.09947929895854
10
178.40003810007619
20
12.09947929895854
0
LWPOLYLINE
5
117
100
AcDbEntity
8
0
100
AcDbPolyline
90
4
70
1
43
0.0
10
197.45000000000002
20
25.999479298958544
10
183.55000000000018
20
25.999479298958544
10
183.55000000000018
20
12.09947929895854
10
197.45000000000002
20
12.09947929895854
0
LWPOLYLINE
5
118
100
AcDbEntity
8
0
100
AcDbPolyline
90
4
70
1
43
0.0
10
216.50001270002531
20
25.999479298958544
10
202.6000127000255
20
25.999479298958544
10
202.6000127000255
20
12.09947929895854
10
216.50001270002531
20
12.09947929895854
0
LWPOLYLINE
5
119
100
AcDbEntity
8
0
100
AcDbPolyline
90
4
70
1
43
0.0
10
235.5500000000001
20
25.999479298958544
10
221.64999999999998
20
25.999479298958544
10
221.64999999999998
20
12.09947929895854
10
235.5500000000001
20
12.09947929895854
0
LWPOLYLINE
5
120
100
AcDbEntity
8
0
100
AcDbPolyline
90
4
70
1
43
0.0
10
228.4049657099315
20
6.9494919989839001
10
214.50494030988085
20
6.9494919989839001
10
214.50494030988085
20
-6.9505080010161056
10
228.4049657099315
20
-6.9505080010161038
0
LWPOLYLINE
5
121
100
AcDbEntity
8
0
100
AcDbPolyline
90
4
70
1
43
0.0
10
202.21299212598441
20
6.9494919989839001
10
188.31299212598429
20
6.9494919989839001
10
188.31299212598429
20
-6.9505080010161056
10
202.21299212598441
20
-6.9505080010161038
0
LWPOLYLINE
5
122
100
AcDbEntity
8
0
100
AcDbPolyline
90
4
70
1
43
0.0
10
183.1630302260605
20
6.9494919989839001
10
169.26300482600962
20
6.9494919989839001
10
169.26300482600962
20
-6.9505080010161056
10
183.1630302260605
20
-6.9505080010161038
0
LWPOLYLINE
5
123
100
AcDbEntity
8
0
100
AcDbPolyline
90
4
70
1
43
0.0
10
164.11299212598411
20
6.9494919989839001
10
150.21299212598441
20
6.9494919989839001
10
150.21299212598441
20
-6.9505080010161056
10
164.11299212598411
20
-6.9505080010161038
0
LWPOLYLINE
5
124
100
AcDbEntity
8
0
100
AcDbPolyline
90
4
70
1
43
0.0
10
145.0629794259589
20
6.949517399034745
10
131.16297942595892
20
6.949517399034745
10
131.16297942595892
20
-6.9504826009651453
10
145.0629794259589
20
-6.9504826009651435
0
LWPOLYLINE
5
125
100
AcDbEntity
8
0
100
AcDbPolyline
90
4
70
1
43
0.0
10
126.01299212598451
20
6.9494919989839001
10
112.11299212598422
20
6.9494919989839001
10
112.11299212598422
20
-6.9505080010161056
10
126.01299212598451
20
-6.9505080010161038
0
LWPOLYLINE
5
126
100
AcDbEntity
8
0
100
AcDbPolyline
90
4
70
1
43
0.0
10
106.96297942595871
20
6.9494665989331672
10
93.062954025908141
20
6.9494665989331672
10
93.062954025908141
20
-6.950533401066834
10
106.96297942595871
20
-6.9505334010668332
0
LWPOLYLINE
5
127
100
AcDbEntity
8
0
100
AcDbPolyline
90
4
70
1
43
0.0
10
87.913017526035162
20
6.9494665989331663
10
74.013017526034957
20
6.9494665989331672
10
74.013017526034957
20
-6.950533401066834
10
87.913017526035162
20
-6.9505334010668332
0
LWPOLYLINE
5
128
100
AcDbEntity
8
0
100
AcDbPolyline
90
4
70
1
43
0.0
10
68.863055626111361
20
6.9494665989331663
10
54.963004826009687
20
6.9494665989331672
10
54.963004826009687
20
-6.950533401066834
10
68.863055626111361
20
-6.9505334010668332
0
LWPOLYLINE
5
129
100
AcDbEntity
8
0
100
AcDbPolyline
90
4
70
1
43
0.0
10
49.812992125984195
20
6.9494665989331663
10
35.912992125984424
20
6.9494665989331672
10
35.912992125984424
20
-6.950533401066834
10
49.812992125984195
20
-6.9505334010668332
0
LWPOLYLINE
5
130
100
AcDbEntity
8
0
100
AcDbPolyline
90
4
70
1
43
0.0
10
28.379972059944023
20
6.9494665989331663
10
14.479972059944252
20
6.9494665989331672
10
14.479972059944252
20
-6.950533401066834
10
28.379972059944023
20
-6.9505334010668332
0
LWPOLYLINE
5
131
100
AcDbEntity
8
0
100
AcDbPolyline
90
4
70
1
43
0.0
10
33.144996189992256
20
-12.10052070104136
10
19.244996189992481
20
-12.10052070104136
10
19.244996189992481
20
-26.000520701041367
10
33.144996189992256
20
-26.000520701041367
0
LWPOLYLINE
5
132
100
AcDbEntity
8
0
100
AcDbPolyline
90
4
70
1
43
0.0
10
59.338036576073094
20
-12.10052070104136
10
45.438036576073102
20
-12.10052070104136
10
45.438036576073102
20
-26.000520701041367
10
59.338036576073094
20
-26.000520701041367
0
LWPOLYLINE
5
133
100
AcDbEntity
8
0
100
AcDbPolyline
90
4
70
1
43
0.0
10
78.387998475997122
20
-12.10052070104136
10
64.487998475996889
20
-12.10052070104136
10
64.487998475996889
20
-26.000520701041367
10
78.387998475997122
20
-26.000520701041367
0
LWPOLYLINE
5
134
100
AcDbEntity
8
0
100
AcDbPolyline
90
4
70
1
43
0.0
10
97.43803657607323
20
-12.10052070104136
10
83.538036576073267
20
-12.10052070104136
10
83.538036576073267
20
-26.000520701041367
10
97.43803657607323
20
-26.000520701041367
0
LWPOLYLINE
5
135
100
AcDbEntity
8
0
100
AcDbPolyline
90
4
70
1
43
0.0
10
116.48799847599679
20
-12.100546101092206
10
102.58799847599703
20
-12.100546101092206
10
102.58799847599703
20
-26.000546101092212
10
116.48799847599679
20
-26.000546101092212
0
LWPOLYLINE
5
136
100
AcDbEntity
8
0
100
AcDbPolyline
90
4
70
1
43
0.0
10
135.53803657607307
20
-12.100546101092206
10
121.63803657607309
20
-12.100546101092206
10
121.63803657607309
20
-26.000546101092212
10
135.53803657607307
20
-26.000546101092212
0
LWPOLYLINE
5
137
100
AcDbEntity
8
0
100
AcDbPolyline
90
4
70
1
43
0.0
10
154.5880238760478
20
-12.10049530099052
10
140.68802387604782
20
-12.10049530099052
10
140.68802387604782
20
-26.000520701041367
10
154.5880238760478
20
-26.000520701041367
0
LWPOLYLINE
5
138
100
AcDbEntity
8
0
100
AcDbPolyline
90
4
70
1
43
0.0
10
173.63803657607332
20
-12.100546101092206
10
159.738036576073
20
-12.100546101092206
10
159.738036576073
20
-26.000546101092212
10
173.63803657607332
20
-26.000546101092212
0
LWPOLYLINE
5
139
100
AcDbEntity
8
0
100
AcDbPolyline
90
4
70
1
43
0.0
10
192.68802387604768
20
-12.100546101092206
10
178.7880238760479
20
-12.100546101092206
10
178.7880238760479
20
-26.000546101092212
10
192.68802387604768
20
-26.000546101092212
0
LWPOLYLINE
5
140
100
AcDbEntity
8
0
100
AcDbPolyline
90
4
70
1
43
0.0
10
214.11997713995447
20
-12.10052070104136
10
200.21997713995427
20
-12.10052070104136
10
200.21997713995427
20
-26.000520701041367
10
214.11997713995447
20
-26.000520701041367
0
LWPOLYLINE
5
141
100
AcDbEntity
8
0
100
AcDbPolyline
90
4
70
1
43
0.0
10
235.5500000000001
20
-12.10052070104136
10
221.64999999999998
20
-12.10052070104136
10
221.64999999999998
20
-26.000520701041367
10
235.5500000000001
20
-26.000520701041367
0
LWPOLYLINE
5
142
100
AcDbEntity
8
0
100
AcDbPolyline
90
4
70
1
43
0.0
10
254.60001270002547
20
-12.10052070104136
10
240.70001270002538
20
-12.10052070104136
10
240.70001270002538
20
-26.000520701041367
10
254.60001270002547
20
-26.000520701041367
0
LWPOLYLINE
5
143
100
AcDbEntity
8
0
100
AcDbPolyline
90
4
70
1
43
0.0
10
254.60001270002547
20
-31.150635001270011
10
240.70001270002538
20
-31.150635001270011
10
240.70001270002538
20
-45.05063500127001
10
254.60001270002547
20
-45.05063500127001
0
LWPOLYLINE
5
144
100
AcDbEntity
8
0
100
AcDbPolyline
90
4
70
1
43
0.0
10
235.5500000000001
20
-31.150508001016011
10
221.64999999999998
20
-31.150508001016011
10
221.64999999999998
20
-45.050508001016027
10
235.5500000000001
20
-45.050508001016027
0
LWPOLYLINE
5
145
100
AcDbEntity
8
0
100
AcDbPolyline
90
4
70
1
43
0.0
10
216.50001270002531
20
-31.150508001016011
10
202.6000127000255
20
-31.150508001016011
10
202.6000127000255
20
-45.050508001016027
10
216.50001270002531
20
-45.050508001016027
0
LWPOLYLINE
5
146
100
AcDbEntity
8
0
100
AcDbPolyline
90
4
70
1
43
0.0
10
190.30496570993131
20
-31.150508001016011
10
176.4049657099315
20
-31.150508001016011
10
176.4049657099315
20
-45.050508001016027
10
190.30496570993131
20
-45.050508001016027
0
LWPOLYLINE
5
147
100
AcDbEntity
8
0
100
AcDbPolyline
90
4
70
1
43
0.0
10
71.244996189992392
20
-31.150533401066738
10
57.344996189992386
20
-31.150533401066738
10
57.344996189992386
20
-45.050533401066858
10
71.244996189992392
20
-45.050533401066858
0
LWPOLYLINE
5
148
100
AcDbEntity
8
0
100
AcDbPolyline
90
4
70
1
43
0.0
10
49.812966725933371
20
-31.150533401066738
10
35.912966725933572
20
-31.150533401066738
10
35.912966725933572
20
-45.050533401066858
10
49.812966725933371
20
-45.050533401066858
0
LWPOLYLINE
5
149
100
AcDbEntity
8
0
100
AcDbPolyline
90
4
70
1
43
0.0
10
28.379997459994868
20
-31.150533401066738
10
14.479997459994866
20
-31.150533401066738
10
14.479997459994866
20
-45.050533401066858
10
28.379997459994868
20
-45.050533401066858
0
LWPOLYLINE
5
150
100
AcDbEntity
8
0
100
AcDbPolyline
90
12
70
1
43
0.0
10
158.57938090249138
20
-29.999999329447746
10
166.15458090249135
20
-29.999999329447746
10
166.15458090249135
20
-43.629753533222669
10
156.95999755695462
20
-43.629753533222669
10
156.95999755695462
20
-45.100053533222678
10
143.05468090249141
20
-45.100053533222663
10
143.05468090249141
20
-43.629753533222669
10
133.95548090249144
20
-43.629753533222669
10
133.95548090249144
20
-30.000000447034836
10
141.53048090249141
20
-30.000000447034836
10
141.53048090249141
20
-31.097028554362488
10
158.57938090249138
20
-31.097028554362488
0
CIRCLE
5
151
100
AcDbEntity
8
0
100
AcDbCircle
10
7.4667353781937651
20
30.633264621806369
30
0
40
1.7000000000000002
210
0
220
0
230
1
0
CIRCLE
5
152
100
AcDbEntity
8
0
100
AcDbCircle
10
88.249961899923846
20
31.695002540005135
30
0
40
1.7000000000000002
210
0
220
0
230
1
0
CIRCLE
5
153
100
AcDbEntity
8
0
100
AcDbCircle
10
178.4500381000762
20
31.695002540005135
30
0
40
1.7000000000000002
210
0
220
0
230
1
0
CIRCLE
5
154
100
AcDbEntity
8
0
100
AcDbCircle
10
259.24327224182161
20
30.633264621806411
30
0
40
1.7000000000000002
210
0
220
0
230
1
0
CIRCLE
5
155
100
AcDbEntity
8
0
100
AcDbCircle
10
259.24327224106889
20
-49.683251923576115
30
0
40
1.7000000000000002
210
0
220
0
230
1
0
CIRCLE
5
156
100
AcDbEntity
8
0
100
AcDbCircle
10
88.249961899923818
20
-50.744989742103357
30
0
40
1.7000000000000002
210
0
220
0
230
1
0
CIRCLE
5
157
100
AcDbEntity
8
0
100
AcDbCircle
10
7.4667353774410472
20
-49.683251777213364
30
0
40
1.7000000000000002
210
0
220
0
230
1
0
CIRCLE
5
158
100
AcDbEntity
8
0
100
AcDbCircle
10
178.4500381000762
20
-50.744989742103357
30
0
40
1.7000000000000002
210
0
220
0
230
1
0
ENDSEC
0
SECTION
2
OBJECTS
0
DICTIONARY
5
C
100
AcDbDictionary
3
ACAD_GROUP
350
D
3
ACAD_MLINESTYLE
350
17
0
DICTIONARY
5
D
100
AcDbDictionary
0
DICTIONARY
5
1A
330
C
100
AcDbDictionary
0
DICTIONARY
5
17
100
AcDbDictionary
0
ENDSEC
0
EOF
