0
SECTION
2
HEADER
9
$INSUNITS
70
4
9
$ACADVER
1
AC1014
9
$HANDSEED
5
FFFF
0
ENDSEC
0
SECTION
2
TABLES
0
TABLE
2
VPORT
5
8
100
AcDbSymbolTable
0
ENDTAB
0
TABLE
2
LTYPE
5
5
100
AcDbSymbolTable
0
LTYPE
5
14
100
AcDbSymbolTableRecord
100
AcDbLinetypeTableRecord
2
BYBLOCK
70
0
0
LTYPE
5
15
100
AcDbSymbolTableRecord
100
AcDbLinetypeTableRecord
2
BYLAYER
70
0
0
ENDTAB
0
TABLE
2
LAYER
5
2
100
AcDbSymbolTable
70
2
0
LAYER
5
50
100
AcDbSymbolTableRecord
100
AcDbLayerTableRecord
2
0
70
0
6
CONTINUOUS
0
ENDTAB
0
TABLE
2
STYLE
5
3
100
AcDbSymbolTable
70
1
0
STYLE
5
11
100
AcDbSymbolTableRecord
100
AcDbTextStyleTableRecord
2
STANDARD
70
0
0
ENDTAB
0
TABLE
2
VIEW
5
6
100
AcDbSymbolTable
70
0
0
ENDTAB
0
TABLE
2
UCS
5
7
100
AcDbSymbolTable
70
0
0
ENDTAB
0
TABLE
2
APPID
5
9
100
AcDbSymbolTable
70
2
0
APPID
5
12
100
AcDbSymbolTableRecord
100
AcDbRegAppTableRecord
2
ACAD
70
0
0
ENDTAB
0
TABLE
2
DIMSTYLE
5
A
100
AcDbSymbolTable
70
1
0
ENDTAB
0
TABLE
2
BLOCK_RECORD
5
1
100
AcDbSymbolTable
70
1
0
BLOCK_RECORD
5
1F
100
AcDbSymbolTableRecord
100
AcDbBlockTableRecord
2
*MODEL_SPACE
0
BLOCK_RECORD
5
1B
100
AcDbSymbolTableRecord
100
AcDbBlockTableRecord
2
*PAPER_SPACE
0
ENDTAB
0
ENDSEC
0
SECTION
2
BLOCKS
0
BLOCK
5
20
100
AcDbEntity
100
AcDbBlockBegin
2
*MODEL_SPACE
0
ENDBLK
5
21
100
AcDbEntity
100
AcDbBlockEnd
0
BLOCK
5
1C
100
AcDbEntity
100
AcDbBlockBegin
2
*PAPER_SPACE
0
ENDBLK
5
1D
100
AcDbEntity
100
AcDbBlockEnd
0
ENDSEC
0
SECTION
2
ENTITIES
0
LWPOLYLINE
5
100
100
AcDbEntity
8
0
100
AcDbPolyline
90
12
70
1
43
0.0
10
109.98869638601593
20
-27.082283260138809
10
119.05244287332138
20
-27.082283260138809
10
119.05244287332138
20
-47.082311454195221
10
109.98869638601593
20
-47.082311454195221
10
109.99246480371988
20
-46.082311454195207
10
95.053583591670474
20
-46.082311454195207
10
95.053583591670474
20
-47.082311454195221
10
85.778376325188347
20
-47.082311454195221
10
85.778376325188347
20
-27.082283260138809
10
95.053583591670474
20
-27.082283260138809
10
95.053583591670474
20
-28.082283006138375
10
109.98869638601593
20
-28.082283006138375
0
CIRCLE
5
101
100
AcDbEntity
8
0
100
AcDbCircle
10
233.55346710693425
20
6.9850139700279223
30
0
40
1.2
210
0
220
0
230
1
0
LWPOLYLINE
5
102
100
AcDbEntity
8
0
100
AcDbPolyline
90
16
70
1
43
0.0
10
241.65999491998988
20
-4.7150114300228996
10
241.65999491998988
20
5.0286666378254683
42
-0.41418897791859771
10
242.65991098268245
20
6.0286666343027653
10
252.63994654275359
20
6.0295043316189068
42
-0.41423814725500729
10
253.64003048006097
20
5.0295043351416364
10
253.640030480061
20
-4.7150114300228561
42
0.99999999999999989
10
256.54003048006098
20
-4.7150114300228916
10
256.54003048006098
20
26.305054610109213
42
0.99999999999999989
10
253.640030480061
20
26.305054610109249
10
253.640030480061
20
23.196501582015642
42
-0.41423814725494712
10
252.63994654275359
20
22.196501585538364
10
242.65991098268245
20
22.197339282854557
42
-0.41418897791860942
10
241.65999491998988
20
23.197339279331828
10
241.65999491998988
20
26.305054610109213
42
0.99999999999999989
10
238.75999491998988
20
26.305054610109142
10
238.75999491998985
20
-4.7150114300228552
42
0.99999999999999989
0
LWPOLYLINE
5
103
100
AcDbEntity
8
0
100
AcDbPolyline
90
10
70
1
43
0.0
10
0.78146014124597429
20
27.90551100913931
42
-0.42102432695789327
10
10.080071907288257
20
37.319867001158968
42
0.014280048111920303
10
241.57979450832485
20
36.889945850755922
10
255.57585389867981
20
37.287934168474521
42
6.5037437443640184e-05
10
256.6299357127142
20
37.319867001159508
42
-0.42102432694818182
10
265.92854747877396
20
27.905511009457157
42
0.050053755239840708
10
265.92854747877402
20
-46.955498310474027
42
-0.42102432711981774
10
256.62993570732056
20
-56.369854302145654
42
0.015208805490433368
10
10.08007190186018
20
-56.369854157348698
42
-0.42102432678519158
10
0.78146014124705232
20
-46.955498165298778
42
0.050053755336971303
0
LWPOLYLINE
5
104
100
AcDbEntity
8
0
100
AcDbPolyline
90
12
70
1
43
0.0
10
142.6535835916705
20
-47.082311454195221
10
133.37837632518836
20
-47.082311454195221
10
133.37837632518836
20
-27.082283260138809
10
142.6535835916705
20
-27.082283260138809
10
142.6535835916705
20
-28.082283006138375
10
157.58869638601598
20
-28.082283006138375
10
157.58869638601598
20
-27.082283260138809
10
166.65244287332141
20
-27.082283260138809
10
166.65244287332141
20
-47.082311454195221
10
157.58869638601598
20
-47.082311454195221
10
157.59246480371988
20
-46.082311454195207
10
142.6535835916705
20
-46.082311454195207
0
CIRCLE
5
105
100
AcDbEntity
8
0
100
AcDbCircle
10
219.07543815087638
20
-28.575057150114283
30
0
40
1.2
210
0
220
0
230
1
0
CIRCLE
5
106
100
AcDbEntity
8
0
100
AcDbCircle
10
32.258064516129025
20
-29.21005842011688
30
0
40
1.2
210
0
220
0
230
1
0
CIRCLE
5
107
100
AcDbEntity
8
0
100
AcDbCircle
10
259.24327224106889
20
-49.683251923576115
30
0
40
1.5500000000000005
210
0
220
0
230
1
0
LWPOLYLINE
5
108
100
AcDbEntity
8
0
100
AcDbPolyline
90
4
70
1
43
0.0
10
83.038036576073253
20
-26.500520701041363
10
97.938036576073245
20
-26.500520701041363
10
97.938036576073245
20
-11.60052070104136
10
83.038036576073253
20
-11.60052070104136
0
LWPOLYLINE
5
109
100
AcDbEntity
8
0
100
AcDbPolyline
90
4
70
1
43
0.0
10
87.799961899923872
20
11.599479298958542
10
102.69998729997474
20
11.599479298958542
10
102.69998729997474
20
26.499479298958541
10
87.799961899923872
20
26.499479298958541
0
LWPOLYLINE
5
110
100
AcDbEntity
8
0
100
AcDbPolyline
90
4
70
1
43
0.0
10
121.75000000000024
20
26.499479298958541
10
106.85000000000001
20
26.499479298958541
10
106.85000000000001
20
11.599479298958542
10
121.75000000000024
20
11.599479298958542
0
LWPOLYLINE
5
111
100
AcDbEntity
8
0
100
AcDbPolyline
90
4
70
1
43
0.0
10
49.699987299974552
20
26.499479298958541
10
49.699987299974552
20
11.599479298958542
10
64.600038100076034
20
11.599479298958542
10
64.600038100076034
20
26.499479298958541
0
LWPOLYLINE
5
112
100
AcDbEntity
8
0
100
AcDbPolyline
90
4
70
1
43
0.0
10
68.750000000000071
20
11.599479298958542
10
83.650000000000077
20
11.599479298958542
10
83.650000000000077
20
26.499479298958541
10
68.750000000000071
20
26.499479298958541
0
LWPOLYLINE
5
113
100
AcDbEntity
8
0
100
AcDbPolyline
90
4
70
1
43
0.0
10
45.549999999999898
20
11.599479298958542
10
45.549999999999898
20
26.499479298958541
10
30.650000000000137
20
26.499479298958541
10
30.650000000000137
20
11.599479298958542
0
CIRCLE
5
114
100
AcDbEntity
8
0
100
AcDbCircle
10
28.57505715011439
20
9.9060198120396326
30
0
40
1.2
210
0
220
0
230
1
0
CIRCLE
5
115
100
AcDbEntity
8
0
100
AcDbCircle
10
118.999237998476
20
-9.9060198120396326
30
0
40
1.2
210
0
220
0
230
1
0
CIRCLE
5
116
100
AcDbEntity
8
0
100
AcDbCircle
10
259.24327224182161
20
30.633264621806411
30
0
40
1.5500000000000047
210
0
220
0
230
1
0
CIRCLE
5
117
100
AcDbEntity
8
0
100
AcDbCircle
10
7.4667353781937651
20
30.633264621806369
30
0
40
1.7000000000000004
210
0
220
0
230
1
0
CIRCLE
5
118
100
AcDbEntity
8
0
100
AcDbCircle
10
178.4500381000762
20
-50.744989795077799
30
0
40
1.6999999999999982
210
0
220
0
230
1
0
CIRCLE
5
119
100
AcDbEntity
8
0
100
AcDbCircle
10
178.4500381000762
20
31.695002540005135
30
0
40
1.7000000000000004
210
0
220
0
230
1
0
LWPOLYLINE
5
120
100
AcDbEntity
8
0
100
AcDbPolyline
90
4
70
1
43
0.0
10
11.600038100076112
20
11.599479298958542
10
26.500038100076342
20
11.599479298958542
10
26.500038100076342
20
26.499479298958541
10
11.600038100076112
20
26.499479298958541
0
CIRCLE
5
121
100
AcDbEntity
8
0
100
AcDbCircle
10
259.24327224106889
20
-49.683251923576115
30
0
40
1.7000000000000004
210
0
220
0
230
1
0
LWPOLYLINE
5
122
100
AcDbEntity
8
0
100
AcDbPolyline
90
4
70
1
43
0.0
10
144.9500000000001
20
26.499479298958541
10
144.9500000000001
20
11.599479298958542
10
159.84999999999991
20
11.599479298958542
10
159.84999999999991
20
26.499479298958541
0
LWPOLYLINE
5
123
100
AcDbEntity
8
0
100
AcDbPolyline
90
4
70
1
43
0.0
10
236.05000000000007
20
26.499479298958541
10
221.15000000000006
20
26.499479298958541
10
221.15000000000006
20
11.599479298958542
10
236.05000000000007
20
11.599479298958542
0
LWPOLYLINE
5
124
100
AcDbEntity
8
0
100
AcDbPolyline
90
4
70
1
43
0.0
10
145.5629794259589
20
7.4495173990347467
10
130.66297942595892
20
7.4495173990347467
10
130.66297942595892
20
-7.4504826009651426
10
145.5629794259589
20
-7.4504826009651426
0
CIRCLE
5
125
100
AcDbEntity
8
0
100
AcDbCircle
10
88.249961899923818
20
-50.744989742103357
30
0
40
1.7000000000000015
210
0
220
0
230
1
0
LWPOLYLINE
5
126
100
AcDbEntity
8
0
100
AcDbPolyline
90
4
70
1
43
0.0
10
18.744996189992481
20
-11.60052070104136
10
18.744996189992481
20
-26.500520701041363
10
33.644996189992256
20
-26.500520701041363
10
33.644996189992256
20
-11.60052070104136
0
CIRCLE
5
127
100
AcDbEntity
8
0
100
AcDbCircle
10
88.249961899923846
20
31.695002540005135
30
0
40
1.7000000000000037
210
0
220
0
230
1
0
LWPOLYLINE
5
128
100
AcDbEntity
8
0
100
AcDbPolyline
90
4
70
1
43
0.0
10
125.89998729997461
20
26.499479298958541
10
125.89998729997461
20
11.599479298958542
10
140.79998729997465
20
11.599479298958542
10
140.79998729997465
20
26.499479298958541
0
LWPOLYLINE
5
129
100
AcDbEntity
8
0
100
AcDbPolyline
90
4
70
1
43
0.0
10
254.90001270002548
20
-30.850635001270014
10
240.4000127000254
20
-30.850635001270014
10
240.4000127000254
20
-45.350635001270028
10
254.90001270002548
20
-45.350635001270028
0
LWPOLYLINE
5
130
100
AcDbEntity
8
0
100
AcDbPolyline
90
4
70
1
43
0.0
10
197.95000000000002
20
11.599479298958542
10
197.95000000000002
20
26.499479298958541
10
183.05000000000018
20
26.499479298958541
10
183.05000000000018
20
11.599479298958542
0
CIRCLE
5
131
100
AcDbEntity
8
0
100
AcDbCircle
10
259.24327224182161
20
30.633264621806411
30
0
40
1.7000000000000073
210
0
220
0
230
1
0
CIRCLE
5
132
100
AcDbEntity
8
0
100
AcDbCircle
10
7.4667353774410472
20
-49.683251777213364
30
0
40
1.6999999999999982
210
0
220
0
230
1
0
LWPOLYLINE
5
133
100
AcDbEntity
8
0
100
AcDbPolyline
90
4
70
1
43
0.0
10
164.00001270002545
20
26.499479298958541
10
164.00001270002545
20
11.599479298958542
10
178.90003810007613
20
11.599479298958542
10
178.90003810007613
20
26.499479298958541
0
LWPOLYLINE
5
134
100
AcDbEntity
8
0
100
AcDbPolyline
90
4
70
1
43
0.0
10
50.312992125984202
20
7.4494665989331663
10
35.412992125984424
20
7.4494665989331663
10
35.412992125984424
20
-7.4505334010668314
10
50.312992125984202
20
-7.4505334010668349
0
LWPOLYLINE
5
135
100
AcDbEntity
8
0
100
AcDbPolyline
90
4
70
1
43
0.0
10
228.90496570993147
20
7.4494919989839019
10
214.00494030988088
20
7.4494919989839019
10
214.00494030988088
20
-7.4505080010161029
10
228.90496570993147
20
-7.4505080010161029
0
LWPOLYLINE
5
136
100
AcDbEntity
8
0
100
AcDbPolyline
90
4
70
1
43
0.0
10
28.879972059944023
20
-7.4505334010668349
10
28.879972059944023
20
7.4494665989331672
10
13.979972059944256
20
7.4494665989331663
10
13.979972059944256
20
-7.4505334010668314
0
LWPOLYLINE
5
137
100
AcDbEntity
8
0
100
AcDbPolyline
90
4
70
1
43
0.0
10
202.10001270002556
20
26.499479298958541
10
202.10001270002556
20
11.599479298958542
10
217.00001270002531
20
11.599479298958542
10
217.00001270002531
20
26.499479298958541
0
LWPOLYLINE
5
138
100
AcDbEntity
8
0
100
AcDbPolyline
90
4
70
1
43
0.0
10
168.76300482600965
20
7.4494919989839019
10
168.76300482600965
20
-7.4505080010161029
10
183.6630302260605
20
-7.4505080010161029
10
183.6630302260605
20
7.4494919989839019
0
LWPOLYLINE
5
139
100
AcDbEntity
8
0
100
AcDbPolyline
90
4
70
1
43
0.0
10
92.562954025908141
20
7.4494665989331663
10
92.562954025908141
20
-7.4505334010668314
10
107.46297942595872
20
-7.4505334010668349
10
107.46297942595872
20
7.4494665989331672
0
LWPOLYLINE
5
140
100
AcDbEntity
8
0
100
AcDbPolyline
90
4
70
1
43
0.0
10
164.61299212598414
20
-7.4505080010161029
10
164.61299212598414
20
7.4494919989839019
10
149.71299212598441
20
7.4494919989839019
10
149.71299212598441
20
-7.4505080010161029
0
LWPOLYLINE
5
141
100
AcDbEntity
8
0
100
AcDbPolyline
90
4
70
1
43
0.0
10
44.938036576073102
20
-11.60052070104136
10
44.938036576073102
20
-26.500520701041363
10
59.838036576073101
20
-26.500520701041363
10
59.838036576073101
20
-11.60052070104136
0
LWPOLYLINE
5
142
100
AcDbEntity
8
0
100
AcDbPolyline
90
4
70
1
43
0.0
10
88.41301752603519
20
-7.4505334010668349
10
88.41301752603519
20
7.4494665989331672
10
73.513017526034943
20
7.4494665989331663
10
73.513017526034943
20
-7.4505334010668323
0
LWPOLYLINE
5
143
100
AcDbEntity
8
0
100
AcDbPolyline
90
4
70
1
43
0.0
10
187.81299212598438
20
-7.4505080010161029
10
202.71299212598444
20
-7.4505080010161029
10
202.71299212598444
20
7.4494919989839019
10
187.81299212598438
20
7.4494919989839019
0
LWPOLYLINE
5
144
100
AcDbEntity
8
0
100
AcDbPolyline
90
4
70
1
43
0.0
10
78.887998475997122
20
-11.60052070104136
10
63.987998475996903
20
-11.60052070104136
10
63.987998475996903
20
-26.500520701041363
10
78.887998475997122
20
-26.500520701041363
0
LWPOLYLINE
5
145
100
AcDbEntity
8
0
100
AcDbPolyline
90
4
70
1
43
0.0
10
69.363055626111361
20
-7.4505334010668349
10
69.363055626111361
20
7.4494665989331672
10
54.463004826009687
20
7.4494665989331663
10
54.463004826009687
20
-7.4505334010668314
0
LWPOLYLINE
5
146
100
AcDbEntity
8
0
100
AcDbPolyline
90
4
70
1
43
0.0
10
111.61299212598422
20
-7.4505080010161029
10
126.51299212598452
20
-7.4505080010161029
10
126.51299212598452
20
7.4494919989839019
10
111.61299212598422
20
7.4494919989839019
0
LWPOLYLINE
5
147
100
AcDbEntity
8
0
100
AcDbPolyline
90
4
70
1
43
0.0
10
50.312966725933364
20
-30.650533401066745
10
35.412966725933572
20
-30.650533401066745
10
35.412966725933572
20
-45.550533401066858
10
50.312966725933364
20
-45.550533401066858
0
LWPOLYLINE
5
148
100
AcDbEntity
8
0
100
AcDbPolyline
90
4
70
1
43
0.0
10
240.20001270002541
20
-26.500520701041363
10
255.10001270002547
20
-26.500520701041363
10
255.10001270002547
20
-11.60052070104136
10
240.20001270002541
20
-11.60052070104136
0
LWPOLYLINE
5
149
100
AcDbEntity
8
0
100
AcDbPolyline
90
4
70
1
43
0.0
10
121.13803657607308
20
-26.500546101092208
10
136.03803657607307
20
-26.500546101092208
10
136.03803657607307
20
-11.600546101092208
10
121.13803657607308
20
-11.600546101092208
0
LWPOLYLINE
5
150
100
AcDbEntity
8
0
100
AcDbPolyline
90
4
70
1
43
0.0
10
190.80496570993125
20
-30.650508001016014
10
175.90496570993153
20
-30.650508001016014
10
175.90496570993153
20
-45.550508001016034
10
190.80496570993125
20
-45.550508001016034
0
LWPOLYLINE
5
151
100
AcDbEntity
8
0
100
AcDbPolyline
90
4
70
1
43
0.0
10
255.10001270002547
20
-45.55063500127001
10
255.10001270002547
20
-30.650635001270015
10
240.20001270002541
20
-30.650635001270015
10
240.20001270002541
20
-45.55063500127001
0
LWPOLYLINE
5
152
100
AcDbEntity
8
0
100
AcDbPolyline
90
4
70
1
43
0.0
10
199.71997713995432
20
-26.500520701041363
10
214.61997713995444
20
-26.500520701041363
10
214.61997713995444
20
-11.60052070104136
10
199.71997713995432
20
-11.60052070104136
0
LWPOLYLINE
5
153
100
AcDbEntity
8
0
100
AcDbPolyline
90
4
70
1
43
0.0
10
159.238036576073
20
-11.600546101092208
10
159.238036576073
20
-26.500546101092208
10
174.13803657607329
20
-26.500546101092208
10
174.13803657607329
20
-11.600546101092208
0
LWPOLYLINE
5
154
100
AcDbEntity
8
0
100
AcDbPolyline
90
4
70
1
43
0.0
10
71.744996189992392
20
-45.550533401066858
10
71.744996189992392
20
-30.650533401066745
10
56.844996189992393
20
-30.650533401066745
10
56.844996189992393
20
-45.550533401066858
0
LWPOLYLINE
5
155
100
AcDbEntity
8
0
100
AcDbPolyline
90
4
70
1
43
0.0
10
13.979997459994866
20
-45.550533401066858
10
28.879997459994868
20
-45.550533401066858
10
28.879997459994868
20
-30.650533401066745
10
13.979997459994866
20
-30.650533401066745
0
LWPOLYLINE
5
156
100
AcDbEntity
8
0
100
AcDbPolyline
90
4
70
1
43
0.0
10
178.28802387604793
20
-11.600546101092208
10
178.28802387604793
20
-26.500546101092208
10
193.18802387604762
20
-26.500546101092208
10
193.18802387604762
20
-11.600546101092208
0
LWPOLYLINE
5
157
100
AcDbEntity
8
0
100
AcDbPolyline
90
4
70
1
43
0.0
10
102.08799847599701
20
-11.600546101092208
10
102.08799847599701
20
-26.500546101092208
10
116.9879984759968
20
-26.500546101092208
10
116.9879984759968
20
-11.600546101092208
0
LWPOLYLINE
5
158
100
AcDbEntity
8
0
100
AcDbPolyline
90
4
70
1
43
0.0
10
155.08802387604783
20
-11.60049530099052
10
140.18802387604782
20
-11.60049530099052
10
140.18802387604782
20
-26.500520701041363
10
155.08802387604783
20
-26.500520701041363
0
LWPOLYLINE
5
159
100
AcDbEntity
8
0
100
AcDbPolyline
90
4
70
1
43
0.0
10
236.05000000000007
20
-45.550508001016034
10
236.05000000000007
20
-30.650508001016014
10
221.15000000000006
20
-30.650508001016014
10
221.15000000000006
20
-45.550508001016034
0
LWPOLYLINE
5
160
100
AcDbEntity
8
0
100
AcDbPolyline
90
4
70
1
43
0.0
10
217.00001270002531
20
-30.650508001016014
10
202.10001270002556
20
-30.650508001016014
10
202.10001270002556
20
-45.550508001016034
10
217.00001270002531
20
-45.550508001016034
0
LWPOLYLINE
5
161
100
AcDbEntity
8
0
100
AcDbPolyline
90
4
70
1
43
0.0
10
236.05000000000007
20
-11.60052070104136
10
221.15000000000006
20
-11.60052070104136
10
221.15000000000006
20
-26.500520701041363
10
236.05000000000007
20
-26.500520701041363
0
ENDSEC
0
SECTION
2
OBJECTS
0
DICTIONARY
5
C
100
AcDbDictionary
3
ACAD_GROUP
350
D
3
ACAD_MLINESTYLE
350
17
0
DICTIONARY
5
D
100
AcDbDictionary
0
DICTIONARY
5
1A
330
C
100
AcDbDictionary
0
DICTIONARY
5
17
100
AcDbDictionary
0
ENDSEC
0
EOF
