0
SECTION
2
HEADER
9
$INSUNITS
70
4
9
$ACADVER
1
AC1014
9
$HANDSEED
5
FFFF
0
ENDSEC
0
SECTION
2
TABLES
0
TABLE
2
VPORT
5
8
100
AcDbSymbolTable
0
ENDTAB
0
TABLE
2
LTYPE
5
5
100
AcDbSymbolTable
0
LTYPE
5
14
100
AcDbSymbolTableRecord
100
AcDbLinetypeTableRecord
2
BYBLOCK
70
0
0
LTYPE
5
15
100
AcDbSymbolTableRecord
100
AcDbLinetypeTableRecord
2
BYLAYER
70
0
0
ENDTAB
0
TABLE
2
LAYER
5
2
100
AcDbSymbolTable
70
2
0
LAYER
5
50
100
AcDbSymbolTableRecord
100
AcDbLayerTableRecord
2
0
70
0
6
CONTINUOUS
0
ENDTAB
0
TABLE
2
STYLE
5
3
100
AcDbSymbolTable
70
1
0
STYLE
5
11
100
AcDbSymbolTableRecord
100
AcDbTextStyleTableRecord
2
STANDARD
70
0
0
ENDTAB
0
TABLE
2
VIEW
5
6
100
AcDbSymbolTable
70
0
0
ENDTAB
0
TABLE
2
UCS
5
7
100
AcDbSymbolTable
70
0
0
ENDTAB
0
TABLE
2
APPID
5
9
100
AcDbSymbolTable
70
2
0
APPID
5
12
100
AcDbSymbolTableRecord
100
AcDbRegAppTableRecord
2
ACAD
70
0
0
ENDTAB
0
TABLE
2
DIMSTYLE
5
A
100
AcDbSymbolTable
70
1
0
ENDTAB
0
TABLE
2
BLOCK_RECORD
5
1
100
AcDbSymbolTable
70
1
0
BLOCK_RECORD
5
1F
100
AcDbSymbolTableRecord
100
AcDbBlockTableRecord
2
*MODEL_SPACE
0
BLOCK_RECORD
5
1B
100
AcDbSymbolTableRecord
100
AcDbBlockTableRecord
2
*PAPER_SPACE
0
ENDTAB
0
ENDSEC
0
SECTION
2
BLOCKS
0
BLOCK
5
20
100
AcDbEntity
100
AcDbBlockBegin
2
*MODEL_SPACE
0
ENDBLK
5
21
100
AcDbEntity
100
AcDbBlockEnd
0
BLOCK
5
1C
100
AcDbEntity
100
AcDbBlockBegin
2
*PAPER_SPACE
0
ENDBLK
5
1D
100
AcDbEntity
100
AcDbBlockEnd
0
ENDSEC
0
SECTION
2
ENTITIES
0
LWPOLYLINE
5
100
100
AcDbEntity
8
0
100
AcDbPolyline
90
31
70
1
43
0.0
10
256.6800101594331
20
-48.119989840879136
10
10.029997459407696
20
-48.119989696222831
42
-0.41421356220436861
10
9.0299974599770074
20
-47.119989696164843
10
9.0299974599950019
20
28.070002540005135
42
-0.4142135623730937
10
10.029997459995004
20
29.070002540005131
10
237.11444475893526
20
29.070002540005131
42
0.41421356237306772
10
238.11444475893526
20
30.070002540005131
10
238.11444475893526
20
30.498706392809392
42
-0.41421356237306772
10
239.11444475893529
20
31.498706392809382
10
241.59999459981921
20
31.498706392809392
42
0.4142135623730846
10
242.59999459981918
20
32.498706392809382
10
242.59999459981918
20
34.389594162825006
42
0.42205253668202275
10
241.57330820315508
20
35.389238017521052
42
-0.014275970229189994
10
10.054030099246967
20
35.819965277480101
42
0.41810882437469049
10
2.280399026282609
20
27.991109471883142
42
-0.049967834644662375
10
2.2803990262823248
20
-47.041096628044833
42
0.41810882420214018
10
10.054030094713813
20
-54.869952433653566
42
-0.015206390355630392
10
256.65597751622693
20
-54.869952578483208
42
0.41810882454097476
10
264.42960859373466
20
-47.041096773053617
42
-0.049967834548033642
10
264.4296085937346
20
27.991109472036651
42
0.41810882436763691
10
256.65597752080998
20
35.819965277480605
42
-6.6989472380572936e-05
10
255.56985641682314
20
35.787071326052065
42
0.40541233983232183
10
254.59999433159828
20
34.787525576177245
10
254.59999433159828
20
32.498706392809389
42
0.41421356237308982
10
255.59999433159831
20
31.498706392809392
10
256.09999425336719
20
31.498706392809382
42
-0.41421356237308854
10
257.09999425336719
20
30.498706392809392
10
257.09999425336719
20
29.478421928767599
42
0.1978499510266461
10
257.39000220669379
20
28.774212234386354
42
-0.19784995102663108
10
257.6800101600204
20
28.070002540005135
10
257.68001015999795
20
-47.119989841022203
42
-0.41421356252561597
0
CIRCLE
5
101
100
AcDbEntity
8
0
100
AcDbCircle
10
88.249961899923818
20
-50.744989742103357
30
0
40
1.5500000000000074
210
0
220
0
230
1
0
CIRCLE
5
102
100
AcDbEntity
8
0
100
AcDbCircle
10
7.4667353774410472
20
-49.683251777213364
30
0
40
1.5500000000000014
210
0
220
0
230
1
0
CIRCLE
5
103
100
AcDbEntity
8
0
100
AcDbCircle
10
178.4500381000762
20
31.695002540005135
30
0
40
1.5500000000000067
210
0
220
0
230
1
0
CIRCLE
5
104
100
AcDbEntity
8
0
100
AcDbCircle
10
178.4500381000762
20
-50.744989795077799
30
0
40
1.5499999999999927
210
0
220
0
230
1
0
CIRCLE
5
105
100
AcDbEntity
8
0
100
AcDbCircle
10
259.24327224182161
20
30.633264621806411
30
0
40
1.5500000000000047
210
0
220
0
230
1
0
CIRCLE
5
106
100
AcDbEntity
8
0
100
AcDbCircle
10
7.4667353781937651
20
30.633264621806369
30
0
40
1.5500000000000005
210
0
220
0
230
1
0
CIRCLE
5
107
100
AcDbEntity
8
0
100
AcDbCircle
10
259.24327224106889
20
-49.683251923576115
30
0
40
1.5500000000000005
210
0
220
0
230
1
0
CIRCLE
5
108
100
AcDbEntity
8
0
100
AcDbCircle
10
88.249961899923846
20
31.695002540005135
30
0
40
1.5500000000000047
210
0
220
0
230
1
0
ENDSEC
0
SECTION
2
OBJECTS
0
DICTIONARY
5
C
100
AcDbDictionary
3
ACAD_GROUP
350
D
3
ACAD_MLINESTYLE
350
17
0
DICTIONARY
5
D
100
AcDbDictionary
0
DICTIONARY
5
1A
330
C
100
AcDbDictionary
0
DICTIONARY
5
17
100
AcDbDictionary
0
ENDSEC
0
EOF
