999
dxfrw 0.6.3
  0
SECTION
  2
HEADER
  9
$ACADVER
  1
AC1021
  9
$DWGCODEPAGE
  3
ANSI_936
  9
$INSBASE
 10
0
 20
0
 30
0
  9
$EXTMIN
 10
9.525019050038054
 20
-47.62514605029207
 30
0
  9
$EXTMAX
 10
258.0640060960121
 20
38.55163179724313
 30
0
  9
$LIMMIN
 10
0
 20
0
  9
$LIMMAX
 10
420
 20
297
  9
$ORTHOMODE
 70
    0
  9
$REGENMODE
 70
    1
  9
$FILLMODE
 70
    1
  9
$QTEXTMODE
 70
    0
  9
$MIRRTEXT
 70
    0
  9
$LTSCALE
 40
1
  9
$ATTMODE
 70
    1
  9
$TEXTSIZE
 40
2.5
  9
$TRACEWID
 40
1
  9
$TEXTSTYLE
  7
Standard
  9
$CLAYER
  8
0
  9
$CELTYPE
  6
ByLayer
  9
$CECOLOR
 62
  256
  9
$CELTSCALE
 40
1
  9
$DISPSILH
 70
    0
  9
$DIMSCALE
 40
1
  9
$DIMASZ
 40
2.5
  9
$DIMEXO
 40
0.625
  9
$DIMDLI
 40
3.75
  9
$DIMRND
 40
0
  9
$DIMDLE
 40
0
  9
$DIMEXE
 40
1.25
  9
$DIMTP
 40
0
  9
$DIMTM
 40
0
  9
$DIMTXT
 40
2.5
  9
$DIMCEN
 40
2.5
  9
$DIMTSZ
 40
0
  9
$DIMTOL
 70
    0
  9
$DIMLIM
 70
    0
  9
$DIMTIH
 70
    0
  9
$DIMTOH
 70
    0
  9
$DIMSE1
 70
    0
  9
$DIMSE2
 70
    0
  9
$DIMTAD
 70
    1
  9
$DIMZIN
 70
    8
  9
$DIMBLK
  1

  9
$DIMASO
 70
    1
  9
$DIMSHO
 70
    1
  9
$DIMPOST
  1

  9
$DIMAPOST
  1

  9
$DIMALT
 70
    0
  9
$DIMALTD
 70
    3
  9
$DIMALTF
 40
0.03937007874016
  9
$DIMLFAC
 40
1
  9
$DIMTOFL
 70
    1
  9
$DIMTVP
 40
0
  9
$DIMTIX
 70
    0
  9
$DIMSOXD
 70
    0
  9
$DIMSAH
 70
    0
  9
$DIMBLK1
  1

  9
$DIMBLK2
  1

  9
$DIMSTYLE
  2
ISO-25
  9
$DIMCLRD
 70
    0
  9
$DIMCLRE
 70
    0
  9
$DIMCLRT
 70
    0
  9
$DIMTFAC
 40
1
  9
$DIMGAP
 40
0.625
  9
$DIMJUST
 70
    0
  9
$DIMSD1
 70
    0
  9
$DIMSD2
 70
    0
  9
$DIMTOLJ
 70
    0
  9
$DIMTZIN
 70
    8
  9
$DIMALTZ
 70
    0
  9
$DIMALTTZ
 70
    0
  9
$DIMUPT
 70
    0
  9
$DIMDEC
 70
    2
  9
$DIMTDEC
 70
    2
  9
$DIMALTU
 70
    2
  9
$DIMALTTD
 70
    3
  9
$DIMTXSTY
  7
Standard
  9
$DIMAUNIT
 70
    0
  9
$DIMADEC
 70
    0
  9
$DIMALTRND
 40
0
  9
$DIMAZIN
 70
    0
  9
$DIMDSEP
 70
   44
  9
$DIMATFIT
 70
    3
  9
$DIMFRAC
 70
    0
  9
$DIMLDRBLK
  1

  9
$DIMLUNIT
 70
    2
  9
$DIMLWD
 70
   -2
  9
$DIMLWE
 70
   -2
  9
$DIMTMOVE
 70
    0
  9
$DIMFXL
 40
1
  9
$DIMFXLON
 70
    0
  9
$DIMJOGANG
 40
0.7853981633974483
  9
$DIMTFILL
 70
    0
  9
$DIMTFILLCLR
 70
    0
  9
$DIMARCSYM
 70
    0
  9
$DIMLTYPE
  6

  9
$DIMLTEX1
  6

  9
$DIMLTEX2
  6

  9
$LUNITS
 70
    2
  9
$LUPREC
 70
    4
  9
$SKETCHINC
 40
1
  9
$FILLETRAD
 40
0
  9
$AUNITS
 70
    0
  9
$AUPREC
 70
    0
  9
$MENU
  1
.
  9
$ELEVATION
 40
0
  9
$PELEVATION
 40
0
  9
$THICKNESS
 40
0
  9
$LIMCHECK
 70
    0
  9
$CHAMFERA
 40
0
  9
$CHAMFERB
 40
0
  9
$CHAMFERC
 40
0
  9
$CHAMFERD
 40
0
  9
$SKPOLY
 70
    0
  9
$USRTIMER
 70
    1
  9
$ANGBASE
 50
0
  9
$ANGDIR
 70
    0
  9
$PDMODE
 70
    0
  9
$PDSIZE
 40
0
  9
$PLINEWID
 40
0
  9
$SPLFRAME
 70
    0
  9
$SPLINETYPE
 70
    6
  9
$SPLINESEGS
 70
    8
  9
$HANDSEED
  5
20000
  9
$SURFTAB1
 70
    6
  9
$SURFTAB2
 70
    6
  9
$SURFTYPE
 70
    6
  9
$SURFU
 70
    6
  9
$SURFV
 70
    6
  9
$UCSBASE
  2

  9
$UCSNAME
  2

  9
$UCSORG
 10
0
 20
0
 30
0
  9
$UCSXDIR
 10
1
 20
0
 30
0
  9
$UCSYDIR
 10
0
 20
1
 30
0
  9
$UCSORTHOREF
  2

  9
$UCSORTHOVIEW
 70
    0
  9
$UCSORGTOP
 10
0
 20
0
 30
0
  9
$UCSORGBOTTOM
 10
0
 20
0
 30
0
  9
$UCSORGLEFT
 10
0
 20
0
 30
0
  9
$UCSORGRIGHT
 10
0
 20
0
 30
0
  9
$UCSORGFRONT
 10
0
 20
0
 30
0
  9
$UCSORGBACK
 10
0
 20
0
 30
0
  9
$PUCSBASE
  2

  9
$PUCSNAME
  2

  9
$PUCSORG
 10
0
 20
0
 30
0
  9
$PUCSXDIR
 10
1
 20
0
 30
0
  9
$PUCSYDIR
 10
0
 20
1
 30
0
  9
$PUCSORTHOREF
  2

  9
$PUCSORTHOVIEW
 70
    0
  9
$PUCSORGTOP
 10
0
 20
0
 30
0
  9
$PUCSORGBOTTOM
 10
0
 20
0
 30
0
  9
$PUCSORGLEFT
 10
0
 20
0
 30
0
  9
$PUCSORGRIGHT
 10
0
 20
0
 30
0
  9
$PUCSORGFRONT
 10
0
 20
0
 30
0
  9
$PUCSORGBACK
 10
0
 20
0
 30
0
  9
$USERI1
 70
    0
  9
$USERI2
 70
    0
  9
$USERI3
 70
    0
  9
$USERI4
 70
    0
  9
$USERI5
 70
    0
  9
$USERR1
 40
0
  9
$USERR2
 40
0
  9
$USERR3
 40
0
  9
$USERR4
 40
0
  9
$USERR5
 40
0
  9
$WORLDVIEW
 70
    1
  9
$SHADEDGE
 70
    3
  9
$SHADEDIF
 70
   70
  9
$TILEMODE
 70
    1
  9
$MAXACTVP
 70
   64
  9
$PINSBASE
 10
0
 20
0
 30
0
  9
$PLIMCHECK
 70
    0
  9
$PEXTMIN
 10
0
 20
0
 30
0
  9
$PEXTMAX
 10
0
 20
0
 30
0
  9
$GRIDMODE
 70
    1
  9
$SNAPSTYLE
 70
    0
  9
$PLIMMIN
 10
0
 20
0
  9
$PLIMMAX
 10
12
 20
9
  9
$UNITMODE
 70
    0
  9
$VISRETAIN
 70
    1
  9
$PLINEGEN
 70
    0
  9
$PSLTSCALE
 70
    1
  9
$TREEDEPTH
 70
 3020
  9
$CMLSTYLE
  2
Standard
  9
$CMLJUST
 70
    0
  9
$CMLSCALE
 40
20
  9
$PROXYGRAPHICS
 70
    1
  9
$MEASUREMENT
 70
    1
  9
$CELWEIGHT
370
   -1
  9
$ENDCAPS
280
    0
  9
$JOINSTYLE
280
    0
  9
$LWDISPLAY
290
    0
  9
$INSUNITS
 70
    4
  9
$HYPERLINKBASE
  1

  9
$STYLESHEET
  1

  9
$XEDIT
290
    1
  9
$CEPSNTYPE
380
    0
  9
$PSTYLEMODE
290
    1
  9
$EXTNAMES
290
    1
  9
$PSVPSCALE
 40
0
  9
$OLESTARTUP
290
    0
  9
$SORTENTS
280
  127
  9
$INDEXCTL
280
    0
  9
$HIDETEXT
280
    1
  9
$XCLIPFRAME
290
    0
  9
$HALOGAP
280
    0
  9
$OBSCOLOR
 70
  257
  9
$OBSLTYPE
280
    0
  9
$INTERSECTIONDISPLAY
280
    0
  9
$INTERSECTIONCOLOR
 70
  257
  9
$DIMASSOC
280
    2
  9
$PROJECTNAME
  1

  9
$CAMERADISPLAY
290
    0
  9
$LENSLENGTH
 40
50
  9
$CAMERAHEIGHT
 40
0
  9
$STEPSPERSEC
 40
2
  9
$STEPSIZE
 40
6
  9
$3DDWFPREC
 40
2
  9
$PSOLWIDTH
 40
5
  9
$PSOLHEIGHT
 40
80
  9
$LOFTANG1
 40
1.570796326794896
  9
$LOFTANG2
 40
1.570796326794896
  9
$LOFTMAG1
 40
0
  9
$LOFTMAG2
 40
0
  9
$LOFTPARAM
 70
    7
  9
$LOFTNORMALS
280
    1
  9
$LATITUDE
 40
37.795
  9
$LONGITUDE
 40
-122.394
  9
$NORTHDIRECTION
 40
0
  9
$TIMEZONE
 70
-8000
  9
$LIGHTGLYPHDISPLAY
280
    1
  9
$TILEMODELIGHTSYNCH
280
    1
  9
$SOLIDHIST
280
    0
  9
$SHOWHIST
280
    1
  9
$DWFFRAME
280
    2
  9
$DGNFRAME
280
    0
  9
$REALWORLDSCALE
290
    1
  9
$INTERFERECOLOR
 62
    1
  9
$CSHADOW
280
    0
  9
$SHADOWPLANELOCATION
 40
0
  0
ENDSEC
  0
SECTION
  2
CLASSES
  0
ENDSEC
  0
SECTION
  2
TABLES
  0
TABLE
  2
VPORT
  5
8
330
0
100
AcDbSymbolTable
 70
    1
  0
VPORT
  5
31
330
2
100
AcDbSymbolTableRecord
100
AcDbViewportTableRecord
  2
*ACTIVE
 70
    0
 10
0
 20
0
 11
1
 21
1
 12
133.8597334602038
 22
27.83627484799344
 13
0
 23
0
 14
10
 24
10
 15
10
 25
10
 16
0
 26
0
 36
1
 17
0
 27
0
 37
0
 40
149.0059418333767
 41
1.987179487179487
 42
50
 43
0
 44
0
 50
0
 51
0
 71
    0
 72
  100
 73
    1
 74
    3
 75
    0
 76
    1
 77
    0
 78
    0
281
    0
 65
    1
110
0
120
0
130
0
111
1
121
0
131
0
112
0
122
1
132
0
 79
    0
146
0
348
10020
 60
    7
 61
    5
292
1
282
    1
141
0
142
0
 63
  250
421
3358443
  0
ENDTAB
  0
TABLE
  2
LTYPE
  5
5
330
0
100
AcDbSymbolTable
 70
    4
  0
LTYPE
  5
14
330
5
100
AcDbSymbolTableRecord
100
AcDbLinetypeTableRecord
  2
ByBlock
 70
    0
  3

 72
   65
 73
    0
 40
0
  0
LTYPE
  5
15
330
5
100
AcDbSymbolTableRecord
100
AcDbLinetypeTableRecord
  2
ByLayer
 70
    0
  3

 72
   65
 73
    0
 40
0
  0
LTYPE
  5
16
330
5
100
AcDbSymbolTableRecord
100
AcDbLinetypeTableRecord
  2
Continuous
 70
    0
  3
Solid line
 72
   65
 73
    0
 40
0
  0
LTYPE
  5
32
330
5
100
AcDbSymbolTableRecord
100
AcDbLinetypeTableRecord
  2
DOT
 70
    0
  3
Dot . . . . . . . . . . . . . . . . . . . . . .
 72
   65
 73
    2
 40
6.35
 49
0
 74
    0
 49
-6.35
 74
    0
  0
LTYPE
  5
33
330
5
100
AcDbSymbolTableRecord
100
AcDbLinetypeTableRecord
  2
DOTTINY
 70
    0
  3
Dot (.15x) .....................................
 72
   65
 73
    2
 40
0.9525
 49
0
 74
    0
 49
-0.9525
 74
    0
  0
LTYPE
  5
34
330
5
100
AcDbSymbolTableRecord
100
AcDbLinetypeTableRecord
  2
DOT2
 70
    0
  3
Dot (.5x) .....................................
 72
   65
 73
    2
 40
3.175
 49
0
 74
    0
 49
-3.175
 74
    0
  0
LTYPE
  5
35
330
5
100
AcDbSymbolTableRecord
100
AcDbLinetypeTableRecord
  2
DOTX2
 70
    0
  3
Dot (2x) .  .  .  .  .  .  .  .  .  .  .  .  .
 72
   65
 73
    2
 40
12.7
 49
0
 74
    0
 49
-12.7
 74
    0
  0
LTYPE
  5
36
330
5
100
AcDbSymbolTableRecord
100
AcDbLinetypeTableRecord
  2
DASHED
 70
    0
  3
Dashed _ _ _ _ _ _ _ _ _ _ _ _ _ _ _ _ _
 72
   65
 73
    2
 40
19.05
 49
12.7
 74
    0
 49
-6.35
 74
    0
  0
LTYPE
  5
37
330
5
100
AcDbSymbolTableRecord
100
AcDbLinetypeTableRecord
  2
DASHEDTINY
 70
    0
  3
Dashed (.15x) _ _ _ _ _ _ _ _ _ _ _ _ _ _ _ _ _
 72
   65
 73
    2
 40
2.8575
 49
1.905
 74
    0
 49
-0.9525
 74
    0
  0
LTYPE
  5
38
330
5
100
AcDbSymbolTableRecord
100
AcDbLinetypeTableRecord
  2
DASHED2
 70
    0
  3
Dashed (.5x) _ _ _ _ _ _ _ _ _ _ _ _ _ _ _ _ _
 72
   65
 73
    2
 40
9.524999999999999
 49
6.35
 74
    0
 49
-3.175
 74
    0
  0
LTYPE
  5
39
330
5
100
AcDbSymbolTableRecord
100
AcDbLinetypeTableRecord
  2
DASHEDX2
 70
    0
  3
Dashed (2x) ____  ____  ____  ____  ____  ___
 72
   65
 73
    2
 40
38.09999999999999
 49
25.4
 74
    0
 49
-12.7
 74
    0
  0
LTYPE
  5
3A
330
5
100
AcDbSymbolTableRecord
100
AcDbLinetypeTableRecord
  2
DASHDOT
 70
    0
  3
Dash dot __ . __ . __ . __ . __ . __ . __ . __
 72
   65
 73
    4
 40
25.4
 49
12.7
 74
    0
 49
-6.35
 74
    0
 49
0
 74
    0
 49
-6.35
 74
    0
  0
LTYPE
  5
3B
330
5
100
AcDbSymbolTableRecord
100
AcDbLinetypeTableRecord
  2
DASHDOTTINY
 70
    0
  3
Dash dot (.15x) _._._._._._._._._._._._._._._.
 72
   65
 73
    4
 40
3.81
 49
1.905
 74
    0
 49
-0.9525
 74
    0
 49
0
 74
    0
 49
-0.9525
 74
    0
  0
LTYPE
  5
3C
330
5
100
AcDbSymbolTableRecord
100
AcDbLinetypeTableRecord
  2
DASHDOT2
 70
    0
  3
Dash dot (.5x) _._._._._._._._._._._._._._._.
 72
   65
 73
    4
 40
12.7
 49
6.35
 74
    0
 49
-3.175
 74
    0
 49
0
 74
    0
 49
-3.175
 74
    0
  0
LTYPE
  5
3D
330
5
100
AcDbSymbolTableRecord
100
AcDbLinetypeTableRecord
  2
DASHDOTX2
 70
    0
  3
Dash dot (2x) ____  .  ____  .  ____  .  ___
 72
   65
 73
    4
 40
50.8
 49
25.4
 74
    0
 49
-12.7
 74
    0
 49
0
 74
    0
 49
-12.7
 74
    0
  0
LTYPE
  5
3E
330
5
100
AcDbSymbolTableRecord
100
AcDbLinetypeTableRecord
  2
DIVIDE
 70
    0
  3
Divide ____ . . ____ . . ____ . . ____ . . ____
 72
   65
 73
    6
 40
31.75
 49
12.7
 74
    0
 49
-6.35
 74
    0
 49
0
 74
    0
 49
-6.35
 74
    0
 49
0
 74
    0
 49
-6.35
 74
    0
  0
LTYPE
  5
3F
330
5
100
AcDbSymbolTableRecord
100
AcDbLinetypeTableRecord
  2
DIVIDETINY
 70
    0
  3
Divide (.15x) __..__..__..__..__..__..__..__.._
 72
   65
 73
    6
 40
4.7625
 49
1.905
 74
    0
 49
-0.9525
 74
    0
 49
0
 74
    0
 49
-0.9525
 74
    0
 49
0
 74
    0
 49
-0.9525
 74
    0
  0
LTYPE
  5
40
330
5
100
AcDbSymbolTableRecord
100
AcDbLinetypeTableRecord
  2
DIVIDE2
 70
    0
  3
Divide (.5x) __..__..__..__..__..__..__..__.._
 72
   65
 73
    6
 40
15.875
 49
6.35
 74
    0
 49
-3.175
 74
    0
 49
0
 74
    0
 49
-3.175
 74
    0
 49
0
 74
    0
 49
-3.175
 74
    0
  0
LTYPE
  5
41
330
5
100
AcDbSymbolTableRecord
100
AcDbLinetypeTableRecord
  2
DIVIDEX2
 70
    0
  3
Divide (2x) ________  .  .  ________  .  .  _
 72
   65
 73
    6
 40
63.5
 49
25.4
 74
    0
 49
-12.7
 74
    0
 49
0
 74
    0
 49
-12.7
 74
    0
 49
0
 74
    0
 49
-12.7
 74
    0
  0
LTYPE
  5
42
330
5
100
AcDbSymbolTableRecord
100
AcDbLinetypeTableRecord
  2
BORDER
 70
    0
  3
Border __ __ . __ __ . __ __ . __ __ . __ __ .
 72
   65
 73
    6
 40
44.45
 49
12.7
 74
    0
 49
-6.35
 74
    0
 49
12.7
 74
    0
 49
-6.35
 74
    0
 49
0
 74
    0
 49
-6.35
 74
    0
  0
LTYPE
  5
43
330
5
100
AcDbSymbolTableRecord
100
AcDbLinetypeTableRecord
  2
BORDERTINY
 70
    0
  3
Border (.15x) __.__.__.__.__.__.__.__.__.__.__.
 72
   65
 73
    6
 40
6.6675
 49
1.905
 74
    0
 49
-0.9525
 74
    0
 49
1.905
 74
    0
 49
-0.9525
 74
    0
 49
0
 74
    0
 49
-0.9525
 74
    0
  0
LTYPE
  5
44
330
5
100
AcDbSymbolTableRecord
100
AcDbLinetypeTableRecord
  2
BORDER2
 70
    0
  3
Border (.5x) __.__.__.__.__.__.__.__.__.__.__.
 72
   65
 73
    6
 40
22.225
 49
6.35
 74
    0
 49
-3.175
 74
    0
 49
6.35
 74
    0
 49
-3.175
 74
    0
 49
0
 74
    0
 49
-3.175
 74
    0
  0
LTYPE
  5
45
330
5
100
AcDbSymbolTableRecord
100
AcDbLinetypeTableRecord
  2
BORDERX2
 70
    0
  3
Border (2x) ____  ____  .  ____  ____  .  ___
 72
   65
 73
    6
 40
88.89999999999999
 49
25.4
 74
    0
 49
-12.7
 74
    0
 49
25.4
 74
    0
 49
-12.7
 74
    0
 49
0
 74
    0
 49
-12.7
 74
    0
  0
LTYPE
  5
46
330
5
100
AcDbSymbolTableRecord
100
AcDbLinetypeTableRecord
  2
CENTER
 70
    0
  3
Center ____ _ ____ _ ____ _ ____ _ ____ _ ____
 72
   65
 73
    4
 40
50.8
 49
31.75
 74
    0
 49
-6.35
 74
    0
 49
6.35
 74
    0
 49
-6.35
 74
    0
  0
LTYPE
  5
47
330
5
100
AcDbSymbolTableRecord
100
AcDbLinetypeTableRecord
  2
CENTERTINY
 70
    0
  3
Center (.15x) ___ _ ___ _ ___ _ ___ _ ___ _ ___
 72
   65
 73
    4
 40
7.62
 49
4.7625
 74
    0
 49
-0.9525
 74
    0
 49
0.9525
 74
    0
 49
-0.9525
 74
    0
  0
LTYPE
  5
48
330
5
100
AcDbSymbolTableRecord
100
AcDbLinetypeTableRecord
  2
CENTER2
 70
    0
  3
Center (.5x) ___ _ ___ _ ___ _ ___ _ ___ _ ___
 72
   65
 73
    4
 40
28.575
 49
19.05
 74
    0
 49
-3.175
 74
    0
 49
3.175
 74
    0
 49
-3.175
 74
    0
  0
LTYPE
  5
49
330
5
100
AcDbSymbolTableRecord
100
AcDbLinetypeTableRecord
  2
CENTERX2
 70
    0
  3
Center (2x) ________  __  ________  __  _____
 72
   65
 73
    4
 40
101.6
 49
63.5
 74
    0
 49
-12.7
 74
    0
 49
12.7
 74
    0
 49
-12.7
 74
    0
  0
ENDTAB
  0
TABLE
  2
LAYER
  5
2
330
0
100
AcDbSymbolTable
 70
    1
  0
LAYER
  5
10
330
2
100
AcDbSymbolTableRecord
100
AcDbLayerTableRecord
  2
0
 70
    0
 62
    7
  6
CONTINUOUS
370
   -3
390
F
  0
LAYER
  5
4A
330
2
100
AcDbSymbolTableRecord
100
AcDbLayerTableRecord
  2
BoardOutLine
 70
    0
 62
    6
  6
CONTINUOUS
370
   -3
390
F
  0
LAYER
  5
4B
330
2
100
AcDbSymbolTableRecord
100
AcDbLayerTableRecord
  2
BottomLayer
 70
    0
 62
    5
  6
CONTINUOUS
370
   -3
390
F
  0
LAYER
  5
4C
330
2
100
AcDbSymbolTableRecord
100
AcDbLayerTableRecord
  2
BottomPasteMaskLayer
 70
    0
 62
   16
420
8388608
  6
CONTINUOUS
370
   -3
390
F
  0
LAYER
  5
4D
330
2
100
AcDbSymbolTableRecord
100
AcDbLayerTableRecord
  2
BottomSilkLayer
 70
    0
 62
   72
420
6736947
  6
CONTINUOUS
370
   -3
390
F
  0
LAYER
  5
4E
330
2
100
AcDbSymbolTableRecord
100
AcDbLayerTableRecord
  2
BottomSolderMaskLayer
 70
    0
 62
  200
420
11141375
  6
CONTINUOUS
370
   -3
390
F
  0
LAYER
  5
4F
330
2
100
AcDbSymbolTableRecord
100
AcDbLayerTableRecord
  2
Document
 70
    0
 62
  255
  6
CONTINUOUS
370
   -3
390
F
  0
LAYER
  5
50
330
2
100
AcDbSymbolTableRecord
100
AcDbLayerTableRecord
  2
Hole
 70
    0
 62
   19
420
2236962
  6
CONTINUOUS
370
   -3
390
F
  0
LAYER
  5
51
330
2
100
AcDbSymbolTableRecord
100
AcDbLayerTableRecord
  2
Multi-Layer
 70
    0
 62
    9
  6
CONTINUOUS
370
   -3
390
F
  0
LAYER
  5
52
330
2
100
AcDbSymbolTableRecord
100
AcDbLayerTableRecord
  2
TopLayer
 70
    0
 62
    1
  6
CONTINUOUS
370
   -3
390
F
  0
LAYER
  5
53
330
2
100
AcDbSymbolTableRecord
100
AcDbLayerTableRecord
  2
TopSilkLayer
 70
    0
 62
   40
420
16763904
  6
CONTINUOUS
370
   -3
390
F
  0
LAYER
  5
54
330
2
100
AcDbSymbolTableRecord
100
AcDbLayerTableRecord
  2
TopSolderMaskLayer
 70
    0
 62
  216
420
8388736
  6
CONTINUOUS
370
   -3
390
F
  0
ENDTAB
  0
TABLE
  2
STYLE
  5
3
330
0
100
AcDbSymbolTable
 70
    3
  0
STYLE
  5
55
330
2
100
AcDbSymbolTableRecord
100
AcDbTextStyleTableRecord
  2
Standard
 70
    0
 40
0
 41
1
 50
0
 71
    0
 42
1
  3
txt
  4

  0
ENDTAB
  0
TABLE
  2
VIEW
  5
6
330
0
100
AcDbSymbolTable
 70
    0
  0
ENDTAB
  0
TABLE
  2
UCS
  5
7
330
0
100
AcDbSymbolTable
 70
    0
  0
ENDTAB
  0
TABLE
  2
APPID
  5
9
330
0
100
AcDbSymbolTable
 70
    1
  0
APPID
  5
12
330
9
100
AcDbSymbolTableRecord
100
AcDbRegAppTableRecord
  2
ACAD
 70
    0
  0
APPID
  5
56
330
9
100
AcDbSymbolTableRecord
100
AcDbRegAppTableRecord
  2
LibreCad
 70
    0
  0
ENDTAB
  0
TABLE
  2
DIMSTYLE
  5
A
330
0
100
AcDbSymbolTable
 70
    1
100
AcDbDimStyleTable
 71
    1
  0
DIMSTYLE
105
57
330
A
100
AcDbSymbolTableRecord
100
AcDbDimStyleTableRecord
  2
Standard
 70
    0
 40
1
 41
2.5
 42
0.625
 43
0.38
 44
1.25
 45
0
 46
0
 47
0
 48
0
 49
1
140
2.5
141
0.09
142
0
143
25.4
144
1
145
0
146
1
147
0.625
148
0
 71
    0
 72
    0
 73
    0
 74
    1
 75
    0
 76
    0
 77
    0
 78
    8
 79
    0
170
    0
171
    2
172
    0
173
    0
174
    0
175
    0
176
    0
177
    0
178
    0
179
    0
271
    2
272
    4
273
    2
274
    2
275
    0
276
    0
277
    2
278
   44
279
    0
280
    0
281
    0
282
    0
283
    1
284
    0
285
    0
286
    0
288
    0
289
    3
340
Standard
341

371
   -2
372
   -2
  0
ENDTAB
  0
TABLE
  2
BLOCK_RECORD
  5
1
330
0
100
AcDbSymbolTable
 70
    2
  0
BLOCK_RECORD
  5
1F
330
1
100
AcDbSymbolTableRecord
100
AcDbBlockTableRecord
  2
*Model_Space
 70
    0
280
    1
281
    0
  0
BLOCK_RECORD
  5
1E
330
1
100
AcDbSymbolTableRecord
100
AcDbBlockTableRecord
  2
*Paper_Space
 70
    0
280
    1
281
    0
  0
ENDTAB
  0
ENDSEC
  0
SECTION
  2
BLOCKS
  0
BLOCK
  5
20
330
1F
100
AcDbEntity
  8
0
100
AcDbBlockBegin
  2
*Model_Space
 70
    0
 10
0
 20
0
 30
0
  3
*Model_Space
  1

  0
ENDBLK
  5
21
330
1F
100
AcDbEntity
  8
0
100
AcDbBlockEnd
  0
BLOCK
  5
1C
330
1B
100
AcDbEntity
  8
0
100
AcDbBlockBegin
  2
*Paper_Space
 70
    0
 10
0
 20
0
 30
0
  3
*Paper_Space
  1

  0
ENDBLK
  5
1D
330
1F
100
AcDbEntity
  8
0
100
AcDbBlockEnd
  0
ENDSEC
  0
SECTION
  2
ENTITIES
  0
LWPOLYLINE
  5
58
100
AcDbEntity
  8
BoardOutLine
  6
ByLayer
 62
  256
370
   -1
100
AcDbPolyline
 90
    2
 70
    0
 43
0
 10
255.1800101600202
 20
28.57000254000513
 10
252.222504445009
 20
28.57000254000513
  0
LWPOLYLINE
  5
59
100
AcDbEntity
  8
BoardOutLine
  6
ByLayer
 62
  256
370
   -1
100
AcDbPolyline
 90
    2
 70
    0
 43
0
 10
11.5
 20
28.57000254000513
 10
242.9899923799849
 20
28.57000254000513
  0
LWPOLYLINE
  5
5A
100
AcDbEntity
  8
BoardOutLine
  6
ByLayer
 62
  256
370
   -1
100
AcDbPolyline
 90
    4
 70
    0
 43
0
 10
242.9899923799849
 20
28.56997713995429
 10
242.9895859791718
 20
22.73304546609097
 10
252.222504445009
 20
22.73304546609097
 10
252.222504445009
 20
28.56997713995429
  0
LWPOLYLINE
  5
5B
100
AcDbEntity
  8
BoardOutLine
  6
ByLayer
 62
  256
370
   -1
100
AcDbPolyline
 90
    2
 70
    0
 43
0
 10
255.1800101600202
 20
-47.61998983997967
 10
11.5
 20
-47.61998983997967
  0
LWPOLYLINE
  5
5C
100
AcDbEntity
  8
BoardOutLine
  6
ByLayer
 62
  256
370
   -1
100
AcDbPolyline
 90
    2
 70
    0
 43
0
 10
257.1800101600204
 20
26.57000254000502
 10
257.1800101600204
 20
-45.61998983997967
  0
LWPOLYLINE
  5
5D
100
AcDbEntity
  8
BoardOutLine
  6
ByLayer
 62
  256
370
   -1
100
AcDbPolyline
 90
    2
 70
    0
 43
0
 10
9.529997459995002
 20
-45.60000000000002
 10
9.529997459995002
 20
26.60000000000002
  0
LWPOLYLINE
  5
5E
100
AcDbEntity
  8
BottomSilkLayer
  6
ByLayer
 62
  256
370
   -1
100
AcDbPolyline
 90
    5
 70
    1
 43
0
 10
238.7599949199898
 20
27.30505461010921
 10
238.7599949199898
 20
-5.715011430022855
 10
256.540030480061
 20
-5.715011430022855
 10
256.540030480061
 20
27.30505461010921
 10
238.7599949199898
 20
27.30505461010921
  0
LWPOLYLINE
  5
5F
100
AcDbEntity
  8
BottomSilkLayer
  6
ByLayer
 62
  256
370
   -1
100
AcDbPolyline
 90
    5
 70
    1
 43
0
 10
232.5374650749302
 20
-0.2540005080010133
 10
232.5374650749302
 20
-2.667005334010696
 10
234.3154686309374
 20
-2.667005334010696
 10
234.3154686309374
 20
-0.2540005080010133
 10
232.5374650749302
 20
-0.2540005080010133
  0
LWPOLYLINE
  5
60
100
AcDbEntity
  8
BottomSilkLayer
  6
ByLayer
 62
  256
370
   -1
100
AcDbPolyline
 90
    5
 70
    1
 43
0
 10
235.5711455422911
 20
-38.98666497332988
 10
235.5711455422911
 20
-47.48679197358399
 10
239.2711709423418
 20
-47.48679197358399
 10
239.2711709423418
 20
-38.98666497332988
 10
235.5711455422911
 20
-38.98666497332988
  0
LWPOLYLINE
  5
61
100
AcDbEntity
  8
BottomSilkLayer
  6
ByLayer
 62
  256
370
   -1
100
AcDbPolyline
 90
    5
 70
    1
 43
0
 10
256.9215138430277
 20
-45.08509017018037
 10
256.9215138430277
 20
-40.00508001015999
 10
254.3815087630176
 20
-40.00508001015999
 10
254.3815087630176
 20
-45.08509017018037
 10
256.9215138430277
 20
-45.08509017018037
  0
LWPOLYLINE
  5
62
100
AcDbEntity
  8
TopSilkLayer
  6
ByLayer
 62
  256
370
   -1
100
AcDbPolyline
 90
    5
 70
    1
 43
0
 10
45.09999999999991
 20
26.04947929895854
 10
31.10000000000014
 20
26.04947929895854
 10
31.10000000000014
 20
12.04947929895854
 10
45.09999999999991
 20
12.04947929895854
 10
45.09999999999991
 20
26.04947929895854
  0
LWPOLYLINE
  5
63
100
AcDbEntity
  8
Document
  6
ByLayer
 62
  256
370
   -1
100
AcDbPolyline
 90
    5
 70
    1
 43
0
 10
47.62501905003819
 20
28.5750063500127
 10
28.57498094996208
 20
28.5750063500127
 10
28.57498094996208
 20
9.524968249936478
 10
47.62501905003819
 20
9.524968249936478
 10
47.62501905003819
 20
28.5750063500127
  0
LWPOLYLINE
  5
64
100
AcDbEntity
  8
TopSilkLayer
  6
ByLayer
 62
  256
370
   -1
100
AcDbPolyline
 90
    5
 70
    1
 43
0
 10
64.15003810007602
 20
26.04947929895854
 10
50.14998729997455
 20
26.04947929895854
 10
50.14998729997455
 20
12.04947929895854
 10
64.15003810007602
 20
12.04947929895854
 10
64.15003810007602
 20
26.04947929895854
  0
LWPOLYLINE
  5
65
100
AcDbEntity
  8
Document
  6
ByLayer
 62
  256
370
   -1
100
AcDbPolyline
 90
    5
 70
    1
 43
0
 10
66.6750571501143
 20
28.5750063500127
 10
47.62501905003819
 20
28.5750063500127
 10
47.62501905003819
 20
9.524968249936478
 10
66.6750571501143
 20
9.524968249936478
 10
66.6750571501143
 20
28.5750063500127
  0
LWPOLYLINE
  5
66
100
AcDbEntity
  8
TopSilkLayer
  6
ByLayer
 62
  256
370
   -1
100
AcDbPolyline
 90
    5
 70
    1
 43
0
 10
83.20000000000005
 20
26.04947929895854
 10
69.20000000000005
 20
26.04947929895854
 10
69.20000000000005
 20
12.04947929895854
 10
83.20000000000005
 20
12.04947929895854
 10
83.20000000000005
 20
26.04947929895854
  0
LWPOLYLINE
  5
67
100
AcDbEntity
  8
Document
  6
ByLayer
 62
  256
370
   -1
100
AcDbPolyline
 90
    5
 70
    1
 43
0
 10
85.7250190500381
 20
28.5750063500127
 10
66.67498094996176
 20
28.5750063500127
 10
66.67498094996176
 20
9.524968249936478
 10
85.7250190500381
 20
9.524968249936478
 10
85.7250190500381
 20
28.5750063500127
  0
LWPOLYLINE
  5
68
100
AcDbEntity
  8
TopSilkLayer
  6
ByLayer
 62
  256
370
   -1
100
AcDbPolyline
 90
    5
 70
    1
 43
0
 10
102.2499872999747
 20
26.04947929895854
 10
88.24996189992385
 20
26.04947929895854
 10
88.24996189992385
 20
12.04947929895854
 10
102.2499872999747
 20
12.04947929895854
 10
102.2499872999747
 20
26.04947929895854
  0
LWPOLYLINE
  5
69
100
AcDbEntity
  8
Document
  6
ByLayer
 62
  256
370
   -1
100
AcDbPolyline
 90
    5
 70
    1
 43
0
 10
104.7750063500127
 20
28.5750063500127
 10
85.72496824993664
 20
28.5750063500127
 10
85.72496824993664
 20
9.524968249936478
 10
104.7750063500127
 20
9.524968249936478
 10
104.7750063500127
 20
28.5750063500127
  0
LWPOLYLINE
  5
6A
100
AcDbEntity
  8
TopSilkLayer
  6
ByLayer
 62
  256
370
   -1
100
AcDbPolyline
 90
    5
 70
    1
 43
0
 10
121.3000000000002
 20
26.04947929895854
 10
107.3
 20
26.04947929895854
 10
107.3
 20
12.04947929895854
 10
121.3000000000002
 20
12.04947929895854
 10
121.3000000000002
 20
26.04947929895854
  0
LWPOLYLINE
  5
6B
100
AcDbEntity
  8
Document
  6
ByLayer
 62
  256
370
   -1
100
AcDbPolyline
 90
    5
 70
    1
 43
0
 10
123.8250190500382
 20
28.5750063500127
 10
104.7749809499619
 20
28.5750063500127
 10
104.7749809499619
 20
9.524968249936478
 10
123.8250190500382
 20
9.524968249936478
 10
123.8250190500382
 20
28.5750063500127
  0
LWPOLYLINE
  5
6C
100
AcDbEntity
  8
TopSilkLayer
  6
ByLayer
 62
  256
370
   -1
100
AcDbPolyline
 90
    5
 70
    1
 43
0
 10
140.3499872999746
 20
26.04947929895854
 10
126.3499872999746
 20
26.04947929895854
 10
126.3499872999746
 20
12.04947929895854
 10
140.3499872999746
 20
12.04947929895854
 10
140.3499872999746
 20
26.04947929895854
  0
LWPOLYLINE
  5
6D
100
AcDbEntity
  8
Document
  6
ByLayer
 62
  256
370
   -1
100
AcDbPolyline
 90
    5
 70
    1
 43
0
 10
142.8750063500127
 20
28.5750063500127
 10
123.8249682499363
 20
28.5750063500127
 10
123.8249682499363
 20
9.524968249936478
 10
142.8750063500127
 20
9.524968249936478
 10
142.8750063500127
 20
28.5750063500127
  0
LWPOLYLINE
  5
6E
100
AcDbEntity
  8
TopSilkLayer
  6
ByLayer
 62
  256
370
   -1
100
AcDbPolyline
 90
    5
 70
    1
 43
0
 10
28.42997205994402
 20
6.999466598933168
 10
14.42997205994425
 20
6.999466598933168
 10
14.42997205994425
 20
-7.000533401066832
 10
28.42997205994402
 20
-7.000533401066832
 10
28.42997205994402
 20
6.999466598933168
  0
LWPOLYLINE
  5
6F
100
AcDbEntity
  8
Document
  6
ByLayer
 62
  256
370
   -1
100
AcDbPolyline
 90
    5
 70
    1
 43
0
 10
30.9549911099823
 20
9.524993649987209
 10
11.90495300990597
 20
9.524993649987209
 10
11.90495300990597
 20
-9.525044450089013
 10
30.9549911099823
 20
-9.525044450089013
 10
30.9549911099823
 20
9.524993649987209
  0
LWPOLYLINE
  5
70
100
AcDbEntity
  8
TopSilkLayer
  6
ByLayer
 62
  256
370
   -1
100
AcDbPolyline
 90
    5
 70
    1
 43
0
 10
49.86299212598419
 20
6.999466598933168
 10
35.86299212598442
 20
6.999466598933168
 10
35.86299212598442
 20
-7.000533401066832
 10
49.86299212598419
 20
-7.000533401066832
 10
49.86299212598419
 20
6.999466598933168
  0
LWPOLYLINE
  5
71
100
AcDbEntity
  8
Document
  6
ByLayer
 62
  256
370
   -1
100
AcDbPolyline
 90
    5
 70
    1
 43
0
 10
52.38801117602225
 20
9.524993649987209
 10
33.33797307594614
 20
9.524993649987209
 10
33.33797307594614
 20
-9.525044450089013
 10
52.38801117602225
 20
-9.525044450089013
 10
52.38801117602225
 20
9.524993649987209
  0
LWPOLYLINE
  5
72
100
AcDbEntity
  8
TopSilkLayer
  6
ByLayer
 62
  256
370
   -1
100
AcDbPolyline
 90
    5
 70
    1
 43
0
 10
68.91305562611137
 20
6.999466598933168
 10
54.91300482600968
 20
6.999466598933168
 10
54.91300482600968
 20
-7.000533401066832
 10
68.91305562611137
 20
-7.000533401066832
 10
68.91305562611137
 20
6.999466598933168
  0
LWPOLYLINE
  5
73
100
AcDbEntity
  8
Document
  6
ByLayer
 62
  256
370
   -1
100
AcDbPolyline
 90
    5
 70
    1
 43
0
 10
71.43807467614943
 20
9.524993649987209
 10
52.38803657607309
 20
9.524993649987209
 10
52.38803657607309
 20
-9.525044450089013
 10
71.43807467614943
 20
-9.525044450089013
 10
71.43807467614943
 20
9.524993649987209
  0
LWPOLYLINE
  5
74
100
AcDbEntity
  8
TopSilkLayer
  6
ByLayer
 62
  256
370
   -1
100
AcDbPolyline
 90
    5
 70
    1
 43
0
 10
87.96301752603517
 20
6.999466598933168
 10
73.96301752603495
 20
6.999466598933168
 10
73.96301752603495
 20
-7.000533401066832
 10
87.96301752603517
 20
-7.000533401066832
 10
87.96301752603517
 20
6.999466598933168
  0
LWPOLYLINE
  5
75
100
AcDbEntity
  8
Document
  6
ByLayer
 62
  256
370
   -1
100
AcDbPolyline
 90
    5
 70
    1
 43
0
 10
90.48803657607323
 20
9.524993649987209
 10
71.43799847599689
 20
9.524993649987209
 10
71.43799847599689
 20
-9.525044450089013
 10
90.48803657607323
 20
-9.525044450089013
 10
90.48803657607323
 20
9.524993649987209
  0
LWPOLYLINE
  5
76
100
AcDbEntity
  8
TopSilkLayer
  6
ByLayer
 62
  256
370
   -1
100
AcDbPolyline
 90
    5
 70
    1
 43
0
 10
107.0129794259587
 20
6.999466598933168
 10
93.01295402590813
 20
6.999466598933168
 10
93.01295402590813
 20
-7.000533401066832
 10
107.0129794259587
 20
-7.000533401066832
 10
107.0129794259587
 20
6.999466598933168
  0
LWPOLYLINE
  5
77
100
AcDbEntity
  8
Document
  6
ByLayer
 62
  256
370
   -1
100
AcDbPolyline
 90
    5
 70
    1
 43
0
 10
109.537998475997
 20
9.524993649987209
 10
90.48796037592092
 20
9.524993649987209
 10
90.48796037592092
 20
-9.525044450089013
 10
109.537998475997
 20
-9.525044450089013
 10
109.537998475997
 20
9.524993649987209
  0
LWPOLYLINE
  5
78
100
AcDbEntity
  8
TopSilkLayer
  6
ByLayer
 62
  256
370
   -1
100
AcDbPolyline
 90
    5
 70
    1
 43
0
 10
126.0629921259845
 20
6.999491998983899
 10
112.0629921259842
 20
6.999491998983899
 10
112.0629921259842
 20
-7.000508001016101
 10
126.0629921259845
 20
-7.000508001016101
 10
126.0629921259845
 20
6.999491998983899
  0
LWPOLYLINE
  5
79
100
AcDbEntity
  8
Document
  6
ByLayer
 62
  256
370
   -1
100
AcDbPolyline
 90
    5
 70
    1
 43
0
 10
128.5880111760225
 20
9.525019050038054
 10
109.5379730759462
 20
9.525019050038054
 10
109.5379730759462
 20
-9.525019050038054
 10
128.5880111760225
 20
-9.525019050038054
 10
128.5880111760225
 20
9.525019050038054
  0
LWPOLYLINE
  5
7A
100
AcDbEntity
  8
TopSilkLayer
  6
ByLayer
 62
  256
370
   -1
100
AcDbPolyline
 90
    5
 70
    1
 43
0
 10
145.1129794259589
 20
6.999517399034744
 10
131.1129794259589
 20
6.999517399034744
 10
131.1129794259589
 20
-7.000482600965142
 10
145.1129794259589
 20
-7.000482600965142
 10
145.1129794259589
 20
6.999517399034744
  0
LWPOLYLINE
  5
7B
100
AcDbEntity
  8
Document
  6
ByLayer
 62
  256
370
   -1
100
AcDbPolyline
 90
    5
 70
    1
 43
0
 10
147.6379984759969
 20
9.525044450088899
 10
128.5879603759208
 20
9.525044450088899
 10
128.5879603759208
 20
-9.524993649987209
 10
147.6379984759969
 20
-9.524993649987209
 10
147.6379984759969
 20
9.525044450088899
  0
LWPOLYLINE
  5
7C
100
AcDbEntity
  8
TopSilkLayer
  6
ByLayer
 62
  256
370
   -1
100
AcDbPolyline
 90
    5
 70
    1
 43
0
 10
33.19499618999225
 20
-12.05052070104136
 10
19.19499618999248
 20
-12.05052070104136
 10
19.19499618999248
 20
-26.05052070104136
 10
33.19499618999225
 20
-26.05052070104136
 10
33.19499618999225
 20
-12.05052070104136
  0
LWPOLYLINE
  5
7D
100
AcDbEntity
  8
Document
  6
ByLayer
 62
  256
370
   -1
100
AcDbPolyline
 90
    5
 70
    1
 43
0
 10
35.72001524003053
 20
-9.524993649987209
 10
16.6699771399542
 20
-9.524993649987209
 10
16.6699771399542
 20
-28.57503175006343
 10
35.72001524003053
 20
-28.57503175006343
 10
35.72001524003053
 20
-9.524993649987209
  0
LWPOLYLINE
  5
7E
100
AcDbEntity
  8
TopSilkLayer
  6
ByLayer
 62
  256
370
   -1
100
AcDbPolyline
 90
    5
 70
    1
 43
0
 10
59.38803657607309
 20
-12.05052070104136
 10
45.38803657607309
 20
-12.05052070104136
 10
45.38803657607309
 20
-26.05052070104136
 10
59.38803657607309
 20
-26.05052070104136
 10
59.38803657607309
 20
-12.05052070104136
  0
LWPOLYLINE
  5
7F
100
AcDbEntity
  8
Document
  6
ByLayer
 62
  256
370
   -1
100
AcDbPolyline
 90
    5
 70
    1
 43
0
 10
61.91305562611115
 20
-9.524993649987209
 10
42.86301752603504
 20
-9.524993649987209
 10
42.86301752603504
 20
-28.57503175006343
 10
61.91305562611115
 20
-28.57503175006343
 10
61.91305562611115
 20
-9.524993649987209
  0
LWPOLYLINE
  5
80
100
AcDbEntity
  8
TopSilkLayer
  6
ByLayer
 62
  256
370
   -1
100
AcDbPolyline
 90
    5
 70
    1
 43
0
 10
78.43799847599712
 20
-12.05052070104136
 10
64.43799847599689
 20
-12.05052070104136
 10
64.43799847599689
 20
-26.05052070104136
 10
78.43799847599712
 20
-26.05052070104136
 10
78.43799847599712
 20
-12.05052070104136
  0
LWPOLYLINE
  5
81
100
AcDbEntity
  8
Document
  6
ByLayer
 62
  256
370
   -1
100
AcDbPolyline
 90
    5
 70
    1
 43
0
 10
80.96301752603517
 20
-9.524993649987209
 10
61.91297942595884
 20
-9.524993649987209
 10
61.91297942595884
 20
-28.57503175006343
 10
80.96301752603517
 20
-28.57503175006343
 10
80.96301752603517
 20
-9.524993649987209
  0
LWPOLYLINE
  5
82
100
AcDbEntity
  8
TopSilkLayer
  6
ByLayer
 62
  256
370
   -1
100
AcDbPolyline
 90
    5
 70
    1
 43
0
 10
97.48803657607323
 20
-12.05052070104136
 10
83.48803657607323
 20
-12.05052070104136
 10
83.48803657607323
 20
-26.05052070104136
 10
97.48803657607323
 20
-26.05052070104136
 10
97.48803657607323
 20
-12.05052070104136
  0
LWPOLYLINE
  5
83
100
AcDbEntity
  8
Document
  6
ByLayer
 62
  256
370
   -1
100
AcDbPolyline
 90
    5
 70
    1
 43
0
 10
100.0130556261113
 20
-9.524993649987209
 10
80.96301752603517
 20
-9.524993649987209
 10
80.96301752603517
 20
-28.57503175006343
 10
100.0130556261113
 20
-28.57503175006343
 10
100.0130556261113
 20
-9.524993649987209
  0
LWPOLYLINE
  5
84
100
AcDbEntity
  8
TopSilkLayer
  6
ByLayer
 62
  256
370
   -1
100
AcDbPolyline
 90
    5
 70
    1
 43
0
 10
116.5379984759968
 20
-12.05054610109221
 10
102.537998475997
 20
-12.05054610109221
 10
102.537998475997
 20
-26.05054610109221
 10
116.5379984759968
 20
-26.05054610109221
 10
116.5379984759968
 20
-12.05054610109221
  0
LWPOLYLINE
  5
85
100
AcDbEntity
  8
Document
  6
ByLayer
 62
  256
370
   -1
100
AcDbPolyline
 90
    5
 70
    1
 43
0
 10
119.0630175260351
 20
-9.525019050038054
 10
100.012979425959
 20
-9.525019050038054
 10
100.012979425959
 20
-28.57505715011428
 10
119.0630175260351
 20
-28.57505715011428
 10
119.0630175260351
 20
-9.525019050038054
  0
LWPOLYLINE
  5
86
100
AcDbEntity
  8
TopSilkLayer
  6
ByLayer
 62
  256
370
   -1
100
AcDbPolyline
 90
    5
 70
    1
 43
0
 10
135.5880365760731
 20
-12.05054610109221
 10
121.5880365760731
 20
-12.05054610109221
 10
121.5880365760731
 20
-26.05054610109221
 10
135.5880365760731
 20
-26.05054610109221
 10
135.5880365760731
 20
-12.05054610109221
  0
LWPOLYLINE
  5
87
100
AcDbEntity
  8
Document
  6
ByLayer
 62
  256
370
   -1
100
AcDbPolyline
 90
    5
 70
    1
 43
0
 10
138.1130556261114
 20
-9.525019050038054
 10
119.0630175260351
 20
-9.525019050038054
 10
119.0630175260351
 20
-28.57505715011428
 10
138.1130556261114
 20
-28.57505715011428
 10
138.1130556261114
 20
-9.525019050038054
  0
LWPOLYLINE
  5
88
100
AcDbEntity
  8
TopSilkLayer
  6
ByLayer
 62
  256
370
   -1
100
AcDbPolyline
 90
    5
 70
    1
 43
0
 10
154.6380238760478
 20
-12.05049530099052
 10
140.6380238760478
 20
-12.05049530099052
 10
140.6380238760478
 20
-26.05052070104136
 10
154.6380238760478
 20
-26.05052070104136
 10
154.6380238760478
 20
-12.05049530099052
  0
LWPOLYLINE
  5
89
100
AcDbEntity
  8
Document
  6
ByLayer
 62
  256
370
   -1
100
AcDbPolyline
 90
    5
 70
    1
 43
0
 10
157.1630429260858
 20
-9.524993649987209
 10
138.1130048260097
 20
-9.524993649987209
 10
138.1130048260097
 20
-28.57503175006343
 10
157.1630429260858
 20
-28.57503175006343
 10
157.1630429260858
 20
-9.524993649987209
  0
LWPOLYLINE
  5
8A
100
AcDbEntity
  8
TopSilkLayer
  6
ByLayer
 62
  256
370
   -1
100
AcDbPolyline
 90
    5
 70
    1
 43
0
 10
28.42999745999487
 20
-31.10053340106674
 10
14.42999745999487
 20
-31.10053340106674
 10
14.42999745999487
 20
-45.10053340106685
 10
28.42999745999487
 20
-45.10053340106685
 10
28.42999745999487
 20
-31.10053340106674
  0
LWPOLYLINE
  5
8B
100
AcDbEntity
  8
Document
  6
ByLayer
 62
  256
370
   -1
100
AcDbPolyline
 90
    5
 70
    1
 43
0
 10
30.95501651003292
 20
-28.5750063500127
 10
11.90497840995681
 20
-28.5750063500127
 10
11.90497840995681
 20
-47.62504445008892
 10
30.95501651003292
 20
-47.62504445008892
 10
30.95501651003292
 20
-28.5750063500127
  0
LWPOLYLINE
  5
8C
100
AcDbEntity
  8
TopSilkLayer
  6
ByLayer
 62
  256
370
   -1
100
AcDbPolyline
 90
    5
 70
    1
 43
0
 10
49.86296672593335
 20
-31.10053340106674
 10
35.86296672593357
 20
-31.10053340106674
 10
35.86296672593357
 20
-45.10053340106685
 10
49.86296672593335
 20
-45.10053340106685
 10
49.86296672593335
 20
-31.10053340106674
  0
LWPOLYLINE
  5
8D
100
AcDbEntity
  8
Document
  6
ByLayer
 62
  256
370
   -1
100
AcDbPolyline
 90
    5
 70
    1
 43
0
 10
52.38798577597163
 20
-28.5750063500127
 10
33.33794767589552
 20
-28.5750063500127
 10
33.33794767589552
 20
-47.62504445008892
 10
52.38798577597163
 20
-47.62504445008892
 10
52.38798577597163
 20
-28.5750063500127
  0
LWPOLYLINE
  5
8E
100
AcDbEntity
  8
TopSilkLayer
  6
ByLayer
 62
  256
370
   -1
100
AcDbPolyline
 90
    5
 70
    1
 43
0
 10
71.29499618999239
 20
-31.10053340106674
 10
57.29499618999239
 20
-31.10053340106674
 10
57.29499618999239
 20
-45.10053340106685
 10
71.29499618999239
 20
-45.10053340106685
 10
71.29499618999239
 20
-31.10053340106674
  0
LWPOLYLINE
  5
8F
100
AcDbEntity
  8
Document
  6
ByLayer
 62
  256
370
   -1
100
AcDbPolyline
 90
    5
 70
    1
 43
0
 10
73.82001524003044
 20
-28.5750063500127
 10
54.76997713995434
 20
-28.5750063500127
 10
54.76997713995434
 20
-47.62504445008892
 10
73.82001524003044
 20
-47.62504445008892
 10
73.82001524003044
 20
-28.5750063500127
  0
LWPOLYLINE
  5
90
100
AcDbEntity
  8
TopSilkLayer
  6
ByLayer
 62
  256
370
   -1
100
AcDbPolyline
 90
    5
 70
    1
 43
0
 10
109.3899669799341
 20
-31.10053340106674
 10
95.38996697993389
 20
-31.10053340106674
 10
95.38996697993389
 20
-45.10053340106685
 10
109.3899669799341
 20
-45.10053340106685
 10
109.3899669799341
 20
-31.10053340106674
  0
LWPOLYLINE
  5
91
100
AcDbEntity
  8
Document
  6
ByLayer
 62
  256
370
   -1
100
AcDbPolyline
 90
    5
 70
    1
 43
0
 10
111.9149860299722
 20
-28.5750063500127
 10
92.86494792989583
 20
-28.5750063500127
 10
92.86494792989583
 20
-47.62504445008892
 10
111.9149860299722
 20
-47.62504445008892
 10
111.9149860299722
 20
-28.5750063500127
  0
LWPOLYLINE
  5
92
100
AcDbEntity
  8
TopSilkLayer
  6
ByLayer
 62
  256
370
   -1
100
AcDbPolyline
 90
    5
 70
    1
 43
0
 10
157.0199898399799
 20
-31.10050800101601
 10
143.0199898399796
 20
-31.10050800101601
 10
143.0199898399796
 20
-45.10050800101601
 10
157.0199898399799
 20
-45.10050800101601
 10
157.0199898399799
 20
-31.10050800101601
  0
LWPOLYLINE
  5
93
100
AcDbEntity
  8
Document
  6
ByLayer
 62
  256
370
   -1
100
AcDbPolyline
 90
    5
 70
    1
 43
0
 10
159.5450088900179
 20
-28.57498094996186
 10
140.4949707899416
 20
-28.57498094996186
 10
140.4949707899416
 20
-47.62501905003808
 10
159.5450088900179
 20
-47.62501905003808
 10
159.5450088900179
 20
-28.57498094996186
  0
LWPOLYLINE
  5
94
100
AcDbEntity
  8
TopSilkLayer
  6
ByLayer
 62
  256
370
   -1
100
AcDbPolyline
 90
    5
 70
    1
 43
0
 10
190.3549657099313
 20
-31.10050800101601
 10
176.3549657099315
 20
-31.10050800101601
 10
176.3549657099315
 20
-45.10050800101601
 10
190.3549657099313
 20
-45.10050800101601
 10
190.3549657099313
 20
-31.10050800101601
  0
LWPOLYLINE
  5
95
100
AcDbEntity
  8
Document
  6
ByLayer
 62
  256
370
   -1
100
AcDbPolyline
 90
    5
 70
    1
 43
0
 10
192.8799847599694
 20
-28.57498094996186
 10
173.8299466598933
 20
-28.57498094996186
 10
173.8299466598933
 20
-47.62501905003808
 10
192.8799847599694
 20
-47.62501905003808
 10
192.8799847599694
 20
-28.57498094996186
  0
LWPOLYLINE
  5
96
100
AcDbEntity
  8
TopSilkLayer
  6
ByLayer
 62
  256
370
   -1
100
AcDbPolyline
 90
    5
 70
    1
 43
0
 10
216.5500127000253
 20
-31.10050800101601
 10
202.5500127000255
 20
-31.10050800101601
 10
202.5500127000255
 20
-45.10050800101601
 10
216.5500127000253
 20
-45.10050800101601
 10
216.5500127000253
 20
-31.10050800101601
  0
LWPOLYLINE
  5
97
100
AcDbEntity
  8
Document
  6
ByLayer
 62
  256
370
   -1
100
AcDbPolyline
 90
    5
 70
    1
 43
0
 10
219.0750317500635
 20
-28.57498094996186
 10
200.0249936499874
 20
-28.57498094996186
 10
200.0249936499874
 20
-47.62501905003808
 10
219.0750317500635
 20
-47.62501905003808
 10
219.0750317500635
 20
-28.57498094996186
  0
LWPOLYLINE
  5
98
100
AcDbEntity
  8
TopSilkLayer
  6
ByLayer
 62
  256
370
   -1
100
AcDbPolyline
 90
    5
 70
    1
 43
0
 10
159.3999999999999
 20
26.04947929895854
 10
145.4000000000001
 20
26.04947929895854
 10
145.4000000000001
 20
12.04947929895854
 10
159.3999999999999
 20
12.04947929895854
 10
159.3999999999999
 20
26.04947929895854
  0
LWPOLYLINE
  5
99
100
AcDbEntity
  8
Document
  6
ByLayer
 62
  256
370
   -1
100
AcDbPolyline
 90
    5
 70
    1
 43
0
 10
161.9250190500381
 20
28.5750063500127
 10
142.874980949962
 20
28.5750063500127
 10
142.874980949962
 20
9.524968249936478
 10
161.9250190500381
 20
9.524968249936478
 10
161.9250190500381
 20
28.5750063500127
  0
LWPOLYLINE
  5
9A
100
AcDbEntity
  8
TopSilkLayer
  6
ByLayer
 62
  256
370
   -1
100
AcDbPolyline
 90
    5
 70
    1
 43
0
 10
178.4500381000762
 20
26.04947929895854
 10
164.4500127000254
 20
26.04947929895854
 10
164.4500127000254
 20
12.04947929895854
 10
178.4500381000762
 20
12.04947929895854
 10
178.4500381000762
 20
26.04947929895854
  0
LWPOLYLINE
  5
9B
100
AcDbEntity
  8
Document
  6
ByLayer
 62
  256
370
   -1
100
AcDbPolyline
 90
    5
 70
    1
 43
0
 10
180.9750571501145
 20
28.5750063500127
 10
161.9250190500381
 20
28.5750063500127
 10
161.9250190500381
 20
9.524968249936478
 10
180.9750571501145
 20
9.524968249936478
 10
180.9750571501145
 20
28.5750063500127
  0
LWPOLYLINE
  5
9C
100
AcDbEntity
  8
TopSilkLayer
  6
ByLayer
 62
  256
370
   -1
100
AcDbPolyline
 90
    5
 70
    1
 43
0
 10
197.5
 20
26.04947929895854
 10
183.5000000000002
 20
26.04947929895854
 10
183.5000000000002
 20
12.04947929895854
 10
197.5
 20
12.04947929895854
 10
197.5
 20
26.04947929895854
  0
LWPOLYLINE
  5
9D
100
AcDbEntity
  8
Document
  6
ByLayer
 62
  256
370
   -1
100
AcDbPolyline
 90
    5
 70
    1
 43
0
 10
200.0250190500381
 20
28.57498094996186
 10
180.9749809499619
 20
28.57498094996186
 10
180.9749809499619
 20
9.524942849885633
 10
200.0250190500381
 20
9.524942849885633
 10
200.0250190500381
 20
28.57498094996186
  0
LWPOLYLINE
  5
9E
100
AcDbEntity
  8
TopSilkLayer
  6
ByLayer
 62
  256
370
   -1
100
AcDbPolyline
 90
    5
 70
    1
 43
0
 10
164.1629921259841
 20
6.999491998983899
 10
150.1629921259844
 20
6.999491998983899
 10
150.1629921259844
 20
-7.000508001016101
 10
164.1629921259841
 20
-7.000508001016101
 10
164.1629921259841
 20
6.999491998983899
  0
LWPOLYLINE
  5
9F
100
AcDbEntity
  8
Document
  6
ByLayer
 62
  256
370
   -1
100
AcDbPolyline
 90
    5
 70
    1
 43
0
 10
166.6880111760222
 20
9.525019050038054
 10
147.6379730759461
 20
9.525019050038054
 10
147.6379730759461
 20
-9.525019050038054
 10
166.6880111760222
 20
-9.525019050038054
 10
166.6880111760222
 20
9.525019050038054
  0
LWPOLYLINE
  5
A0
100
AcDbEntity
  8
TopSilkLayer
  6
ByLayer
 62
  256
370
   -1
100
AcDbPolyline
 90
    5
 70
    1
 43
0
 10
183.2130302260605
 20
6.999491998983899
 10
169.2130048260096
 20
6.999491998983899
 10
169.2130048260096
 20
-7.000508001016101
 10
183.2130302260605
 20
-7.000508001016101
 10
183.2130302260605
 20
6.999491998983899
  0
LWPOLYLINE
  5
A1
100
AcDbEntity
  8
Document
  6
ByLayer
 62
  256
370
   -1
100
AcDbPolyline
 90
    5
 70
    1
 43
0
 10
185.7380746761494
 20
9.525019050038054
 10
166.688036576073
 20
9.525019050038054
 10
166.688036576073
 20
-9.525019050038054
 10
185.7380746761494
 20
-9.525019050038054
 10
185.7380746761494
 20
9.525019050038054
  0
LWPOLYLINE
  5
A2
100
AcDbEntity
  8
TopSilkLayer
  6
ByLayer
 62
  256
370
   -1
100
AcDbPolyline
 90
    5
 70
    1
 43
0
 10
202.2629921259843
 20
6.999491998983899
 10
188.2629921259843
 20
6.999491998983899
 10
188.2629921259843
 20
-7.000508001016101
 10
202.2629921259843
 20
-7.000508001016101
 10
202.2629921259843
 20
6.999491998983899
  0
LWPOLYLINE
  5
A3
100
AcDbEntity
  8
Document
  6
ByLayer
 62
  256
370
   -1
100
AcDbPolyline
 90
    5
 70
    1
 43
0
 10
204.7880111760223
 20
9.525019050038054
 10
185.7379730759462
 20
9.525019050038054
 10
185.7379730759462
 20
-9.525019050038054
 10
204.7880111760223
 20
-9.525019050038054
 10
204.7880111760223
 20
9.525019050038054
  0
LWPOLYLINE
  5
A4
100
AcDbEntity
  8
TopSilkLayer
  6
ByLayer
 62
  256
370
   -1
100
AcDbPolyline
 90
    5
 70
    1
 43
0
 10
228.4549657099315
 20
6.999491998983899
 10
214.4549403098808
 20
6.999491998983899
 10
214.4549403098808
 20
-7.000508001016101
 10
228.4549657099315
 20
-7.000508001016101
 10
228.4549657099315
 20
6.999491998983899
  0
LWPOLYLINE
  5
A5
100
AcDbEntity
  8
Document
  6
ByLayer
 62
  256
370
   -1
100
AcDbPolyline
 90
    5
 70
    1
 43
0
 10
230.9799847599695
 20
9.524993649987209
 10
211.9299466598934
 20
9.524993649987209
 10
211.9299466598934
 20
-9.525044450089013
 10
230.9799847599695
 20
-9.525044450089013
 10
230.9799847599695
 20
9.524993649987209
  0
LWPOLYLINE
  5
A6
100
AcDbEntity
  8
TopSilkLayer
  6
ByLayer
 62
  256
370
   -1
100
AcDbPolyline
 90
    5
 70
    1
 43
0
 10
254.6500127000254
 20
-31.10063500127001
 10
240.6500127000254
 20
-31.10063500127001
 10
240.6500127000254
 20
-45.10063500127001
 10
254.6500127000254
 20
-45.10063500127001
 10
254.6500127000254
 20
-31.10063500127001
  0
LWPOLYLINE
  5
A7
100
AcDbEntity
  8
Document
  6
ByLayer
 62
  256
370
   -1
100
AcDbPolyline
 90
    5
 70
    1
 43
0
 10
257.1750317500635
 20
-28.57510795021585
 10
238.1249936499873
 20
-28.57510795021585
 10
238.1249936499873
 20
-47.62514605029207
 10
257.1750317500635
 20
-47.62514605029207
 10
257.1750317500635
 20
-28.57510795021585
  0
LWPOLYLINE
  5
A8
100
AcDbEntity
  8
TopSilkLayer
  6
ByLayer
 62
  256
370
   -1
100
AcDbPolyline
 90
    5
 70
    1
 43
0
 10
173.6880365760733
 20
-12.05054610109221
 10
159.688036576073
 20
-12.05054610109221
 10
159.688036576073
 20
-26.05054610109221
 10
173.6880365760733
 20
-26.05054610109221
 10
173.6880365760733
 20
-12.05054610109221
  0
LWPOLYLINE
  5
A9
100
AcDbEntity
  8
Document
  6
ByLayer
 62
  256
370
   -1
100
AcDbPolyline
 90
    5
 70
    1
 43
0
 10
176.2130556261113
 20
-9.525019050038054
 10
157.163017526035
 20
-9.525019050038054
 10
157.163017526035
 20
-28.57505715011428
 10
176.2130556261113
 20
-28.57505715011428
 10
176.2130556261113
 20
-9.525019050038054
  0
LWPOLYLINE
  5
AA
100
AcDbEntity
  8
TopSilkLayer
  6
ByLayer
 62
  256
370
   -1
100
AcDbPolyline
 90
    5
 70
    1
 43
0
 10
192.7380238760477
 20
-12.05054610109221
 10
178.7380238760479
 20
-12.05054610109221
 10
178.7380238760479
 20
-26.05054610109221
 10
192.7380238760477
 20
-26.05054610109221
 10
192.7380238760477
 20
-12.05054610109221
  0
LWPOLYLINE
  5
AB
100
AcDbEntity
  8
Document
  6
ByLayer
 62
  256
370
   -1
100
AcDbPolyline
 90
    5
 70
    1
 43
0
 10
195.263042926086
 20
-9.525019050038054
 10
176.2130048260099
 20
-9.525019050038054
 10
176.2130048260099
 20
-28.57505715011428
 10
195.263042926086
 20
-28.57505715011428
 10
195.263042926086
 20
-9.525019050038054
  0
LWPOLYLINE
  5
AC
100
AcDbEntity
  8
TopSilkLayer
  6
ByLayer
 62
  256
370
   -1
100
AcDbPolyline
 90
    5
 70
    1
 43
0
 10
214.1699771399544
 20
-12.05052070104136
 10
200.1699771399542
 20
-12.05052070104136
 10
200.1699771399542
 20
-26.05052070104136
 10
214.1699771399544
 20
-26.05052070104136
 10
214.1699771399544
 20
-12.05052070104136
  0
LWPOLYLINE
  5
AD
100
AcDbEntity
  8
Document
  6
ByLayer
 62
  256
370
   -1
100
AcDbPolyline
 90
    5
 70
    1
 43
0
 10
216.6949961899925
 20
-9.524993649987209
 10
197.6449580899161
 20
-9.524993649987209
 10
197.6449580899161
 20
-28.57503175006343
 10
216.6949961899925
 20
-28.57503175006343
 10
216.6949961899925
 20
-9.524993649987209
  0
LWPOLYLINE
  5
AE
100
AcDbEntity
  8
TopSilkLayer
  6
ByLayer
 62
  256
370
   -1
100
AcDbPolyline
 90
    5
 70
    1
 43
0
 10
235.6000000000001
 20
-12.05052070104136
 10
221.5999999999999
 20
-12.05052070104136
 10
221.5999999999999
 20
-26.05052070104136
 10
235.6000000000001
 20
-26.05052070104136
 10
235.6000000000001
 20
-12.05052070104136
  0
LWPOLYLINE
  5
AF
100
AcDbEntity
  8
Document
  6
ByLayer
 62
  256
370
   -1
100
AcDbPolyline
 90
    5
 70
    1
 43
0
 10
238.1250190500382
 20
-9.524993649987209
 10
219.0749809499619
 20
-9.524993649987209
 10
219.0749809499619
 20
-28.57503175006343
 10
238.1250190500382
 20
-28.57503175006343
 10
238.1250190500382
 20
-9.524993649987209
  0
LWPOLYLINE
  5
B0
100
AcDbEntity
  8
TopSilkLayer
  6
ByLayer
 62
  256
370
   -1
100
AcDbPolyline
 90
    5
 70
    1
 43
0
 10
26.05003810007634
 20
26.04947929895854
 10
12.05003810007611
 20
26.04947929895854
 10
12.05003810007611
 20
12.04947929895854
 10
26.05003810007634
 20
12.04947929895854
 10
26.05003810007634
 20
26.04947929895854
  0
LWPOLYLINE
  5
B1
100
AcDbEntity
  8
Document
  6
ByLayer
 62
  256
370
   -1
100
AcDbPolyline
 90
    5
 70
    1
 43
0
 10
28.57503175006354
 20
28.5750063500127
 10
9.525019050038054
 20
28.5750063500127
 10
9.525019050038054
 20
9.524968249936478
 10
28.57503175006354
 20
9.524968249936478
 10
28.57503175006354
 20
28.5750063500127
  0
LWPOLYLINE
  5
B2
100
AcDbEntity
  8
TopSilkLayer
  6
ByLayer
 62
  256
370
   -1
100
AcDbPolyline
 90
    5
 70
    1
 43
0
 10
216.5500127000253
 20
26.04947929895854
 10
202.5500127000255
 20
26.04947929895854
 10
202.5500127000255
 20
12.04947929895854
 10
216.5500127000253
 20
12.04947929895854
 10
216.5500127000253
 20
26.04947929895854
  0
LWPOLYLINE
  5
B3
100
AcDbEntity
  8
Document
  6
ByLayer
 62
  256
370
   -1
100
AcDbPolyline
 90
    5
 70
    1
 43
0
 10
219.0750317500635
 20
28.5750063500127
 10
200.0249936499874
 20
28.5750063500127
 10
200.0249936499874
 20
9.524968249936478
 10
219.0750317500635
 20
9.524968249936478
 10
219.0750317500635
 20
28.5750063500127
  0
LWPOLYLINE
  5
B4
100
AcDbEntity
  8
TopSilkLayer
  6
ByLayer
 62
  256
370
   -1
100
AcDbPolyline
 90
    5
 70
    1
 43
0
 10
235.6000000000001
 20
26.04947929895854
 10
221.5999999999999
 20
26.04947929895854
 10
221.5999999999999
 20
12.04947929895854
 10
235.6000000000001
 20
12.04947929895854
 10
235.6000000000001
 20
26.04947929895854
  0
LWPOLYLINE
  5
B5
100
AcDbEntity
  8
Document
  6
ByLayer
 62
  256
370
   -1
100
AcDbPolyline
 90
    5
 70
    1
 43
0
 10
238.1250190500382
 20
28.5750063500127
 10
219.0749809499619
 20
28.5750063500127
 10
219.0749809499619
 20
9.524968249936478
 10
238.1250190500382
 20
9.524968249936478
 10
238.1250190500382
 20
28.5750063500127
  0
LWPOLYLINE
  5
B6
100
AcDbEntity
  8
TopSilkLayer
  6
ByLayer
 62
  256
370
   -1
100
AcDbPolyline
 90
    5
 70
    1
 43
0
 10
235.6000000000001
 20
-31.10050800101601
 10
221.5999999999999
 20
-31.10050800101601
 10
221.5999999999999
 20
-45.10050800101601
 10
235.6000000000001
 20
-45.10050800101601
 10
235.6000000000001
 20
-31.10050800101601
  0
LWPOLYLINE
  5
B7
100
AcDbEntity
  8
Document
  6
ByLayer
 62
  256
370
   -1
100
AcDbPolyline
 90
    5
 70
    1
 43
0
 10
238.1250190500382
 20
-28.57498094996186
 10
219.0749809499619
 20
-28.57498094996186
 10
219.0749809499619
 20
-47.62501905003808
 10
238.1250190500382
 20
-47.62501905003808
 10
238.1250190500382
 20
-28.57498094996186
  0
LWPOLYLINE
  5
B8
100
AcDbEntity
  8
TopSilkLayer
  6
ByLayer
 62
  256
370
   -1
100
AcDbPolyline
 90
    5
 70
    1
 43
0
 10
254.6500127000254
 20
-12.05052070104136
 10
240.6500127000254
 20
-12.05052070104136
 10
240.6500127000254
 20
-26.05052070104136
 10
254.6500127000254
 20
-26.05052070104136
 10
254.6500127000254
 20
-12.05052070104136
  0
ARC
  5
B9
100
AcDbEntity
  8
BoardOutLine
  6
ByLayer
 62
  256
370
   -1
100
AcDbCircle
 10
11.529997459995
 20
-45.61998983997967
 40
2
100
AcDbArc
 50
180.0000000000015
 51
270
  0
ARC
  5
BA
100
AcDbEntity
  8
BoardOutLine
  6
ByLayer
 62
  256
370
   -1
100
AcDbCircle
 10
11.52501905003805
 20
26.57000254000502
 40
2
100
AcDbArc
 50
90
 51
180
  0
ARC
  5
BB
100
AcDbEntity
  8
BoardOutLine
  6
ByLayer
 62
  256
370
   -1
100
AcDbCircle
 10
255.1800101600204
 20
26.57000254000502
 40
2
100
AcDbArc
 50
359.9999999999982
 51
90
  0
ARC
  5
BC
100
AcDbEntity
  8
BoardOutLine
  6
ByLayer
 62
  256
370
   -1
100
AcDbCircle
 10
255.1800101600202
 20
-45.61998984014099
 40
2
100
AcDbArc
 50
270
 51
0
  0
CIRCLE
  5
BD
100
AcDbEntity
  8
TopSilkLayer
  6
ByLayer
 62
  256
370
   -1
100
AcDbCircle
 10
247.6502413004825
 20
14.10083820167642
 40
3.937007874015749
  0
CIRCLE
  5
BE
100
AcDbEntity
  8
Multi-Layer
  6
ByLayer
 62
  256
370
   -1
100
AcDbCircle
 10
118.999237998476
 20
-9.906019812039631
 40
1.2
  0
CIRCLE
  5
BF
100
AcDbEntity
  8
Multi-Layer
  6
ByLayer
 62
  256
370
   -1
100
AcDbCircle
 10
32.25806451612902
 20
-29.21005842011687
 40
1.2
  0
CIRCLE
  5
C0
100
AcDbEntity
  8
Multi-Layer
  6
ByLayer
 62
  256
370
   -1
100
AcDbCircle
 10
219.0754381508764
 20
-28.57505715011428
 40
1.2
  0
CIRCLE
  5
C1
100
AcDbEntity
  8
Multi-Layer
  6
ByLayer
 62
  256
370
   -1
100
AcDbCircle
 10
28.57505715011439
 20
9.906019812039631
 40
1.2
  0
CIRCLE
  5
C2
100
AcDbEntity
  8
Multi-Layer
  6
ByLayer
 62
  256
370
   -1
100
AcDbCircle
 10
233.5534671069342
 20
6.985013970027921
 40
1.2
  0
CIRCLE
  5
C3
100
AcDbEntity
  8
Multi-Layer
  6
ByLayer
 62
  256
370
   -1
100
AcDbCircle
 10
114.4147828295656
 20
-29.71805943611889
 40
2.032004064008128
  0
CIRCLE
  5
C4
100
AcDbEntity
  8
Multi-Layer
  6
ByLayer
 62
  256
370
   -1
100
AcDbCircle
 10
90.3647447294893
 20
-29.71805943611889
 40
2.032004064008128
  0
CIRCLE
  5
C5
100
AcDbEntity
  8
Multi-Layer
  6
ByLayer
 62
  256
370
   -1
100
AcDbCircle
 10
90.3647447294893
 20
-44.9580899161798
 40
1.524003048006096
  0
CIRCLE
  5
C6
100
AcDbEntity
  8
Multi-Layer
  6
ByLayer
 62
  256
370
   -1
100
AcDbCircle
 10
114.4147828295656
 20
-44.9580899161798
 40
1.524003048006096
  0
CIRCLE
  5
C7
100
AcDbEntity
  8
Multi-Layer
  6
ByLayer
 62
  256
370
   -1
100
AcDbCircle
 10
162.044958089916
 20
-29.71805943611889
 40
2.032004064008128
  0
CIRCLE
  5
C8
100
AcDbEntity
  8
Multi-Layer
  6
ByLayer
 62
  256
370
   -1
100
AcDbCircle
 10
137.9949199898401
 20
-29.71805943611889
 40
2.032004064008128
  0
CIRCLE
  5
C9
100
AcDbEntity
  8
Multi-Layer
  6
ByLayer
 62
  256
370
   -1
100
AcDbCircle
 10
137.9949199898401
 20
-44.9580899161798
 40
1.524003048006096
  0
CIRCLE
  5
CA
100
AcDbEntity
  8
Multi-Layer
  6
ByLayer
 62
  256
370
   -1
100
AcDbCircle
 10
162.044958089916
 20
-44.9580899161798
 40
1.524003048006096
  0
ENDSEC
  0
SECTION
  2
OBJECTS
  0
DICTIONARY
  5
C
330
0
100
AcDbDictionary
281
    1
  3
ACAD_GROUP
350
D
  0
DICTIONARY
  5
D
330
C
100
AcDbDictionary
281
    1
  0
ENDSEC
  0
EOF
