0
SECTION
2
HEADER
9
$INSUNITS
70
4
9
$ACADVER
1
AC1014
9
$HANDSEED
5
FFFF
0
ENDSEC
0
SECTION
2
TABLES
0
TABLE
2
VPORT
5
8
100
AcDbSymbolTable
0
ENDTAB
0
TABLE
2
LTYPE
5
5
100
AcDbSymbolTable
0
LTYPE
5
14
100
AcDbSymbolTableRecord
100
AcDbLinetypeTableRecord
2
BYBLOCK
70
0
0
LTYPE
5
15
100
AcDbSymbolTableRecord
100
AcDbLinetypeTableRecord
2
BYLAYER
70
0
0
ENDTAB
0
TABLE
2
LAYER
5
2
100
AcDbSymbolTable
70
2
0
LAYER
5
50
100
AcDbSymbolTableRecord
100
AcDbLayerTableRecord
2
0
70
0
6
CONTINUOUS
0
ENDTAB
0
TABLE
2
STYLE
5
3
100
AcDbSymbolTable
70
1
0
STYLE
5
11
100
AcDbSymbolTableRecord
100
AcDbTextStyleTableRecord
2
STANDARD
70
0
0
ENDTAB
0
TABLE
2
VIEW
5
6
100
AcDbSymbolTable
70
0
0
ENDTAB
0
TABLE
2
UCS
5
7
100
AcDbSymbolTable
70
0
0
ENDTAB
0
TABLE
2
APPID
5
9
100
AcDbSymbolTable
70
2
0
APPID
5
12
100
AcDbSymbolTableRecord
100
AcDbRegAppTableRecord
2
ACAD
70
0
0
ENDTAB
0
TABLE
2
DIMSTYLE
5
A
100
AcDbSymbolTable
70
1
0
ENDTAB
0
TABLE
2
BLOCK_RECORD
5
1
100
AcDbSymbolTable
70
1
0
BLOCK_RECORD
5
1F
100
AcDbSymbolTableRecord
100
AcDbBlockTableRecord
2
*MODEL_SPACE
0
BLOCK_RECORD
5
1B
100
AcDbSymbolTableRecord
100
AcDbBlockTableRecord
2
*PAPER_SPACE
0
ENDTAB
0
ENDSEC
0
SECTION
2
BLOCKS
0
BLOCK
5
20
100
AcDbEntity
100
AcDbBlockBegin
2
*MODEL_SPACE
0
ENDBLK
5
21
100
AcDbEntity
100
AcDbBlockEnd
0
BLOCK
5
1C
100
AcDbEntity
100
AcDbBlockBegin
2
*PAPER_SPACE
0
ENDBLK
5
1D
100
AcDbEntity
100
AcDbBlockEnd
0
ENDSEC
0
SECTION
2
ENTITIES
0
LWPOLYLINE
5
100
100
AcDbEntity
8
0
100
AcDbPolyline
90
31
70
1
43
0.0
10
256.6800101594331
20
-48.119989841022175
10
10.029997459407696
20
-48.119989696164851
42
-0.41421356220108235
10
9.0299974599949948
20
-47.119989696164843
10
9.0299974599950019
20
28.070002540005135
42
-0.4142135623730937
10
10.029997459995004
20
29.070002540005131
10
237.11439913586582
20
29.070002540005131
42
0.4142135623730599
10
238.1143991358658
20
30.070002540005131
10
238.1143991358658
20
30.500000469386578
42
-0.41421356237306772
10
239.1143991358658
20
31.500000469386571
10
241.60270665497541
20
31.500000469386556
42
0.41421356237308071
10
242.60270665497572
20
32.500000469386876
10
242.60270665497572
20
35.890201197390184
42
0.42205564254248162
10
241.57600971702453
20
36.889844770621529
42
-0.01427981456442871
10
10.080071907288291
20
37.319867001160105
42
0.42102432695789443
10
0.78146014124593655
20
27.90551100913919
42
-0.05005375533697036
10
0.78146014124712559
20
-46.955498165298771
42
0.42102432678519136
10
10.080071901853103
20
-56.369854157347959
42
-0.015208805490431125
10
256.6299357073205
20
-56.369854302147353
42
0.42102432711981702
10
265.92854747877402
20
-46.955498310474425
42
-0.050053755239841007
10
265.92854747877391
20
27.905511009457147
42
0.42102432694818515
10
256.62993571272546
20
37.319867001160148
42
-6.5408170697352488e-05
10
255.56984526753405
20
37.287752927021522
42
0.40540909291648286
10
254.59999433159828
20
36.288207513377984
10
254.59999433159828
20
32.500000469386883
42
0.41421356237307683
10
255.59999433159859
20
31.500000469386574
10
256.11439913586571
20
31.500000469386578
42
-0.414213562373069
10
257.11439913586577
20
30.500000469386581
10
257.11439913586577
20
29.463748666806275
42
0.19518039979038612
10
257.39720464794311
20
28.766875603405694
42
-0.19518039979042731
10
257.6800101600204
20
28.070002540005135
10
257.6800101600204
20
-47.119989841022203
42
-0.41421356254508496
0
CIRCLE
5
101
100
AcDbEntity
8
0
100
AcDbCircle
10
178.4500381000762
20
-50.744989795077799
30
0
40
1.5499999999999927
210
0
220
0
230
1
0
CIRCLE
5
102
100
AcDbEntity
8
0
100
AcDbCircle
10
88.249961899923846
20
31.695002540005135
30
0
40
1.5500000000000047
210
0
220
0
230
1
0
CIRCLE
5
103
100
AcDbEntity
8
0
100
AcDbCircle
10
7.4667353781937651
20
30.633264621806369
30
0
40
1.5500000000000005
210
0
220
0
230
1
0
CIRCLE
5
104
100
AcDbEntity
8
0
100
AcDbCircle
10
178.4500381000762
20
31.695002540005135
30
0
40
1.5500000000000067
210
0
220
0
230
1
0
CIRCLE
5
105
100
AcDbEntity
8
0
100
AcDbCircle
10
259.24327224182161
20
30.633264621806411
30
0
40
1.5500000000000047
210
0
220
0
230
1
0
CIRCLE
5
106
100
AcDbEntity
8
0
100
AcDbCircle
10
88.249961899923818
20
-50.744989742103357
30
0
40
1.5500000000000074
210
0
220
0
230
1
0
CIRCLE
5
107
100
AcDbEntity
8
0
100
AcDbCircle
10
259.24327224106889
20
-49.683251923576115
30
0
40
1.5500000000000005
210
0
220
0
230
1
0
CIRCLE
5
108
100
AcDbEntity
8
0
100
AcDbCircle
10
7.4667353774410472
20
-49.683251777213364
30
0
40
1.5500000000000014
210
0
220
0
230
1
0
ENDSEC
0
SECTION
2
OBJECTS
0
DICTIONARY
5
C
100
AcDbDictionary
3
ACAD_GROUP
350
D
3
ACAD_MLINESTYLE
350
17
0
DICTIONARY
5
D
100
AcDbDictionary
0
DICTIONARY
5
1A
330
C
100
AcDbDictionary
0
DICTIONARY
5
17
100
AcDbDictionary
0
ENDSEC
0
EOF
