0
SECTION
2
HEADER
9
$INSUNITS
70
4
9
$ACADVER
1
AC1014
9
$HANDSEED
5
FFFF
0
ENDSEC
0
SECTION
2
TABLES
0
TABLE
2
VPORT
5
8
100
AcDbSymbolTable
0
ENDTAB
0
TABLE
2
LTYPE
5
5
100
AcDbSymbolTable
0
LTYPE
5
14
100
AcDbSymbolTableRecord
100
AcDbLinetypeTableRecord
2
BYBLOCK
70
0
0
LTYPE
5
15
100
AcDbSymbolTableRecord
100
AcDbLinetypeTableRecord
2
BYLAYER
70
0
0
ENDTAB
0
TABLE
2
LAYER
5
2
100
AcDbSymbolTable
70
2
0
LAYER
5
50
100
AcDbSymbolTableRecord
100
AcDbLayerTableRecord
2
0
70
0
6
CONTINUOUS
0
ENDTAB
0
TABLE
2
STYLE
5
3
100
AcDbSymbolTable
70
1
0
STYLE
5
11
100
AcDbSymbolTableRecord
100
AcDbTextStyleTableRecord
2
STANDARD
70
0
0
ENDTAB
0
TABLE
2
VIEW
5
6
100
AcDbSymbolTable
70
0
0
ENDTAB
0
TABLE
2
UCS
5
7
100
AcDbSymbolTable
70
0
0
ENDTAB
0
TABLE
2
APPID
5
9
100
AcDbSymbolTable
70
2
0
APPID
5
12
100
AcDbSymbolTableRecord
100
AcDbRegAppTableRecord
2
ACAD
70
0
0
ENDTAB
0
TABLE
2
DIMSTYLE
5
A
100
AcDbSymbolTable
70
1
0
ENDTAB
0
TABLE
2
BLOCK_RECORD
5
1
100
AcDbSymbolTable
70
1
0
BLOCK_RECORD
5
1F
100
AcDbSymbolTableRecord
100
AcDbBlockTableRecord
2
*MODEL_SPACE
0
BLOCK_RECORD
5
1B
100
AcDbSymbolTableRecord
100
AcDbBlockTableRecord
2
*PAPER_SPACE
0
ENDTAB
0
ENDSEC
0
SECTION
2
BLOCKS
0
BLOCK
5
20
100
AcDbEntity
100
AcDbBlockBegin
2
*MODEL_SPACE
0
ENDBLK
5
21
100
AcDbEntity
100
AcDbBlockEnd
0
BLOCK
5
1C
100
AcDbEntity
100
AcDbBlockBegin
2
*PAPER_SPACE
0
ENDBLK
5
1D
100
AcDbEntity
100
AcDbBlockEnd
0
ENDSEC
0
SECTION
2
ENTITIES
0
LWPOLYLINE
5
100
100
AcDbEntity
8
0
100
AcDbPolyline
90
51
70
1
43
0.0
10
197.27683536726519
20
60.301320825707521
10
200.05689611013
20
60.301320825987617
42
-0.41421356238324053
10
201.05689611023084
20
59.301320826053647
10
201.05689611135401
20
42.289712982942788
42
0.41421356235803802
10
202.05689611136881
20
41.289712983008783
10
204.81988823937687
20
41.28971298304976
42
-0.41421356237445817
10
205.8198882393917
20
40.289712983059843
10
205.81988823977667
20
23.23967487934976
42
0.41421356237308982
10
206.81988823977667
20
22.239674879349764
10
209.57990855981734
20
22.23967487934976
42
-0.4142135623729975
10
210.57990855981728
20
21.23967487934976
10
210.57990855981785
20
2.1576157039782085
42
-0.41511163531430695
10
209.57684332566689
20
1.1576204018194134
10
19.102471976923532
20
1.7414716926078513
42
-0.41331605937633042
10
18.10553721107453
20
2.741466994766617
10
18.10553721107453
20
19.239674879349767
42
0.41421356237309176
10
17.10553721107453
20
20.239674879349767
10
14.343027686055393
20
20.239674879349767
42
-0.41421356237309243
10
13.343027686055393
20
21.23967487934976
10
13.343027686055393
20
38.289712979426
42
0.4142135623730937
10
12.343027686055397
20
39.289712979426
10
9.5805181595486104
20
39.28971297957122
42
-0.41421356236873086
10
8.5805181595301363
20
40.289712979537846
10
8.5805181589611923
20
57.339751080296118
42
0.41421356240051066
10
7.5805181588341775
20
58.339751080262772
10
4.818008622452945
20
58.339751079911878
10
-2.2999999260436699
20
58.339751078519697
42
-0.41421356243038632
10
-3.299999926239253
20
59.339751078519697
10
-3.2999999262392499
20
63.96164592329194
42
0.41421356237309664
10
-4.2999999262392521
20
64.96164592329194
10
-6.4039426361387779
20
64.96164592329194
42
0.47000662305787749
10
-7.3865705257526306
20
63.776059203527247
10
4.6295506387036367
20
0.15418046056371496
42
0.35969318219720164
10
10.507368074535409
20
-4.732272370873293
10
218.68978460837127
20
-5.3550841486136802
42
0.47041191553082268
10
224.60534660511996
20
1.7485971050878721
10
218.28097198514041
20
35.54259402077173
10
209.50274468031611
20
82.32729931319156
42
0.36087574211029344
10
203.6056507580733
20
87.220825936511176
10
-4.5752489436849686
20
87.220825756892907
42
0.4700066227945211
10
-10.471016276191275
20
80.107305438304707
10
-9.8418512911796991
20
76.77605920352724
42
0.36053808780783803
10
-8.8592234015658455
20
75.96164592329194
10
-4.2999999262392468
20
75.96164592329194
42
0.41421356237309959
10
-3.2999999262392521
20
76.96164592329194
10
-3.2999999262392476
20
78.389789152012042
42
-0.41421356231580908
10
-2.2999999264348374
20
79.389789152012028
10
4.8180086177372266
20
79.389789153404223
10
195.27640332249592
20
79.389789317731541
42
-0.41420615750446049
10
196.27640332303909
20
78.38981460046341
10
196.27683536748404
20
61.30129554297568
42
0.41420615728128374
0
LINE
5
101
100
AcDbEntity
8
0
100
AcDbLine
10
216.31518751246844
20
35.174230414970125
30
0
11
207.3494163987142
21
82.958474854136199
31
0
0
ARC
5
102
100
AcDbEntity
8
0
100
AcDbCircle
10
203.51183560862688
20
81.720825936430231
30
0
40
4.999999999999984
210
0
220
-0
230
1
100
AcDbArc
50
10.626866031128468
51
90.000000049435656
0
ARC
5
103
100
AcDbEntity
8
0
100
AcDbCircle
10
218.8949850674334
20
-0.35567566429842129
30
0
40
3.999999999999972
210
0
220
0
230
1
100
AcDbArc
50
-90.171409192144267
51
10.60000000000044
0
ARC
5
104
100
AcDbEntity
8
0
100
AcDbCircle
10
203.41802045400345
20
82.220825936349257
30
0
40
4.0000000000000266
210
0
220
-0
230
1
100
AcDbArc
50
10.626866031128122
51
90.000000049433865
0
ARC
5
105
100
AcDbEntity
8
0
100
AcDbCircle
10
10.714293379633148
20
0.26713095328272318
30
0
40
3.9999999999999964
210
0
220
0
230
1
100
AcDbArc
50
190.69534135242822
51
269.82859080785539
0
CIRCLE
5
106
100
AcDbEntity
8
0
100
AcDbCircle
10
76.197265325017369
20
-0.92846577545531883
30
0
40
1.6000000000000003
210
0
220
0
230
1
0
ARC
5
107
100
AcDbEntity
8
0
100
AcDbCircle
10
218.80135978882808
20
0.144606668556541
30
0
40
4.9999999999999698
210
0
220
0
230
1
100
AcDbArc
50
-90.17140919214529
51
10.600000000000474
0
LINE
5
108
100
AcDbEntity
8
0
100
AcDbLine
10
10.702326778398914
20
-3.7328511467340846
30
0
11
218.88301846619919
21
-4.3556577643152048
31
0
0
LINE
5
109
100
AcDbEntity
8
0
100
AcDbLine
10
223.71603653457584
20
1.0643634216201827
30
0
11
217.29807974880464
21
35.358412217869493
31
0
0
ARC
5
110
100
AcDbEntity
8
0
100
AcDbCircle
10
-4.7641166593348059
20
82.220825756729923
30
0
40
4.0000000000000391
210
0
220
0
230
1
100
AcDbArc
50
90.000000049435357
51
190.69534135242804
0
CIRCLE
5
111
100
AcDbEntity
8
0
100
AcDbCircle
10
100.00068555493591
20
82.72082584662094
30
0
40
1.6000000000000003
210
0
220
0
230
1
0
LINE
5
112
100
AcDbEntity
8
0
100
AcDbLine
10
217.29807974880464
20
35.358412217869493
30
0
11
208.42608053951523
21
82.642887083663922
31
0
0
CIRCLE
5
113
100
AcDbEntity
8
0
100
AcDbCircle
10
203.3242052993802
20
82.720825936268312
30
0
40
1.6000000000000003
210
0
220
0
230
1
0
LINE
5
114
100
AcDbEntity
8
0
100
AcDbLine
10
10.604847426467154
20
-4.2325617588036906
30
0
11
218.78640153728523
21
-4.8553709564644434
31
0
0
CIRCLE
5
115
100
AcDbEntity
8
0
100
AcDbCircle
10
-4.8585505197482046
20
82.720825756648452
30
0
40
1.6000000000000003
210
0
220
0
230
1
0
LINE
5
116
100
AcDbEntity
8
0
100
AcDbLine
10
203.41802045055232
20
86.220825936349286
30
0
11
-4.7641166627860452
21
86.220825756729965
31
0
0
ARC
5
117
100
AcDbEntity
8
0
100
AcDbCircle
10
10.619805678009953
20
0.76741586621731528
30
0
40
4.9999999999999911
210
0
220
0
230
1
100
AcDbArc
50
190.69534135242782
51
269.82859080785533
0
LINE
5
118
100
AcDbEntity
8
0
100
AcDbLine
10
203.51183560431281
20
86.720825936430231
30
0
11
-4.6696828032354887
21
86.720825756811436
31
0
0
CIRCLE
5
119
100
AcDbEntity
8
0
100
AcDbCircle
10
152.5027333188749
20
-1.1591260334836444
30
0
40
1.6000000000000003
210
0
220
0
230
1
0
CIRCLE
5
120
100
AcDbEntity
8
0
100
AcDbCircle
10
218.98861034603866
20
-0.85595799715331167
30
0
40
1.6000000000000045
210
0
220
0
230
1
0
LINE
5
121
100
AcDbEntity
8
0
100
AcDbLine
10
222.82672646403159
20
0.38012973815248863
30
0
11
216.31518751246844
21
35.174230414970125
31
0
0
ARC
5
122
100
AcDbEntity
8
0
100
AcDbCircle
10
-4.6696827989214889
20
81.720825756811422
30
0
40
5.0000000000000178
210
0
220
0
230
1
100
AcDbArc
50
90.000000049434803
51
190.69534135242796
0
CIRCLE
5
123
100
AcDbEntity
8
0
100
AcDbCircle
10
10.714293379633153
20
0.26713095328272712
30
0
40
1.6000000000000014
210
0
220
0
230
1
0
LINE
5
124
100
AcDbEntity
8
0
100
AcDbLine
10
-9.5828222469907836
20
80.792892157987936
30
0
11
-8.6703556352145519
21
75.96164592329194
31
0
0
LINE
5
125
100
AcDbEntity
8
0
100
AcDbLine
10
-6.5928103721608791
20
64.96164592329194
30
0
11
5.7066662299406801
21
-0.16051773260615534
31
0
0
LINE
5
126
100
AcDbEntity
8
0
100
AcDbLine
10
-8.6946282177902727
20
81.478478877671122
30
0
11
-7.6526763840240131
21
75.96164592329194
31
0
0
LINE
5
127
100
AcDbEntity
8
0
100
AcDbLine
10
-5.5751311209703411
20
64.96164592329194
30
0
11
6.7837818211777332
21
-0.47521592577608018
31
0
0
ENDSEC
0
SECTION
2
OBJECTS
0
DICTIONARY
5
C
100
AcDbDictionary
3
ACAD_GROUP
350
D
3
ACAD_MLINESTYLE
350
17
0
DICTIONARY
5
D
100
AcDbDictionary
0
DICTIONARY
5
1A
330
C
100
AcDbDictionary
0
DICTIONARY
5
17
100
AcDbDictionary
0
ENDSEC
0
EOF
