0
SECTION
2
HEADER
9
$INSUNITS
70
4
9
$ACADVER
1
AC1014
9
$HANDSEED
5
FFFF
0
ENDSEC
0
SECTION
2
TABLES
0
TABLE
2
VPORT
5
8
100
AcDbSymbolTable
0
ENDTAB
0
TABLE
2
LTYPE
5
5
100
AcDbSymbolTable
0
LTYPE
5
14
100
AcDbSymbolTableRecord
100
AcDbLinetypeTableRecord
2
BYBLOCK
70
0
0
LTYPE
5
15
100
AcDbSymbolTableRecord
100
AcDbLinetypeTableRecord
2
BYLAYER
70
0
0
ENDTAB
0
TABLE
2
LAYER
5
2
100
AcDbSymbolTable
70
2
0
LAYER
5
50
100
AcDbSymbolTableRecord
100
AcDbLayerTableRecord
2
0
70
0
6
CONTINUOUS
0
ENDTAB
0
TABLE
2
STYLE
5
3
100
AcDbSymbolTable
70
1
0
STYLE
5
11
100
AcDbSymbolTableRecord
100
AcDbTextStyleTableRecord
2
STANDARD
70
0
0
ENDTAB
0
TABLE
2
VIEW
5
6
100
AcDbSymbolTable
70
0
0
ENDTAB
0
TABLE
2
UCS
5
7
100
AcDbSymbolTable
70
0
0
ENDTAB
0
TABLE
2
APPID
5
9
100
AcDbSymbolTable
70
2
0
APPID
5
12
100
AcDbSymbolTableRecord
100
AcDbRegAppTableRecord
2
ACAD
70
0
0
ENDTAB
0
TABLE
2
DIMSTYLE
5
A
100
AcDbSymbolTable
70
1
0
ENDTAB
0
TABLE
2
BLOCK_RECORD
5
1
100
AcDbSymbolTable
70
1
0
BLOCK_RECORD
5
1F
100
AcDbSymbolTableRecord
100
AcDbBlockTableRecord
2
*MODEL_SPACE
0
BLOCK_RECORD
5
1B
100
AcDbSymbolTableRecord
100
AcDbBlockTableRecord
2
*PAPER_SPACE
0
ENDTAB
0
ENDSEC
0
SECTION
2
BLOCKS
0
BLOCK
5
20
100
AcDbEntity
100
AcDbBlockBegin
2
*MODEL_SPACE
0
ENDBLK
5
21
100
AcDbEntity
100
AcDbBlockEnd
0
BLOCK
5
1C
100
AcDbEntity
100
AcDbBlockBegin
2
*PAPER_SPACE
0
ENDBLK
5
1D
100
AcDbEntity
100
AcDbBlockEnd
0
ENDSEC
0
SECTION
2
ENTITIES
0
CIRCLE
5
100
100
AcDbEntity
8
0
100
AcDbCircle
10
38.100076200152436
20
20.955041910083878
30
0
40
1.100000000000001
210
0
220
0
230
1
0
LWPOLYLINE
5
101
100
AcDbEntity
8
0
100
AcDbPolyline
90
25
70
1
43
0.0
10
216.31518751246844
20
35.174230414970125
10
207.3494163987142
20
82.958474854136199
42
0.36087574211028539
10
203.41802045055232
20
86.220825936349272
10
-4.7641166627860452
20
86.220825756729965
42
0.47000662279451899
10
-8.6946282177902674
20
81.478478877671122
10
-7.8064927887986348
20
76.77605920352724
42
0.36053808780783536
10
-6.8238648991847795
20
75.961645923291954
10
-4.2999999262392574
20
75.96164592329194
42
0.41421356237309653
10
-3.2999999262392561
20
76.96164592329194
10
-3.2999999262392556
20
78.389789180833475
42
-0.41421356237309731
10
-2.2999999262392512
20
79.389789180833475
10
35.60901719757004
20
79.389789180833475
42
-0.41421356237310025
10
36.60901719757004
20
78.389789180833475
10
36.60901719757004
20
59.339751076181372
42
-0.41421356237310025
10
35.60901719757004
20
58.339751076181372
10
-2.2999999262392521
20
58.339751076181372
42
-0.41421356237309681
10
-3.2999999262392521
20
59.339751076181372
10
-3.2999999262392512
20
63.96164592329194
42
0.41421356237309664
10
-4.299999926239253
20
64.96164592329194
10
-4.3685841337577136
20
64.96164592329194
42
0.47000662305787716
10
-5.3512120233715699
20
63.776059203527247
10
6.783781821177735
20
-0.47521592577608007
42
0.35969318219720314
10
10.702326778398916
20
-3.7328511467340855
10
218.88301846619922
20
-4.3556577643152048
42
0.47041191553081108
10
222.82672646403159
20
0.38012973815248569
0
CIRCLE
5
102
100
AcDbEntity
8
0
100
AcDbCircle
10
76.197265325017369
20
-0.92846577545531883
30
0
40
1.6000000000000003
210
0
220
0
230
1
0
LINE
5
103
100
AcDbEntity
8
0
100
AcDbLine
10
1.7285689904413204
20
58.339751079307618
30
0
11
3.818008622521516
21
58.339751079716294
31
0
0
CIRCLE
5
104
100
AcDbEntity
8
0
100
AcDbCircle
10
203.3242052993802
20
82.720825936268312
30
0
40
1.6000000000000003
210
0
220
0
230
1
0
CIRCLE
5
105
100
AcDbEntity
8
0
100
AcDbCircle
10
185.8013716027433
20
21.590043180086354
30
0
40
1.1000000000000001
210
0
220
0
230
1
0
CIRCLE
5
106
100
AcDbEntity
8
0
100
AcDbCircle
10
100.00068555493591
20
82.72082584662094
30
0
40
1.6000000000000003
210
0
220
0
230
1
0
CIRCLE
5
107
100
AcDbEntity
8
0
100
AcDbCircle
10
10.714293379633153
20
0.26713095328272712
30
0
40
1.6000000000000014
210
0
220
0
230
1
0
CIRCLE
5
108
100
AcDbEntity
8
0
100
AcDbCircle
10
152.5027333188749
20
-1.1591260334836444
30
0
40
1.6000000000000003
210
0
220
0
230
1
0
CIRCLE
5
109
100
AcDbEntity
8
0
100
AcDbCircle
10
-4.8585505197482046
20
82.720825756648452
30
0
40
1.6000000000000003
210
0
220
0
230
1
0
CIRCLE
5
110
100
AcDbEntity
8
0
100
AcDbCircle
10
47.752095504191168
20
59.055118110236222
30
0
40
1.100000000000003
210
0
220
0
230
1
0
CIRCLE
5
111
100
AcDbEntity
8
0
100
AcDbCircle
10
218.98861034603866
20
-0.85595799715331167
30
0
40
1.6000000000000045
210
0
220
0
230
1
0
CIRCLE
5
112
100
AcDbEntity
8
0
100
AcDbCircle
10
176.27635255270519
20
59.690119380238798
30
0
40
1.1000000000000094
210
0
220
0
230
1
0
CIRCLE
5
113
100
AcDbEntity
8
0
100
AcDbCircle
10
109.60121920243861
20
39.878079756159529
30
0
40
1.099999999999999
210
0
220
0
230
1
0
ENDSEC
0
SECTION
2
OBJECTS
0
DICTIONARY
5
C
100
AcDbDictionary
3
ACAD_GROUP
350
D
3
ACAD_MLINESTYLE
350
17
0
DICTIONARY
5
D
100
AcDbDictionary
0
DICTIONARY
5
1A
330
C
100
AcDbDictionary
0
DICTIONARY
5
17
100
AcDbDictionary
0
ENDSEC
0
EOF
