0
SECTION
2
HEADER
9
$INSUNITS
70
4
9
$ACADVER
1
AC1014
9
$HANDSEED
5
FFFF
0
ENDSEC
0
SECTION
2
TABLES
0
TABLE
2
VPORT
5
8
100
AcDbSymbolTable
0
ENDTAB
0
TABLE
2
LTYPE
5
5
100
AcDbSymbolTable
0
LTYPE
5
14
100
AcDbSymbolTableRecord
100
AcDbLinetypeTableRecord
2
BYBLOCK
70
0
0
LTYPE
5
15
100
AcDbSymbolTableRecord
100
AcDbLinetypeTableRecord
2
BYLAYER
70
0
0
ENDTAB
0
TABLE
2
LAYER
5
2
100
AcDbSymbolTable
70
2
0
LAYER
5
50
100
AcDbSymbolTableRecord
100
AcDbLayerTableRecord
2
0
70
0
6
CONTINUOUS
0
ENDTAB
0
TABLE
2
STYLE
5
3
100
AcDbSymbolTable
70
1
0
STYLE
5
11
100
AcDbSymbolTableRecord
100
AcDbTextStyleTableRecord
2
STANDARD
70
0
0
ENDTAB
0
TABLE
2
VIEW
5
6
100
AcDbSymbolTable
70
0
0
ENDTAB
0
TABLE
2
UCS
5
7
100
AcDbSymbolTable
70
0
0
ENDTAB
0
TABLE
2
APPID
5
9
100
AcDbSymbolTable
70
2
0
APPID
5
12
100
AcDbSymbolTableRecord
100
AcDbRegAppTableRecord
2
ACAD
70
0
0
ENDTAB
0
TABLE
2
DIMSTYLE
5
A
100
AcDbSymbolTable
70
1
0
ENDTAB
0
TABLE
2
BLOCK_RECORD
5
1
100
AcDbSymbolTable
70
1
0
BLOCK_RECORD
5
1F
100
AcDbSymbolTableRecord
100
AcDbBlockTableRecord
2
*MODEL_SPACE
0
BLOCK_RECORD
5
1B
100
AcDbSymbolTableRecord
100
AcDbBlockTableRecord
2
*PAPER_SPACE
0
ENDTAB
0
ENDSEC
0
SECTION
2
BLOCKS
0
BLOCK
5
20
100
AcDbEntity
100
AcDbBlockBegin
2
*MODEL_SPACE
0
ENDBLK
5
21
100
AcDbEntity
100
AcDbBlockEnd
0
BLOCK
5
1C
100
AcDbEntity
100
AcDbBlockBegin
2
*PAPER_SPACE
0
ENDBLK
5
1D
100
AcDbEntity
100
AcDbBlockEnd
0
ENDSEC
0
SECTION
2
ENTITIES
0
CIRCLE
5
100
100
AcDbEntity
8
0
100
AcDbCircle
10
76.525151665897909
20
-70.624002848409035
30
0
40
1.6999999999999993
210
0
220
0
230
1
0
CIRCLE
5
101
100
AcDbEntity
8
0
100
AcDbCircle
10
76.525151665897909
20
-5.4800355600735307
30
0
40
1.7000000000000002
210
0
220
0
230
1
0
LWPOLYLINE
5
102
100
AcDbEntity
8
0
100
AcDbPolyline
90
8
70
1
43
0.0
10
9.0000254000511717
20
-75.124002848411976
10
200.52000254000546
20
-75.124002848403919
42
0.41421356237308399
10
208.52000254000512
20
-67.124002848403919
10
208.52000254000515
20
-8.9800355600719239
42
0.41421356237309825
10
200.52000254000512
20
-0.98003556007192572
10
9.0000254000507578
20
-0.98003556007357773
42
0.41421356237309243
10
1.000025400050828
20
-8.980035560073576
10
1.0000254000508324
20
-67.124002848411962
42
0.41421356237310691
0
CIRCLE
5
103
100
AcDbEntity
8
0
100
AcDbCircle
10
6.5251516658979707
20
-69.598876582564927
30
0
40
1.7000000000000004
210
0
220
0
230
1
0
CIRCLE
5
104
100
AcDbEntity
8
0
100
AcDbCircle
10
135.44487627415808
20
-70.624002848406747
30
0
40
1.6999999999999993
210
0
220
0
230
1
0
CIRCLE
5
105
100
AcDbEntity
8
0
100
AcDbCircle
10
135.44487627415808
20
-5.4800355600719408
30
0
40
1.6999999999999995
210
0
220
0
230
1
0
CIRCLE
5
106
100
AcDbEntity
8
0
100
AcDbCircle
10
6.5251516658979005
20
-6.5051618259206734
30
0
40
1.7000000000000004
210
0
220
0
230
1
0
CIRCLE
5
107
100
AcDbEntity
8
0
100
AcDbCircle
10
202.99487627415817
20
-69.59887658255667
30
0
40
1.6999999999999915
210
0
220
0
230
1
0
CIRCLE
5
108
100
AcDbEntity
8
0
100
AcDbCircle
10
202.99487627415806
20
-6.5051618259189636
30
0
40
1.6999999999999944
210
0
220
0
230
1
0
CIRCLE
5
109
100
AcDbEntity
8
0
100
AcDbCircle
10
28.554980949962079
20
-28.534980949961835
30
0
40
1.2999999999999989
210
0
220
0
230
1
0
CIRCLE
5
110
100
AcDbEntity
8
0
100
AcDbCircle
10
28.554980949962079
20
-47.585019050038056
30
0
40
1.3000000000000016
210
0
220
0
230
1
0
CIRCLE
5
111
100
AcDbEntity
8
0
100
AcDbCircle
10
104.7551333502667
20
-28.534980949961835
30
0
40
1.300000000000008
210
0
220
0
230
1
0
CIRCLE
5
112
100
AcDbEntity
8
0
100
AcDbCircle
10
104.7551333502667
20
-47.585019050038056
30
0
40
1.3000000000000078
210
0
220
0
230
1
0
CIRCLE
5
113
100
AcDbEntity
8
0
100
AcDbCircle
10
200.48000000000002
20
-63.785958851917776
30
0
40
1.2999999999999901
210
0
220
0
230
1
0
CIRCLE
5
114
100
AcDbEntity
8
0
100
AcDbCircle
10
200.48000000000002
20
-12.278897637795293
30
0
40
1.3000000000000012
210
0
220
0
230
1
0
LWPOLYLINE
5
115
100
AcDbEntity
8
0
100
AcDbPolyline
90
4
70
1
43
0.0
10
12.100038100076109
20
-25.948729997460035
10
26.000038100076345
20
-25.948729997460035
10
26.000038100076345
20
-12.048729997460029
10
12.100038100076109
20
-12.048729997460029
0
LWPOLYLINE
5
116
100
AcDbEntity
8
0
100
AcDbPolyline
90
4
70
1
43
0.0
10
45.049999999999898
20
-12.048729997460029
10
31.150000000000144
20
-12.048729997460029
10
31.150000000000144
20
-25.948729997460035
10
45.049999999999898
20
-25.948729997460035
0
LWPOLYLINE
5
117
100
AcDbEntity
8
0
100
AcDbPolyline
90
4
70
1
43
0.0
10
64.100114300228782
20
-12.048729997460029
10
50.200114300228549
20
-12.048729997460029
10
50.200114300228549
20
-25.948729997460035
10
64.100114300228782
20
-25.948729997460035
0
LWPOLYLINE
5
118
100
AcDbEntity
8
0
100
AcDbPolyline
90
4
70
1
43
0.0
10
83.15015240030489
20
-12.048729997460029
10
69.250152400304884
20
-12.048729997460029
10
69.250152400304884
20
-25.948729997460035
10
83.15015240030489
20
-25.948729997460035
0
LWPOLYLINE
5
119
100
AcDbEntity
8
0
100
AcDbPolyline
90
4
70
1
43
0.0
10
102.20019050038098
20
-12.048729997460029
10
88.300190500381007
20
-12.048729997460029
10
88.300190500381007
20
-25.948729997460035
10
102.20019050038098
20
-25.948729997460035
0
LWPOLYLINE
5
120
100
AcDbEntity
8
0
100
AcDbPolyline
90
4
70
1
43
0.0
10
121.25000000000021
20
-12.048729997460029
10
107.35000000000001
20
-12.048729997460029
10
107.35000000000001
20
-25.948729997460035
10
121.25000000000021
20
-25.948729997460035
0
LWPOLYLINE
5
121
100
AcDbEntity
8
0
100
AcDbPolyline
90
4
70
1
43
0.0
10
140.3002667005334
20
-12.048729997460029
10
126.40026670053344
20
-12.048729997460029
10
126.40026670053344
20
-25.948729997460035
10
140.3002667005334
20
-25.948729997460035
0
LWPOLYLINE
5
122
100
AcDbEntity
8
0
100
AcDbPolyline
90
4
70
1
43
0.0
10
159.34999999999991
20
-12.048729997460029
10
145.4500000000001
20
-12.048729997460029
10
145.4500000000001
20
-25.948729997460035
10
159.34999999999991
20
-25.948729997460035
0
LWPOLYLINE
5
123
100
AcDbEntity
8
0
100
AcDbPolyline
90
4
70
1
43
0.0
10
178.40001270002563
20
-12.048729997460029
10
164.49998729997449
20
-12.048729997460029
10
164.49998729997449
20
-25.948729997460035
10
178.40001270002563
20
-25.948729997460035
0
LWPOLYLINE
5
124
100
AcDbEntity
8
0
100
AcDbPolyline
90
4
70
1
43
0.0
10
197.45000000000002
20
-12.048729997460029
10
183.55000000000018
20
-12.048729997460029
10
183.55000000000018
20
-25.948729997460035
10
197.45000000000002
20
-25.948729997460035
0
LWPOLYLINE
5
125
100
AcDbEntity
8
0
100
AcDbPolyline
90
4
70
1
43
0.0
10
26.000038100076345
20
-31.14956819913634
10
12.100038100076109
20
-31.14956819913634
10
12.100038100076109
20
-45.049568199136345
10
26.000038100076345
20
-45.049568199136345
0
LWPOLYLINE
5
126
100
AcDbEntity
8
0
100
AcDbPolyline
90
4
70
1
43
0.0
10
45.050025400050757
20
-31.14956819913634
10
31.150025400050978
20
-31.14956819913634
10
31.150025400050978
20
-45.049568199136345
10
45.050025400050757
20
-45.049568199136345
0
LWPOLYLINE
5
127
100
AcDbEntity
8
0
100
AcDbPolyline
90
4
70
1
43
0.0
10
64.100114300228782
20
-31.14956819913634
10
50.200114300228549
20
-31.14956819913634
10
50.200114300228549
20
-45.049568199136345
10
64.100114300228782
20
-45.049568199136345
0
LWPOLYLINE
5
128
100
AcDbEntity
8
0
100
AcDbPolyline
90
4
70
1
43
0.0
10
83.15015240030489
20
-31.14956819913634
10
69.250152400304884
20
-31.14956819913634
10
69.250152400304884
20
-45.049568199136345
10
83.15015240030489
20
-45.049568199136345
0
LWPOLYLINE
5
129
100
AcDbEntity
8
0
100
AcDbPolyline
90
4
70
1
43
0.0
10
102.20019050038098
20
-31.14956819913634
10
88.300190500381007
20
-31.14956819913634
10
88.300190500381007
20
-45.049568199136345
10
102.20019050038098
20
-45.049568199136345
0
LWPOLYLINE
5
130
100
AcDbEntity
8
0
100
AcDbPolyline
90
4
70
1
43
0.0
10
121.25000000000021
20
-31.14956819913634
10
107.35000000000001
20
-31.14956819913634
10
107.35000000000001
20
-45.049568199136345
10
121.25000000000021
20
-45.049568199136345
0
LWPOLYLINE
5
131
100
AcDbEntity
8
0
100
AcDbPolyline
90
4
70
1
43
0.0
10
140.3002667005334
20
-31.14956819913634
10
126.40026670053344
20
-31.14956819913634
10
126.40026670053344
20
-45.049568199136345
10
140.3002667005334
20
-45.049568199136345
0
LWPOLYLINE
5
132
100
AcDbEntity
8
0
100
AcDbPolyline
90
4
70
1
43
0.0
10
159.34999999999991
20
-31.14956819913634
10
145.4500000000001
20
-31.14956819913634
10
145.4500000000001
20
-45.049568199136345
10
159.34999999999991
20
-45.049568199136345
0
LWPOLYLINE
5
133
100
AcDbEntity
8
0
100
AcDbPolyline
90
4
70
1
43
0.0
10
178.40001270002563
20
-31.14956819913634
10
164.49998729997449
20
-31.14956819913634
10
164.49998729997449
20
-45.049568199136345
10
178.40001270002563
20
-45.049568199136345
0
LWPOLYLINE
5
134
100
AcDbEntity
8
0
100
AcDbPolyline
90
4
70
1
43
0.0
10
183.55000000000018
20
-45.049568199136345
10
197.45000000000002
20
-45.049568199136345
10
197.45000000000002
20
-31.14956819913634
10
183.55000000000018
20
-31.14956819913634
0
LWPOLYLINE
5
135
100
AcDbEntity
8
0
100
AcDbPolyline
90
4
70
1
43
0.0
10
26.000038100076345
20
-50.199606299212562
10
12.100038100076109
20
-50.199606299212562
10
12.100038100076109
20
-64.099606299212567
10
26.000038100076345
20
-64.099606299212567
0
LWPOLYLINE
5
136
100
AcDbEntity
8
0
100
AcDbPolyline
90
4
70
1
43
0.0
10
45.050025400050757
20
-50.199606299212562
10
31.150025400050978
20
-50.199606299212562
10
31.150025400050978
20
-64.099606299212567
10
45.050025400050757
20
-64.099606299212567
0
LWPOLYLINE
5
137
100
AcDbEntity
8
0
100
AcDbPolyline
90
4
70
1
43
0.0
10
64.100114300228782
20
-50.199606299212562
10
50.200114300228549
20
-50.199606299212562
10
50.200114300228549
20
-64.099606299212567
10
64.100114300228782
20
-64.099606299212567
0
LWPOLYLINE
5
138
100
AcDbEntity
8
0
100
AcDbPolyline
90
4
70
1
43
0.0
10
83.15015240030489
20
-50.199606299212562
10
69.250152400304884
20
-50.199606299212562
10
69.250152400304884
20
-64.099606299212567
10
83.15015240030489
20
-64.099606299212567
0
LWPOLYLINE
5
139
100
AcDbEntity
8
0
100
AcDbPolyline
90
4
70
1
43
0.0
10
102.20019050038098
20
-50.199606299212562
10
88.300190500381007
20
-50.199606299212562
10
88.300190500381007
20
-64.099606299212567
10
102.20019050038098
20
-64.099606299212567
0
LWPOLYLINE
5
140
100
AcDbEntity
8
0
100
AcDbPolyline
90
4
70
1
43
0.0
10
121.25000000000021
20
-50.199606299212562
10
107.35000000000001
20
-50.199606299212562
10
107.35000000000001
20
-64.099606299212567
10
121.25000000000021
20
-64.099606299212567
0
LWPOLYLINE
5
141
100
AcDbEntity
8
0
100
AcDbPolyline
90
4
70
1
43
0.0
10
140.3002667005334
20
-50.199606299212562
10
126.40026670053344
20
-50.199606299212562
10
126.40026670053344
20
-64.099606299212567
10
140.3002667005334
20
-64.099606299212567
0
LWPOLYLINE
5
142
100
AcDbEntity
8
0
100
AcDbPolyline
90
4
70
1
43
0.0
10
159.34999999999991
20
-50.199606299212562
10
145.4500000000001
20
-50.199606299212562
10
145.4500000000001
20
-64.099606299212567
10
159.34999999999991
20
-64.099606299212567
0
LWPOLYLINE
5
143
100
AcDbEntity
8
0
100
AcDbPolyline
90
4
70
1
43
0.0
10
178.40001270002563
20
-50.199606299212562
10
164.49998729997449
20
-50.199606299212562
10
164.49998729997449
20
-64.099606299212567
10
178.40001270002563
20
-64.099606299212567
0
LWPOLYLINE
5
144
100
AcDbEntity
8
0
100
AcDbPolyline
90
4
70
1
43
0.0
10
197.45000000000002
20
-50.199606299212562
10
183.55000000000018
20
-50.199606299212562
10
183.55000000000018
20
-64.099606299212567
10
197.45000000000002
20
-64.099606299212567
0
ENDSEC
0
SECTION
2
OBJECTS
0
DICTIONARY
5
C
100
AcDbDictionary
3
ACAD_GROUP
350
D
3
ACAD_MLINESTYLE
350
17
0
DICTIONARY
5
D
100
AcDbDictionary
0
DICTIONARY
5
1A
330
C
100
AcDbDictionary
0
DICTIONARY
5
17
100
AcDbDictionary
0
ENDSEC
0
EOF
