0
SECTION
2
HEADER
9
$INSUNITS
70
4
9
$ACADVER
1
AC1014
9
$HANDSEED
5
FFFF
0
ENDSEC
0
SECTION
2
TABLES
0
TABLE
2
VPORT
5
8
100
AcDbSymbolTable
0
ENDTAB
0
TABLE
2
LTYPE
5
5
100
AcDbSymbolTable
0
LTYPE
5
14
100
AcDbSymbolTableRecord
100
AcDbLinetypeTableRecord
2
BYBLOCK
70
0
0
LTYPE
5
15
100
AcDbSymbolTableRecord
100
AcDbLinetypeTableRecord
2
BYLAYER
70
0
0
ENDTAB
0
TABLE
2
LAYER
5
2
100
AcDbSymbolTable
70
2
0
LAYER
5
50
100
AcDbSymbolTableRecord
100
AcDbLayerTableRecord
2
0
70
0
6
CONTINUOUS
0
ENDTAB
0
TABLE
2
STYLE
5
3
100
AcDbSymbolTable
70
1
0
STYLE
5
11
100
AcDbSymbolTableRecord
100
AcDbTextStyleTableRecord
2
STANDARD
70
0
0
ENDTAB
0
TABLE
2
VIEW
5
6
100
AcDbSymbolTable
70
0
0
ENDTAB
0
TABLE
2
UCS
5
7
100
AcDbSymbolTable
70
0
0
ENDTAB
0
TABLE
2
APPID
5
9
100
AcDbSymbolTable
70
2
0
APPID
5
12
100
AcDbSymbolTableRecord
100
AcDbRegAppTableRecord
2
ACAD
70
0
0
ENDTAB
0
TABLE
2
DIMSTYLE
5
A
100
AcDbSymbolTable
70
1
0
ENDTAB
0
TABLE
2
BLOCK_RECORD
5
1
100
AcDbSymbolTable
70
1
0
BLOCK_RECORD
5
1F
100
AcDbSymbolTableRecord
100
AcDbBlockTableRecord
2
*MODEL_SPACE
0
BLOCK_RECORD
5
1B
100
AcDbSymbolTableRecord
100
AcDbBlockTableRecord
2
*PAPER_SPACE
0
ENDTAB
0
ENDSEC
0
SECTION
2
BLOCKS
0
BLOCK
5
20
100
AcDbEntity
100
AcDbBlockBegin
2
*MODEL_SPACE
0
ENDBLK
5
21
100
AcDbEntity
100
AcDbBlockEnd
0
BLOCK
5
1C
100
AcDbEntity
100
AcDbBlockBegin
2
*PAPER_SPACE
0
ENDBLK
5
1D
100
AcDbEntity
100
AcDbBlockEnd
0
ENDSEC
0
SECTION
2
ENTITIES
0
LWPOLYLINE
5
100
100
AcDbEntity
8
0
100
AcDbPolyline
90
4
70
1
43
0.0
10
12.05003810007611
20
-25.998729997460032
10
26.050038100076343
20
-25.998729997460032
10
26.050038100076343
20
-11.998729997460028
10
12.05003810007611
20
-11.998729997460028
0
LWPOLYLINE
5
101
100
AcDbEntity
8
0
100
AcDbPolyline
90
4
70
1
43
0.0
10
88.250190500380995
20
-31.099568199136343
10
88.250190500380995
20
-45.099568199136343
10
102.250190500381
20
-45.099568199136343
10
102.250190500381
20
-31.099568199136343
0
LWPOLYLINE
5
102
100
AcDbEntity
8
0
100
AcDbPolyline
90
4
70
1
43
0.0
10
107.30000000000001
20
-31.099568199136343
10
107.30000000000001
20
-45.099568199136343
10
121.30000000000022
20
-45.099568199136343
10
121.30000000000022
20
-31.099568199136343
0
LWPOLYLINE
5
103
100
AcDbEntity
8
0
100
AcDbPolyline
90
4
70
1
43
0.0
10
64.150114300228779
20
-64.149606299212564
10
64.150114300228779
20
-50.149606299212557
10
50.150114300228552
20
-50.149606299212557
10
50.150114300228552
20
-64.149606299212564
0
LWPOLYLINE
5
104
100
AcDbEntity
8
0
100
AcDbPolyline
90
4
70
1
43
0.0
10
88.250190500380995
20
-50.149606299212557
10
88.250190500380995
20
-64.149606299212564
10
102.250190500381
20
-64.149606299212564
10
102.250190500381
20
-50.149606299212557
0
LWPOLYLINE
5
105
100
AcDbEntity
8
0
100
AcDbPolyline
90
4
70
1
43
0.0
10
83.200152400304887
20
-50.149606299212557
10
69.200152400304887
20
-50.149606299212557
10
69.200152400304887
20
-64.149606299212564
10
83.200152400304887
20
-64.149606299212564
0
LWPOLYLINE
5
106
100
AcDbEntity
8
0
100
AcDbPolyline
90
4
70
1
43
0.0
10
121.30000000000022
20
-50.149606299212557
10
107.30000000000001
20
-50.149606299212557
10
107.30000000000001
20
-64.149606299212564
10
121.30000000000022
20
-64.149606299212564
0
LWPOLYLINE
5
107
100
AcDbEntity
8
0
100
AcDbPolyline
90
4
70
1
43
0.0
10
69.200152400304887
20
-31.099568199136343
10
69.200152400304887
20
-45.099568199136343
10
83.200152400304887
20
-45.099568199136343
10
83.200152400304887
20
-31.099568199136343
0
LWPOLYLINE
5
108
100
AcDbEntity
8
0
100
AcDbPolyline
90
4
70
1
43
0.0
10
64.150114300228779
20
-45.099568199136343
10
64.150114300228779
20
-31.099568199136343
10
50.150114300228552
20
-31.099568199136343
10
50.150114300228552
20
-45.099568199136343
0
CIRCLE
5
109
100
AcDbEntity
8
0
100
AcDbCircle
10
76.525151665897909
20
-70.624002848409035
30
0
40
1.6999999999999993
210
0
220
0
230
1
0
LWPOLYLINE
5
110
100
AcDbEntity
8
0
100
AcDbPolyline
90
4
70
1
43
0.0
10
83.200152400304887
20
-25.998729997460032
10
83.200152400304887
20
-11.998729997460028
10
69.200152400304887
20
-11.998729997460028
10
69.200152400304887
20
-25.998729997460032
0
LWPOLYLINE
5
111
100
AcDbEntity
8
0
100
AcDbPolyline
90
4
70
1
43
0.0
10
102.250190500381
20
-25.998729997460032
10
102.250190500381
20
-11.998729997460028
10
88.250190500380995
20
-11.998729997460028
10
88.250190500380995
20
-25.998729997460032
0
LWPOLYLINE
5
112
100
AcDbEntity
8
0
100
AcDbPolyline
90
4
70
1
43
0.0
10
64.150114300228779
20
-25.998729997460032
10
64.150114300228779
20
-11.998729997460028
10
50.150114300228552
20
-11.998729997460028
10
50.150114300228552
20
-25.998729997460032
0
LWPOLYLINE
5
113
100
AcDbEntity
8
0
100
AcDbPolyline
90
4
70
1
43
0.0
10
107.30000000000001
20
-25.998729997460032
10
121.30000000000022
20
-25.998729997460032
10
121.30000000000022
20
-11.998729997460028
10
107.30000000000001
20
-11.998729997460028
0
LWPOLYLINE
5
114
100
AcDbEntity
8
0
100
AcDbPolyline
90
4
70
1
43
0.0
10
126.35026670053342
20
-64.149606299212564
10
140.35026670053341
20
-64.149606299212564
10
140.35026670053341
20
-50.149606299212557
10
126.35026670053342
20
-50.149606299212557
0
LWPOLYLINE
5
115
100
AcDbEntity
8
0
100
AcDbPolyline
90
4
70
1
43
0.0
10
145.40000000000009
20
-25.998729997460032
10
159.39999999999992
20
-25.998729997460032
10
159.39999999999992
20
-11.998729997460028
10
145.40000000000009
20
-11.998729997460028
0
LWPOLYLINE
5
116
100
AcDbEntity
8
0
100
AcDbPolyline
90
4
70
1
43
0.0
10
26.050038100076343
20
-64.149606299212564
10
26.050038100076343
20
-50.149606299212557
10
12.05003810007611
20
-50.149606299212557
10
12.05003810007611
20
-64.149606299212564
0
CIRCLE
5
117
100
AcDbEntity
8
0
100
AcDbCircle
10
76.525151665897909
20
-5.4800355600735307
30
0
40
1.7000000000000002
210
0
220
0
230
1
0
LWPOLYLINE
5
118
100
AcDbEntity
8
0
100
AcDbPolyline
90
8
70
1
43
0.0
10
9.0000254000511717
20
-75.124002848411976
10
200.52000254000546
20
-75.124002848403919
42
0.41421356237308399
10
208.52000254000512
20
-67.124002848403919
10
208.52000254000515
20
-8.9800355600719239
42
0.41421356237309825
10
200.52000254000512
20
-0.98003556007192572
10
9.0000254000507578
20
-0.98003556007357773
42
0.41421356237309243
10
1.000025400050828
20
-8.980035560073576
10
1.0000254000508324
20
-67.124002848411962
42
0.41421356237310691
0
LWPOLYLINE
5
119
100
AcDbEntity
8
0
100
AcDbPolyline
90
4
70
1
43
0.0
10
45.100025400050754
20
-31.099568199136343
10
31.100025400050981
20
-31.099568199136343
10
31.100025400050981
20
-45.099568199136343
10
45.100025400050754
20
-45.099568199136343
0
CIRCLE
5
120
100
AcDbEntity
8
0
100
AcDbCircle
10
6.5251516658979707
20
-69.598876582564927
30
0
40
1.7000000000000004
210
0
220
0
230
1
0
LWPOLYLINE
5
121
100
AcDbEntity
8
0
100
AcDbPolyline
90
4
70
1
43
0.0
10
45.100025400050754
20
-64.149606299212564
10
45.100025400050754
20
-50.149606299212557
10
31.100025400050981
20
-50.149606299212557
10
31.100025400050981
20
-64.149606299212564
0
LWPOLYLINE
5
122
100
AcDbEntity
8
0
100
AcDbPolyline
90
4
70
1
43
0.0
10
145.40000000000009
20
-45.099568199136343
10
159.39999999999992
20
-45.099568199136343
10
159.39999999999992
20
-31.099568199136343
10
145.40000000000009
20
-31.099568199136343
0
LWPOLYLINE
5
123
100
AcDbEntity
8
0
100
AcDbPolyline
90
4
70
1
43
0.0
10
31.100000000000144
20
-25.998729997460032
10
45.099999999999902
20
-25.998729997460032
10
45.099999999999902
20
-11.998729997460028
10
31.100000000000144
20
-11.998729997460028
0
LWPOLYLINE
5
124
100
AcDbEntity
8
0
100
AcDbPolyline
90
4
70
1
43
0.0
10
26.050038100076343
20
-31.099568199136343
10
12.05003810007611
20
-31.099568199136343
10
12.05003810007611
20
-45.099568199136343
10
26.050038100076343
20
-45.099568199136343
0
CIRCLE
5
125
100
AcDbEntity
8
0
100
AcDbCircle
10
135.44487627415808
20
-70.624002848406747
30
0
40
1.6999999999999993
210
0
220
0
230
1
0
LWPOLYLINE
5
126
100
AcDbEntity
8
0
100
AcDbPolyline
90
4
70
1
43
0.0
10
159.39999999999992
20
-64.149606299212564
10
159.39999999999992
20
-50.149606299212557
10
145.40000000000009
20
-50.149606299212557
10
145.40000000000009
20
-64.149606299212564
0
CIRCLE
5
127
100
AcDbEntity
8
0
100
AcDbCircle
10
135.44487627415808
20
-5.4800355600719408
30
0
40
1.6999999999999995
210
0
220
0
230
1
0
LWPOLYLINE
5
128
100
AcDbEntity
8
0
100
AcDbPolyline
90
4
70
1
43
0.0
10
140.35026670053341
20
-25.998729997460032
10
140.35026670053341
20
-11.998729997460028
10
126.35026670053342
20
-11.998729997460028
10
126.35026670053342
20
-25.998729997460032
0
LWPOLYLINE
5
129
100
AcDbEntity
8
0
100
AcDbPolyline
90
4
70
1
43
0.0
10
140.35026670053341
20
-45.099568199136343
10
140.35026670053341
20
-31.099568199136343
10
126.35026670053342
20
-31.099568199136343
10
126.35026670053342
20
-45.099568199136343
0
LWPOLYLINE
5
130
100
AcDbEntity
8
0
100
AcDbPolyline
90
4
70
1
43
0.0
10
178.45001270002564
20
-31.099568199136343
10
164.44998729997451
20
-31.099568199136343
10
164.44998729997451
20
-45.099568199136343
10
178.45001270002564
20
-45.099568199136343
0
LWPOLYLINE
5
131
100
AcDbEntity
8
0
100
AcDbPolyline
90
4
70
1
43
0.0
10
183.5000000000002
20
-50.149606299212557
10
183.5000000000002
20
-64.149606299212564
10
197.5
20
-64.149606299212564
10
197.5
20
-50.149606299212557
0
CIRCLE
5
132
100
AcDbEntity
8
0
100
AcDbCircle
10
6.5251516658979005
20
-6.5051618259206734
30
0
40
1.7000000000000004
210
0
220
0
230
1
0
LWPOLYLINE
5
133
100
AcDbEntity
8
0
100
AcDbPolyline
90
4
70
1
43
0.0
10
164.44998729997451
20
-50.149606299212557
10
164.44998729997451
20
-64.149606299212564
10
178.45001270002564
20
-64.149606299212564
10
178.45001270002564
20
-50.149606299212557
0
LWPOLYLINE
5
134
100
AcDbEntity
8
0
100
AcDbPolyline
90
4
70
1
43
0.0
10
178.45001270002564
20
-11.998729997460028
10
164.44998729997451
20
-11.998729997460028
10
164.44998729997451
20
-25.998729997460032
10
178.45001270002564
20
-25.998729997460032
0
LWPOLYLINE
5
135
100
AcDbEntity
8
0
100
AcDbPolyline
90
4
70
1
43
0.0
10
183.5000000000002
20
-25.998729997460032
10
197.5
20
-25.998729997460032
10
197.5
20
-11.998729997460028
10
183.5000000000002
20
-11.998729997460028
0
CIRCLE
5
136
100
AcDbEntity
8
0
100
AcDbCircle
10
202.99487627415817
20
-69.59887658255667
30
0
40
1.6999999999999915
210
0
220
0
230
1
0
LWPOLYLINE
5
137
100
AcDbEntity
8
0
100
AcDbPolyline
90
10
70
1
43
0.0
10
197.5
20
-44.938016256032547
10
197.5
20
-32.197985775971517
10
201.91040386080769
20
-32.197985775971517
42
0.99999999999999989
10
201.91040386080769
20
-29.697985775971517
10
181.5903632207264
20
-29.697985775971517
42
0.41421356237309503
10
180.3403632207264
20
-30.947985775971517
10
180.3403632207264
20
-46.18801625603254
42
0.41421356237309503
10
181.5903632207264
20
-47.43801625603254
10
201.91040386080769
20
-47.43801625603254
42
0.99999999999999989
10
201.91040386080769
20
-44.938016256032547
0
CIRCLE
5
138
100
AcDbEntity
8
0
100
AcDbCircle
10
202.99487627415806
20
-6.5051618259189636
30
0
40
1.6999999999999944
210
0
220
0
230
1
0
CIRCLE
5
139
100
AcDbEntity
8
0
100
AcDbCircle
10
28.554980949962079
20
-28.534980949961835
30
0
40
1.2999999999999992
210
0
220
0
230
1
0
CIRCLE
5
140
100
AcDbEntity
8
0
100
AcDbCircle
10
28.554980949962079
20
-47.585019050038056
30
0
40
1.3000000000000014
210
0
220
0
230
1
0
CIRCLE
5
141
100
AcDbEntity
8
0
100
AcDbCircle
10
104.7551333502667
20
-28.534980949961835
30
0
40
1.2999999999999989
210
0
220
0
230
1
0
CIRCLE
5
142
100
AcDbEntity
8
0
100
AcDbCircle
10
104.7551333502667
20
-47.585019050038056
30
0
40
1.3000000000000038
210
0
220
0
230
1
0
CIRCLE
5
143
100
AcDbEntity
8
0
100
AcDbCircle
10
200.48000000000002
20
-63.785958851917776
30
0
40
1.2999999999999901
210
0
220
0
230
1
0
CIRCLE
5
144
100
AcDbEntity
8
0
100
AcDbCircle
10
200.48000000000002
20
-12.278897637795293
30
0
40
1.3000000000000091
210
0
220
0
230
1
0
ENDSEC
0
SECTION
2
OBJECTS
0
DICTIONARY
5
C
100
AcDbDictionary
3
ACAD_GROUP
350
D
3
ACAD_MLINESTYLE
350
17
0
DICTIONARY
5
D
100
AcDbDictionary
0
DICTIONARY
5
1A
330
C
100
AcDbDictionary
0
DICTIONARY
5
17
100
AcDbDictionary
0
ENDSEC
0
EOF
