0
SECTION
2
HEADER
9
$INSUNITS
70
4
9
$ACADVER
1
AC1014
9
$HANDSEED
5
FFFF
0
ENDSEC
0
SECTION
2
TABLES
0
TABLE
2
VPORT
5
8
100
AcDbSymbolTable
0
ENDTAB
0
TABLE
2
LTYPE
5
5
100
AcDbSymbolTable
0
LTYPE
5
14
100
AcDbSymbolTableRecord
100
AcDbLinetypeTableRecord
2
BYBLOCK
70
0
0
LTYPE
5
15
100
AcDbSymbolTableRecord
100
AcDbLinetypeTableRecord
2
BYLAYER
70
0
0
ENDTAB
0
TABLE
2
LAYER
5
2
100
AcDbSymbolTable
70
2
0
LAYER
5
50
100
AcDbSymbolTableRecord
100
AcDbLayerTableRecord
2
0
70
0
6
CONTINUOUS
0
ENDTAB
0
TABLE
2
STYLE
5
3
100
AcDbSymbolTable
70
1
0
STYLE
5
11
100
AcDbSymbolTableRecord
100
AcDbTextStyleTableRecord
2
STANDARD
70
0
0
ENDTAB
0
TABLE
2
VIEW
5
6
100
AcDbSymbolTable
70
0
0
ENDTAB
0
TABLE
2
UCS
5
7
100
AcDbSymbolTable
70
0
0
ENDTAB
0
TABLE
2
APPID
5
9
100
AcDbSymbolTable
70
2
0
APPID
5
12
100
AcDbSymbolTableRecord
100
AcDbRegAppTableRecord
2
ACAD
70
0
0
ENDTAB
0
TABLE
2
DIMSTYLE
5
A
100
AcDbSymbolTable
70
1
0
ENDTAB
0
TABLE
2
BLOCK_RECORD
5
1
100
AcDbSymbolTable
70
1
0
BLOCK_RECORD
5
1F
100
AcDbSymbolTableRecord
100
AcDbBlockTableRecord
2
*MODEL_SPACE
0
BLOCK_RECORD
5
1B
100
AcDbSymbolTableRecord
100
AcDbBlockTableRecord
2
*PAPER_SPACE
0
ENDTAB
0
ENDSEC
0
SECTION
2
BLOCKS
0
BLOCK
5
20
100
AcDbEntity
100
AcDbBlockBegin
2
*MODEL_SPACE
0
ENDBLK
5
21
100
AcDbEntity
100
AcDbBlockEnd
0
BLOCK
5
1C
100
AcDbEntity
100
AcDbBlockBegin
2
*PAPER_SPACE
0
ENDBLK
5
1D
100
AcDbEntity
100
AcDbBlockEnd
0
ENDSEC
0
SECTION
2
ENTITIES
0
CIRCLE
5
100
100
AcDbEntity
8
0
100
AcDbCircle
10
76.525151665897909
20
-70.624002848409035
30
0
40
1.6999999999999993
210
0
220
0
230
1
0
LWPOLYLINE
5
101
100
AcDbEntity
8
0
100
AcDbPolyline
90
8
70
1
43
0.0
10
206.52000254000518
20
-67.124002848403904
10
206.52000254000515
20
-8.9800355600719115
42
0.41421356237309548
10
200.52000254000512
20
-2.9800355600719186
10
9.0000254000507756
20
-2.9800355600735751
42
0.41421356237309243
10
3.0000254000508275
20
-8.980035560073576
10
3.0000254000508333
20
-67.124002848411962
42
0.41421356237310691
10
9.00002540005109
20
-73.124002848411976
10
200.52000254000544
20
-73.124002848403919
42
0.41421356237308249
0
LWPOLYLINE
5
102
100
AcDbEntity
8
0
100
AcDbPolyline
90
8
70
1
43
0.0
10
10.000025400050829
20
-8.9800355600719772
10
199.49746536285036
20
-8.9800355600718724
42
-0.41409462032286631
10
200.49746528038747
20
-9.979629449445504
10
200.52026594399027
20
-66.123596737777305
42
-0.41433251442775393
10
199.52026602645321
20
-67.124002848403663
10
10.000025400050834
20
-67.124002848403691
42
-0.41421356237309698
10
9.0000254000508306
20
-66.124002848403691
10
9.0000254000508288
20
-9.980035560071979
42
-0.41421356237309503
0
LWPOLYLINE
5
103
100
AcDbEntity
8
0
100
AcDbPolyline
90
8
70
1
43
0.0
10
2.000025400050828
20
-8.980035560073576
10
2.0000254000508324
20
-67.124002848411962
42
0.41421356237310686
10
9.0000254000511291
20
-74.124002848411976
10
200.52000254000546
20
-74.124002848403919
42
0.41421356237308432
10
207.52000254000518
20
-67.124002848403919
10
207.52000254000512
20
-8.9800355600719239
42
0.4142135623731012
10
200.52000254000507
20
-1.9800355600719266
10
9.0000254000507667
20
-1.9800355600735786
42
0.41421356237309243
0
CIRCLE
5
104
100
AcDbEntity
8
0
100
AcDbCircle
10
76.525151665897909
20
-5.4800355600735307
30
0
40
1.7000000000000002
210
0
220
0
230
1
0
CIRCLE
5
105
100
AcDbEntity
8
0
100
AcDbCircle
10
6.5251516658979707
20
-69.598876582564927
30
0
40
1.7000000000000004
210
0
220
0
230
1
0
CIRCLE
5
106
100
AcDbEntity
8
0
100
AcDbCircle
10
135.44487627415808
20
-70.624002848406747
30
0
40
1.6999999999999993
210
0
220
0
230
1
0
CIRCLE
5
107
100
AcDbEntity
8
0
100
AcDbCircle
10
135.44487627415808
20
-5.4800355600719408
30
0
40
1.6999999999999995
210
0
220
0
230
1
0
CIRCLE
5
108
100
AcDbEntity
8
0
100
AcDbCircle
10
6.5251516658979005
20
-6.5051618259206734
30
0
40
1.7000000000000004
210
0
220
0
230
1
0
CIRCLE
5
109
100
AcDbEntity
8
0
100
AcDbCircle
10
202.99487627415817
20
-69.59887658255667
30
0
40
1.6999999999999915
210
0
220
0
230
1
0
CIRCLE
5
110
100
AcDbEntity
8
0
100
AcDbCircle
10
202.99487627415806
20
-6.5051618259189636
30
0
40
1.6999999999999944
210
0
220
0
230
1
0
CIRCLE
5
111
100
AcDbEntity
8
0
100
AcDbCircle
10
200.48000000000002
20
-12.278897637795293
30
0
40
2.5
210
0
220
0
230
1
0
CIRCLE
5
112
100
AcDbEntity
8
0
100
AcDbCircle
10
200.48000000000002
20
-63.785958851917776
30
0
40
2.4999999999999867
210
0
220
0
230
1
0
ENDSEC
0
SECTION
2
OBJECTS
0
DICTIONARY
5
C
100
AcDbDictionary
3
ACAD_GROUP
350
D
3
ACAD_MLINESTYLE
350
17
0
DICTIONARY
5
D
100
AcDbDictionary
0
DICTIONARY
5
1A
330
C
100
AcDbDictionary
0
DICTIONARY
5
17
100
AcDbDictionary
0
ENDSEC
0
EOF
